<svg width="1022" height="686" viewBox="0 0 1022 686" fill="none" xmlns="http://www.w3.org/2000/svg">
<g opacity="0.8">
<path fill-rule="evenodd" clip-rule="evenodd" d="M108.304 506.773C104.142 508.396 99.4402 506.318 97.8018 502.133C96.1634 497.949 98.2088 493.241 102.371 491.618L317.407 407.777L324.33 399.344C327.165 395.889 332.268 395.41 335.726 398.274L346.201 406.949C347.955 408.401 348.948 410.434 349.133 412.535L557.793 507.63L490.772 400.312L490.314 400.394C483.531 401.606 477.025 397.065 475.783 390.253L474.109 381.076C473.17 375.922 476.568 371 481.702 370.082L491.051 368.412C497.248 367.306 503.216 371.001 505.146 376.844L820.04 469.054C824.339 470.311 826.826 474.826 825.593 479.133C824.361 483.441 819.877 485.913 815.577 484.654L505.881 393.967L577.407 508.5L583.672 508.674C588.537 508.809 592.386 512.892 592.245 517.774L591.854 531.431C591.713 536.292 587.675 540.097 582.832 539.932L569.775 539.487C565.132 539.33 561.398 535.568 561.257 530.909L561.139 526.972L340.675 426.497L338.551 429.085C335.713 432.542 330.611 433.021 327.153 430.156L320.001 424.234L108.304 506.773Z" fill="url(#paint0_linear_22_506)"/>
<path fill-rule="evenodd" clip-rule="evenodd" d="M241.259 267.516C235.773 267.861 230.693 270.155 226.753 273.795C222.393 277.823 215.982 283.787 213.792 286.074C210.43 289.583 203.889 296.814 197.761 303.704C185.604 317.373 167.924 338.773 165.527 341.68L165.506 341.702L165.411 341.804C165.351 341.868 165.257 341.969 165.159 342.079C165.071 342.177 164.924 342.346 164.766 342.551C164.76 342.558 164.756 342.564 164.751 342.57L111.421 411.651L53.9725 488.124C52.1259 490.582 52.6227 494.087 55.0811 495.953C57.5413 497.818 61.0305 497.338 62.877 494.88L120.26 418.494L120.304 418.436L173.514 349.511C173.522 349.502 173.531 349.493 173.543 349.48C173.578 349.442 173.665 349.35 173.738 349.271C173.811 349.192 173.938 349.052 174.073 348.888C176.298 346.191 194.008 324.75 206.085 311.169C212.222 304.269 218.637 297.182 221.84 293.839C223.732 291.863 229.817 286.192 234.318 282.034C236.486 280.031 239.195 278.845 242.014 278.668C246.339 278.396 251.836 278.169 255.954 278.379C263.691 278.771 281.936 280.153 283.798 280.294C283.937 280.305 284.062 280.314 284.197 280.322L318.434 282.356L567.343 291.896L849.596 462.084L849.601 462.086C850.554 462.659 851.629 462.993 852.738 463.062L964.88 470.036L1002.58 520.947L861.531 497.753C857.958 497.166 854.55 499.439 853.716 502.969L827.212 615.156L800.798 588.144C798.638 585.937 795.114 585.894 792.924 588.049C790.734 590.205 790.711 593.742 792.87 595.95L824.636 628.433C828.453 632.338 835.038 630.521 836.292 625.218L863.65 509.415L1011.08 533.657C1017.21 534.666 1021.42 527.697 1017.7 522.686L972.629 461.811C971.405 460.159 969.519 459.133 967.477 459.005L854.4 451.973L570.577 280.84L318.919 271.194L284.798 269.167C284.748 269.164 284.704 269.161 284.66 269.158C284.633 269.156 284.609 269.154 284.582 269.152C282.786 269.015 264.37 267.621 256.461 267.218C251.674 266.975 245.645 267.24 241.259 267.516ZM78.1986 533.31C77.0213 536.154 78.3703 539.43 81.2119 540.625L133.324 562.559L310.046 583.851L480.657 515.93C483.509 514.795 484.892 511.548 483.745 508.68C482.6 505.808 479.357 504.405 476.502 505.541L308.513 572.417L136.146 551.652L85.4732 530.324C82.6334 529.128 79.3757 530.465 78.1986 533.31ZM133.113 519.871C132.694 522.926 134.825 525.755 137.871 526.191L305.154 550.118L433.676 501.349C436.549 500.26 437.983 497.037 436.883 494.149C435.783 491.262 432.563 489.804 429.691 490.895L303.836 538.652L139.388 515.128C136.342 514.692 133.532 516.815 133.113 519.871ZM205.89 487.916C205.261 490.933 207.19 493.904 210.201 494.55L306.185 515.173L382.399 485.997C385.267 484.899 386.692 481.672 385.584 478.788C384.474 475.904 381.249 474.456 378.382 475.554L305.239 503.553L212.477 483.624C209.468 482.977 206.517 484.9 205.89 487.916ZM583.455 492.627C583.433 495.714 585.908 498.246 588.982 498.285L738.636 500.142C741.71 500.181 744.222 497.711 744.243 494.625C744.265 491.541 741.791 489.007 738.715 488.97L589.063 487.111C585.987 487.072 583.477 489.543 583.455 492.627Z" fill="#10719B"/>
</g>
<defs>
<linearGradient id="paint0_linear_22_506" x1="828.831" y1="480.354" x2="94.4144" y2="499.521" gradientUnits="userSpaceOnUse">
<stop offset="0.0001" stop-color="#0BBBEF"/>
<stop offset="0.395412" stop-color="#00A0E3"/>
<stop offset="0.67667" stop-color="#126797"/>
<stop offset="0.792521" stop-color="#005893"/>
<stop offset="1" stop-color="#142647"/>
</linearGradient>
</defs>
</svg>
