<svg width="352" height="253" viewBox="0 0 352 253" fill="none" xmlns="http://www.w3.org/2000/svg">
	<g opacity="0.8">
		<path fill-rule="evenodd" clip-rule="evenodd"
			d="M17.8441 63.4493C15.9782 63.2297 14.6427 61.5297 14.8609 59.6521C15.0792 57.7745 16.7686 56.4304 18.6345 56.65L115.044 67.9932L119.28 66.2291C121.016 65.5062 123.005 66.3362 123.723 68.0828L125.9 73.3733C126.264 74.2588 126.231 75.2099 125.885 76.0267L184.582 152.554L180.893 99.4655L180.707 99.4053C177.949 98.5155 176.43 95.5444 177.315 92.7694L178.506 89.0313C179.175 86.9318 181.409 85.7752 183.497 86.4486L187.298 87.6752C189.818 88.4884 191.304 91.0394 190.866 93.5904L289.581 190.03C290.929 191.346 290.961 193.514 289.652 194.87C288.344 196.226 286.19 196.258 284.842 194.941L187.757 100.094L191.693 156.751L193.985 158.053C195.765 159.064 196.388 161.341 195.371 163.126L192.528 168.12C191.516 169.897 189.265 170.512 187.499 169.494L182.738 166.75C181.046 165.774 180.402 163.64 181.27 161.882L182.004 160.397L119.986 79.5404L118.686 80.0818C116.95 80.8048 114.961 79.9748 114.242 78.2281L112.756 74.6164L17.8441 63.4493Z"
			fill="url(#paint0_linear_445_560)" />
		<path fill-rule="evenodd" clip-rule="evenodd"
			d="M114.473 0.869229C112.368 -0.0864459 110.029 -0.237958 107.847 0.335329C105.432 0.969753 101.874 1.91829 100.609 2.33461C98.6669 2.97375 94.8099 4.36649 91.1737 5.71457C83.9595 8.38887 73.1673 12.8433 71.7031 13.4491L71.6909 13.4532L71.6353 13.4723C71.6005 13.484 71.5457 13.5029 71.4874 13.5244C71.4353 13.5435 71.3474 13.577 71.2483 13.6221C71.2448 13.6235 71.2422 13.6249 71.2388 13.6263L37.791 28.7436L1.35318 45.7926C0.181976 46.3405 -0.325836 47.7401 0.218475 48.9186C0.763641 50.097 2.15396 50.6081 3.3252 50.0601L39.7213 33.0305L39.7492 33.0177L73.1221 17.9345C73.1264 17.9329 73.1317 17.9311 73.1386 17.9289C73.1595 17.9217 73.2099 17.9047 73.2525 17.8896C73.2951 17.8748 73.3699 17.8479 73.4525 17.8137C74.8115 17.2515 85.6228 12.7881 92.79 10.1307C96.4315 8.78098 100.214 7.41648 102.063 6.80772C103.156 6.44779 106.536 5.54389 109.029 4.88901C110.229 4.57343 111.469 4.66834 112.551 5.15933C114.211 5.9127 116.297 6.91431 117.785 7.80554C120.58 9.47952 127.082 13.5964 127.745 14.0166C127.795 14.0482 127.839 14.076 127.888 14.1055L140.199 21.6239L230.741 74.3326L301.933 193.28L301.934 193.282C302.175 193.683 302.508 194.019 302.906 194.264L343.17 219.005L347.112 245.356L299.319 208.883C298.108 207.959 296.393 208.13 295.387 209.276L263.385 245.698L258.912 230.451C258.546 229.204 257.246 228.492 256.007 228.86C254.768 229.228 254.061 230.537 254.426 231.783L259.806 250.12C260.452 252.324 263.256 252.95 264.769 251.228L297.802 213.632L347.757 251.754C349.833 253.339 352.773 251.583 352.385 248.989L347.672 217.481C347.544 216.626 347.046 215.872 346.313 215.422L305.714 190.475L234.126 70.8659L142.584 17.575L130.315 10.0823C130.297 10.0712 130.281 10.0614 130.265 10.0515C130.256 10.0458 130.247 10.04 130.237 10.0339C129.597 9.62856 123.035 5.47304 120.177 3.76141C118.448 2.72546 116.157 1.63319 114.473 0.869229ZM1.42361 67.3564C0.424561 68.1802 0.278473 69.6629 1.09753 70.6681L16.1154 89.1062L77.5313 131.92L154.3 140.399C155.583 140.541 156.738 139.609 156.879 138.317C157.02 137.025 156.094 135.863 154.809 135.721L79.2207 127.371L19.3178 85.6134L4.71463 67.6848C3.89642 66.6796 2.42267 66.5326 1.42361 67.3564ZM24.4695 73.2133C23.7105 74.265 23.9426 75.7365 24.9878 76.5001L82.3778 118.428L139.735 125.705C141.017 125.868 142.186 124.955 142.348 123.665C142.509 122.376 141.602 121.198 140.32 121.036L84.1534 113.909L27.7362 72.6916C26.6911 71.928 25.2286 72.1616 24.4695 73.2133ZM57.8051 75.7229C56.9756 76.7191 57.1051 78.2033 58.0955 79.0379L89.6634 105.655L123.727 109.876C125.008 110.035 126.175 109.118 126.333 107.828C126.491 106.538 125.58 105.363 124.298 105.204L91.6075 101.154L61.0987 75.4305C60.1092 74.5958 58.6337 74.7267 57.8051 75.7229ZM197.075 152.052C196.456 153.193 196.875 154.623 198.009 155.244L253.213 185.495C254.346 186.116 255.767 185.695 256.384 184.553C257.002 183.413 256.584 181.983 255.449 181.362L200.246 151.111C199.112 150.489 197.692 150.911 197.075 152.052Z"
			fill="#10719B" />
	</g>
	<defs>
		<linearGradient id="paint0_linear_445_560" x1="290.613" y1="195.963" x2="14.1192" y2="58.0128" gradientUnits="userSpaceOnUse">
			<stop offset="0.0001" stop-color="#0BBBEF" />
			<stop offset="0.395412" stop-color="#00A0E3" />
			<stop offset="0.67667" stop-color="#126797" />
			<stop offset="0.792521" stop-color="#005893" />
			<stop offset="1" stop-color="#142647" />
		</linearGradient>
	</defs>
</svg>
