<svg xmlns="http://www.w3.org/2000/svg" width="20" height="20" viewBox="0 0 20 20" fill="none">
	<path d="M12.4183 3.49C11.9423 3.40206 11.5051 3.70586 11.4144 4.17054C11.3238 4.63522 11.6286 5.08891 12.0917 5.17984C13.4859 5.45166 14.5625 6.53091 14.8354 7.92995C14.913 8.33268 15.2676 8.62648 15.6759 8.62648C15.7307 8.62648 15.7855 8.62148 15.8412 8.61149C16.3043 8.51855 16.6091 8.06586 16.5184 7.60018C16.1111 5.51062 14.5027 3.89672 12.4183 3.49Z" fill="white" />
	<path
		d="M12.3561 0.00792976C12.133 -0.0240483 11.9089 0.0419064 11.7306 0.183809C11.5474 0.32771 11.4329 0.535567 11.408 0.768408C11.3552 1.23908 11.6948 1.66479 12.1649 1.71776C15.4065 2.07951 17.9261 4.60477 18.2906 7.85654C18.3394 8.29224 18.7049 8.62101 19.1411 8.62101C19.174 8.62101 19.2059 8.61902 19.2387 8.61502C19.4668 8.59004 19.67 8.47711 19.8134 8.29724C19.9558 8.11736 20.0205 7.89351 19.9946 7.66467C19.5405 3.60746 16.4004 0.45862 12.3561 0.00792976Z"
		fill="white" />
	<path fill-rule="evenodd" clip-rule="evenodd" d="M9.03174 10.9724C13.0208 14.9604 13.9258 10.3467 16.4656 12.8848C18.9143 15.3328 20.3216 15.8232 17.2192 18.9247C16.8306 19.237 14.3616 22.9943 5.6846 14.3197C-2.99348 5.644 0.761585 3.17244 1.07397 2.78395C4.18387 -0.326154 4.66586 1.08938 7.11449 3.53733C9.65436 6.0765 5.04266 6.98441 9.03174 10.9724Z" fill="white" />
</svg>