<svg width="21" height="20" viewBox="0 0 21 20" fill="none" xmlns="http://www.w3.org/2000/svg">
<path d="M20.1858 12.8966C20.6197 12.8966 20.9716 13.2361 20.9716 13.6547C20.9716 13.677 20.8235 15.4678 20.7899 16.0191C20.73 16.9697 20.3476 17.9396 19.7667 18.6146C18.9578 19.5551 17.9272 19.9949 16.5258 19.998L15.8245 19.9986C15.7687 19.9986 15.7105 19.9987 15.65 19.9987L12.7498 19.9997C12.657 19.9997 12.5637 19.9997 12.4703 19.9997L10.0115 20C9.57659 20 9.22361 19.6595 9.22361 19.2399C9.22361 18.8203 9.57659 18.4798 10.0126 18.4798L12.5025 18.4795C12.5957 18.4795 12.6885 18.4795 12.7808 18.4795L15.6447 18.4785C15.7045 18.4785 15.762 18.4784 15.8172 18.4784L16.5227 18.4778C17.4702 18.4757 18.0396 18.2416 18.5533 17.6437C18.9179 17.2211 19.1784 16.5471 19.2173 15.9279C19.2509 15.3685 19.4127 13.5959 19.4127 13.5959C19.4442 13.2068 19.773 12.8966 20.1858 12.8966ZM0.814367 12.8964C1.22722 12.8964 1.55499 13.2065 1.58755 13.5967C1.58755 13.5967 1.74933 15.3693 1.784 15.9277C1.82287 16.5469 2.08235 17.2209 2.44688 17.6425C2.96164 18.2425 3.53103 18.4755 4.47755 18.4776L4.94096 18.4785C4.99155 18.4785 5.04491 18.4785 5.10086 18.4785L5.6699 18.4786C6.10481 18.4786 6.46094 18.8191 6.46094 19.2387C6.46094 19.6583 6.10376 19.9988 5.66779 19.9988L5.09691 19.9987C5.04125 19.9987 4.98827 19.9987 4.93807 19.9987L4.47545 19.9978C3.073 19.9947 2.04243 19.5549 1.23353 18.6134C0.653637 17.9394 0.270195 16.9695 0.211366 16.0189C0.176698 15.4676 0.0285743 13.6768 0.0285743 13.6545C0.0285743 13.2359 0.3805 12.8964 0.814367 12.8964ZM10.4998 12.8035C10.9347 12.8035 11.2877 13.144 11.2877 13.5636V14.875C11.2877 15.2946 10.9347 15.6351 10.4998 15.6351C10.0649 15.6351 9.7119 15.2946 9.7119 14.875V13.5636C9.7119 13.144 10.0649 12.8035 10.4998 12.8035ZM11.8562 0C13.4352 0 14.7431 1.14217 14.9385 2.61575H17.0007C19.2057 2.61575 21 4.34675 21 6.47401V9.98769C21 10.2431 20.8676 10.4802 20.647 10.6221C18.4808 12.0045 15.9092 12.9267 13.2114 13.2865C13.1746 13.2916 13.1389 13.2936 13.1022 13.2936C12.7471 13.2936 12.4288 13.0605 12.3395 12.72C12.1273 11.9143 11.3688 11.3498 10.4947 11.3498C9.61126 11.3498 8.86013 11.9021 8.62586 12.724C8.52081 13.0929 8.15523 13.3331 7.75708 13.2764C5.07719 12.9166 2.51706 11.9994 0.354027 10.6221C0.132366 10.4812 0 10.2431 0 9.98769V6.47401C0 4.34675 1.7985 2.61575 4.00986 2.61575L6.06153 2.61474C6.25693 1.14116 7.56483 0 9.14377 0H11.8562ZM11.8562 1.5202H9.14377C8.29915 1.5202 7.61106 2.183 7.61106 2.99783L7.61211 3.37281C7.61211 3.57449 7.52911 3.76705 7.38204 3.91096C7.23392 4.05386 7.03432 4.13392 6.82421 4.13392L4.01091 4.13595C2.66728 4.13595 1.57579 5.18488 1.57579 6.47401V9.57217C3.2997 10.6039 5.28309 11.3244 7.36523 11.6781C7.95668 10.5633 9.15953 9.82959 10.4947 9.82959C11.8405 9.82959 13.0381 10.5654 13.6138 11.6873C15.7085 11.3315 17.6982 10.6069 19.4242 9.57217V6.47401C19.4242 5.18488 18.3369 4.13595 17.0007 4.13595H10.5C10.0651 4.13595 9.71211 3.79542 9.71211 3.37585C9.71211 2.95627 10.0651 2.61575 10.5 2.61575H13.3364C13.161 1.98538 12.5632 1.5202 11.8562 1.5202Z" fill="#1C2027"/>
</svg>
