<svg width="18" height="10" viewBox="0 0 18 10" fill="none" xmlns="http://www.w3.org/2000/svg">
<path d="M0.268545 0.271108C0.62579 -0.0895429 1.20494 -0.0920218 1.56219 0.273586L9.5362 8.41363C9.89344 8.778 9.89222 9.36669 9.53376 9.72858C9.35575 9.90829 9.12165 10 8.88877 10C8.65345 10 8.41935 9.90829 8.24133 9.7261L0.267325 1.58606C-0.0899204 1.22169 -0.0887007 0.632998 0.268545 0.271108ZM16.2144 0.27371C16.5716 -0.0918978 17.1508 -0.0894189 17.508 0.271232C17.8665 0.633122 17.8677 1.22181 17.5117 1.58618L12.2164 6.99222C12.0384 7.17441 11.8031 7.26612 11.569 7.26612C11.3361 7.26612 11.102 7.17441 10.924 6.9947C10.5655 6.63281 10.5643 6.04412 10.9203 5.67975L16.2144 0.27371Z" fill="white"/>
</svg>
