<svg width="32" height="18" viewBox="0 0 32 18" fill="none" xmlns="http://www.w3.org/2000/svg">
<g id="Iconly/Broken/Arrow---Down-2">
<path id="Arrow---Down-2" d="M0.48338 0.487994C1.12642 -0.161177 2.1689 -0.165639 2.81194 0.492455L17.1652 15.1445C17.8082 15.8004 17.806 16.86 17.1608 17.5114C16.8403 17.8349 16.419 18 15.9998 18C15.5762 18 15.1548 17.8349 14.8344 17.507L0.481185 2.8549C-0.161857 2.19904 -0.159661 1.1394 0.48338 0.487994ZM29.1859 0.492678C29.8289 -0.165416 30.8714 -0.160954 31.5144 0.488217C32.1597 1.13962 32.1619 2.19926 31.521 2.85513L21.9895 12.586C21.6691 12.9139 21.2455 13.079 20.8241 13.079C20.4049 13.079 19.9836 12.9139 19.6631 12.5905C19.0179 11.9391 19.0157 10.8794 19.6566 10.2236L29.1859 0.492678Z" fill="#1C2027"/>
</g>
</svg>
