<svg id="copyrighter" width="75" height="75" viewBox="0 0 75 75" fill="none" xmlns="http://www.w3.org/2000/svg">
	<path
		d="M71.7537 68.4376C73.5456 68.4376 75 69.9076 75 71.7188C75 73.53 73.5456 75 71.7537 75H44.1512C42.3549 75 40.9049 73.53 40.9049 71.7188C40.9049 69.9076 42.3549 68.4376 44.1512 68.4376H71.7537ZM37.9377 4.32688C42.0151 -0.940537 49.157 -1.45678 54.9095 3.09753L60.9261 7.8662C63.5534 9.94867 65.3497 12.6874 65.9774 15.5836C66.6786 18.8167 65.9038 22.0979 63.8002 24.8103L27.9217 71.0796C26.1081 73.4202 23.3812 74.7852 20.4335 74.8246L6.59113 74.9996C5.04154 74.9996 3.73002 73.9496 3.38808 72.4621L0.254285 58.8386C-0.412295 55.938 0.245629 52.9324 2.06357 50.5918L6.77292 44.515C7.87667 43.0888 9.9197 42.835 11.3308 43.9594C12.7418 45.075 12.9886 47.14 11.8805 48.5662L7.17114 54.643C6.57381 55.413 6.35739 56.3973 6.57814 57.3511L9.11894 68.4022L20.3512 68.2622C21.3165 68.249 22.2125 67.8028 22.8098 67.0328L58.6883 20.7635C59.6059 19.5823 59.9219 18.3135 59.6362 16.9836C59.3289 15.5792 58.368 14.1749 56.9223 13.033L50.9057 8.25995C48.577 6.42248 45.2917 5.47749 43.0496 8.37807L38.31 14.4855L45.8328 20.5841C47.2309 21.7129 47.456 23.7822 46.3349 25.1909C45.6943 26.0047 44.7507 26.4247 43.7984 26.4247C43.0886 26.4247 42.37 26.1884 41.7727 25.7028L34.3061 19.6523L22.0307 35.4852C20.9226 36.9114 18.8839 37.1695 17.4685 36.0408C16.0618 34.9252 15.815 32.8602 16.9188 31.434L37.9377 4.32688Z"
		fill="black" />
</svg>