<svg width="92" height="30" viewBox="0 0 92 30" fill="none" xmlns="http://www.w3.org/2000/svg">
<path d="M7.64677 20.7781C8.26115 20.7781 8.75988 21.2956 8.75988 21.9331V23.3446C8.75988 25.74 10.6392 27.69 12.9463 27.69H19.9921C22.3094 27.69 24.1945 25.734 24.1945 23.3296C24.1945 22.6921 24.6932 22.1746 25.3076 22.1746C25.922 22.1746 26.4207 22.6921 26.4207 23.3296C26.4207 27.0075 23.5367 30 19.9921 30H12.9463C9.4104 30 6.53366 27.015 6.53366 23.3446V21.9331C6.53366 21.2956 7.03239 20.7781 7.64677 20.7781ZM17.6902 13.8438C18.1219 13.8438 18.5108 14.1258 18.6754 14.5593C18.8401 14.9913 18.7474 15.4893 18.443 15.8193L14.3996 20.1812C14.192 20.4047 13.9194 20.5172 13.6468 20.5172C13.3742 20.5172 13.1002 20.4047 12.8926 20.1782C12.4775 19.7253 12.4789 18.9948 12.8954 18.5448L15.1094 16.1553H1.06551C0.477402 16.1553 0 15.6378 0 15.0003C0 14.3628 0.477402 13.8438 1.06551 13.8438H17.6902ZM20.0073 0C23.5432 0 26.4214 2.98497 26.4214 6.65543V18.0763C26.4214 18.7138 25.9213 19.2298 25.3083 19.2298C24.6925 19.2298 24.1938 18.7138 24.1938 18.0763V6.65543C24.1938 4.25996 22.3159 2.30998 20.0073 2.30998H12.9615C10.6442 2.30998 8.75916 4.26596 8.75916 6.67043V8.06692C8.75916 8.70441 8.26187 9.22041 7.64605 9.22041C7.03167 9.22041 6.53294 8.70441 6.53294 8.06692V6.67043C6.53294 2.99247 9.4169 0 12.9615 0H20.0073ZM12.8896 9.82475C13.302 9.37026 13.9759 9.36726 14.3965 9.81575L15.4164 10.9077C15.8343 11.3547 15.8384 12.0867 15.4233 12.5397C15.2157 12.7692 14.9417 12.8832 14.6664 12.8832C14.3965 12.8832 14.1253 12.7722 13.9163 12.5487L12.8979 11.4582C12.48 11.0097 12.4758 10.2792 12.8896 9.82475Z" fill="white"/>
<path d="M50.9247 13.8982C51.8936 14.1302 52.6237 14.5464 53.1149 15.1469C53.6198 15.7336 53.8723 16.491 53.8723 17.419C53.8723 18.6608 53.4151 19.6228 52.5008 20.3052C51.6002 20.9875 50.2833 21.3286 48.5502 21.3286H42V7H48.1613C49.7306 7 50.952 7.32069 51.8253 7.96206C52.7124 8.5898 53.1559 9.49727 53.1559 10.6845C53.1559 11.4623 52.958 12.1242 52.5622 12.67C52.1801 13.2159 51.6343 13.6253 50.9247 13.8982ZM44.0265 13.3046H48.018C49.0142 13.3046 49.7716 13.1067 50.2901 12.711C50.8223 12.3152 51.0884 11.7353 51.0884 10.9711C51.0884 10.2069 50.8223 9.62692 50.2901 9.23117C49.7579 8.82178 49.0006 8.61709 48.018 8.61709H44.0265V13.3046ZM48.5093 19.7115C50.7063 19.7115 51.8049 18.8928 51.8049 17.2552C51.8049 16.4364 51.5251 15.836 50.9656 15.4539C50.4198 15.0581 49.601 14.8603 48.5093 14.8603H44.0265V19.7115H48.5093Z" fill="white"/>
<path d="M63.74 21.3286L60.6082 17.1733L57.4354 21.3286H55.2452L59.5233 15.7814L55.4499 10.4798H57.6401L60.6287 14.3895L63.5967 10.4798H65.746L61.6521 15.7814L65.9712 21.3286H63.74Z" fill="white"/>
<path d="M72.3257 21.4514C71.2476 21.4514 70.2787 21.2126 69.419 20.735C68.5593 20.2574 67.8838 19.6024 67.3925 18.7699C66.9149 17.9239 66.6761 16.9686 66.6761 15.9042C66.6761 14.8398 66.9149 13.8914 67.3925 13.059C67.8838 12.2129 68.5593 11.5579 69.419 11.0939C70.2787 10.6163 71.2476 10.3775 72.3257 10.3775C73.4037 10.3775 74.3658 10.6163 75.2119 11.0939C76.0716 11.5579 76.7403 12.2129 77.2179 13.059C77.7092 13.8914 77.9548 14.8398 77.9548 15.9042C77.9548 16.9686 77.7092 17.9239 77.2179 18.7699C76.7403 19.6024 76.0716 20.2574 75.2119 20.735C74.3658 21.2126 73.4037 21.4514 72.3257 21.4514ZM72.3257 19.732C73.0216 19.732 73.6425 19.5751 74.1884 19.2612C74.7479 18.9337 75.1846 18.4834 75.4984 17.9102C75.8123 17.3234 75.9692 16.6548 75.9692 15.9042C75.9692 15.1537 75.8123 14.4918 75.4984 13.9187C75.1846 13.3319 74.7479 12.8816 74.1884 12.5677C73.6425 12.2538 73.0216 12.0969 72.3257 12.0969C71.6297 12.0969 71.002 12.2538 70.4425 12.5677C69.8966 12.8816 69.46 13.3319 69.1324 13.9187C68.8186 14.4918 68.6616 15.1537 68.6616 15.9042C68.6616 16.6548 68.8186 17.3234 69.1324 17.9102C69.46 18.4834 69.8966 18.9337 70.4425 19.2612C71.002 19.5751 71.6297 19.732 72.3257 19.732Z" fill="white"/>
<path d="M91.7454 19.6092V23.8464H89.9032V21.3286H80.8352V23.8464H78.9725V19.6092H79.5456C80.2416 19.5683 80.7192 19.077 80.9785 18.1354C81.2378 17.1938 81.4152 15.8633 81.5107 14.1438L81.6745 10.4798H90.0874V19.6092H91.7454ZM83.312 14.2871C83.2574 15.6518 83.1415 16.7844 82.9641 17.6851C82.8003 18.5721 82.4932 19.2135 82.0429 19.6092H88.1224V12.1992H83.4144L83.312 14.2871Z" fill="white"/>
</svg>
