<svg width="25" height="20" viewBox="0 0 25 20" fill="none" xmlns="http://www.w3.org/2000/svg">
<path d="M12.5027 0C17.6726 0.00248478 22.3163 3.6079 24.925 9.64219C25.025 9.87079 25.025 10.1292 24.925 10.3591C24.615 11.0759 24.27 11.7729 23.8975 12.4264C23.6488 12.8662 23.0938 13.019 22.6513 12.773C22.2113 12.5245 22.0563 11.9717 22.3038 11.5344C22.5813 11.0461 22.8438 10.5305 23.085 10C20.7513 4.87017 16.8164 1.8201 12.5002 1.81886C8.18271 1.8201 4.24776 4.87017 1.91404 10C4.24776 15.1298 8.18271 18.1811 12.5002 18.1811C15.0101 18.1811 17.4313 17.1425 19.5026 15.1758C19.8688 14.8317 20.4463 14.8441 20.7951 15.2069C21.145 15.5684 21.13 16.1436 20.7651 16.4902C18.3488 18.7849 15.4926 19.9988 12.5027 20C7.32772 19.9975 2.68403 16.3933 0.0740616 10.3591C-0.0246872 10.1305 -0.0246872 9.87079 0.0740616 9.64219C2.68403 3.6079 7.32772 0.00248478 12.4964 0H12.5027ZM12.4995 5.15542C15.187 5.15542 17.3732 7.32836 17.3732 9.9995C17.3732 12.6719 15.187 14.8448 12.4995 14.8448C11.6145 14.8448 10.7483 14.6063 9.99456 14.1553C9.56082 13.8981 9.42082 13.339 9.68207 12.9079C9.94206 12.4793 10.5046 12.3364 10.9358 12.5986C11.4058 12.8794 11.947 13.0272 12.4995 13.0272C14.1783 13.0272 15.5445 11.6693 15.5445 9.9995C15.5445 8.33222 14.1783 6.97428 12.4995 6.97428C10.8208 6.97428 9.45457 8.33222 9.45457 9.9995C9.45457 10.5027 9.04457 10.9089 8.53958 10.9089C8.03459 10.9089 7.62584 10.5027 7.62584 9.9995C7.62584 7.32836 9.81207 5.15542 12.4995 5.15542Z" fill="#C5CBDF"/>
</svg>
