<svg id="graph" width="75" height="75" viewBox="0 0 75 75" fill="none" xmlns="http://www.w3.org/2000/svg">
	<path
		d="M51.5501 0C65.9631 0 75 8.97098 75 23.4499V32.157L74.9738 32.5464C74.7838 33.9469 73.5833 35.0264 72.1306 35.0264H72.0976L71.6445 34.9901C71.049 34.8939 70.4954 34.6095 70.0683 34.1724C69.5344 33.6262 69.2435 32.8876 69.2612 32.124V23.4499C69.2612 12.0383 62.9617 5.73879 51.5501 5.73879H23.4499C12.0053 5.73879 5.73879 12.0383 5.73879 23.4499V51.5831C5.73879 62.9947 12.0383 69.2612 23.4499 69.2612H51.5501C62.9947 69.2612 69.2612 62.9617 69.2612 51.5831C69.2612 49.9984 70.5459 48.7137 72.1306 48.7137C73.7153 48.7137 75 49.9984 75 51.5831C75 66.029 66.029 75 51.5831 75H23.4499C8.97098 75 0 66.029 0 51.5831V23.4499C0 8.97098 8.97098 0 23.4499 0H51.5501ZM21.5699 28.3311C22.3311 28.3569 23.0508 28.6843 23.5704 29.241C24.0901 29.7978 24.3671 30.5383 24.3404 31.2995V55.277C24.2857 56.8618 22.9568 58.1021 21.372 58.0475C19.7873 57.9928 18.5469 56.6639 18.6016 55.0792V31.0686L18.6527 30.6199C18.7678 30.0317 19.0672 29.4909 19.5135 29.0793C20.0713 28.5649 20.812 28.2954 21.5699 28.3311ZM37.6319 17.0844C39.2166 17.0844 40.5013 18.3691 40.5013 19.9538V55.1121C40.5013 56.6969 39.2166 57.9815 37.6319 57.9815C36.0472 57.9815 34.7625 56.6969 34.7625 55.1121V19.9538C34.7625 18.3691 36.0472 17.0844 37.6319 17.0844ZM53.529 40.996C55.1137 40.996 56.3984 42.2807 56.3984 43.8654V55.0792C56.3984 56.6639 55.1137 57.9486 53.529 57.9486C51.9443 57.9486 50.6596 56.6639 50.6596 55.0792V43.8654C50.6596 42.2807 51.9443 40.996 53.529 40.996Z"
		fill="black" />
</svg>