<svg width="21" height="20" viewBox="0 0 21 20" fill="none" xmlns="http://www.w3.org/2000/svg">
<path d="M10.5062 1.09453C12.2337 -0.0127949 14.3479 -0.296099 16.2967 0.318636C17.9916 0.847045 19.4009 2.06079 20.1971 3.67771C21.1281 5.63745 21.2548 7.8956 20.5492 9.95114C19.8997 11.8434 18.8349 13.5589 17.4362 14.9661C16.5192 15.911 15.531 16.781 14.4808 17.5682L14.4252 17.6155C14.0763 17.851 13.6071 17.7585 13.369 17.4073C13.248 17.2377 13.1994 17.0253 13.2343 16.8185C13.2692 16.6117 13.3846 16.4281 13.5543 16.3097C14.5398 15.5653 15.4689 14.7461 16.3337 13.859C17.5792 12.6303 18.5304 11.1246 19.1131 9.4591C19.6737 7.79954 19.5602 5.97986 18.7981 4.4063C18.1849 3.16842 17.1044 2.23911 15.8056 1.83259C14.1491 1.30356 12.3444 1.62426 10.9602 2.69364C10.685 2.90184 10.3089 2.90184 10.0337 2.69364C8.65009 1.62278 6.84464 1.30194 5.18821 1.83259C3.88076 2.23013 2.78947 3.15664 2.16789 4.39684C1.42302 5.96923 1.31646 7.77847 1.87142 9.43072C2.45665 11.0922 3.40755 12.5943 4.65085 13.8212C6.48795 15.6202 8.51374 17.2069 10.6915 18.5523C10.9685 18.7485 11.0903 19.1045 10.9932 19.4342C10.8961 19.7639 10.6023 19.9923 10.2653 20C10.1134 20.0009 9.96477 19.9547 9.83912 19.8675C7.57057 18.4663 5.46081 16.8129 3.54834 14.9377C2.14193 13.5351 1.07318 11.8185 0.42612 9.92275C-0.255138 7.87005 -0.115293 5.62566 0.81524 3.67771C1.61143 2.06079 3.0208 0.847045 4.7157 0.318636C6.66441 -0.296099 8.77869 -0.0127949 10.5062 1.09453ZM14.5827 4.20759C15.9641 4.65298 16.9474 5.90364 17.0749 7.37742L17.0808 7.50094C17.0759 7.66497 17.0201 7.82437 16.9198 7.95527C16.7944 8.1189 16.61 8.22433 16.4078 8.24795C15.9835 8.30394 15.5945 7.99964 15.5369 7.56667C15.4982 6.69223 14.928 5.93594 14.1102 5.67423C13.8061 5.48034 13.671 5.09938 13.7831 4.7516C13.8951 4.40382 14.2253 4.1792 14.5827 4.20759Z" fill="#1C2027"/>
</svg>
