<svg width="21" height="25" viewBox="0 0 21 25" fill="none" xmlns="http://www.w3.org/2000/svg">
<path d="M10.5411 0C16.3302 0.0230203 21.0226 4.80246 20.9999 10.6529V10.7691C20.9217 14.95 18.4378 18.4195 16.3682 20.5933C15.7792 21.2148 15.1522 21.8111 14.5057 22.368C14.1185 22.7024 13.5371 22.6563 13.2063 22.265C12.8754 21.8725 12.9221 21.285 13.3093 20.9506C13.9081 20.4343 14.4905 19.8796 15.0383 19.3019C16.8801 17.3682 19.0886 14.3109 19.1558 10.7351C19.1743 5.82303 15.3073 1.88218 10.5335 1.86245H10.4999C5.74241 1.86245 1.86243 5.76493 1.84399 10.5762C1.92535 12.9527 2.71935 15.212 4.14139 17.1073C5.80099 19.3436 8.31858 21.7114 10.7114 23.2877C11.1388 23.5684 11.2592 24.145 10.9804 24.5769C10.8047 24.8509 10.5086 25 10.207 25C10.0346 25 9.86103 24.9518 9.70483 24.8487C7.14276 23.1617 4.44619 20.6251 2.66837 18.2299C1.01854 16.0298 0.0954538 13.4044 0 10.6408C0.0227787 4.73231 4.7293 0 10.4999 0H10.5411ZM10.4967 6.72926C12.6997 6.72926 14.4927 8.54019 14.4927 10.7677C14.4927 12.9941 12.6997 14.805 10.4967 14.805C8.29363 14.805 6.50062 12.9941 6.50062 10.7677C6.50062 10.2525 6.91389 9.8359 7.42262 9.8359C7.93134 9.8359 8.34461 10.2525 8.34461 10.7677C8.34461 11.9658 9.31 12.9425 10.4967 12.9425C11.6833 12.9425 12.6487 11.9658 12.6487 10.7677C12.6487 9.56843 11.6833 8.59171 10.4967 8.59171C9.98794 8.59171 9.57467 8.17515 9.57467 7.66103C9.57467 7.14582 9.98794 6.72926 10.4967 6.72926Z" fill="white"/>
</svg>
