<svg width="151" height="58" viewBox="0 0 151 58" fill="none" xmlns="http://www.w3.org/2000/svg">
<g clip-path="url(#clip0_1152_428)">
<path d="M0.93922 0H7.89428C8.41372 0 8.8335 0.422094 8.8335 0.941361V57.0586C8.8335 57.5779 8.41372 58 7.89428 58H0.93922C0.41978 58 0 57.5779 0 57.0586V0.941361C0 0.422094 0.41978 0 0.93922 0Z" fill="white"/>
<path d="M20.0166 0H26.9686C27.488 0 27.9078 0.422094 27.9078 0.941361V57.0586C27.9078 57.5779 27.488 58 26.9686 58H20.0166C19.4971 58 19.0773 57.5779 19.0773 57.0586V0.941361C19.0773 0.422094 19.4971 0 20.0166 0Z" fill="white"/>
<path d="M39.0939 0H46.0489C46.5684 0 46.9882 0.422094 46.9882 0.941361V57.0586C46.9882 57.5779 46.5684 58 46.0489 58H39.0939C38.5744 58 38.1547 57.5779 38.1547 57.0586V0.941361C38.1577 0.422094 38.5775 0 39.0939 0Z" fill="white"/>
<path d="M54.81 18.4659C53.6986 17.4334 53.1429 16.1519 53.1429 14.6245C53.1429 13.0971 53.6986 11.8156 54.81 10.7831C55.9213 9.75068 57.3619 9.23445 59.1316 9.23445C60.9013 9.23445 62.3419 9.72943 63.4532 10.7224C64.5646 11.7154 65.1203 12.9543 65.1203 14.4393C65.1203 16.0517 64.5646 17.3818 63.4532 18.4355C62.3419 19.4892 60.9013 20.0146 59.1316 20.0146C57.3619 20.0146 55.9213 19.4983 54.81 18.4659ZM55.2539 24.6637H63.0093C63.5287 24.6637 63.9485 25.0858 63.9485 25.605V57.0586C63.9485 57.5779 63.5287 58 63.0093 58H55.2539C54.7345 58 54.3147 57.5779 54.3147 57.0586V25.605C54.3147 25.0827 54.7345 24.6637 55.2539 24.6637Z" fill="white"/>
<path d="M103.061 27.8856C105.591 30.3635 106.857 34.0408 106.857 38.9147V57.0586C106.857 57.5779 106.437 58 105.917 58H98.1621C97.6426 58 97.2229 57.5779 97.2229 57.0586V40.4026C97.2229 37.7607 96.646 35.7869 95.4954 34.4842C94.3418 33.1815 92.6747 32.5316 90.4943 32.5316C88.0662 32.5316 86.1304 33.2847 84.6899 34.7939C83.2493 36.3031 82.5275 38.5442 82.5275 41.5171V57.0586C82.5275 57.5779 82.1078 58 81.5883 58H73.833C73.3135 58 72.8937 57.5779 72.8937 57.0586V25.605C72.8937 25.0858 73.3135 24.6637 73.833 24.6637H81.1565C81.6759 24.6637 82.0957 25.0858 82.0957 25.605V26.4219C82.0957 27.2023 82.9896 27.6457 83.6027 27.1659C84.56 26.4188 85.6412 25.7994 86.8492 25.3135C88.7427 24.5483 90.8205 24.1687 93.0855 24.1687C97.2047 24.1657 100.53 25.4046 103.061 27.8856Z" fill="white"/>
<path d="M129.087 45.656L125.475 49.2332C125.297 49.4093 125.197 49.6523 125.197 49.9043V57.0586C125.197 57.5779 124.777 58 124.258 58H116.503C115.983 58 115.563 57.5779 115.563 57.0586V12.9635C115.563 12.4442 115.983 12.0221 116.503 12.0221H124.258C124.777 12.0221 125.197 12.4442 125.197 12.9635V35.8598C125.197 36.6858 126.182 37.1109 126.78 36.543L139.002 24.9218C139.177 24.7548 139.406 24.6637 139.648 24.6637H148.524C149.354 24.6637 149.774 25.6688 149.194 26.264L137.51 38.201C137.177 38.5381 137.15 39.0695 137.443 39.443L150.804 56.4786C151.287 57.0951 150.849 58.003 150.067 58.003H140.777C140.493 58.003 140.225 57.8755 140.046 57.6538L130.482 45.7411C130.129 45.3007 129.483 45.2643 129.087 45.656Z" fill="white"/>
<path d="M54.81 18.4659C53.6986 17.4334 53.1429 16.1519 53.1429 14.6245C53.1429 13.0971 53.6986 11.8156 54.81 10.7831C55.9213 9.75068 57.3619 9.23445 59.1316 9.23445C60.9013 9.23445 62.3419 9.72943 63.4532 10.7224C64.5646 11.7154 65.1203 12.9543 65.1203 14.4393C65.1203 16.0517 64.5646 17.3818 63.4532 18.4355C62.3419 19.4892 60.9013 20.0146 59.1316 20.0146C57.3619 20.0146 55.9213 19.4983 54.81 18.4659Z" fill="#8D8DA1"/>
</g>
<defs>
<clipPath id="clip0_1152_428">
<rect width="151" height="58" fill="white"/>
</clipPath>
</defs>
</svg>
