<svg width="13" height="25" viewBox="0 0 13 25" fill="none" xmlns="http://www.w3.org/2000/svg">
<path d="M0.35244 24.6224C-0.0773354 24.1618 -0.115858 23.4391 0.246801 22.9349L0.355662 22.8032L10.9377 11.5897C11.4114 11.0873 12.1767 11.0891 12.6472 11.5932C12.8808 11.8435 13 12.1727 13 12.5002C13 12.7759 12.9172 13.0505 12.7525 13.2792L12.6439 13.4106L2.06187 24.6241C1.5882 25.1264 0.822897 25.1247 0.35244 24.6224ZM0.355823 2.19854C-0.119467 1.69617 -0.116245 0.881735 0.352601 0.379359C0.783853 -0.0827248 1.46285 -0.122673 1.93788 0.259515L2.06204 0.374215L9.08989 7.8207C9.32673 8.07103 9.44596 8.40195 9.44596 8.73115C9.44596 9.05864 9.32673 9.38784 9.09311 9.63817C8.66186 10.1003 7.98286 10.1402 7.50783 9.75801L7.38368 9.64331L0.355823 2.19854Z" fill="black"/>
</svg>
