<svg width="30" height="30" viewBox="0 0 30 30" fill="none" xmlns="http://www.w3.org/2000/svg">
<path d="M29.6333 27.9098L24.4772 22.8687L24.3564 22.685C24.1317 22.4612 23.8244 22.3352 23.5038 22.3352C23.1831 22.3352 22.8758 22.4612 22.6511 22.685C18.2692 26.705 11.5172 26.9235 6.87301 23.1956C2.22879 19.4676 1.1335 12.95 4.31353 7.96525C7.49355 2.98046 13.9621 1.07527 19.4293 3.5132C24.8964 5.95114 27.6657 11.9757 25.9005 17.5914C25.7734 17.9971 25.8773 18.4383 26.1731 18.7487C26.4689 19.0592 26.9116 19.1918 27.3346 19.0966C27.7575 19.0014 28.0963 18.6929 28.2235 18.2872C30.3336 11.623 27.1466 4.45133 20.7242 1.41159C14.3017 -1.62816 6.57126 0.376236 2.53358 6.12813C-1.50409 11.88 -0.637231 19.6532 4.5734 24.4193C9.78402 29.1853 17.7747 29.5138 23.3762 25.1923L27.9415 29.6558C28.413 30.1147 29.1752 30.1147 29.6467 29.6558C30.1178 29.1903 30.1178 28.4409 29.6467 27.9754L29.6333 27.9098Z" fill="white"/>
</svg>
