<?xml version="1.0" encoding="utf-8"?><svg viewBox="0 0 75 75" xmlns="http://www.w3.org/2000/svg" xmlns:xlink="http://www.w3.org/1999/xlink"><style>:root>svg{display:none}:root>svg:target{display:block}</style><svg viewBox="0 0 75 75" id="copyrighter" xmlns="http://www.w3.org/2000/svg"><path d="M71.754 68.438c1.792 0 3.246 1.47 3.246 3.28C75 73.53 73.546 75 71.754 75H44.15c-1.796 0-3.246-1.47-3.246-3.281 0-1.811 1.45-3.281 3.246-3.281h27.603zM37.938 4.327c4.077-5.268 11.219-5.784 16.971-1.23l6.017 4.77c2.627 2.082 4.424 4.82 5.051 7.717.702 3.233-.073 6.514-2.177 9.226L27.922 71.08a9.589 9.589 0 01-7.489 3.745L6.591 75a3.264 3.264 0 01-3.203-2.538L.254 58.84a9.807 9.807 0 011.81-8.247l4.709-6.077a3.217 3.217 0 014.558-.556 3.303 3.303 0 01.55 4.607l-4.71 6.077a3.213 3.213 0 00-.593 2.708l2.54 11.051 11.233-.14a3.151 3.151 0 002.459-1.23l35.878-46.268c.918-1.182 1.234-2.45.948-3.78-.307-1.405-1.268-2.81-2.714-3.951L50.906 8.26c-2.329-1.838-5.614-2.783-7.856.118l-4.74 6.107 7.523 6.1a3.3 3.3 0 01.502 4.606 3.216 3.216 0 01-4.562.512l-7.467-6.05-12.275 15.832a3.219 3.219 0 01-4.563.556c-1.406-1.116-1.653-3.18-.55-4.607l21.02-27.107z"/></svg><svg viewBox="0 0 75 75" id="filter" xmlns="http://www.w3.org/2000/svg"><path d="M67.013 0C71.415 0 75 3.69 75 8.226v5.744c0 2.194-.874 4.333-2.396 5.867L47.558 45.172v19.086c0 1.162-.656 2.213-1.672 2.7l-16.204 7.764c-.394.19-.81.278-1.219.278a2.893 2.893 0 01-2.628-1.723c-.672-1.499-.045-3.272 1.406-3.967l14.523-6.957V43.924c0-.8.315-1.568.87-2.128l25.916-26.22a2.29 2.29 0 00.656-1.607V8.225c0-1.24-.982-2.256-2.193-2.256h-33.37c-1.598 0-2.896-1.337-2.896-2.986C30.747 1.34 32.045 0 33.642 0h33.37zM19.567 0c1.598 0 2.895 1.355 2.895 3.018 0 1.663-1.297 3.014-2.895 3.014H7.984c-1.208 0-2.194 1.027-2.194 2.28v5.935c0 .578.214 1.137.592 1.558l23.861 26.531c.506.562.784 1.296.784 2.062v14.938c0 1.66-1.298 3.01-2.895 3.01-1.598 0-2.895-1.35-2.895-3.01V45.59L2.157 19.932A8.48 8.48 0 010 14.247V8.313C0 3.729 3.581 0 7.984 0h11.583z"/></svg><svg viewBox="0 0 75 75" id="graph" xmlns="http://www.w3.org/2000/svg"><path d="M51.55 0C65.963 0 75 8.971 75 23.45v8.707l-.026.39a2.87 2.87 0 01-2.843 2.48h-.033l-.454-.037a2.836 2.836 0 01-2.383-2.866V23.45c0-11.412-6.3-17.711-17.71-17.711H23.45c-11.445 0-17.711 6.3-17.711 17.71v28.134c0 11.412 6.3 17.678 17.71 17.678H51.55c11.445 0 17.711-6.3 17.711-17.678a2.87 2.87 0 015.739 0C75 66.03 66.029 75 51.583 75H23.45C8.97 75 0 66.029 0 51.583V23.45C0 8.97 8.971 0 23.45 0h28.1zM21.57 28.331a2.87 2.87 0 012.77 2.968v23.978a2.871 2.871 0 01-5.738-.198V31.07l.05-.45a2.837 2.837 0 012.918-2.288zm16.062-11.247a2.87 2.87 0 012.87 2.87v35.158a2.87 2.87 0 11-5.74 0V19.954a2.87 2.87 0 012.87-2.87zm15.897 23.912a2.87 2.87 0 012.87 2.87v11.213a2.87 2.87 0 01-5.74 0V43.865a2.87 2.87 0 012.87-2.869z"/></svg><svg viewBox="0 0 40 40" id="play" xmlns="http://www.w3.org/2000/svg"><path d="M20 0c11.028 0 20 8.97 20 20 0 11.028-8.972 20-20 20-2.79 0-5.49-.562-8.026-1.676a1.447 1.447 0 111.164-2.65A16.977 16.977 0 0020 37.106c9.43 0 17.104-7.676 17.104-17.106 0-9.432-7.674-17.104-17.104-17.104-9.432 0-17.104 7.672-17.104 17.104 0 3.694 1.156 7.208 3.348 10.168a1.449 1.449 0 01-2.328 1.722A19.831 19.831 0 010 20C0 8.97 8.972 0 20 0zm-2.272 12.06c.446.013 1.262.317 1.592.447 2.038.79 5.811 3.301 7.569 5.003l.305.309.158.17c.188.198.42.45.474.518.334.426.516.956.516 1.494 0 .51-.16 1.002-.46 1.416a10.3 10.3 0 01-.439.497l-.13.139-.097.104c-1.628 1.752-5.658 4.4-7.694 5.258-.011.005-1.014.422-1.636.509l-.174.015h-.072c-.884 0-1.72-.506-2.132-1.302-.172-.333-.338-1.109-.417-1.511l-.041-.22-.006-.033c-.19-1.156-.298-2.934-.294-4.874-.004-2.052.116-3.894.326-5.052.002-.016.202-1.062.352-1.414a2.408 2.408 0 011.074-1.182 2.516 2.516 0 011.226-.29zm.27 3.04c-.03.139-.058.275-.074.367-.174.962-.282 2.7-.28 4.532-.002 1.766.094 3.414.258 4.404.02.124.058.314.1.498.144-.058.3-.116.398-.156 1.852-.78 5.48-3.25 6.694-4.562a.938.938 0 00.116-.12.863.863 0 01.06-.062l-.014-.015-.014-.015-.168-.178c-1.254-1.342-5.076-3.918-6.81-4.592a21.87 21.87 0 00-.266-.1z"/></svg><svg viewBox="0 0 38 40" id="settings" xmlns="http://www.w3.org/2000/svg"><path d="M1.746 10.327c.409-.08.833.004 1.178.23.683.454.88 1.35.45 2.038l-.113.223a2.102 2.102 0 00.923 2.676 5.22 5.22 0 011.87 1.915c1.38 2.473.523 5.567-1.942 7.027a2.099 2.099 0 00-.81 2.898l1.241 2.09c.283.499.761.863 1.325 1.009a2.185 2.185 0 001.662-.235 5.296 5.296 0 012.644-.686c2.98 0 5.397 2.36 5.397 5.27.01 1.177.99 2.126 2.194 2.126l-.018.035c.56 0 1.076.292 1.356.765.28.472.28 1.055 0 1.528-.28.473-.796.764-1.356.764-2.98 0-5.396-2.36-5.396-5.27a1.984 1.984 0 00-.288-1.054c-.604-1.02-1.938-1.374-2.986-.79l-.32.156c-2.474 1.117-5.444.254-6.876-2.054l-1.223-2.09C-.721 26.425.135 23.33 2.6 21.87c.327-.188.6-.454.792-.773.36-.491.49-1.109.357-1.699a2.131 2.131 0 00-1.059-1.393l-.3-.19C.158 16.29-.573 13.348.749 10.978l.153-.19a1.57 1.57 0 01.845-.462zm32.257 5.077a1.62 1.62 0 011.914.67c.44.723.198 1.657-.54 2.09-.327.188-.6.454-.791.773a2.082 2.082 0 00-.226 1.62 2.133 2.133 0 001.017 1.296c2.546 1.49 3.381 4.708 1.87 7.203l-1.222 2.09-.196.293c-1.562 2.181-4.573 2.895-7 1.605a2.203 2.203 0 00-2.195-.022 2.098 2.098 0 00-1.08 1.866c-.085.786-.764 1.381-1.573 1.381-.81 0-1.488-.595-1.574-1.381.038-1.842 1.06-3.53 2.692-4.453a5.51 5.51 0 015.295-.062 2.185 2.185 0 001.655.229A2.242 2.242 0 0033.38 29.6l1.223-2.09a2.065 2.065 0 00.225-1.61 2.116 2.116 0 00-1.016-1.289 5.142 5.142 0 01-1.96-2.09c-1.38-2.473-.524-5.568 1.942-7.027l.21-.09zm-15.014-2a6.83 6.83 0 014.781 1.923 6.51 6.51 0 011.983 4.664l-.011.4c-.149 2.511-1.752 4.739-4.152 5.715-2.527 1.028-5.44.467-7.378-1.42-1.938-1.888-2.52-4.73-1.474-7.2 1.046-2.471 3.513-4.082 6.25-4.082zm0 3.091c-1.987 0-3.598 1.573-3.598 3.514 0 1.94 1.61 3.513 3.598 3.513 1.987 0 3.598-1.573 3.598-3.513l-.012-.288c-.15-1.806-1.699-3.226-3.586-3.226zM20.23 0c2.98 0 5.397 2.36 5.397 5.27-.005.37.095.735.288 1.054a2.17 2.17 0 001.324 1.004c.56.148 1.16.071 1.662-.213 2.532-1.347 5.701-.511 7.196 1.897a1.542 1.542 0 01-.576 2.09 1.605 1.605 0 01-2.14-.544l-.142-.207a2.23 2.23 0 00-2.845-.566 5.51 5.51 0 01-5.288-.057c-1.631-.919-2.655-2.602-2.7-4.44a2.098 2.098 0 00-.61-1.549 2.203 2.203 0 00-1.566-.647h-2.465a2.22 2.22 0 00-1.57.646 2.116 2.116 0 00-.624 1.55c-.017 1.848-1.04 3.548-2.687 4.46a5.418 5.418 0 01-5.3-.033l-.072-.07-.174-.122a1.506 1.506 0 01-.33-1.987 1.59 1.59 0 012.159-.492c.328.187.7.29 1.079.299.582.024 1.15-.18 1.579-.565.428-.386.682-.922.706-1.49C12.52 2.43 14.84.086 17.765 0h2.465z"/></svg><svg viewBox="0 0 38 38" id="squares" xmlns="http://www.w3.org/2000/svg"><path d="M32.234 20.503c3.174.01 5.747 2.629 5.766 5.868v5.743c-.02 3.242-2.59 5.866-5.766 5.886h-5.625c-3.174-.02-5.74-2.647-5.749-5.886V26.37c0-3.24 2.574-5.868 5.749-5.868h5.625zm-24.158 0a1.54 1.54 0 011.48.735 1.612 1.612 0 010 1.68c-.314.515-.89.8-1.48.735h-2.31c-1.473 0-2.67 1.214-2.68 2.718v5.67c.037 1.493 1.218 2.69 2.68 2.719h5.66c.71.005 1.392-.28 1.895-.79.503-.51.786-1.204.786-1.928v-8.515l-.024-.212a1.594 1.594 0 01.719-1.413 1.526 1.526 0 011.736.051 1.6 1.6 0 01.602 1.664v8.479c0 3.25-2.582 5.886-5.767 5.886H5.766C2.61 37.915.066 35.319 0 32.096V26.37a5.93 5.93 0 011.69-4.155 5.69 5.69 0 014.076-1.713h2.31zm24.158 3.15h-5.625c-1.47 0-2.663 1.217-2.663 2.718v5.743a2.73 2.73 0 00.775 1.927c.5.51 1.18.796 1.888.79h5.625a2.618 2.618 0 001.888-.79c.5-.51.78-1.205.775-1.927V26.37a2.75 2.75 0 00-.78-1.922 2.635 2.635 0 00-1.883-.796zm0-23.653c3.15.076 5.683 2.67 5.748 5.886v5.725a5.934 5.934 0 01-1.633 4.17 5.693 5.693 0 01-4.045 1.77h-2.327a1.572 1.572 0 01-1.387-1.575c0-.81.598-1.49 1.387-1.575h2.257a2.654 2.654 0 001.896-.82c.5-.521.776-1.224.767-1.952V5.886c-.02-1.493-1.2-2.698-2.663-2.718h-5.625c-1.47 0-2.663 1.217-2.663 2.718v8.587l-.02.213a1.579 1.579 0 01-1.567 1.335 1.52 1.52 0 01-1.08-.49 1.585 1.585 0 01-.419-1.13V5.886a5.931 5.931 0 011.678-4.16A5.69 5.69 0 0126.608 0h5.626zM11.39 0c3.18.01 5.757 2.64 5.766 5.886v5.743a5.93 5.93 0 01-1.69 4.155 5.689 5.689 0 01-4.076 1.713H5.766C2.592 17.487.02 14.868 0 11.629V5.886C.02 2.644 2.59.02 5.766 0h5.625zm0 3.168H5.766a2.634 2.634 0 00-1.917.777 2.747 2.747 0 00-.798 1.941v5.743c-.015.74.266 1.453.779 1.976.512.523 1.212.81 1.936.796h5.625a2.654 2.654 0 001.897-.82 2.77 2.77 0 00.766-1.952V5.886c-.01-1.497-1.196-2.708-2.663-2.718z"/></svg><svg viewBox="0 0 75 75" id="star" xmlns="http://www.w3.org/2000/svg"><path d="M58.11 74.689a2.512 2.512 0 01-1.32-.338L37.525 64.205l-16.963 9.134a5.703 5.703 0 01-7.732-2.299 6.148 6.148 0 01-.649-3.855l3.3-19.474-13.79-13.964a6.002 6.002 0 010-8.35 5.602 5.602 0 013.299-1.69l18.909-2.873 8.41-17.522a5.682 5.682 0 0110.326 0l8.448 17.582L70.056 23.8a5.718 5.718 0 013.81 2.34 6.182 6.182 0 01-.608 7.802L59.53 47.741l1.912 10.495A2.933 2.933 0 0159.1 61.61a2.842 2.842 0 01-3.3-2.298l-1.946-10.495a6.085 6.085 0 011.65-5.28l13.76-13.895-18.972-2.944a5.698 5.698 0 01-4.323-3.374L37.525 5.817l-8.55 17.784a5.69 5.69 0 01-4.323 3.375L5.743 29.848l13.66 13.873a5.965 5.965 0 011.65 5.208l-3.3 19.475 16.96-9.096a5.518 5.518 0 015.41 0l19.239 10.146a2.955 2.955 0 011.451 3.296 2.887 2.887 0 01-2.77 2.25l.067-.311z"/></svg><svg viewBox="0 0 75 75" id="telegram" xmlns="http://www.w3.org/2000/svg"><path d="M50.378 20.55a2.796 2.796 0 013.975 0 2.844 2.844 0 010 4.005L34.087 44.954l14.228 23.558c.518.857 1.332.85 1.669.812.33-.046 1.129-.25 1.414-1.208l8.708-29.306c.45-1.503 2.013-2.355 3.502-1.903a2.835 2.835 0 011.89 3.526L56.79 69.734c-.843 2.834-3.176 4.827-6.09 5.2a7.035 7.035 0 01-.971.065c-2.543 0-4.868-1.306-6.221-3.548l-15.376-25.46a2.845 2.845 0 01.416-3.472l21.83-21.97zM65.64.29a7.29 7.29 0 017.237 1.894 7.406 7.406 0 011.816 7.303l-4.684 15.758a2.809 2.809 0 01-3.5 1.902 2.833 2.833 0 01-1.89-3.521l4.685-15.761a1.674 1.674 0 00-.42-1.695 1.666 1.666 0 00-1.68-.442L6.86 23.275c-.96.279-1.17 1.083-1.215 1.415-.041.332-.056 1.162.799 1.69l12.698 7.813a2.842 2.842 0 01.93 3.895 2.807 2.807 0 01-2.4 1.351 2.77 2.77 0 01-1.463-.415L3.511 31.208C.995 29.66-.325 26.875.07 23.935c.393-2.944 2.4-5.28 5.231-6.103L65.64.29z"/></svg><svg viewBox="0 0 44 34" id="users" xmlns="http://www.w3.org/2000/svg"><path d="M22.795 21.254c4.128.025 12.685.413 12.685 6.356 0 5.973-8.865 6.363-12.745 6.388L22 34a1.389 1.389 0 01-1.384-1.392c0-.769.62-1.393 1.384-1.393 4.886 0 10.71-.625 10.71-3.605 0-2.372-3.601-3.573-10.71-3.573-4.885 0-10.71.625-10.71 3.607 0 .664.194 1.52 1.706 2.265.62.306 1.407.562 2.334.76.748.16 1.226.901 1.065 1.653a1.38 1.38 0 01-1.641 1.071c-1.149-.247-2.15-.577-2.976-.982-2.692-1.327-3.257-3.325-3.257-4.767 0-5.975 8.865-6.365 12.745-6.39h1.53zm13.344-1.259c1.025.07 2.055.22 3.067.444 2.254.45 3.74 1.372 4.388 2.736a4.175 4.175 0 010 3.59c-.64 1.354-2.123 2.28-4.41 2.754-.093.02-.187.03-.281.03a1.393 1.393 0 01-.275-2.757c1.889-.392 2.354-.986 2.466-1.224.18-.378.18-.815 0-1.193-.236-.5-1.154-.95-2.457-1.21-.907-.201-1.8-.333-2.683-.392a1.389 1.389 0 01-1.288-1.484 1.395 1.395 0 011.473-1.294zm-28.263-.028c.738-.058 1.423.527 1.475 1.294a1.388 1.388 0 01-1.289 1.483c-.89.06-1.783.191-2.657.388-1.34.265-2.261.718-2.5 1.22-.178.38-.178.82 0 1.2.115.24.58.836 2.476 1.228a1.39 1.39 0 011.079 1.643 1.385 1.385 0 01-1.634 1.084c-2.292-.472-3.778-1.4-4.42-2.759a4.178 4.178 0 010-3.592c.65-1.372 2.14-2.298 4.429-2.751.977-.219 2.012-.37 3.04-.438zM22 0c5.037 0 9.135 4.12 9.135 9.185 0 5.067-4.098 9.186-9.135 9.186a9.037 9.037 0 01-5.62-1.929 1.397 1.397 0 01-.244-1.953 1.377 1.377 0 011.944-.243 6.31 6.31 0 003.92 1.34c3.512 0 6.366-2.872 6.366-6.4 0-3.53-2.854-6.401-6.366-6.401-3.512 0-6.368 2.871-6.368 6.4a1.39 1.39 0 01-1.384 1.393 1.39 1.39 0 01-1.385-1.393C12.864 4.12 16.962 0 22 0zm11.366 1.902c3.977 0 7.213 3.252 7.213 7.253 0 3.999-3.236 7.253-7.213 7.253a1.389 1.389 0 01-1.385-1.392c0-.769.62-1.393 1.385-1.393 2.45 0 4.444-2.005 4.444-4.468s-1.994-4.468-4.444-4.468a1.389 1.389 0 01-1.385-1.393c0-.77.62-1.392 1.385-1.392zm-22.71-.077a1.39 1.39 0 011.384 1.393 1.39 1.39 0 01-1.384 1.392c-2.46 0-4.461 2.012-4.461 4.485 0 2.473 2.001 4.483 4.46 4.483.765 0 1.385.624 1.385 1.392a1.39 1.39 0 01-1.384 1.393c-3.986 0-7.23-3.26-7.23-7.268s3.244-7.27 7.23-7.27z"/></svg></svg>