<svg id="star" width="75" height="75" viewBox="0 0 75 75" fill="none" xmlns="http://www.w3.org/2000/svg">
	<path
		d="M58.1097 74.6888C57.6485 74.7 57.191 74.5838 56.7898 74.3513L37.5246 64.205L20.5616 73.3389C17.7944 74.8388 14.3299 73.8114 12.83 71.0405C12.8113 71.0067 12.7925 70.973 12.7738 70.9355C12.1851 69.7769 11.9789 68.4683 12.1814 67.1859L15.481 47.7107L1.69011 33.7474C-0.563371 31.4227 -0.563371 27.7256 1.69011 25.3971C2.56751 24.4748 3.72987 23.8786 4.98972 23.7061L23.8987 20.8339L32.309 3.31227C33.6176 0.462612 36.9884 -0.789739 39.8418 0.518855C41.0792 1.08504 42.0691 2.07867 42.6352 3.31227L51.083 20.8939L70.0557 23.7998C71.5893 24.0286 72.9654 24.876 73.8653 26.1396C75.5451 28.5543 75.2901 31.8164 73.2579 33.9424L59.5307 47.7407L61.443 58.2357C61.7092 59.8106 60.6706 61.3141 59.0995 61.6103C57.5547 61.8878 56.0774 60.8604 55.7999 59.3119L53.8539 48.8169C53.5277 46.8933 54.1389 44.9286 55.5037 43.5375L69.2646 29.6416L50.2918 26.6982C48.3683 26.387 46.7373 25.1122 45.9686 23.3236L37.5246 5.81698L28.9756 23.6011C28.207 25.3934 26.5759 26.6645 24.6524 26.9757L5.74338 29.8479L19.403 43.7212C20.7641 45.0898 21.3753 47.0283 21.0528 48.9293L17.7532 68.4045L34.7124 59.3081C36.3922 58.3632 38.4432 58.3632 40.123 59.3081L59.362 69.4544C60.5356 70.0956 61.1318 71.4492 60.8131 72.7503C60.5206 74.0514 59.3733 74.9775 58.0422 75L58.1097 74.6888Z"
		fill="black" />
</svg>