<svg id="telegram" width="75" height="75" viewBox="0 0 75 75" fill="none" xmlns="http://www.w3.org/2000/svg">
	<path
		d="M50.3778 20.5503C51.4766 19.4444 53.2541 19.4444 54.3529 20.5503C55.4517 21.6561 55.4517 23.4488 54.3529 24.5546L34.0872 44.954L48.3152 68.5122C48.8327 69.369 49.6465 69.3614 49.984 69.3237C50.314 69.2784 51.1128 69.0746 51.3978 68.1159L60.1056 38.8096C60.5556 37.3075 62.1194 36.4546 63.6082 36.9075C65.097 37.3566 65.9446 38.9342 65.4983 40.4325L56.7905 69.7351C55.9467 72.5694 53.6141 74.5622 50.7003 74.9358C50.374 74.9811 50.0515 75 49.729 75C47.1864 75 44.8613 73.6941 43.5075 71.4523L28.132 45.9918C27.4607 44.8747 27.6295 43.4405 28.5483 42.5196L50.3778 20.5503ZM65.6397 0.289852C68.2085 -0.45743 70.9911 0.263433 72.8774 2.18448C74.7638 4.10175 75.4613 6.8984 74.6925 9.48747L70.0086 25.2446C69.5623 26.7429 68.0023 27.5921 66.5097 27.1467C65.0209 26.6976 64.1734 25.12 64.6197 23.6255L69.3036 7.86458C69.5661 6.98143 69.0973 6.38511 68.8836 6.16999C68.6698 5.95108 68.0698 5.47554 67.2035 5.72841L6.86015 23.2745C5.90011 23.5537 5.6901 24.3576 5.6451 24.6898C5.60385 25.0219 5.58885 25.8522 6.44388 26.3806L19.1418 34.1931C20.4656 35.0083 20.8856 36.752 20.0719 38.088C19.5431 38.9561 18.6206 39.4392 17.6718 39.4392C17.173 39.4392 16.6667 39.3071 16.2092 39.024L3.51128 31.2077C0.994941 29.6603 -0.325105 26.875 0.0686589 23.9349C0.462423 20.9911 2.46874 18.6549 5.30009 17.8321L65.6397 0.289852Z"
		fill="black" />
</svg>