<svg width="21" height="20" viewBox="0 0 21 20" fill="none" xmlns="http://www.w3.org/2000/svg">
<path d="M7.97106 12.5451C11.3928 12.5451 15.9411 12.9302 15.9411 16.2626C15.9411 19.7758 10.6401 19.9865 8.36713 19.9992L7.97106 20C7.53639 20 7.18362 19.6485 7.18362 19.2131C7.18362 18.7787 7.53639 18.4261 7.97106 18.4261C10.8888 18.4261 14.3662 18.0516 14.3662 16.2626C14.3662 14.8409 12.2149 14.119 7.97106 14.119C5.05331 14.119 1.57489 14.4936 1.57489 16.2836C1.57489 16.6844 1.69249 17.2017 2.60802 17.6507C2.9797 17.8333 3.44902 17.9854 4.00233 18.103C4.42755 18.1932 4.69948 18.6108 4.60814 19.0368C4.51784 19.4617 4.09997 19.7356 3.67475 19.6422C2.99545 19.4974 2.40329 19.3033 1.91507 19.0651C0.332827 18.2887 0 17.123 0 16.2836C0 12.5451 5.99929 12.5451 7.97106 12.5451ZM16.3659 11.8028C16.9738 11.8447 17.5838 11.9329 18.1802 12.0651C19.5083 12.3263 20.3829 12.8636 20.763 13.661C21.079 14.3252 21.079 15.0848 20.763 15.749C20.3882 16.5391 19.5146 17.0794 18.1676 17.3554C18.114 17.3659 18.0615 17.3711 18.008 17.3711C17.6426 17.3711 17.314 17.1151 17.2384 16.7426C17.1512 16.3166 17.4253 15.9011 17.8515 15.814C18.6526 15.6503 19.1954 15.3807 19.3403 15.0743C19.4516 14.8393 19.4516 14.5707 19.3414 14.3377C19.1933 14.0293 18.6526 13.7617 17.8568 13.6054C17.3192 13.4858 16.7879 13.4092 16.2577 13.3735C15.8241 13.3431 15.4965 12.9685 15.527 12.5351C15.5564 12.0997 15.9396 11.7807 16.3659 11.8028ZM7.97127 0C10.9436 0 13.3616 2.41746 13.3616 5.38788C13.3616 8.3583 10.9436 10.7758 7.97127 10.7758C6.75335 10.7758 5.60578 10.3844 4.65455 9.64362C4.31122 9.37607 4.24927 8.88187 4.517 8.53877C4.78474 8.19671 5.2782 8.13481 5.62153 8.40132C6.29453 8.92489 7.10718 9.20189 7.97127 9.20189C10.0753 9.20189 11.7867 7.49057 11.7867 5.38788C11.7867 3.28519 10.0753 1.57387 7.97127 1.57387C5.86616 1.57387 4.15478 3.28519 4.15478 5.38788C4.15478 5.82227 3.802 6.17482 3.36733 6.17482C2.93266 6.17482 2.57989 5.82227 2.57989 5.38788C2.57989 2.41746 4.99787 0 7.97127 0ZM14.7202 1.12301C17.0637 1.12301 18.9693 3.02844 18.9693 5.36931C18.9693 7.71123 17.0637 9.61561 14.7202 9.61561C14.2855 9.61561 13.9328 9.26306 13.9328 8.82867C13.9328 8.39429 14.2855 8.04174 14.7202 8.04174C16.1954 8.04174 17.3944 6.84245 17.3944 5.36931C17.3944 3.89617 16.1954 2.69688 14.7202 2.69688C14.2855 2.69688 13.9328 2.34433 13.9328 1.90994C13.9328 1.47556 14.2855 1.12301 14.7202 1.12301Z" fill="#1C2027"/>
</svg>
