<?xml version="1.0" encoding="utf-8"?><svg viewBox="0 0 44 42" xmlns="http://www.w3.org/2000/svg" xmlns:xlink="http://www.w3.org/1999/xlink"><style>:root>svg{display:none}:root>svg:target{display:block}</style><svg viewBox="0 0 40 40" id="accepted-call" xmlns="http://www.w3.org/2000/svg"><path d="M24.837 6.98a1.708 1.708 0 00-2.008 1.36 1.725 1.725 0 001.354 2.02 6.924 6.924 0 015.488 5.5 1.72 1.72 0 002.011 1.363 1.73 1.73 0 001.355-2.023c-.815-4.179-4.032-7.407-8.2-8.22z"/><path d="M24.712.016a1.635 1.635 0 00-1.25.352 1.705 1.705 0 00-.646 1.169 1.72 1.72 0 001.514 1.899c6.483.723 11.522 5.774 12.251 12.277a1.714 1.714 0 103.408-.384C39.081 7.215 32.801.917 24.712.016z"/><path fill-rule="evenodd" clip-rule="evenodd" d="M18.064 21.945c7.978 7.976 9.788-1.252 14.867 3.825 4.898 4.896 7.712 5.876 1.508 12.08-.778.624-5.716 8.139-23.07-9.21C-5.987 11.287 1.523 6.344 2.148 5.567c6.22-6.22 7.184-3.39 12.081 1.507 5.08 5.078-4.144 6.894 3.835 14.87z"/></svg><svg viewBox="0 0 40 40" id="bag" xmlns="http://www.w3.org/2000/svg"><path d="M39.62 21.63c.144.082.173.253.178.319l.002.026-.16 10.329c0 4.12-3.193 7.48-7.212 7.686l-.392.01H7.944c-4.07 0-7.39-3.231-7.594-7.3l-.01-.396-.14-10.33s0-.242.18-.343c.16-.102.36.02.38.04 4.042 2.714 8.905 4.516 14.007 5.266a1.508 1.508 0 001.641-1.094c.413-1.557 1.687-2.615 3.246-2.742l.316-.012h.06c1.7 0 3.122 1.093 3.562 2.754.2.73.92 1.195 1.64 1.094 5.103-.75 9.966-2.552 14.008-5.266l.08-.04c.08-.041.2-.061.3 0zm-19.63 4.355c-.752 0-1.386.579-1.487 1.314l-.014.205v2.612c0 .851.68 1.52 1.501 1.52.77 0 1.39-.562 1.487-1.31l.014-.21v-2.612c0-.83-.66-1.52-1.501-1.52zM22.571 0c3.002 0 5.463 2.289 5.843 5.225h3.962C36.578 5.225 40 8.69 40 12.942c0 0-.12 1.8-.16 4.308a.66.66 0 01-.258.51c-.963.71-1.843 1.298-1.923 1.339-3.322 2.227-7.182 3.795-11.294 4.575a.636.636 0 01-.668-.326 6.593 6.593 0 00-5.707-3.297 6.701 6.701 0 00-5.745 3.285.638.638 0 01-.664.32c-4.078-.782-7.938-2.348-11.24-4.537l-1.92-1.337a.572.572 0 01-.26-.486C.1 16.263 0 12.942 0 12.942c0-4.253 3.422-7.717 7.624-7.717h3.942C11.946 2.29 14.407 0 17.409 0h5.162zm0 3.038H17.41a2.908 2.908 0 00-2.802 2.187h10.766a2.906 2.906 0 00-2.802-2.187z"/></svg><svg viewBox="0 0 38 40" id="bag-2" xmlns="http://www.w3.org/2000/svg"><path d="M19.02 0c4.837 0 8.758 4 8.817 8.94h.41C33.63 8.94 38 13.44 38 18.96V30c0 5.52-4.37 10-9.754 10H9.754C4.37 40 0 35.52 0 30V18.96C0 13.44 4.37 8.94 9.754 8.94h.41c.038-2.4.955-4.64 2.613-6.32C14.455.92 16.601.06 19.02 0zm7.393 11.32c-.8 0-1.463.68-1.463 1.5v2.32c0 .82.663 1.5 1.463 1.5.819 0 1.463-.68 1.463-1.5v-2.32c0-.82-.644-1.5-1.463-1.5zm-15.001 0c-.8 0-1.463.68-1.463 1.5v2.32c0 .82.663 1.5 1.463 1.5.819 0 1.463-.68 1.463-1.5v-2.32c0-.82-.644-1.5-1.463-1.5zM19.019 3c-1.502 0-3.062.62-4.193 1.76-1.093 1.12-1.698 2.6-1.737 4.18h11.822C24.852 5.66 22.238 3 19.019 3z"/></svg><svg viewBox="0 0 36 40" id="bag-3" xmlns="http://www.w3.org/2000/svg"><path d="M18.01 0c5.36 0 9.766 4.212 9.99 9.549h-.052c.006.155-.024.31-.087.451h.312c2.434 0 4.983 1.687 6.005 5.76l.11.48 1.539 12.39c1.106 7.902-3.217 11.225-9.115 11.365l-.395.005H9.737C3.744 40-.875 37.816.141 29.167l.069-.538L1.765 16.24c.767-4.386 3.342-6.115 5.823-6.233L7.863 10h.157a1.297 1.297 0 010-.451C8.243 4.212 12.65 0 18.01 0zm-5.816 16.659c-.976 0-1.768.814-1.768 1.819s.792 1.82 1.768 1.82 1.768-.815 1.768-1.82l-.014-.228c-.11-.897-.853-1.591-1.754-1.591zm11.578 0c-.977 0-1.768.814-1.768 1.819s.791 1.82 1.768 1.82c.976 0 1.767-.815 1.767-1.82 0-1.005-.791-1.82-1.767-1.82zm-5.84-14.054c-3.849 0-6.968 3.109-6.968 6.944a1.3 1.3 0 010 .451h14.022a1.3 1.3 0 01-.087-.451c0-3.835-3.12-6.944-6.968-6.944z"/></svg><svg viewBox="0 0 40 41" id="banned-phone" xmlns="http://www.w3.org/2000/svg"><path fill-rule="evenodd" clip-rule="evenodd" d="M37.54 0c.456 0 .892.205 1.21.53a1.787 1.787 0 010 2.46v.02L19.916 22.303l-.923.944 1.186-1.21c6.56 5.388 8.411-2.318 13.058 2.404 4.794 4.894 7.55 5.882 1.472 12.085-.075.065-.193.2-.36.374l-.12.12c-1.596 1.566-6.857 5.211-20.619-8.252L2.888 39.763c-.337.326-.753.509-1.19.509-.435 0-.851-.183-1.208-.509a1.796 1.796 0 01-.258-2.114l.06-.081c.04-.063.079-.122.138-.183L36.35.531A1.63 1.63 0 0137.54 0zM14.419 5.545c4.062 4.142-1.204 6.117.954 11.032L8.37 23.683C-3.647 10.067 1.176 5.368 2.326 4.232l.088-.088c.04-.04.071-.074.094-.102 6.137-6.224 7.09-3.391 11.91 1.503z"/></svg><svg viewBox="0 0 40 40" id="bezier-graph" xmlns="http://www.w3.org/2000/svg"><path d="M26.9 3.56c-.08.5-.12 1-.12 1.5 0 4.5 3.64 8.139 8.12 8.139.5 0 .98-.058 1.48-.138v16.138c0 6.782-4 10.802-10.8 10.802H10.802C4 40 0 35.98 0 29.199V14.4C0 7.6 4 3.56 10.802 3.56H26.9zm.402 12.16c-.542-.06-1.08.18-1.402.62l-4.838 6.26-5.542-4.36a1.58 1.58 0 00-1.14-.32 1.55 1.55 0 00-1 .599L7.462 26.22l-.122.18c-.34.638-.18 1.458.42 1.9.28.18.58.3.92.3.462.02.9-.222 1.18-.6l5.02-6.462 5.7 4.282.18.118c.64.34 1.44.182 1.9-.42l5.78-7.458-.08.04c.32-.44.38-1 .16-1.5-.218-.5-.7-.84-1.218-.88zM35.18 0C37.84 0 40 2.16 40 4.82s-2.16 4.82-4.82 4.82-4.82-2.16-4.82-4.82S32.52 0 35.18 0z"/></svg><svg viewBox="0 0 41 39" id="big-star" xmlns="http://www.w3.org/2000/svg"><path d="M32.126 23.64a2.2 2.2 0 00-.639 1.94l1.78 9.84a2.16 2.16 0 01-.901 2.16c-.685.5-1.596.56-2.342.16l-8.864-4.62a2.265 2.265 0 00-1.001-.262h-.542a1.625 1.625 0 00-.54.18L10.21 37.68a2.34 2.34 0 01-1.421.22 2.223 2.223 0 01-1.781-2.542l1.78-9.84a2.237 2.237 0 00-.638-1.958l-7.227-7a2.158 2.158 0 01-.538-2.26 2.247 2.247 0 011.78-1.5l9.946-1.442a2.226 2.226 0 001.761-1.218l4.384-8.98c.104-.2.238-.384.4-.54l.18-.14c.094-.104.202-.19.322-.26l.218-.08.34-.14h.843a2.239 2.239 0 011.761 1.2l4.442 8.94c.32.654.942 1.108 1.66 1.218L38.37 12.8c.84.12 1.543.7 1.821 1.5a2.172 2.172 0 01-.58 2.26l-7.485 7.08z"/></svg><svg viewBox="0 0 32 41" id="bookmark" xmlns="http://www.w3.org/2000/svg"><path d="M22.14 0c5.42 0 9.8 2.14 9.86 7.58v30.36c0 .34-.08.68-.24.98-.26.48-.7.84-1.24 1-.52.16-1.1.08-1.58-.2l-12.96-6.48L3 39.72c-.298.158-.64.26-.98.26C.9 39.98 0 39.06 0 37.94V7.58C0 2.14 4.4 0 9.8 0h12.34zm1.36 12.08H8.44c-.86 0-1.56.7-1.56 1.58 0 .878.7 1.58 1.56 1.58H23.5c.86 0 1.56-.702 1.56-1.58 0-.88-.7-1.58-1.56-1.58z"/></svg><svg viewBox="0 0 22 36" id="bottom-arrow" xmlns="http://www.w3.org/2000/svg"><path d="M21.82 18.283a1.43 1.43 0 00-1.255-.76h-8.13V1.47C12.435.658 11.792 0 11 0S9.566.658 9.566 1.469v16.054H1.435c-.524 0-1.005.292-1.255.76a1.496 1.496 0 00.04 1.492l9.565 15.54A1.43 1.43 0 0011 36c.493 0 .95-.258 1.215-.685l9.565-15.54c.145-.239.22-.511.22-.783 0-.243-.061-.488-.18-.71z"/></svg><svg viewBox="0 0 40 40" id="brush" xmlns="http://www.w3.org/2000/svg"><path d="M14.56 27.648l9.71.03c.605.002 1.095.51 1.095 1.13v5.463c0 .623-.354 1.188-.906 1.448l-8.814 4.139a1.51 1.51 0 01-1.476-.11 1.603 1.603 0 01-.71-1.339v-9.63c0-.626.494-1.133 1.101-1.13zM35.744 0C38.095 0 40 1.962 40 4.385v3.063c0 1.175-.46 2.303-1.275 3.126l-13.01 13.16c-.224.23-.529.356-.844.354l-10.893-.034a1.18 1.18 0 01-.873-.39L1.149 10.514A4.459 4.459 0 010 7.516V4.387C0 1.964 1.905 0 4.256 0h31.488z"/></svg><svg viewBox="0 0 36 40" id="calendar" xmlns="http://www.w3.org/2000/svg"><path d="M25.3 0c.848-.002 1.52.658 1.522 1.537l.002 1.5c5.509.431 9.148 4.185 9.154 9.942L36 29.831c.008 6.277-3.935 10.139-10.256 10.149l-15.44.02C4.022 40.008.03 36.054.022 29.76L0 13.104C-.008 7.31 3.503 3.566 9.012 3.06L9.01 1.561C9.008.681 9.66.02 10.53.02c.869-.002 1.52.658 1.522 1.537l.002 1.4 11.73-.016-.002-1.4C23.779.661 24.43.002 25.299 0zm.805 28.384h-.02a1.666 1.666 0 00-1.617 1.703c.002.92.735 1.677 1.643 1.697a1.689 1.689 0 001.674-1.703c0-.94-.752-1.697-1.68-1.697zm-16.271.002c-.909.04-1.62.801-1.617 1.72.041.92.791 1.64 1.7 1.598.89-.04 1.6-.802 1.558-1.721a1.63 1.63 0 00-1.641-1.597zm8.135-.01a1.708 1.708 0 00-1.617 1.72c.042.92.792 1.638 1.7 1.598a1.645 1.645 0 001.558-1.723 1.63 1.63 0 00-1.64-1.595zm-8.145-7.187c-.908.04-1.617.802-1.615 1.721.04.92.792 1.64 1.7 1.598a1.642 1.642 0 001.556-1.721c-.02-.9-.75-1.6-1.641-1.598zm8.138-.07c-.909.04-1.62.802-1.618 1.722.04.92.792 1.637 1.7 1.597a1.646 1.646 0 001.558-1.721c-.021-.9-.752-1.6-1.64-1.598zm8.135.01c-.908.02-1.62.76-1.617 1.68v.022c.02.92.77 1.617 1.68 1.597.889-.022 1.598-.784 1.578-1.703-.041-.88-.754-1.598-1.64-1.596zm-2.31-15.11l-11.73.016.002 1.617c0 .862-.65 1.541-1.518 1.541-.87.002-1.523-.675-1.523-1.537l-.002-1.539c-3.85.386-5.98 2.649-5.975 6.984l.002.622 29.896-.04v-.7c-.085-4.297-2.241-6.552-6.111-6.888l.002 1.54c0 .859-.67 1.54-1.519 1.54-.869.002-1.522-.677-1.522-1.537l-.002-1.619z"/></svg><svg viewBox="0 0 40 40" id="close" xmlns="http://www.w3.org/2000/svg"><path d="M28.68 0C35.46 0 40 4.76 40 11.84v16.342C40 35.242 35.46 40 28.68 40H11.34C4.56 40 0 35.242 0 28.182V11.84C0 4.76 4.56 0 11.34 0h17.34zm-2.66 13.942a1.759 1.759 0 00-2.48 0L20 17.5l-3.56-3.558c-.7-.682-1.8-.682-2.48 0-.68.68-.68 1.8 0 2.478l3.56 3.562-3.56 3.54a1.76 1.76 0 001.24 3c.46 0 .9-.182 1.24-.522L20 22.462 23.56 26c.34.362.78.522 1.22.522.46 0 .9-.182 1.24-.522.68-.678.68-1.778 0-2.458l-3.56-3.56 3.56-3.562a1.76 1.76 0 000-2.478z"/></svg><svg viewBox="0 0 40 40" id="controller" xmlns="http://www.w3.org/2000/svg"><path d="M12.718 0c.825 0 1.472.655 1.472 1.445 0 .578.491 1.04 1.08 1.04h1.943c2.964.02 5.378 2.39 5.397 5.28v.366c1.865 0 3.73.039 5.614.058 6.81 0 11.776 4.855 11.776 11.56v8.613c0 6.705-4.966 11.56-11.776 11.56-2.728.059-5.457.078-8.204.078-2.748 0-5.516-.02-8.244-.077C4.966 39.923 0 35.067 0 28.363V19.75C0 13.044 4.966 8.189 11.796 8.189a516.71 516.71 0 017.87-.077v-.328c0-1.33-1.118-2.408-2.453-2.408H15.27c-2.218 0-4.024-1.773-4.024-3.93 0-.79.668-1.446 1.472-1.446zm1.453 19.133c-.825 0-1.472.655-1.472 1.445v2.023h-2.08c-.805 0-1.473.655-1.473 1.445 0 .81.668 1.445 1.472 1.445h2.08v2.043c0 .79.648 1.445 1.473 1.445.805 0 1.472-.655 1.472-1.445V25.49h2.06c.805 0 1.473-.636 1.473-1.445 0-.79-.668-1.445-1.472-1.445h-2.061v-2.023c0-.79-.668-1.445-1.472-1.445zm15.427 6.84H29.4c-.826 0-1.472.655-1.472 1.445 0 .81.646 1.445 1.472 1.445h.197c.804 0 1.472-.636 1.472-1.445 0-.79-.668-1.445-1.472-1.445zm-3.357-6.628h-.196c-.824 0-1.472.655-1.472 1.445 0 .81.648 1.445 1.472 1.445h.196c.805 0 1.472-.636 1.472-1.445 0-.79-.667-1.445-1.472-1.445z"/></svg><svg viewBox="0 0 40 36" id="danger" xmlns="http://www.w3.org/2000/svg"><path d="M17.256.706c2.72-1.508 6.179-.517 7.698 2.178l14.538 25.23c.32.753.46 1.366.5 2.002a5.52 5.52 0 01-1.46 4.043 5.674 5.674 0 01-3.9 1.841H5.359a6.295 6.295 0 01-1.82-.396c-2.9-1.17-4.3-4.46-3.12-7.311L15.057 2.866a5.458 5.458 0 012.2-2.16zm2.74 23.84c-.96 0-1.76.792-1.76 1.745 0 .95.8 1.744 1.76 1.744s1.739-.794 1.739-1.766c0-.949-.78-1.724-1.74-1.724zm0-12.365c-.96 0-1.76.77-1.76 1.724v5.607c0 .95.8 1.745 1.76 1.745s1.739-.794 1.739-1.745v-5.607c0-.953-.78-1.724-1.74-1.724z"/></svg><svg viewBox="0 0 40 40" id="declined-call" xmlns="http://www.w3.org/2000/svg"><path d="M34.675 7.835L39.48 3.01c.336-.336.52-.782.52-1.254s-.184-.918-.52-1.254c-.668-.67-1.829-.67-2.497 0l-4.807 4.827L27.368.502c-.668-.67-1.83-.67-2.497 0a1.773 1.773 0 00-.517 1.254c0 .472.184.918.517 1.254l4.807 4.825-4.807 4.826a1.773 1.773 0 00-.517 1.254c0 .472.184.918.517 1.254.668.67 1.829.67 2.497 0l4.81-4.827 4.806 4.827c.335.335.777.52 1.25.52.472 0 .914-.185 1.247-.52.336-.336.52-.782.52-1.254s-.184-.918-.52-1.254l-4.806-4.826z"/><path fill-rule="evenodd" clip-rule="evenodd" d="M18.064 21.945c7.978 7.976 9.788-1.252 14.867 3.825 4.898 4.896 7.712 5.876 1.508 12.08-.778.624-5.716 8.139-23.07-9.21C-5.987 11.287 1.523 6.344 2.148 5.567c6.22-6.22 7.184-3.39 12.081 1.507 5.08 5.078-4.144 6.894 3.835 14.87z"/></svg><svg viewBox="0 0 40 40" id="dialog" xmlns="http://www.w3.org/2000/svg"><path d="M20.04 0C31.4 0 40 9.314 40 19.97 40 32.328 29.92 40 20 40c-3.28 0-6.92-.881-9.84-2.604-1.02-.62-1.88-1.081-2.98-.721l-4.04 1.202c-1.02.32-1.94-.48-1.64-1.563l1.34-4.486c.22-.621.18-1.282-.14-1.803C.98 26.86 0 23.395 0 20.03 0 9.494 8.42 0 20.04 0zm9.14 17.486a2.554 2.554 0 00-2.56 2.564 2.567 2.567 0 002.56 2.564c1.42 0 2.56-1.162 2.56-2.564a2.554 2.554 0 00-2.56-2.564zm-9.22 0c-1.4-.02-2.56 1.142-2.56 2.544a2.584 2.584 0 002.56 2.584c1.42 0 2.56-1.162 2.56-2.564a2.554 2.554 0 00-2.56-2.564zm-9.22 0a2.554 2.554 0 00-2.56 2.564 2.58 2.58 0 002.56 2.564c1.42-.02 2.56-1.162 2.56-2.564a2.554 2.554 0 00-2.56-2.564z"/></svg><svg viewBox="0 0 40 40" id="discount" xmlns="http://www.w3.org/2000/svg"><path d="M15.73 1.77c2.342-2.357 6.163-2.357 8.524-.017l1.46 1.458a3 3 0 002.121.882h2.06a6.026 6.026 0 016.023 6.018v2.062c0 .798.32 1.558.88 2.118l1.44 1.44A5.91 5.91 0 0140 19.97a5.95 5.95 0 01-1.72 4.26l-1.48 1.48c-.56.56-.88 1.32-.88 2.122v2.058a6.029 6.029 0 01-6.023 6.022h-2.06a3 3 0 00-2.122.878l-1.44 1.44a5.99 5.99 0 01-4.262 1.76 6.06 6.06 0 01-4.261-1.738l-1.46-1.462a2.997 2.997 0 00-2.122-.878h-2.06a6.029 6.029 0 01-6.022-6.022v-2.058a3.08 3.08 0 00-.88-2.142l-1.441-1.42c-2.341-2.338-2.361-6.16-.02-8.518l1.46-1.462c.56-.56.88-1.32.88-2.14v-2.04a6.025 6.025 0 016.023-6.018h2.06a3 3 0 002.121-.882l1.44-1.44zm9.424 21.62a1.75 1.75 0 100 3.5c.96 0 1.74-.78 1.74-1.76 0-.957-.78-1.74-1.74-1.74zm1.22-9.78a1.743 1.743 0 00-2.46 0L13.63 23.89c-.68.68-.68 1.8 0 2.48.32.34.76.52 1.22.52.48 0 .92-.18 1.24-.52l10.285-10.277c.68-.68.68-1.802 0-2.482zm-11.504-.5c-.96 0-1.76.78-1.76 1.74 0 .983.8 1.76 1.76 1.76s1.741-.777 1.741-1.76c0-.96-.78-1.74-1.74-1.74z"/></svg><svg viewBox="0 0 24 36" id="divided-bottom-arrow" xmlns="http://www.w3.org/2000/svg"><path d="M11.987 15.67c2.943 0 5.626.172 7.376.432a.81.81 0 00.121.03l.501.1c.64.13 1.602.34 2.032.564C23.242 17.43 24 18.672 24 20v.116c-.029.866-.789 2.685-.815 2.685-1.284 3.061-5.279 9.096-7.933 11.522l-.091.09c-.2.196-.687.661-1.017.892a3.536 3.536 0 01-2.129.694c-.846 0-1.632-.26-2.275-.75-.117-.116-.61-.548-1.02-.954-2.567-2.367-6.764-8.548-8.048-11.782-.205-.49-.641-1.732-.672-2.397a4 4 0 01.438-1.82 3.772 3.772 0 011.81-1.617c.523-.203 2.099-.521 2.127-.521 1.72-.317 4.519-.489 7.612-.489zM12 0c1.676 0 3.036 1.346 3.036 3.007l-.655 7.398A2.37 2.37 0 0112 12.764a2.369 2.369 0 01-2.382-2.359l-.654-7.398C8.964 1.347 10.324 0 12 0z"/></svg><svg viewBox="0 0 36 24" id="divided-left-arrow" xmlns="http://www.w3.org/2000/svg"><path d="M20.327 11.279l.003.708c0 2.943-.172 5.626-.432 7.376l-.227 1.087c-.127.576-.293 1.232-.467 1.567C18.57 23.242 17.328 24 16 24h-.116c-.866-.029-2.685-.789-2.685-.815-2.928-1.229-8.577-4.936-11.186-7.58l-.758-.793a7.17 7.17 0 01-.56-.668A3.536 3.536 0 010 12.015c0-.846.26-1.632.75-2.275l.78-.84.174-.18C4.071 6.153 10.252 1.956 13.486.672l.488-.187c.587-.21 1.41-.462 1.91-.485a4 4 0 011.82.438 3.772 3.772 0 011.616 1.81c.203.523.521 2.099.521 2.127.292 1.588.462 4.095.486 6.904zM36 12c0 1.676-1.346 3.036-3.007 3.036l-7.398-.655c-1.302 0-2.358-1.066-2.358-2.381a2.369 2.369 0 012.358-2.382l7.398-.654C34.653 8.964 36 10.324 36 12z"/></svg><svg viewBox="0 0 36 24" id="divided-right-arrow" xmlns="http://www.w3.org/2000/svg"><path d="M15.673 12.721l-.003-.708c0-2.943.172-5.626.432-7.376l.227-1.087c.127-.576.293-1.232.467-1.567C17.43.758 18.672 0 20 0h.116c.866.029 2.685.789 2.685.815 2.928 1.229 8.577 4.936 11.186 7.58l.758.793c.199.215.422.47.56.668.463.613.694 1.37.694 2.129 0 .846-.26 1.632-.75 2.275l-.78.84-.174.18c-2.367 2.567-8.548 6.764-11.782 8.048l-.488.187c-.587.21-1.41.462-1.91.485a4 4 0 01-1.82-.438 3.772 3.772 0 01-1.616-1.81c-.203-.523-.521-2.099-.521-2.127-.292-1.588-.462-4.095-.486-6.904zM0 12c0-1.676 1.346-3.036 3.007-3.036l7.398.655A2.37 2.37 0 0112.764 12a2.369 2.369 0 01-2.359 2.382l-7.398.654C1.347 15.036 0 13.676 0 12z"/></svg><svg viewBox="0 0 24 36" id="divided-up-arrow" xmlns="http://www.w3.org/2000/svg"><path d="M12.721 20.327l-.708.003c-2.943 0-5.626-.172-7.376-.432L3.55 19.67c-.576-.127-1.232-.293-1.567-.467C.758 18.57 0 17.328 0 16v-.116c.029-.866.789-2.685.815-2.685C2.044 10.27 5.751 4.62 8.395 2.012l.793-.758c.215-.199.47-.422.668-.56A3.536 3.536 0 0111.985 0c.846 0 1.632.26 2.275.75l.84.78.18.174c2.567 2.367 6.764 8.548 8.048 11.782l.187.488c.21.587.462 1.41.485 1.91a4 4 0 01-.438 1.82 3.772 3.772 0 01-1.81 1.616c-.523.203-2.099.521-2.127.521-1.588.292-4.095.462-6.904.486zM12 36c-1.676 0-3.036-1.346-3.036-3.007l.655-7.398c0-1.302 1.066-2.358 2.381-2.358a2.369 2.369 0 012.382 2.358l.654 7.398c0 1.66-1.36 3.007-3.036 3.007z"/></svg><svg viewBox="0 0 40 38" id="download" xmlns="http://www.w3.org/2000/svg"><path d="M18.46 9.581V1.563C18.46.71 19.14 0 20 0c.77 0 1.423.597 1.526 1.353l.014.21v8.018h9.56c4.76 0 8.67 3.899 8.89 8.76l.01.431v10.079c0 4.895-3.775 8.913-8.464 9.139l-.416.01H8.88C4.12 38 .228 34.122.01 29.242L0 28.81V18.752c0-4.895 3.756-8.933 8.444-9.16l.416-.01h9.6v12.805l-3.2-3.304a1.51 1.51 0 00-2.18 0c-.3.31-.44.723-.44 1.136 0 .314.09.64.279.918l.161.197 5.82 6.03c.28.31.68.476 1.1.476.333 0 .667-.115.93-.332l.15-.143 5.82-6.03c.6-.62.6-1.632 0-2.252a1.51 1.51 0 00-2.008-.154l-.172.154-3.18 3.304V9.581h-3.08z"/></svg><svg viewBox="0 0 34 40" id="download-doc" xmlns="http://www.w3.org/2000/svg"><path d="M19.505 0c.495 0 .91.42.91.92v6.44c0 3.66 2.971 6.66 6.615 6.68 1.485 0 2.693.02 3.584.02l.337-.002c.609-.004 1.428-.018 2.138-.018.515 0 .911.4.911.9v16.08c0 4.96-4 8.98-8.91 8.98H9.346C4.178 40 0 35.78 0 30.58V9.02C0 4.06 3.98 0 8.93 0h10.575zm-3.228 13.48a1.49 1.49 0 00-1.485 1.5v9.64l-3.148-3.2a1.46 1.46 0 00-2.08 0 1.52 1.52 0 000 2.12l5.664 5.74c.138.14.297.24.475.32.178.08.376.12.574.12.198 0 .377-.04.555-.12.178-.08.336-.18.475-.32l5.683-5.74c.574-.6.574-1.54-.02-2.12a1.46 1.46 0 00-2.079 0l-3.148 3.2v-9.64c0-.84-.654-1.5-1.466-1.5zM23.29 1.812c0-.862 1.036-1.29 1.626-.668l7.974 8.374c.578.606.155 1.612-.681 1.614-1.626.006-3.545 0-4.925-.014-2.19 0-3.994-1.822-3.994-4.034V1.812z"/></svg><svg viewBox="0 0 38 40" id="enter" xmlns="http://www.w3.org/2000/svg"><path d="M9.581 21.54H1.563C.71 21.54 0 20.86 0 20c0-.84.71-1.54 1.563-1.54h8.018V8.9c0-4.9 4.131-8.9 9.191-8.9h10.079C33.89 0 38 4 38 8.88v22.24c0 4.9-4.11 8.88-9.19 8.88H18.752c-5.04 0-9.17-3.98-9.17-8.86l-.001-9.6h12.805l-3.304 3.2c-.62.6-.62 1.58 0 2.18.31.3.723.44 1.136.44.392 0 .805-.14 1.115-.44l6.03-5.82c.31-.28.476-.68.476-1.1 0-.4-.165-.8-.475-1.08l-6.03-5.82c-.62-.6-1.632-.6-2.252 0-.62.6-.62 1.58 0 2.18l3.304 3.18H9.581v3.08z"/></svg><svg viewBox="0 0 40 40" id="exclamation-mark" xmlns="http://www.w3.org/2000/svg"><path d="M20 0c11.06 0 20 8.962 20 20 0 11.042-8.94 20-20 20C8.96 40 0 31.042 0 20 0 8.962 8.96 0 20 0zm0 25.862c-.96 0-1.74.78-1.74 1.74s.78 1.76 1.76 1.76c.96 0 1.74-.8 1.74-1.76s-.78-1.74-1.76-1.74zm0-15.202c-.96 0-1.76.802-1.76 1.76v8.84c0 .962.8 1.74 1.76 1.74s1.74-.778 1.74-1.74v-8.84c0-.958-.78-1.76-1.74-1.76z"/></svg><svg viewBox="0 0 42 40" id="exit" xmlns="http://www.w3.org/2000/svg"><path d="M18.985 0C23.951 0 28 3.98 28 8.88v9.58H15.79c-.874 0-1.566.68-1.566 1.54 0 .84.692 1.54 1.567 1.54H28v9.56c0 4.9-4.05 8.9-9.055 8.9h-9.91C4.049 40 0 36.02 0 31.12V8.9C0 3.98 4.07 0 9.055 0h9.93zM33.08 13.1c.6-.62 1.58-.62 2.18-.02l5.84 5.82c.3.3.46.68.46 1.1 0 .4-.16.8-.46 1.08l-5.84 5.82c-.3.3-.7.46-1.08.46-.4 0-.8-.16-1.1-.46-.6-.6-.6-1.58 0-2.18l3.2-3.18H28v-3.08h8.28l-3.2-3.18c-.6-.6-.6-1.58 0-2.18z"/></svg><svg viewBox="0 0 40 40" id="folder" xmlns="http://www.w3.org/2000/svg"><path d="M14.1 0c1.862-.02 3.6.84 4.74 2.3l1.76 2.34c.56.7 1.4 1.12 2.3 1.12h6.14c7.38 0 10.98 3.94 10.96 12.02v9.74C40 35.24 35.24 40 27.5 40H12.48C4.78 40 0 35.24 0 27.5V12.48C0 4.2 3.68 0 10.94 0h3.16zm15.16 23.58H10.74c-.84 0-1.5.66-1.5 1.5 0 .82.66 1.5 1.5 1.5h18.52c.82 0 1.48-.68 1.48-1.5 0-.84-.66-1.5-1.48-1.5z"/></svg><svg viewBox="0 0 40 40" id="graph" xmlns="http://www.w3.org/2000/svg"><path d="M29.338 0C36.14 0 39.98 3.858 40 10.66v18.68C40 36.14 36.14 40 29.338 40H10.66C3.858 40 0 36.14 0 29.34V10.66C0 3.858 3.858 0 10.66 0h18.678zM21 8.26a1.68 1.68 0 00-2.562 1.58v20.38c.102.86.82 1.5 1.66 1.5.862 0 1.58-.64 1.66-1.5V9.84A1.63 1.63 0 0021 8.26zm-9.34 6.56a1.646 1.646 0 00-1.76 0c-.542.34-.84.958-.78 1.58v13.82c.078.86.798 1.5 1.658 1.5.862 0 1.58-.64 1.66-1.5V16.4a1.684 1.684 0 00-.778-1.58zm18.518 7.26a1.677 1.677 0 00-1.778 0c-.542.34-.84.938-.76 1.58v6.56c.08.86.798 1.5 1.66 1.5.84 0 1.558-.64 1.66-1.5v-6.56a1.668 1.668 0 00-.782-1.58z"/></svg><svg viewBox="0 0 40 38" id="heart" xmlns="http://www.w3.org/2000/svg"><path d="M12.56 0c1.26.039 2.48.259 3.662.66h.118c.08.039.14.08.18.119.442.142.86.302 1.26.522l.76.34c.3.16.66.458.86.58.2.118.42.24.6.378A12.528 12.528 0 0127.7 0c1.262 0 2.522.179 3.72.58 7.382 2.4 10.042 10.5 7.82 17.58a25.456 25.456 0 01-6.018 9.619 76.912 76.912 0 01-12.662 9.92l-.5.302-.52-.322a76.186 76.186 0 01-12.738-9.92A25.865 25.865 0 01.78 18.16c-2.26-7.08.4-15.18 7.862-17.622.58-.2 1.178-.34 1.778-.418h.24A11.74 11.74 0 0112.34 0h.22zm17.82 6.32c-.82-.281-1.72.16-2.02 1-.28.84.16 1.76 1 2.059 1.282.48 2.14 1.742 2.14 3.14v.062c-.038.458.1.9.38 1.24.28.34.7.538 1.14.58.82-.022 1.52-.68 1.58-1.522v-.238c.06-2.802-1.638-5.34-4.22-6.32z"/></svg><svg viewBox="0 0 38 40" id="house" xmlns="http://www.w3.org/2000/svg"><path d="M13.27 37.547V31.43a2.837 2.837 0 012.847-2.826h5.748c.755 0 1.48.297 2.014.828.534.53.833 1.249.833 1.998v6.116a2.427 2.427 0 00.713 1.733c.46.461 1.087.72 1.74.72h3.923a6.92 6.92 0 004.886-1.998A6.819 6.819 0 0038 33.156V15.734a4.946 4.946 0 00-1.79-3.805L22.867 1.352a6.195 6.195 0 00-7.897.142L1.934 11.929A4.948 4.948 0 000 15.734v17.404C0 36.928 3.095 40 6.912 40h3.833a2.462 2.462 0 002.47-2.435l.055-.018z"/></svg><svg viewBox="0 0 40 40" id="key" xmlns="http://www.w3.org/2000/svg"><path d="M28.67 0C35.446 0 40 4.756 40 11.834v16.334C40 35.246 35.446 40 28.668 40H11.332C4.554 40 0 35.246 0 28.168V11.834C0 4.756 4.554 0 11.332 0H28.67zM13.682 14.798A5.208 5.208 0 008.48 20a5.209 5.209 0 005.202 5.204c2.344 0 4.308-1.568 4.956-3.704h4.224v2.204a1.5 1.5 0 003 0V21.5h2.66v2.204a1.5 1.5 0 003 0V20a1.5 1.5 0 00-1.5-1.5H18.638c-.648-2.134-2.612-3.702-4.956-3.702zm0 3c1.214 0 2.204.988 2.204 2.204 0 1.214-.99 2.202-2.204 2.202a2.206 2.206 0 01-2.204-2.202c0-1.216.99-2.204 2.204-2.204z"/></svg><svg viewBox="0 0 36 22" id="left-arrow" xmlns="http://www.w3.org/2000/svg"><path d="M17.717 21.82a1.43 1.43 0 00.76-1.255v-8.13H34.53c.811 0 1.469-.643 1.469-1.435s-.658-1.434-1.469-1.434H18.477V1.435c0-.524-.292-1.005-.76-1.255a1.496 1.496 0 00-1.492.04L.685 9.785A1.429 1.429 0 000 11c0 .493.258.95.685 1.215l15.54 9.565c.239.145.511.22.783.22.243 0 .488-.061.71-.18z"/></svg><svg viewBox="0 0 20 24" id="left-sided-triangle" xmlns="http://www.w3.org/2000/svg"><path d="M.738 9.738c.113-.116.54-.612.938-1.02 2.33-2.566 8.409-6.766 11.59-8.048.484-.206 1.705-.642 2.358-.67.625 0 1.222.144 1.79.436a3.748 3.748 0 011.59 1.808c.201.526.513 2.1.513 2.128.311 1.722.483 4.52.483 7.612 0 2.946-.172 5.63-.427 7.378-.029.028-.34 1.984-.682 2.654C18.266 23.24 17.044 24 15.737 24h-.113c-.851-.03-2.642-.79-2.642-.818-3.01-1.284-8.949-5.278-11.336-7.932 0 0-.672-.682-.964-1.108A3.567 3.567 0 010 12.014c0-.846.255-1.634.738-2.276z"/></svg><svg viewBox="0 0 40 40" id="letter-i" xmlns="http://www.w3.org/2000/svg"><path d="M28.68 0C35.46 0 40 4.76 40 11.84v16.342C40 35.242 35.46 40 28.68 40H11.34C4.56 40 0 35.242 0 28.182V11.84C0 4.76 4.56 0 11.34 0h17.34zm-8.7 16.962c-.96 0-1.74.798-1.74 1.76v8.84c0 .96.78 1.74 1.74 1.74.98 0 1.76-.78 1.76-1.74v-8.84c0-.962-.78-1.76-1.76-1.76zm.04-6.34c-.98 0-1.76.78-1.76 1.76 0 .958.78 1.74 1.72 1.74 1 0 1.78-.782 1.78-1.74 0-.98-.78-1.76-1.74-1.76z"/></svg><svg viewBox="0 0 34 40" id="lock" xmlns="http://www.w3.org/2000/svg"><path d="M16.97 0c6.137 0 11.075 4.83 11.075 10.792v3.067C31.49 14.934 34 18.052 34 21.777v9.874C34 36.26 30.177 40 25.464 40H8.538C3.823 40 0 36.262 0 31.65v-9.873c0-3.725 2.512-6.843 5.955-7.918v-3.067C5.975 4.83 10.913 0 16.969 0zm.02 22.769c-.976 0-1.768.775-1.768 1.729v4.412c0 .974.792 1.749 1.768 1.749.996 0 1.788-.775 1.788-1.75v-4.411c0-.954-.792-1.73-1.788-1.73zm.02-19.29c-4.125 0-7.479 3.259-7.499 7.273v2.675H24.49v-2.635c0-4.035-3.353-7.314-7.479-7.314z"/></svg><svg viewBox="0 0 34 40" id="lock-opened" xmlns="http://www.w3.org/2000/svg"><path d="M16.957 0c4.735 0 8.92 2.924 10.465 7.256.162.437.122.914-.082 1.332a1.693 1.693 0 01-1.016.876 1.811 1.811 0 01-2.276-1.073c-1.036-2.944-3.88-4.912-7.05-4.912-4.148 0-7.5 3.262-7.521 7.256v2.683l-.025.004h16.01c4.715 0 8.538 3.74 8.538 8.351v9.876C34 36.26 30.177 40 25.462 40H8.536C3.823 40 0 36.26 0 31.649v-9.876c0-3.793 2.601-6.96 6.142-7.977l-.222.026v-3.048C5.96 4.833 10.901 0 16.957 0zm.033 22.765c-.976 0-1.768.775-1.768 1.73v4.413c0 .974.792 1.749 1.768 1.749.996 0 1.788-.775 1.788-1.75v-4.412c0-.955-.792-1.73-1.788-1.73z"/></svg><svg viewBox="0 0 36 36" id="low-volume" xmlns="http://www.w3.org/2000/svg"><path d="M19.538 0c2.09 0 4.038 1.503 4.741 3.912.258 1.007.363 2.016.464 2.99l.095.884c.36 2.952.36 17.457 0 20.43l-.095.917c-.09.926-.182 1.883-.45 2.905C23.59 34.441 21.716 36 19.587 36c-.067 0-.134 0-.21-.002-1.175 0-2.454-.722-3.178-1.35l-7.062-5.882H5.51c-2.798 0-4.848-2.025-5.22-5.157-.428-3.133-.344-8.508 0-11.355.406-2.965 2.552-5.02 5.22-5.02h3.626l6.927-5.795C16.9.713 18.373-.004 19.538 0zm10.757 6.517a1.82 1.82 0 012.558.472C34.88 9.976 36 13.886 36 18c0 4.114-1.12 8.024-3.147 11.01a1.83 1.83 0 01-1.51.808c-.376 0-.74-.116-1.048-.335a1.91 1.91 0 01-.46-2.615c1.607-2.366 2.49-5.516 2.49-8.868 0-3.354-.883-6.502-2.49-8.868a1.91 1.91 0 01.46-2.615z"/></svg><svg viewBox="0 0 40 36" id="mail" xmlns="http://www.w3.org/2000/svg"><path d="M29.878 0c2.682 0 5.262 1.06 7.16 2.962A10.075 10.075 0 0140 10.1v15.8C40 31.48 35.46 36 29.878 36H10.12C4.538 36 0 31.48 0 25.9V10.1C0 4.52 4.518 0 10.12 0h19.758zm2.262 10.4a1.52 1.52 0 00-1.122.4L22 18a3.133 3.133 0 01-4 0l-9-7.2c-.622-.46-1.482-.4-2 .14-.54.54-.6 1.4-.142 2l.262.26 9.1 7.1a6.287 6.287 0 003.9 1.36c1.418 0 2.8-.48 3.918-1.36l9.022-7.22.16-.16c.478-.58.478-1.42-.022-2a1.682 1.682 0 00-1.058-.52z"/></svg><svg viewBox="0 0 40 40" id="menu-blocks" xmlns="http://www.w3.org/2000/svg"><path d="M11.84 22.94c2.82 0 5.08 2.281 5.08 5.121v6.818c0 2.82-2.26 5.12-5.08 5.12H5.08C2.28 40 0 37.7 0 34.88v-6.818c0-2.84 2.28-5.122 5.08-5.122h6.76zm23.08 0c2.8 0 5.08 2.281 5.08 5.121v6.818C40 37.7 37.72 40 34.92 40h-6.76c-2.82 0-5.08-2.3-5.08-5.12v-6.818c0-2.84 2.26-5.122 5.08-5.122h6.76zM11.84 0c2.82 0 5.08 2.3 5.08 5.122v6.818c0 2.84-2.26 5.12-5.08 5.12H5.08c-2.8 0-5.08-2.28-5.08-5.12V5.122C0 2.3 2.28 0 5.08 0h6.76zm23.08 0C37.72 0 40 2.3 40 5.122v6.818c0 2.84-2.28 5.12-5.08 5.12h-6.76c-2.82 0-5.08-2.28-5.08-5.12V5.122C23.08 2.3 25.34 0 28.16 0h6.76z"/></svg><svg viewBox="0 0 34 40" id="mic" xmlns="http://www.w3.org/2000/svg"><path d="M32.063 15.652c1.069 0 1.937.856 1.937 1.914 0 8.607-6.599 15.715-15.062 16.67v3.85A1.926 1.926 0 0117.001 40a1.925 1.925 0 01-1.938-1.913v-3.852C6.6 33.282 0 26.174 0 17.566c0-1.057.868-1.913 1.937-1.913 1.07 0 1.938.856 1.938 1.914 0 7.146 5.888 12.96 13.126 12.96 7.236 0 13.124-5.814 13.124-12.96 0-1.058.868-1.914 1.938-1.914zM17.349 0c3.99 0 7.351 2.648 8.38 6.262a.776.776 0 01-.752.987h-2.265c-.684 0-1.24.547-1.24 1.223 0 .679.556 1.226 1.24 1.226h2.089c.692 0 1.253.553 1.253 1.236 0 .683-.561 1.236-1.253 1.236h-2.089c-.684 0-1.24.55-1.24 1.226 0 .676.556 1.225 1.24 1.225h2.089c.692 0 1.253.553 1.253 1.238 0 .68-.561 1.234-1.253 1.234h-2.089c-.684 0-1.24.549-1.24 1.226 0 .675.556 1.223 1.24 1.223h2.155c.53 0 .91.512.744 1.01-1.15 3.417-4.412 5.881-8.262 5.881h-.699c-4.807 0-8.703-3.848-8.703-8.592V8.594C7.947 3.847 11.843 0 16.65 0h.7z"/></svg><svg viewBox="0 0 34 40" id="mic-2" xmlns="http://www.w3.org/2000/svg"><path d="M32.063 15.652c1.069 0 1.937.856 1.937 1.914 0 8.607-6.599 15.715-15.062 16.67v3.85A1.926 1.926 0 0117.001 40a1.925 1.925 0 01-1.938-1.913v-3.852C6.6 33.282 0 26.174 0 17.566c0-1.057.868-1.913 1.937-1.913 1.07 0 1.938.856 1.938 1.914 0 7.146 5.888 12.96 13.126 12.96 7.236 0 13.124-5.814 13.124-12.96 0-1.058.868-1.913 1.938-1.913zM17.349 0c4.807 0 8.705 3.847 8.705 8.594v9.247c0 4.744-3.898 8.594-8.704 8.594h-.7c-4.807 0-8.703-3.85-8.703-8.594V8.594C7.947 3.847 11.843 0 16.65 0h.7z"/></svg><svg viewBox="0 0 34 40" id="minus-paper" xmlns="http://www.w3.org/2000/svg"><path d="M19.505 0c.495 0 .91.42.91.92v6.44c0 3.66 2.99 6.66 6.615 6.68 1.485 0 2.693.02 3.584.02.614 0 1.643-.02 2.475-.02.515 0 .911.4.911.9v16.08c0 4.96-3.98 8.98-8.91 8.98H9.346C4.178 40 0 35.78 0 30.58V9.02C0 4.06 4 0 8.93 0h10.575zm-5.327 17.44c-.574-.6-1.505-.6-2.079 0a1.495 1.495 0 000 2.1l2.416 2.44-2.416 2.44a1.495 1.495 0 000 2.1c.277.3.653.44 1.03.44.376 0 .772-.14 1.05-.44l2.415-2.44 2.416 2.44c.297.3.673.44 1.05.44.376 0 .752-.14 1.049-.44.574-.58.574-1.52 0-2.1l-2.416-2.44 2.416-2.44c.574-.58.574-1.52 0-2.1a1.45 1.45 0 00-2.1 0l-2.415 2.44-2.416-2.44zm9.114-15.628c0-.862 1.036-1.29 1.626-.668 2.143 2.248 5.883 6.178 7.974 8.374.577.606.155 1.612-.68 1.614-1.628.006-3.545 0-4.926-.014-2.19 0-3.994-1.822-3.994-4.034V1.812z"/></svg><svg viewBox="0 0 40 40" id="more" xmlns="http://www.w3.org/2000/svg"><path d="M28.68 0C35.46 0 40 4.76 40 11.84v16.34C40 35.24 35.46 40 28.68 40H11.34C4.56 40 0 35.24 0 28.18V11.84C0 4.76 4.56 0 11.34 0h17.34zm.28 17.602c-1.32 0-2.4 1.078-2.4 2.398s1.08 2.4 2.4 2.4a2.39 2.39 0 002.38-2.4c0-1.32-1.06-2.398-2.38-2.398zm-8.96 0c-1.32 0-2.4 1.078-2.4 2.398s1.08 2.4 2.4 2.4c1.32 0 2.4-1.08 2.4-2.4 0-1.32-1.08-2.398-2.4-2.398zm-8.96 0c-1.32 0-2.4 1.078-2.4 2.398s1.08 2.4 2.4 2.4c1.32 0 2.4-1.08 2.4-2.4 0-1.32-1.08-2.398-2.4-2.398z"/></svg><svg viewBox="0 0 38 38" id="muted" xmlns="http://www.w3.org/2000/svg"><path d="M34.84.542c.72-.72 1.868-.724 2.615-.002.726.726.726 1.899.002 2.623L3.16 37.458c-.341.34-.832.542-1.31.542-.469 0-.93-.19-1.303-.536-.728-.755-.728-1.905-.006-2.627l5.653-5.652h-.057c-2.818 0-4.87-1.99-5.251-5.081-.426-3.09-.341-8.383 0-11.199.4-2.921 2.562-4.93 5.25-4.93h3.661l6.987-5.716c.85-.72 2.353-1.4 3.515-1.419 2.117 0 4.065 1.48 4.764 3.851.275.997.383 1.99.468 2.945l.167 1.353c.027.207.053.406.074.618L34.84.542zm-9.865 20.514c.777.197.93 1.313.917 2.19-.036 2.544-.121 4.314-.256 5.408l-.096.902c-.09.912-.184 1.857-.455 2.864-.705 2.367-2.596 3.904-4.745 3.904-.07 0-.14 0-.212-.002-1.187 0-2.475-.711-3.205-1.332l-2.602-2.013c-.989-.734-.697-1.907-.142-2.587.252-.308 2.196-2.122 4.268-4.035l.832-.768c2.217-2.043 4.343-3.987 4.483-4.124.285-.28.925-.48 1.213-.407z"/></svg><svg viewBox="0 0 40 40" id="navigation" xmlns="http://www.w3.org/2000/svg"><path d="M20 0c11.04 0 20 8.96 20 20 0 11.06-8.96 20-20 20C8.94 40 0 31.06 0 20 0 8.96 8.94 0 20 0zm7.7 13.42c.22-.7-.42-1.36-1.12-1.14l-10.24 3.2c-.42.14-.76.46-.88.88l-3.2 10.26c-.22.68.44 1.34 1.12 1.12l10.2-3.2c.42-.12.76-.46.88-.88l3.24-10.24z"/></svg><svg viewBox="0 0 40 34" id="not-visible" xmlns="http://www.w3.org/2000/svg"><path d="M34.34.428a1.463 1.463 0 012.07 0 1.46 1.46 0 010 2.087L32.857 6.1c2.83 2.6 5.23 6.104 7.025 10.318a1.5 1.5 0 010 1.161c-4.176 9.806-11.611 15.674-19.886 15.674h-.02c-3.765 0-7.376-1.24-10.557-3.505l-3.785 3.82A1.44 1.44 0 014.6 34a1.41 1.41 0 01-1.034-.433 1.472 1.472 0 01-.176-1.851l.059-.079L32.31 2.515a.524.524 0 00.098-.118.521.521 0 00.097-.118L34.341.43zM20.004.771c2.79 0 5.503.67 8 1.93l-6.517 6.576a9.03 9.03 0 00-1.483-.138c-4.313 0-7.806 3.525-7.806 7.876 0 .512.058 1.024.136 1.497l-7.22 7.285c-1.952-2.284-3.65-5.04-4.996-8.21a1.5 1.5 0 010-1.163C4.293 6.62 11.728.771 19.983.771h.02zm6.434 11.806l-2.127 2.146c.351.67.547 1.457.547 2.284 0 2.698-2.186 4.903-4.86 4.903-.82 0-1.6-.197-2.263-.551l-2.128 2.146a7.837 7.837 0 004.391 1.359c4.294 0 7.787-3.525 7.787-7.857 0-1.634-.508-3.17-1.347-4.43z"/></svg><svg viewBox="0 0 40 40" id="okay" xmlns="http://www.w3.org/2000/svg"><path d="M28.68 0C35.46 0 40 4.76 40 11.84v16.342C40 35.24 35.46 40 28.68 40H11.34C4.56 40 0 35.24 0 28.182V11.84C0 4.76 4.56 0 11.34 0h17.34zm-.32 14c-.68-.68-1.8-.68-2.48 0l-8.26 8.26-3.5-3.5c-.68-.68-1.8-.68-2.48 0-.68.68-.68 1.78 0 2.48l4.76 4.74c.34.34.78.5 1.22.5.46 0 .9-.16 1.24-.5l9.5-9.5c.68-.68.68-1.78 0-2.48z"/></svg><svg viewBox="0 0 36 40" id="paper" xmlns="http://www.w3.org/2000/svg"><path d="M26.382 0C32.56 0 36 3.56 36 9.66v20.66c0 6.2-3.44 9.68-9.618 9.68H9.62C3.54 40 0 36.52 0 30.32V9.66C0 3.56 3.54 0 9.62 0h16.762zM10.16 27.48c-.6-.06-1.18.22-1.5.74-.32.5-.32 1.16 0 1.68.32.5.9.8 1.5.72h15.68c.798-.08 1.4-.762 1.4-1.56 0-.82-.602-1.5-1.4-1.58H10.16zm15.68-9.122H10.16a1.56 1.56 0 000 3.122h15.68a1.562 1.562 0 000-3.122zM16.138 9.3H10.16v.02a1.56 1.56 0 000 3.12h5.978c.862 0 1.562-.7 1.562-1.582C17.7 10 17 9.3 16.138 9.3z"/></svg><svg viewBox="0 0 40 40" id="pencil" xmlns="http://www.w3.org/2000/svg"><path d="M29.33.02c2.878-.18 5.715.82 7.852 2.778a10.762 10.762 0 012.798 7.872v18.66a10.75 10.75 0 01-2.777 7.872 10.692 10.692 0 01-7.872 2.777H10.67a10.663 10.663 0 01-7.872-2.777A10.664 10.664 0 01.02 29.33V10.67c-.18-2.897.82-5.734 2.778-7.872A10.664 10.664 0 0110.67.02h18.66zm-.519 9.131a3.16 3.16 0 00-4.475 0l-1.339 1.359c-.2.2-.2.54 0 .74l.11.107.49.49.996.99 1.208 1.208c.252.253.42.423.433.44.22.24.36.56.36.92 0 .719-.58 1.318-1.32 1.318-.339 0-.659-.14-.878-.36l-3.337-3.316a.435.435 0 00-.6 0l-9.53 9.53a3.598 3.598 0 00-1.058 2.478l-.12 4.735c0 .26.08.5.26.68.18.179.419.279.679.279h4.695c.959 0 1.878-.38 2.577-1.059l13.446-13.486c1.22-1.239 1.22-3.237 0-4.456l-2.597-2.597z"/></svg><svg viewBox="0 0 36 36" id="percil-remove" xmlns="http://www.w3.org/2000/svg"><path d="M33.98 31.907c1.114 0 2.02.918 2.02 2.046C36 35.084 35.094 36 33.98 36H22.56c-1.115 0-2.021-.916-2.021-2.047 0-1.129.906-2.047 2.02-2.047h11.42zM26.06 1.398l2.95 2.344c1.21.946 2.016 2.193 2.292 3.504.318 1.443-.021 2.86-.976 4.085L12.753 34.056a4.209 4.209 0 01-3.269 1.634l-7.003.086a.8.8 0 01-.785-.624L.104 28.251c-.276-1.268 0-2.58.806-3.59L13.368 8.535a.626.626 0 01.85-.108l5.241 4.171c.34.28.807.43 1.295.366 1.04-.13 1.74-1.075 1.634-2.086a2.1 2.1 0 00-.658-1.268l-5.093-4.085a.757.757 0 01-.128-1.051l1.974-2.56c1.825-2.344 5.009-2.56 7.577-.517z"/></svg><svg viewBox="0 0 38 38" id="phone" xmlns="http://www.w3.org/2000/svg"><path fill-rule="evenodd" clip-rule="evenodd" d="M18.064 19.945c7.978 7.976 9.788-1.252 14.867 3.825 4.898 4.896 7.712 5.876 1.508 12.08-.778.624-5.716 8.139-23.07-9.21C-5.987 9.287 1.523 4.344 2.148 3.567c6.22-6.22 7.184-3.39 12.081 1.507 5.08 5.078-4.144 6.894 3.835 14.87z"/></svg><svg viewBox="0 0 40 40" id="picture" xmlns="http://www.w3.org/2000/svg"><path d="M28.668 0C35.446 0 40 4.756 40 11.833v16.334C40 35.244 35.446 40 28.666 40H11.332C4.554 40 0 35.244 0 28.167V11.833C0 4.756 4.554 0 11.332 0h17.336zm2.205 21.1c-2.144-1.337-3.799.54-4.245 1.141-.43.58-.8 1.22-1.191 1.86-.953 1.58-2.045 3.4-3.936 4.458-2.747 1.521-4.833.12-6.333-.9-.563-.38-1.11-.738-1.655-.978-1.344-.58-2.552.08-4.346 2.36a559.752 559.752 0 01-2.82 3.547c-.565.704-.43 1.79.332 2.26C7.896 35.598 9.38 36 11.057 36h16.856a9.05 9.05 0 002.813-.427c2.048-.669 3.673-2.2 4.521-4.223.716-1.7 1.064-3.765.395-5.482a4.511 4.511 0 00-1.026-1.567c-1.229-1.22-2.377-2.359-3.743-3.2zM12.998 8A5.004 5.004 0 008 13c0 2.757 2.24 5 4.998 5a5.005 5.005 0 004.997-5c0-2.757-2.242-5-4.997-5z"/></svg><svg viewBox="0 0 40 40" id="play" xmlns="http://www.w3.org/2000/svg"><path d="M20 0c11.023 0 20 8.973 20 20.012C40 31.027 31.023 40 20 40S0 31.027 0 20.012C0 8.972 8.977 0 20 0zm-2.278 12.06c-.425 0-.83.096-1.216.29-.483.27-.869.694-1.081 1.196-.135.347-.348 1.389-.348 1.408-.212 1.139-.328 2.991-.328 5.036 0 1.951.116 3.724.29 4.882.019.02.231 1.312.463 1.756a2.43 2.43 0 002.143 1.312h.077c.58-.02 1.795-.52 1.795-.54 2.047-.85 6.082-3.493 7.703-5.248l.116-.116c.212-.213.483-.54.54-.618.31-.405.464-.907.464-1.406 0-.562-.174-1.083-.502-1.507-.077-.078-.367-.406-.637-.676-1.583-1.698-5.715-4.476-7.877-5.325-.328-.133-1.158-.425-1.602-.444z"/></svg><svg viewBox="0 0 40 40" id="plus" xmlns="http://www.w3.org/2000/svg"><path d="M29.32 0C36.12 0 40 3.84 40 10.66v18.68C40 36.12 36.14 40 29.34 40H10.66C3.84 40 0 36.12 0 29.34V10.66C0 3.84 3.84 0 10.66 0h18.66zm-9.34 11.02c-.92 0-1.66.74-1.66 1.66v5.64h-5.66c-.44 0-.86.18-1.18.48-.3.32-.48.738-.48 1.18 0 .92.74 1.66 1.66 1.68h5.66v5.66c0 .92.74 1.66 1.66 1.66.92 0 1.66-.74 1.66-1.66v-5.66h5.68c.92-.02 1.66-.76 1.66-1.68 0-.92-.74-1.66-1.66-1.66h-5.68v-5.64c0-.92-.74-1.66-1.66-1.66z"/></svg><svg viewBox="0 0 34 40" id="plus-paper" xmlns="http://www.w3.org/2000/svg"><path d="M19.505 0c.515 0 .91.42.91.92v6.44c0 3.66 2.99 6.66 6.615 6.68 1.505 0 2.693.02 3.604.02.613 0 1.623-.02 2.475-.02.495 0 .891.4.891.9v16.08c0 4.96-3.98 8.98-8.91 8.98H9.346C4.198 40 0 35.78 0 30.58V9.02C0 4.06 4 0 8.93 0h10.575zm-2.871 15.54c-.812 0-1.486.66-1.486 1.48v3.46h-3.405a1.49 1.49 0 000 2.98h3.405v3.46c0 .82.674 1.48 1.486 1.48a1.47 1.47 0 001.465-1.48v-3.46h3.426a1.49 1.49 0 000-2.98h-3.426v-3.46c0-.82-.654-1.48-1.465-1.48zm6.665-13.728c0-.862 1.036-1.29 1.628-.668l7.972 8.374c.578.606.155 1.612-.679 1.614-1.628.006-3.546 0-4.927-.014-2.19 0-3.994-1.822-3.994-4.034V1.812z"/></svg><svg viewBox="0 0 40 38" id="plus-user" xmlns="http://www.w3.org/2000/svg"><path d="M15 25.03c8.134 0 15 1.339 15 6.508C30 36.706 23.09 38 15 38c-8.134 0-15-1.34-15-6.507 0-5.169 6.908-6.463 15-6.463zM33.998 10c.992 0 1.798.819 1.798 1.823v2.353h2.406c.99 0 1.798.819 1.798 1.823s-.807 1.823-1.798 1.823h-2.406v2.355c0 1.004-.806 1.823-1.798 1.823-.99 0-1.798-.819-1.798-1.823v-2.355h-2.402C28.806 17.822 28 17.003 28 16s.805-1.823 1.798-1.823H32.2v-2.353c0-1.004.807-1.823 1.798-1.823zM15 0c5.51 0 9.925 4.473 9.925 10.054 0 5.58-4.416 10.053-9.925 10.053-5.51 0-9.925-4.473-9.925-10.053C5.075 4.474 9.49 0 15 0z"/></svg><svg viewBox="0 0 44 36" id="qr-scan" xmlns="http://www.w3.org/2000/svg"><path d="M42.478 18.082c.84 0 1.522.67 1.522 1.495 0 .824-.682 1.49-1.522 1.49h-2.124v7.12c0 4.31-3.574 7.813-7.966 7.813h-3.186c-.842 0-1.524-.669-1.524-1.494 0-.824.682-1.493 1.524-1.493h3.186c2.714 0 4.922-2.163 4.922-4.826v-7.12h-5.246v1.983c.02 2.481-2.01 4.509-4.54 4.532H16.476c-2.528-.023-4.558-2.05-4.538-4.532v-1.983H6.692v7.127c0 2.654 2.202 4.813 4.908 4.817l3.256.002c.84 0 1.522.669 1.522 1.493A1.51 1.51 0 0114.854 36l-3.258-.002c-4.382-.004-7.95-3.505-7.95-7.804v-7.127H1.524c-.84 0-1.524-.666-1.524-1.49 0-.826.684-1.495 1.524-1.495h40.954zM27.525 7.486c1.21 0 2.372.477 3.218 1.326a4.533 4.533 0 011.322 3.207v2.49a.56.56 0 01-.546.538h-19.04a.556.556 0 01-.54-.538v-2.49c-.022-2.481 2.01-4.507 4.538-4.533h11.048zM32.387.001c4.394 0 7.966 3.502 7.966 7.811v3.713c0 .823-.68 1.494-1.522 1.494-.84 0-1.522-.67-1.522-1.494V7.812c0-2.661-2.208-4.826-4.922-4.826h-3.186c-.84 0-1.522-.667-1.522-1.491 0-.826.682-1.494 1.522-1.494h3.186zM14.855 0c.84 0 1.522.669 1.522 1.494 0 .824-.68 1.493-1.522 1.493l-3.258.002c-2.704.004-4.904 2.163-4.904 4.817v3.718c0 .824-.684 1.495-1.524 1.495s-1.522-.671-1.522-1.495V7.806c0-4.3 3.566-7.8 7.948-7.804L14.855 0z"/></svg><svg viewBox="0 0 41 41" id="question-mark" xmlns="http://www.w3.org/2000/svg"><path d="M20.5.5c11.06 0 20 8.962 20 20 0 11.042-8.94 20-20 20-11.04 0-20-8.958-20-20 0-11.038 8.96-20 20-20zm0 25.862c-.96 0-1.74.78-1.74 1.74s.78 1.76 1.76 1.76c.96 0 1.74-.8 1.74-1.76s-.78-1.74-1.76-1.74z"/><path d="M20.486 24.241c-.451 0-.78-.06-.988-.182a.782.782 0 01-.39-.494 4.79 4.79 0 01-.052-.728v-1.69c0-.416.095-.745.286-.988a2.25 2.25 0 01.728-.598 9.87 9.87 0 01.962-.468c.346-.156.667-.33.962-.52a2.4 2.4 0 00.754-.806c.19-.33.286-.763.286-1.3 0-.797-.226-1.404-.676-1.82-.434-.433-1.101-.65-2.002-.65-.416 0-.789.07-1.118.208-.33.121-.607.295-.832.52-.208.208-.364.46-.468.754-.104.33-.234.58-.39.754a.837.837 0 01-.546.312c-.208.035-.503-.009-.884-.13-.364-.156-.633-.303-.806-.442a.822.822 0 01-.312-.52c-.018-.208.026-.477.13-.806.052-.225.156-.485.312-.78a5.33 5.33 0 01.624-.91 4.56 4.56 0 011.014-.884 5.146 5.146 0 011.43-.65c.537-.173 1.152-.26 1.846-.26 1.109 0 2.08.225 2.912.676a4.6 4.6 0 011.924 1.846c.468.78.702 1.69.702 2.73 0 .624-.087 1.187-.26 1.69a4.27 4.27 0 01-.728 1.326 5.33 5.33 0 01-.988.988 6.303 6.303 0 01-2.106 1.066l.156-.286v1.742c0 .243-.026.468-.078.676-.052.19-.182.347-.39.468-.208.104-.546.156-1.014.156z"/></svg><svg viewBox="0 0 40 40" id="radial-graph" xmlns="http://www.w3.org/2000/svg"><path d="M13.912 5.919a2.203 2.203 0 012.39 1.19c.107.161.193.334.255.516.271 4.194.561 8.316.833 12.439-.006.428.06.855.199 1.261a2.049 2.049 0 002.01 1.262l13.313-.853.09.036.243.017c.481.062.93.281 1.27.627.398.403.616.945.607 1.506-.525 7.644-6.13 14.031-13.756 15.676-7.627 1.646-15.446-1.845-19.19-8.568a16.43 16.43 0 01-2.047-6.273 11.91 11.91 0 01-.127-1.972c.025-8.129 5.813-15.145 13.91-16.864zM21.827.002c9.142.273 16.782 6.91 18.166 15.78a.488.488 0 010 .16l-.002.25c-.03.33-.166.646-.392.9a1.62 1.62 0 01-1.109.537l-15.359 1.013-.253.005a1.829 1.829 0 01-1.134-.465 1.762 1.762 0 01-.587-1.317L20.125 1.78v-.25c.018-.423.208-.823.528-1.11.32-.286.742-.437 1.174-.417z"/></svg><svg viewBox="0 0 36 22" id="right-arrow" xmlns="http://www.w3.org/2000/svg"><path d="M18.283.18a1.43 1.43 0 00-.76 1.255v8.13H1.47C.658 9.565 0 10.208 0 11s.658 1.434 1.469 1.434h16.054v8.131c0 .524.292 1.005.76 1.255.468.255 1.04.237 1.492-.04l15.54-9.566c.427-.263.685-.72.685-1.214 0-.493-.258-.95-.685-1.215L19.775.22a1.505 1.505 0 00-1.492-.04z"/></svg><svg viewBox="0 0 34 40" id="ring" xmlns="http://www.w3.org/2000/svg"><path d="M12.926 34.456c1-.212 7.093-.212 8.092 0 .855.197 1.78.658 1.78 1.666-.05.959-.613 1.809-1.39 2.348a7.27 7.27 0 01-3.427 1.463 7.59 7.59 0 01-2.015 0 7.235 7.235 0 01-3.427-1.465c-.78-.538-1.342-1.388-1.392-2.346 0-1.008.925-1.469 1.78-1.666zM17.09 0c4.16 0 8.41 1.974 10.935 5.25 1.638 2.108 2.39 4.215 2.39 7.49v.853c0 2.512.663 3.992 2.124 5.698C33.646 20.548 34 22.161 34 23.912c0 1.748-.575 3.408-1.725 4.756-1.507 1.615-3.632 2.647-5.8 2.826-3.143.268-6.288.494-9.474.494-3.188 0-6.33-.136-9.473-.494-2.171-.18-4.296-1.21-5.8-2.826C.575 27.32 0 25.66 0 23.912c0-1.75.356-3.364 1.461-4.62 1.507-1.707 2.127-3.188 2.127-5.7v-.851c0-3.364.839-5.564 2.566-7.717C8.722 1.884 12.839 0 16.912 0h.178z"/></svg><svg viewBox="0 0 40 32" id="road" xmlns="http://www.w3.org/2000/svg"><path d="M20.872 0c.65 0 1.178.513 1.178 1.146v4.81c0 .771.658 1.41 1.451 1.41.812 0 1.45-.639 1.45-1.41v-4.81c0-.633.529-1.146 1.18-1.146h6.306C36.615 0 40 3.288 40 7.347v4.735c0 .376-.155.733-.425.996a1.47 1.47 0 01-1.026.414c-1.431 0-2.592 1.127-2.592 2.499 0 1.38 1.148 2.503 2.565 2.518.8.007 1.478.548 1.478 1.324v4.82C40 28.71 36.615 32 32.437 32h-6.305c-.652 0-1.18-.513-1.18-1.146v-4.059c0-.79-.639-1.41-1.451-1.41-.793 0-1.45.62-1.45 1.41v4.059c0 .633-.529 1.146-1.179 1.146H7.562C3.405 32 0 28.712 0 24.653v-4.82c0-.776.679-1.317 1.478-1.324 1.42-.015 2.565-1.137 2.565-2.518 0-1.335-1.122-2.35-2.592-2.35a1.47 1.47 0 01-1.025-.413A1.388 1.388 0 010 12.233V7.365C0 3.315 3.412 0 7.582 0h13.29zm2.629 11.406c-.793 0-1.45.639-1.45 1.409v7.516c0 .77.657 1.41 1.45 1.41.812 0 1.45-.64 1.45-1.41v-7.516c0-.77-.638-1.41-1.45-1.41z"/></svg><svg viewBox="0 0 40 40" id="round-clock" xmlns="http://www.w3.org/2000/svg"><path d="M20 0c11.06 0 20 8.96 20 20 0 11.06-8.94 20-20 20C8.96 40 0 31.06 0 20 0 8.96 8.96 0 20 0zm-.7 9.86c-.82 0-1.5.66-1.5 1.5v10.1c0 .52.28 1 .74 1.28l7.84 4.68c.24.14.5.22.78.22.5 0 1-.26 1.28-.74.42-.7.2-1.62-.52-2.06L20.8 20.6v-9.24c0-.84-.68-1.5-1.5-1.5z"/></svg><svg viewBox="0 0 40 36" id="round-line-line-round" xmlns="http://www.w3.org/2000/svg"><path d="M33.122 22.04c3.8 0 6.878 3.025 6.878 6.758 0 3.732-3.078 6.758-6.878 6.758-3.797 0-6.878-3.026-6.878-6.758 0-3.733 3.08-6.759 6.878-6.759zm-16.955 3.876c1.664 0 3.015 1.327 3.015 2.963 0 1.633-1.351 2.962-3.015 2.962H3.016C1.35 31.841 0 30.511 0 28.88c0-1.636 1.351-2.963 3.016-2.963h13.15zM6.877 0c3.8 0 6.878 3.026 6.878 6.757 0 3.734-3.077 6.76-6.877 6.76C3.08 13.516 0 10.49 0 6.756 0 3.026 3.08 0 6.878 0zm30.11 3.797c1.662 0 3.013 1.327 3.013 2.96 0 1.635-1.351 2.963-3.013 2.963H23.836c-1.665 0-3.016-1.328-3.016-2.963 0-1.633 1.351-2.96 3.016-2.96h13.15z"/></svg><svg viewBox="0 0 40 40" id="rounded-left-arrow" xmlns="http://www.w3.org/2000/svg"><path d="M20 0l.56.008C31.34.304 40 9.148 40 20c0 11.02-8.96 20-20 20C8.98 40 0 31.02 0 20 0 8.96 8.98 0 20 0zm3.96 12c-.6-.6-1.54-.6-2.12 0l-6.98 6.94a1.499 1.499 0 000 2.12L21.84 28c.28.3.66.44 1.04.44a1.49 1.49 0 001.06-2.56L18.04 20l5.9-5.88c.6-.58.6-1.54.02-2.12z"/></svg><svg viewBox="0 0 24 20" id="rounded-triangle" xmlns="http://www.w3.org/2000/svg"><path d="M14.262.738c.116.113.612.54 1.02.938 2.566 2.33 6.766 8.409 8.048 11.59.206.484.642 1.705.67 2.358 0 .625-.144 1.222-.436 1.79a3.748 3.748 0 01-1.808 1.59c-.526.201-2.1.513-2.128.513-1.722.311-4.52.483-7.612.483-2.946 0-5.63-.172-7.378-.427-.028-.029-1.984-.34-2.654-.682C.76 18.266 0 17.044 0 15.737v-.113c.03-.851.79-2.642.818-2.642C2.102 9.972 6.096 4.033 8.75 1.646c0 0 .682-.672 1.108-.964A3.567 3.567 0 0111.986 0a3.75 3.75 0 012.276.738z"/></svg><svg viewBox="0 0 40 40" id="rounded-up-arrow" xmlns="http://www.w3.org/2000/svg"><path d="M20 0c11.04 0 20 8.98 20 20l-.008.56C39.696 31.34 30.852 40 20 40 8.98 40 0 31.04 0 20 0 8.98 8.98 0 20 0zm0 14.42c-.4 0-.78.16-1.06.44L12 21.84c-.3.28-.44.66-.44 1.04a1.49 1.49 0 002.56 1.06l5.88-5.9 5.88 5.9c.58.6 1.54.6 2.12.02.6-.6.6-1.54 0-2.12l-6.94-6.98c-.28-.28-.66-.44-1.06-.44z"/></svg><svg viewBox="0 0 34 40" id="safety" xmlns="http://www.w3.org/2000/svg"><path d="M18.142.2l13.274 4.453c1.486.496 2.491 1.861 2.5 3.391L34 21.325c.026 4.027-1.442 7.931-4.13 10.99-1.236 1.405-2.82 2.611-4.844 3.69l-7.136 3.814c-.224.118-.47.179-.717.181a1.527 1.527 0 01-.717-.173l-7.202-3.726c-2.046-1.061-3.644-2.25-4.893-3.634C1.63 29.439.111 25.552.085 21.519L0 8.248C-.008 6.716.979 5.34 2.457 4.826L15.68.213a3.777 3.777 0 012.46-.014zm6.348 14.237a1.54 1.54 0 00-2.137.012l-6.737 6.64-2.758-2.65a1.54 1.54 0 00-2.136.013 1.442 1.442 0 00.014 2.079l3.831 3.687a1.52 1.52 0 001.071.424 1.52 1.52 0 001.065-.438l7.799-7.688a1.444 1.444 0 00-.012-2.079z"/></svg><svg viewBox="0 0 40 40" id="search" xmlns="http://www.w3.org/2000/svg"><path d="M31.241 31.309a1.972 1.972 0 012.786 0l5.109 4.124h.089a2.696 2.696 0 010 3.783 2.627 2.627 0 01-3.744 0l-4.24-4.86-.16-.18a2.167 2.167 0 01.16-2.867zM17.155 0a17.06 17.06 0 0112.13 5.079 17.435 17.435 0 015.026 12.26c0 9.577-7.681 17.34-17.156 17.34C7.681 34.68 0 26.917 0 17.34 0 7.764 7.68 0 17.155 0z"/></svg><svg viewBox="0 0 38 40" id="settings" xmlns="http://www.w3.org/2000/svg"><path d="M20.434 0c1.513 0 2.882.84 3.639 2.08.367.6.613 1.34.552 2.12-.041.6.143 1.2.47 1.76 1.042 1.7 3.352 2.34 5.15 1.38a4.225 4.225 0 015.744 1.52l1.37 2.36a4.054 4.054 0 01-1.513 5.66c-1.738 1.02-2.35 3.28-1.308 5 .327.54.694 1 1.267 1.28.715.38 1.267.98 1.655 1.58.757 1.24.695 2.76-.04 4.1l-1.431 2.4c-.757 1.28-2.167 2.08-3.618 2.08-.716 0-1.513-.2-2.167-.6-.531-.34-1.144-.46-1.798-.46-2.024 0-3.72 1.66-3.781 3.64 0 2.3-1.88 4.1-4.231 4.1h-2.78c-2.371 0-4.252-1.8-4.252-4.1-.04-1.98-1.737-3.64-3.76-3.64-.675 0-1.288.12-1.799.46-.654.4-1.472.6-2.166.6a4.27 4.27 0 01-3.639-2.08l-1.41-2.4c-.756-1.3-.797-2.86-.04-4.1.326-.6.94-1.2 1.634-1.58.573-.28.94-.74 1.288-1.28 1.022-1.72.409-3.98-1.329-5A4.088 4.088 0 01.63 11.22L2 8.86a4.249 4.249 0 015.763-1.52c1.778.96 4.088.32 5.13-1.38.327-.56.511-1.16.47-1.76a3.57 3.57 0 01.573-2.12A4.39 4.39 0 0117.552 0h2.883zm-1.41 14.36c-3.209 0-5.805 2.52-5.805 5.66s2.596 5.64 5.805 5.64c3.21 0 5.744-2.5 5.744-5.64 0-3.14-2.535-5.66-5.744-5.66z"/></svg><svg viewBox="0 0 40 40" id="square-clock" xmlns="http://www.w3.org/2000/svg"><path d="M28.68 0C35.46 0 40 4.758 40 11.838v16.34C40 35.24 35.46 40 28.68 40H11.34C4.56 40 0 35.24 0 28.178v-16.34C0 4.758 4.56 0 11.34 0h17.34zM19.3 9.838c-.82 0-1.5.682-1.5 1.5V21.44c0 .52.28 1.02.74 1.28l7.84 4.68c.24.16.52.22.78.22.5 0 1-.26 1.28-.74.44-.702.2-1.622-.52-2.06l-7.12-4.24v-9.242a1.5 1.5 0 00-1.5-1.5z"/></svg><svg viewBox="0 0 40 40" id="squared-left-arrow" xmlns="http://www.w3.org/2000/svg"><path d="M28.18 0C35.24 0 40 4.542 40 11.32v17.34C40 35.44 35.24 40 28.18 40H11.84C4.76 40 0 35.44 0 28.66V11.32C0 4.542 4.76 0 11.84 0h16.34zm-7.76 11.44c-.58-.58-1.54-.58-2.12 0l-7.54 7.5c-.56.56-.56 1.56 0 2.12l7.54 7.5c.58.58 1.54.58 2.12 0 .58-.6.58-1.54 0-2.14l-4.96-4.92h12.7c.84 0 1.5-.68 1.5-1.5 0-.84-.66-1.5-1.5-1.5h-12.7l4.96-4.94c.28-.28.44-.68.44-1.06 0-.378-.16-.76-.44-1.06z"/></svg><svg viewBox="0 0 40 40" id="squared-right-arrow" xmlns="http://www.w3.org/2000/svg"><path d="M28.16 0C35.24 0 40 4.56 40 11.34v17.34C40 35.458 35.24 40 28.16 40H11.82C4.76 40 0 35.458 0 28.68V11.34C0 4.56 4.76 0 11.82 0h16.34zM21.7 11.44c-.58-.58-1.54-.58-2.12 0-.58.6-.58 1.54 0 2.14l4.96 4.92h-12.7c-.84 0-1.5.68-1.5 1.5 0 .84.66 1.5 1.5 1.5h12.7l-4.96 4.94c-.28.28-.44.68-.44 1.06 0 .378.16.76.44 1.06.58.58 1.54.58 2.12 0l7.54-7.5c.56-.56.56-1.56 0-2.12l-7.54-7.5z"/></svg><svg viewBox="0 0 40 40" id="squared-up-arrow" xmlns="http://www.w3.org/2000/svg"><path d="M28.68 0C35.458 0 40 4.76 40 11.84v16.34C40 35.24 35.458 40 28.68 40H11.34C4.56 40 0 35.24 0 28.18V11.84C0 4.76 4.56 0 11.34 0h17.34zm-7.62 10.76c-.56-.56-1.56-.56-2.12 0l-7.5 7.54c-.58.58-.58 1.54 0 2.12.6.58 1.54.58 2.14 0l4.92-4.96v12.7c0 .84.68 1.5 1.5 1.5.84 0 1.5-.66 1.5-1.5v-12.7l4.94 4.96c.28.28.68.44 1.06.44.378 0 .76-.16 1.06-.44.58-.58.58-1.54 0-2.12l-7.5-7.54z"/></svg><svg viewBox="0 0 40 36" id="star" xmlns="http://www.w3.org/2000/svg"><path d="M31.712 0c4.568 0 8.286 3.684 8.286 8.21L40 13.565c0 .392-.158.773-.438 1.05-.282.28-.662.436-1.062.436-1.642 0-2.978 1.324-2.978 2.951s1.336 2.95 2.978 2.95c.828 0 1.5.667 1.5 1.487v5.353C40 32.318 36.284 36 31.716 36H8.286C3.718 36 0 32.318 0 27.792v-5.353c0-.82.672-1.486 1.5-1.486 1.644 0 2.98-1.324 2.98-2.951 0-1.585-1.282-2.778-2.98-2.778-.398 0-.778-.157-1.06-.436a1.48 1.48 0 01-.44-1.05L.004 8.21C.004 3.684 3.72 0 8.288 0h23.424zM20.004 10.307a1.48 1.48 0 00-1.33.816l-1.458 2.927-3.252.47a1.47 1.47 0 00-1.2.995 1.448 1.448 0 00.374 1.506l2.358 2.275-.556 3.216c-.096.555.13 1.106.59 1.437.26.184.562.28.868.28.234 0 .47-.058.686-.17L20 22.54l2.91 1.514a1.466 1.466 0 001.56-.107c.462-.329.688-.88.592-1.435l-.558-3.216 2.358-2.275a1.44 1.44 0 00.374-1.506 1.46 1.46 0 00-1.192-.993l-3.258-.472-1.458-2.925a1.474 1.474 0 00-1.324-.818z"/></svg><svg viewBox="0 0 40 40" id="telegram" xmlns="http://www.w3.org/2000/svg"><path d="M38.87 1.164A3.866 3.866 0 0035.01.157L2.815 9.52C1.359 9.924.327 11.085.049 12.561c-.284 1.502.708 3.409 2.005 4.206l10.066 6.187a2.609 2.609 0 003.22-.387L26.865 10.97a1.468 1.468 0 012.12 0c.58.584.58 1.53 0 2.134l-11.546 11.6a2.647 2.647 0 00-.386 3.238l6.15 10.167A3.82 3.82 0 0026.526 40c.16 0 .34 0 .5-.02 1.56-.201 2.801-1.268 3.261-2.778L39.831 5.05a3.928 3.928 0 00-.96-3.886z"/></svg><svg viewBox="0 0 36 40" id="trash-can" xmlns="http://www.w3.org/2000/svg"><path d="M31.878 13.394c.399 0 .76.174 1.047.468.266.314.4.704.361 1.116 0 .136-1.066 13.616-1.674 19.29-.382 3.482-2.626 5.596-5.993 5.654-2.59.058-5.12.078-7.611.078-2.646 0-5.233-.02-7.744-.078-3.254-.078-5.5-2.23-5.862-5.654-.627-5.694-1.673-19.154-1.693-19.29-.02-.412.113-.802.382-1.116a1.413 1.413 0 011.046-.468h27.741zM22.13 0c1.768 0 3.347 1.234 3.804 2.994l.327 1.46c.264 1.19 1.295 2.032 2.482 2.032h5.831c.778 0 1.426.646 1.426 1.468v.76c0 .802-.648 1.468-1.426 1.468H1.428C.648 10.182 0 9.516 0 8.714v-.76c0-.822.648-1.468 1.428-1.468h5.831c1.185 0 2.216-.842 2.482-2.03l.306-1.364C10.52 1.234 12.082 0 13.87 0h8.26z"/></svg><svg viewBox="0 0 22 36" id="up-arrow" xmlns="http://www.w3.org/2000/svg"><path d="M.18 17.717c.252.468.732.76 1.255.76h8.13V34.53c0 .811.643 1.469 1.435 1.469s1.434-.658 1.434-1.469V18.477h8.131c.524 0 1.005-.292 1.255-.76a1.496 1.496 0 00-.04-1.492L12.214.685A1.429 1.429 0 0011 0c-.493 0-.95.258-1.215.685L.22 16.225c-.145.239-.22.511-.22.783 0 .243.061.488.18.71z"/></svg><svg viewBox="0 0 40 36" id="up-down-sign" xmlns="http://www.w3.org/2000/svg"><path d="M30.6 19.659c2.425 0 4.62.138 5.97.394.022 0 1.258.254 1.67.418.594.257 1.098.72 1.418 1.3.23.463.342.952.342 1.463-.021.532-.365 1.532-.527 1.926-1.004 2.6-4.3 7.567-6.31 9.472-.32.323-.71.672-.8.765a2.867 2.867 0 01-1.784.603 2.721 2.721 0 01-1.671-.558c-.25-.178-.614-.533-.78-.7l-.089-.089c-2.083-1.948-5.215-6.801-6.221-9.262-.022 0-.523-1.228-.624-1.968l-.017-.19v-.092c0-1.069.594-2.066 1.556-2.577.527-.278 2.057-.535 2.08-.558 1.373-.21 3.477-.347 5.787-.347zm-21.19.121c.959 0 1.748.731 1.855 1.675l.013.22.512 9.158c0 1.335-1.065 2.416-2.38 2.416-1.233 0-2.248-.95-2.37-2.169l-.013-.247.515-9.157c0-1.048.836-1.896 1.868-1.896zM9.423 0c.593 0 1.187.185 1.67.556.207.15.494.421.68.604l.188.187c2.08 1.95 5.215 6.8 6.221 9.262.02 0 .523 1.23.624 1.97l.017.19v.092a2.93 2.93 0 01-1.556 2.575c-.527.28-2.057.534-2.08.558-1.372.21-3.477.347-5.787.347-2.425 0-4.62-.138-5.97-.394-.024 0-1.258-.255-1.67-.418a2.982 2.982 0 01-1.418-1.3A3.255 3.255 0 010 12.77c.021-.535.365-1.533.524-1.927 1.007-2.601 4.3-7.569 6.313-9.471.32-.326.71-.675.8-.768A2.865 2.865 0 019.424 0zM30.59 2.75c1.234 0 2.247.95 2.369 2.169l.012.247-.513 9.158c0 1.047-.835 1.895-1.868 1.895a1.877 1.877 0 01-1.855-1.674l-.012-.221-.515-9.158c0-1.335 1.067-2.416 2.382-2.416z"/></svg><svg viewBox="0 0 40 42" id="upload" xmlns="http://www.w3.org/2000/svg"><path d="M0 22.575c0-4.823 3.756-8.782 8.462-9.005l.418-.01h9.58v12.21c0 .875.68 1.567 1.54 1.567a1.55 1.55 0 001.526-1.353l.014-.214V13.56h9.56c4.76 0 8.67 3.822 8.89 8.629l.01.427v9.91c0 4.842-3.756 8.802-8.462 9.025l-.418.01H8.9c-4.78 0-8.672-3.841-8.89-8.63L0 32.504v-9.93zM13.1 8.48a1.528 1.528 0 01-.168-2.008l.148-.172L18.9.46a1.527 1.527 0 012-.163l.181.163L26.9 6.3c.3.3.46.7.46 1.08 0 .4-.16.8-.46 1.1a1.546 1.546 0 01-2.007.149l-.173-.149-3.18-3.2v8.28h-3.08V5.28l-3.18 3.2c-.6.6-1.58.6-2.18 0z"/></svg><svg viewBox="0 0 32 40" id="user" xmlns="http://www.w3.org/2000/svg"><path d="M16 26.348c8.677 0 16 1.41 16 6.85C32 38.64 24.63 40 16 40c-8.675 0-16-1.41-16-6.85 0-5.442 7.37-6.802 16-6.802zM16 0a10.547 10.547 0 0110.588 10.582c0 5.874-4.71 10.584-10.588 10.584A10.55 10.55 0 015.412 10.582 10.548 10.548 0 0116 0z"/></svg><svg viewBox="0 0 44 32" id="users-group" xmlns="http://www.w3.org/2000/svg"><path d="M21.898 21.08c6.862 0 12.722 1.087 12.722 5.44 0 4.352-5.822 5.48-12.722 5.48-6.862 0-12.722-1.088-12.722-5.44 0-4.353 5.822-5.48 12.722-5.48zm10.972-2.622c2.624-.049 5.444.311 6.486.567 2.209.434 3.66 1.32 4.263 2.608a3.846 3.846 0 010 3.34c-.92 1.997-3.888 2.639-5.042 2.804-.238.036-.43-.17-.404-.41.589-5.536-4.098-8.16-5.31-8.763-.052-.027-.063-.069-.057-.094.003-.018.025-.047.064-.052zm-21.739 0c.04.006.06.035.063.05.005.028-.006.068-.056.096-1.214.604-5.9 3.228-5.311 8.762.025.24-.165.446-.403.412-1.153-.166-4.12-.807-5.041-2.804a3.833 3.833 0 010-3.34c.601-1.288 2.052-2.174 4.26-2.61 1.044-.254 3.863-.614 6.488-.566zM21.898 0c4.672 0 8.419 3.765 8.419 8.466 0 4.7-3.747 8.467-8.419 8.467-4.672 0-8.418-3.768-8.418-8.467C13.48 3.765 17.226 0 21.898 0zm11.429 1.412c4.513 0 8.057 4.27 6.85 9.028-.815 3.202-3.765 5.33-7.05 5.243a6.783 6.783 0 01-.968-.094.317.317 0 01-.213-.488 11.53 11.53 0 001.968-6.483c0-2.5-.78-4.83-2.136-6.742-.043-.059-.075-.15-.032-.22.035-.055.102-.084.164-.098a7.01 7.01 0 011.417-.146zm-22.655 0c.49 0 .96.052 1.418.146.061.014.13.045.165.099.041.068.01.16-.032.22a11.613 11.613 0 00-2.137 6.741c0 2.396.715 4.628 1.968 6.483a.317.317 0 01-.213.488 6.57 6.57 0 01-.967.094c-3.286.086-6.235-2.041-7.05-5.244-1.209-4.757 2.335-9.027 6.848-9.027z"/></svg><svg viewBox="0 0 40 30" id="video-cam" xmlns="http://www.w3.org/2000/svg"><path d="M19.81 0c4.844 0 8.226 3.338 8.226 8.122v13.756c0 4.784-3.382 8.122-8.226 8.122H8.226C3.382 30 0 26.662 0 21.878V8.122C0 3.338 3.382 0 8.226 0H19.81zm16.106 4.758a2.765 2.765 0 012.746.128A2.86 2.86 0 0140 7.324v15.353c0 1-.5 1.912-1.338 2.438-.458.287-.97.433-1.486.433-.43 0-.86-.102-1.262-.307l-2.962-1.494a3.246 3.246 0 01-1.776-2.914V9.166c0-1.243.68-2.36 1.776-2.912l2.964-1.496z"/></svg><svg viewBox="0 0 44 36" id="volume" xmlns="http://www.w3.org/2000/svg"><path d="M19.515 0c2.087 0 4.033 1.503 4.736 3.912.258 1.007.362 2.016.463 2.99l.095.884c.36 2.952.36 17.457 0 20.43l-.095.917c-.09.926-.182 1.883-.449 2.905C23.563 34.441 21.69 36 19.564 36c-.068 0-.135 0-.21-.002-1.175 0-2.452-.722-3.175-1.35l-7.053-5.882H5.504C2.708 28.766.66 26.741.29 23.61c-.428-3.133-.344-8.508 0-11.355.405-2.965 2.548-5.02 5.214-5.02h3.622l6.918-5.795C16.88.713 18.351-.004 19.515 0zM36.58.442a1.81 1.81 0 012.555.473C42.272 5.533 44 11.603 44 18c0 6.4-1.728 12.469-4.865 17.087a1.803 1.803 0 01-2.552.472 1.914 1.914 0 01-.462-2.615C38.835 28.946 40.33 23.638 40.33 18c0-5.637-1.495-10.944-4.21-14.943a1.916 1.916 0 01.46-2.615zm-6.323 6.075a1.813 1.813 0 012.556.472C34.84 9.974 35.957 13.884 35.957 18s-1.118 8.026-3.144 11.01a1.827 1.827 0 01-1.508.808c-.373 0-.736-.116-1.046-.335a1.912 1.912 0 01-.46-2.615c1.605-2.364 2.488-5.514 2.488-8.868 0-3.356-.883-6.504-2.488-8.868a1.913 1.913 0 01.458-2.615z"/></svg><svg viewBox="0 0 40 36" id="wallet" xmlns="http://www.w3.org/2000/svg"><path d="M29.031 0C35.93 0 40 3.97 40 10.764h-8.462v.069c-3.928 0-7.111 3.104-7.111 6.933 0 3.829 3.183 6.933 7.11 6.933H40v.624C40 32.031 35.929 36 29.031 36H10.97C4.07 36 0 32.03 0 25.323V10.677C0 3.969 4.071 0 10.969 0H29.03zm9.476 13.745c.824 0 1.493.652 1.493 1.456v5.06c-.01.801-.673 1.448-1.493 1.457h-6.81c-1.987.026-3.726-1.301-4.177-3.19a3.965 3.965 0 01.866-3.304 4.183 4.183 0 013.152-1.48h6.969zm-6.01 2.34h-.657a1.532 1.532 0 00-1.08.425 1.455 1.455 0 00-.449 1.048c0 .826.682 1.498 1.529 1.508h.658c.844 0 1.529-.667 1.529-1.49 0-.824-.685-1.491-1.53-1.491zM20.765 7.782H9.476c-.838 0-1.52.657-1.53 1.474 0 .826.682 1.498 1.53 1.508h11.288c.845 0 1.53-.668 1.53-1.491 0-.823-.685-1.49-1.53-1.49z"/></svg></svg>