<svg width="126" height="32" viewBox="0 0 126 32" fill="none" xmlns="http://www.w3.org/2000/svg">
<path d="M16.0048 0C7.38077 0 0.381836 6.96843 0.381836 15.5541C0.381836 24.1432 7.38077 31.1109 16.0048 31.1109C19.6014 31.1109 22.913 29.8973 25.5541 27.8603V31.1072H27.9914V20.989C25.912 25.5168 21.3228 28.6725 16.0048 28.6725C8.7406 28.6725 2.8299 22.7878 2.8299 15.5541C2.8299 8.32156 8.7406 2.43727 16.0048 2.43727C23.2698 2.43727 29.1808 8.32156 29.1808 15.5541C29.1808 15.6438 29.1756 15.7327 29.1734 15.822H29.1808V31.1072H31.6177V16.113C31.6241 15.9284 31.6282 15.742 31.6282 15.5541C31.6282 6.96843 24.6292 0 16.0048 0Z" fill="#FFAD24"/>
<path d="M16.0048 24.9948C10.7715 24.9948 6.5239 20.7635 6.5239 15.5537C6.5239 10.3451 10.7715 6.1153 16.0048 6.1153C21.2383 6.1153 25.4867 10.3451 25.4867 15.5537C25.4867 20.7635 21.2383 24.9948 16.0048 24.9948ZM16.0048 3.62073C9.39572 3.62073 4.01854 8.97373 4.01854 15.5537C4.01854 22.1349 9.39572 27.489 16.0048 27.489C22.6142 27.489 27.9914 22.1349 27.9914 15.5537C27.9914 8.97373 22.6142 3.62073 16.0048 3.62073Z" fill="#FFAD24"/>
<path d="M73.4171 10.0466V3.18421H74.8688V10.0745C74.8688 12.8537 76.0977 14.1938 78.6109 14.1938V15.5194C75.2364 15.5235 73.4171 13.6558 73.4171 10.0466ZM70.5657 10.0745V3.18421H72.0182L72.0137 10.0745C72.0108 14.5301 74.4127 16.9027 78.6109 16.8636V18.1933C73.5845 18.1933 70.5657 15.3557 70.5657 10.0745ZM83.7968 14.0491C83.7968 17.6583 81.9779 19.5264 78.6027 19.5223V18.1963C81.1162 18.1963 82.3451 16.8565 82.3451 14.077V3.18123H83.7968V14.0491ZM86.6482 14.077C86.6482 19.3582 83.6298 22.1958 78.6027 22.1958V20.8657C82.8012 20.9048 85.2017 18.5322 85.1998 14.077L85.1961 3.18123H86.6482V14.077ZM40.9058 11.3279C40.9058 7.71871 42.6693 5.85253 46.3228 5.85513L50.2207 5.85811V7.1811H46.3228C43.5302 7.1811 42.3575 8.52084 42.3575 11.3V18.8604H40.9058V11.3279ZM38.0544 11.3C38.0544 6.0192 41.0174 3.18123 46.3228 3.18123H50.2207V4.53213L46.3228 4.51093C41.8452 4.48712 39.4998 6.8444 39.5024 11.3L39.5065 18.8604H38.0544V11.3ZM111.886 3.18421H113.338V18.8604H111.886V3.18421ZM109.038 3.18421H110.49V18.8604H109.038V3.18421ZM122.428 11.3279V18.8604H120.977V11.3C120.977 8.52084 119.803 7.18073 117.011 7.18073H114.677V5.85811L117.011 5.85513C120.666 5.85067 122.428 7.71871 122.428 11.3279ZM125.28 11.3V18.8604H123.828L123.832 11.3C123.834 6.8444 121.488 4.47112 117.011 4.51093L114.677 4.53213V3.18123H117.011C122.317 3.18123 125.28 6.0192 125.28 11.3ZM92.56 3.18421H94.0117V18.8604H92.56V3.18421ZM89.7112 3.18421H91.163V18.8604H89.7112V3.18421ZM103.103 11.3279V18.8604H101.65V11.3C101.65 8.52084 100.478 7.18073 97.6849 7.18073H95.3507V5.85811L97.6849 5.85513C101.339 5.85067 103.103 7.71871 103.103 11.3279ZM105.953 11.3V18.8604H104.501L104.506 11.3C104.508 6.8444 102.163 4.47112 97.6849 4.51093L95.3507 4.53213V3.18123H97.6849C102.991 3.18123 105.953 6.0192 105.953 11.3ZM55.6467 11.0221C55.6467 13.3515 57.2695 15.2999 59.609 15.2999C61.9491 15.2999 63.572 13.3515 63.572 11.0221C63.572 8.69273 61.9491 6.68852 59.609 6.68852C57.2695 6.68852 55.6467 8.69273 55.6467 11.0221ZM54.1309 11.0221C54.1309 7.9118 56.4808 5.34654 59.609 5.34654C62.7379 5.34654 65.0877 7.91106 65.0877 11.0221C65.0877 14.1339 62.7379 16.6422 59.609 16.6422C56.4841 16.6422 54.1309 14.1261 54.1309 11.0221ZM51.2264 11.0515C51.2264 6.39236 54.9275 2.67786 59.609 2.67786C64.2908 2.67786 67.9923 6.35925 67.9923 11.0221C67.9923 15.685 64.2908 19.3109 59.609 19.3109C58.1505 19.3109 56.787 18.9891 55.6009 18.312V22.1958H54.1488L54.1362 15.1998C55.3725 16.842 57.3313 17.9701 59.609 17.9701C63.5106 17.9701 66.4777 14.9055 66.4777 11.0221C66.4777 7.13869 63.5106 4.01908 59.609 4.01908C55.708 4.01908 52.7414 7.13869 52.7414 11.0221L52.7332 22.1958H51.2253L51.2264 11.0515Z" fill="#FFAD24"/>
<path d="M40.3758 25.032H40.8478L43.2078 30.712H42.6158L41.8798 28.936H39.3278L38.5998 30.712H37.9998L40.3758 25.032ZM41.7518 28.496L40.6078 25.688L39.4478 28.496H41.7518Z" fill="#FFAD24"/>
<path d="M58.662 30.712V25.528H56.342L56.31 26.728C56.2833 27.512 56.2273 28.1627 56.142 28.68C56.0567 29.1973 55.9367 29.6053 55.782 29.904C55.6273 30.1973 55.438 30.408 55.214 30.536C54.99 30.6587 54.7233 30.72 54.414 30.72V30.224C54.622 30.224 54.806 30.1707 54.966 30.064C55.126 29.9573 55.262 29.7707 55.374 29.504C55.486 29.2373 55.574 28.8693 55.638 28.4C55.7073 27.9253 55.7527 27.3253 55.774 26.6L55.822 25.032H59.214V30.712H58.662Z" fill="#FFAD24"/>
<path d="M71.4345 30.712V25.032H71.9945V27.24H73.4345C73.8452 27.24 74.1865 27.312 74.4585 27.456C74.7305 27.6 74.9332 27.8027 75.0665 28.064C75.2052 28.3253 75.2745 28.6293 75.2745 28.976C75.2745 29.2907 75.2078 29.5813 75.0745 29.848C74.9412 30.1147 74.7412 30.3253 74.4745 30.48C74.2078 30.6347 73.8745 30.712 73.4745 30.712H71.4345ZM71.9945 30.24H73.4025C73.7172 30.24 73.9705 30.1813 74.1625 30.064C74.3545 29.9413 74.4932 29.784 74.5785 29.592C74.6692 29.3947 74.7145 29.1893 74.7145 28.976C74.7145 28.752 74.6745 28.544 74.5945 28.352C74.5145 28.16 74.3785 28.0053 74.1865 27.888C73.9945 27.7707 73.7305 27.712 73.3945 27.712H71.9945V30.24Z" fill="#FFAD24"/>
<path d="M86.9253 30.712L88.4453 28.304C88.0347 28.208 87.7173 28.0133 87.4933 27.72C87.2747 27.4267 87.1653 27.0773 87.1653 26.672C87.1653 26.368 87.24 26.0933 87.3893 25.848C87.544 25.5973 87.76 25.4 88.0373 25.256C88.3147 25.1067 88.6453 25.032 89.0293 25.032H90.7893V30.712H90.2373V28.376H89.2213C89.1893 28.376 89.1547 28.376 89.1173 28.376C89.0853 28.376 89.0533 28.376 89.0213 28.376L87.5653 30.712H86.9253ZM89.0533 27.888H90.2373V25.52H89.0853C88.824 25.52 88.5893 25.568 88.3813 25.664C88.1733 25.76 88.0133 25.8933 87.9013 26.064C87.7893 26.2347 87.7333 26.4373 87.7333 26.672C87.7333 26.9067 87.784 27.1147 87.8853 27.296C87.9867 27.4773 88.1333 27.6213 88.3253 27.728C88.5227 27.8347 88.7653 27.888 89.0533 27.888Z" fill="#FFAD24"/>
<path d="M107.491 25.032V30.712H106.939V28.056H103.571V30.712H103.011V25.032H103.571V27.56H106.939V25.032H107.491Z" fill="#FFAD24"/>
<path d="M119.341 27.832C119.341 27.4853 119.4 27.1467 119.517 26.816C119.64 26.48 119.816 26.176 120.045 25.904C120.275 25.6267 120.557 25.408 120.893 25.248C121.229 25.0827 121.611 25 122.037 25C122.544 25 122.976 25.1173 123.333 25.352C123.696 25.5813 123.963 25.8773 124.133 26.24L123.693 26.512C123.571 26.2613 123.416 26.064 123.229 25.92C123.043 25.7707 122.843 25.664 122.629 25.6C122.421 25.536 122.213 25.504 122.005 25.504C121.664 25.504 121.363 25.5733 121.101 25.712C120.84 25.8453 120.619 26.0267 120.437 26.256C120.261 26.48 120.128 26.7333 120.037 27.016C119.947 27.2933 119.901 27.576 119.901 27.864C119.901 28.1787 119.955 28.48 120.061 28.768C120.168 29.056 120.317 29.312 120.509 29.536C120.701 29.7547 120.925 29.9307 121.181 30.064C121.443 30.192 121.725 30.256 122.029 30.256C122.243 30.256 122.461 30.2187 122.685 30.144C122.909 30.0693 123.117 29.9547 123.309 29.8C123.507 29.6453 123.664 29.4453 123.781 29.2L124.245 29.44C124.128 29.7227 123.947 29.9627 123.701 30.16C123.456 30.3573 123.181 30.5067 122.877 30.608C122.579 30.7093 122.285 30.76 121.997 30.76C121.608 30.76 121.251 30.6773 120.925 30.512C120.6 30.3413 120.317 30.1173 120.077 29.84C119.843 29.5573 119.661 29.2427 119.533 28.896C119.405 28.544 119.341 28.1893 119.341 27.832Z" fill="#FFAD24"/>
</svg>
