<svg width="46" height="25" viewBox="0 0 46 25" fill="none" xmlns="http://www.w3.org/2000/svg">
	<mask id="path-1-inside-1_206_209" fill="white">
		<path fill-rule="evenodd" clip-rule="evenodd"
			d="M36.0771 24.999C39.7803 24.9376 42.7632 21.9417 42.7632 18.2551C42.7632 15.034 40.4861 12.3402 37.4411 11.6702C37.5817 11.0174 37.6557 10.34 37.6557 9.64549C37.6557 4.31843 33.3007 0 27.9284 0C24.0596 0 20.7183 2.23956 19.1512 5.48257C17.9553 4.77827 16.5587 4.37385 15.0669 4.37385C10.9156 4.37385 7.50193 7.50555 7.09763 11.5164C6.99967 11.5122 6.90117 11.5101 6.80218 11.5101C3.04544 11.5101 0 14.5299 0 18.2551C0 21.9802 3.04544 25 6.80218 25C6.88768 25 6.97281 24.9984 7.05755 24.9953V25H35.9537C35.9561 25 35.9586 25 35.961 25C35.9634 25 35.9659 25 35.9683 25H36.0771V24.999Z" />
	</mask>
	<path
		d="M36.0771 24.999L36.0605 23.9992L35.0771 24.0155V24.999H36.0771ZM37.4411 11.6702L36.4635 11.4596L36.2538 12.4329L37.2262 12.6469L37.4411 11.6702ZM19.1512 5.48257L18.6437 6.34424L19.5792 6.89519L20.0515 5.91767L19.1512 5.48257ZM7.09763 11.5164L7.05529 12.5155L7.99795 12.5554L8.09258 11.6167L7.09763 11.5164ZM7.05755 24.9953H8.05755V23.9581L7.02098 23.996L7.05755 24.9953ZM7.05755 25H6.05755V26H7.05755V25ZM36.0771 25V26H37.0771V25H36.0771ZM36.0937 25.9989C40.3339 25.9286 43.7632 22.4962 43.7632 18.2551H41.7632C41.7632 21.3873 39.2266 23.9466 36.0605 23.9992L36.0937 25.9989ZM43.7632 18.2551C43.7632 14.549 41.1442 11.4611 37.6559 10.6936L37.2262 12.6469C39.828 13.2193 41.7632 15.5189 41.7632 18.2551H43.7632ZM38.4186 11.8808C38.5741 11.1592 38.6557 10.4113 38.6557 9.64549H36.6557C36.6557 10.2687 36.5893 10.8755 36.4635 11.4596L38.4186 11.8808ZM38.6557 9.64549C38.6557 3.7582 33.845 -1 27.9284 -1V1C32.7564 1 36.6557 4.87867 36.6557 9.64549H38.6557ZM27.9284 -1C23.665 -1 19.98 1.46903 18.2508 5.04747L20.0515 5.91767C21.4566 3.01009 24.4542 1 27.9284 1V-1ZM19.6586 4.6209C18.3129 3.82832 16.7417 3.37385 15.0669 3.37385V5.37385C16.3758 5.37385 17.5977 5.72821 18.6437 6.34424L19.6586 4.6209ZM15.0669 3.37385C10.4038 3.37385 6.55864 6.89276 6.10267 11.4161L8.09258 11.6167C8.44523 8.11835 11.4274 5.37385 15.0669 5.37385V3.37385ZM7.13997 10.5173C7.02791 10.5125 6.91529 10.5101 6.80218 10.5101V12.5101C6.88704 12.5101 6.97142 12.5119 7.05529 12.5155L7.13997 10.5173ZM6.80218 10.5101C2.50114 10.5101 -1 13.9697 -1 18.2551H1C1 15.0902 3.58974 12.5101 6.80218 12.5101V10.5101ZM-1 18.2551C-1 22.5404 2.50114 26 6.80218 26V24C3.58974 24 1 21.42 1 18.2551H-1ZM6.80218 26C6.89987 26 6.9972 25.9982 7.09413 25.9947L7.02098 23.996C6.94842 23.9987 6.87548 24 6.80218 24V26ZM8.05755 25V24.9953H6.05755V25H8.05755ZM35.9537 24H7.05755V26H35.9537V24ZM35.9537 26C35.9544 26 35.9553 26 35.9566 26C35.9577 26 35.9593 26 35.961 26V24C35.9602 24 35.9594 24 35.9581 24C35.957 24 35.9554 24 35.9537 24V26ZM35.961 26C35.9627 26 35.9643 26 35.9654 26C35.9667 26 35.9675 26 35.9683 26V24C35.9666 24 35.965 24 35.9639 24C35.9626 24 35.9618 24 35.961 24V26ZM36.0771 24H35.9683V26H36.0771V24ZM35.0771 24.999V25H37.0771V24.999H35.0771Z"
		fill="white" mask="url(#path-1-inside-1_206_209)" />
	<circle cx="37.8289" cy="8.88158" r="7.06579" fill="#7EAFCB" stroke="white" />
	<path fill-rule="evenodd" clip-rule="evenodd" d="M37.3289 4.60526V9.79633H37.5L37.5 10.0485H42.1053C42.3814 10.0485 42.6053 9.82464 42.6053 9.5485C42.6053 9.27236 42.3814 9.0485 42.1053 9.0485H38.3289V4.60526C38.3289 4.32912 38.1051 4.10526 37.8289 4.10526C37.5528 4.10526 37.3289 4.32912 37.3289 4.60526Z" fill="white" />
</svg>