<svg width="70" height="60" viewBox="0 0 70 60" fill="none" xmlns="http://www.w3.org/2000/svg">
	<path d="M42.8669 16.9662H2.05136C0.937237 16.9662 0.0340576 17.8681 0.0340576 18.9805V48.8844C0.0340576 49.9968 0.937237 50.8987 2.05136 50.8987H42.8669C43.981 50.8987 44.8842 49.9968 44.8842 48.8844V18.9805C44.8842 17.8681 43.981 16.9662 42.8669 16.9662Z" fill="white" />
	<path d="M2.02236 16.9662H42.8234C43.3745 16.9662 43.903 17.1848 44.2927 17.574C44.6824 17.9631 44.9013 18.4908 44.9013 19.0411V21.5425H0.0340576V18.949C0.0342307 18.6884 0.0857981 18.4304 0.185813 18.1898C0.285828 17.9492 0.432333 17.7305 0.616964 17.5464C0.801594 17.3623 1.02074 17.2163 1.26187 17.1168C1.50301 17.0172 1.76142 16.9661 2.02236 16.9662Z" fill="#E0E0E0" />
	<path
		d="M42.8682 50.8973L42.9671 50.8907C43.0014 50.8907 43.0423 50.8907 43.0911 50.8828L43.2625 50.8551C43.3275 50.8402 43.3987 50.8218 43.4761 50.7999C43.5611 50.7717 43.6444 50.7383 43.7253 50.6998C44.1926 50.4785 44.5563 50.0857 44.7405 49.6031L44.7814 49.4925C44.7933 49.453 44.8025 49.4135 44.813 49.374C44.8341 49.2923 44.8495 49.2091 44.8592 49.1252C44.8746 48.9462 44.8799 48.7664 44.875 48.5868C44.875 47.8363 44.875 46.9714 44.875 45.9984C44.875 42.1015 44.8684 36.4641 44.8644 29.4996C44.8644 27.7583 44.8644 25.9357 44.8644 24.032V21.1225C44.8644 20.6292 44.8644 20.1307 44.8644 19.6269C44.8644 19.3768 44.8644 19.1214 44.8644 18.8712C44.8433 18.4893 44.7121 18.1216 44.4866 17.8124C44.2611 17.5031 43.9509 17.2655 43.5934 17.1281C43.3513 17.0369 43.094 16.9922 42.8353 16.9965H32.0763L2.06195 17.0004C1.73398 16.9994 1.41092 17.0799 1.12183 17.2345C0.83275 17.3892 0.586727 17.6132 0.40591 17.8864C0.226938 18.1583 0.11697 18.4697 0.085513 18.7935C0.0736464 18.9542 0.0749647 19.1187 0.0749647 19.2833V31.3309C0.0749647 36.343 0.0749647 41.1773 0.0749647 45.7838V48.3498C0.0660232 48.6291 0.07439 48.9088 0.100017 49.1871C0.1622 49.5958 0.351265 49.9747 0.640563 50.2704C0.92986 50.5661 1.3048 50.7638 1.71254 50.8354C1.98327 50.8682 2.2562 50.8792 2.5287 50.8683H8.88519H20.2955L36.819 50.8788L41.3111 50.8854H36.819L20.2955 50.896H8.88519H2.51947C2.24346 50.9079 1.96694 50.8969 1.69277 50.863C1.27242 50.79 0.885714 50.5868 0.587346 50.2823C0.288979 49.9778 0.0940518 49.5873 0.0301362 49.166C0.00295621 48.8843 -0.00585197 48.6011 0.00376654 48.3182V47.4677C0.00376654 46.899 0.00376654 46.3285 0.00376654 45.7562C0.00376654 41.1483 0.00376654 36.3153 0.00376654 31.3033C0.00376654 28.7966 0.00376654 26.2482 0.00376654 23.6581V19.2833C0.00376654 19.1187 0.00376678 18.9555 0.0143148 18.787C0.046923 18.4517 0.160978 18.1295 0.346578 17.8483C0.532987 17.5644 0.787354 17.3315 1.08665 17.1706C1.38594 17.0097 1.72071 16.9258 2.06063 16.9267H32.0684H42.8274C43.0931 16.9214 43.3574 16.9661 43.6066 17.0583C44.1029 17.2505 44.5045 17.6283 44.726 18.1116C44.8358 18.3461 44.8993 18.5995 44.9132 18.858C44.9238 19.1214 44.9132 19.3662 44.9132 19.6177C44.9132 20.1206 44.9132 20.6191 44.9132 21.1133C44.9132 22.1024 44.9132 23.0718 44.9132 24.0215C44.9132 25.9226 44.9132 27.7451 44.9132 29.4891C44.9132 36.4536 44.904 42.091 44.9027 45.9879C44.9027 46.9608 44.9027 47.8311 44.9027 48.5762C44.9071 48.7568 44.9014 48.9374 44.8855 49.1173C44.8761 49.2018 44.8602 49.2854 44.8381 49.3675C44.8275 49.4083 44.8183 49.4478 44.8064 49.4873L44.7642 49.6005C44.5775 50.086 44.2092 50.4801 43.7371 50.6998C43.6557 50.7377 43.572 50.7707 43.4866 50.7985C43.4075 50.8209 43.3363 50.838 43.2717 50.8525L43.1003 50.8775C43.0515 50.8841 43.0093 50.8775 42.9764 50.8854L42.8682 50.8973Z"
		fill="#263238" />
	<path
		d="M2.9757 19.5308C2.9757 19.635 2.94477 19.7368 2.88682 19.8234C2.82886 19.91 2.7465 19.9775 2.65013 20.0174C2.55376 20.0572 2.44771 20.0676 2.34541 20.0473C2.2431 20.027 2.14913 19.9768 2.07537 19.9032C2.00161 19.8296 1.95138 19.7357 1.93103 19.6336C1.91068 19.5314 1.92113 19.4255 1.96104 19.3293C2.00096 19.2331 2.06856 19.1508 2.15529 19.093C2.24202 19.0351 2.34399 19.0042 2.4483 19.0042C2.58817 19.0042 2.72232 19.0597 2.82123 19.1585C2.92013 19.2572 2.9757 19.3912 2.9757 19.5308Z"
		fill="white" />
	<path
		d="M4.55126 19.5308C4.55126 19.635 4.52033 19.7368 4.46238 19.8234C4.40443 19.91 4.32206 19.9775 4.22569 20.0174C4.12932 20.0572 4.02328 20.0676 3.92097 20.0473C3.81866 20.027 3.72469 19.9768 3.65093 19.9032C3.57717 19.8296 3.52694 19.7357 3.50659 19.6336C3.48624 19.5314 3.49669 19.4255 3.53661 19.3293C3.57652 19.2331 3.64412 19.1508 3.73085 19.093C3.81758 19.0351 3.91955 19.0042 4.02386 19.0042C4.16374 19.0042 4.29788 19.0597 4.39679 19.1585C4.49569 19.2572 4.55126 19.3912 4.55126 19.5308Z"
		fill="white" />
	<path
		d="M6.12817 19.5308C6.12817 19.635 6.09723 19.7368 6.03928 19.8234C5.98133 19.91 5.89896 19.9775 5.80259 20.0174C5.70622 20.0572 5.60018 20.0676 5.49787 20.0473C5.39557 20.027 5.30159 19.9768 5.22784 19.9032C5.15408 19.8296 5.10385 19.7357 5.0835 19.6336C5.06315 19.5314 5.07359 19.4255 5.11351 19.3293C5.15343 19.2331 5.22103 19.1508 5.30776 19.093C5.39449 19.0351 5.49645 19.0042 5.60076 19.0042C5.74064 19.0042 5.87479 19.0597 5.97369 19.1585C6.0726 19.2572 6.12817 19.3912 6.12817 19.5308Z"
		fill="white" />
	<path
		d="M4.90725 27.0548C5.13248 26.9185 5.37507 26.8131 5.62847 26.7414L5.77746 26.0266L6.98521 26.0055L7.15925 26.7138C7.41552 26.7765 7.66212 26.8734 7.89234 27.0021L8.50281 26.6071L9.3717 27.4458L8.99329 28.0685C9.1298 28.2939 9.23534 28.5365 9.30709 28.79L10.0217 28.9387L10.0428 30.1447L9.33346 30.3185C9.27058 30.5741 9.17392 30.8203 9.04603 31.0505L9.44158 31.66L8.60301 32.5276L7.97936 32.1498C7.75327 32.2853 7.51035 32.3906 7.25682 32.4631L7.11179 33.1675L5.90404 33.1885L5.73 32.4802C5.47374 32.4176 5.22714 32.3206 4.99691 32.1919L4.38645 32.5869L3.51228 31.7588L3.89069 31.1347C3.75395 30.9095 3.64839 30.6668 3.57689 30.4133L2.86753 30.2711L2.84644 29.0638L3.55579 28.8913C3.61868 28.6357 3.71533 28.3895 3.84322 28.1593L3.44767 27.5498L4.28624 26.6822L4.91121 27.06L4.90725 27.0548ZM5.55068 28.6609C5.37258 28.845 5.25316 29.0777 5.2075 29.3296C5.16184 29.5815 5.19201 29.8412 5.29418 30.0759C5.39635 30.3107 5.56595 30.5099 5.78151 30.6484C5.99708 30.7869 6.24894 30.8585 6.50524 30.8541C6.76154 30.8496 7.01077 30.7694 7.22142 30.6236C7.43207 30.4777 7.59467 30.2728 7.68867 30.0346C7.78266 29.7965 7.80383 29.5359 7.7495 29.2858C7.69516 29.0356 7.56776 28.8072 7.3834 28.6293C7.13601 28.3912 6.80409 28.2608 6.4605 28.2667C6.1169 28.2726 5.78969 28.4144 5.55068 28.6609Z"
		fill="#EBEBEB" />
	<path
		d="M38.7559 40.6533C38.8922 40.5713 39.039 40.508 39.1923 40.4651L39.282 40.0332L40.0124 40.0201L40.1166 40.448C40.2711 40.4865 40.42 40.545 40.5596 40.6217L40.9288 40.3808L41.4562 40.8864L41.2215 41.2629C41.3046 41.3987 41.3685 41.5453 41.4113 41.6987L41.8438 41.7895L41.8557 42.5176L41.4285 42.6229C41.3902 42.7771 41.3312 42.9255 41.2531 43.0639L41.4957 43.4325L40.9881 43.9592L40.611 43.7314C40.4746 43.8136 40.3278 43.8773 40.1746 43.921L40.0849 44.3515L39.3558 44.3647L39.2503 43.9368C39.0961 43.8984 38.9476 43.84 38.8086 43.763L38.4394 44.0039L37.912 43.4984L38.1401 43.1218C38.0581 42.9855 37.9942 42.839 37.9503 42.6861L37.5297 42.5939L37.5165 41.8645L37.945 41.7605C37.9824 41.6058 38.041 41.457 38.119 41.3182L37.8778 40.9496L38.3841 40.4229L38.7611 40.6507L38.7559 40.6533ZM39.1448 41.6249C39.0377 41.7362 38.966 41.8766 38.9388 42.0284C38.9116 42.1803 38.93 42.3369 38.9918 42.4783C39.0536 42.6197 39.156 42.7396 39.286 42.823C39.4161 42.9063 39.5679 42.9494 39.7224 42.9466C39.8769 42.9439 40.0271 42.8955 40.1541 42.8075C40.2811 42.7196 40.3791 42.596 40.4358 42.4525C40.4925 42.309 40.5053 42.1519 40.4727 42.0011C40.44 41.8503 40.3634 41.7125 40.2524 41.6052C40.1784 41.5337 40.0911 41.4775 39.9954 41.4398C39.8996 41.4021 39.7974 41.3836 39.6945 41.3854C39.5916 41.3873 39.4901 41.4094 39.3957 41.4505C39.3014 41.4916 39.2162 41.5509 39.1448 41.6249Z"
		fill="#EBEBEB" />
	<path
		d="M19.6639 40.419C19.8906 40.2829 20.1345 40.1776 20.3891 40.1057L20.5381 39.3921L21.7458 39.371L21.9198 40.0793C22.1759 40.1421 22.4224 40.2386 22.6529 40.3663L23.2634 39.9714L24.1323 40.8087L23.7539 41.4327C23.8904 41.6576 23.9959 41.8999 24.0677 42.1529L24.7823 42.3016L24.8034 43.5076L24.0954 43.6814C24.0314 43.9369 23.9343 44.1829 23.8066 44.4134L24.2022 45.0229L23.3636 45.8905L22.74 45.5127C22.5141 45.6488 22.2712 45.7541 22.0174 45.826L21.8684 46.5396L20.6607 46.562L20.4866 45.8537C20.2308 45.7898 19.9843 45.6929 19.7536 45.5653L19.1431 45.9603L18.2795 45.123L18.6579 44.5003C18.5214 44.2749 18.4158 44.0322 18.3441 43.7788L17.6202 43.63L17.5991 42.4241L18.3085 42.2503C18.3714 41.9947 18.468 41.7485 18.5959 41.5183L18.2004 40.9087L19.0389 40.0411L19.6639 40.419ZM20.3073 42.0265C20.1294 42.2107 20.0101 42.4435 19.9646 42.6954C19.9192 42.9473 19.9495 43.207 20.0519 43.4416C20.1542 43.6763 20.3239 43.8754 20.5396 44.0138C20.7553 44.1521 21.0072 44.2235 21.2635 44.2189C21.5198 44.2143 21.7689 44.1339 21.9795 43.9879C22.19 43.8419 22.3525 43.6368 22.4463 43.3986C22.5401 43.1605 22.5611 42.8998 22.5066 42.6497C22.4521 42.3996 22.3245 42.1713 22.14 41.9936C22.0176 41.8754 21.8731 41.7825 21.7147 41.7202C21.5562 41.6579 21.3871 41.6274 21.2168 41.6305C21.0466 41.6335 20.8787 41.6701 20.7226 41.738C20.5665 41.806 20.4254 41.904 20.3073 42.0265Z"
		fill="#E0E0E0" />
	<path
		d="M26.3554 44.9123C26.4853 44.8342 26.6249 44.7736 26.7707 44.732L26.8551 44.3225L27.5486 44.3107L27.6488 44.7175C27.7952 44.7535 27.9362 44.8089 28.0681 44.882L28.4188 44.653L28.9172 45.1335L28.6957 45.4916C28.7737 45.6208 28.834 45.7598 28.875 45.905L29.2851 45.9906L29.2969 46.6817L28.8908 46.7818C28.8546 46.9286 28.7987 47.0699 28.7247 47.2018L28.9541 47.5507L28.4781 48.0444L28.1208 47.8285C27.9913 47.9061 27.8521 47.9663 27.7068 48.0075L27.6211 48.4169L26.9276 48.4301L26.8287 48.0233C26.6818 47.9872 26.5404 47.9319 26.4081 47.8587L26.0587 48.0918L25.5603 47.6112L25.7778 47.2531C25.6994 47.124 25.6387 46.985 25.5972 46.8397L25.1872 46.7542L25.1753 46.063L25.5827 45.9629C25.6182 45.8161 25.6737 45.6748 25.7475 45.5429L25.5181 45.1927L25.9994 44.6951L26.3567 44.9123H26.3554ZM26.7259 45.8339C26.6242 45.9397 26.5561 46.0732 26.5303 46.2176C26.5046 46.362 26.5222 46.5108 26.5809 46.6452C26.6397 46.7796 26.7371 46.8936 26.8607 46.9728C26.9843 47.0521 27.1286 47.093 27.2754 47.0904C27.4223 47.0878 27.5651 47.0419 27.6858 46.9584C27.8066 46.8749 27.8999 46.7576 27.9539 46.6212C28.0079 46.4848 28.0203 46.3355 27.9895 46.1921C27.9587 46.0487 27.886 45.9177 27.7807 45.8155C27.7104 45.7471 27.6273 45.6933 27.5361 45.6571C27.4449 45.621 27.3475 45.6033 27.2494 45.605C27.1513 45.6067 27.0545 45.6279 26.9647 45.6671C26.8748 45.7064 26.7936 45.7631 26.7259 45.8339Z"
		fill="#EBEBEB" />
	<path
		d="M11.3257 44.6872C11.4078 44.6372 11.4966 44.5991 11.5894 44.574L11.6435 44.3107L12.0799 44.3041L12.1432 44.5595C12.2352 44.5827 12.3238 44.6177 12.4069 44.6635L12.6271 44.5187L12.9422 44.8228L12.8104 45.0479C12.8596 45.1303 12.8978 45.2188 12.9238 45.3112L13.1875 45.3652L13.1954 45.801L12.9317 45.8642C12.909 45.9562 12.8739 46.0448 12.8275 46.1275L12.9725 46.3473L12.6693 46.662L12.4438 46.5303C12.3615 46.58 12.2728 46.6181 12.1801 46.6436L12.1274 46.9069L11.6896 46.9148L11.6264 46.6594C11.5343 46.6357 11.4457 46.6003 11.3627 46.554L11.1425 46.6989L10.8287 46.3961L10.9605 46.1709C10.9115 46.0884 10.8734 45.9999 10.8471 45.9076L10.5834 45.8536L10.5795 45.4113L10.8432 45.3494C10.8656 45.2573 10.9007 45.1687 10.9473 45.0861L10.8023 44.8649L11.1055 44.5516L11.3323 44.6832L11.3257 44.6872ZM11.5578 45.2678C11.4927 45.3343 11.4489 45.4186 11.4319 45.51C11.4149 45.6014 11.4256 45.6958 11.4625 45.7811C11.4993 45.8665 11.5608 45.9389 11.6391 45.9893C11.7173 46.0397 11.8088 46.0657 11.9019 46.064C11.995 46.0624 12.0855 46.0331 12.1618 45.9799C12.2382 45.9268 12.297 45.8521 12.3308 45.7655C12.3646 45.6789 12.3718 45.5842 12.3516 45.4934C12.3313 45.4027 12.2845 45.32 12.217 45.2559C12.1275 45.1702 12.0077 45.1233 11.8837 45.1255C11.7596 45.1277 11.6415 45.1789 11.5552 45.2678H11.5578Z"
		fill="#F5F5F5" />
	<path
		d="M32.6511 26.6953C32.8766 26.5595 33.1191 26.4542 33.3723 26.382L33.5213 25.6684L34.7291 25.6473L34.9031 26.3556C35.1594 26.4183 35.406 26.5153 35.6362 26.644L36.2467 26.249L37.1155 27.0876L36.7385 27.7051C36.875 27.9304 36.9805 28.1731 37.0523 28.4265L37.7669 28.5753L37.788 29.7813L37.0799 29.955C37.016 30.2101 36.9189 30.4558 36.7912 30.6857L37.1867 31.2953L36.3482 32.1642L35.7245 31.7863C35.4984 31.9219 35.2555 32.0272 35.002 32.0997L34.853 32.8132L33.6453 32.8343L33.4712 32.126C33.2149 32.0634 32.9683 31.9664 32.7381 31.8377L32.1277 32.2327L31.2588 31.394L31.6372 30.7713C31.5007 30.5459 31.3951 30.3033 31.3234 30.0498L30.6087 29.9011L30.5876 28.6951L31.297 28.5213C31.3597 28.266 31.4563 28.0203 31.5844 27.7907L31.1889 27.1811L32.0274 26.3122L32.6524 26.69L32.6511 26.6953ZM33.2945 28.3028C33.1166 28.487 32.9973 28.7198 32.9518 28.9717C32.9064 29.2236 32.9367 29.4833 33.0391 29.718C33.1414 29.9526 33.3111 30.1517 33.5268 30.2901C33.7425 30.4284 33.9944 30.4998 34.2507 30.4952C34.507 30.4906 34.7561 30.4102 34.9667 30.2642C35.1772 30.1182 35.3397 29.9131 35.4335 29.675C35.5273 29.4368 35.5483 29.1761 35.4938 28.926C35.4393 28.6759 35.3117 28.4476 35.1272 28.2699C35.0046 28.1512 34.8596 28.058 34.7007 27.9954C34.5419 27.9328 34.3722 27.9022 34.2014 27.9052C34.0306 27.9083 33.8622 27.945 33.7056 28.0132C33.5491 28.0814 33.4076 28.1798 33.2893 28.3028H33.2945Z"
		fill="#EBEBEB" />
	<path
		d="M6.97331 42.2713C7.09144 42.2 7.21875 42.1451 7.35172 42.108L7.42951 41.7341L8.06239 41.7223L8.15337 42.0936C8.28717 42.127 8.41612 42.1774 8.53705 42.2436L8.85613 42.0343L9.31101 42.474L9.11324 42.7992C9.1844 42.9173 9.23939 43.0444 9.27673 43.1771L9.65118 43.2547L9.66305 43.8867L9.29123 43.9775C9.258 44.1112 9.20747 44.24 9.14092 44.3606L9.35057 44.6792L8.91019 45.1348L8.58452 44.936C8.4663 45.0074 8.33904 45.0628 8.20611 45.1005L8.12831 45.4744L7.49544 45.4849L7.40446 45.115C7.27042 45.0817 7.1414 45.0308 7.02077 44.9636L6.7017 45.1729L6.24681 44.7345L6.44459 44.408C6.37278 44.2901 6.31733 44.163 6.27978 44.0302L5.90532 43.9525L5.89478 43.3206L6.26527 43.2297C6.29862 43.0959 6.34961 42.9671 6.4169 42.8466L6.20726 42.528L6.64632 42.0738L6.97331 42.2713ZM7.31084 43.1126C7.21781 43.2089 7.15548 43.3306 7.13171 43.4623C7.10795 43.594 7.12383 43.7298 7.17734 43.8525C7.23085 43.9752 7.31959 44.0793 7.43235 44.1516C7.5451 44.2239 7.6768 44.2613 7.8108 44.2589C7.9448 44.2565 8.07508 44.2145 8.18517 44.1381C8.29527 44.0618 8.38023 43.9546 8.42931 43.8301C8.47839 43.7056 8.4894 43.5693 8.46093 43.4386C8.43247 43.3078 8.36582 43.1884 8.2694 43.0954C8.20534 43.0337 8.12973 42.9852 8.04689 42.9526C7.96404 42.92 7.87558 42.9041 7.78657 42.9057C7.69755 42.9073 7.60972 42.9264 7.52809 42.9619C7.44647 42.9974 7.37264 43.0486 7.31084 43.1126Z"
		fill="#F5F5F5" />
	<path
		d="M6.29176 43.185C5.44482 42.9999 4.63412 42.677 3.89209 42.2292L5.23828 39.0919C5.85865 39.4572 6.5233 39.7417 7.21603 39.9384C7.90048 40.1443 8.61084 40.2516 9.32563 40.257C9.90445 40.257 10.3171 40.2004 10.565 40.0846C10.6734 40.047 10.7675 39.9769 10.8343 39.8837C10.9011 39.7906 10.9374 39.6791 10.9382 39.5645C10.9382 39.3012 10.7747 39.0972 10.4503 38.9642C9.92871 38.7751 9.39249 38.6289 8.84702 38.5271C8.03517 38.3611 7.23596 38.1385 6.45526 37.8609C5.81019 37.6199 5.23714 37.2189 4.78999 36.6958C4.31621 36.1551 4.07976 35.4232 4.08063 34.4998C4.07432 33.7216 4.30416 32.9597 4.73989 32.3144C5.17939 31.657 5.8316 31.1405 6.69654 30.7648C7.56148 30.3892 8.61628 30.2009 9.86094 30.2C10.704 30.1995 11.5444 30.2945 12.3661 30.4831C13.1274 30.6483 13.8591 30.928 14.5363 31.3125L13.2785 34.4274C12.0628 33.7955 10.9113 33.4795 9.82403 33.4795C8.7367 33.4795 8.19919 33.7468 8.2115 34.2813C8.2115 34.5367 8.37104 34.728 8.69011 34.8553C9.20525 35.0356 9.73446 35.173 10.2723 35.266C11.0848 35.4125 11.8845 35.6225 12.6641 35.894C13.316 36.1325 13.8976 36.5304 14.3557 37.0513C14.8339 37.5858 15.073 38.3143 15.073 39.2367C15.0799 40.0126 14.85 40.7722 14.4137 41.4143C13.9742 42.0646 13.3216 42.5807 12.4558 42.9625C11.5899 43.3443 10.5351 43.5357 9.29135 43.5365C8.28102 43.5393 7.27399 43.4213 6.29176 43.185Z"
		fill="#005AFF" />
	<path d="M26.6217 40.0056V43.2495H16.311V30.4962H26.3923V33.7388H20.4208V35.2331H25.6632V38.3296H20.4208V40.0056H26.6217Z" fill="#005AFF" />
	<path d="M34.7002 36.7708L30.0854 31.9497C30.6352 31.3906 31.281 30.9344 31.992 30.6029C35.2882 29.0744 39.2134 30.6029 40.6941 33.9851C42.1747 37.3672 40.6941 41.4103 37.4057 42.9375C34.1174 44.4647 30.1843 42.9375 28.7036 39.5566C28.5941 39.306 28.499 39.0493 28.4188 38.7878L34.7002 36.7708Z" fill="#005AFF" />
	<path d="M34.7001 36.7827L28.4175 38.801C28.2192 38.1465 28.1184 37.4665 28.1182 36.7827C28.116 35.8732 28.2948 34.9723 28.644 34.1323C28.9932 33.2922 29.506 32.5298 30.1526 31.8892L34.7001 36.7827Z" fill="#005AFF" />
	<g opacity="0.3">
		<path d="M34.7001 36.7827L28.4175 38.801C28.2192 38.1465 28.1184 37.4665 28.1182 36.7827C28.116 35.8732 28.2948 34.9723 28.644 34.1323C28.9932 33.2922 29.506 32.5298 30.1526 31.8892L34.7001 36.7827Z" fill="black" />
	</g>
	<path d="M34.7001 36.7827L29.8217 41.3155C29.8217 41.3155 28.8012 40.2188 28.4109 38.8009L34.7001 36.7827Z" fill="#E0E0E0" />
	<path
		d="M15.3789 24.4006C15.4965 24.3289 15.6234 24.2736 15.756 24.2361L15.8338 23.8622L16.4666 23.8516L16.5576 24.2216C16.6918 24.2544 16.8209 24.3053 16.9413 24.373L17.2604 24.1636L17.7166 24.602L17.5175 24.9285C17.5893 25.0465 17.6447 25.1736 17.6823 25.3064L18.0568 25.3841L18.0673 26.0147L17.6968 26.1068C17.6637 26.2403 17.6127 26.3688 17.5452 26.4886L17.7522 26.8086L17.3131 27.2628L16.9861 27.0653C16.868 27.1366 16.7407 27.1915 16.6077 27.2285L16.5299 27.6024L15.8984 27.6143L15.8061 27.243C15.6723 27.2096 15.5433 27.1592 15.4224 27.0929L15.1033 27.3009L14.6484 26.8625L14.8462 26.536C14.7748 26.4185 14.7198 26.2919 14.6827 26.1595L14.3083 26.0818L14.2964 25.4499L14.6682 25.3591C14.7012 25.2253 14.7517 25.0965 14.8185 24.9759L14.6102 24.6573L15.0492 24.2018L15.3762 24.4006H15.3789ZM15.7151 25.2419C15.6218 25.3384 15.5593 25.4603 15.5354 25.5923C15.5115 25.7243 15.5274 25.8604 15.581 25.9833C15.6346 26.1063 15.7235 26.2107 15.8365 26.2832C15.9494 26.3557 16.0814 26.3931 16.2157 26.3907C16.35 26.3883 16.4806 26.3462 16.5909 26.2697C16.7012 26.1932 16.7864 26.0858 16.8355 25.961C16.8847 25.8362 16.8957 25.6996 16.8671 25.5686C16.8385 25.4375 16.7716 25.3179 16.675 25.2248C16.6107 25.162 16.5345 25.1126 16.451 25.0794C16.3674 25.0463 16.2781 25.03 16.1881 25.0316C16.0982 25.0332 16.0095 25.0526 15.9272 25.0887C15.8449 25.1248 15.7705 25.1769 15.7085 25.2419H15.7151Z"
		fill="#EBEBEB" />
	<path d="M26.5861 13.0626L24.4291 5.17659C23.957 3.20179 22.4091 1.82206 20.4419 2.34867L20.2626 2.40792C19.3942 2.69571 18.666 3.29928 18.2228 4.09863C17.7797 4.89798 17.654 5.83457 17.8708 6.72221C18.2901 8.4337 18.7753 10.3229 19.0839 11.2155C19.722 13.0587 21.6734 12.7348 21.6734 12.7348C21.6734 12.7348 22.0122 13.8723 22.1691 14.4226L22.1032 15.8366L23.5404 15.019L26.5861 13.0626Z"
		fill="#AE7461" />
	<path d="M21.6733 12.7348C22.5297 12.4488 23.286 11.9239 23.8528 11.2221C23.8528 11.2221 23.7342 12.802 21.8263 13.2535L21.6733 12.7348Z" fill="#6F4439" />
	<path
		d="M19.1168 8.32623C19.139 8.39554 19.1874 8.4534 19.2517 8.48741C19.3161 8.52143 19.3912 8.52888 19.4609 8.50818C19.4958 8.50009 19.5286 8.48499 19.5574 8.46381C19.5863 8.44263 19.6105 8.41581 19.6286 8.38497C19.6467 8.35414 19.6584 8.31994 19.6629 8.28445C19.6674 8.24897 19.6646 8.21294 19.6548 8.17855C19.6323 8.10944 19.5838 8.05179 19.5196 8.01783C19.4553 7.98386 19.3804 7.97625 19.3106 7.9966C19.2758 8.00469 19.2429 8.01979 19.2141 8.04097C19.1853 8.06215 19.1611 8.08897 19.143 8.11981C19.1248 8.15064 19.1132 8.18484 19.1087 8.22033C19.1042 8.25581 19.1069 8.29184 19.1168 8.32623Z"
		fill="#263238" />
	<path d="M18.5433 7.4115C18.5868 7.43524 18.7384 7.22032 19.0245 7.12671C19.3106 7.03309 19.5664 7.10561 19.5849 7.06078C19.5954 7.03969 19.5414 6.98827 19.428 6.95267C19.2765 6.90769 19.1148 6.91091 18.9652 6.9619C18.8175 7.00895 18.6884 7.10119 18.596 7.2256C18.5248 7.32844 18.5156 7.40096 18.5433 7.4115Z" fill="#263238" />
	<path
		d="M21.5085 7.55473C21.5307 7.62404 21.5791 7.6819 21.6434 7.71591C21.7078 7.74993 21.7829 7.75738 21.8526 7.73668C21.8875 7.72859 21.9203 7.71349 21.9491 7.69231C21.9779 7.67113 22.0022 7.64431 22.0203 7.61347C22.0384 7.58264 22.0501 7.54844 22.0546 7.51295C22.0591 7.47747 22.0563 7.44144 22.0464 7.40705C22.0229 7.34014 21.9748 7.28473 21.9118 7.25213C21.8488 7.21954 21.7758 7.21223 21.7076 7.23169C21.673 7.23926 21.6403 7.25372 21.6114 7.27421C21.5825 7.2947 21.558 7.32079 21.5395 7.35094C21.5209 7.38109 21.5086 7.41467 21.5032 7.44968C21.4979 7.48469 21.4997 7.52042 21.5085 7.55473Z"
		fill="#263238" />
	<path d="M21.3556 6.55174C21.3991 6.57547 21.5507 6.36055 21.8368 6.26694C22.123 6.17333 22.3787 6.24716 22.3972 6.20102C22.4078 6.18124 22.3537 6.12982 22.2403 6.0929C22.0886 6.04912 21.9271 6.0528 21.7775 6.10345C21.6294 6.14951 21.5 6.24196 21.4083 6.36715C21.3437 6.46999 21.3345 6.54251 21.3556 6.55174Z" fill="#263238" />
	<path
		d="M21.0589 9.07484C20.8926 9.07659 20.7273 9.10004 20.5671 9.14462C20.4919 9.16042 20.4181 9.16963 20.3891 9.12356C20.3585 9.05032 20.3507 8.96958 20.3667 8.89184C20.3772 8.69305 20.3878 8.48503 20.3983 8.26649C20.4352 7.37914 20.4366 6.66031 20.3983 6.659C20.3601 6.65768 20.3034 7.37519 20.2665 8.26254C20.2586 8.48109 20.2506 8.6891 20.2441 8.88789C20.2276 8.99123 20.2481 9.09704 20.3021 9.18675C20.3211 9.20863 20.3449 9.22592 20.3716 9.23732C20.3984 9.24872 20.4273 9.25394 20.4563 9.25258C20.5012 9.25072 20.5455 9.24274 20.5882 9.22888C20.7507 9.19659 20.9087 9.14487 21.0589 9.07484Z"
		fill="#263238" />
	<path d="M20.9666 5.69224C21.0299 5.75157 21.2817 5.58412 21.6153 5.46546C21.9489 5.34679 22.2482 5.3046 22.2574 5.2189C22.2574 5.17803 22.1822 5.13188 22.0438 5.1121C21.8632 5.09284 21.6807 5.11528 21.5101 5.17768C21.3396 5.24009 21.1857 5.34079 21.0602 5.47205C20.9679 5.57621 20.9389 5.66323 20.9666 5.69224Z" fill="#263238" />
	<path d="M18.2465 6.57425C18.327 6.6204 18.5393 6.47932 18.8188 6.38834C19.0983 6.29737 19.3462 6.26836 19.3831 6.18398C19.3976 6.1431 19.3396 6.08904 19.2156 6.06004C19.0484 6.0285 18.8758 6.04262 18.7159 6.10091C18.5547 6.15272 18.4106 6.24754 18.2993 6.37516C18.2215 6.478 18.2096 6.55448 18.2465 6.57425Z" fill="#263238" />
	<path d="M24.7402 6.59841C24.7666 6.57471 25.89 5.80059 26.2697 7.08026C26.6494 8.35994 25.2848 8.47711 25.2716 8.44156C25.2584 8.40601 24.7402 6.59841 24.7402 6.59841Z" fill="#AE7461" />
	<path
		d="M25.5142 7.84123C25.5142 7.84123 25.5419 7.84913 25.5841 7.85571C25.6442 7.86307 25.7048 7.84652 25.7529 7.80963C25.8728 7.72011 25.9243 7.47128 25.861 7.23957C25.8323 7.12849 25.7786 7.02538 25.7041 6.93808C25.6805 6.90137 25.6481 6.87109 25.6099 6.84995C25.5717 6.82881 25.5289 6.81747 25.4852 6.81696C25.4575 6.8176 25.4309 6.82799 25.4102 6.8463C25.3894 6.86461 25.3758 6.88966 25.3718 6.91702C25.3652 6.95783 25.381 6.98021 25.3718 6.98548C25.3626 6.99075 25.3375 6.97231 25.3323 6.9157C25.3304 6.88188 25.3402 6.84844 25.3599 6.82091C25.387 6.78356 25.4278 6.75846 25.4733 6.75114C25.5293 6.74622 25.5857 6.75575 25.6369 6.7788C25.6882 6.80185 25.7326 6.83766 25.766 6.88279C25.8534 6.97727 25.9163 7.09161 25.9493 7.21587C26.0166 7.47918 25.9572 7.75697 25.7871 7.86493C25.7557 7.88548 25.7201 7.89865 25.6829 7.90344C25.6456 7.90823 25.6078 7.90451 25.5722 7.89257C25.5313 7.87151 25.5116 7.84386 25.5142 7.84123Z"
		fill="#6F4439" />
	<path d="M22.0161 8.99717C21.9713 9.0077 22.053 9.30261 21.8592 9.58303C21.6654 9.86345 21.341 9.92006 21.3516 9.96219C21.3516 9.98194 21.4373 9.99905 21.5718 9.96219C21.7452 9.91561 21.8968 9.80988 22.0003 9.66334C22.0995 9.52164 22.1397 9.34696 22.1123 9.17622C22.0886 9.05378 22.0359 8.99059 22.0161 8.99717Z" fill="#263238" />
	<path
		d="M14.7921 5.77558C14.7921 5.69341 14.8243 5.6145 14.8818 5.55571C15.0118 5.44328 15.1691 5.367 15.338 5.33454C15.7435 5.20457 16.1144 4.98496 16.4231 4.69207C16.2773 4.66774 16.1363 4.62065 16.0051 4.55251C15.868 4.48494 15.7518 4.38135 15.6691 4.25286C15.5864 4.12436 15.5403 3.97582 15.5358 3.82315C15.5339 3.79456 15.5386 3.76591 15.5496 3.73943C15.5606 3.71295 15.5775 3.68934 15.599 3.67043C15.6755 3.62041 15.7718 3.68097 15.8496 3.72836C15.9534 3.80649 16.0764 3.85519 16.2057 3.86933C16.335 3.88346 16.4656 3.86251 16.584 3.80867C16.7519 3.74724 16.9038 3.64867 17.0283 3.52035C17.0283 3.51245 17.0349 3.50455 17.0388 3.49797C17.085 3.40844 17.1311 3.32418 17.1707 3.23466C17.5095 2.61325 17.8299 2.15905 18.2018 1.8602C18.7516 1.42179 19.7681 1.0084 20.4709 0.984699C21.1737 0.961001 21.9212 1.31515 22.2087 1.95499C22.4816 1.53764 23.0314 1.37703 23.5272 1.42837L23.5364 1.41916C24.0862 1.44812 24.524 1.88784 24.822 2.34995L24.8694 2.42631C25.1161 2.64422 25.412 2.79917 25.7317 2.87788C25.7884 2.89236 25.853 2.90948 25.8754 2.96345C25.8821 2.99132 25.8813 3.02043 25.8732 3.04791C25.8651 3.07538 25.85 3.10027 25.8293 3.12012C25.7382 3.24166 25.6217 3.34186 25.4878 3.41371C25.5669 3.52077 25.6551 3.62076 25.7515 3.71256C25.8359 3.79024 25.9361 3.88371 25.9176 3.99694C25.906 4.03999 25.8814 4.07845 25.8472 4.10716C25.8131 4.13587 25.7709 4.15345 25.7264 4.15755C25.637 4.1643 25.5472 4.15219 25.4627 4.12201L25.7528 4.46694C25.5824 4.55313 25.3941 4.59822 25.203 4.59859C25.2386 5.10283 25.4206 6.0007 25.3942 6.35749C25.0566 6.46544 24.963 6.45228 24.8075 6.56023C24.6084 6.69978 24.8074 7.0671 24.4884 7.04208C24.3236 7.02892 23.932 6.54048 23.8384 6.40488C23.2136 5.50623 22.79 4.48381 22.5963 3.40713C22.3248 3.24921 22.0253 3.14506 21.7142 3.10037L21.7419 3.11354C21.1631 3.08721 20.517 3.08589 20.0938 3.47954C19.7655 3.78497 19.6574 4.25234 19.4649 4.65652C19.0997 5.42406 18.5775 5.93093 17.7732 6.20872C17.8682 6.79589 18.1227 7.72537 18.2519 8.2612L17.4858 7.33962C17.4326 7.2896 17.382 7.23687 17.3342 7.18164L17.3184 7.16584C17.2434 7.07658 17.1637 6.99133 17.0797 6.91043C17.0334 6.97881 16.9639 7.02825 16.884 7.04968C16.8042 7.07111 16.7193 7.06312 16.6448 7.02715C16.5704 6.99119 16.5114 6.92966 16.4787 6.85383C16.446 6.778 16.4417 6.69294 16.4666 6.61421C16.4931 6.53956 16.5309 6.4694 16.5787 6.4062C16.5328 6.48804 16.4663 6.55656 16.3859 6.60503C16.3054 6.6535 16.2138 6.68026 16.1198 6.68267C16.026 6.68226 15.935 6.65093 15.8609 6.59356C15.7867 6.53619 15.7336 6.45598 15.7098 6.36538C15.6986 6.30268 15.7041 6.23814 15.7259 6.17828C15.7477 6.11841 15.7849 6.06533 15.8337 6.0244C15.6064 6.11203 15.3582 6.13036 15.1204 6.07706C14.9635 6.04678 14.7974 5.95463 14.7921 5.77558Z"
		fill="#263238" />
	<path
		d="M21.6879 2.3526C21.7705 2.38539 21.8507 2.42411 21.9278 2.46846C22.1291 2.60352 22.2921 2.78806 22.4012 3.00429C22.4801 3.15146 22.5437 3.3063 22.591 3.46639C22.6438 3.63886 22.6847 3.82712 22.7295 4.02592C22.7735 4.23544 22.8303 4.44208 22.8996 4.64469C22.9359 4.75133 22.9799 4.85517 23.0314 4.95539C23.0823 5.06491 23.1604 5.15963 23.2582 5.23055C23.3018 5.25712 23.3516 5.27194 23.4027 5.27356C23.4538 5.27517 23.5044 5.26353 23.5496 5.23977C23.6368 5.19553 23.7065 5.12316 23.7474 5.03439C23.8069 4.86539 23.8201 4.68357 23.7856 4.50777L23.7474 4.52357C23.8465 4.64778 23.9628 4.75728 24.0928 4.84875C24.2178 4.9313 24.3696 4.9633 24.5174 4.93828C24.586 4.92554 24.6495 4.89358 24.7006 4.84612C24.748 4.80071 24.7802 4.74189 24.7929 4.6776C24.8065 4.61866 24.8033 4.55711 24.7837 4.49987C24.7656 4.44511 24.7287 4.39849 24.6795 4.36822L24.665 4.39192C24.8145 4.48695 24.9827 4.5489 25.1582 4.5736C25.2045 4.58031 25.2511 4.58427 25.2979 4.58545C25.3137 4.58747 25.3296 4.58747 25.3454 4.58545C25.3296 4.58402 25.3137 4.58402 25.2979 4.58545C25.2663 4.58545 25.2201 4.57755 25.1661 4.56702C24.995 4.53669 24.8317 4.47221 24.6861 4.37743L24.6716 4.40113C24.7141 4.43116 24.7461 4.47372 24.7631 4.52283C24.7802 4.57194 24.7814 4.62514 24.7666 4.67497C24.7545 4.73244 24.725 4.78483 24.6822 4.82506C24.635 4.86694 24.577 4.89476 24.5147 4.90537C24.3766 4.92812 24.235 4.89701 24.1192 4.81847C23.9929 4.72882 23.8801 4.62153 23.7843 4.49987L23.7395 4.44721L23.746 4.51567C23.7792 4.6848 23.7669 4.85969 23.7104 5.02254C23.6734 5.10131 23.6112 5.16564 23.5338 5.20554C23.4953 5.22424 23.4526 5.23273 23.4099 5.2302C23.3672 5.22766 23.3258 5.21418 23.2898 5.19105C23.1983 5.12289 23.1261 5.03216 23.0802 4.92775C23.028 4.83016 22.9839 4.72844 22.9484 4.62363C22.879 4.42317 22.8218 4.21874 22.7769 4.01144C22.7321 3.81264 22.6886 3.62437 22.6345 3.44927C22.5842 3.28758 22.5175 3.13142 22.4355 2.98322C22.3224 2.7643 22.1526 2.57971 21.9437 2.44871C21.8646 2.40224 21.778 2.36973 21.6879 2.3526Z"
		fill="#455A64" />
	<path
		d="M16.4336 5.90465C16.4336 5.90465 16.4336 5.90465 16.4521 5.91255L16.5087 5.9323C16.5397 5.94388 16.5714 5.95312 16.6037 5.95995C16.647 5.97176 16.691 5.98056 16.7355 5.98628C17.0212 6.02457 17.3119 5.99202 17.582 5.89149C17.984 5.74227 18.3339 5.47975 18.5893 5.1358C18.8953 4.71433 19.112 4.235 19.2262 3.7271C19.2947 3.46379 19.3369 3.20049 19.3949 2.93718C19.4445 2.69525 19.5285 2.46163 19.6441 2.24337C19.7483 2.04601 19.9002 1.87769 20.0858 1.75361C20.1712 1.7007 20.2641 1.66118 20.3614 1.63644C20.4516 1.61517 20.5443 1.60588 20.637 1.60879C20.9212 1.62037 21.1907 1.73779 21.3925 1.93793C21.4634 2.01657 21.5249 2.10316 21.5757 2.19597C21.5757 2.19597 21.5757 2.18807 21.5678 2.17622L21.5428 2.12093C21.5059 2.05315 21.4616 1.98958 21.4109 1.93135C21.3259 1.8413 21.226 1.76649 21.1156 1.71017C20.9694 1.63326 20.8085 1.58838 20.6436 1.57851C20.5479 1.57515 20.4522 1.584 20.3588 1.60484C20.2573 1.62958 20.1603 1.67 20.0713 1.72465C19.8789 1.85043 19.7211 2.02245 19.6125 2.22493C19.4939 2.44675 19.4078 2.68439 19.3567 2.9306C19.2974 3.18337 19.2552 3.448 19.1879 3.71394C19.0737 4.21573 18.8603 4.68973 18.5603 5.10815C18.3106 5.4471 17.9688 5.70752 17.5754 5.85857C17.3108 5.96065 17.0253 5.99724 16.7434 5.96521C16.6391 5.95113 16.5356 5.93091 16.4336 5.90465Z"
		fill="#455A64" />
	<path
		d="M16.0144 5.13262C16.0144 5.13262 16.0421 5.14581 16.0948 5.16031C16.1701 5.17981 16.2468 5.19348 16.3243 5.20118C16.4393 5.21463 16.5554 5.21771 16.671 5.21041C16.8125 5.20144 16.9529 5.17937 17.0903 5.14449C17.2273 5.10666 17.3606 5.05635 17.4885 4.99418C17.5923 4.94302 17.6916 4.88303 17.7852 4.81486C17.8487 4.76995 17.9087 4.72013 17.9645 4.66587C17.9837 4.64517 18.001 4.62265 18.0159 4.59863C18.0093 4.59204 17.9223 4.67642 17.7601 4.78454C17.666 4.84766 17.5673 4.90364 17.4648 4.95199C17.3372 5.0106 17.2049 5.05824 17.0692 5.09438C16.9346 5.12841 16.7975 5.15178 16.6591 5.16427C16.5455 5.17221 16.4313 5.17221 16.3177 5.16427C16.1331 5.15504 16.0157 5.12603 16.0144 5.13262Z"
		fill="#455A64" />
	<path d="M16.7105 16.9741C16.7105 16.9741 16.5193 16.4357 17.168 15.7103C17.8167 14.9848 21.8869 13.4537 21.8869 13.4537C21.8869 13.4537 23.3979 14.923 25.108 13.9948C26.4384 13.272 26.3356 12.1385 26.3356 12.1385L31.5107 13.0035L31.686 16.9083L29.8322 16.9188L16.7105 16.9741Z" fill="#005AFF" />
	<path d="M25.7198 23.6003L32.1027 21.6018L30.0142 16.5581L34.0396 16.6345C34.0396 16.6345 36.9403 22.2956 35.8446 23.9452C34.8439 25.45 26.6059 25.7528 26.6059 25.7528L25.7198 23.6003Z" fill="#AE7461" />
	<path d="M27.5236 26.881L27.4972 27.2246C27.4735 27.5314 27.1017 27.7434 26.7496 27.6591L20.2112 27.0008L20.3325 25.9673L26.9316 26.1898C27.3772 26.1898 27.5552 26.4861 27.5236 26.881Z" fill="#455A64" />
	<path
		d="M17.7797 29.8393C17.1907 30.0701 16.5554 30.1587 15.9255 30.0978C15.2957 30.0369 14.6892 29.8283 14.1554 29.4889C13.6217 29.1496 13.1758 28.6891 12.8541 28.145C12.5324 27.6009 12.344 26.9886 12.3043 26.358C12.2646 25.7274 12.3747 25.0964 12.6255 24.5163C12.8764 23.9363 13.261 23.4236 13.748 23.0202C14.235 22.6167 14.8105 22.3339 15.4278 22.1947C16.045 22.0555 16.6864 22.0639 17.2998 22.2192C18.1245 22.4271 18.8618 22.8912 19.4053 23.5446C19.9487 24.1979 20.2704 25.0068 20.3238 25.8544C20.3772 26.7021 20.1595 27.5448 19.7023 28.261C19.2451 28.9771 18.5719 29.5298 17.7797 29.8393ZM14.9476 22.6234C14.1167 22.9492 13.4298 23.5607 13.0105 24.3476C12.5913 25.1345 12.4674 26.045 12.6612 26.9151C12.8549 27.7852 13.3536 28.5575 14.0672 29.0929C14.7809 29.6282 15.6626 29.8914 16.5535 29.835C17.4444 29.7786 18.2857 29.4062 18.9259 28.7851C19.5661 28.164 19.963 27.3349 20.0451 26.4474C20.1272 25.5598 19.889 24.6722 19.3736 23.9445C18.8581 23.2168 18.0993 22.6969 17.2339 22.4785C16.4753 22.2871 15.6758 22.3378 14.9476 22.6234Z"
		fill="#263238" />
	<path
		d="M17.7521 29.601C17.1631 29.8304 16.5281 29.9177 15.8989 29.8558C15.2697 29.7939 14.664 29.5846 14.1311 29.2448C13.5982 28.905 13.1532 28.4444 12.8323 27.9004C12.5114 27.3565 12.3236 26.7446 12.2843 26.1145C12.2449 25.4844 12.3551 24.8539 12.6059 24.2744C12.8567 23.6948 13.241 23.1826 13.7275 22.7794C14.214 22.3761 14.7889 22.0933 15.4056 21.9538C16.0222 21.8144 16.6631 21.8223 17.2762 21.9769C18.1015 22.185 18.8392 22.6496 19.3829 23.3036C19.9265 23.9576 20.2481 24.7672 20.301 25.6155C20.354 26.4638 20.1356 27.3069 19.6775 28.0233C19.2194 28.7396 18.5452 29.2921 17.7521 29.601ZM14.9253 22.385C14.0939 22.7108 13.4065 23.3224 12.987 24.1096C12.5674 24.8968 12.4433 25.8077 12.637 26.6782C12.8308 27.5487 13.3296 28.3214 14.0436 28.8571C14.7576 29.3927 15.6397 29.6561 16.531 29.5996C17.4222 29.5431 18.264 29.1705 18.9044 28.549C19.5448 27.9275 19.9418 27.098 20.0237 26.2101C20.1057 25.3221 19.8672 24.4341 19.3514 23.7062C18.8355 22.9783 18.0761 22.4584 17.2102 22.2402C16.4521 22.0492 15.6531 22.0998 14.9253 22.385Z"
		fill="#455A64" />
	<path
		d="M18.4417 23.3146C18.4224 23.3038 18.4043 23.291 18.3877 23.2764C18.3521 23.2514 18.3059 23.2066 18.236 23.1632C18.047 23.0308 17.8424 22.922 17.6269 22.8393C16.9101 22.5706 16.1288 22.5247 15.3854 22.7076C15.1752 22.7613 14.9707 22.8353 14.775 22.9288C14.594 23.0184 14.4211 23.1232 14.2581 23.2422C13.9822 23.445 13.739 23.6887 13.5369 23.9649C13.3996 24.1506 13.2829 24.3505 13.1888 24.5613C13.1519 24.635 13.1334 24.693 13.115 24.7351C13.0965 24.7772 13.0899 24.7957 13.0873 24.7943C13.0922 24.7728 13.0989 24.7517 13.1071 24.7312C13.1229 24.6917 13.1387 24.6298 13.173 24.5547C13.2621 24.3396 13.3758 24.1355 13.5118 23.9465C13.7138 23.6655 13.9574 23.4169 14.2344 23.2092C14.4009 23.0884 14.5773 22.9819 14.7618 22.8906C14.9599 22.7957 15.1671 22.7207 15.3802 22.6668C15.5929 22.6136 15.81 22.5797 16.0289 22.5655C16.2327 22.5519 16.4373 22.555 16.6406 22.5747C16.8245 22.5917 17.0069 22.6216 17.1865 22.6642C17.3421 22.7041 17.495 22.7543 17.644 22.8143C17.8611 22.8999 18.0659 23.0136 18.2532 23.1526C18.3046 23.1892 18.3535 23.2293 18.3995 23.2724C18.415 23.285 18.4291 23.2991 18.4417 23.3146Z"
		fill="white" />
	<path
		d="M18.3362 28.6202C18.3362 28.6123 18.4997 28.5136 18.7317 28.3003L18.8188 28.2147C18.8491 28.1857 18.8781 28.1515 18.9084 28.1173C18.9738 28.045 19.0354 27.9694 19.093 27.8908C19.3591 27.5306 19.5436 27.1168 19.6336 26.6783C19.6535 26.583 19.6685 26.4868 19.6784 26.39C19.6784 26.3439 19.6903 26.3005 19.6916 26.2583C19.6929 26.2162 19.6916 26.1754 19.6916 26.1359C19.6916 25.8239 19.6586 25.633 19.6692 25.6317C19.6809 25.6748 19.6893 25.7188 19.6942 25.7633C19.7041 25.8155 19.7102 25.8683 19.7127 25.9213C19.7194 25.9917 19.7225 26.0625 19.7219 26.1333C19.7219 26.1741 19.7219 26.2149 19.7219 26.257C19.7219 26.2991 19.7153 26.3452 19.7114 26.3887C19.7029 26.4867 19.6892 26.5843 19.6705 26.6809C19.5831 27.1265 19.3956 27.5465 19.122 27.9093C19.0631 27.9883 18.9997 28.0639 18.9321 28.1357C18.9005 28.1699 18.8715 28.2042 18.8399 28.2331L18.7489 28.3174C18.6969 28.3643 18.6423 28.4082 18.5854 28.449C18.544 28.4833 18.4999 28.5141 18.4535 28.5412C18.4171 28.5713 18.3778 28.5977 18.3362 28.6202Z"
		fill="white" />
	<path d="M18.0831 24.8602C18.0831 24.8721 17.3461 24.9472 16.4363 25.029C15.5265 25.1107 14.7882 25.1608 14.7869 25.1608C14.7855 25.1608 15.5226 25.0738 16.4337 24.9921C17.3448 24.9103 18.0818 24.8484 18.0831 24.8602Z" fill="white" />
	<path
		d="M18.5089 26.0016C18.4913 26.003 18.4737 26.003 18.4561 26.0016L18.3045 26.0109L17.7442 26.0385C17.2721 26.0623 16.6208 26.0952 15.8983 26.1401C15.1757 26.1849 14.527 26.2337 14.0524 26.2719L13.4946 26.3141L13.343 26.3233C13.3251 26.326 13.3069 26.326 13.2889 26.3233L13.3417 26.3141L13.4933 26.297C13.6252 26.2825 13.815 26.2627 14.051 26.2416C14.5217 26.1968 15.1731 26.144 15.8969 26.0992C16.6208 26.0544 17.2708 26.0254 17.7428 26.0095C17.9788 26.0016 18.17 25.9977 18.3019 25.995H18.4548C18.4731 25.9942 18.4914 25.9965 18.5089 26.0016Z"
		fill="white" />
	<g opacity="0.3">
		<path d="M12.6258 25.442L19.8934 24.9931C19.8934 24.9931 20.0754 25.6514 20.0332 26.0898L12.61 26.5413C12.5445 26.1773 12.5499 25.8041 12.6258 25.442Z" fill="white" />
	</g>
	<g opacity="0.3">
		<path d="M12.8157 27.2589L19.925 26.7849C19.925 26.7849 19.9725 26.7665 19.8275 27.0785L12.9343 27.5314C12.8745 27.4508 12.8339 27.3576 12.8157 27.2589Z" fill="white" />
	</g>
	<path
		d="M25.7198 23.6003C25.7198 23.6003 22.0583 24.6614 21.9541 24.722C21.85 24.7825 20.4075 25.8068 20.3812 26.1767C20.3548 26.5467 20.84 28.2042 20.84 28.2042C20.84 28.2042 21.3331 28.274 21.3674 27.3893L21.4043 26.5046L22.0108 25.9608C22.0108 25.9608 21.7867 26.9851 21.8434 27.2774C21.9001 27.5696 22.3813 28.2977 22.6516 28.2398C22.8124 28.2051 22.9582 28.1208 23.0683 27.9988C23.0683 27.9988 23.3043 28.6571 23.9912 28.2621C23.9912 28.2621 24.4421 28.4504 24.7955 28.2714C25.1489 28.0923 25.4693 27.5222 25.4693 27.5222C25.474 27.4762 25.4683 27.4296 25.4525 27.3861C25.4367 27.3426 25.4112 27.3032 25.3779 27.2709C25.3447 27.2386 25.3046 27.2142 25.2606 27.1996C25.2166 27.185 25.1698 27.1805 25.1238 27.1865C24.8678 27.2119 24.6238 27.3071 24.4184 27.4617L24.3828 27.0904C24.6433 26.7779 24.947 26.504 25.2847 26.2768C25.5747 26.103 26.7733 26.0754 27.1451 25.6975C27.4615 25.3763 26.8656 24.6706 26.4687 24.456C26.4091 24.4239 26.3452 24.4009 26.2788 24.3876L25.7198 23.6003Z"
		fill="#AE7461" />
	<path
		d="M23.6418 26.5493C23.6256 26.5694 23.6118 26.5915 23.601 26.6151C23.5696 26.6768 23.5436 26.7411 23.5232 26.8073C23.4563 27.0286 23.4467 27.2633 23.4955 27.4893C23.5458 27.715 23.6534 27.924 23.808 28.0962C23.8534 28.1488 23.9042 28.1964 23.9596 28.2384C23.978 28.2561 23.9995 28.2703 24.0229 28.2805C24.0229 28.2805 23.9385 28.212 23.8278 28.0791C23.6836 27.9058 23.5824 27.701 23.5324 27.4814C23.4849 27.2611 23.4908 27.0327 23.5495 26.8152C23.5944 26.648 23.6484 26.5532 23.6418 26.5493Z"
		fill="#6F4439" />
	<path
		d="M22.9536 26.0266C22.9367 26.0479 22.9225 26.0714 22.9114 26.0963C22.8956 26.1244 22.8815 26.1534 22.8692 26.1832C22.8515 26.2213 22.8361 26.2604 22.8231 26.3004C22.7863 26.4045 22.7585 26.5115 22.74 26.6203C22.7195 26.754 22.712 26.8894 22.7176 27.0245C22.7251 27.1577 22.7449 27.2899 22.7769 27.4194C22.8054 27.5258 22.8425 27.6297 22.8877 27.7301C22.9062 27.7736 22.9286 27.8105 22.9457 27.8434C22.9603 27.8715 22.9766 27.8988 22.9945 27.925C23.0074 27.9492 23.0238 27.9714 23.0433 27.9908C23.0499 27.9908 22.9853 27.8908 22.9114 27.7196C22.8698 27.6192 22.8358 27.5158 22.8099 27.4102C22.7797 27.2804 22.7607 27.1483 22.7532 27.0153C22.7447 26.874 22.7469 26.7323 22.7598 26.5913C22.7799 26.4924 22.8091 26.3954 22.8468 26.3017C22.9048 26.1319 22.9602 26.0305 22.9536 26.0266Z"
		fill="#6F4439" />
	<path d="M22.2232 25.3394C22.2232 25.3394 22.185 25.3604 22.1415 25.4144C22.0859 25.4854 22.0475 25.5683 22.0294 25.6566C22.0052 25.7427 22.0052 25.8338 22.0294 25.9199C22.0465 25.9858 22.0703 26.0226 22.0742 26.02C22.046 25.9022 22.042 25.78 22.0623 25.6606C22.0949 25.5442 22.1495 25.4352 22.2232 25.3394Z" fill="#6F4439" />
	<path
		d="M34.2875 22.5905C34.2756 22.5905 34.211 22.4456 34.0501 22.2442C33.841 21.9817 33.5689 21.7762 33.259 21.6465C32.9454 21.5247 32.6026 21.4986 32.2741 21.5715C32.021 21.6241 31.8707 21.6886 31.8667 21.6768C31.8976 21.6538 31.9319 21.6356 31.9682 21.6228C32.064 21.5825 32.1628 21.5494 32.2636 21.5241C32.6015 21.4349 32.9591 21.4561 33.2841 21.5846C33.6064 21.7155 33.8858 21.9334 34.091 22.2139C34.1525 22.2964 34.206 22.3846 34.2506 22.4772C34.2693 22.5126 34.2818 22.5509 34.2875 22.5905Z"
		fill="#6F4439" />
	<path d="M29.1124 15.2455C29.0491 13.1153 31.8285 12.1687 33.0679 13.8974L33.089 13.9276C34.2638 15.5983 35.6838 19.5479 35.6838 19.5479L30.655 20.3286L29.3998 16.9056C29.2307 16.3674 29.134 15.8092 29.1124 15.2455Z" fill="#005AFF" />
	<path
		d="M13.4354 16.7384C13.4433 16.7568 13.4512 16.7752 13.4578 16.7937C13.4882 16.8784 13.506 16.9671 13.5106 17.057C13.5094 17.0988 13.5116 17.1406 13.5172 17.1821C13.5259 17.2082 13.5374 17.2334 13.5514 17.2571C13.6038 17.4274 13.6195 17.6069 13.5976 17.7837C13.5748 17.9752 13.6082 18.1691 13.6938 18.3419C13.794 18.5052 14.0274 18.6052 14.1856 18.4933C14.178 18.5541 14.193 18.6156 14.2278 18.666C14.2625 18.7165 14.3146 18.7525 14.3742 18.7672C14.4343 18.7793 14.4964 18.7761 14.555 18.7579C14.6135 18.7398 14.6665 18.7072 14.7091 18.6632C14.7929 18.5736 14.8508 18.4631 14.8765 18.3432C14.8802 18.4139 14.9108 18.4805 14.962 18.5295C15.0132 18.5784 15.0812 18.606 15.1521 18.6065C15.2242 18.603 15.2943 18.5813 15.3558 18.5436C15.4173 18.5059 15.4683 18.4533 15.5041 18.3906C15.5738 18.2651 15.6148 18.1257 15.6241 17.9825C15.6432 17.7985 15.6722 17.6157 15.7111 17.4348C15.7111 17.4348 15.8918 17.4638 15.9748 17.4717H15.9986C16.0615 17.3757 16.1191 17.2764 16.1713 17.1742C16.286 16.9372 16.3743 16.7884 16.4614 16.5738C16.5273 16.4132 16.5708 16.2526 16.4706 16.1486C16.2319 15.8971 15.7639 16.4119 15.7639 16.4119C15.698 16.2341 15.1547 16.2052 15.0479 16.4422C15.0057 16.3105 15.0216 16.2368 14.9161 16.1486C14.864 16.1034 14.8021 16.071 14.7352 16.0541C14.6683 16.0371 14.5984 16.0361 14.5311 16.0512C14.4644 16.069 14.4053 16.1081 14.363 16.1625C14.3206 16.2169 14.2972 16.2837 14.2964 16.3526C14.2385 16.2636 14.1551 16.194 14.057 16.1532C13.9589 16.1123 13.8507 16.102 13.7466 16.1236C13.6213 16.1536 13.5118 16.2292 13.4394 16.3355C13.4025 16.3871 13.3757 16.4452 13.3603 16.5067C13.3525 16.5296 13.3485 16.5536 13.3484 16.5778C13.3499 16.5889 13.3535 16.5996 13.3589 16.6094C13.3827 16.6502 13.4143 16.691 13.4354 16.7384Z"
		fill="#AE7461" />
	<path
		d="M12.8618 16.3922C12.8027 16.3857 12.7429 16.392 12.6865 16.4106C12.6301 16.4292 12.5783 16.4598 12.5348 16.5001C12.4486 16.634 12.4127 16.7939 12.4333 16.9517C12.5968 16.9833 12.6825 16.9886 12.846 17.0202C12.8802 17.0268 12.9093 17.0202 12.9383 17.0386C13.0134 17.0913 13.0016 17.273 13.0319 17.3598C13.0642 17.4328 13.1229 17.4908 13.1963 17.5223C13.2696 17.5538 13.3522 17.5564 13.4274 17.5297C13.5015 17.4977 13.5649 17.4453 13.6102 17.3786C13.6555 17.3119 13.6808 17.2337 13.6832 17.1531C13.6853 16.9906 13.6271 16.833 13.5197 16.7108C13.4379 16.6154 13.3372 16.5378 13.224 16.483C13.1108 16.4282 12.9875 16.3973 12.8618 16.3922Z"
		fill="#AE7461" />
	<path d="M14.2977 16.3013C14.328 16.3013 14.328 16.7937 14.2977 17.3967C14.2673 17.9997 14.2159 18.4881 14.1856 18.4868C14.1553 18.4855 14.1553 17.9944 14.1856 17.3914C14.2159 16.7885 14.2673 16.3 14.2977 16.3013Z" fill="#6F4439" />
	<path d="M15.0518 16.4053C15.0808 16.4053 15.1204 16.8503 15.0729 17.3993C15.0254 17.9483 14.9107 18.3814 14.8817 18.3748C14.8527 18.3682 14.916 17.9311 14.9622 17.39C15.0083 16.8489 15.0188 16.4066 15.0518 16.4053Z" fill="#6F4439" />
	<path d="M15.7889 16.5067C15.8192 16.5067 15.8324 16.878 15.7757 17.3269C15.719 17.7759 15.6438 18.1353 15.6188 18.1326C15.5937 18.13 15.6069 17.7614 15.6649 17.3138C15.7229 16.8661 15.7585 16.5067 15.7889 16.5067Z" fill="#6F4439" />
	<path
		d="M13.0978 16.4685C13.0978 16.4554 13.1769 16.4382 13.2903 16.4896C13.433 16.5636 13.5412 16.6901 13.5922 16.8424C13.6446 16.9866 13.6696 17.1393 13.6661 17.2927C13.6529 17.4243 13.554 17.4678 13.5527 17.4507C13.5514 17.4335 13.5975 17.3914 13.5883 17.29C13.5677 17.1507 13.5341 17.0137 13.4881 16.8806C13.4438 16.7514 13.361 16.6388 13.2507 16.558C13.165 16.4975 13.0965 16.4856 13.0978 16.4685Z"
		fill="#6F4439" />
	<path
		d="M31.5556 13.1561C31.372 13.2218 31.192 13.2969 31.0163 13.3813C30.5964 13.5954 30.2401 13.9158 29.9828 14.3103C29.7256 14.7049 29.5764 15.1598 29.5501 15.6299C29.5277 15.9906 29.5765 16.2131 29.562 16.2144C29.5437 16.1643 29.5318 16.1121 29.5264 16.0591C29.5049 15.9162 29.4965 15.7717 29.5013 15.6273C29.5147 15.1454 29.6612 14.6766 29.9245 14.2726C30.1879 13.8685 30.558 13.5451 30.9939 13.3378C31.1241 13.2745 31.2601 13.2238 31.4 13.1864C31.4502 13.1694 31.5026 13.1592 31.5556 13.1561Z"
		fill="#263238" />
	<path d="M52.8073 59.9578L52.5806 54.4942L65.7062 54.5455L67.266 59.9578H52.8073Z" fill="#263238" />
	<path
		d="M56.0799 60C56.0571 59.9588 56.0407 59.9144 56.0311 59.8683C56.0047 59.7854 55.9691 59.6642 55.9309 59.5128C55.8544 59.2127 55.7621 58.794 55.6672 58.328C55.5723 57.8619 55.4879 57.463 55.422 57.1431C55.3916 57.0035 55.3653 56.8798 55.3442 56.785C55.3308 56.7422 55.3228 56.698 55.3204 56.6533C55.3437 56.6944 55.3606 56.7388 55.3705 56.785C55.3969 56.8679 55.4312 56.9877 55.4694 57.1391C55.5472 57.4393 55.6382 57.858 55.7331 58.324L55.977 59.5089C56.0074 59.6484 56.0337 59.7722 56.0548 59.867C56.0688 59.9101 56.0772 59.9548 56.0799 60Z"
		fill="#455A64" />
	<path
		d="M65.6139 56.993C65.6139 56.993 65.6007 57.0035 65.5717 57.018C65.5427 57.0325 65.5019 57.0548 65.4399 57.0759C65.2801 57.1367 65.1144 57.1808 64.9455 57.2076C64.3836 57.2907 63.8102 57.2457 63.2683 57.0759C62.7317 56.9038 62.2119 56.6835 61.7151 56.4176L61.2629 56.182C61.2053 56.1573 61.1509 56.1259 61.1007 56.0885C61.1606 56.1068 61.2188 56.1301 61.2747 56.1583C61.3842 56.2083 61.5384 56.282 61.7362 56.3742C62.236 56.6259 62.7544 56.8389 63.2868 57.0114C63.82 57.1786 64.3828 57.2302 64.9375 57.1628C65.1674 57.1255 65.3937 57.0687 65.6139 56.993Z"
		fill="#455A64" />
	<path d="M56.5071 57.226C56.7438 57.226 56.9356 57.0345 56.9356 56.7982C56.9356 56.5619 56.7438 56.3703 56.5071 56.3703C56.2705 56.3703 56.0786 56.5619 56.0786 56.7982C56.0786 57.0345 56.2705 57.226 56.5071 57.226Z" fill="#455A64" />
	<path d="M61.2669 29.6037C61.5859 28.8138 61.9024 28.0239 62.0817 27.1866C62.261 26.3493 62.2953 25.4751 62.0553 24.6601C62.0184 24.5364 61.6927 23.6991 61.5635 23.703C61.4712 23.703 61.6545 24.4771 61.6018 24.5535C61.106 25.2815 60.9227 26.186 60.932 27.0668C60.9491 27.9222 61.0615 28.7731 61.2669 29.6037Z" fill="#263238" />
	<path
		d="M56.1669 33.9773C56.2025 33.3769 56.2289 32.903 56.2249 32.903C56.221 32.903 54.1786 32.5515 54.1865 30.503C54.1865 29.5129 54.3632 27.4749 54.5425 25.6318C54.6352 24.6768 55.0845 23.7917 55.8011 23.1525C56.5177 22.5134 57.449 22.167 58.4097 22.1824H58.6075C60.7395 22.3417 61.7956 24.2389 61.5781 26.3624L61.0507 33.8154L59.483 35.436C58.233 36.7289 56.0549 35.7625 56.1669 33.9694V33.9773Z"
		fill="#FFBF9D" />
	<path d="M56.2249 32.903C57.1723 32.9163 58.1036 32.6577 58.9081 32.1578C58.9081 32.1578 58.233 33.6376 56.1893 33.4191L56.2249 32.903Z" fill="#0064FA" />
	<path
		d="M55.0277 27.4424C55.0256 27.5188 55.0535 27.593 55.1055 27.649C55.1576 27.705 55.2295 27.7383 55.3059 27.7417C55.3435 27.7453 55.3814 27.7413 55.4173 27.7298C55.4533 27.7184 55.4866 27.6998 55.5152 27.6752C55.5437 27.6505 55.567 27.6203 55.5836 27.5865C55.6003 27.5526 55.6098 27.5157 55.6118 27.478C55.614 27.4014 55.586 27.3271 55.534 27.2709C55.482 27.2147 55.4101 27.1811 55.3336 27.1774C55.2959 27.1738 55.2579 27.1778 55.2219 27.1893C55.1858 27.2009 55.1525 27.2196 55.1239 27.2443C55.0953 27.2691 55.072 27.2995 55.0555 27.3335C55.0389 27.3675 55.0295 27.4046 55.0277 27.4424Z"
		fill="#263238" />
	<path d="M54.9671 26.492C55.0027 26.5302 55.2308 26.3693 55.5433 26.3759C55.8558 26.3825 56.0865 26.5434 56.1208 26.5078C56.138 26.4906 56.1023 26.4208 56.0035 26.3469C55.8691 26.2508 55.7085 26.1983 55.5433 26.1966C55.3794 26.1907 55.2179 26.2369 55.0818 26.3285C54.9843 26.4062 54.95 26.4748 54.9671 26.492Z" fill="#263238" />
	<path
		d="M57.8375 27.6162C57.8357 27.6927 57.8637 27.7668 57.9156 27.823C57.9676 27.8791 58.0393 27.9128 58.1157 27.9169C58.1532 27.9203 58.1911 27.9161 58.2269 27.9046C58.2628 27.8931 58.296 27.8745 58.3246 27.8499C58.3531 27.8253 58.3764 27.7952 58.3931 27.7614C58.4097 27.7276 58.4194 27.6908 58.4216 27.6532C58.4234 27.5769 58.3956 27.503 58.3439 27.4469C58.2922 27.3908 58.2208 27.357 58.1447 27.3525C58.1071 27.3489 58.0691 27.353 58.033 27.3644C57.997 27.3758 57.9636 27.3944 57.935 27.419C57.9063 27.4436 57.8829 27.4738 57.8661 27.5077C57.8494 27.5416 57.8396 27.5785 57.8375 27.6162Z"
		fill="#263238" />
	<path d="M57.9008 26.6499C57.9364 26.6895 58.1645 26.5286 58.4757 26.5339C58.7868 26.5392 59.0189 26.7014 59.0545 26.6658C59.0716 26.6499 59.036 26.5801 58.9358 26.5049C58.8008 26.4081 58.6391 26.3556 58.473 26.3546C58.3091 26.3512 58.1484 26.4002 58.0142 26.4944C57.9166 26.5642 57.8823 26.6328 57.9008 26.6499Z" fill="#263238" />
	<path
		d="M56.8829 29.0693C56.8829 29.0509 56.6891 29.014 56.3727 28.9679C56.2922 28.9587 56.2158 28.9416 56.2039 28.8863C56.1983 28.8034 56.218 28.7207 56.2606 28.6493C56.3397 28.4562 56.4223 28.2535 56.5085 28.0411C56.8539 27.1748 57.1044 26.4612 57.0702 26.4481C57.0359 26.4349 56.7273 27.1261 56.3819 27.9924L56.1446 28.6045C56.0915 28.7004 56.0746 28.812 56.0971 28.9192C56.1084 28.9479 56.1262 28.9737 56.1491 28.9944C56.1719 29.0152 56.1992 29.0305 56.2289 29.039C56.2719 29.0512 56.3162 29.0583 56.3608 29.0601C56.5338 29.0848 56.7092 29.0879 56.8829 29.0693Z"
		fill="#263238" />
	<path d="M57.9442 25.5902C57.9877 25.6706 58.2936 25.5823 58.6654 25.5704C59.0373 25.5585 59.3484 25.6126 59.3853 25.5282C59.4012 25.4887 59.3379 25.4175 59.206 25.3542C59.0325 25.2755 58.8425 25.2398 58.6523 25.25C58.4615 25.2569 58.275 25.3084 58.1077 25.4003C57.9825 25.4755 57.9244 25.5519 57.9442 25.5902Z" fill="#263238" />
	<path d="M55.0791 25.3927C55.1332 25.4639 55.3507 25.3927 55.6065 25.3927C55.8623 25.3927 56.0891 25.4494 56.1405 25.3756C56.1629 25.3386 56.1299 25.2661 56.035 25.1976C55.9063 25.1144 55.7558 25.0713 55.6025 25.0736C55.4493 25.076 55.3002 25.1237 55.174 25.2108C55.0857 25.2833 55.0541 25.3571 55.0791 25.3927Z" fill="#263238" />
	<path d="M61.3856 27.8844C61.4212 27.8699 62.8017 27.4894 62.7344 28.8902C62.6672 30.291 61.2735 29.9329 61.2722 29.8934C61.2709 29.8539 61.3856 27.8844 61.3856 27.8844Z" fill="#FFBF9D" />
	<path
		d="M61.7271 29.3839C61.7271 29.3839 61.7495 29.401 61.7904 29.4221C61.8469 29.4502 61.9123 29.455 61.9723 29.4353C62.1239 29.3879 62.2597 29.1588 62.2782 28.9087C62.2882 28.7887 62.2706 28.668 62.2268 28.5558C62.2157 28.5116 62.194 28.4707 62.1637 28.4365C62.1334 28.4024 62.0954 28.376 62.0527 28.3597C62.0249 28.3522 61.9954 28.3542 61.9687 28.3651C61.942 28.376 61.9197 28.3954 61.9051 28.4202C61.884 28.4584 61.8919 28.486 61.884 28.4887C61.8761 28.4913 61.855 28.4637 61.8695 28.4071C61.8786 28.3725 61.8996 28.3422 61.9288 28.3215C61.9675 28.2954 62.0146 28.2851 62.0607 28.2925C62.1176 28.3065 62.1701 28.3349 62.2128 28.375C62.2555 28.4152 62.2872 28.4656 62.3046 28.5216C62.3583 28.646 62.3809 28.7815 62.3705 28.9166C62.3481 29.1983 62.1912 29.4563 61.9855 29.505C61.9473 29.5139 61.9076 29.5141 61.8692 29.5057C61.8309 29.4973 61.795 29.4804 61.764 29.4563C61.7271 29.4168 61.7218 29.3852 61.7271 29.3839Z"
		fill="#0064FA" />
	<path
		d="M55.5815 23.3686C55.3613 23.2304 56.0839 22.5353 56.6561 22.3154C57.5197 21.981 58.8185 21.8204 59.5832 22.0837C60.5061 22.4023 61.2524 22.9105 61.6743 23.7873C62.0782 24.6775 62.2375 25.659 62.1358 26.631C62.1306 26.9293 62.0455 27.2207 61.8892 27.4749C61.677 27.7724 61.2893 27.9462 61.2814 28.3741C61.2825 28.4517 61.268 28.5287 61.2388 28.6006C61.2096 28.6725 61.1663 28.7379 61.1113 28.7928C60.8397 29.0561 60.5417 28.777 60.4112 28.5123C60.1343 27.9462 60.1383 27.2906 60.1475 26.6613C60.1475 26.2137 60.162 25.7568 60.3123 25.3355C60.3941 25.1065 60.5167 24.8919 60.5866 24.6588C60.628 24.5441 60.6442 24.4218 60.6339 24.3002C60.6237 24.1786 60.5873 24.0607 60.5272 23.9545C60.4947 23.9111 60.4585 23.8706 60.4191 23.8334C60.2336 23.652 60.003 23.5232 59.7511 23.4603C59.4993 23.3974 59.2351 23.4025 58.9859 23.4753C58.1803 23.7096 56.8091 24.0493 56.4728 23.761C55.989 23.3476 55.8822 23.0908 55.8822 23.0908L55.5815 23.3686Z"
		fill="#263238" />
	<path d="M56.9396 30.1567C56.9396 30.1818 57.0094 30.2134 57.1308 30.2094C57.2889 30.1994 57.4409 30.1446 57.5689 30.0513C57.6969 29.958 57.7956 29.8302 57.8533 29.6828C57.8915 29.5682 57.8823 29.4906 57.8533 29.4853C57.8006 29.4721 57.7017 29.7197 57.4498 29.9C57.198 30.0804 56.9422 30.1028 56.9396 30.1567Z" fill="#263238" />
	<path
		d="M44.0327 40.5246C43.7453 40.0533 43.4051 39.5399 43.4051 39.5399L43.1256 39.0672C43.1026 39.0957 43.0814 39.1256 43.0623 39.1568C43.0325 39.2198 42.9872 39.2741 42.9305 39.3147C42.8683 39.3381 42.8006 39.3421 42.7362 39.3264C42.6717 39.3106 42.6135 39.2758 42.5692 39.2265C42.4671 39.1326 42.3912 39.0138 42.3489 38.8818C42.3066 38.7498 42.2994 38.6091 42.3279 38.4735C42.3587 38.3443 42.4216 38.2249 42.5107 38.1265C42.5999 38.028 42.7125 37.9535 42.8382 37.91C42.8744 37.8433 42.9237 37.7847 42.9832 37.7375C43.3787 37.4123 44.0987 37.6335 44.0987 37.6335L44.0248 37.4545C44.0248 37.4545 43.5976 37.0332 42.6549 37.3636C42.5143 37.417 42.359 37.417 42.2185 37.3636C42.1749 37.3489 42.1352 37.3247 42.1022 37.2929C42.0691 37.261 42.0435 37.2222 42.0273 37.1793C41.9521 36.9489 42.0972 36.837 42.6865 36.6224C43.2759 36.4078 43.9088 36.396 44.2608 36.6224C44.4263 36.725 44.5845 36.839 44.7342 36.9634C44.7342 36.9634 44.158 35.3111 44.1263 35.2045C44.0327 34.8978 44.0921 34.6002 44.2912 34.5199C44.423 34.4672 44.6181 34.4975 44.7381 34.8504C44.841 35.1571 46.3019 38.1628 46.3019 38.1628L46.8701 39.5293L47.1549 40.734L45.1033 41.3106L44.9557 41.2606C44.5704 41.1322 44.2433 40.8714 44.0327 40.5246Z"
		fill="#FFBF9D" />
	<path d="M46.5538 39.5017C46.3955 39.607 46.174 39.5386 46.0264 39.4161C45.8787 39.2937 45.7798 39.1252 45.6427 38.9922C45.2326 38.5972 44.5575 38.563 44.1673 38.147C44.1132 38.089 44.0644 38.0008 44.1093 37.935C44.1541 37.8692 44.2411 37.8823 44.3136 37.8955L46.1701 38.2444" fill="#FFBF9D" />
	<path
		d="M46.1714 38.2443C46.1087 38.2165 46.0427 38.1971 45.9749 38.1863C45.8431 38.1561 45.6611 38.1153 45.4304 38.0665L44.6195 37.9033L44.3848 37.8572C44.2929 37.824 44.1915 37.8282 44.1027 37.8691C44.0774 37.888 44.0584 37.914 44.048 37.9438C44.0377 37.9736 44.0365 38.0058 44.0447 38.0363C44.0597 38.0851 44.0854 38.1301 44.1198 38.1679C44.1832 38.2361 44.2539 38.297 44.3308 38.3496C44.6433 38.5589 44.9821 38.6432 45.2537 38.7814C45.3835 38.8419 45.5034 38.9213 45.6097 39.0171C45.706 39.1079 45.7838 39.2119 45.8642 39.3001C45.9222 39.3781 45.9964 39.4426 46.0818 39.4892C46.1671 39.5358 46.2616 39.5633 46.3586 39.57C46.501 39.57 46.5577 39.4989 46.5538 39.4976C46.4915 39.5193 46.4259 39.5296 46.3599 39.5279C46.2718 39.5139 46.1875 39.4822 46.112 39.4346C46.0365 39.3871 45.9715 39.3248 45.9209 39.2514C45.8432 39.1479 45.76 39.0486 45.6717 38.9539C45.5617 38.8474 45.4358 38.7586 45.2986 38.6906C45.0177 38.5431 44.6802 38.4536 44.3927 38.2588C44.3228 38.2115 44.2583 38.1567 44.2002 38.0955C44.1475 38.0376 44.1277 37.9639 44.1646 37.9481C44.2016 37.9323 44.2873 37.9362 44.3664 37.9481L44.6024 37.9915L45.4172 38.1324C45.6493 38.1706 45.8365 38.1995 45.967 38.2179C46.0335 38.2367 46.1024 38.2456 46.1714 38.2443Z"
		fill="#0064FA" />
	<path
		d="M44.1224 37.6355C44.0728 37.5258 43.9989 37.4288 43.9061 37.352C43.801 37.2775 43.6751 37.2378 43.5462 37.2386C43.3859 37.2414 43.2271 37.2695 43.0755 37.3217C42.9189 37.3757 42.7572 37.4137 42.5929 37.4351C42.4538 37.4518 42.3128 37.4314 42.1842 37.3757C42.14 37.3566 42.101 37.3272 42.0703 37.2901C42.0396 37.253 42.0181 37.2091 42.0075 37.1621C41.9975 37.129 41.9975 37.0937 42.0075 37.0606C42.0075 37.0606 42.0075 37.0962 42.0326 37.1555C42.0468 37.1955 42.0695 37.232 42.0991 37.2625C42.1286 37.293 42.1644 37.3168 42.204 37.3322C42.3254 37.3762 42.4558 37.3898 42.5837 37.3718C42.7434 37.3472 42.9006 37.3079 43.0531 37.2544C43.212 37.201 43.3785 37.1738 43.5462 37.174C43.69 37.1751 43.8292 37.2243 43.9418 37.3138C44.0139 37.3736 44.0704 37.4501 44.1066 37.5366C44.125 37.5986 44.1263 37.6342 44.1224 37.6355Z"
		fill="#0064FA" />
	<path d="M44.0868 35.0819C44.1353 35.1885 44.1745 35.2991 44.2041 35.4124L44.4678 36.2089C44.5694 36.5051 44.663 36.775 44.7408 36.9988C44.7851 37.1061 44.8199 37.2172 44.8449 37.3306C44.7837 37.2313 44.7333 37.1258 44.6946 37.0159C44.6116 36.8171 44.5061 36.5393 44.4019 36.226C44.2978 35.9126 44.2134 35.6296 44.1593 35.4216C44.1219 35.3116 44.0975 35.1976 44.0868 35.0819Z" fill="#0064FA" />
	<path
		d="M43.8746 38.131C43.8382 38.1356 43.8015 38.1356 43.7651 38.131C43.7186 38.1228 43.6707 38.125 43.6251 38.1375C43.5795 38.1501 43.5373 38.1725 43.5014 38.2034C43.4807 38.225 43.4661 38.2518 43.4591 38.281C43.4521 38.3101 43.4531 38.3406 43.4619 38.3693C43.483 38.4423 43.5127 38.5125 43.5502 38.5786C43.5989 38.6606 43.6162 38.7574 43.599 38.8511C43.5837 38.9006 43.5569 38.9458 43.5206 38.9829C43.4844 39.0199 43.4399 39.0479 43.3907 39.0644C43.3419 39.0807 43.2902 39.0868 43.2389 39.0822C43.1877 39.0777 43.1379 39.0627 43.0927 39.0381C43.0081 38.9962 42.9379 38.9302 42.891 38.8485C42.8269 38.7133 42.7825 38.5696 42.7591 38.4219C42.7398 38.323 42.7371 38.2216 42.7512 38.1218C42.7644 38.0507 42.7881 38.0164 42.7908 38.0191C42.7934 38.0217 42.7829 38.0572 42.7776 38.1257C42.7751 38.2223 42.7853 38.3188 42.8079 38.4127C42.8377 38.5538 42.8865 38.6902 42.9529 38.8182C42.9933 38.8901 43.0561 38.9469 43.1319 38.9797C43.2076 39.0125 43.2921 39.0196 43.3722 38.9999C43.411 38.9868 43.4462 38.9649 43.4751 38.9359C43.5039 38.9068 43.5256 38.8715 43.5384 38.8327C43.5522 38.7543 43.5377 38.6736 43.4975 38.6049C43.4585 38.5341 43.4293 38.4584 43.4105 38.3798C43.4014 38.3421 43.4024 38.3028 43.4133 38.2656C43.4241 38.2284 43.4445 38.1947 43.4724 38.1678C43.5136 38.1351 43.5618 38.1124 43.6133 38.1014C43.6648 38.0904 43.7181 38.0915 43.7691 38.1046C43.8056 38.107 43.8413 38.1159 43.8746 38.131Z"
		fill="#0064FA" />
	<path
		d="M43.1072 38.9737C43.1072 38.9737 43.1322 39.0039 43.1309 39.0711C43.1283 39.1174 43.115 39.1625 43.0922 39.2029C43.0693 39.2433 43.0375 39.2779 42.9991 39.3041C42.9385 39.34 42.8695 39.3597 42.799 39.3611C42.7286 39.3624 42.6589 39.3455 42.5969 39.312C42.4486 39.2283 42.3378 39.0913 42.2871 38.9289C42.2328 38.771 42.2301 38.6 42.2792 38.4405C42.3192 38.3113 42.394 38.1957 42.4954 38.1061C42.5616 38.0448 42.6391 37.997 42.7235 37.9652C42.753 37.9508 42.7856 37.9436 42.8184 37.9441C42.7132 37.9959 42.6156 38.0619 42.5284 38.1403C42.4295 38.2386 42.3605 38.3629 42.3295 38.4987C42.2985 38.6346 42.3066 38.7764 42.353 38.9078C42.3982 39.0536 42.4959 39.1774 42.6273 39.2554C42.6796 39.2856 42.7387 39.302 42.7991 39.3031C42.8595 39.3043 42.9193 39.2901 42.9727 39.262C43.0074 39.2408 43.0371 39.2125 43.0599 39.1789C43.0826 39.1453 43.0978 39.1071 43.1046 39.0671C43.1125 39.0092 43.1019 38.975 43.1072 38.9737Z"
		fill="#0064FA" />
	<path
		d="M44.6274 39.7043C44.6746 39.6724 44.7301 39.6551 44.787 39.6542C44.9325 39.6395 45.0789 39.6728 45.2036 39.749L45.1535 39.7846C45.1356 39.7078 45.1228 39.63 45.1153 39.5515C45.0756 39.2787 45.1126 39.0002 45.2221 38.7471C45.181 39.011 45.1682 39.2784 45.1838 39.545C45.1914 39.6205 45.2028 39.6957 45.2181 39.7701L45.234 39.8478L45.168 39.8056C45.0553 39.733 44.9238 39.695 44.7896 39.6964C44.7357 39.7018 44.6816 39.7044 44.6274 39.7043Z"
		fill="#0064FA" />
	<path d="M43.6385 36.8948C43.6569 36.8948 43.6385 37.0372 43.5066 37.148C43.3748 37.2587 43.2429 37.2679 43.2429 37.2495C43.2429 37.231 43.3563 37.1941 43.4631 37.0965C43.5699 36.999 43.62 36.8882 43.6385 36.8948Z" fill="#0064FA" />
	<path d="M55.6447 34.4052C55.6447 34.4052 54.6005 34.5368 54.4871 34.5368C53.6063 34.5908 52.1705 35.1095 51.4954 36.3681C51.0023 37.2897 50.0648 41.0234 49.8143 42.0292L49.4504 43.2141L47.2512 39.7292L44.125 41.5197C44.125 41.5197 47.3685 49.3676 49.4781 49.3676C51.5877 49.3676 52.5555 47.2717 52.5555 47.2717L52.5238 42.5519L55.6447 34.4052Z" fill="#E0E0E0" />
	<path
		d="M51.6998 37.6847C51.6929 37.7198 51.6903 37.7556 51.6919 37.7913C51.6919 37.8716 51.6919 37.9717 51.6919 38.0941C51.6919 38.3574 51.6919 38.7379 51.6998 39.2092C51.7169 40.1506 51.7749 41.4474 51.8554 42.8824C51.9358 44.3174 52.0043 45.6142 52.0399 46.5542C52.0558 47.0124 52.0703 47.3889 52.0795 47.6667C52.0795 47.7891 52.0901 47.8892 52.0927 47.9695C52.0915 48.005 52.0955 48.0404 52.1046 48.0748C52.1125 48.0403 52.1156 48.0048 52.1138 47.9695C52.1138 47.8892 52.1138 47.7878 52.1138 47.6667C52.1138 47.4034 52.1138 47.0216 52.1059 46.5516C52.0887 45.6102 52.032 44.3135 51.9516 42.8771C51.8712 41.4408 51.8026 40.1466 51.767 39.2066C51.7499 38.7471 51.7367 38.3706 51.7261 38.0928L51.713 37.79C51.7135 37.7545 51.7091 37.719 51.6998 37.6847Z"
		fill="#263238" />
	<path d="M67.9873 38.2797C67.4599 35.8955 64.8124 35.2333 64.8124 35.2333L63.9158 43.8382L64.4722 45.235L69.195 44.216C69.195 44.216 68.6558 41.2709 67.9873 38.2797Z" fill="#E0E0E0" />
	<path d="M63.6469 43.1404L65.4123 44.8387L64.8427 41.5895L68.4251 40.4586C68.4251 40.4586 69.3771 44.9164 69.5419 45.971C69.8385 47.8641 69.4746 50.5538 67.7078 50.7421C65.7973 50.9475 64.3549 49.0661 63.4372 47.8312C62.7318 46.882 61.5913 45.2219 61.5913 45.2219L63.6455 43.1404" fill="#E0E0E0" />
	<path
		d="M65.4137 48.8937L65.2739 44.8507L65.4849 35.4796L61.7219 33.7681L61.2235 32.2975L57.0161 34.1696L56.1723 33.2862L55.6844 34.2315L54.1866 34.5698L52.9631 38.0257L51.9241 40.7483C51.9241 40.7483 52.2234 50.1892 52.4818 53.6504C52.5161 54.1046 51.9241 54.3021 52.5807 54.8089C52.5807 54.8089 53.5656 55.3856 55.7003 55.4422C61.7759 55.6002 65.5073 54.6312 65.7064 54.543C65.8443 54.4089 65.9494 54.2448 66.0134 54.0635C66.0774 53.8821 66.0987 53.6885 66.0755 53.4977C66.0584 53.3542 66.0281 53.2001 66.0004 53.0053L65.4137 48.8898"
		fill="#E0E0E0" />
	<path
		d="M55.4971 55.7279C55.4928 55.7111 55.4902 55.6939 55.4892 55.6765C55.4892 55.6344 55.4826 55.5844 55.4787 55.5238C55.4694 55.379 55.4589 55.1828 55.4444 54.9366C55.422 54.41 55.389 53.678 55.3495 52.7736C55.2809 50.9462 55.1939 48.4211 55.2176 45.6274C55.2348 44.2319 55.2822 42.8995 55.4154 41.6936C55.5486 40.4876 55.7622 39.4173 55.9428 38.522C56.1234 37.6268 56.3054 36.9093 56.4267 36.4156L56.5704 35.8442C56.5862 35.785 56.5994 35.7363 56.6113 35.6968C56.6142 35.6793 56.62 35.6624 56.6284 35.6467C56.6286 35.6645 56.6264 35.6822 56.6218 35.6994C56.6139 35.7402 56.6047 35.7902 56.5928 35.8495L56.4702 36.4261C56.3621 36.9251 56.2065 37.6465 56.0206 38.5418C55.8347 39.437 55.6461 40.5087 55.513 41.7081C55.3798 42.9074 55.3416 44.2371 55.3244 45.6313C55.2967 48.4198 55.3706 50.9449 55.418 52.7722C55.4431 53.678 55.4629 54.414 55.4774 54.9366C55.4826 55.1841 55.4866 55.3803 55.4892 55.5251V55.6792C55.4971 55.7116 55.4998 55.7279 55.4971 55.7279Z"
		fill="#263238" />
	<path
		d="M58.266 40.0202C58.3496 40.0176 58.4332 40.0202 58.5165 40.0281L59.243 40.0716L61.8932 40.2519H61.9433V40.302C61.8523 41.5145 61.7415 42.9653 61.6242 44.532V44.5609L61.6018 44.5767C61.4778 44.6663 61.3381 44.7571 61.2062 44.8466C60.9656 45.0041 60.7164 45.1482 60.46 45.2785C60.2107 45.4178 59.9366 45.5072 59.653 45.5418C59.3743 45.5499 59.0981 45.4859 58.8514 45.3561C58.6199 45.2367 58.4027 45.0913 58.204 44.923C58.1064 44.8422 58.0128 44.7606 57.9232 44.6781C57.8699 44.6361 57.8251 44.5842 57.7913 44.5254C57.7604 44.4693 57.7365 44.4096 57.7201 44.3477C57.6687 44.1188 57.6469 43.8843 57.6555 43.6499C57.6673 43.2364 57.7047 42.8239 57.7676 42.415C57.877 41.6659 58.0062 41.0669 58.0998 40.6548C58.1473 40.4494 58.1869 40.2901 58.2159 40.1821C58.2276 40.1267 58.2443 40.0725 58.266 40.0202C58.2623 40.0766 58.2535 40.1326 58.2396 40.1874C58.2159 40.3085 58.1855 40.4678 58.146 40.6653C58.0682 41.08 57.9509 41.679 57.8533 42.4268C57.7969 42.8327 57.7648 43.2415 57.757 43.6512C57.7506 43.8757 57.7732 44.1 57.8243 44.3187C57.8485 44.427 57.9072 44.5245 57.9917 44.5965C58.0801 44.6781 58.1724 44.7584 58.2686 44.8361C58.462 44.9978 58.673 45.1373 58.8975 45.2521C59.1261 45.3719 59.3819 45.4304 59.6398 45.422C59.9067 45.3887 60.1646 45.3043 60.3993 45.1731C60.6514 45.045 60.8961 44.9031 61.1324 44.7479C61.2642 44.6597 61.4027 44.5702 61.5279 44.4846L61.5029 44.5294C61.6347 42.9627 61.7468 41.5132 61.8444 40.3006L61.8905 40.3546L59.2733 40.1255L58.5376 40.0558L58.3424 40.0347C58.3165 40.0329 58.2908 40.0281 58.266 40.0202Z"
		fill="#263238" />
	<path d="M61.8616 41.3965C61.8616 41.4308 60.998 41.3965 59.9405 41.3082C58.8831 41.2198 58.0274 41.1315 58.03 41.0985C58.0327 41.0656 58.8923 41.0985 59.9498 41.1869C61.0072 41.2752 61.8629 41.3635 61.8616 41.3965Z" fill="#263238" />
	<g opacity="0.3">
		<path d="M57.8455 44.5123C58.0525 44.8519 58.241 45.3193 58.5284 45.601C58.8032 45.8948 59.175 46.0794 59.5753 46.1211C59.9288 46.1274 60.2756 46.0244 60.5682 45.8262C61.0494 45.526 61.3448 45.0534 61.5584 44.5294C61.5887 44.4912 60.8714 44.9691 60.4811 45.1758C60.15 45.3743 59.7624 45.4576 59.3789 45.4128C58.8014 45.3654 58.2832 44.8862 57.8455 44.5123Z" fill="black" />
	</g>
	<g opacity="0.3">
		<path d="M57.0873 34.4434L57.2415 36.4129L61.4291 33.9102L57.3892 36.0377L57.0873 34.4434Z" fill="black" />
	</g>
	<path d="M56.2026 36.8157C55.4415 40.1035 54.929 43.4438 54.6692 46.8082C54.4925 49.1425 54.3619 52.2363 54.3619 52.2363L55.7187 53.9136L57.3391 52.3061C57.3391 52.3061 57.0095 45.5918 57.0174 43.3405C57.0174 41.5289 56.9488 36.8539 56.9488 36.8539L56.2026 36.8157Z" fill="#005AFF" />
	<path
		d="M64.3087 39.7385C64.3284 39.7994 64.3426 39.862 64.3509 39.9255C64.3746 40.0571 64.4063 40.2309 64.4445 40.4389C64.521 40.8852 64.6238 41.479 64.7359 42.1359C64.848 42.7929 64.9508 43.4011 65.0154 43.8369C65.0484 44.0554 65.0735 44.2319 65.0893 44.3543C65.1006 44.4173 65.1068 44.4812 65.1077 44.5452C65.0873 44.4844 65.0727 44.4218 65.0642 44.3583C65.0405 44.2266 65.0088 44.0528 64.9706 43.8435L64.6739 42.1478C64.5592 41.4895 64.4643 40.8826 64.3997 40.4468C64.3707 40.2375 64.3456 40.0624 64.3272 39.9294C64.3159 39.8664 64.3097 39.8026 64.3087 39.7385Z"
		fill="#263238" />
	<path
		d="M65.6707 35.7507C65.6786 35.7586 65.5468 35.8613 65.3609 36.0522C65.1202 36.3016 64.9144 36.5823 64.7491 36.8869C64.5855 37.1923 64.4649 37.5188 64.3905 37.8571C64.3324 38.1205 64.3206 38.2824 64.3087 38.2811C64.303 38.2422 64.303 38.2028 64.3087 38.1639C64.3143 38.0578 64.3271 37.9523 64.3469 37.8479C64.4748 37.1509 64.8188 36.5116 65.3305 36.0206C65.407 35.9462 65.4885 35.8771 65.5745 35.8139C65.6338 35.7691 65.6681 35.7467 65.6707 35.7507Z"
		fill="#263238" />
	<path d="M57.053 35.0819L56.6324 34.9897L56.2237 35.7244L56.2065 36.8158L56.9528 36.854L57.4156 35.9877L57.053 35.0819Z" fill="#005AFF" />
	<path d="M56.6996 37.04C56.6904 37.0545 56.5862 37.0058 56.4676 36.9306C56.3489 36.8554 56.2592 36.7829 56.2685 36.7684C56.2777 36.7539 56.3819 36.8027 56.5005 36.8765C56.6192 36.9504 56.7089 37.0255 56.6996 37.04Z" fill="#263238" />
	<path d="M56.7972 36.7079C56.6854 36.5338 56.5922 36.3484 56.519 36.1549C56.4266 35.9701 56.3528 35.7764 56.2988 35.577C56.41 35.7514 56.5033 35.9367 56.577 36.1299C56.6695 36.3148 56.7433 36.5084 56.7972 36.7079Z" fill="#263238" />
	<g opacity="0.3">
		<path d="M61.9829 46.5424C61.9829 46.5424 63.0127 47.5153 63.4451 48.2697C63.751 48.7963 64.6146 49.5125 65.5903 50.1339L65.742 51.2003C65.2014 51.0923 64.2534 50.3919 63.8868 49.9799C63.5015 49.5782 63.1599 49.1368 62.8676 48.6633C62.3745 47.7839 61.6981 46.9387 61.5254 45.946L61.9829 46.5424Z" fill="black" />
	</g>
	<path
		d="M65.4531 50.026C65.4251 50.0002 65.3946 49.9773 65.3621 49.9575C65.3028 49.9127 65.2079 49.8561 65.0984 49.7692C64.775 49.5211 64.4667 49.2538 64.1755 48.9688C63.1993 47.9835 62.3001 46.9249 61.4857 45.8025V45.8512L62.083 44.403L62.799 42.6639L62.7225 42.6823C65.0694 44.665 66.5857 45.946 66.9351 46.237C66.915 46.2076 66.8916 46.1806 66.8652 46.1567C66.8151 46.1066 66.74 46.0355 66.6411 45.9447C66.442 45.763 66.1493 45.5037 65.7801 45.1798C65.0417 44.5347 63.9962 43.6355 62.7858 42.6046L62.7343 42.5599L62.708 42.6231L61.9933 44.3648C61.7877 44.8612 61.5886 45.3457 61.3974 45.813L61.3868 45.8394L61.404 45.8617C62.2232 46.9865 63.1348 48.0412 64.1293 49.0149C64.4255 49.2971 64.7409 49.5584 65.0734 49.7969C65.1907 49.8798 65.2896 49.9285 65.3529 49.972C65.3843 49.9934 65.4179 50.0115 65.4531 50.026Z"
		fill="#263238" />
	<path
		d="M51.1843 39.5924L52.6571 45.1548C52.6967 45.3045 52.7856 45.4365 52.9095 45.5297C53.0334 45.6228 53.1851 45.6716 53.3401 45.6683L60.9689 45.5195C61.0703 45.5166 61.1698 45.4916 61.2604 45.4461C61.3511 45.4007 61.4306 45.336 61.4935 45.2565C61.5563 45.1771 61.601 45.0848 61.6242 44.9863C61.6475 44.8877 61.6489 44.7853 61.6282 44.6861L60.5101 39.362C60.4772 39.2069 60.3919 39.0677 60.2686 38.9678C60.1452 38.8678 59.9912 38.8132 59.8324 38.813H51.7895C51.6942 38.8131 51.6002 38.8349 51.5146 38.8767C51.429 38.9186 51.3541 38.9795 51.2957 39.0547C51.2373 39.1299 51.1969 39.2175 51.1776 39.3107C51.1583 39.4039 51.1606 39.5003 51.1843 39.5924Z"
		fill="#263238" />
	<path
		d="M61.226 45.1705C61.2207 45.1593 61.2171 45.1473 61.2155 45.135C61.2076 45.106 61.1996 45.0718 61.1891 45.027C61.1654 44.927 61.1337 44.7887 61.0928 44.6123C61.0124 44.2463 60.8964 43.7263 60.7553 43.0851C60.6142 42.444 60.4481 41.6712 60.2622 40.8181C60.1699 40.3915 60.0736 39.9439 59.9734 39.4791C59.9649 39.4254 59.9422 39.3749 59.9077 39.3328C59.8732 39.2907 59.8281 39.2585 59.777 39.2395C59.7232 39.2213 59.6661 39.2146 59.6095 39.2198H58.6787L53.5101 39.2106L51.9438 39.1987L51.5179 39.1921H51.4071H51.3689C51.3816 39.1905 51.3944 39.1905 51.4071 39.1921H51.5179L51.9438 39.1855L53.5101 39.175L58.6787 39.1645H59.6095C59.6742 39.1596 59.7392 39.1676 59.8007 39.1882C59.8624 39.2118 59.9169 39.251 59.9587 39.302C60.0006 39.3531 60.0284 39.4141 60.0394 39.4791C60.1382 39.9426 60.2332 40.3915 60.3242 40.8181C60.5035 41.6712 60.6656 42.4413 60.8028 43.0891C60.9399 43.7368 61.0441 44.2529 61.1192 44.6202L61.2023 45.0375L61.2221 45.1468C61.2241 45.1546 61.2254 45.1625 61.226 45.1705Z"
		fill="#455A64" />
	<path
		d="M56.3964 40.6957C56.4172 40.7695 56.4161 40.8479 56.393 40.9211C56.37 40.9944 56.326 41.0593 56.2666 41.108C56.2072 41.1567 56.1348 41.1871 56.0584 41.1954C55.982 41.2036 55.9048 41.1895 55.8363 41.1547C55.7677 41.1199 55.7109 41.0659 55.6726 40.9993C55.6343 40.9327 55.6163 40.8565 55.6208 40.7798C55.6252 40.7032 55.652 40.6295 55.6977 40.5678C55.7434 40.5061 55.8061 40.459 55.8782 40.4323C55.9819 40.3991 56.0946 40.4081 56.1916 40.4574C56.2887 40.5067 56.3623 40.5924 56.3964 40.6957Z"
		fill="#E0E0E0" />
	<path
		d="M63.0152 43.0615L62.6526 42.7231C62.6526 42.7231 62.4126 41.9253 62.2571 41.7739C62.1015 41.6225 61.6993 41.5106 61.6993 41.5106L60.7922 40.6785L60.9583 41.4237L59.6398 41.4132C59.5635 41.4105 59.4882 41.4311 59.4238 41.4723C59.3595 41.5134 59.3093 41.5732 59.2799 41.6435C59.2699 41.6663 59.2659 41.6912 59.268 41.716C59.282 41.7902 59.3131 41.8601 59.3589 41.9202C59.4047 41.9803 59.4638 42.0289 59.5317 42.0622L59.7216 42.1517C59.6458 42.1736 59.5771 42.215 59.5224 42.2719C59.4678 42.3288 59.4291 42.399 59.4104 42.4756C59.3985 42.5692 59.419 42.6641 59.4687 42.7443C59.5184 42.8246 59.5942 42.8854 59.6833 42.9166C59.6833 42.9166 59.359 43.0615 59.5515 43.4498C59.5515 43.4498 59.2496 43.8079 59.4196 44.0502C59.5897 44.2924 60.5971 44.6979 60.5971 44.6979L61.1522 44.9507C61.2877 44.9888 61.4298 44.9968 61.5688 44.9744L61.7864 45.0047L62.0184 45.1956C62.0184 45.1956 63.3422 44.4741 63.0152 43.0615Z"
		fill="#FFBF9D" />
	<path d="M61.5913 42.4894C61.4916 42.5046 61.3903 42.5046 61.2906 42.4894C61.0497 42.4734 60.81 42.4412 60.5734 42.3932C60.3371 42.3453 60.1041 42.2823 59.8759 42.2046C59.7782 42.1785 59.6849 42.1381 59.599 42.0846C59.6069 42.0622 60.0407 42.2046 60.5892 42.3154C61.1377 42.4261 61.5926 42.4657 61.5913 42.4894Z" fill="#0064FA" />
	<path d="M61.9538 43.531C61.9538 43.5521 61.4356 43.4321 60.808 43.2673C60.4257 43.1757 60.05 43.0585 59.6833 42.9166C59.6899 42.8955 60.2028 43.0155 60.8291 43.1803C61.4554 43.3451 61.9604 43.5099 61.9538 43.531Z" fill="#0064FA" />
	<path
		d="M61.847 44.3069C61.7237 44.3077 61.6008 44.2918 61.4818 44.2595C61.1903 44.1999 60.9037 44.1181 60.6248 44.0146C60.3457 43.9116 60.075 43.787 59.8152 43.642C59.7042 43.5876 59.6001 43.52 59.5054 43.4406C59.6215 43.4811 59.7336 43.5322 59.8403 43.5933C60.0446 43.6908 60.3294 43.8198 60.6525 43.9396C60.9755 44.0594 61.2748 44.1476 61.4937 44.2029C61.6143 44.2272 61.7325 44.262 61.847 44.3069Z"
		fill="#0064FA" />
	<path d="M62.0949 43.3021C62.0725 43.2942 62.116 43.1465 62.0844 42.9685C62.0527 42.7905 61.967 42.6626 61.9855 42.6481C62.0039 42.6336 62.1292 42.751 62.1622 42.9553C62.1786 43.0144 62.1811 43.0765 62.1694 43.1366C62.1577 43.1968 62.1322 43.2535 62.0949 43.3021Z" fill="#0064FA" />
	<path d="M62.1081 42.3446C62.0936 42.3275 62.1621 42.2458 62.1727 42.1231C62.1832 42.0005 62.1371 41.9069 62.1556 41.8937C62.174 41.8805 62.1898 41.9043 62.2149 41.9465C62.2461 42.0026 62.259 42.0672 62.2518 42.131C62.2457 42.1953 62.2199 42.256 62.178 42.3051C62.145 42.3407 62.1147 42.3526 62.1081 42.3446Z" fill="#0064FA" />
	<path d="M62.0197 44.2615C62.0026 44.2457 62.0553 44.1639 62.0856 44.0545C62.116 43.9451 62.1199 43.8475 62.1423 43.8436C62.1647 43.8396 62.2003 43.9464 62.1621 44.0769C62.1239 44.2075 62.0342 44.2773 62.0197 44.2615Z" fill="#0064FA" />
	<path d="M59.9774 41.4185C59.9774 41.4475 60.3255 41.4515 60.7501 41.4818C61.1746 41.5121 61.5201 41.5556 61.5253 41.5266C61.5306 41.4976 61.1904 41.4093 60.758 41.3803C60.3255 41.3513 59.9761 41.3908 59.9774 41.4185Z" fill="#0064FA" />
	<path
		d="M55.7609 34.4157C55.7772 34.4448 55.79 34.4757 55.7991 34.5079L55.894 34.7712C55.9758 35.0121 56.0905 35.3478 56.2303 35.7612H56.1854C56.4069 35.3465 56.6746 34.8396 56.9765 34.2827L57.0174 34.2064L57.0359 34.2919C57.1506 34.7962 57.2771 35.3452 57.4077 35.9271C57.4077 35.9587 57.4222 35.989 57.4274 36.0166L57.3787 35.9942L60.3242 34.4539L61.2168 33.9957L61.4607 33.8746C61.4882 33.8586 61.5174 33.8458 61.5478 33.8364C61.5222 33.8551 61.4954 33.8718 61.4673 33.8865L61.2287 34.0181L60.3413 34.4907L57.405 36.0495L57.3655 36.0706L57.3562 36.0271L57.3352 35.9376L56.9686 34.2998L57.0279 34.3077L56.2289 35.7796L56.2012 35.8297L56.1841 35.7757C56.0522 35.3583 55.9455 35.02 55.8677 34.7777C55.8334 34.6645 55.8057 34.575 55.7859 34.5065C55.7756 34.4768 55.7672 34.4465 55.7609 34.4157Z"
		fill="#263238" />
</svg>