<svg xmlns="http://www.w3.org/2000/svg" width="50" height="25" viewBox="0 0 50 25" fill="none">
	<rect x="0.702881" y="0.5" width="48" height="24" rx="1.5" stroke="white" />
	<rect x="3.20288" y="3" width="3" height="3" fill="white" />
	<rect x="3.20288" y="7" width="7" height="3" fill="white" />
	<rect x="3.20288" y="11" width="7" height="3" fill="white" />
	<rect x="3.20288" y="15" width="11" height="3" fill="white" />
	<rect x="3.20288" y="19" width="7" height="3" fill="white" />
	<rect x="7.20288" y="3" width="3" height="3" fill="white" />
	<rect x="11.2029" y="3" width="3" height="3" fill="white" />
	<rect x="11.2029" y="7" width="3" height="3" fill="white" />
	<rect x="11.2029" y="11" width="3" height="3" fill="white" />
	<rect x="11.2029" y="19" width="3" height="3" fill="white" />
	<rect x="15.2029" y="19" width="19" height="3" fill="white" />
	<rect x="15.2029" y="3" width="3" height="3" fill="white" />
	<rect x="15.2029" y="7" width="3" height="3" fill="white" />
	<rect x="15.2029" y="11" width="3" height="3" fill="white" />
	<rect x="15.2029" y="15" width="3" height="3" fill="white" />
	<rect x="19.2029" y="3" width="3" height="3" fill="white" />
	<rect x="19.2029" y="7" width="3" height="3" fill="white" />
	<rect x="19.2029" y="11" width="3" height="3" fill="white" />
	<rect x="19.2029" y="15" width="3" height="3" fill="white" />
	<rect x="23.2029" y="3" width="3" height="3" fill="white" />
	<rect x="23.2029" y="7" width="3" height="3" fill="white" />
	<rect x="23.2029" y="11" width="3" height="3" fill="white" />
	<rect x="23.2029" y="15" width="3" height="3" fill="white" />
	<rect x="27.2029" y="3" width="3" height="3" fill="white" />
	<rect x="27.2029" y="7" width="3" height="3" fill="white" />
	<rect x="27.2029" y="11" width="3" height="3" fill="white" />
	<rect x="27.2029" y="15" width="3" height="3" fill="white" />
	<rect x="31.2029" y="3" width="3" height="3" fill="white" />
	<rect x="31.2029" y="7" width="3" height="3" fill="white" />
	<rect x="31.2029" y="11" width="3" height="3" fill="white" />
	<rect x="31.2029" y="15" width="3" height="3" fill="white" />
	<rect x="35.2029" y="19" width="3" height="3" fill="white" />
	<rect x="39.2029" y="19" width="3" height="3" fill="white" />
	<rect x="43.2029" y="19" width="3" height="3" fill="white" />
	<rect x="35.2029" y="3" width="3" height="3" fill="white" />
	<rect x="35.2029" y="7" width="3" height="3" fill="white" />
	<rect x="35.2029" y="11" width="3" height="3" fill="white" />
	<rect x="39.2029" y="3" width="3" height="3" fill="white" />
	<rect x="39.2029" y="7" width="3" height="3" fill="white" />
	<rect x="43.2029" y="3" width="3" height="3" fill="white" />
	<rect x="43.2029" y="7" width="3" height="3" fill="white" />
	<rect x="39.2029" y="11" width="7" height="3" fill="white" />
	<rect x="35.2029" y="15" width="11" height="3" fill="white" />
</svg>