<svg width="79" height="55" viewBox="0 0 79 55" fill="none" xmlns="http://www.w3.org/2000/svg">
	<path fill-rule="evenodd" clip-rule="evenodd"
		d="M65.4139 12.333C65.7787 12.2903 66.0398 11.9598 65.9972 11.5949C65.9545 11.2299 65.6242 10.9687 65.2594 11.0113L46.4101 13.2162L45.5818 12.8733C45.2425 12.7328 44.8536 12.8941 44.7131 13.2336L44.2876 14.2619C44.2164 14.434 44.2229 14.6189 44.2905 14.7777L32.8145 29.6526L33.5356 19.3336L33.572 19.3219C34.1113 19.1489 34.4082 18.5714 34.2354 18.032L34.0025 17.3055C33.8716 16.8974 33.4348 16.6725 33.0267 16.8034L32.2834 17.0419C31.7908 17.1999 31.5003 17.6958 31.5858 18.1916L12.2858 36.9371C12.0223 37.1929 12.0161 37.6142 12.2719 37.8778C12.5277 38.1414 12.9488 38.1477 13.2123 37.8917L32.1937 19.4557L31.4241 30.4685L30.976 30.7216C30.628 30.9181 30.5063 31.3606 30.705 31.7075L31.2609 32.6782C31.4588 33.0236 31.8989 33.1432 32.2442 32.9454L33.1749 32.4119C33.5059 32.2224 33.6317 31.8075 33.462 31.4658L33.3186 31.1771L45.4438 15.4607L45.6979 15.5659C46.0374 15.7064 46.4264 15.5451 46.5668 15.2056L46.8573 14.5036L65.4139 12.333Z"
		fill="url(#paint0_linear_201_340)" />
	<path d="M28.3934 51.2537V50.8863H26.9917V53.705H27.463V51.2537H28.3934Z" fill="#263238" />
	<path
		d="M30.9978 53.6931V53.434C30.7711 53.4401 30.7294 53.2895 30.7294 53.0847V52.0186C30.7294 51.4645 30.7532 50.8142 29.9122 50.8142C29.4352 50.8142 29.0774 50.8863 28.8686 50.9466V51.308C29.0952 51.2417 29.3696 51.1875 29.6378 51.1875C29.9421 51.1875 30.2582 51.1936 30.2582 51.7537V52.0186H29.8825C29.1489 52.0186 28.6718 52.2536 28.6718 53.0124C28.6718 53.5906 29.0833 53.7833 29.4471 53.7833C29.7393 53.7833 30.0197 53.657 30.2701 53.3197C30.2701 53.3197 30.3119 53.7291 30.6041 53.7291C30.8188 53.7291 30.9441 53.7051 30.9978 53.6931ZM30.2582 52.9101C30.2582 52.9101 30.0018 53.3859 29.5544 53.3859C29.2861 53.3859 29.1549 53.2172 29.1549 52.9101C29.1549 52.4162 29.4888 52.3319 29.8587 52.3319H30.2582V52.9101Z"
		fill="#263238" />
	<path
		d="M33.6841 52.1994C33.6841 51.4103 33.4097 50.8321 32.7 50.8321C32.1871 50.8321 31.9187 51.1635 31.9187 51.1635L31.8768 50.8863H31.4474V55H31.9187V53.6327C32.0559 53.7051 32.2706 53.7593 32.515 53.7593C33.0578 53.7593 33.6841 53.3557 33.6841 52.1994ZM33.195 52.1994C33.195 53.1328 32.9147 53.4281 32.4674 53.4281C32.1274 53.4281 31.9187 53.2292 31.9187 53.2292V51.6151C31.9187 51.6151 32.0678 51.2116 32.5687 51.2116C33.0816 51.2116 33.195 51.7657 33.195 52.1994Z"
		fill="#263238" />
	<path
		d="M36.3911 53.6931V53.434C36.1645 53.4401 36.1227 53.2895 36.1227 53.0847V52.0186C36.1227 51.4645 36.1467 50.8142 35.3057 50.8142C34.8285 50.8142 34.4706 50.8863 34.2619 50.9466V51.308C34.4885 51.2417 34.7629 51.1875 35.0313 51.1875C35.3354 51.1875 35.6516 51.1936 35.6516 51.7537V52.0186H35.2758C34.5422 52.0186 34.065 52.2536 34.065 53.0124C34.065 53.5906 34.4766 53.7833 34.8404 53.7833C35.1326 53.7833 35.4129 53.657 35.6635 53.3197C35.6635 53.3197 35.7053 53.7291 35.9976 53.7291C36.2123 53.7291 36.3374 53.7051 36.3911 53.6931ZM35.6516 52.9101C35.6516 52.9101 35.3951 53.3859 34.9478 53.3859C34.6794 53.3859 34.5482 53.2172 34.5482 52.9101C34.5482 52.4162 34.8822 52.3319 35.252 52.3319H35.6516V52.9101Z"
		fill="#263238" />
	<path d="M38.9165 53.705V50.8863H38.4452V52.0608H37.312V50.8863H36.841V53.705H37.312V52.3981H38.4452V53.705H38.9165Z" fill="#263238" />
	<path d="M41.3329 51.2537V50.8863H39.3347V51.2537H40.0982V53.705H40.5694V51.2537H41.3329Z" fill="#263238" />
	<path d="M43.9221 53.705V50.8804H43.4211L42.2163 53.0666V50.8863H41.7451V53.705H42.2461L43.4508 51.5187V53.705H43.9221Z" fill="#263238" />
	<path
		d="M46.4546 53.7051V50.8983C46.2995 50.8804 45.9774 50.8321 45.6733 50.8321C45.2379 50.8321 44.5222 50.9466 44.5222 51.7056C44.5222 52.2776 44.9873 52.4101 45.1782 52.4523V52.4884C44.9994 52.6029 44.9098 52.651 44.707 53.0788L44.4088 53.7051H44.9635L45.1782 53.1389C45.3751 52.627 45.566 52.5607 45.7807 52.5607H45.9833V53.7051H46.4546ZM45.9833 52.2776H45.6733C45.1186 52.2776 45.0113 51.9524 45.0113 51.7056C45.0113 51.2116 45.3751 51.1694 45.6314 51.1694C45.7686 51.1694 45.9833 51.1995 45.9833 51.1995V52.2776Z"
		fill="#263238" />
	<path
		d="M50.7263 52.1994C50.7263 51.4103 50.4519 50.8321 49.7422 50.8321C49.2293 50.8321 48.9609 51.1635 48.9609 51.1635L48.9193 50.8863H48.4898V55H48.9609V53.6327C49.0981 53.7051 49.3128 53.7593 49.5574 53.7593C50.1001 53.7593 50.7263 53.3557 50.7263 52.1994ZM50.2372 52.1994C50.2372 53.1328 49.9569 53.4281 49.5097 53.4281C49.1697 53.4281 48.9609 53.2292 48.9609 53.2292V51.6151C48.9609 51.6151 49.11 51.2116 49.611 51.2116C50.124 51.2116 50.2372 51.7657 50.2372 52.1994Z"
		fill="#263238" />
	<path
		d="M53.4692 52.3078C53.4692 51.0369 52.7654 50.8321 52.3182 50.8321C51.8888 50.8321 51.1671 51.031 51.1671 52.3078C51.1671 53.3015 51.6501 53.7894 52.2942 53.7894C52.9324 53.7894 53.4692 53.3015 53.4692 52.3078ZM52.9801 52.3078C52.9801 53.0727 52.7357 53.446 52.3182 53.446C51.9245 53.446 51.656 53.0727 51.656 52.3078C51.656 51.2538 52.0557 51.1755 52.3182 51.1755C52.5686 51.1755 52.9801 51.2538 52.9801 52.3078Z"
		fill="#263238" />
	<path
		d="M55.6284 53.6268V53.2473C55.521 53.3136 55.2944 53.3739 55.1691 53.3739C54.6622 53.3739 54.4177 53.0727 54.4177 52.3078C54.4177 51.2959 54.8531 51.1995 55.1393 51.1995C55.2825 51.1995 55.5329 51.2417 55.6284 51.2719V50.8804C55.5329 50.8623 55.36 50.8321 55.1035 50.8321C54.6384 50.8321 53.9286 51.061 53.9286 52.3078C53.9286 53.2954 54.3281 53.7593 54.9843 53.7593C55.4078 53.7593 55.5569 53.6569 55.6284 53.6268Z"
		fill="#263238" />
	<path d="M57.8974 51.2537V50.8863H55.8994V51.2537H56.6629V53.705H57.1341V51.2537H57.8974Z" fill="#263238" />
	<path
		d="M60.4927 53.6931V53.434C60.2661 53.4401 60.2243 53.2895 60.2243 53.0847V52.0186C60.2243 51.4645 60.2481 50.8142 59.4073 50.8142C58.9301 50.8142 58.5723 50.8863 58.3635 50.9466V51.308C58.5901 51.2417 58.8645 51.1875 59.1329 51.1875C59.4371 51.1875 59.7531 51.1936 59.7531 51.7537V52.0186H59.3774C58.6439 52.0186 58.1667 52.2536 58.1667 53.0124C58.1667 53.5906 58.5782 53.7833 58.942 53.7833C59.2343 53.7833 59.5146 53.657 59.7652 53.3197C59.7652 53.3197 59.8068 53.7291 60.099 53.7291C60.3137 53.7291 60.439 53.7051 60.4927 53.6931ZM59.7531 52.9101C59.7531 52.9101 59.4967 53.3859 59.0495 53.3859C58.781 53.3859 58.6498 53.2172 58.6498 52.9101C58.6498 52.4162 58.9838 52.3319 59.3536 52.3319H59.7531V52.9101Z"
		fill="#263238" />
	<path d="M49.3746 8.04627C49.3096 7.98132 49.3096 7.876 49.3746 7.81105L50.5641 6.62099C50.629 6.55604 50.7342 6.55604 50.7992 6.62099L51.9888 7.81105C52.0537 7.876 52.0537 7.98132 51.9888 8.04627L50.7992 9.23633C50.7342 9.30128 50.629 9.30128 50.5641 9.23633L49.3746 8.04627Z" fill="#263238" />
	<path fill-rule="evenodd" clip-rule="evenodd"
		d="M46.5217 0.168956C46.9332 -0.0168029 47.3907 -0.046253 47.8172 0.0651795C48.2893 0.188495 48.9851 0.372867 49.2324 0.453789C49.612 0.578021 50.3661 0.848736 51.0771 1.11077C52.4875 1.63058 54.5975 2.49642 54.8838 2.61416L54.8862 2.61497L54.8971 2.61868C54.9039 2.62095 54.9146 2.62463 54.926 2.62879C54.9362 2.63252 54.9534 2.63903 54.9727 2.6478C54.9734 2.64807 54.9739 2.64834 54.9746 2.64861L61.5141 5.58703L68.6381 8.90092C68.8671 9.00743 68.9664 9.27946 68.86 9.50853C68.7534 9.73759 68.4816 9.83694 68.2526 9.73042L61.1367 6.42029L61.1312 6.4178L54.6064 3.48602C54.6055 3.4857 54.6045 3.48534 54.6032 3.48492C54.5991 3.48352 54.5892 3.48021 54.5809 3.47728C54.5726 3.4744 54.5579 3.46918 54.5418 3.46253C54.2761 3.35326 52.1623 2.48568 50.7611 1.96916C50.0491 1.7068 49.3096 1.44158 48.948 1.32325C48.7343 1.25329 48.0736 1.07759 47.5862 0.9503C47.3514 0.88896 47.109 0.907406 46.8975 1.00284C46.573 1.14928 46.1652 1.34397 45.8743 1.5172C45.3278 1.84258 44.0565 2.6428 43.9268 2.72447C43.9171 2.73062 43.9085 2.73601 43.8989 2.74175L41.4919 4.20314L23.7898 14.4484L9.87094 37.5688L9.87072 37.5691C9.82363 37.647 9.75847 37.7124 9.68066 37.76L1.80854 42.569L1.03781 47.691L10.382 40.6015C10.6188 40.4219 10.9539 40.4551 11.1508 40.6779L17.4076 47.7575L18.282 44.7938C18.3536 44.5515 18.6077 44.4131 18.85 44.4846C19.0922 44.5561 19.2304 44.8106 19.159 45.0528L18.1073 48.6169C17.981 49.0454 17.4327 49.167 17.1369 48.8324L10.6785 41.5246L0.911774 48.9346C0.505734 49.2427 -0.0690523 48.9014 0.00680501 48.3972L0.92837 42.2728C0.95339 42.1067 1.05067 41.9601 1.19401 41.8725L9.13172 37.0235L23.128 13.7745L41.0256 3.41613L43.4245 1.95974C43.428 1.95759 43.4311 1.95567 43.4342 1.95376C43.436 1.95264 43.4377 1.95152 43.4396 1.95034C43.5647 1.87155 44.8479 1.06382 45.4065 0.731124C45.7446 0.529761 46.1925 0.317451 46.5217 0.168956ZM9.2037 36.9796C9.20387 36.9794 9.20404 36.9792 9.20421 36.9792L9.2037 36.9796ZM68.6244 13.0924C68.8197 13.2525 68.8483 13.5407 68.6881 13.7361L65.7519 17.32L53.7443 25.6419L38.7351 27.2901C38.4842 27.3177 38.2584 27.1364 38.2309 26.8853C38.2032 26.6341 38.3844 26.4083 38.6355 26.3807L53.414 24.7578L65.1258 16.6411L67.9809 13.1562C68.1409 12.9608 68.429 12.9322 68.6244 13.0924ZM64.1186 14.2308C64.267 14.4352 64.2216 14.7213 64.0173 14.8697L52.7968 23.0193L41.5827 24.4339C41.3321 24.4655 41.1035 24.288 41.0719 24.0373C41.0403 23.7867 41.2177 23.5579 41.4683 23.5264L52.4496 22.1411L63.4799 14.1294C63.6843 13.981 63.9702 14.0264 64.1186 14.2308ZM57.6011 14.7186C57.7632 14.9123 57.7379 15.2007 57.5443 15.363L51.3724 20.5367L44.7125 21.3571C44.462 21.3879 44.2338 21.2097 44.2029 20.959C44.1721 20.7083 44.3503 20.4799 44.6009 20.4491L50.9922 19.6617L56.9571 14.6618C57.1506 14.4995 57.4391 14.525 57.6011 14.7186ZM30.3721 29.555C30.4929 29.7769 30.411 30.0548 30.1893 30.1755L19.3964 36.0555C19.1747 36.1763 18.8969 36.0944 18.7762 35.8725C18.6555 35.6508 18.7373 35.3729 18.9591 35.2521L29.7519 29.3722C29.9738 29.2513 30.2514 29.3333 30.3721 29.555Z"
		fill="#263238" />
	<path fill-rule="evenodd" clip-rule="evenodd"
		d="M29.6889 32.2118C27.0911 32.8042 25.1511 35.1495 25.1511 37.9523V42.6731C25.1511 45.9232 27.7597 48.558 30.9778 48.558H33.411C36.6289 48.558 39.2376 45.9232 39.2376 42.6731V37.9523C39.2376 35.1673 37.3223 32.8342 34.7494 32.2233V36.2179C35.2597 36.6204 35.588 37.2476 35.588 37.9523V42.6731C35.588 43.8874 34.6132 44.8719 33.411 44.8719H30.9778C29.7754 44.8719 28.8008 43.8874 28.8008 42.6731V37.9523C28.8008 37.225 29.1503 36.5803 29.6889 36.1801V32.2118ZM45.5126 32.3907H41.8629V48.7519H45.5126V46.6503H49.5784C53.4683 46.6503 56.6217 43.4654 56.6217 39.5367C56.6217 35.6079 53.4628 32.3907 49.573 32.3907H45.5126ZM45.5126 36.1092V42.9642H49.5784C51.4526 42.9642 52.9721 41.4297 52.9721 39.5367C52.9721 37.6438 51.4526 36.1092 49.5784 36.1092H45.5126ZM79 32.3907H75.3504V48.7519H79V32.3907ZM58.8307 32.3907V36.077H64.0812V48.7519H67.7309V36.077H72.9813V32.3907H67.7309H64.0812H58.8307Z"
		fill="#263238" />
	<path
		d="M76.6849 27.1295H77.6311C77.6777 27.1295 77.7222 27.1487 77.7544 27.1822L78.9532 28.4402C78.9831 28.4716 78.9999 28.5134 78.9999 28.5568V29.4746C78.9999 29.5199 78.9818 29.5631 78.9496 29.5949L77.7537 30.7765C77.7219 30.808 77.6789 30.8256 77.634 30.8256H76.682C76.6375 30.8256 76.5947 30.8082 76.5629 30.777L75.3562 29.5951C75.3236 29.5632 75.3054 29.5197 75.3054 29.4743V28.5573C75.3054 28.5136 75.3222 28.4716 75.3525 28.4401L76.5622 27.1817C76.5943 27.1483 76.6387 27.1295 76.6849 27.1295Z"
		fill="#263238" />
	<defs>
		<linearGradient id="paint0_linear_201_340" x1="12.084" y1="38.0903" x2="66.0159" y2="11.0246" gradientUnits="userSpaceOnUse">
			<stop offset="0.0001" stop-color="#0BBBEF" />
			<stop offset="0.395412" stop-color="#00A0E3" />
			<stop offset="0.67667" stop-color="#126797" />
			<stop offset="0.792521" stop-color="#005893" />
			<stop offset="1" stop-color="#142647" />
		</linearGradient>
	</defs>
</svg>