<svg width="160" height="95" viewBox="0 0 160 95" fill="none" xmlns="http://www.w3.org/2000/svg">
	<path d="M0 78.8123C0 78.7774 33.8005 78.7518 75.486 78.7518C117.172 78.7518 150.981 78.7774 150.981 78.8123C150.981 78.8473 117.188 78.8729 75.486 78.8729C33.7842 78.8729 0 78.8449 0 78.8123Z" fill="#263238" />
	<path
		d="M114.142 9.84656e-07H25.6732C25.3106 -0.000305089 24.9515 0.0707473 24.6164 0.209099C24.2813 0.347451 23.9768 0.550389 23.7203 0.806314C23.4638 1.06224 23.2603 1.36613 23.1214 1.70063C22.9826 2.03512 22.9111 2.39365 22.9111 2.75574V65.1524C22.9111 65.8838 23.2021 66.5854 23.7201 67.1026C24.2381 67.6198 24.9407 67.9104 25.6732 67.9104H59.6277L57.9807 78.8122H82.5992L81.2251 67.9104H114.142C114.874 67.9104 115.577 67.6198 116.095 67.1026C116.613 66.5854 116.904 65.8838 116.904 65.1524V2.75574C116.904 2.39365 116.832 2.03512 116.693 1.70063C116.554 1.36613 116.351 1.06224 116.094 0.806314C115.838 0.550389 115.533 0.347451 115.198 0.209099C114.863 0.0707473 114.504 -0.000305089 114.142 9.84656e-07Z"
		fill="#455A64" />
	<path d="M71.0887 61.3486C72.2925 63.0654 70.4075 64.9476 68.6882 63.7456C68.6296 63.7057 68.5789 63.6551 68.5389 63.5965C67.3399 61.8797 69.2201 60.0022 70.9394 61.2018C70.9975 61.2416 71.048 61.2913 71.0887 61.3486Z" fill="#263238" />
	<path d="M27.6468 2.38068H112.177C112.474 2.38068 112.769 2.43912 113.043 2.55267C113.318 2.66623 113.567 2.83267 113.777 3.04249C113.987 3.25231 114.154 3.5014 114.268 3.77554C114.382 4.04969 114.44 4.34351 114.44 4.64024V56.4961H25.3862V4.64024C25.3862 4.04137 25.6243 3.46699 26.0482 3.04331C26.472 2.61963 27.047 2.38129 27.6468 2.38068Z" fill="#263238" />
	<path d="M90.3509 67.9105C90.3509 67.9408 82.9348 67.9664 73.7878 67.9664C64.6407 67.9664 57.2246 67.9408 57.2246 67.9105C57.2246 67.8802 64.6407 67.8569 73.7878 67.8569C82.9348 67.8569 90.3509 67.8826 90.3509 67.9105Z" fill="#263238" />
	<path d="M112.13 4.61688H27.8003V54.2575H112.13V4.61688Z" fill="white" />
	<path d="M112.13 4.61688H27.8003V8.74234H112.13V4.61688Z" fill="#E0E0E0" />
	<path
		d="M31.0782 6.76917C31.0819 6.88691 31.0504 7.00308 30.9876 7.10281C30.9248 7.20253 30.8336 7.28126 30.7257 7.32891C30.6178 7.37656 30.4981 7.39097 30.3819 7.37029C30.2658 7.34961 30.1585 7.29478 30.0737 7.21282C29.989 7.13086 29.9307 7.02551 29.9063 6.91026C29.8818 6.795 29.8924 6.6751 29.9367 6.56589C29.9809 6.45669 30.0568 6.36316 30.1546 6.29728C30.2524 6.2314 30.3677 6.19618 30.4857 6.19612C30.5623 6.19489 30.6384 6.20873 30.7096 6.23686C30.7808 6.265 30.8458 6.30686 30.9008 6.36008C30.9559 6.41329 30.9998 6.47681 31.0303 6.547C31.0607 6.61719 31.077 6.69269 31.0782 6.76917Z"
		fill="white" />
	<path
		d="M32.8435 6.76917C32.8472 6.88691 32.8156 7.00308 32.7528 7.10281C32.69 7.20253 32.5988 7.28126 32.4909 7.32891C32.383 7.37656 32.2633 7.39097 32.1472 7.37029C32.0311 7.34961 31.9237 7.29478 31.839 7.21282C31.7543 7.13086 31.6959 7.02551 31.6715 6.91026C31.6471 6.795 31.6577 6.6751 31.7019 6.56589C31.7462 6.45669 31.8221 6.36316 31.9199 6.29728C32.0177 6.2314 32.133 6.19618 32.2509 6.19612C32.3275 6.19489 32.4036 6.20873 32.4748 6.23686C32.5461 6.265 32.6111 6.30686 32.6661 6.36008C32.7211 6.41329 32.7651 6.47681 32.7955 6.547C32.826 6.61719 32.8423 6.69269 32.8435 6.76917Z"
		fill="white" />
	<path
		d="M34.5232 6.76917C34.5269 6.88691 34.4953 7.00308 34.4325 7.10281C34.3697 7.20253 34.2785 7.28126 34.1706 7.32891C34.0627 7.37656 33.943 7.39097 33.8269 7.37029C33.7107 7.34961 33.6034 7.29478 33.5187 7.21282C33.4339 7.13086 33.3756 7.02551 33.3512 6.91026C33.3268 6.795 33.3374 6.6751 33.3816 6.56589C33.4259 6.45669 33.5018 6.36316 33.5996 6.29728C33.6974 6.2314 33.8127 6.19618 33.9306 6.19612C34.0072 6.19489 34.0833 6.20873 34.1545 6.23686C34.2258 6.265 34.2907 6.30686 34.3458 6.36008C34.4008 6.41329 34.4448 6.47681 34.4752 6.547C34.5057 6.61719 34.522 6.69269 34.5232 6.76917Z"
		fill="white" />
	<path d="M112.147 14.8851H27.7842V32.6332H112.147V14.8851Z" fill="#E0E0E0" />
	<path d="M39.4908 11.1531H31.2466V13.2496H39.4908V11.1531Z" fill="#F8344B" />
	<path d="M97.2555 10.6782H91.2858V12.7747H97.2555V10.6782Z" fill="#E0E0E0" />
	<path d="M87.4974 10.6224H81.5277V12.7189H87.4974V10.6224Z" fill="#E0E0E0" />
	<path
		d="M66.8177 30.1617C66.8228 30.3111 66.7831 30.4587 66.7036 30.5854C66.6241 30.7121 66.5086 30.8122 66.3717 30.8729C66.2348 30.9336 66.0829 30.952 65.9355 30.9258C65.7881 30.8996 65.6518 30.8301 65.5443 30.726C65.4367 30.622 65.3628 30.4882 65.3319 30.3419C65.3011 30.1956 65.3147 30.0434 65.3711 29.9049C65.4275 29.7664 65.524 29.6478 65.6484 29.5645C65.7727 29.4812 65.9191 29.4369 66.0689 29.4372C66.1657 29.4357 66.2618 29.4532 66.3519 29.4888C66.4419 29.5244 66.524 29.5773 66.5936 29.6446C66.6631 29.7118 66.7187 29.7921 66.7571 29.8809C66.7956 29.9696 66.8162 30.065 66.8177 30.1617Z"
		fill="#F8344B" />
	<path
		d="M69.8037 30.1617C69.8088 30.3111 69.7691 30.4587 69.6896 30.5854C69.6101 30.7121 69.4945 30.8122 69.3576 30.8729C69.2208 30.9336 69.0689 30.952 68.9214 30.9258C68.774 30.8996 68.6378 30.8301 68.5302 30.726C68.4227 30.622 68.3487 30.4882 68.3179 30.3419C68.287 30.1956 68.3007 30.0434 68.357 29.9049C68.4134 29.7664 68.51 29.6478 68.6343 29.5645C68.7586 29.4812 68.9051 29.4369 69.0548 29.4372C69.1516 29.4357 69.2478 29.4532 69.3378 29.4888C69.4279 29.5244 69.51 29.5773 69.5795 29.6446C69.6491 29.7118 69.7047 29.7921 69.7431 29.8809C69.7816 29.9696 69.8021 30.065 69.8037 30.1617Z"
		fill="white" />
	<path
		d="M72.6544 30.1617C72.6595 30.3111 72.6198 30.4587 72.5403 30.5854C72.4608 30.7121 72.3452 30.8122 72.2084 30.8729C72.0715 30.9336 71.9196 30.952 71.7722 30.9258C71.6247 30.8996 71.4885 30.8301 71.381 30.726C71.2734 30.622 71.1995 30.4882 71.1686 30.3419C71.1377 30.1956 71.1514 30.0434 71.2077 29.9049C71.2641 29.7664 71.3607 29.6478 71.485 29.5645C71.6094 29.4812 71.7558 29.4369 71.9055 29.4372C72.0023 29.4357 72.0985 29.4532 72.1885 29.4888C72.2786 29.5244 72.3607 29.5773 72.4302 29.6446C72.4998 29.7118 72.5554 29.7921 72.5938 29.8809C72.6323 29.9696 72.6529 30.065 72.6544 30.1617Z"
		fill="white" />
	<path d="M56.9277 28.0095H34.8613V30.2178H56.9277V28.0095Z" fill="white" />
	<path d="M49.3954 35.8598H36.644V46.9666H49.3954V35.8598Z" fill="#E0E0E0" />
	<path d="M74.8677 35.6616H64.1156V46.3981H74.8677V35.6616Z" fill="#E0E0E0" />
	<path d="M100.183 35.3309H88.7712V46.7266H100.183V35.3309Z" fill="#E0E0E0" />
	<path
		d="M50.8625 38.627C50.8625 38.627 47.6665 35.0187 47.263 34.7881C46.9843 34.6618 46.6889 34.5763 46.3858 34.5342C46.2104 34.4967 46.0327 34.471 45.8539 34.4573H45.8189C44.8391 34.3711 43.3555 34.413 43.3555 34.413C43.3555 34.413 43.3298 35.7152 41.6665 36.2626C39.9565 36.6353 39.2707 35.5242 39.2707 35.5242C39.2707 35.5242 37.9713 36.2393 37.1711 36.81L37.1408 36.831C36.9934 36.9332 36.8531 37.0453 36.7209 37.1664C36.4805 37.3562 36.2691 37.5798 36.0933 37.8303C35.86 38.2333 34.9432 42.9551 34.9432 42.9551L38.3655 43.64L38.7131 41.3105L40.5607 48.8999L44.6269 47.7934L44.9721 47.6979L49.0872 46.5774L46.7754 39.1232L48.2591 40.9541L50.8625 38.627Z"
		fill="#F8344B" />
	<path
		d="M39.2236 43.1789C39.1365 42.9567 39.0656 42.7286 39.0113 42.4963C38.8947 42.07 38.7384 41.4714 38.5658 40.7982L38.5774 40.8168L38.3768 40.5536C37.9102 39.9339 37.4927 39.3702 37.1964 38.9602C37.0494 38.7552 36.9305 38.5875 36.8511 38.4687C36.8044 38.411 36.7652 38.3476 36.7345 38.28C36.7921 38.3265 36.8431 38.3805 36.8861 38.4408C36.9771 38.5502 37.1054 38.711 37.2617 38.9067C37.5767 39.305 38.0036 39.8594 38.4701 40.4767L38.6684 40.7446C38.8364 41.4225 38.9787 42.0211 39.0767 42.4544C39.1448 42.6916 39.1939 42.9339 39.2236 43.1789Z"
		fill="#263238" />
	<path
		d="M47.2637 40.9867C47.1692 40.7692 47.0912 40.545 47.0305 40.3158C46.8952 39.8942 46.7132 39.3025 46.5126 38.6363V38.613C46.5266 38.5082 46.5382 38.3963 46.5499 38.2822C46.6385 37.5135 46.7249 36.8193 46.7832 36.3161C46.8158 36.0646 46.8462 35.8502 46.8695 35.7221C46.8765 35.6483 46.8922 35.5756 46.9162 35.5055C46.9271 35.5789 46.9271 35.6534 46.9162 35.7268C46.9162 35.8689 46.8905 36.0739 46.8672 36.3255C46.8205 36.831 46.7482 37.5275 46.6595 38.2962C46.6479 38.4103 46.6339 38.5291 46.6222 38.627V38.6037C46.8182 39.2722 46.9861 39.8662 47.1028 40.2925C47.1733 40.5197 47.2271 40.7517 47.2637 40.9867Z"
		fill="#263238" />
	<path d="M43.246 38.4498L45.7226 37.7789L46.1502 39.3526C46.2302 39.6471 46.1898 39.9614 46.0378 40.2261C45.8858 40.4909 45.6347 40.6846 45.3397 40.7645L45.0876 40.8328C44.7926 40.9127 44.4779 40.8724 44.2127 40.7206C43.9475 40.5688 43.7536 40.3181 43.6736 40.0235L43.246 38.4498Z" fill="white" />
	<path
		d="M44.7856 40.8679C44.5315 40.8664 44.2848 40.7821 44.0831 40.6278C43.8814 40.4734 43.7357 40.2576 43.6681 40.013L43.2412 38.4499L45.7187 37.7791L46.1456 39.3444C46.2243 39.6409 46.1827 39.9564 46.0298 40.2225C45.877 40.4885 45.6252 40.6836 45.3291 40.7654L45.0958 40.8306C44.9946 40.8573 44.8902 40.8699 44.7856 40.8679ZM43.2552 38.4499L43.6798 40.013C43.7596 40.3045 43.9514 40.5527 44.2135 40.7036C44.4757 40.8545 44.7869 40.896 45.0795 40.819L45.3244 40.7514C45.6163 40.6718 45.8649 40.4802 46.016 40.2184C46.1672 39.9567 46.2087 39.6459 46.1316 39.3538L45.707 37.7907L43.2552 38.4499Z"
		fill="#263238" />
	<path
		d="M45.3968 40.7165C45.3968 40.7165 45.4808 40.6862 45.6161 40.6093C45.7798 40.5135 45.9136 40.374 46.0026 40.2066C46.0916 40.0392 46.1322 39.8504 46.12 39.6612C46.0915 39.4795 46.0486 39.3004 45.9916 39.1255C45.882 38.7388 45.7584 38.3125 45.6347 37.8536L45.7024 37.8932L44.3353 38.2682L43.3322 38.5385L43.3719 38.4686C43.5072 38.9764 43.6355 39.4493 43.7498 39.8802C43.7801 39.9874 43.8034 40.0945 43.8384 40.1854C43.8869 40.3113 43.9608 40.4259 44.0555 40.5221C44.1502 40.6183 44.2637 40.694 44.389 40.7444C44.6235 40.8376 44.8829 40.8474 45.1238 40.7724C45.2129 40.7453 45.3042 40.7266 45.3968 40.7165C45.3122 40.7563 45.2239 40.7875 45.1332 40.8097C44.8843 40.9032 44.6099 40.9032 44.361 40.8097C44.2269 40.7566 44.1049 40.677 44.0023 40.5757C43.8997 40.4745 43.8185 40.3536 43.7638 40.2203C43.7252 40.1174 43.6925 40.0124 43.6658 39.9058C43.5468 39.4772 43.4139 39.0043 43.2739 38.5082L43.2599 38.4546L43.3135 38.4383L44.3167 38.1657L45.686 37.7954L45.7397 37.7791L45.7537 37.835C45.8773 38.3009 45.987 38.7225 46.0943 39.1115C46.1517 39.2922 46.1923 39.4778 46.2156 39.6659C46.2209 39.8333 46.1883 39.9998 46.12 40.1528C46.0251 40.3666 45.8607 40.5423 45.6534 40.6513C45.5984 40.6793 45.5405 40.7011 45.4808 40.7165C45.4294 40.7165 45.4084 40.7211 45.3968 40.7165Z"
		fill="#263238" />
	<path d="M48.7546 49.2838H37.6316V50.7677H48.7546V49.2838Z" fill="#E0E0E0" />
	<path d="M74.7983 49.2838H63.6753V50.7677H74.7983V49.2838Z" fill="#E0E0E0" />
	<path d="M100.293 49.3217H89.7327V50.731H100.293V49.3217Z" fill="#E0E0E0" />
	<path d="M102.512 44.4552C102.379 43.9893 101.774 43.9893 101.334 43.7913C100.22 43.3033 99.1809 42.6628 98.2449 41.8882L88.7876 41.2452L88.7526 41.6249C90.9081 44.7394 94.8996 47.0246 98.6858 46.8359C99.7046 46.8171 100.704 46.5517 101.597 46.0625C102.085 45.7574 102.67 45.0096 102.512 44.4552Z" fill="#F8344B" />
	<g opacity="0.3">
		<path d="M102.512 44.4552C102.379 43.9893 101.774 43.9893 101.334 43.7913C100.22 43.3033 99.1809 42.6628 98.2449 41.8882L88.7876 41.2452L88.7526 41.6249C90.9081 44.7394 94.8996 47.0246 98.6858 46.8359C99.7046 46.8171 100.704 46.5517 101.597 46.0625C102.085 45.7574 102.67 45.0096 102.512 44.4552Z" fill="black" />
	</g>
	<path d="M98.7513 39.4307C98.2848 38.3125 97.6153 37.262 96.3695 36.7052C95.5909 36.3793 94.7463 36.2409 93.9042 36.3012C93.0621 36.3615 92.246 36.6188 91.5219 37.0523C90.1082 37.8746 88.9931 39.9175 88.7551 41.3874C92.0048 44.3505 98.4971 44.8816 99.5118 43.053C99.6355 41.8976 99.2249 40.5465 98.7513 39.4307Z" fill="#F8344B" />
	<path d="M102.481 44.2733C102.348 43.8074 101.842 43.5745 101.401 43.3905C100.288 42.9019 99.2486 42.2614 98.3122 41.4873L88.7476 41.3778C90.9101 44.4876 94.9599 46.6237 98.7461 46.4234C99.7656 46.4121 100.767 46.1539 101.665 45.671C102.159 45.3658 102.64 44.837 102.481 44.2733Z" fill="#F8344B" />
	<path
		d="M99.6165 42.4471C99.6183 42.4878 99.6144 42.5286 99.6048 42.5682C99.5814 42.6851 99.5479 42.7996 99.5045 42.9106C99.3338 43.3207 99.0253 43.6584 98.632 43.8657C98.3648 44.0087 98.0778 44.1115 97.7805 44.1709C97.6155 44.2036 97.4488 44.2277 97.2813 44.2431C97.1087 44.2617 96.9314 44.2757 96.7494 44.278C95.9577 44.2911 95.167 44.213 94.3932 44.0451C92.988 43.749 91.637 43.2383 90.3877 42.5309C90.0124 42.3163 89.648 42.0831 89.296 41.8321L89.016 41.6155C88.9826 41.5919 88.9521 41.5646 88.925 41.5339C88.9633 41.5493 88.9994 41.5697 89.0324 41.5945L89.324 41.7925C89.5782 41.9626 89.9538 42.1955 90.4297 42.4634C91.6819 43.142 93.0254 43.637 94.4189 43.9333C95.1853 44.0978 95.9678 44.1759 96.7517 44.1662C96.9271 44.1657 97.1023 44.1556 97.2766 44.1359C97.4409 44.1239 97.6045 44.1029 97.7665 44.073C98.0561 44.0192 98.3366 43.9242 98.5993 43.7912C98.9819 43.5977 99.2877 43.2809 99.4672 42.892C99.5244 42.7463 99.5742 42.5978 99.6165 42.4471Z"
		fill="#263238" />
	<path
		d="M97.4848 44.1685C97.4812 44.1135 97.4812 44.0582 97.4848 44.0031C97.4848 43.882 97.4848 43.7267 97.4848 43.5373C97.5011 43.1249 97.4848 42.5263 97.4545 41.7925C97.4055 40.9317 97.2632 40.0788 97.0299 39.2487C96.8888 38.762 96.6924 38.2931 96.4444 37.8511C96.1831 37.3782 95.8079 36.9779 95.3526 36.6863C95.3019 36.6558 95.2489 36.6293 95.194 36.6071H95.2266C94.7049 36.7101 94.214 36.9317 93.7919 37.2547C93.4055 37.5669 93.0564 37.9226 92.7515 38.3146C92.215 38.9636 91.7663 39.6802 91.4171 40.4461C91.1162 41.0983 90.9249 41.6481 90.7826 42.0254L90.6169 42.4587C90.6005 42.5095 90.5794 42.5586 90.554 42.6055C90.5615 42.5519 90.5756 42.4995 90.5959 42.4494C90.6309 42.3376 90.6799 42.1908 90.7382 42.0091C90.8666 41.6294 91.0462 41.0774 91.3378 40.4111C91.6805 39.6326 92.127 38.9039 92.6652 38.2447C92.9726 37.8434 93.3265 37.4798 93.7196 37.1616C94.1547 36.8259 94.6617 36.5954 95.201 36.4883H95.2196H95.2336C95.2961 36.5114 95.3562 36.5402 95.4133 36.5745C95.8866 36.8784 96.2763 37.2956 96.547 37.7882C96.7987 38.2388 96.9967 38.7173 97.1372 39.2138C97.3669 40.0503 97.5022 40.9097 97.5408 41.7762C97.5714 42.3605 97.5714 42.946 97.5408 43.5303C97.5291 43.7259 97.5198 43.8843 97.5105 43.9962C97.5095 44.0545 97.5008 44.1124 97.4848 44.1685Z"
		fill="#263238" />
	<path d="M95.3001 36.18L95.3644 36.1912C95.434 36.2032 95.4958 36.2422 95.5365 36.2998C95.5771 36.3574 95.5932 36.4287 95.5812 36.4981L95.5458 36.7024L94.9642 36.602L94.9996 36.3977C95.0114 36.3294 95.0494 36.2685 95.1055 36.2279C95.1617 36.1872 95.2315 36.17 95.3001 36.18Z" fill="#263238" />
	<path d="M95.0869 41.031L94.8536 42.1049C94.8536 42.1049 96.2743 42.8782 97.6111 42.6127C98.0991 42.5393 98.5436 42.2908 98.8615 41.9138L98.7705 40.9821C98.7705 40.9821 98.3902 41.4177 97.2425 41.4479C96.3886 41.4782 95.0869 41.031 95.0869 41.031Z" fill="white" />
	<path
		d="M102.04 45.34C102.04 45.34 102.019 45.368 101.968 45.4123C101.895 45.4794 101.817 45.5409 101.735 45.5963C101.435 45.8052 101.108 45.9736 100.764 46.0971C99.6229 46.4964 98.4062 46.6342 97.2043 46.5001C96.0086 46.3563 94.8451 46.0155 93.7611 45.4915C93.3458 45.2935 93.0192 45.1164 92.7976 44.986C92.6856 44.9231 92.6017 44.8695 92.5433 44.8346C92.5127 44.8183 92.4844 44.798 92.4594 44.774C92.5836 44.8217 92.7037 44.8793 92.8186 44.9464C93.0519 45.0628 93.3785 45.2282 93.7984 45.4123C94.8819 45.9062 96.0356 46.2292 97.2184 46.3697C98.4026 46.4991 99.6009 46.376 100.734 46.0086C101.198 45.8469 101.638 45.622 102.04 45.34Z"
		fill="#263238" />
	<path
		d="M62.7535 39.1488C62.7535 39.1488 64.0249 36.7518 65.5693 36.5864C65.5693 36.5864 68.4177 38.217 68.8539 38.1122C69.2902 38.0074 68.6556 37.1804 69.2552 36.7145C69.8547 36.2486 70.4566 36.7704 70.7015 37.1292C70.9465 37.4879 72.6634 41.4037 74.1168 42.4007C75.5702 43.3977 77.8493 45.3964 77.4854 46.2955C77.2102 46.9664 77.2825 46.7218 75.9947 46.9641C74.707 47.2064 70.4426 45.1541 69.0685 43.7588C66.9107 41.5901 64.1696 39.2723 62.7535 39.1488Z"
		fill="#F8344B" />
	<path
		d="M76.9669 47.246C77.0267 47.213 77.073 47.16 77.0977 47.0964C77.1223 47.0327 77.1238 46.9624 77.1019 46.8978C77.0799 46.8331 77.0359 46.7782 76.9776 46.7427C76.9192 46.7071 76.8502 46.6932 76.7826 46.7033C76.7057 46.7185 76.6277 46.727 76.5493 46.7289C75.6768 46.7569 74.5547 46.4238 73.162 45.8204C71.7693 45.2171 71.2631 44.8188 69.4995 43.491C67.7358 42.1632 66.2778 39.8477 64.8898 39.4517C64.2217 39.2367 63.5223 39.1344 62.8205 39.1489C62.7766 39.1514 62.7341 39.165 62.6969 39.1885C61.7311 39.7685 59.9465 42.0677 60.8726 42.6826C61.5142 43.1043 63.735 43.3815 65.305 43.9173C66.875 44.453 70.3136 45.9695 72.2662 46.645C74.2188 47.3206 76.2064 47.6234 76.9552 47.2647L76.9669 47.246Z"
		fill="white" />
	<path
		d="M76.9669 47.2459C76.9393 47.2657 76.9085 47.2807 76.8759 47.2902C76.7859 47.3286 76.692 47.3575 76.596 47.3764C76.2241 47.4362 75.846 47.4463 75.4715 47.4067C74.0954 47.2566 72.7467 46.9171 71.4637 46.398C69.8307 45.79 67.9178 44.9631 65.7646 44.1408C64.6915 43.7145 63.5017 43.4885 62.277 43.209C61.9714 43.1345 61.6611 43.0599 61.3555 42.9598C61.1943 42.911 61.0381 42.8471 60.889 42.7687C60.8097 42.7286 60.7401 42.6717 60.685 42.6022C60.6298 42.5326 60.5904 42.452 60.5694 42.3657C60.5204 42.0265 60.5835 41.6806 60.749 41.3804C60.8926 41.0781 61.0661 40.7909 61.2669 40.5231C61.4631 40.2529 61.6791 39.9975 61.9131 39.7591C62.1418 39.5153 62.4014 39.3023 62.6852 39.1255C62.77 39.0968 62.8595 39.0849 62.9489 39.0905C63.0305 39.0905 63.1122 39.0905 63.1821 39.0905C63.3454 39.0905 63.5064 39.1138 63.6674 39.1348C63.9819 39.1778 64.2936 39.24 64.6005 39.3212C64.9105 39.39 65.2068 39.5097 65.4777 39.6752C65.7381 39.8421 65.9839 40.0307 66.2125 40.239C66.6651 40.6443 67.0663 41.0799 67.4652 41.4969C68.1967 42.3147 69.0096 43.0562 69.8914 43.7098C70.6271 44.3059 71.407 44.8455 72.2242 45.3241C73.7732 46.1092 75.1239 46.589 76.0921 46.6892C76.3052 46.7137 76.5205 46.7137 76.7336 46.6892C76.7776 46.6782 76.8234 46.6761 76.8682 46.6829C76.9131 46.6897 76.9561 46.7053 76.9949 46.7288C77.0571 46.7731 77.101 46.8385 77.1185 46.9128C77.1324 46.9613 77.133 47.0125 77.1203 47.0613C77.1075 47.11 77.082 47.1545 77.0462 47.19C77.0285 47.208 77.008 47.2229 76.9856 47.2343H76.9622C76.9887 47.2153 77.0136 47.1942 77.0369 47.1714C77.069 47.1366 77.0914 47.0939 77.1016 47.0476C77.1119 47.0014 77.1096 46.9533 77.0952 46.9082C77.0769 46.8417 77.0355 46.784 76.9786 46.7451C76.9077 46.7051 76.824 46.6942 76.7453 46.7148C76.5284 46.7421 76.3089 46.7421 76.0921 46.7148C75.4998 46.6489 74.9177 46.5112 74.3588 46.3048C73.6145 46.0458 72.8895 45.7344 72.1892 45.3731C71.3606 44.899 70.5705 44.3608 69.8261 43.7634C69.3935 43.4534 68.9827 43.114 68.5967 42.7478C68.1977 42.3727 67.8082 41.9651 67.4116 41.5458C67.015 41.1265 66.6091 40.6979 66.1635 40.2972C65.9396 40.0945 65.6993 39.9106 65.445 39.7474C65.1839 39.5873 64.8976 39.4723 64.5982 39.4073C64.291 39.3285 63.9794 39.2679 63.665 39.2256C63.5087 39.2047 63.3501 39.1907 63.1985 39.1837C63.1192 39.1837 63.0398 39.1837 62.9652 39.1837C62.8928 39.1781 62.82 39.186 62.7506 39.207C62.4804 39.3781 62.2327 39.5824 62.0134 39.815C61.7846 40.0499 61.5725 40.3005 61.3789 40.5651C61.1834 40.8277 61.0139 41.1085 60.8726 41.4037C60.7215 41.6794 60.6612 41.9956 60.7 42.3075C60.763 42.6103 61.1082 42.7128 61.3999 42.8177C61.6915 42.9225 62.0064 42.9924 62.312 43.0646C63.5297 43.3534 64.7311 43.584 65.8113 44.015C67.9691 44.8466 69.8727 45.6782 71.5034 46.2955C72.7773 46.8196 74.1158 47.1706 75.4832 47.3391C75.8542 47.3852 76.2296 47.3852 76.6006 47.3391C76.696 47.3226 76.7897 47.2977 76.8806 47.2646L76.9669 47.2459Z"
		fill="#263238" />
	<path d="M72.4115 40.3136C72.4115 40.3486 72.1129 40.3951 71.7676 40.5303C71.4224 40.6654 71.1681 40.8308 71.1471 40.8028C71.2964 40.619 71.4982 40.4849 71.7256 40.4184C71.9377 40.3128 72.1775 40.2761 72.4115 40.3136Z" fill="white" />
	<path d="M73.0222 41.1542C72.8542 41.3198 72.6584 41.4547 72.4436 41.5525C72.2485 41.6854 72.0324 41.7846 71.8044 41.846C71.9729 41.681 72.1686 41.5463 72.383 41.4477C72.5784 41.3153 72.7944 41.2161 73.0222 41.1542Z" fill="white" />
	<path d="M73.7135 41.9933C73.7345 42.0212 73.5432 42.2099 73.3099 42.4405C73.0767 42.6711 72.8807 42.8552 72.855 42.8342C72.8294 42.8132 72.9857 42.5873 73.2236 42.352C73.4616 42.1167 73.6925 41.9676 73.7135 41.9933Z" fill="white" />
	<path d="M64.4196 41.5005L62.8279 41.043C62.7041 41.0074 62.5749 41.0787 62.5392 41.2024L62.525 41.2516C62.4894 41.3752 62.5609 41.5043 62.6847 41.5399L64.2763 41.9975C64.4002 42.033 64.5294 41.9617 64.5651 41.838L64.5793 41.7888C64.6149 41.6652 64.5434 41.5361 64.4196 41.5005Z" fill="#F8344B" />
	<path d="M65.2258 36.7888C65.1909 36.591 65.1111 36.4037 64.9926 36.2414C64.9473 36.1621 64.8728 36.1035 64.7849 36.0784C64.687 36.0747 64.5911 36.1061 64.5143 36.1669L64.2927 36.3066C64.2461 36.3369 64.1947 36.3719 64.1901 36.4254C64.19 36.4662 64.204 36.5056 64.2297 36.5373L64.554 37.0358" fill="#F8344B" />
	<path
		d="M65.5689 36.6004C65.5689 36.6214 65.3613 36.6819 65.044 36.8333C64.6346 37.0463 64.257 37.3152 63.922 37.6324C63.5861 37.95 63.2914 38.3084 63.0448 38.6992C62.8582 38.9997 62.7672 39.2024 62.7485 39.1954C62.7918 39.0042 62.8667 38.8216 62.9702 38.655C63.2003 38.2422 63.4939 37.868 63.8403 37.5462C64.1801 37.2171 64.5748 36.9498 65.0067 36.7565C65.1825 36.6693 65.3733 36.6163 65.5689 36.6004Z"
		fill="#263238" />
	<path d="M64.7082 36.9709C64.6732 36.9709 64.6172 36.8218 64.4749 36.6751C64.3326 36.5283 64.1996 36.4421 64.2113 36.4142C64.223 36.3862 64.4142 36.4142 64.5682 36.5959C64.7222 36.7775 64.7408 36.9686 64.7082 36.9709Z" fill="#263238" />
	<g opacity="0.3">
		<path d="M68.9844 38.0234C69.0171 37.9162 70.2605 39.9568 71.1003 40.7511C70.1672 40.064 69.206 38.9528 68.4712 38.0536C68.4712 38.0536 68.9098 38.2703 68.9844 38.0234Z" fill="black" />
	</g>
	<path
		d="M74.1373 42.9549C74.0878 42.9947 74.0293 43.0219 73.967 43.0341C73.8007 43.0839 73.626 43.0989 73.4537 43.0784C73.1986 43.0482 72.9528 42.964 72.7329 42.8314C72.4704 42.6668 72.2344 42.4634 72.033 42.2281C71.9257 42.1047 71.8254 41.9789 71.7321 41.8577C71.6388 41.7366 71.5595 41.6248 71.4778 41.4967L71.0579 40.8817C70.919 40.6978 70.7965 40.5022 70.6917 40.297C70.8525 40.4617 70.9984 40.6402 71.1279 40.8304C71.2609 41.0121 71.4102 41.2125 71.5735 41.4291L71.8324 41.7855C71.9257 41.9043 72.026 42.0185 72.131 42.1466C72.3255 42.3742 72.5518 42.5727 72.8029 42.7359C73.008 42.8659 73.2373 42.953 73.4771 42.9922C73.6976 43.0188 73.9211 43.0062 74.1373 42.9549Z"
		fill="#263238" />
	<path
		d="M71.973 40.402C71.9431 40.3278 71.9257 40.249 71.9217 40.1691C71.8927 39.9561 71.8849 39.7407 71.8984 39.5261C71.9167 39.2092 71.9763 38.896 72.0757 38.5944C72.1325 38.414 72.2043 38.2387 72.2903 38.0702C72.3339 37.9788 72.3829 37.8902 72.4372 37.8047C72.4705 37.7563 72.5124 37.7144 72.5609 37.6812C72.5895 37.6625 72.6219 37.6503 72.6558 37.6455C72.6896 37.6406 72.7241 37.6433 72.7568 37.6533C72.8129 37.6797 72.8608 37.7207 72.8957 37.7719C72.9306 37.8231 72.9511 37.8827 72.9551 37.9445C72.9692 38.0448 72.9754 38.146 72.9738 38.2473C72.9765 38.437 72.9609 38.6266 72.9271 38.8133C72.8696 39.1291 72.7634 39.434 72.6122 39.7172C72.5114 39.908 72.3885 40.0862 72.246 40.2483C72.1989 40.3113 72.1413 40.3657 72.0757 40.409C72.2483 40.1773 72.4042 39.9336 72.5422 39.6799C72.6779 39.3999 72.7722 39.1017 72.8222 38.7947C72.8533 38.6148 72.8666 38.4322 72.8618 38.2496C72.8627 38.1545 72.8565 38.0596 72.8432 37.9654C72.8292 37.8769 72.7872 37.7861 72.7265 37.7674C72.6659 37.7488 72.5959 37.7977 72.5446 37.8746C72.4925 37.9549 72.445 38.0382 72.4023 38.1238C72.3188 38.287 72.2471 38.4559 72.1876 38.6293C72.0869 38.9242 72.0212 39.2299 71.9917 39.5401C71.9334 40.0806 71.9917 40.3997 71.973 40.402Z"
		fill="white" />
	<path
		d="M71.9918 40.353C72.0308 40.2815 72.0795 40.2156 72.1365 40.1573C72.2368 40.0385 72.3837 39.8662 72.5797 39.6658C72.8065 39.4268 73.0583 39.2128 73.3309 39.0276C73.4932 38.9171 73.6658 38.8228 73.8464 38.7457C73.9441 38.698 74.0489 38.6666 74.1567 38.6525C74.2195 38.6433 74.2837 38.6511 74.3425 38.6753C74.4012 38.6995 74.4523 38.7391 74.4903 38.7899C74.5222 38.8431 74.5417 38.9027 74.5474 38.9644C74.553 39.0261 74.5447 39.0883 74.523 39.1464C74.4846 39.248 74.4294 39.3425 74.3597 39.4259C74.2338 39.5809 74.0852 39.716 73.9187 39.8266C73.6392 40.0064 73.3306 40.1364 73.0066 40.2109C72.7915 40.2639 72.5734 40.3036 72.3534 40.3297C72.2767 40.3455 72.1984 40.3518 72.1201 40.3483C72.1201 40.3251 72.4607 40.2738 72.9926 40.1294C73.3026 40.0444 73.5971 39.9107 73.8651 39.7334C74.0192 39.6276 74.1567 39.4996 74.2733 39.3537C74.3946 39.2069 74.495 39.0089 74.397 38.8575C74.3709 38.825 74.3366 38.8001 74.2976 38.7854C74.2587 38.7706 74.2164 38.7666 74.1754 38.7736C74.0805 38.7857 73.9883 38.8132 73.9024 38.8552C73.7277 38.9286 73.5598 39.0175 73.4009 39.1207C73.1327 39.3005 72.8805 39.5032 72.6473 39.7264C72.2251 40.1107 71.9918 40.367 71.9918 40.353Z"
		fill="white" />
	<path d="M108.785 9.40851H102.437C101.942 9.40851 101.541 9.80899 101.541 10.303V16.6414C101.541 17.1355 101.942 17.536 102.437 17.536H108.785C109.279 17.536 109.681 17.1355 109.681 16.6414V10.303C109.681 9.80899 109.279 9.40851 108.785 9.40851Z" fill="#F8344B" />
	<path
		d="M106.968 14.1819H104.278C104.247 14.1813 104.218 14.1689 104.196 14.1471C104.175 14.1254 104.162 14.0961 104.161 14.0654C104.161 14.0345 104.174 14.0049 104.196 13.9831C104.218 13.9612 104.247 13.949 104.278 13.949H106.87L107.15 12.3719H104.026C103.995 12.3719 103.966 12.3597 103.944 12.3378C103.922 12.316 103.91 12.2863 103.91 12.2555C103.91 12.2246 103.922 12.1949 103.944 12.1731C103.966 12.1513 103.995 12.139 104.026 12.139H107.292C107.309 12.1388 107.326 12.1422 107.342 12.1491C107.358 12.1559 107.372 12.166 107.383 12.1786C107.394 12.1919 107.401 12.2073 107.405 12.2238C107.409 12.2403 107.41 12.2574 107.406 12.2741L107.087 14.0864C107.082 14.1139 107.067 14.1388 107.045 14.1563C107.023 14.1738 106.996 14.1829 106.968 14.1819Z"
		fill="white" />
	<path
		d="M106.879 14.8149H104.313C104.284 14.8146 104.257 14.804 104.236 14.7851C104.215 14.7663 104.202 14.7405 104.198 14.7125L103.841 11.8938H103.12C103.089 11.8938 103.06 11.8815 103.038 11.8597C103.016 11.8379 103.004 11.8082 103.004 11.7773C103.004 11.7465 103.016 11.7168 103.038 11.695C103.06 11.6731 103.089 11.6609 103.12 11.6609H103.951C103.979 11.6601 104.007 11.6699 104.029 11.6884C104.05 11.707 104.064 11.7328 104.068 11.761L104.417 14.5727H106.876C106.907 14.5727 106.937 14.585 106.959 14.6068C106.981 14.6286 106.993 14.6583 106.993 14.6892C106.994 14.705 106.992 14.7208 106.986 14.7357C106.981 14.7506 106.973 14.7643 106.962 14.7761C106.952 14.7878 106.939 14.7973 106.924 14.8039C106.91 14.8106 106.894 14.8144 106.879 14.8149Z"
		fill="white" />
	<path
		d="M104.735 15.724C104.649 15.724 104.564 15.6984 104.493 15.6504C104.421 15.6025 104.365 15.5343 104.332 15.4545C104.299 15.3748 104.291 15.2871 104.308 15.2025C104.325 15.118 104.366 15.0404 104.428 14.9795C104.489 14.9187 104.567 14.8774 104.652 14.8609C104.736 14.8443 104.824 14.8533 104.904 14.8866C104.984 14.9199 105.052 14.9761 105.099 15.0481C105.147 15.12 105.172 15.2045 105.172 15.2907C105.172 15.3478 105.16 15.4043 105.138 15.4571C105.116 15.5098 105.084 15.5577 105.044 15.5979C105.003 15.6382 104.955 15.6701 104.902 15.6917C104.849 15.7133 104.792 15.7243 104.735 15.724ZM104.735 15.0881C104.695 15.0881 104.656 15.0999 104.623 15.1222C104.589 15.1445 104.563 15.1761 104.548 15.2132C104.532 15.2502 104.528 15.2909 104.536 15.3303C104.544 15.3696 104.563 15.4057 104.592 15.434C104.62 15.4624 104.656 15.4817 104.696 15.4895C104.735 15.4973 104.776 15.4933 104.813 15.478C104.85 15.4626 104.882 15.4366 104.904 15.4033C104.926 15.37 104.938 15.3308 104.938 15.2907C104.939 15.264 104.934 15.2375 104.923 15.2128C104.913 15.1881 104.898 15.1656 104.88 15.1467C104.861 15.1278 104.838 15.1129 104.813 15.1028C104.789 15.0928 104.762 15.0877 104.735 15.0881Z"
		fill="white" />
	<path
		d="M106.503 15.724C106.416 15.7245 106.332 15.6992 106.26 15.6515C106.188 15.6039 106.131 15.5359 106.098 15.4562C106.065 15.3765 106.056 15.2887 106.073 15.204C106.089 15.1193 106.131 15.0414 106.192 14.9804C106.253 14.9193 106.331 14.8778 106.416 14.861C106.501 14.8443 106.589 14.8531 106.669 14.8864C106.748 14.9196 106.817 14.9758 106.864 15.0478C106.912 15.1198 106.937 15.2044 106.937 15.2907C106.936 15.4054 106.89 15.5153 106.809 15.5964C106.728 15.6775 106.618 15.7234 106.503 15.724ZM106.503 15.0881C106.463 15.0876 106.423 15.0991 106.39 15.1211C106.356 15.1431 106.329 15.1745 106.314 15.2115C106.298 15.2485 106.294 15.2893 106.301 15.3288C106.309 15.3683 106.328 15.4046 106.356 15.4332C106.385 15.4617 106.421 15.4813 106.46 15.4893C106.5 15.4973 106.54 15.4934 106.578 15.4782C106.615 15.4629 106.647 15.4369 106.669 15.4035C106.692 15.3702 106.704 15.3309 106.704 15.2907C106.704 15.2374 106.682 15.1862 106.645 15.1482C106.607 15.1103 106.556 15.0887 106.503 15.0881Z"
		fill="white" />
	<path
		d="M105.118 14.1819C105.089 14.1814 105.06 14.1699 105.039 14.1497C105.017 14.1294 105.004 14.1019 105.002 14.0724L104.892 12.3207C104.891 12.3054 104.893 12.29 104.898 12.2756C104.903 12.2611 104.911 12.2477 104.921 12.2362C104.931 12.2248 104.944 12.2154 104.958 12.2087C104.971 12.202 104.986 12.1981 105.002 12.1972C105.017 12.196 105.033 12.1978 105.047 12.2027C105.062 12.2076 105.075 12.2153 105.087 12.2256C105.099 12.2358 105.108 12.2483 105.114 12.2622C105.121 12.2762 105.125 12.2913 105.125 12.3067L105.235 14.0585C105.236 14.0738 105.234 14.0891 105.229 14.1036C105.224 14.1181 105.216 14.1314 105.206 14.1429C105.196 14.1544 105.183 14.1637 105.169 14.1704C105.156 14.1771 105.141 14.181 105.125 14.1819H105.118Z"
		fill="white" />
	<path
		d="M106.093 14.1819C106.078 14.181 106.063 14.1771 106.049 14.1704C106.035 14.1637 106.023 14.1544 106.013 14.1429C106.003 14.1315 105.995 14.1181 105.99 14.1036C105.985 14.0891 105.983 14.0738 105.984 14.0585L106.082 12.3067C106.082 12.2914 106.085 12.2763 106.092 12.2624C106.098 12.2485 106.107 12.236 106.119 12.2257C106.13 12.2154 106.143 12.2076 106.158 12.2027C106.172 12.1978 106.188 12.196 106.203 12.1972C106.218 12.1978 106.233 12.2014 106.247 12.2079C106.261 12.2143 106.273 12.2235 106.283 12.2347C106.294 12.246 106.301 12.2592 106.306 12.2736C106.312 12.288 106.314 12.3032 106.313 12.3184L106.215 14.0724C106.214 14.0876 106.21 14.1026 106.204 14.1163C106.198 14.1301 106.188 14.1425 106.177 14.1527C106.166 14.1629 106.153 14.1707 106.138 14.1757C106.124 14.1808 106.109 14.1829 106.093 14.1819Z"
		fill="white" />
	<path
		d="M104.124 13.3058C104.093 13.3052 104.064 13.2928 104.042 13.2711C104.021 13.2493 104.008 13.2201 104.008 13.1894C104.008 13.1585 104.02 13.1288 104.042 13.107C104.064 13.0852 104.093 13.0729 104.124 13.0729L107.127 13.0426C107.157 13.0432 107.187 13.0557 107.208 13.0774C107.23 13.0991 107.243 13.1284 107.243 13.1591C107.244 13.1743 107.241 13.1894 107.235 13.2035C107.23 13.2176 107.221 13.2304 107.211 13.2413C107.2 13.2521 107.187 13.2608 107.173 13.2666C107.159 13.2725 107.144 13.2756 107.129 13.2755L104.127 13.3058H104.124Z"
		fill="white" />
	<path
		d="M36.4643 25.6519C36.0021 25.5627 35.5555 25.4057 35.1393 25.186L35.8858 23.3923C36.2246 23.5899 36.591 23.7359 36.9729 23.8256C37.3708 23.9276 37.7798 23.98 38.1906 23.9817C38.4121 23.9948 38.6342 23.968 38.8462 23.9025C38.8983 23.8887 38.9448 23.8587 38.9787 23.8168C39.0127 23.7749 39.0325 23.7234 39.0351 23.6695C39.0351 23.5647 38.9558 23.4925 38.8018 23.4529C38.549 23.3955 38.2926 23.3551 38.0343 23.3318C37.5713 23.2805 37.1122 23.198 36.6603 23.0848C36.2819 22.984 35.9382 22.7819 35.6665 22.5002C35.5156 22.3327 35.3999 22.1368 35.3261 21.9239C35.2524 21.7111 35.2222 21.4856 35.2373 21.2609C35.233 20.8461 35.3695 20.4422 35.6245 20.1148C35.9265 19.7458 36.3244 19.4669 36.7746 19.3088C37.3641 19.0951 37.9883 18.9932 38.6152 19.0083C39.1068 19.0081 39.5973 19.0541 40.0802 19.1457C40.5052 19.2209 40.917 19.3574 41.3026 19.5511L40.5561 21.3447C39.9733 21.0221 39.3166 20.8559 38.6502 20.8625C38.0553 20.8625 37.7591 20.9674 37.7591 21.1747C37.7591 21.2795 37.8384 21.3541 37.9923 21.4076C38.2426 21.4674 38.4967 21.5094 38.7529 21.5334C39.2143 21.5837 39.6712 21.6686 40.1199 21.7873C40.4962 21.8925 40.8376 22.0959 41.109 22.3767C41.26 22.5445 41.3758 22.7409 41.4495 22.9541C41.5232 23.1674 41.5534 23.3932 41.5383 23.6183C41.5393 24.0247 41.4029 24.4195 41.151 24.7388C40.8447 25.1103 40.4408 25.3894 39.9846 25.5447C39.3864 25.759 38.7536 25.8609 38.1183 25.8452C37.5617 25.8397 37.0072 25.7749 36.4643 25.6519Z"
		fill="white" />
	<path
		d="M48.8961 19.7372C49.3906 20.2264 49.6379 20.9671 49.6379 21.9525V25.7099H46.9225V22.423C46.9225 21.6683 46.6527 21.2909 46.113 21.2909C45.9734 21.2862 45.8346 21.3124 45.7063 21.3676C45.5781 21.4227 45.4636 21.5055 45.3712 21.6101C45.1584 21.9004 45.0581 22.2579 45.0889 22.6164V25.7099H42.3641V16.7858H45.0912V19.665C45.6113 19.2251 46.2763 18.9935 46.9575 19.0151C47.3125 19.0002 47.6669 19.0565 47.9999 19.1805C48.3328 19.3045 48.6375 19.4938 48.8961 19.7372Z"
		fill="white" />
	<path
		d="M52.4626 25.3914C51.9025 25.1201 51.4285 24.6992 51.0933 24.1754C50.7699 23.6439 50.5989 23.0339 50.5989 22.412C50.5989 21.7901 50.7699 21.1801 51.0933 20.6486C51.4281 20.1256 51.9023 19.7062 52.4626 19.4373C53.0842 19.1504 53.7608 19.0018 54.4455 19.0018C55.1303 19.0018 55.8069 19.1504 56.4285 19.4373C56.9877 19.705 57.4599 20.1249 57.7908 20.6486C58.11 21.1816 58.2786 21.791 58.2786 22.412C58.2786 23.033 58.11 23.6424 57.7908 24.1754C57.4595 24.6999 56.9875 25.1212 56.4285 25.3914C55.808 25.6822 55.131 25.833 54.4455 25.833C53.7601 25.833 53.0831 25.6822 52.4626 25.3914ZM55.206 23.3694C55.4216 23.0985 55.5288 22.7573 55.507 22.412C55.5291 22.0688 55.4217 21.7297 55.206 21.4616C55.1077 21.355 54.9884 21.2699 54.8554 21.2117C54.7225 21.1535 54.579 21.1235 54.4339 21.1235C54.2888 21.1235 54.1452 21.1535 54.0123 21.2117C53.8794 21.2699 53.76 21.355 53.6617 21.4616C53.446 21.7297 53.3387 22.0688 53.3608 22.412C53.3389 22.7573 53.4462 23.0985 53.6617 23.3694C53.7593 23.4772 53.8784 23.5635 54.0114 23.6225C54.1444 23.6815 54.2883 23.712 54.4339 23.712C54.5794 23.712 54.7234 23.6815 54.8564 23.6225C54.9894 23.5635 55.1085 23.4772 55.206 23.3694Z"
		fill="white" />
	<path
		d="M65.1263 19.4181C65.6208 19.7 66.0252 20.1159 66.2927 20.6178C66.5735 21.1774 66.7197 21.7948 66.7197 22.4208C66.7197 23.0467 66.5735 23.6641 66.2927 24.2238C66.0233 24.7225 65.6192 25.1357 65.1263 25.4164C64.6397 25.6934 64.0883 25.8364 63.5283 25.8311C62.7981 25.8311 62.2382 25.6424 61.8533 25.265V28.0464H59.1262V19.1153H61.7273V19.6557C62.1208 19.2147 62.7235 18.9941 63.5353 18.9941C64.0938 18.9929 64.6427 19.1391 65.1263 19.4181ZM63.6496 23.3782C63.8653 23.11 63.9726 22.771 63.9505 22.4278C63.9724 22.0824 63.8651 21.7413 63.6496 21.4704C63.552 21.3625 63.4329 21.2763 63.2999 21.2173C63.1669 21.1582 63.023 21.1277 62.8774 21.1277C62.7319 21.1277 62.588 21.1582 62.4549 21.2173C62.3219 21.2763 62.2028 21.3625 62.1053 21.4704C61.8897 21.7413 61.7825 22.0824 61.8043 22.4278C61.7822 22.771 61.8896 23.11 62.1053 23.3782C62.2036 23.4848 62.323 23.5698 62.4559 23.628C62.5888 23.6862 62.7323 23.7163 62.8774 23.7163C63.0225 23.7163 63.1661 23.6862 63.299 23.628C63.4319 23.5698 63.5513 23.4848 63.6496 23.3782Z"
		fill="white" />
	<path
		d="M97.5385 23.0357L85.697 27.2288C85.5898 27.2609 85.4743 27.2506 85.3745 27.2001C85.2746 27.1495 85.198 27.0626 85.1606 26.9573C85.1231 26.852 85.1276 26.7363 85.1732 26.6342C85.2188 26.5321 85.3019 26.4514 85.4054 26.4088L96.904 22.3322L95.6279 14.7266L81.7452 19.6511C81.6379 19.6832 81.5225 19.6729 81.4226 19.6224C81.3228 19.5718 81.2462 19.4849 81.2087 19.3796C81.1713 19.2742 81.1758 19.1586 81.2214 19.0565C81.2669 18.9544 81.3501 18.8737 81.4536 18.8311L95.8262 13.7366C95.8862 13.7153 95.9501 13.7074 96.0135 13.7134C96.0769 13.7194 96.1382 13.7392 96.1931 13.7714C96.248 13.8036 96.2952 13.8474 96.3314 13.8997C96.3675 13.952 96.3918 14.0117 96.4024 14.0743L97.8231 22.5535C97.8399 22.6545 97.8207 22.7582 97.7686 22.8463C97.7166 22.9345 97.6351 23.0016 97.5385 23.0357Z"
		fill="white" />
	<path
		d="M98.1403 25.964L86.847 29.9241C86.7474 29.9586 86.6386 29.9559 86.5408 29.9165C86.4431 29.8771 86.3629 29.8037 86.3151 29.7098L80.2661 17.7853L77.0001 18.9501C76.9454 18.9726 76.8868 18.9837 76.8277 18.9829C76.7686 18.9821 76.7102 18.9693 76.6562 18.9452C76.6022 18.9212 76.5537 18.8864 76.5136 18.8431C76.4734 18.7998 76.4425 18.7487 76.4227 18.6931C76.403 18.6375 76.3947 18.5784 76.3985 18.5195C76.4023 18.4606 76.418 18.4031 76.4447 18.3504C76.4714 18.2978 76.5086 18.2511 76.5539 18.2132C76.5993 18.1753 76.6519 18.1471 76.7085 18.1301L80.3314 16.8466C80.431 16.8107 80.5403 16.8125 80.6387 16.8515C80.7371 16.8906 80.8178 16.9642 80.8656 17.0586L86.9217 28.976L97.8534 25.1441C97.9606 25.112 98.0761 25.1222 98.1759 25.1728C98.2757 25.2233 98.3523 25.3102 98.3898 25.4155C98.4272 25.5209 98.4227 25.6365 98.3771 25.7386C98.3316 25.8407 98.2484 25.9214 98.145 25.964H98.1403Z"
		fill="white" />
	<path
		d="M90.1252 33.325C89.7666 33.4529 89.378 33.4717 89.0087 33.379C88.6394 33.2863 88.3059 33.0863 88.0505 32.8042C87.7951 32.5222 87.6292 32.1709 87.5738 31.7947C87.5184 31.4185 87.576 31.0343 87.7394 30.6909C87.9027 30.3474 88.1644 30.06 88.4914 29.8651C88.8184 29.6702 89.1959 29.5765 89.5762 29.5959C89.9565 29.6153 90.3225 29.7469 90.6278 29.9741C90.9332 30.2013 91.1642 30.5138 91.2916 30.8721C91.3764 31.1097 91.4135 31.3616 91.4007 31.6134C91.388 31.8652 91.3257 32.1121 91.2174 32.3399C91.109 32.5677 90.9568 32.772 90.7694 32.941C90.582 33.11 90.3631 33.2405 90.1252 33.325ZM89.129 30.5297C88.9333 30.5995 88.7625 30.7256 88.6385 30.8922C88.5144 31.0588 88.4425 31.2583 88.4319 31.4656C88.4214 31.6729 88.4725 31.8788 88.579 32.0571C88.6854 32.2354 88.8424 32.3782 89.03 32.4675C89.2177 32.5569 89.4277 32.5886 89.6334 32.5589C89.8392 32.5292 90.0315 32.4392 90.1861 32.3004C90.3407 32.1616 90.4506 31.9802 90.5021 31.7791C90.5535 31.578 90.5441 31.3661 90.4751 31.1703C90.4307 31.0383 90.3606 30.9165 90.2686 30.8119C90.1767 30.7072 90.0649 30.6219 89.9397 30.5607C89.8144 30.4996 89.6783 30.464 89.5391 30.4558C89.4 30.4477 89.2606 30.4673 89.129 30.5134V30.5297Z"
		fill="white" />
	<path
		d="M97.9092 30.5573C97.5502 30.6857 97.1611 30.7047 96.7912 30.6122C96.4213 30.5196 96.0872 30.3195 95.8313 30.0372C95.5754 29.755 95.409 29.4032 95.3534 29.0265C95.2977 28.6498 95.3553 28.2651 95.5187 27.9211C95.6822 27.5771 95.9441 27.2892 96.2715 27.0939C96.5989 26.8987 96.9769 26.8048 97.3578 26.8241C97.7386 26.8435 98.1051 26.9753 98.4109 27.2028C98.7167 27.4303 98.948 27.7432 99.0756 28.1021C99.2463 28.5821 99.2193 29.1102 99.0007 29.5705C98.782 30.0307 98.3895 30.3856 97.9092 30.5573ZM96.913 27.762C96.7165 27.8315 96.545 27.9577 96.4202 28.1246C96.2955 28.2915 96.2231 28.4916 96.2122 28.6996C96.2014 28.9076 96.2525 29.1141 96.3592 29.293C96.4659 29.472 96.6233 29.6153 96.8116 29.7049C96.9999 29.7945 97.2105 29.8263 97.4169 29.7964C97.6233 29.7664 97.8161 29.676 97.9711 29.5366C98.126 29.3972 98.2361 29.2151 98.2874 29.0132C98.3386 28.8114 98.3288 28.5989 98.2591 28.4026C98.214 28.2712 98.1433 28.1501 98.0511 28.0462C97.9589 27.9424 97.847 27.8578 97.7218 27.7973C97.5966 27.7369 97.4607 27.7018 97.3219 27.6942C97.1831 27.6865 97.0441 27.7064 96.913 27.7527V27.762Z"
		fill="white" />
	<path
		d="M89.3541 25.9361C89.2502 25.9739 89.1358 25.9708 89.034 25.9276C88.9322 25.8843 88.8507 25.8041 88.8059 25.7031L85.5796 18.1534C85.5573 18.1006 85.5457 18.044 85.5454 17.9867C85.5451 17.9295 85.5561 17.8727 85.5778 17.8197C85.5994 17.7667 85.6313 17.7185 85.6717 17.6778C85.712 17.6371 85.76 17.6048 85.8129 17.5827C85.8654 17.5581 85.9224 17.5446 85.9804 17.5432C86.0384 17.5417 86.096 17.5522 86.1497 17.5741C86.2034 17.596 86.252 17.6288 86.2924 17.6703C86.3328 17.7119 86.3641 17.7613 86.3844 17.8156L89.6107 25.3653C89.633 25.4181 89.6446 25.4747 89.6449 25.532C89.6452 25.5892 89.6342 25.646 89.6126 25.699C89.5909 25.752 89.559 25.8002 89.5186 25.8409C89.4783 25.8816 89.4303 25.9139 89.3775 25.9361H89.3541Z"
		fill="white" />
	<path
		d="M93.6869 24.4009H93.6635C93.5528 24.4334 93.4337 24.4208 93.3322 24.3658C93.2308 24.3108 93.1553 24.2179 93.1223 24.1074L90.8105 16.2339C90.7916 16.1792 90.7844 16.1212 90.7892 16.0635C90.7939 16.0059 90.8107 15.9499 90.8383 15.8991C90.866 15.8482 90.9039 15.8037 90.9497 15.7683C90.9955 15.7329 91.0482 15.7074 91.1044 15.6934C91.1594 15.6774 91.217 15.6723 91.274 15.6784C91.331 15.6846 91.3861 15.7019 91.4364 15.7294C91.4867 15.7569 91.531 15.794 91.5669 15.8386C91.6028 15.8831 91.6296 15.9344 91.6456 15.9893L93.9598 23.8628C93.9927 23.9703 93.9826 24.0864 93.9317 24.1867C93.8808 24.2869 93.7931 24.3637 93.6869 24.4009Z"
		fill="white" />
	<path
		d="M83.6562 23.6134C83.5482 23.6488 83.4305 23.6407 83.3284 23.5909C83.2262 23.541 83.1476 23.4532 83.1093 23.3463C83.0709 23.2394 83.0759 23.1218 83.1232 23.0185C83.1704 22.9152 83.2562 22.8344 83.3622 22.7934L96.5428 17.9761C96.6493 17.945 96.7637 17.9556 96.8627 18.0057C96.9616 18.0558 97.0378 18.1417 97.0755 18.246C97.1133 18.3502 97.1098 18.4648 97.0659 18.5666C97.022 18.6684 96.9409 18.7496 96.8391 18.7937L83.6562 23.611V23.6134Z"
		fill="white" />
	<path d="M132.223 14.0134H101.309C100.358 14.0134 99.5869 14.783 99.5869 15.7325V54.6832C99.5869 55.6327 100.358 56.4023 101.309 56.4023H132.223C133.174 56.4023 133.945 55.6327 133.945 54.6832V15.7325C133.945 14.783 133.174 14.0134 132.223 14.0134Z" fill="white" />
	<path d="M101.026 14.0134H132.52C132.901 14.0134 133.266 14.1645 133.536 14.4337C133.805 14.7028 133.957 15.0677 133.957 15.4483V18.9821H99.5869V15.4506C99.5866 15.2618 99.6236 15.0748 99.6959 14.9003C99.7681 14.7257 99.8741 14.5672 100.008 14.4337C100.142 14.3001 100.3 14.1943 100.475 14.1221C100.65 14.05 100.837 14.0131 101.026 14.0134Z" fill="#E0E0E0" />
	<path
		d="M132.536 56.4028H132.634C132.731 56.3955 132.826 56.3776 132.919 56.3492C133.101 56.2969 133.272 56.208 133.419 56.0878C133.566 55.9677 133.687 55.8188 133.775 55.6504C133.834 55.5328 133.877 55.4084 133.905 55.28C133.928 55.1345 133.937 54.987 133.931 54.8397C133.931 54.5299 133.931 54.1898 133.931 53.8218C133.931 53.088 133.931 52.2377 133.931 51.285C133.931 47.4624 133.919 41.9346 133.912 35.107C133.912 31.692 133.912 27.9509 133.912 23.9256C133.912 21.9176 133.912 19.8429 133.912 17.7013C133.912 17.1671 133.912 16.629 133.912 16.087C133.912 15.8168 133.912 15.5373 133.912 15.2764C133.883 15.0129 133.778 14.7635 133.609 14.5589C133.437 14.3549 133.209 14.2046 132.954 14.1256C132.686 14.069 132.412 14.0502 132.139 14.0697H130.455H101.033C100.719 14.0718 100.414 14.1811 100.17 14.3795C99.9285 14.5795 99.7636 14.8569 99.7036 15.1646C99.6801 15.3187 99.6715 15.4747 99.678 15.6304V28.4121C99.678 33.3249 99.678 38.0654 99.678 42.5822C99.678 44.8394 99.678 47.0431 99.678 49.1815V52.3426C99.678 52.862 99.678 53.3768 99.678 53.887V54.6487C99.6611 54.8957 99.6815 55.1439 99.7386 55.3848C99.8101 55.6159 99.9418 55.8238 100.12 55.9875C100.298 56.1512 100.517 56.2648 100.753 56.3166C100.994 56.3491 101.237 56.3592 101.479 56.3469H105.067H110.432L126.632 56.3655H131.036H132.181C132.44 56.3655 132.573 56.3655 132.573 56.3655H132.181H131.036H126.632L110.432 56.3865H101.439C101.19 56.3994 100.94 56.3893 100.693 56.3562C100.44 56.3004 100.206 56.1792 100.015 56.0046C99.8234 55.83 99.6815 55.6082 99.6033 55.3615C99.5412 55.1111 99.5192 54.8525 99.538 54.5952C99.538 54.3436 99.538 54.0873 99.538 53.8334V52.289C99.538 51.2532 99.538 50.1995 99.538 49.1279C99.538 46.9895 99.538 44.7858 99.538 42.5286C99.538 38.0118 99.538 33.2714 99.538 28.3586C99.538 25.9002 99.538 23.4015 99.538 20.8624V15.6421C99.5313 15.4762 99.5407 15.31 99.566 15.1459C99.6311 14.8107 99.8109 14.5085 100.075 14.291C100.338 14.0758 100.667 13.9567 101.008 13.9532H130.429H132.529C132.673 13.9534 132.817 13.9738 132.956 14.0138C133.229 14.0992 133.472 14.2608 133.656 14.4797C133.839 14.7006 133.955 14.9702 133.987 15.2554C134.006 15.5396 133.987 15.8028 133.987 16.0777C133.987 16.6212 133.987 17.1593 133.987 17.692C133.987 19.832 133.987 21.9068 133.987 23.9163C133.987 27.9323 133.987 31.6734 133.987 35.0977C133.987 41.9253 133.971 47.4437 133.968 51.2757C133.968 52.2284 133.968 53.0787 133.968 53.8125C133.968 54.1805 133.968 54.5113 133.968 54.8304C133.973 54.9794 133.963 55.1284 133.938 55.2753C133.911 55.4068 133.865 55.5338 133.803 55.6527C133.712 55.8225 133.588 55.972 133.437 56.0922C133.287 56.2124 133.114 56.3006 132.928 56.3516C132.835 56.3786 132.738 56.3942 132.641 56.3981L132.536 56.4028Z"
		fill="#263238" />
	<path
		d="M103.087 16.4988C103.087 16.6564 103.04 16.8104 102.952 16.9414C102.865 17.0724 102.74 17.1746 102.594 17.2348C102.448 17.2951 102.288 17.3109 102.133 17.2802C101.979 17.2494 101.836 17.1736 101.725 17.0622C101.613 16.9507 101.537 16.8088 101.506 16.6542C101.476 16.4997 101.491 16.3395 101.552 16.1939C101.612 16.0484 101.714 15.924 101.846 15.8364C101.977 15.7489 102.131 15.7021 102.289 15.7021C102.501 15.7021 102.703 15.7861 102.853 15.9355C103.003 16.0849 103.087 16.2875 103.087 16.4988Z"
		fill="white" />
	<path
		d="M105.382 16.4988C105.382 16.6565 105.335 16.8106 105.247 16.9417C105.159 17.0727 105.035 17.1748 104.889 17.2351C104.743 17.2953 104.582 17.3109 104.427 17.28C104.273 17.2491 104.13 17.173 104.019 17.0613C103.907 16.9497 103.832 16.8075 103.801 16.6528C103.771 16.4981 103.787 16.3379 103.847 16.1923C103.908 16.0468 104.011 15.9225 104.142 15.8353C104.274 15.748 104.428 15.7017 104.586 15.7022C104.691 15.7022 104.794 15.7228 104.891 15.7628C104.988 15.8029 105.076 15.8616 105.15 15.9356C105.223 16.0096 105.282 16.0975 105.322 16.1941C105.362 16.2908 105.382 16.3943 105.382 16.4988Z"
		fill="white" />
	<path
		d="M107.679 16.4988C107.679 16.6564 107.632 16.8104 107.545 16.9414C107.457 17.0724 107.332 17.1746 107.187 17.2348C107.041 17.2951 106.88 17.3109 106.726 17.2802C106.571 17.2494 106.429 17.1736 106.317 17.0622C106.206 16.9507 106.13 16.8088 106.099 16.6542C106.068 16.4997 106.084 16.3395 106.144 16.1939C106.205 16.0484 106.307 15.924 106.438 15.8364C106.569 15.7489 106.724 15.7021 106.881 15.7021C107.093 15.7021 107.296 15.7861 107.445 15.9355C107.595 16.0849 107.679 16.2875 107.679 16.4988Z"
		fill="white" />
	<path d="M121.217 21.8896H113.549C113.055 21.8896 112.653 22.2901 112.653 22.7842V30.4411C112.653 30.9351 113.055 31.3356 113.549 31.3356H121.217C121.712 31.3356 122.113 30.9351 122.113 30.4411V22.7842C122.113 22.2901 121.712 21.8896 121.217 21.8896Z" fill="#F8344B" />
	<path
		d="M118.961 27.3896H115.835C115.814 27.3862 115.795 27.3755 115.782 27.3595C115.768 27.3435 115.761 27.3232 115.761 27.3022C115.761 27.2812 115.768 27.2609 115.782 27.2449C115.795 27.2289 115.814 27.2183 115.835 27.2149H118.886L119.229 25.2861H115.541C115.518 25.2855 115.496 25.2759 115.48 25.2594C115.464 25.2428 115.455 25.2207 115.455 25.1976C115.455 25.1747 115.464 25.1528 115.48 25.1366C115.496 25.1205 115.518 25.1114 115.541 25.1114H119.334C119.347 25.1114 119.359 25.1142 119.37 25.1194C119.381 25.1246 119.391 25.1322 119.4 25.1417C119.408 25.1512 119.415 25.1628 119.419 25.1753C119.422 25.1878 119.423 25.201 119.421 25.2139L119.047 27.3104C119.045 27.3318 119.035 27.3517 119.019 27.3663C119.003 27.3809 118.983 27.3891 118.961 27.3896Z"
		fill="white" />
	<path
		d="M118.857 28.1252H115.882C115.861 28.1254 115.84 28.1176 115.824 28.1034C115.808 28.0892 115.798 28.0696 115.796 28.0484L115.369 24.7335H114.49C114.469 24.7302 114.45 24.7195 114.436 24.7035C114.423 24.6875 114.415 24.6672 114.415 24.6462C114.415 24.6252 114.423 24.6049 114.436 24.5889C114.45 24.5729 114.469 24.5622 114.49 24.5588H115.446C115.467 24.5587 115.488 24.5665 115.504 24.5807C115.52 24.5949 115.53 24.6145 115.532 24.6357L115.959 27.9505H118.859C118.882 27.9511 118.904 27.9607 118.92 27.9773C118.936 27.9938 118.945 28.016 118.945 28.039C118.945 28.0506 118.943 28.062 118.939 28.0726C118.934 28.0832 118.927 28.0928 118.919 28.1008C118.911 28.1089 118.901 28.1152 118.89 28.1193C118.88 28.1235 118.868 28.1255 118.857 28.1252Z"
		fill="white" />
	<path
		d="M116.368 29.1829C116.275 29.1829 116.185 29.1556 116.108 29.1044C116.032 29.0532 115.972 28.9805 115.937 28.8953C115.901 28.8102 115.892 28.7165 115.91 28.6262C115.928 28.5358 115.973 28.4528 116.038 28.3876C116.103 28.3225 116.186 28.2781 116.277 28.2601C116.367 28.2421 116.461 28.2514 116.546 28.2866C116.631 28.3219 116.704 28.3816 116.756 28.4582C116.807 28.5348 116.834 28.6249 116.834 28.717C116.834 28.8406 116.785 28.9591 116.698 29.0465C116.61 29.1339 116.491 29.1829 116.368 29.1829ZM116.368 28.4445C116.312 28.4445 116.257 28.461 116.211 28.492C116.164 28.523 116.128 28.567 116.107 28.6185C116.086 28.67 116.08 28.7267 116.091 28.7814C116.102 28.836 116.129 28.8863 116.168 28.9257C116.208 28.9651 116.258 28.9919 116.313 29.0028C116.367 29.0137 116.424 29.0081 116.476 28.9868C116.527 28.9654 116.571 28.9293 116.602 28.883C116.633 28.8366 116.65 28.7821 116.65 28.7264C116.65 28.6894 116.643 28.6527 116.628 28.6185C116.614 28.5843 116.594 28.5532 116.567 28.5271C116.541 28.5009 116.51 28.4801 116.476 28.466C116.441 28.4518 116.405 28.4445 116.368 28.4445Z"
		fill="white" />
	<path
		d="M118.42 29.1829C118.328 29.1829 118.238 29.1556 118.161 29.1044C118.084 29.0532 118.024 28.9805 117.989 28.8953C117.954 28.8102 117.945 28.7165 117.963 28.6262C117.981 28.5358 118.025 28.4528 118.09 28.3876C118.156 28.3225 118.239 28.2781 118.329 28.2601C118.42 28.2421 118.513 28.2514 118.599 28.2866C118.684 28.3219 118.757 28.3816 118.808 28.4582C118.859 28.5348 118.887 28.6249 118.887 28.717C118.887 28.8406 118.838 28.9591 118.75 29.0465C118.663 29.1339 118.544 29.1829 118.42 29.1829ZM118.42 28.4445C118.364 28.445 118.31 28.4619 118.264 28.4931C118.218 28.5244 118.182 28.5686 118.161 28.6201C118.14 28.6716 118.135 28.7282 118.146 28.7828C118.157 28.8373 118.184 28.8873 118.224 28.9265C118.263 28.9657 118.314 28.9923 118.368 29.003C118.423 29.0137 118.48 29.0079 118.531 28.9865C118.583 28.9651 118.626 28.929 118.657 28.8827C118.688 28.8364 118.705 28.782 118.705 28.7264C118.705 28.6892 118.697 28.6523 118.683 28.618C118.669 28.5836 118.648 28.5524 118.621 28.5262C118.595 28.5 118.563 28.4793 118.529 28.4653C118.494 28.4513 118.457 28.4442 118.42 28.4445Z"
		fill="white" />
	<path
		d="M116.802 27.3897C116.779 27.3897 116.758 27.3813 116.742 27.3661C116.726 27.3509 116.716 27.3302 116.715 27.3082L116.587 25.2722C116.589 25.2511 116.598 25.2313 116.613 25.2164C116.628 25.2015 116.648 25.1925 116.669 25.1911C116.691 25.1897 116.712 25.1959 116.729 25.2087C116.746 25.2214 116.757 25.2398 116.762 25.2606L116.888 27.2965C116.889 27.308 116.887 27.3196 116.884 27.3306C116.88 27.3415 116.874 27.3517 116.867 27.3604C116.859 27.3691 116.85 27.3761 116.839 27.3812C116.829 27.3862 116.818 27.3891 116.806 27.3897H116.802Z"
		fill="white" />
	<path
		d="M117.944 27.3895C117.921 27.3883 117.899 27.3781 117.883 27.3611C117.868 27.3441 117.859 27.3217 117.86 27.2986L117.974 25.2603C117.975 25.2488 117.978 25.2375 117.983 25.2271C117.988 25.2167 117.995 25.2075 118.004 25.1999C118.012 25.1922 118.022 25.1865 118.033 25.1829C118.044 25.1792 118.056 25.1779 118.068 25.1788C118.09 25.1806 118.111 25.191 118.127 25.2079C118.142 25.2249 118.15 25.247 118.149 25.2697L118.035 27.3079C118.034 27.3193 118.031 27.3304 118.027 27.3406C118.022 27.3508 118.015 27.36 118.006 27.3676C117.998 27.3751 117.988 27.381 117.977 27.3847C117.967 27.3885 117.955 27.3901 117.944 27.3895Z"
		fill="white" />
	<path
		d="M115.658 26.3713C115.637 26.3679 115.619 26.3572 115.605 26.3412C115.591 26.3252 115.584 26.3049 115.584 26.2839C115.584 26.2629 115.591 26.2426 115.605 26.2266C115.619 26.2106 115.637 26.2 115.658 26.1966L119.157 26.1616C119.181 26.1622 119.202 26.1718 119.219 26.1884C119.235 26.2049 119.244 26.2271 119.244 26.2501C119.244 26.273 119.235 26.2949 119.218 26.3111C119.202 26.3272 119.18 26.3363 119.157 26.3363L115.658 26.3713Z"
		fill="white" />
	<path d="M119.528 25.8749C120.092 25.8749 120.55 25.4181 120.55 24.8546C120.55 24.2911 120.092 23.8343 119.528 23.8343C118.964 23.8343 118.506 24.2911 118.506 24.8546C118.506 25.4181 118.964 25.8749 119.528 25.8749Z" fill="white" />
	<path d="M115.515 34.0956H104.955V35.5049H115.515V34.0956Z" fill="#E0E0E0" />
	<path d="M128.58 34.0956H124.469V35.5049H128.58V34.0956Z" fill="#E0E0E0" />
	<path d="M118.604 37.0869H104.955V38.4962H118.604V37.0869Z" fill="#E0E0E0" />
	<path d="M128.58 37.0869H124.469V38.4962H128.58V37.0869Z" fill="#E0E0E0" />
	<path d="M111.347 40.0778H104.955V41.4871H111.347V40.0778Z" fill="#E0E0E0" />
	<path d="M128.58 40.0778H124.469V41.4871H128.58V40.0778Z" fill="#E0E0E0" />
	<path d="M128.58 42.9244H124.469V44.3337H128.58V42.9244Z" fill="#455A64" />
	<path d="M120.186 47.9025H112.551C111.327 47.9025 110.335 48.8932 110.335 50.1154V50.3531C110.335 51.5752 111.327 52.566 112.551 52.566H120.186C121.41 52.566 122.403 51.5752 122.403 50.3531V50.1154C122.403 48.8932 121.41 47.9025 120.186 47.9025Z" fill="#F8344B" />
	<path
		d="M120.653 30.0999C120.379 30.0999 120.107 30.0642 119.836 29.9929C119.566 29.9178 119.337 29.8127 119.149 29.6775L119.504 28.9793C119.654 29.0882 119.829 29.1745 120.028 29.2383C120.227 29.3022 120.428 29.3341 120.63 29.3341C120.859 29.3341 121.039 29.289 121.171 29.1989C121.302 29.1088 121.368 28.985 121.368 28.8273C121.368 28.6771 121.31 28.5589 121.193 28.4725C121.077 28.3862 120.889 28.343 120.63 28.343H120.214V27.7405L121.312 26.4961L121.413 26.8227H119.346V26.0907H122.106V26.6819L121.013 27.9264L120.551 27.6617H120.816C121.3 27.6617 121.666 27.7706 121.914 27.9883C122.162 28.206 122.286 28.4857 122.286 28.8273C122.286 29.0488 122.228 29.2571 122.111 29.4523C121.995 29.6438 121.817 29.7995 121.576 29.9197C121.336 30.0398 121.028 30.0999 120.653 30.0999Z"
		fill="#F8344B" />
	<path d="M149.01 52.2142L159.93 62.4125L157.642 64.891L147.891 53.4977L149.01 52.2142Z" fill="#E0E0E0" />
	<path d="M157.642 64.8914L150.267 65.8069L144.449 54.9982L147.89 53.498L157.642 64.8914Z" fill="#E0E0E0" />
	<path
		d="M157.642 64.8912C157.574 64.6714 157.526 64.4462 157.497 64.218C157.423 63.801 157.327 63.2187 157.227 62.5687V62.5012H157.294H157.434C158.134 62.4639 158.75 62.436 159.205 62.422C159.45 62.4019 159.695 62.4019 159.94 62.422C159.699 62.4705 159.455 62.4986 159.21 62.5058C158.757 62.5408 158.132 62.5827 157.441 62.62H157.299L157.357 62.5501C157.455 63.2 157.537 63.7847 157.591 64.2063C157.628 64.4326 157.646 64.6618 157.642 64.8912Z"
		fill="#263238" />
	<path d="M148.467 52.8316C148.493 52.8107 150.488 54.9701 152.923 57.6536C155.359 60.3371 157.314 62.5454 157.288 62.5594C157.262 62.5734 155.268 60.4233 152.832 57.7351C150.397 55.0469 148.451 52.8549 148.467 52.8316Z" fill="#263238" />
	<g opacity="0.3">
		<path d="M157.642 64.8914L150.267 65.8069L144.449 54.9982L147.89 53.498L157.642 64.8914Z" fill="black" />
	</g>
	<path d="M157.185 66.5778L153.807 69.4524L147.854 54.8561L148.143 54.679L157.185 66.5778Z" fill="#455A64" />
	<path d="M153.807 69.4524L148.421 68.127L144.348 55.6341L147.854 54.8561L153.807 69.4524Z" fill="#455A64" />
	<g opacity="0.3">
		<path d="M153.807 69.4524L148.421 68.127L144.348 55.6341L147.854 54.8561L153.807 69.4524Z" fill="black" />
	</g>
	<path
		d="M153.816 69.4521C153.813 69.3736 153.822 69.295 153.842 69.2191C153.868 69.0677 153.91 68.8511 153.961 68.5832C154.066 68.0474 154.22 67.309 154.397 66.4867C154.425 66.3609 154.451 66.2374 154.477 66.121L154.491 66.0651H154.547C155.282 66.1955 155.932 66.3166 156.399 66.4075C156.651 66.4456 156.9 66.5033 157.143 66.5799C156.888 66.5725 156.634 66.5468 156.383 66.503C155.916 66.4331 155.261 66.326 154.516 66.2002L154.586 66.1536C154.561 66.2701 154.535 66.3865 154.507 66.5193C154.33 67.3323 154.162 68.0684 154.04 68.5995C153.977 68.8651 153.924 69.0794 153.884 69.2261C153.87 69.3038 153.848 69.3797 153.816 69.4521Z"
		fill="#263238" />
	<path d="M147.984 54.7978C148.012 54.7815 149.5 57.3066 151.303 60.4397C153.107 63.5728 154.548 66.1236 154.52 66.1422C154.492 66.1609 153.004 63.6334 151.198 60.5003C149.393 57.3672 147.96 54.8141 147.984 54.7978Z" fill="#263238" />
	<path d="M146.712 54.5273L151.422 65.4244L147.564 66.7592L146.404 54.5925L146.712 54.5273Z" fill="#F8344B" />
	<path d="M147.564 66.7596L143.985 65.9513L143.495 54.9773L146.404 54.5929L147.564 66.7596Z" fill="#F8344B" />
	<g opacity="0.3">
		<path d="M147.564 66.7596L143.985 65.9513L143.495 54.9773L146.404 54.5929L147.564 66.7596Z" fill="black" />
	</g>
	<path
		d="M147.564 66.7594C147.691 66.5529 147.835 66.358 147.996 66.177C148.273 65.8276 148.665 65.3501 149.104 64.826L149.246 64.6559L149.272 64.6233L149.312 64.6373C149.909 64.8423 150.441 65.0333 150.819 65.173C151.026 65.2393 151.229 65.3227 151.423 65.4223C151.208 65.3853 150.997 65.3284 150.793 65.2522C150.406 65.1311 149.871 64.9541 149.274 64.7514L149.339 64.7328L149.197 64.9028C148.759 65.427 148.357 65.8975 148.061 66.2329C147.91 66.4218 147.744 66.5979 147.564 66.7594Z"
		fill="#263238" />
	<path d="M146.561 54.5601C146.593 54.5601 147.233 56.8126 147.986 59.6103C148.74 62.408 149.325 64.6862 149.292 64.6955C149.26 64.7048 148.623 62.4406 147.867 59.6429C147.111 56.8452 146.53 54.567 146.561 54.5601Z" fill="#263238" />
	<path d="M149.011 52.2142L145.061 54.0242L145.458 54.5599L147.891 53.4977L149.011 52.2142Z" fill="#263238" />
	<path d="M148.142 54.679L146.892 54.9446L146.948 55.0587L147.853 54.8561L148.142 54.679Z" fill="#263238" />
	<path d="M146.818 39.1115C146.818 39.1115 148.143 40.8189 148.285 41.9068C148.404 42.8013 149.05 47.6489 149.381 49.9317C149.453 50.3935 149.428 50.8651 149.308 51.3167C149.187 51.7682 148.974 52.1898 148.681 52.5547C148.11 53.2535 147.247 53.7194 146.08 52.9134C145.278 52.352 143.225 50.0599 143.225 50.0599L146.601 39.4981" fill="#F8344B" />
	<path
		d="M143.169 24.4844C142.841 24.3854 142.496 24.3526 142.155 24.3878C141.814 24.423 141.483 24.5255 141.182 24.6894C141.014 24.4745 140.792 24.3081 140.539 24.2075C140.285 24.1068 140.01 24.0755 139.74 24.1168C139.47 24.1581 139.217 24.2705 139.005 24.4425C138.794 24.6144 138.632 24.8395 138.536 25.0947C138.249 24.9798 137.929 24.9716 137.636 25.0716C137.343 25.1716 137.095 25.3732 136.937 25.6398C136.78 25.9065 136.724 26.2206 136.778 26.5253C136.833 26.8299 136.995 27.105 137.235 27.3007C137.001 27.3978 136.792 27.5468 136.624 27.7365C136.457 27.9261 136.335 28.1514 136.267 28.3952C136.2 28.6391 136.189 28.895 136.235 29.1437C136.282 29.3924 136.384 29.6273 136.535 29.8305C136.038 30.0635 135.952 30.7483 136.024 31.2957C136.096 31.8432 136.257 32.4325 136.01 32.9264C135.821 33.3107 135.427 33.5483 135.159 33.8814C134.89 34.2145 134.797 34.7876 135.159 35.0135C134.993 35.023 134.832 35.0673 134.686 35.1437C134.539 35.2201 134.41 35.3267 134.308 35.4566C134.206 35.5864 134.132 35.7365 134.093 35.8968C134.053 36.0571 134.048 36.224 134.078 36.3865C134.108 36.5489 134.172 36.7032 134.266 36.839C134.36 36.9748 134.482 37.0891 134.623 37.1743C134.765 37.2594 134.923 37.3135 135.088 37.333C135.252 37.3524 135.418 37.3368 135.576 37.2871C135.484 37.5082 135.45 37.7489 135.477 37.9867C135.503 38.2246 135.59 38.4519 135.728 38.6475C136.01 39.0376 136.41 39.3279 136.868 39.4768C137.521 39.6996 138.227 39.719 138.891 39.5321C139.555 39.3453 140.147 38.9612 140.587 38.4308L144.688 25.7703C144.533 25.4663 144.318 25.1962 144.058 24.9755C143.797 24.7548 143.495 24.5879 143.169 24.4844Z"
		fill="#263238" />
	<path d="M145.12 27.9925L145.173 27.31L141.107 26.2804C139.847 26.0707 138.399 27.2588 138.242 28.5237C138.067 29.9213 137.911 31.6544 138.009 32.7167C138.217 34.8551 139.826 35.2232 139.826 35.2232L139.71 37.3197L144.399 37.6598L145.12 27.9925Z" fill="#AE7461" />
	<path
		d="M138.739 30.5413C138.734 30.6125 138.757 30.6829 138.803 30.7374C138.849 30.7918 138.915 30.826 138.986 30.8325C139.021 30.837 139.056 30.8346 139.09 30.8252C139.124 30.8159 139.155 30.7999 139.183 30.7782C139.21 30.7564 139.233 30.7294 139.25 30.6988C139.266 30.6681 139.277 30.6343 139.28 30.5996C139.286 30.5287 139.263 30.4586 139.217 30.4043C139.171 30.3499 139.106 30.3155 139.035 30.3084C139.001 30.3038 138.965 30.3063 138.931 30.3156C138.897 30.3249 138.866 30.3409 138.838 30.3626C138.811 30.3843 138.788 30.4113 138.771 30.442C138.754 30.4727 138.743 30.5064 138.739 30.5413Z"
		fill="#263238" />
	<path d="M138.636 29.4508C138.669 29.4881 138.883 29.3483 139.175 29.3669C139.466 29.3856 139.674 29.544 139.709 29.5114C139.744 29.4787 139.695 29.4298 139.604 29.3553C139.483 29.26 139.336 29.2046 139.182 29.1969C139.03 29.1877 138.879 29.2268 138.75 29.3087C138.652 29.3716 138.62 29.4345 138.636 29.4508Z" fill="#263238" />
	<path
		d="M141.307 30.6994C141.302 30.7685 141.323 30.837 141.366 30.8911C141.409 30.9452 141.472 30.9808 141.54 30.9906C141.575 30.9951 141.611 30.9927 141.644 30.9834C141.678 30.9741 141.71 30.9581 141.738 30.9364C141.765 30.9147 141.788 30.8877 141.805 30.857C141.822 30.8263 141.833 30.7925 141.837 30.7577C141.841 30.6866 141.818 30.6165 141.772 30.5622C141.726 30.5079 141.66 30.4736 141.589 30.4665C141.521 30.4606 141.453 30.4817 141.4 30.5253C141.348 30.5689 141.314 30.6314 141.307 30.6994Z"
		fill="#263238" />
	<path d="M141.51 29.6794C141.543 29.7167 141.758 29.5769 142.052 29.5955C142.346 29.6142 142.549 29.7726 142.584 29.7376C142.619 29.7027 142.57 29.6584 142.481 29.5839C142.359 29.488 142.211 29.4326 142.056 29.4255C141.904 29.4141 141.753 29.4525 141.625 29.535C141.531 29.6002 141.496 29.6608 141.51 29.6794Z" fill="#263238" />
	<path
		d="M140.318 31.7946C140.168 31.7378 140.011 31.6995 139.852 31.6805C139.777 31.6688 139.707 31.6502 139.698 31.5966C139.697 31.5198 139.719 31.4445 139.761 31.38C139.842 31.2029 139.929 31.0189 140.017 30.8232C140.251 30.3543 140.447 29.8675 140.603 29.3673C140.333 29.8139 140.099 30.2813 139.903 30.765C139.818 30.9591 139.736 31.1455 139.658 31.324C139.605 31.4103 139.584 31.5127 139.6 31.6129C139.609 31.64 139.625 31.6648 139.645 31.6853C139.665 31.7058 139.69 31.7217 139.717 31.7317C139.758 31.7439 139.8 31.7517 139.842 31.755C139.999 31.7883 140.159 31.8016 140.318 31.7946Z"
		fill="#263238" />
	<path d="M139.835 35.2301C140.856 35.307 141.879 35.104 142.793 34.6431C142.793 34.6431 141.988 36.0851 139.805 35.7589L139.835 35.2301Z" fill="#6F4439" />
	<path d="M141.579 28.6708C141.609 28.75 141.901 28.7104 142.246 28.7523C142.591 28.7942 142.869 28.8874 142.913 28.8175C142.934 28.7826 142.885 28.7081 142.773 28.6312C142.624 28.5356 142.454 28.4758 142.278 28.4564C142.101 28.437 141.923 28.4585 141.756 28.5194C141.63 28.5683 141.567 28.6312 141.579 28.6708Z" fill="#263238" />
	<path d="M138.707 28.7266C138.756 28.7965 138.961 28.7429 139.203 28.7546C139.446 28.7662 139.649 28.8315 139.7 28.7546C139.724 28.7243 139.7 28.6544 139.609 28.5845C139.495 28.5006 139.357 28.4534 139.215 28.4494C139.073 28.4417 138.932 28.4783 138.812 28.5543C138.721 28.6265 138.688 28.694 138.707 28.7266Z" fill="#263238" />
	<path
		d="M138.251 27.0005C138.736 26.371 139.417 25.9216 140.187 25.7239L143.621 26.1549H143.915C143.978 25.9382 144.344 25.8264 144.344 25.8264C144.666 25.5772 145.784 25.5655 146.563 26.3785C146.845 26.672 147.044 27.4105 147.051 27.8158C147.051 27.9695 146.89 28.1792 147.018 28.2654C147.173 28.2846 147.328 28.2955 147.484 28.298C148.357 28.489 148.903 29.2624 148.744 30.4178C148.73 30.4749 148.724 30.5337 148.725 30.5925C148.753 30.6835 148.806 30.7644 148.879 30.8254C149.083 31.0504 149.214 31.3313 149.256 31.6317C149.297 31.932 149.247 32.2379 149.113 32.5096C149.01 32.6655 148.931 32.8359 148.879 33.0151C148.826 33.3459 149.068 33.6394 149.255 33.9166C149.815 34.7482 149.936 35.9549 149.278 36.7119C149.093 36.8707 148.947 37.07 148.851 37.2943C148.831 37.412 148.825 37.5316 148.833 37.6507C148.833 38.254 148.518 38.9296 147.928 39.0484C147.599 39.1183 147.202 39.0251 146.969 39.2673C146.88 39.3831 146.809 39.512 146.759 39.6494C146.628 39.8964 146.416 40.0913 146.159 40.2015C145.902 40.3117 145.615 40.3306 145.345 40.255C144.813 40.092 144.645 37.9256 144.713 37.3805C144.069 37.1475 143.591 37.1056 143.621 36.4208C143.621 36.4208 143.719 35.2397 143.528 34.6667C143.337 34.0936 143.722 32.8684 143.941 32.2743C144.16 31.6803 143.899 30.299 143.841 29.7492C143.836 29.5927 143.851 29.4362 143.885 29.2833C143.908 29.1482 143.941 28.9991 143.978 28.8384C144.015 28.6777 144.116 27.8857 144.113 27.7459C144.113 27.2241 143.458 27.513 142.966 27.669C142.846 27.7093 142.721 27.7313 142.595 27.7343C142.391 27.7385 142.189 27.6955 142.005 27.6086C141.821 27.5217 141.659 27.3933 141.533 27.2334C141.297 27.4785 140.999 27.6553 140.671 27.7451C140.342 27.8349 139.995 27.8344 139.667 27.7436C139.418 28.1257 139.119 28.4728 138.778 28.7755C138.433 29.0799 137.981 29.2349 137.521 29.2065C137.51 28.4102 137.767 27.6332 138.251 27.0005Z"
		fill="#263238" />
	<path
		d="M140.53 32.4933C140.582 32.4224 140.65 32.3656 140.729 32.3282C140.808 32.2907 140.895 32.2738 140.983 32.279C141.047 32.281 141.11 32.2961 141.167 32.3234C141.225 32.3506 141.277 32.3894 141.319 32.4374C141.36 32.483 141.386 32.5402 141.393 32.6011C141.4 32.6621 141.388 32.7237 141.358 32.7775C141.315 32.8317 141.257 32.8716 141.191 32.892C141.125 32.9124 141.054 32.9123 140.988 32.8916C140.85 32.8503 140.721 32.7823 140.61 32.6913C140.576 32.6706 140.547 32.6437 140.523 32.6121C140.513 32.5963 140.507 32.5776 140.507 32.5585C140.507 32.5394 140.513 32.5208 140.523 32.505"
		fill="#6F4439" />
	<path d="M141.219 31.9621C141.172 31.9621 141.189 32.2742 140.932 32.5072C140.676 32.7401 140.344 32.7238 140.342 32.7681C140.34 32.8123 140.419 32.8263 140.561 32.8217C140.744 32.8152 140.918 32.7442 141.053 32.6213C141.119 32.5621 141.173 32.4905 141.211 32.4105C141.249 32.3305 141.271 32.2439 141.275 32.1554C141.289 32.0273 141.249 31.9598 141.219 31.9621Z" fill="#263238" />
	<path d="M134.71 87.7665L135.097 91.7871C135.097 91.7871 130.709 93.4177 130.665 94.233L138.96 94.2563V93.6507L138.613 91.5821L138.099 87.5662L134.71 87.7665Z" fill="#455A64" />
	<path
		d="M137.596 91.1628C137.676 91.189 137.744 91.2434 137.787 91.3158C137.83 91.3882 137.845 91.4737 137.829 91.5564C137.806 91.6375 137.753 91.7068 137.681 91.7501C137.608 91.7933 137.522 91.8074 137.44 91.7894C137.353 91.7633 137.279 91.706 137.232 91.6286C137.185 91.5511 137.168 91.459 137.186 91.3701C137.217 91.2864 137.28 91.2182 137.361 91.18C137.442 91.1417 137.535 91.1364 137.619 91.1651"
		fill="#E0E0E0" />
	<path d="M138.958 94.2564V93.6508L131.001 93.8022C131.001 93.8022 130.623 93.9676 130.668 94.2331L138.958 94.2564Z" fill="#263238" />
	<path d="M134.959 91.7428C134.959 91.7847 135.169 91.8033 135.372 91.9361C135.575 92.0689 135.685 92.2413 135.725 92.225C135.764 92.2087 135.699 91.9711 135.449 91.815C135.2 91.6589 134.95 91.7055 134.959 91.7428Z" fill="#263238" />
	<path d="M134.071 92.1132C134.071 92.1551 134.241 92.225 134.381 92.3997C134.521 92.5744 134.563 92.7585 134.614 92.7561C134.666 92.7538 134.682 92.5232 134.503 92.3065C134.323 92.0899 134.071 92.0736 134.071 92.1132Z" fill="#263238" />
	<path d="M133.567 93.18C133.605 93.18 133.663 92.982 133.556 92.7537C133.448 92.5254 133.255 92.4392 133.236 92.4718C133.217 92.5044 133.339 92.6279 133.425 92.8166C133.511 93.0052 133.521 93.1753 133.567 93.18Z" fill="#263238" />
	<path d="M134.666 90.776C134.683 90.8156 134.874 90.7574 135.107 90.776C135.341 90.7947 135.525 90.8646 135.546 90.8273C135.567 90.79 135.392 90.6456 135.117 90.6316C134.841 90.6176 134.645 90.7458 134.666 90.776Z" fill="#263238" />
	<path d="M144.907 87.8805L145.262 91.8405C145.262 91.8405 140.942 93.4222 140.89 94.2189L149.039 94.2911V93.6948L148.71 91.6612L148.229 87.7011L144.907 87.8805Z" fill="#455A64" />
	<path
		d="M147.719 91.2349C147.798 91.2602 147.866 91.3137 147.909 91.3853C147.952 91.457 147.967 91.5418 147.952 91.6239C147.929 91.704 147.876 91.7725 147.805 91.8157C147.734 91.8589 147.649 91.8736 147.567 91.8569C147.482 91.8304 147.41 91.7733 147.364 91.6967C147.319 91.62 147.304 91.5294 147.322 91.4422C147.353 91.3604 147.415 91.2939 147.494 91.2565C147.573 91.2191 147.664 91.2139 147.746 91.2419"
		fill="#E0E0E0" />
	<path d="M149.039 94.2817V93.6854L141.219 93.7879C141.219 93.7879 140.848 93.9486 140.89 94.2095L149.039 94.2817Z" fill="#263238" />
	<path d="M145.127 91.7893C145.127 91.8289 145.332 91.8499 145.53 91.9804C145.728 92.1108 145.838 92.2832 145.875 92.2669C145.913 92.2506 145.852 92.0153 145.607 91.8615C145.362 91.7078 145.117 91.7521 145.127 91.7893Z" fill="#263238" />
	<path d="M144.252 92.1479C144.252 92.1852 144.42 92.2551 144.558 92.4298C144.695 92.6045 144.735 92.7839 144.775 92.7816C144.814 92.7792 144.842 92.5486 144.667 92.339C144.492 92.1293 144.252 92.1083 144.252 92.1479Z" fill="#263238" />
	<path d="M143.749 93.1919C143.787 93.1919 143.843 92.9962 143.749 92.7726C143.656 92.5489 143.456 92.4604 143.437 92.4954C143.418 92.5303 143.537 92.6491 143.621 92.8331C143.705 93.0172 143.71 93.1872 143.749 93.1919Z" fill="#263238" />
	<path d="M144.844 90.8368C144.86 90.874 145.047 90.8205 145.278 90.8368C145.509 90.8531 145.686 90.9253 145.707 90.8903C145.728 90.8554 145.558 90.711 145.285 90.6947C145.012 90.6784 144.823 90.8065 144.844 90.8368Z" fill="#263238" />
	<path
		d="M134.532 52.8062C134.532 52.8062 132.566 58.4923 132.498 62.7226C132.431 66.9529 132.361 73.671 133.242 81.102C134.124 88.5329 134.532 91.503 134.532 91.503H139.007C139.29 88.5757 139.425 85.6361 139.413 82.6953C139.345 78.5349 139.021 77.2165 139.413 72.6391C139.805 68.0617 140.446 65.313 141.113 63.9269C141.113 63.9269 142.961 61.7326 143.096 58.7253C143.152 56.8189 142.835 54.9199 142.163 53.1346L134.532 52.8062Z"
		fill="#263238" />
	<path
		d="M138.508 60.7842C138.583 61.0172 139.908 70.335 140.881 74.4465C141.854 78.5579 142.927 79.6481 143.116 82.9932C143.333 86.8414 144.392 91.5027 144.392 91.5027H149.151C149.151 91.5027 148.479 84.3909 147.809 78.8328C147.14 73.2747 146.176 66.4192 146.321 64.3623C146.466 62.3054 146.841 59.7663 146.321 56.8871C145.801 54.0079 144.672 53.2461 144.672 53.2461L140.629 53.0645L138.508 60.7842Z"
		fill="#263238" />
	<path
		d="M142.994 55.4501C143.022 55.4968 143.047 55.5451 143.069 55.5945C143.135 55.7358 143.189 55.8823 143.23 56.0324C143.367 56.5899 143.42 57.1646 143.386 57.7376C143.352 58.586 143.22 59.4278 142.994 60.2464C142.866 60.7323 142.692 61.205 142.474 61.6581C142.226 62.1361 141.938 62.5927 141.613 63.0231C140.967 63.913 140.648 64.9286 140.405 65.8441C140.202 66.6631 140.051 67.494 139.952 68.3319C139.864 69.0471 139.812 69.6294 139.773 70.0324C139.752 70.2258 139.738 70.3795 139.726 70.4983C139.722 70.5524 139.714 70.6061 139.703 70.659C139.698 70.6048 139.698 70.5502 139.703 70.496C139.703 70.3818 139.719 70.2281 139.731 70.0301C139.759 69.6271 139.801 69.0447 139.88 68.3273C139.969 67.4846 140.114 66.6488 140.314 65.8254C140.433 65.3379 140.583 64.8586 140.764 64.3905C140.861 64.1431 140.972 63.9012 141.096 63.666C141.226 63.4331 141.373 63.2002 141.529 62.9672C141.852 62.5395 142.138 62.0861 142.386 61.6115C142.602 61.1628 142.775 60.6948 142.903 60.2138C143.133 59.4055 143.272 58.5742 143.319 57.7353C143.357 57.1685 143.316 56.5992 143.195 56.0441C143.157 55.8945 143.109 55.7474 143.053 55.6038C143.029 55.5542 143.01 55.5028 142.994 55.4501Z"
		fill="#455A64" />
	<path
		d="M124.049 41.194C124.787 41.5798 125.558 41.8971 126.354 42.1421L128.017 40.8143C128.017 40.8143 126.828 38.6432 126.445 38.0189C126.318 37.8118 126.214 37.5915 126.135 37.362C126.006 36.8961 125.668 37.0965 125.603 37.4599C125.609 37.6596 125.644 37.8574 125.708 38.0469C125.795 38.2691 125.835 38.5072 125.825 38.7457C125.825 38.7457 125.703 38.6432 125.402 38.4406C125.101 38.2379 123.977 37.3061 123.51 36.9218C122.81 36.3487 122.465 36.7051 122.556 36.9218C122.668 37.1966 124.394 38.4033 124.331 38.6083C124.331 38.6083 124 38.797 123.954 39.0136C123.926 39.1543 123.926 39.2992 123.954 39.4399C123.954 39.4399 123.643 39.4702 123.559 39.6728C123.517 39.8313 123.525 39.9991 123.583 40.1527C123.583 40.1527 123.296 40.1783 123.261 40.3367C123.226 40.4951 123.431 40.8236 124.049 41.194Z"
		fill="#AE7461" />
	<path
		d="M127.742 40.2179C127.766 40.2924 131.309 43.9147 131.309 43.9147C131.309 43.9147 134.265 40.5906 135.166 39.3676C136.066 38.1447 137.431 36.6422 138.604 36.3626C139.778 36.0831 141.404 36.8285 141.404 36.8285L139.332 41.1124L136.705 44.7207C136.705 44.7207 133.866 48.2801 132.506 48.8299C131.146 49.3796 129.833 48.5969 129.259 47.9913C128.685 47.3856 125.272 42.2142 125.272 42.2142L127.742 40.2179Z"
		fill="#F8344B" />
	<path d="M147.478 37.7719L139.327 36.3742C139.327 36.3742 137.062 40.3529 136.215 44.5273C135.368 48.7016 134.405 52.8853 134.405 52.8853L141.935 53.8171C142.719 53.9146 143.513 53.9037 144.294 53.7845L145.077 53.6657L144.434 51.0125C145.366 48.7779 146.145 46.4828 146.766 44.1429C147.772 40.0245 147.478 37.7719 147.478 37.7719Z" fill="#F8344B" />
	<path
		d="M139.138 41.748C139.1 41.8124 139.056 41.8725 139.005 41.9274L138.623 42.3932C138.298 42.7869 137.862 43.3367 137.377 43.9447C136.892 44.5526 136.444 45.1094 136.108 45.4798C135.94 45.6731 135.8 45.8245 135.7 45.927C135.652 45.984 135.598 46.0348 135.539 46.0784C135.576 46.0144 135.62 45.9549 135.672 45.9014L136.054 45.4355C136.376 45.0418 136.815 44.4921 137.3 43.8841C137.785 43.2761 138.233 42.7194 138.569 42.349C138.737 42.1556 138.877 42.0042 138.975 41.9017C139.023 41.8441 139.078 41.7925 139.138 41.748Z"
		fill="#263238" />
	<path
		d="M144.308 51.1285C144.145 51.1982 143.973 51.2475 143.797 51.2753C143.378 51.3638 142.952 51.416 142.524 51.4314C142.095 51.4478 141.666 51.4283 141.24 51.3731C141.063 51.3588 140.887 51.3228 140.718 51.266C140.895 51.2663 141.072 51.2788 141.247 51.3032C141.67 51.3389 142.095 51.349 142.519 51.3335C142.943 51.316 143.366 51.2732 143.786 51.2054C143.958 51.167 144.132 51.1413 144.308 51.1285Z"
		fill="#263238" />
	<path d="M131.23 46.0718C131.184 45.7298 131.172 45.3841 131.195 45.0398C131.184 44.6954 131.205 44.3507 131.258 44.0102C131.303 44.3522 131.315 44.6978 131.293 45.0421C131.305 45.3866 131.284 45.7314 131.23 46.0718Z" fill="#263238" />
	<g opacity="0.3">
		<path
			d="M147.216 38.6968L142.121 38.2426C142.081 38.3505 142.062 38.4655 142.068 38.5807C142.073 38.6958 142.102 38.8087 142.152 38.9124C142.203 39.0161 142.274 39.1085 142.361 39.184C142.448 39.2594 142.55 39.3164 142.66 39.3514C142.522 39.5928 142.447 39.8652 142.443 40.1433C142.438 40.4214 142.505 40.696 142.635 40.9416C142.766 41.1872 142.957 41.3958 143.19 41.5478C143.423 41.6999 143.691 41.7905 143.969 41.8113C144.106 41.8105 144.242 41.8277 144.375 41.8625C144.657 41.9627 144.792 42.2725 144.963 42.5194C145.182 42.8531 145.522 43.0893 145.912 43.1787C146.106 43.2185 146.307 43.2066 146.495 43.144C146.683 43.0814 146.851 42.9704 146.983 42.8223C147.203 42.4936 147.312 42.1036 147.295 41.7088C147.345 40.7042 147.319 39.6974 147.216 38.6968Z"
			fill="black" />
	</g>
	<g opacity="0.3">
		<path d="M135.907 45.7198C136.747 45.5494 137.498 45.0857 138.026 44.412C138.554 43.7383 138.824 42.8987 138.788 42.0439C137.72 43.2087 136.821 44.6786 135.907 45.7198Z" fill="black" />
	</g>
	<path
		d="M148.385 35.5612L144.039 30.7322C144.197 31.9575 143.735 33.1758 143.18 34.28C142.863 34.9089 142.511 35.6567 142.842 36.2787C142.556 36.5679 142.314 36.8975 142.123 37.257C142.03 37.4379 141.978 37.6369 141.97 37.8401C141.962 38.0432 141.998 38.2457 142.077 38.4334C142.161 38.6196 142.31 38.7692 142.496 38.8548C142.682 38.9404 142.893 38.9561 143.089 38.8993C142.998 39.1474 142.984 39.4171 143.048 39.6735C143.111 39.9299 143.251 40.1614 143.447 40.338C143.644 40.5147 143.889 40.6285 144.152 40.6648C144.414 40.7011 144.681 40.6581 144.918 40.5416C145.024 41.0492 145.314 41.4998 145.732 41.8064C145.943 41.9545 146.19 42.0417 146.447 42.0585C146.704 42.0754 146.96 42.0212 147.188 41.9019C147.409 41.7707 147.575 41.5634 147.654 41.319C147.733 41.0746 147.72 40.8097 147.617 40.5742C148.574 40.3645 149.171 39.3349 149.199 38.3565C149.227 37.3782 148.816 36.4394 148.385 35.5612Z"
		fill="#263238" />
	<path
		d="M139.397 27.6015C139.374 27.6136 139.35 27.623 139.325 27.6294C139.248 27.6489 139.169 27.6537 139.091 27.6434C138.954 27.6254 138.822 27.5751 138.708 27.4965C138.594 27.4179 138.499 27.3134 138.433 27.1915C138.339 27.0212 138.307 26.8237 138.342 26.6324C138.384 26.4143 138.488 26.2129 138.641 26.0524C138.809 25.8741 139.027 25.7499 139.266 25.696C139.519 25.6354 139.783 25.6354 140.036 25.696C140.182 25.7316 140.323 25.7824 140.458 25.8474L140.393 25.873C140.567 25.4586 140.892 25.1256 141.303 24.9412C141.576 24.8213 141.876 24.7746 142.173 24.8057C142.47 24.8367 142.754 24.9444 142.996 25.1183C143.048 25.1549 143.098 25.1954 143.143 25.2394C143.174 25.2697 143.188 25.2883 143.185 25.2906C143.183 25.293 143.113 25.2347 142.978 25.1462C142.783 25.0233 142.566 24.9387 142.339 24.897C142.001 24.8329 141.651 24.8769 141.34 25.0228C140.953 25.2028 140.648 25.5211 140.484 25.9149L140.463 25.9639L140.416 25.9429C140.287 25.8806 140.152 25.8322 140.013 25.7985C139.774 25.7441 139.526 25.7441 139.287 25.7985C139.066 25.8475 138.864 25.961 138.706 26.1246C138.563 26.271 138.465 26.4553 138.424 26.6557C138.388 26.8297 138.414 27.0108 138.496 27.1682C138.559 27.2839 138.648 27.3834 138.756 27.4586C138.865 27.5339 138.989 27.5828 139.119 27.6015C139.211 27.6128 139.305 27.6128 139.397 27.6015Z"
		fill="#455A64" />
	<path
		d="M148.612 30.6296C148.612 30.6296 148.649 30.5388 148.696 30.3734C148.759 30.1372 148.772 29.8904 148.733 29.6489C148.678 29.2887 148.498 28.9592 148.225 28.7172C148.056 28.5684 147.858 28.4558 147.644 28.3861C147.43 28.3164 147.203 28.2911 146.979 28.3118H146.907L146.928 28.2419C146.97 28.097 146.995 27.9477 147.002 27.797C147.028 27.2892 146.861 26.7904 146.536 26.3994C146.263 26.0848 145.895 25.866 145.488 25.7751C145.215 25.7096 144.93 25.7009 144.653 25.7494C144.457 25.7844 144.352 25.824 144.35 25.817C144.348 25.81 144.373 25.8007 144.422 25.7797C144.498 25.7506 144.576 25.728 144.656 25.7122C145.008 25.6342 145.376 25.6514 145.72 25.7619C146.064 25.8724 146.372 26.0723 146.613 26.3411C146.961 26.7471 147.14 27.2704 147.114 27.804C147.107 27.962 147.081 28.1185 147.035 28.2699L146.984 28.207C147.221 28.1854 147.46 28.2131 147.686 28.2885C147.913 28.3639 148.12 28.4853 148.297 28.6449C148.531 28.8609 148.697 29.1394 148.776 29.4472C148.855 29.755 148.843 30.0789 148.743 30.3804C148.723 30.445 148.696 30.5074 148.663 30.5667C148.65 30.5908 148.633 30.6121 148.612 30.6296Z"
		fill="#455A64" />
	<path
		d="M144.462 38.9083C144.44 38.8991 144.419 38.8865 144.401 38.871C144.347 38.8305 144.295 38.7861 144.247 38.7383C144.027 38.5128 143.871 38.2334 143.794 37.9282C143.717 37.6231 143.722 37.3031 143.809 37.0005C143.949 36.5558 144.254 36.1816 144.662 35.9546C144.828 35.8609 145.009 35.7955 145.197 35.7612L145.169 35.8404C145.037 35.6911 144.939 35.5151 144.882 35.3246C144.825 35.134 144.81 34.9333 144.837 34.7363C144.877 34.4757 144.994 34.233 145.173 34.0395C145.353 33.846 145.586 33.7106 145.843 33.6507C145.897 33.6372 145.953 33.6294 146.008 33.6274C146.046 33.6274 146.067 33.6274 146.067 33.6274C146.067 33.6274 145.987 33.6414 145.852 33.681C145.66 33.7406 145.484 33.8407 145.334 33.9745C145.108 34.1734 144.961 34.4473 144.921 34.7456C144.899 34.9296 144.916 35.1164 144.971 35.2934C145.026 35.4705 145.118 35.6339 145.241 35.7729L145.299 35.8381L145.213 35.8544C145.037 35.8875 144.867 35.9497 144.711 36.0384C144.324 36.2533 144.033 36.606 143.895 37.0261C143.79 37.3711 143.797 37.7403 143.914 38.0814C143.991 38.3124 144.114 38.5255 144.275 38.708C144.389 38.8407 144.466 38.899 144.462 38.9083Z"
		fill="#455A64" />
	<path
		d="M144.389 28.2793L144.253 27.6667C143.791 28.5496 143.638 29.5613 143.817 30.5412C143.901 30.9931 144.05 31.473 143.854 31.8923C143.721 32.1765 143.449 32.3698 143.29 32.6424C143.092 32.9848 143.239 33.891 143.187 34.068C143.071 34.4757 142.679 34.7342 142.585 35.2327C142.492 35.7312 142.611 36.3159 143.052 36.5512C143.882 35.1838 144.732 33.7559 144.918 32.1742C145.088 30.8627 144.79 29.5349 144.389 28.2793Z"
		fill="#263238" />
	<path
		d="M146.909 31.5612C146.885 31.5652 146.861 31.5652 146.837 31.5612C146.769 31.5603 146.702 31.5533 146.636 31.5402C146.385 31.503 146.149 31.3974 145.955 31.235C145.821 31.1192 145.719 30.9708 145.659 30.8041C145.581 30.6105 145.581 30.3943 145.659 30.2008C145.704 30.0944 145.775 30.0004 145.864 29.9263C145.953 29.8522 146.059 29.8002 146.172 29.7745C146.296 29.7485 146.426 29.7666 146.538 29.8257C146.599 29.8586 146.649 29.9091 146.68 29.9706C146.712 30.0322 146.724 30.1019 146.715 30.1705C146.703 30.2426 146.663 30.307 146.603 30.3499C146.546 30.3875 146.48 30.4085 146.412 30.4104C146.289 30.4128 146.167 30.384 146.057 30.3266C145.86 30.2248 145.684 30.0856 145.54 29.9166C145.291 29.6317 145.145 29.2715 145.127 28.8939C145.115 28.6425 145.16 28.3915 145.26 28.1602C145.286 28.0979 145.317 28.0379 145.353 27.9808C145.378 27.942 145.392 27.9233 145.395 27.9249C145.395 27.9249 145.353 28.0111 145.295 28.1741C145.213 28.4032 145.179 28.6467 145.197 28.8893C145.225 29.2475 145.369 29.5869 145.607 29.856C145.746 30.0148 145.914 30.1453 146.102 30.2404C146.196 30.2896 146.301 30.3145 146.407 30.3126C146.456 30.3159 146.503 30.3017 146.542 30.2726C146.581 30.2434 146.607 30.2014 146.617 30.1542C146.622 30.1069 146.613 30.0593 146.59 30.0176C146.567 29.976 146.532 29.9424 146.489 29.9212C146.398 29.8726 146.292 29.8578 146.19 29.8793C146.092 29.9016 146.001 29.9464 145.923 30.0103C145.845 30.0742 145.783 30.1554 145.742 30.2474C145.668 30.4179 145.662 30.6107 145.726 30.7855C145.78 30.9412 145.871 31.0813 145.992 31.1931C146.175 31.3533 146.396 31.4633 146.634 31.5122C146.818 31.5425 146.909 31.5612 146.909 31.5612Z"
		fill="#455A64" />
	<path
		d="M144.924 53.5026C144.898 53.4423 144.878 53.38 144.863 53.3163L144.718 52.7805C144.595 52.2983 144.427 51.6414 144.229 50.8587V50.8447V50.8307C144.462 50.048 144.781 49.1302 145.136 48.1565C145.661 46.7146 146.167 45.4194 146.536 44.4853C146.718 44.0334 146.869 43.6607 146.984 43.3835C147.033 43.2647 147.075 43.1669 147.11 43.0853C147.145 43.0038 147.159 42.9828 147.163 42.9852C147.157 43.0225 147.147 43.0592 147.133 43.0946C147.105 43.1762 147.07 43.2787 147.026 43.3998C146.923 43.6817 146.792 44.059 146.615 44.5179C146.263 45.4497 145.768 46.7565 145.246 48.1985C144.891 49.1698 144.576 50.0853 144.312 50.8633V50.8354C144.494 51.6204 144.646 52.2797 144.758 52.7642C144.805 52.9971 144.844 53.1672 144.875 53.3069C144.9 53.3697 144.916 53.4355 144.924 53.5026Z"
		fill="#263238" />
	<path
		d="M146.155 49.7753C146.176 49.7753 146.139 50.0782 146.137 50.5627C146.13 51.1942 146.174 51.8252 146.27 52.4495C146.352 53.0735 146.524 53.6824 146.78 54.2572C146.901 54.4874 147.04 54.7078 147.196 54.9164C147.136 54.8759 147.082 54.8282 147.035 54.7743C146.904 54.629 146.793 54.4678 146.703 54.2945C146.418 53.7199 146.231 53.1019 146.148 52.4658C146.052 51.8356 146.019 51.1972 146.05 50.5604C146.059 50.3669 146.077 50.1741 146.106 49.9826C146.113 49.9116 146.129 49.8419 146.155 49.7753Z"
		fill="#263238" />
	<path
		d="M146.178 49.6732C146.178 49.6732 146.148 49.7384 146.085 49.8479C146.011 50.01 145.952 50.1784 145.908 50.351C145.767 50.9257 145.689 51.5138 145.674 52.1051C145.651 52.6964 145.685 53.2886 145.777 53.8732C145.852 54.3227 145.957 54.586 145.936 54.5929C145.898 54.5374 145.868 54.4771 145.847 54.4136C145.815 54.3382 145.789 54.2603 145.77 54.1806C145.739 54.0811 145.713 53.98 145.693 53.8778C145.574 53.2893 145.527 52.6886 145.553 52.0888C145.563 51.4881 145.651 50.8914 145.817 50.3138C145.868 50.138 145.941 49.9696 146.036 49.8129C146.118 49.7174 146.174 49.6685 146.178 49.6732Z"
		fill="#263238" />
	<path d="M146.286 49.8943C146.068 49.5482 145.884 49.1815 145.738 48.7994C145.554 48.4347 145.408 48.0522 145.302 47.658C145.519 48.0036 145.702 48.3695 145.847 48.7505C146.031 49.1162 146.178 49.4994 146.286 49.8943Z" fill="#263238" />
</svg>