<svg width="15" height="15" viewBox="0 0 15 15" fill="none" xmlns="http://www.w3.org/2000/svg">
	<path fill-rule="evenodd" clip-rule="evenodd"
		d="M1.72619 2.23994C1.72766 2.23994 1.69107 2.27799 1.64498 2.32336C1.46791 2.49531 1.10133 2.85311 1.09763 3.60163C1.09181 4.64869 1.78034 6.59281 5.09566 9.90739C8.39561 13.2059 10.3368 13.9025 11.3861 13.9025H11.4014C12.1499 13.8988 12.507 13.5315 12.6797 13.3551C12.7324 13.301 12.7748 13.2615 12.8048 13.2366C13.5336 12.5035 13.9067 11.9576 13.9031 11.6079C13.898 11.2508 13.4538 10.8286 12.8399 10.2447C12.6446 10.0589 12.4324 9.8569 12.2085 9.63301C11.6282 9.05423 11.3407 9.15301 10.7085 9.37545C9.83412 9.68203 8.63414 10.0991 6.76978 8.234C4.90249 6.36818 5.32029 5.16966 5.62614 4.29528C5.84711 3.66309 5.94808 3.37481 5.36712 2.79384C5.13956 2.56701 4.93542 2.35189 4.74737 2.15434C4.16713 1.5441 3.7486 1.10289 3.39373 1.09777H3.38788C3.03739 1.09777 2.49301 1.47239 1.72254 2.24287C1.72473 2.24068 1.72619 2.23994 1.72619 2.23994ZM11.3868 15C9.5634 15 7.18611 13.5483 4.32006 10.6837C1.44303 7.80742 -0.0108528 5.42282 6.09887e-05 3.59578C0.00670793 2.38848 0.639625 1.7702 0.877427 1.53825C0.889866 1.52288 0.932304 1.48118 0.946938 1.46654C1.99619 0.416557 2.70374 -0.00782734 3.40763 0.000109123C4.22494 0.0111968 4.80664 0.622895 5.54272 1.39776C5.72492 1.58947 5.92247 1.798 6.14271 2.01751C7.21099 3.08579 6.90661 3.95724 6.66222 4.65674C6.39588 5.4199 6.1654 6.07842 7.54538 7.4584C8.92682 8.83838 9.58535 8.6079 10.3456 8.33937C11.0458 8.09498 11.9151 7.78913 12.9848 8.85741C13.2014 9.07399 13.407 9.26935 13.5965 9.45008C14.375 10.1898 14.9897 10.7745 15 11.594C15.0087 12.2927 14.5843 13.0047 13.5365 14.0532L13.0726 13.7386L13.4648 14.122C13.2329 14.3598 12.6153 14.9934 11.4073 15H11.3868Z"
		fill="#142647" />
</svg>