<svg xmlns="http://www.w3.org/2000/svg" width="35" height="35" viewBox="0 0 35 35" fill="none">
	<mask id="path-1-inside-1_206_223" fill="white">
		<path fill-rule="evenodd" clip-rule="evenodd"
			d="M19.5148 3.84162C20.0331 3.45226 20.3684 2.83236 20.3684 2.13415C20.3684 0.95549 19.4129 0 18.2343 0C17.0556 0 16.1001 0.95549 16.1001 2.13415C16.1001 2.83236 16.4354 3.45226 16.9538 3.84162V6.82927H11.9782C11.4259 6.82927 10.9782 7.27698 10.9782 7.82927V8.53659H4.4416C3.33703 8.53659 2.4416 9.43201 2.4416 10.5366V17.0732H1.73428C1.182 17.0732 0.734283 17.5209 0.734283 18.0732V24.6098C0.734283 25.162 1.182 25.6098 1.73428 25.6098H2.4416V33C2.4416 34.1046 3.33703 35 4.4416 35H31.1733C32.2779 35 33.1733 34.1046 33.1733 33V25.6098H33.8806C34.4329 25.6098 34.8806 25.162 34.8806 24.6098V18.0732C34.8806 17.5209 34.4329 17.0732 33.8806 17.0732H33.1733V10.5366C33.1733 9.43202 32.2779 8.53659 31.1733 8.53659H24.6367V7.82927C24.6367 7.27698 24.189 6.82927 23.6367 6.82927H19.5148V3.84162Z" />
	</mask>
	<path
		d="M19.5148 3.84162L18.9142 3.04205L18.5148 3.34207V3.84162H19.5148ZM16.9538 3.84162H17.9538V3.34207L17.5544 3.04205L16.9538 3.84162ZM16.9538 6.82927V7.82927H17.9538V6.82927H16.9538ZM10.9782 8.53659V9.53659H11.9782V8.53659H10.9782ZM2.4416 17.0732V18.0732H3.4416V17.0732H2.4416ZM2.4416 25.6098H3.4416V24.6098H2.4416V25.6098ZM33.1733 25.6098V24.6098H32.1733V25.6098H33.1733ZM33.1733 17.0732H32.1733V18.0732H33.1733V17.0732ZM24.6367 8.53659H23.6367V9.53659H24.6367V8.53659ZM19.5148 6.82927H18.5148V7.82927H19.5148V6.82927ZM19.3684 2.13415C19.3684 2.50455 19.1919 2.83344 18.9142 3.04205L20.1153 4.64119C20.8743 4.07108 21.3684 3.16017 21.3684 2.13415H19.3684ZM18.2343 1C18.8607 1 19.3684 1.50777 19.3684 2.13415H21.3684C21.3684 0.403205 19.9652 -1 18.2343 -1V1ZM17.1001 2.13415C17.1001 1.50777 17.6079 1 18.2343 1V-1C16.5033 -1 15.1001 0.403205 15.1001 2.13415H17.1001ZM17.5544 3.04205C17.2766 2.83344 17.1001 2.50455 17.1001 2.13415H15.1001C15.1001 3.16017 15.5942 4.07108 16.3532 4.64119L17.5544 3.04205ZM15.9538 3.84162V6.82927H17.9538V3.84162H15.9538ZM16.9538 5.82927H11.9782V7.82927H16.9538V5.82927ZM11.9782 5.82927C10.8736 5.82927 9.97819 6.7247 9.97819 7.82927H11.9782V5.82927ZM9.97819 7.82927V8.53659H11.9782V7.82927H9.97819ZM10.9782 7.53659H4.4416V9.53659H10.9782V7.53659ZM4.4416 7.53659C2.78475 7.53659 1.4416 8.87973 1.4416 10.5366H3.4416C3.4416 9.9843 3.88931 9.53659 4.4416 9.53659V7.53659ZM1.4416 10.5366V17.0732H3.4416V10.5366H1.4416ZM2.4416 16.0732H1.73428V18.0732H2.4416V16.0732ZM1.73428 16.0732C0.629714 16.0732 -0.265717 16.9686 -0.265717 18.0732H1.73428H1.73428V16.0732ZM-0.265717 18.0732V24.6098H1.73428V18.0732H-0.265717ZM-0.265717 24.6098C-0.265717 25.7143 0.629714 26.6098 1.73428 26.6098V24.6098H1.73428H-0.265717ZM1.73428 26.6098H2.4416V24.6098H1.73428V26.6098ZM1.4416 25.6098V33H3.4416V25.6098H1.4416ZM1.4416 33C1.4416 34.6569 2.78475 36 4.4416 36V34C3.88932 34 3.4416 33.5523 3.4416 33H1.4416ZM4.4416 36H31.1733V34H4.4416V36ZM31.1733 36C32.8302 36 34.1733 34.6569 34.1733 33H32.1733C32.1733 33.5523 31.7256 34 31.1733 34V36ZM34.1733 33V25.6098H32.1733V33H34.1733ZM33.1733 26.6098H33.8806V24.6098H33.1733V26.6098ZM33.8806 26.6098C34.9852 26.6098 35.8806 25.7143 35.8806 24.6098H33.8806V24.6098V26.6098ZM35.8806 24.6098V18.0732H33.8806V24.6098H35.8806ZM35.8806 18.0732C35.8806 16.9686 34.9852 16.0732 33.8806 16.0732V18.0732H35.8806ZM33.8806 16.0732H33.1733V18.0732H33.8806V16.0732ZM34.1733 17.0732V10.5366H32.1733V17.0732H34.1733ZM34.1733 10.5366C34.1733 8.87973 32.8302 7.53659 31.1733 7.53659V9.53659C31.7256 9.53659 32.1733 9.9843 32.1733 10.5366H34.1733ZM31.1733 7.53659H24.6367V9.53659H31.1733V7.53659ZM25.6367 8.53659V7.82927H23.6367V8.53659H25.6367ZM25.6367 7.82927C25.6367 6.7247 24.7413 5.82927 23.6367 5.82927V7.82927H23.6367H25.6367ZM23.6367 5.82927H19.5148V7.82927H23.6367V5.82927ZM20.5148 6.82927V3.84162H18.5148V6.82927H20.5148Z"
		fill="white" mask="url(#path-1-inside-1_206_223)" />
	<rect x="10.1245" y="16.2195" width="5.12195" height="5.12195" rx="2.56098" fill="white" />
	<rect x="19.5147" y="16.2195" width="5.12195" height="5.12195" rx="2.56098" fill="white" />
	<mask id="path-5-inside-2_206_223" fill="white">
		<path d="M5.85623 28.3171C5.85623 27.7648 6.30395 27.3171 6.85623 27.3171H28.7587C29.311 27.3171 29.7587 27.7648 29.7587 28.3171V30.5854C29.7587 31.1377 29.311 31.5854 28.7587 31.5854H6.85623C6.30395 31.5854 5.85623 31.1377 5.85623 30.5854V28.3171Z" />
	</mask>
	<path
		d="M5.85623 27.3171H29.7587H5.85623ZM30.7587 30.5854C30.7587 31.6899 29.8632 32.5854 28.7587 32.5854H6.85623C5.75166 32.5854 4.85623 31.6899 4.85623 30.5854H6.85623H28.7587H30.7587ZM6.85623 32.5854C5.75166 32.5854 4.85623 31.6899 4.85623 30.5854V29.3171C4.85623 28.2125 5.75166 27.3171 6.85623 27.3171C6.85623 27.3171 6.85623 27.7648 6.85623 28.3171V30.5854V32.5854ZM28.7587 27.3171C29.8632 27.3171 30.7587 28.2125 30.7587 29.3171V30.5854C30.7587 31.6899 29.8632 32.5854 28.7587 32.5854V30.5854V28.3171C28.7587 27.7648 28.7587 27.3171 28.7587 27.3171Z"
		fill="white" mask="url(#path-5-inside-2_206_223)" />
</svg>