<svg xmlns="http://www.w3.org/2000/svg" width="37" height="33" viewBox="0 0 37 33" fill="none">
	<rect x="1.43713" y="0.5" width="30" height="25" rx="1.5" stroke="white" />
	<rect x="9.43713" y="30.5" width="15" height="2" rx="1" stroke="white" />
	<rect x="13.4371" y="25.5" width="7" height="5" stroke="white" />
	<path fill-rule="evenodd" clip-rule="evenodd"
		d="M26.798 18.4515L27.1176 18.7711L28.0433 19.6968L28.3968 20.0503L28.0433 20.4039L27.7145 20.7326L34.2748 27.2929L36.2929 25.2747L29.7327 18.7145L29.341 19.1061L28.9875 19.4597L28.6339 19.1061L27.7083 18.1805L27.3886 17.8608L27.6745 17.5107C28.8824 16.0317 29.6064 14.1434 29.6064 12.0846C29.6064 7.34348 25.7629 3.5 21.0218 3.5C16.2806 3.5 12.4371 7.34348 12.4371 12.0846C12.4371 16.8258 16.2806 20.6693 21.0218 20.6693C23.0805 20.6693 24.9688 19.9452 26.4478 18.7374L26.798 18.4515ZM29.3791 18.3609L29.7327 18.0074L30.0862 18.3609L36.6465 24.9212L37 25.2747L36.6465 25.6283L34.6283 27.6464L34.2748 28L33.9212 27.6464L27.361 21.0862L27.0074 20.7326L27.3362 20.4039L27.361 20.3791L27.6897 20.0503L27.3362 19.6968L26.7641 19.1247C25.1991 20.4027 23.1999 21.1693 21.0218 21.1693C16.0045 21.1693 11.9371 17.102 11.9371 12.0846C11.9371 7.06733 16.0045 3 21.0218 3C26.0391 3 30.1064 7.06733 30.1064 12.0846C30.1064 14.2628 29.3399 16.2619 28.0618 17.8269L28.6339 18.399L28.9875 18.7526L29.341 18.399L29.3791 18.3609Z"
		fill="white" />
	<circle cx="21.0217" cy="12.2682" r="7.54995" stroke="white" stroke-width="0.5" />
	<mask id="mask0_206_293" style="mask-type:alpha" maskUnits="userSpaceOnUse" x="13" y="4" width="16" height="17">
		<circle cx="21.0217" cy="12.2682" r="7.54995" fill="#D9D9D9" stroke="white" stroke-width="0.5" />
	</mask>
	<g mask="url(#mask0_206_293)">
		<rect x="15.6077" y="14.9294" width="1.83528" height="3.85409" fill="white" />
		<rect x="18.1771" y="9.42354" width="1.83528" height="10.2776" fill="white" />
		<rect x="21.1135" y="11.6259" width="1.83528" height="8.4423" fill="white" />
		<rect x="24.417" y="9.97412" width="1.83528" height="10.0941" fill="white" />
	</g>
	<rect x="27.5381" y="20.7222" width="3" height="9.41223" transform="rotate(-45 27.5381 20.7222)" fill="#7EAFCB" />
</svg>