<svg width="433" height="400" viewBox="0 0 433 400" fill="none" xmlns="http://www.w3.org/2000/svg">
	<path
		d="M411.181 194.672C406.695 232.705 389.344 276.935 354.641 297.243C302.24 327.952 306.626 375.166 204.336 395.693C189.42 398.758 174.214 400.195 158.987 399.979C151.535 399.841 144.098 399.233 136.722 398.159C71.7109 388.669 27.9634 343.484 11.913 288.927C-9.20552 217.191 32.9678 170.186 60.9196 141.925C88.8713 113.664 109.353 25.4596 209.75 4.53212C225.063 1.24585 240.705 -0.262412 256.364 0.0372741C292.086 0.947163 331.047 12.6483 358.007 37.1243C360.027 38.9441 361.999 40.8488 363.922 42.8384C401.391 81.3176 417.314 142.817 411.181 194.672Z"
		fill="#2C96DC" />
	<path opacity="0.7"
		d="M411.181 194.672C406.695 232.705 389.344 276.935 354.641 297.243C302.24 327.952 306.626 375.166 204.336 395.693C189.42 398.758 174.214 400.195 158.987 399.979C151.535 399.841 144.098 399.233 136.722 398.159C71.7109 388.669 27.9634 343.484 11.913 288.927C-9.20552 217.191 32.9678 170.186 60.9196 141.925C88.8713 113.664 109.353 25.4596 209.75 4.53212C225.063 1.24585 240.705 -0.262412 256.364 0.0372741C292.086 0.947163 331.047 12.6483 358.007 37.1243C360.027 38.9441 361.999 40.8488 363.922 42.8384C401.391 81.3176 417.314 142.817 411.181 194.672Z"
		fill="white" />
	<path
		d="M5.97139 207.292C8.80114 208.529 15.7436 208.402 15.7436 208.402C15.7436 208.402 14.2514 203.852 14.124 203.597C12.5863 200.395 7.78207 195.154 3.91504 195.663C3.26906 195.769 2.6525 196.009 2.10539 196.368C1.55829 196.728 1.09287 197.198 0.739348 197.749C0.385832 198.3 0.152124 198.919 0.0533996 199.566C-0.0453249 200.213 -0.00685853 200.874 0.166301 201.505C0.785025 204.234 3.56018 206.245 5.97139 207.292Z"
		fill="#263238" />
	<path
		d="M8.3552 227.336C11.2941 227.764 17.4541 225.972 17.9545 225.835C18.9745 229.368 20.2268 232.831 21.7033 236.199C22.5495 238.164 23.4684 240.12 24.4329 242.068C23.8688 241.24 23.3593 240.503 23.2774 240.412C20.9754 237.746 14.961 233.96 11.3305 235.498C10.7338 235.77 10.2011 236.165 9.76741 236.657C9.33372 237.149 9.00876 237.726 8.81379 238.353C8.61883 238.979 8.55825 239.639 8.63602 240.29C8.71379 240.941 8.92815 241.569 9.26509 242.131C10.6026 244.57 13.8145 245.771 16.4168 246.153C19.0191 246.535 24.351 245.116 25.7432 244.724C26.1162 245.461 26.4802 246.208 26.8532 246.954C28.673 250.511 30.4382 254.06 32.0942 257.59C32.6856 258.837 33.2134 260.083 33.7502 261.33C33.2497 260.593 32.8403 259.983 32.7402 259.892C30.4382 257.235 24.4238 253.441 20.7934 254.988C20.1989 255.261 19.6684 255.656 19.2364 256.147C18.8044 256.639 18.4805 257.215 18.2858 257.84C18.091 258.465 18.0297 259.123 18.1059 259.773C18.1821 260.423 18.394 261.049 18.7279 261.612C20.0655 264.05 23.2774 265.252 25.8797 265.634C28.4819 266.016 33.2952 264.724 34.9785 264.278C35.4881 265.57 36.0067 266.862 36.4344 268.136C36.7164 269.046 37.044 269.837 37.2715 270.738C37.4989 271.639 37.7628 272.494 38.0085 273.359C38.4088 275.042 38.8365 276.78 39.1913 278.427C39.4461 279.582 39.6645 280.674 39.8919 281.784C39.3278 280.538 38.1631 278.145 38.0722 277.935C36.2069 274.951 30.7931 270.292 27.0079 271.266C26.3705 271.443 25.7777 271.752 25.2689 272.175C24.7601 272.598 24.3467 273.124 24.056 273.718C23.7653 274.312 23.604 274.961 23.5828 275.622C23.5615 276.283 23.6807 276.942 23.9325 277.553C24.8424 280.165 27.8814 281.848 30.3927 282.612C33.1679 283.458 39.2914 282.685 40.0557 282.612C40.4288 284.432 40.7654 286.252 41.0566 287.917C41.7208 291.647 42.2121 294.987 42.5852 297.816H45.1693C44.7234 294.887 44.132 291.402 43.3495 287.489C42.9765 285.669 42.5488 283.649 42.0939 281.611C43.9406 280.875 45.7423 280.03 47.4895 279.082C49.5004 281.266 54.6776 283.822 55.3418 284.15C54.6412 285.879 53.9406 287.553 53.2491 289.127C51.8206 292.412 50.4648 295.332 49.2638 297.816H52.0571C53.0853 295.523 54.2227 292.921 55.4055 290.037C56.1243 288.281 56.8614 286.397 57.5984 284.441C58.3445 284.596 64.4043 285.833 67.2341 285.196C69.8 284.614 72.9118 283.167 74.0582 280.647C74.3473 280.059 74.5097 279.418 74.535 278.763C74.5604 278.109 74.448 277.457 74.2053 276.849C73.9626 276.241 73.5948 275.69 73.1259 275.233C72.657 274.776 72.0974 274.423 71.4833 274.196C67.7436 272.94 62.0386 277.189 59.9459 280.019C59.8276 280.183 58.6902 282.148 57.9987 283.395C58.2899 282.603 58.5901 281.83 58.9086 281.011C59.5 279.382 60.046 277.744 60.6465 275.979C60.9013 275.115 61.1651 274.25 61.4199 273.368C61.6747 272.485 61.8839 271.548 62.1296 270.638C62.6391 268.509 63.0395 266.316 63.4126 264.105C64.832 264.624 69.9183 266.398 72.5114 266.207C75.1046 266.016 78.4257 265.06 79.9452 262.731C80.3202 262.194 80.578 261.583 80.7019 260.94C80.8259 260.297 80.8133 259.634 80.6649 258.996C80.5165 258.358 80.2356 257.758 79.8404 257.235C79.4453 256.712 78.9447 256.278 78.3711 255.962C74.868 254.142 68.5898 257.49 66.0967 259.974C65.942 260.129 64.3497 262.112 63.4944 263.213C63.7037 261.885 63.9221 260.556 64.0859 259.201C64.5772 255.297 64.9412 251.321 65.3324 247.372C65.4507 246.153 65.5781 244.952 65.7055 243.733C66.215 243.924 72.2112 246.153 75.1592 245.953C77.7888 245.762 81.0735 244.797 82.593 242.468C82.9696 241.932 83.229 241.323 83.3543 240.681C83.4796 240.038 83.4681 239.376 83.3204 238.738C83.1727 238.1 82.8923 237.501 82.4973 236.978C82.1023 236.456 81.6016 236.023 81.028 235.707C77.5249 233.888 71.2376 237.227 68.7445 239.711C68.5625 239.902 66.2787 242.759 65.7328 243.514C66.0148 240.848 66.3151 238.201 66.7245 235.598C67.2547 232.08 68.0145 228.599 68.9993 225.18C69.2267 225.271 75.4777 227.637 78.5076 227.418C81.1281 227.236 84.4219 226.272 85.9323 223.943C86.309 223.406 86.5685 222.796 86.6939 222.153C86.8193 221.51 86.8078 220.847 86.6602 220.209C86.5126 219.57 86.2321 218.97 85.837 218.447C85.442 217.924 84.9412 217.49 84.3673 217.173C80.8642 215.353 74.586 218.702 72.0838 221.186C71.8927 221.377 69.436 224.452 69.0266 225.044C69.0903 224.843 69.1266 224.634 69.1903 224.434C70.27 221.037 71.6494 217.742 73.3121 214.589C74.222 212.833 75.1319 211.204 76.1328 209.639C77.252 210.203 82.3928 212.696 85.1316 212.806C87.8704 212.915 91.1369 212.314 92.902 210.167C93.3349 209.675 93.6594 209.098 93.8546 208.473C94.0497 207.848 94.1111 207.188 94.0347 206.538C93.9583 205.887 93.7459 205.26 93.4113 204.697C93.0766 204.134 92.6272 203.648 92.0922 203.27C88.7984 201.086 82.1926 203.716 79.4448 205.909C79.2901 206.027 77.9071 207.41 76.9062 208.429C77.352 207.728 77.8161 207 78.2437 206.336C79.8906 203.852 81.5557 201.687 83.0388 199.767C83.8941 198.693 84.6948 197.729 85.4501 196.837C86.8331 196.837 92.4107 196.646 94.8492 195.499C97.2877 194.353 99.9537 192.297 100.527 189.576C100.683 188.94 100.705 188.279 100.589 187.634C100.473 186.99 100.223 186.377 99.8547 185.835C99.4866 185.294 99.0086 184.836 98.4519 184.491C97.8953 184.147 97.2723 183.923 96.6235 183.835C92.7019 183.407 88.0432 188.784 86.6147 192.024C86.4873 192.306 85.0588 196.873 85.1225 196.873H85.2135C84.4674 197.71 83.6849 198.62 82.8478 199.603C81.3101 201.487 79.5995 203.625 77.8889 206.081C76.0169 208.708 74.3003 211.443 72.748 214.27C70.9946 217.431 69.5239 220.741 68.3532 224.161C68.3562 224.203 68.3562 224.246 68.3532 224.288C68.3532 223.133 68.3532 219.903 68.2896 219.648C67.8437 216.163 64.9139 209.685 61.0104 208.966C60.3637 208.864 59.7027 208.9 59.0706 209.071C58.4386 209.242 57.8496 209.544 57.3422 209.958C56.8348 210.371 56.4204 210.888 56.1259 211.472C55.8314 212.057 55.6634 212.697 55.633 213.351C55.4055 216.081 57.4528 218.902 59.3726 220.631C61.5837 222.614 67.7254 224.525 68.2168 224.67C67.1126 228.178 66.2462 231.756 65.6236 235.38C65.2414 237.491 64.9321 239.629 64.6409 241.749C64.6409 240.748 64.6409 239.857 64.6409 239.729C64.186 236.235 61.2561 229.72 57.3618 229.047C56.715 228.945 56.054 228.981 55.422 229.152C54.7899 229.323 54.201 229.625 53.6936 230.039C53.1862 230.453 52.7717 230.969 52.4772 231.554C52.1827 232.138 52.0148 232.779 51.9844 233.433C51.7569 236.162 53.8041 238.983 55.724 240.712C57.6439 242.441 62.9212 244.224 64.3042 244.67C64.1951 245.489 64.0859 246.317 63.9858 247.136C63.5126 251.094 63.0759 255.043 62.4936 258.91C62.3025 260.265 62.0568 261.639 61.8111 262.931C61.8111 262.021 61.8111 261.303 61.8111 261.184C61.3562 257.699 58.4355 251.176 54.532 250.502C53.8848 250.401 53.2233 250.436 52.5908 250.607C51.9582 250.778 51.3688 251.08 50.8607 251.494C50.3526 251.907 49.9373 252.423 49.6417 253.008C49.3462 253.593 49.1772 254.233 49.1455 254.888C48.918 257.663 50.9653 260.438 52.8942 262.167C54.8232 263.896 59.5819 265.515 61.2197 266.043C60.9286 267.399 60.6465 268.773 60.3098 270.065C60.0642 270.975 59.8822 271.821 59.5728 272.704C59.2635 273.586 59.0178 274.432 58.7448 275.288C58.1443 276.916 57.5438 278.6 56.925 280.174C56.4974 281.275 56.0788 282.312 55.6603 283.358C55.8696 282.003 56.2335 279.346 56.2335 279.127C56.1788 276.011 55.32 272.961 53.7404 270.274C53.7513 269.93 53.73 269.586 53.6767 269.246C53.5961 268.596 53.3792 267.97 53.0401 267.409C52.701 266.848 52.2475 266.365 51.7091 265.992C51.1706 265.618 50.5595 265.362 49.9155 265.241C49.2715 265.12 48.6091 265.136 47.9717 265.288C44.1684 266.298 41.7481 272.986 41.6025 276.507C41.6025 276.707 41.7299 278.973 41.8391 280.401C41.648 279.573 41.466 278.763 41.2659 277.917C40.8655 276.225 40.4106 274.56 39.9374 272.758C39.6827 271.903 39.4188 271.029 39.1458 270.156C38.8729 269.282 38.5362 268.336 38.2359 267.49C37.4807 265.433 36.6254 263.377 35.7064 261.33C37.1805 260.975 42.3941 259.647 44.496 258.036C46.5978 256.426 48.7906 253.823 48.7724 251.039C48.7913 250.384 48.6717 249.732 48.4215 249.126C48.1712 248.52 47.796 247.974 47.3202 247.523C46.8444 247.073 46.2789 246.727 45.6605 246.51C45.0422 246.293 44.3849 246.208 43.7317 246.262C39.81 246.69 36.4526 252.932 35.6973 256.38C35.6973 256.589 35.4244 259.11 35.3243 260.52C34.7602 259.292 34.2142 258.063 33.6046 256.881C31.8485 253.35 29.9651 249.838 28.1453 246.317C27.572 245.243 27.017 244.16 26.4529 243.087C26.9806 242.959 33.2134 241.513 35.5518 239.711C37.6445 238.119 39.8555 235.498 39.8373 232.714C39.8548 232.059 39.7342 231.408 39.4835 230.803C39.2327 230.198 38.8574 229.652 38.382 229.202C37.9065 228.751 37.3416 228.406 36.7239 228.188C36.1061 227.97 35.4495 227.884 34.7966 227.937C30.8749 228.365 27.5175 234.606 26.7622 238.055C26.7077 238.31 26.3801 241.958 26.3437 242.886C25.1062 240.512 23.8961 238.128 22.8042 235.735C21.3075 232.51 20.0218 229.191 18.9554 225.799C19.2011 225.744 25.7159 224.261 28.118 222.414C30.2107 220.813 32.4218 218.201 32.4036 215.417C32.421 214.762 32.3004 214.111 32.0497 213.506C31.7989 212.901 31.4236 212.355 30.9482 211.905C30.4727 211.454 29.9078 211.109 29.2901 210.891C28.6723 210.673 28.0157 210.587 27.3628 210.64C23.4412 211.068 20.0837 217.309 19.3285 220.758C19.2739 221.031 18.919 224.943 18.9099 225.662C18.8462 225.462 18.7643 225.262 18.7097 225.071C17.7138 221.642 17.0256 218.131 16.6534 214.58C16.435 212.614 16.3349 210.731 16.2803 208.902C17.5178 208.747 23.1864 207.992 25.5339 206.573C27.8814 205.153 30.2744 202.851 30.5565 200.085C30.6505 199.433 30.6052 198.767 30.4235 198.133C30.2418 197.5 29.9278 196.911 29.5023 196.408C29.0767 195.904 28.5493 195.496 27.9547 195.211C27.3601 194.926 26.7118 194.77 26.0525 194.753C22.1127 194.753 18.0455 200.577 16.9536 203.925C16.89 204.107 16.4987 206.027 16.2257 207.428C16.2257 206.6 16.2257 205.745 16.2257 204.953C16.2257 201.969 16.4259 199.239 16.6079 196.828C16.7262 195.454 16.8627 194.207 16.9991 193.052C18.1365 192.269 22.695 189.048 24.0963 186.746C25.4975 184.444 26.5894 181.287 25.5612 178.676C25.3405 178.066 24.995 177.508 24.5469 177.039C24.0988 176.57 23.5578 176.2 22.9585 175.952C22.3592 175.703 21.7148 175.583 21.0663 175.597C20.4177 175.612 19.7794 175.762 19.192 176.037C15.6889 177.857 14.7608 184.899 15.3431 188.375C15.3977 188.666 16.7171 193.27 16.7808 193.234L16.8445 193.188C16.6898 194.298 16.5442 195.49 16.3986 196.828C16.162 199.248 15.9073 201.978 15.8436 205.017C15.7287 208.24 15.8047 211.466 16.0711 214.68C16.3607 218.284 16.9696 221.856 17.8908 225.353V225.471C17.2721 224.498 15.4432 221.832 15.2795 221.641C12.9774 218.984 6.96307 215.189 3.33262 216.736C2.73743 217.002 2.20458 217.39 1.76837 217.875C1.33217 218.359 1.00229 218.93 0.799994 219.549C0.597697 220.169 0.527465 220.824 0.593825 221.473C0.660185 222.121 0.861664 222.749 1.18528 223.315C2.55011 225.753 5.73472 226.963 8.3552 227.336Z"
		fill="#263238" />
	<path
		d="M75.9598 208.82C76.0235 208.82 77.2155 204.216 77.261 203.916C77.7432 200.431 76.6332 193.407 73.0846 191.696C72.4861 191.425 71.837 191.282 71.1798 191.279C70.5226 191.276 69.872 191.411 69.2708 191.676C68.6695 191.942 68.1311 192.331 67.6907 192.819C67.2504 193.307 66.918 193.882 66.7154 194.508C65.8055 197.119 66.9702 200.331 68.3987 202.533C70.1002 205.126 75.9598 208.811 75.9598 208.82Z"
		fill="#263238" />
	<path d="M66.9976 335.149H29.1735L24.4512 293.149H71.729L66.9976 335.149Z" fill="white" stroke="#263238" stroke-linecap="round" stroke-linejoin="round" />
	<path d="M25.3157 300.847L25.7706 304.914H70.4006L70.8647 300.847H25.3157Z" fill="#263238" />
	<path d="M69.3998 313.867L69.8547 309.8H26.3257L26.7806 313.867H69.3998Z" fill="#263238" />
	<path opacity="0.3"
		d="M57.4165 84.6568L90.2908 51.8098C93.1325 53.0951 96.2761 53.5633 99.369 53.162C102.462 52.7607 105.382 51.5056 107.802 49.5376C110.221 47.5697 112.045 44.9666 113.068 42.0202C114.091 39.0739 114.272 35.9008 113.593 32.8569L100.509 45.932C100.416 46.0255 100.305 46.0997 100.183 46.1504C100.062 46.201 99.931 46.2271 99.7991 46.2271C99.6672 46.2271 99.5366 46.201 99.4148 46.1504C99.293 46.0997 99.1824 46.0255 99.0894 45.932L87.7522 34.613C87.6587 34.5199 87.5844 34.4094 87.5338 34.2876C87.4831 34.1658 87.4571 34.0352 87.4571 33.9032C87.4571 33.7713 87.4831 33.6407 87.5338 33.5189C87.5844 33.3971 87.6587 33.2865 87.7522 33.1935L100.836 20.1184C97.7924 19.439 94.6194 19.6209 91.6731 20.6439C88.7267 21.6668 86.1236 23.4903 84.1556 25.9099C82.1876 28.3295 80.9326 31.2495 80.5313 34.3424C80.1299 37.4354 80.5982 40.5789 81.8834 43.4207L49.0092 76.2676C46.1693 74.9945 43.0314 74.5359 39.946 74.9429C36.8606 75.35 33.949 76.6067 31.5365 78.5728C29.124 80.5388 27.3055 83.1368 26.2841 86.0766C25.2627 89.0164 25.0786 92.1823 25.7524 95.2206L38.8366 82.1455C38.9288 82.0523 39.0387 81.9782 39.1597 81.9277C39.2807 81.8772 39.4106 81.8511 39.5418 81.8511C39.6729 81.8511 39.8028 81.8772 39.9238 81.9277C40.0449 81.9782 40.1547 82.0523 40.2469 82.1455L51.5477 93.4827C51.6413 93.5757 51.7155 93.6863 51.7662 93.8081C51.8168 93.9299 51.8429 94.0605 51.8429 94.1924C51.8429 94.3244 51.8168 94.455 51.7662 94.5768C51.7155 94.6986 51.6413 94.8091 51.5477 94.9022L38.4908 107.977C41.5357 108.656 44.7096 108.473 47.6561 107.448C50.6025 106.423 53.2048 104.596 55.1707 102.174C57.1366 99.7516 58.3881 96.8292 58.7848 93.7348C59.1816 90.6404 58.7077 87.4968 57.4165 84.6568Z"
		stroke="black" stroke-linecap="round" stroke-linejoin="round" />
	<path opacity="0.3" d="M122.719 11.2107L112.71 7.92603L104.858 14.9504L107.023 25.2685L117.032 28.5441L124.93 21.5198L122.719 11.2107ZM115.731 22.3205L111.764 21.0193L110.909 16.9339L114.02 14.2043L117.978 15.4963L118.834 19.5817L115.731 22.3205Z" stroke="black" stroke-linecap="round" stroke-linejoin="round" />
	<path opacity="0.3"
		d="M347.652 233.314L314.778 266.189C311.935 264.894 308.787 264.418 305.688 264.814C302.589 265.211 299.662 266.465 297.237 268.434C294.812 270.404 292.984 273.011 291.96 275.963C290.936 278.914 290.756 282.093 291.44 285.142L304.56 272.094C304.653 272 304.764 271.926 304.886 271.875C305.007 271.825 305.138 271.799 305.27 271.799C305.402 271.799 305.532 271.825 305.654 271.875C305.776 271.926 305.887 272 305.98 272.094L317.317 283.44C317.41 283.532 317.484 283.642 317.535 283.763C317.585 283.884 317.611 284.014 317.611 284.145C317.611 284.276 317.585 284.406 317.535 284.527C317.484 284.648 317.41 284.758 317.317 284.85L304.233 297.935C307.277 298.614 310.45 298.432 313.396 297.409C316.342 296.386 318.945 294.563 320.913 292.143C322.881 289.724 324.136 286.804 324.538 283.711C324.939 280.618 324.471 277.474 323.186 274.632L356.042 241.722C358.883 243.007 362.027 243.475 365.12 243.074C368.213 242.673 371.133 241.418 373.552 239.45C375.972 237.482 377.796 234.878 378.818 231.932C379.841 228.986 380.023 225.813 379.344 222.769L366.26 235.853C366.167 235.946 366.056 236.021 365.934 236.071C365.812 236.122 365.682 236.148 365.55 236.148C365.418 236.148 365.287 236.122 365.166 236.071C365.044 236.021 364.933 235.946 364.84 235.853L353.503 224.516C353.41 224.423 353.335 224.312 353.285 224.19C353.234 224.069 353.208 223.938 353.208 223.806C353.208 223.674 353.234 223.544 353.285 223.422C353.335 223.3 353.41 223.189 353.503 223.096L366.587 210.012C363.543 209.333 360.37 209.515 357.424 210.538C354.478 211.561 351.874 213.384 349.906 215.804C347.938 218.223 346.683 221.143 346.282 224.236C345.881 227.329 346.349 230.473 347.634 233.314H347.652Z"
		stroke="black" stroke-linecap="round" stroke-linejoin="round" />
	<path opacity="0.3" d="M282.341 306.788L292.35 310.072L300.193 303.039L298.037 292.73L288.028 289.445L280.176 296.479L282.341 306.788ZM289.329 295.678L293.296 296.979L294.151 301.055L291.04 303.84L287.082 302.539L286.226 298.462L289.329 295.678Z" stroke="black" stroke-linecap="round" stroke-linejoin="round" />
	<path opacity="0.3"
		d="M329.882 84.6568L362.757 51.8099C365.599 53.0976 368.744 53.5677 371.838 53.1675C374.932 52.7673 377.854 51.5126 380.275 49.5443C382.696 47.5759 384.521 44.9718 385.544 42.0241C386.567 39.0765 386.749 35.902 386.068 32.8569L372.975 45.932C372.882 46.0252 372.773 46.0993 372.652 46.1498C372.531 46.2003 372.401 46.2264 372.27 46.2264C372.138 46.2264 372.009 46.2003 371.888 46.1498C371.766 46.0993 371.657 46.0252 371.564 45.932L360.218 34.613C360.125 34.52 360.05 34.4094 360 34.2876C359.949 34.1658 359.923 34.0352 359.923 33.9033C359.923 33.7713 359.949 33.6407 360 33.5189C360.05 33.3971 360.125 33.2866 360.218 33.1935L373.33 20.1002C370.286 19.4208 367.113 19.6027 364.166 20.6257C361.22 21.6486 358.617 23.4721 356.649 25.8917C354.681 28.3113 353.426 31.2313 353.024 34.3242C352.623 37.4172 353.091 40.5608 354.377 43.4025L321.466 76.2677C318.624 74.9824 315.481 74.5142 312.388 74.9155C309.295 75.3169 306.375 76.5719 303.955 78.5399C301.536 80.5078 299.712 83.1109 298.689 86.0573C297.666 89.0036 297.484 92.1767 298.164 95.2206L311.248 82.1455C311.341 82.052 311.452 81.9778 311.573 81.9271C311.695 81.8765 311.826 81.8504 311.958 81.8504C312.09 81.8504 312.22 81.8765 312.342 81.9271C312.464 81.9778 312.574 82.052 312.667 82.1455L324.014 93.4827C324.107 93.5758 324.181 93.6863 324.232 93.8081C324.283 93.9299 324.309 94.0605 324.309 94.1925C324.309 94.3244 324.283 94.455 324.232 94.5768C324.181 94.6986 324.107 94.8092 324.014 94.9022L310.929 107.977C313.976 108.663 317.154 108.484 320.105 107.462C323.056 106.439 325.663 104.614 327.632 102.19C329.602 99.7665 330.856 96.8413 331.254 93.7438C331.651 90.6462 331.176 87.4992 329.882 84.6568Z"
		stroke="black" stroke-linecap="round" stroke-linejoin="round" />
	<path opacity="0.3" d="M395.167 11.2107L385.158 7.92603L377.315 14.9504L379.472 25.2685L389.48 28.5441L397.324 21.5198L395.167 11.2107ZM388.179 22.3205L384.249 21.0193L383.339 16.9339L386.45 14.2043L390.408 15.4963L391.264 19.5817L388.179 22.3205Z" stroke="black" stroke-linecap="round" stroke-linejoin="round" />
	<path opacity="0.3" d="M413.256 87.0953L403.247 83.8197L395.395 90.844L397.56 101.153L407.569 104.438L415.421 97.4043L413.256 87.0953ZM406.268 98.205L402.301 96.913L401.445 92.8458L404.557 90.0615L408.515 91.3627L409.37 95.4481L406.268 98.205Z" stroke="black" stroke-linecap="round" stroke-linejoin="round" />
	<path opacity="0.3" d="M185.592 40.6183L175.584 37.3336L167.74 44.3671L169.897 54.6761L179.906 57.9608L187.749 50.9274L185.592 40.6183ZM178.614 51.7281L174.647 50.4269L173.791 46.3506L176.903 43.5664L180.861 44.8675L181.716 48.9438L178.614 51.7281Z" stroke="black" stroke-linecap="round" stroke-linejoin="round" />
	<path opacity="0.3" d="M167.531 277.326L157.522 274.041L149.679 281.065L151.845 291.374L161.854 294.659L169.697 287.635L167.531 277.326ZM160.534 288.472L156.576 287.171L155.721 283.085L158.824 280.301L162.782 281.602L163.691 285.688L160.534 288.472Z" stroke="black" stroke-linecap="round" stroke-linejoin="round" />
	<path opacity="0.3" d="M40.447 149.632L30.4382 146.356L22.595 153.381L24.7514 163.69L34.7602 166.974L42.6034 159.941L40.447 149.632ZM33.4499 160.742L29.4919 159.45L28.582 155.364L31.6939 152.58L35.6519 153.881L36.5618 157.967L33.4499 160.742Z" stroke="black" stroke-linecap="round" stroke-linejoin="round" />
	<path opacity="0.3"
		d="M111.855 286.37L144.72 253.496C147.562 254.785 150.707 255.256 153.801 254.856C156.896 254.456 159.817 253.201 162.238 251.232C164.659 249.264 166.482 246.659 167.504 243.71C168.526 240.762 168.706 237.588 168.022 234.543L154.956 247.627C154.863 247.721 154.753 247.795 154.631 247.846C154.509 247.896 154.379 247.922 154.247 247.922C154.115 247.922 153.984 247.896 153.862 247.846C153.741 247.795 153.63 247.721 153.537 247.627L142.218 236.29C142.125 236.197 142.05 236.086 142 235.965C141.949 235.843 141.923 235.712 141.923 235.58C141.923 235.448 141.949 235.318 142 235.196C142.05 235.074 142.125 234.963 142.218 234.87L155.293 221.786C152.249 221.107 149.076 221.289 146.13 222.312C143.183 223.335 140.58 225.158 138.612 227.578C136.644 229.997 135.389 232.917 134.988 236.01C134.587 239.103 135.055 242.247 136.34 245.089L103.475 277.963C100.633 276.678 97.4897 276.209 94.3967 276.611C91.3038 277.012 88.3838 278.267 85.9642 280.235C83.5447 282.203 81.7211 284.806 80.6982 287.752C79.6752 290.699 79.4933 293.872 80.1728 296.916L93.2479 283.832C93.3409 283.738 93.4514 283.664 93.5732 283.613C93.695 283.562 93.8257 283.536 93.9576 283.536C94.0895 283.536 94.2201 283.562 94.3419 283.613C94.4637 283.664 94.5743 283.738 94.6673 283.832L106.004 295.169C106.098 295.262 106.172 295.372 106.223 295.494C106.274 295.616 106.3 295.747 106.3 295.879C106.3 296.01 106.274 296.141 106.223 296.263C106.172 296.385 106.098 296.495 106.004 296.588L92.9021 309.672C95.9461 310.352 99.1191 310.17 102.065 309.147C105.012 308.124 107.615 306.3 109.583 303.881C111.551 301.461 112.806 298.541 113.207 295.448C113.609 292.355 113.14 289.212 111.855 286.37Z"
		stroke="black" stroke-linecap="round" stroke-linejoin="round" />
	<path opacity="0.3" d="M177.158 212.897L167.149 209.612L159.297 216.645L161.462 226.954L171.471 230.239L179.323 223.206L177.158 212.897ZM170.17 224.006L166.203 222.705L165.347 218.629L168.45 215.845L172.417 217.146L173.273 221.222L170.17 224.006Z" stroke="black" stroke-linecap="round" stroke-linejoin="round" />
	<path d="M221.952 234.688H196.811V336.105H221.952V234.688Z" fill="#263238" stroke="#263238" stroke-linecap="round" stroke-linejoin="round" />
	<path d="M374.394 67.3962H57.1526V259.819H374.394V67.3962Z" fill="#263238" stroke="#263238" stroke-linecap="round" stroke-linejoin="round" />
	<path d="M368.007 67.3964H50.7651V259.82H368.007V67.3964Z" fill="#2C96DC" stroke="#263238" stroke-linecap="round" stroke-linejoin="round" />
	<path d="M356.57 74.3297H62.1934V252.886H356.57V74.3297Z" fill="white" stroke="#263238" stroke-linecap="round" stroke-linejoin="round" />
	<path d="M356.57 242.131H62.1934V252.886H356.57V242.131Z" fill="white" stroke="#263238" stroke-linecap="round" stroke-linejoin="round" />
	<path d="M210.76 324.722L117.56 330.745V336.814H301.212V330.745L210.76 324.722Z" fill="#263238" stroke="#263238" stroke-linecap="round" stroke-linejoin="round" />
	<path d="M356.57 74.3297H62.1934V252.886H356.57V74.3297Z" fill="white" stroke="#263238" stroke-linecap="round" stroke-linejoin="round" />
	<path d="M406.877 335.149H5.68018" stroke="#263238" stroke-linecap="round" stroke-linejoin="round" />
	<path d="M427.714 335.149H416.913" stroke="#263238" stroke-linecap="round" stroke-linejoin="round" />
	<path
		d="M348.153 222.805C348.153 222.805 349.663 276.489 350.428 285.833C351.192 295.178 353.467 319.772 353.976 324.331C354.486 328.889 353.467 341.81 353.467 341.81L352.202 343.065L353.212 349.434C353.212 349.434 345.105 354.503 341.056 356.022C337.007 357.542 342.066 359.562 345.605 360.071C349.082 360.654 352.644 360.471 356.042 359.534C360.1 358.524 365.141 356.75 366.96 356.495C368.78 356.24 369.69 353.984 369.69 351.181C369.69 348.379 369.435 348.142 369.69 346.869C369.945 345.595 368.416 340.29 368.161 339.025C367.907 337.761 371.71 309.136 370.955 300.018C370.2 290.901 369.936 278.49 369.936 277.226C369.936 275.961 369.435 262.786 369.435 262.786C369.435 262.786 373.739 291.902 374.249 292.93C374.758 293.959 383.111 336.232 383.348 338.261C383.584 340.29 382.583 342.565 382.838 344.084C383.093 345.604 384.357 350.162 384.357 350.162C384.357 350.162 383.593 357.005 381.318 360.044C379.044 363.083 378.534 365.612 379.799 366.631C381.064 367.65 383.848 367.641 387.142 366.886C390.436 366.131 390.436 366.631 393.511 364.093C396.586 361.554 397.56 354.221 397.56 353.456C397.56 352.692 398.834 350.162 398.834 347.378C398.834 344.594 398.834 345.859 397.815 341.81C396.796 337.761 397.06 322.056 396.805 312.939C396.55 303.822 393.511 285.579 393.511 282.003C393.511 278.427 391.991 225.517 391.991 225.517C391.991 225.517 367.661 232.969 348.153 222.805Z"
		fill="#263238" stroke="#263238" stroke-linecap="round" stroke-linejoin="round" />
	<path
		d="M359.436 351.573C357.181 351.546 354.996 350.786 353.212 349.407C353.212 349.407 345.105 354.475 341.056 355.995C337.007 357.514 342.066 359.534 345.605 360.044C349.08 360.635 352.641 360.462 356.042 359.534C360.1 358.524 365.141 356.75 366.96 356.495C368.78 356.24 369.69 353.984 369.69 351.181C369.69 350.008 369.645 349.289 369.608 348.752C366.797 349.935 362.129 351.691 359.436 351.573Z"
		fill="white" stroke="#263238" stroke-linecap="round" stroke-linejoin="round" />
	<path d="M365.869 353.593C361.274 353.957 355.996 359.534 348.954 358.743C345.878 358.481 342.865 357.728 340.028 356.513C338.126 357.942 342.466 359.598 345.614 360.044C349.086 360.634 352.644 360.46 356.042 359.534C360.1 358.524 365.141 356.75 366.96 356.495C368.243 356.313 369.126 355.058 369.517 353.329C368.616 353.383 367.47 353.465 365.869 353.593Z" fill="white" stroke="#263238"
		stroke-linecap="round" stroke-linejoin="round" />
	<path
		d="M392.337 353.411C390.859 353.427 389.393 353.148 388.024 352.59C386.656 352.033 385.412 351.207 384.367 350.162C384.367 350.162 383.602 357.005 381.328 360.044C379.053 363.083 378.543 365.612 379.808 366.631C381.073 367.65 383.857 367.641 387.151 366.886C390.445 366.131 390.445 366.631 393.52 364.093C396.596 361.554 397.569 354.22 397.569 353.456C397.616 353.07 397.711 352.691 397.851 352.328C396.109 353.07 394.231 353.439 392.337 353.411Z"
		fill="white" stroke="#263238" stroke-linecap="round" stroke-linejoin="round" />
	<path
		d="M393.484 364.093C394.83 362.974 395.786 360.899 396.423 358.87V358.925C395.383 360.595 394.006 362.03 392.379 363.138C390.753 364.245 388.913 365.001 386.978 365.358C384.372 366.071 381.602 365.895 379.108 364.857C379.068 365.185 379.109 365.518 379.226 365.827C379.343 366.136 379.534 366.412 379.781 366.631C381.046 367.641 383.83 367.641 387.124 366.886C390.417 366.131 390.445 366.631 393.484 364.093Z"
		fill="white" stroke="#263238" stroke-linecap="round" stroke-linejoin="round" />
	<path d="M347.571 221.195C347.571 221.195 346.843 224.725 348.308 226.49C349.773 228.256 355.66 232.077 369.636 232.232C383.611 232.386 389.498 229.329 391.527 227.964C393.556 226.6 392.701 220.758 392.701 220.758C386.071 223.562 379.007 225.203 371.819 225.608C360.664 226.054 347.571 221.195 347.571 221.195Z" fill="#2C96DC" stroke="#263238" stroke-linecap="round" stroke-linejoin="round" />
	<path
		d="M359.681 156.665L346.843 149.987C346.843 149.987 331.129 136.229 323.404 131.125C315.679 126.02 309.128 127.722 308.6 134.009C308.072 140.296 334.659 161.115 339.536 165.045C344.413 168.976 345.432 170.941 345.432 170.941C345.432 170.941 346.087 206.036 346.342 211.668C346.597 217.3 346.342 221.095 348.162 222.805C349.982 224.516 358.507 229.738 370.427 229.083C382.346 228.428 387.715 227.264 389.944 225.444C392.173 223.624 393.474 222.041 393.474 218.902C393.474 215.763 396.868 173.826 396.868 173.826C396.868 173.826 420.444 157.721 426.467 152.352C432.49 146.984 432.891 139.387 428.96 138.595C425.029 137.803 415.075 142.662 411.144 145.146C407.214 147.63 394.648 151.561 390.326 152.744C386.004 153.927 381.682 155.228 381.682 155.228C381.682 155.228 370.809 158.23 359.681 156.665Z"
		fill="#2C96DC" stroke="#263238" stroke-linecap="round" stroke-linejoin="round" />
	<path d="M345.405 170.942L341.42 156.52" stroke="#263238" stroke-linecap="round" stroke-linejoin="round" />
	<path d="M343.695 165.773L337.644 152.735" stroke="#263238" stroke-linecap="round" stroke-linejoin="round" />
	<path d="M396.868 173.817L400.199 161.433" stroke="#263238" stroke-linecap="round" stroke-linejoin="round" />
	<path d="M397.933 170.696L402.473 162.562" stroke="#263238" stroke-linecap="round" stroke-linejoin="round" />
	<path d="M328.572 139.132L320.256 143.663" stroke="#263238" stroke-linecap="round" stroke-linejoin="round" />
	<path d="M412.491 149.905L416.459 153.117" stroke="#263238" stroke-linecap="round" stroke-linejoin="round" />
	<path
		d="M360.336 172.006L357.061 193.161C357.044 193.272 357.049 193.385 357.076 193.495C357.103 193.604 357.152 193.706 357.218 193.797C357.285 193.887 357.369 193.964 357.465 194.022C357.562 194.08 357.669 194.118 357.78 194.135C357.891 194.153 358.005 194.148 358.114 194.122C358.224 194.095 358.327 194.047 358.418 193.98C358.508 193.913 358.585 193.829 358.642 193.732C358.7 193.635 358.738 193.527 358.753 193.416L361.774 172.916L360.336 172.006Z"
		fill="white" stroke="#263238" stroke-linecap="round" stroke-linejoin="round" />
	<path d="M373.038 172.771L371.301 193.525C371.288 193.663 371.306 193.802 371.353 193.933C371.4 194.063 371.474 194.182 371.57 194.282C371.667 194.381 371.784 194.458 371.913 194.508C372.043 194.558 372.181 194.58 372.32 194.572C372.557 194.558 372.781 194.458 372.948 194.291C373.116 194.123 373.216 193.899 373.229 193.662L374.622 172.37L373.038 172.771Z" fill="white" stroke="#263238"
		stroke-linecap="round" stroke-linejoin="round" />
	<path
		d="M358.89 155.747C358.89 155.747 354.177 160.988 353.785 163.08C353.394 165.173 357.061 167.793 357.061 167.793C357.061 167.793 355.241 168.321 356.533 169.495C357.825 170.669 365.441 176.574 367.67 176.574C369.899 176.574 372.647 173.034 379.499 171.46C386.35 169.886 391.154 162.816 390.636 159.541C390.618 159.131 390.51 158.731 390.321 158.367C390.131 158.004 389.865 157.686 389.54 157.437C389.215 157.187 388.839 157.011 388.439 156.922C388.039 156.833 387.624 156.832 387.224 156.92C387.224 156.92 388.534 154.045 386.441 152.735C384.348 151.425 379.499 151.425 377.142 151.688C374.786 151.952 364.786 152.471 358.89 155.747Z"
		fill="#2C96DC" stroke="#263238" stroke-linecap="round" stroke-linejoin="round" />
	<path d="M378.653 168.367C377.818 169.047 376.949 169.684 376.05 170.277" stroke="#263238" stroke-linecap="round" stroke-linejoin="round" />
	<path d="M387.178 156.92C387.178 156.92 384.039 162.953 381.719 165.564" stroke="#263238" stroke-linecap="round" stroke-linejoin="round" />
	<path d="M357.061 167.793L360.336 169.631" stroke="#263238" stroke-linecap="round" stroke-linejoin="round" />
	<path
		d="M311.348 139.505C309.91 138.195 306.244 134.528 309.128 130.078C312.012 125.629 316.462 127.194 320.128 127.194C323.795 127.194 350.246 133.609 350.246 133.609C350.246 133.609 355.878 123.918 357.061 122.217C358.244 120.516 362.82 120.397 362.82 120.397C362.82 120.397 363.867 120.788 363.348 122.099C362.83 123.409 361.901 122.754 361.647 125.738C361.392 128.723 359.936 139.487 357.452 140.797C354.968 142.107 348.417 140.533 348.417 140.533L318.682 141.98"
		fill="#BDBDBD" />
	<path
		d="M311.348 139.505C309.91 138.195 306.244 134.528 309.128 130.078C312.012 125.629 316.462 127.194 320.128 127.194C323.795 127.194 350.246 133.609 350.246 133.609C350.246 133.609 355.878 123.918 357.061 122.217C358.244 120.516 362.82 120.397 362.82 120.397C362.82 120.397 363.867 120.788 363.348 122.099C362.83 123.409 361.901 122.754 361.647 125.738C361.392 128.723 359.936 139.487 357.452 140.797C354.968 142.107 348.417 140.533 348.417 140.533L318.682 141.98"
		stroke="#263238" stroke-linecap="round" stroke-linejoin="round" />
	<path d="M318.682 141.98L331.475 141.352C330.752 140.733 330.172 139.966 329.773 139.102C329.374 138.238 329.166 137.299 329.164 136.348C329.214 133.802 330.018 131.329 331.475 129.241C326.197 128.086 321.466 127.158 320.11 127.158C316.471 127.158 311.985 125.584 309.11 130.042C306.234 134.501 309.892 138.158 311.33 139.469" fill="#2C96DC" />
	<path d="M318.682 141.98L331.475 141.352C330.752 140.733 330.172 139.966 329.773 139.102C329.374 138.238 329.166 137.299 329.164 136.348C329.214 133.802 330.018 131.329 331.475 129.241C326.197 128.086 321.466 127.158 320.11 127.158C316.471 127.158 311.985 125.584 309.11 130.042C306.234 134.501 309.892 138.158 311.33 139.469" stroke="#263238" stroke-linecap="round" stroke-linejoin="round" />
	<path
		d="M361.246 121.298C361.246 121.298 355.787 132.171 356.014 133.482C356.242 134.792 356.924 136.366 356.924 136.884C356.924 137.403 354.049 144.091 354.568 145.92C355.086 147.749 357.297 156.274 359.417 159.286C361.537 162.298 362.948 162.298 362.948 162.298C362.948 162.298 361.901 169.495 362.693 171.597C363.485 173.699 366.096 177.056 367.67 176.574C369.244 176.092 377.879 165.965 378.671 162.926C379.462 159.886 380.372 149.559 380.372 149.559C380.372 149.559 381.946 146.684 382.856 145.374C385.703 141.928 387.359 137.654 387.578 133.19C387.833 126.384 381.291 120.097 375.395 118.396C369.499 116.694 363.321 120.143 361.246 121.298Z"
		fill="#BDBDBD" stroke="#263238" stroke-linecap="round" stroke-linejoin="round" />
	<path d="M360.2 138.195C360.2 138.195 357.325 144.564 357.843 144.873C358.488 145.35 359.23 145.678 360.017 145.836C360.803 145.993 361.614 145.975 362.393 145.783C364.877 145.128 364.877 143.818 364.877 143.818" stroke="#263238" stroke-linecap="round" stroke-linejoin="round" />
	<path d="M362.748 151.816C363.112 152.726 362.93 153.708 362.356 153.927C361.783 154.145 361.028 153.554 360.664 152.607C360.3 151.661 360.482 150.715 361.055 150.497C361.628 150.278 362.411 150.87 362.748 151.816Z" fill="#263238" />
	<path d="M362.948 162.298C362.948 162.298 364.913 162.034 366.487 161.643C368.062 161.251 374.349 156.01 374.349 156.01L362.411 169.759L362.948 162.298Z" fill="#263238" stroke="#263238" stroke-linecap="round" stroke-linejoin="round" />
	<path d="M366.878 132.562C366.878 132.562 370.291 130.47 372.119 134.528" stroke="#263238" stroke-linecap="round" stroke-linejoin="round" />
	<path d="M361.383 132.699C360.825 132.304 360.137 132.138 359.46 132.234C358.783 132.331 358.169 132.683 357.743 133.218" stroke="#263238" stroke-linecap="round" stroke-linejoin="round" />
	<path d="M368.98 138.659C368.98 139.414 368.598 140.033 368.125 140.033C367.652 140.033 367.27 139.414 367.27 138.659C367.27 137.904 367.652 137.276 368.125 137.276C368.598 137.276 368.98 137.894 368.98 138.659Z" fill="#263238" />
	<path d="M358.817 139.205C359.249 139.205 359.599 138.643 359.599 137.949C359.599 137.256 359.249 136.693 358.817 136.693C358.385 136.693 358.034 137.256 358.034 137.949C358.034 138.643 358.385 139.205 358.817 139.205Z" fill="#263238" />
	<path
		d="M378.935 148.276C379.444 148.653 379.979 148.993 380.536 149.295C380.964 148.522 382.119 146.457 382.856 145.401C385.703 141.955 387.359 137.682 387.578 133.218C387.833 126.412 381.291 120.124 375.395 118.423C372.195 117.646 368.831 117.904 365.787 119.16C365.959 119.497 366.56 119.879 368.189 120.124C371.728 120.643 375.914 118.942 378.143 120.516C380.372 122.09 381.291 126.803 379.326 128.505C377.36 130.206 373.302 132.954 375.004 135.183C376.213 136.642 377.106 138.337 377.624 140.16C377.624 140.688 376.833 141.207 377.624 141.343C378.416 141.48 379.444 141.734 379.844 140.551C380.245 139.369 382.337 137.54 383.384 139.642C384.43 141.743 383.12 144.191 381.946 145.792C381.123 146.817 380.098 147.663 378.935 148.276Z"
		fill="#263238" stroke="#263238" stroke-linecap="round" stroke-linejoin="round" />
	<path
		d="M421.627 151.688L411.281 151.297C411.281 151.297 380.891 143.827 378.671 142.653C376.451 141.479 376.969 138.104 376.705 137.276C376.442 136.448 375.796 132.954 376.442 132.044C377.088 131.134 382.601 126.93 382.993 126.412C383.384 125.893 382.338 123.4 382.601 122.772C382.865 122.144 383.511 121.981 384.166 122.381C384.556 122.614 384.84 122.989 384.958 123.427C384.958 123.427 386.268 123.682 387.442 125.784C388.616 127.886 388.88 129.578 388.625 130.333C388.37 131.088 389.799 132.69 389.535 133.864C389.011 135.318 388.356 136.722 387.579 138.058C387.579 138.058 412.328 137.012 416.522 137.012C420.717 137.012 430.534 136.484 431.708 138.832C432.882 141.179 431.708 145.246 429.743 148.003"
		fill="#BDBDBD" />
	<path
		d="M421.627 151.688L411.281 151.297C411.281 151.297 380.891 143.827 378.671 142.653C376.451 141.479 376.969 138.104 376.705 137.276C376.442 136.448 375.796 132.954 376.442 132.044C377.088 131.134 382.601 126.93 382.993 126.412C383.384 125.893 382.338 123.4 382.601 122.772C382.865 122.144 383.511 121.981 384.166 122.381C384.556 122.614 384.84 122.989 384.958 123.427C384.958 123.427 386.268 123.682 387.442 125.784C388.616 127.886 388.88 129.578 388.625 130.333C388.37 131.088 389.799 132.69 389.535 133.864C389.011 135.318 388.356 136.722 387.579 138.058C387.579 138.058 412.328 137.012 416.522 137.012C420.717 137.012 430.534 136.484 431.708 138.832C432.882 141.179 431.708 145.246 429.743 148.003"
		stroke="#263238" stroke-linecap="round" stroke-linejoin="round" />
	<path d="M387.578 138.067L383.948 137.613" stroke="#263238" stroke-linecap="round" stroke-linejoin="round" />
	<path d="M384.958 123.4C384.958 123.4 386.596 126.657 386.214 127.604L385.841 128.513" stroke="#263238" stroke-linecap="round" stroke-linejoin="round" />
	<path d="M388.625 130.343C387.879 131.071 387.072 131.735 386.214 132.326" stroke="#263238" stroke-linecap="round" stroke-linejoin="round" />
	<path d="M429.743 148.021C431.708 145.292 432.891 141.206 431.708 138.85C430.525 136.493 420.844 137.03 416.604 137.03C417.098 138.139 417.367 139.334 417.397 140.548C417.427 141.761 417.216 142.968 416.777 144.1C415.612 147.439 412.327 149.759 410.089 151.006L411.281 151.306L421.626 151.697" fill="#2C96DC" />
	<path d="M429.743 148.021C431.708 145.292 432.891 141.206 431.708 138.85C430.525 136.493 420.844 137.03 416.604 137.03C417.098 138.139 417.367 139.334 417.397 140.548C417.427 141.761 417.216 142.968 416.777 144.1C415.612 147.439 412.327 149.759 410.089 151.006L411.281 151.306L421.626 151.697" stroke="#263238" stroke-linecap="round" stroke-linejoin="round" />
	<g opacity="0.3">
		<path
			d="M207.73 117.113C208.577 115.505 209.021 113.716 209.022 111.899C209.022 108.805 207.793 105.838 205.605 103.651C203.418 101.463 200.451 100.234 197.357 100.234C194.263 100.234 191.297 101.463 189.109 103.651C186.921 105.838 185.692 108.805 185.692 111.899C185.697 113.74 186.148 115.553 187.009 117.181C187.87 118.809 189.114 120.203 190.633 121.243C189.127 121.516 187.72 122.179 186.551 123.166C185.382 124.153 184.492 125.43 183.971 126.869C183.449 128.307 183.315 129.857 183.58 131.364C183.846 132.871 184.502 134.282 185.483 135.456C183.561 136.429 181.939 137.905 180.791 139.726C179.642 141.548 179.009 143.648 178.959 145.801C178.959 152.498 185.065 157.939 192.608 157.939C200.151 157.939 206.256 152.48 206.256 145.801C206.251 144.23 205.906 142.678 205.246 141.252C205.689 141.288 206.135 141.306 206.583 141.306C214.39 141.306 220.723 135.847 220.723 129.196C220.669 122.872 215.009 117.631 207.73 117.113Z"
			fill="black" />
		<path d="M182.753 102.263C186.844 102.263 190.16 98.9472 190.16 94.8567C190.16 90.7662 186.844 87.4502 182.753 87.4502C178.663 87.4502 175.347 90.7662 175.347 94.8567C175.347 98.9472 178.663 102.263 182.753 102.263Z" fill="black" />
		<path
			d="M162.79 85.2028C162.346 85.201 161.91 85.3312 161.539 85.5771C161.169 85.823 160.879 86.1733 160.708 86.5838C160.536 86.9943 160.49 87.4465 160.576 87.883C160.662 88.3196 160.875 88.7209 161.189 89.0361C161.503 89.3513 161.903 89.5663 162.34 89.6537C162.776 89.7412 163.228 89.6972 163.639 89.5274C164.05 89.3576 164.402 89.0695 164.649 88.6997C164.897 88.33 165.029 87.8951 165.029 87.4502C165.026 86.8565 164.79 86.2876 164.371 85.8669C163.952 85.4462 163.384 85.2076 162.79 85.2028Z"
			fill="black" />
		<path
			d="M208.103 90.1162C209.347 90.118 210.563 89.7507 211.598 89.061C212.634 88.3712 213.441 87.3899 213.918 86.2412C214.395 85.0925 214.521 83.828 214.28 82.6078C214.038 81.3876 213.44 80.2664 212.561 79.3862C211.682 78.506 210.562 77.9063 209.342 77.663C208.122 77.4196 206.857 77.5436 205.708 78.0192C204.559 78.4948 203.576 79.3007 202.885 80.3348C202.194 81.369 201.825 82.5849 201.825 83.8288C201.824 84.6541 201.985 85.4714 202.3 86.2342C202.615 86.997 203.077 87.6901 203.66 88.2741C204.243 88.858 204.936 89.3213 205.698 89.6374C206.461 89.9535 207.278 90.1162 208.103 90.1162Z"
			fill="black" />
	</g>
	<g opacity="0.3">
		<path
			d="M229.185 40.9823C228.74 40.9823 228.305 41.1144 227.936 41.3617C227.566 41.6091 227.278 41.9606 227.108 42.3718C226.938 42.783 226.894 43.2353 226.982 43.6716C227.069 44.1078 227.284 44.5082 227.599 44.8221C227.914 45.1361 228.316 45.3494 228.752 45.4351C229.189 45.5208 229.641 45.475 230.052 45.3035C230.462 45.132 230.812 44.8425 231.058 44.4717C231.304 44.1009 231.434 43.6655 231.433 43.2206C231.433 42.9259 231.374 42.6341 231.261 42.362C231.148 42.0898 230.983 41.8427 230.774 41.6347C230.565 41.4267 230.317 41.262 230.045 41.1501C229.772 41.0381 229.48 40.9811 229.185 40.9823Z"
			fill="black" />
		<path
			d="M224.381 22.0566C223.085 22.7373 222.019 23.7868 221.319 25.0727C220.619 26.3586 220.316 27.8232 220.448 29.2813C220.579 30.7395 221.141 32.1259 222.06 33.2653C222.979 34.4047 224.216 35.2461 225.613 35.6831C227.011 36.1201 228.506 36.1331 229.911 35.7205C231.316 35.3079 232.567 34.4883 233.506 33.365C234.445 32.2418 235.03 30.8654 235.188 29.4098C235.345 27.9542 235.067 26.4846 234.39 25.1866C233.94 24.3223 233.324 23.5553 232.576 22.9298C231.829 22.3042 230.966 21.8325 230.036 21.5417C229.106 21.2508 228.127 21.1466 227.157 21.235C226.187 21.3233 225.243 21.6026 224.381 22.0566Z"
			fill="black" />
		<path
			d="M274.152 72.8283C274.999 71.221 275.442 69.4316 275.444 67.6147C275.437 65.8415 275.015 64.0946 274.21 62.5144C273.406 60.9342 272.242 59.5646 270.813 58.5158C276.336 55.4495 279.284 49.7354 278.392 44.549C279.1 44.0038 279.683 43.3137 280.103 42.5249C280.523 41.7362 280.769 40.8669 280.826 39.9752C280.883 39.0835 280.749 38.19 280.433 37.3543C280.117 36.5185 279.626 35.7599 278.993 35.1291C278.36 34.4983 277.6 34.0098 276.763 33.6963C275.927 33.3828 275.033 33.2515 274.141 33.3111C273.25 33.3708 272.381 33.6201 271.594 34.0423C270.806 34.4645 270.118 35.05 269.575 35.7595C266.45 35.1135 263.201 35.4635 260.285 36.7604C260.291 34.9448 259.853 33.1552 259.011 31.5467C258.301 30.1893 257.33 28.9851 256.154 28.0029C254.979 27.0207 253.621 26.2797 252.159 25.8222C250.697 25.3646 249.159 25.1996 247.633 25.3364C246.107 25.4733 244.623 25.9093 243.266 26.6197C241.908 27.33 240.704 28.3008 239.722 29.4765C238.74 30.6522 237.999 32.0099 237.541 33.472C236.617 36.4249 236.904 39.6239 238.339 42.3653C239.348 44.2763 240.886 45.8559 242.77 46.9147C242.135 48.0227 241.799 49.2771 241.796 50.5543C241.797 51.3433 241.926 52.1269 242.178 52.8745C240.769 52.5634 239.31 52.556 237.897 52.8529C236.485 53.1498 235.152 53.7441 233.987 54.5962C232.822 55.4484 231.852 56.5388 231.141 57.795C230.431 59.0513 229.996 60.4444 229.866 61.8818C229.735 63.3192 229.913 64.7678 230.386 66.1313C230.859 67.4948 231.617 68.7419 232.61 69.7895C233.603 70.8372 234.807 71.6614 236.143 72.2073C237.479 72.7533 238.916 73.0084 240.359 72.9557C238.943 74.4528 238.015 76.3445 237.699 78.3803C237.382 80.4161 237.691 82.5002 238.584 84.3566C236.712 85.6343 235.321 87.5011 234.632 89.6603C233.942 91.8194 233.994 94.147 234.78 96.2732C235.565 98.3993 237.039 100.202 238.966 101.394C240.894 102.587 243.164 103.101 245.418 102.855C246.145 108.951 251.932 113.701 258.966 113.701C266.5 113.701 272.614 108.241 272.614 101.563C272.607 99.9923 272.266 98.4414 271.613 97.0132C272.05 97.0496 272.496 97.0678 272.951 97.0678C280.758 97.0678 287.081 91.6084 287.081 84.9572C287.063 78.5606 281.358 73.3652 274.152 72.8283Z"
			fill="black" />
		<path
			d="M205.646 29.3267C205.253 29.5359 204.931 29.8573 204.721 30.2499C204.51 30.6426 204.422 31.0888 204.466 31.532C204.509 31.9753 204.684 32.3954 204.967 32.7393C205.25 33.0831 205.629 33.335 206.056 33.4631C206.482 33.5912 206.937 33.5897 207.363 33.4587C207.789 33.3278 208.166 33.0733 208.447 32.7275C208.727 32.3818 208.899 31.9605 208.94 31.517C208.981 31.0735 208.889 30.6278 208.676 30.2366C208.395 29.7144 207.918 29.3252 207.349 29.1546C206.781 28.984 206.169 29.0459 205.646 29.3267Z"
			fill="black" />
		<path
			d="M248.083 12.6939C249.179 12.1135 250.078 11.2217 250.668 10.1309C251.257 9.04016 251.51 7.7993 251.395 6.56479C251.281 5.33028 250.803 4.15741 250.022 3.19405C249.242 2.23069 248.194 1.51998 247.01 1.15154C245.826 0.783099 244.56 0.773422 243.37 1.12372C242.181 1.47403 241.122 2.16863 240.327 3.11994C239.532 4.07126 239.036 5.23669 238.903 6.4693C238.769 7.70191 239.003 8.9465 239.576 10.0461C239.958 10.7807 240.483 11.4323 241.118 11.9634C241.753 12.4945 242.488 12.8946 243.278 13.1408C244.069 13.3869 244.901 13.4741 245.726 13.3974C246.55 13.3207 247.352 13.0816 248.083 12.6939Z"
			fill="black" />
	</g>
	<path
		d="M181.78 124.537C181.78 123.299 181.413 122.089 180.725 121.059C180.037 120.03 179.06 119.228 177.916 118.754C176.772 118.28 175.513 118.156 174.299 118.398C173.084 118.639 171.969 119.235 171.094 120.111C170.218 120.986 169.622 122.102 169.38 123.316C169.139 124.53 169.263 125.789 169.737 126.933C170.21 128.077 171.013 129.054 172.042 129.742C173.072 130.43 174.282 130.797 175.52 130.797C177.18 130.797 178.773 130.138 179.947 128.964C181.121 127.79 181.78 126.198 181.78 124.537Z"
		fill="white" stroke="#263238" stroke-linecap="round" stroke-linejoin="round" />
	<path d="M180.033 120.051L171.48 128.604" stroke="#263238" stroke-linecap="round" stroke-linejoin="round" />
	<path
		d="M239.876 190.541C239.876 189.302 239.509 188.092 238.821 187.063C238.134 186.033 237.156 185.231 236.012 184.757C234.868 184.283 233.61 184.159 232.395 184.401C231.181 184.642 230.065 185.239 229.19 186.114C228.314 186.99 227.718 188.105 227.477 189.319C227.235 190.534 227.359 191.792 227.833 192.936C228.307 194.08 229.109 195.058 230.139 195.746C231.168 196.433 232.378 196.801 233.616 196.801C235.277 196.801 236.869 196.141 238.043 194.967C239.217 193.793 239.876 192.201 239.876 190.541Z"
		fill="#263238" stroke="#263238" stroke-linecap="round" stroke-linejoin="round" />
	<path
		d="M292.24 124.537C292.24 123.299 291.873 122.089 291.185 121.059C290.497 120.03 289.52 119.227 288.376 118.754C287.232 118.28 285.973 118.156 284.759 118.397C283.545 118.639 282.429 119.235 281.554 120.111C280.678 120.986 280.082 122.102 279.841 123.316C279.599 124.53 279.723 125.789 280.197 126.933C280.671 128.077 281.473 129.054 282.502 129.742C283.532 130.43 284.742 130.797 285.98 130.797C287.641 130.797 289.233 130.138 290.407 128.964C291.581 127.79 292.24 126.197 292.24 124.537Z"
		fill="white" stroke="#263238" stroke-linecap="round" stroke-linejoin="round" />
	<path d="M290.494 120.051L281.941 128.604" stroke="#263238" stroke-linecap="round" stroke-linejoin="round" />
	<path d="M207.393 338.352L185.556 345.94C185.198 346.064 184.894 346.307 184.694 346.629C184.493 346.95 184.409 347.33 184.455 347.706C184.508 348.126 184.718 348.511 185.045 348.781C185.371 349.052 185.788 349.188 186.211 349.161L208.64 347.824L207.393 338.352Z" fill="white" stroke="#263238" stroke-linecap="round" stroke-linejoin="round" />
	<path d="M186.248 349.161L189.842 344.748" stroke="#263238" stroke-linecap="round" stroke-linejoin="round" />
	<path d="M190.333 348.843L195.055 343.092" stroke="#263238" stroke-linecap="round" stroke-linejoin="round" />
	<path d="M194.437 348.734L200.924 340.772" stroke="#263238" stroke-linecap="round" stroke-linejoin="round" />
	<path d="M198.74 348.497L206.429 339.08" stroke="#263238" stroke-linecap="round" stroke-linejoin="round" />
	<path
		d="M214.854 342.574C214.705 341.345 214.194 340.188 213.387 339.249C212.58 338.31 211.513 337.631 210.32 337.299C209.128 336.966 207.863 336.995 206.687 337.382C205.511 337.768 204.475 338.494 203.712 339.469C202.948 340.444 202.491 341.623 202.398 342.857C202.304 344.092 202.579 345.326 203.188 346.405C203.796 347.483 204.71 348.357 205.815 348.916C206.92 349.474 208.166 349.693 209.395 349.543C210.211 349.444 211 349.185 211.716 348.781C212.432 348.378 213.061 347.837 213.568 347.189C214.075 346.542 214.45 345.801 214.67 345.009C214.891 344.217 214.953 343.39 214.854 342.574Z"
		fill="white" stroke="#263238" stroke-linecap="round" stroke-linejoin="round" />
	<path d="M212.58 338.325L205.119 347.842" stroke="#263238" stroke-linecap="round" stroke-linejoin="round" />
	<path
		d="M320.984 337.115L318.809 339.844C318.554 339.68 318.3 339.517 318.008 339.362C317.005 338.803 315.965 338.31 314.897 337.888L320.356 336.268L322.467 335.777V335.641V329.644L312.058 331.637L313.878 333.175L313.059 332.938L305.434 335.204C302.231 334.549 303.368 331.992 299.692 331.637L296.617 330.536L283.524 329.954L281.331 330.008C276.781 327.388 272.596 327.079 270.567 333.648L265.508 330.818L259.339 331.728L262.824 329.089L253.798 326.414V332.574L246.855 333.712H235.172V339.872L244.972 341.309C244.631 341.631 244.326 341.988 244.062 342.374L234.799 342.82L232.561 338.998V345.158L234.799 348.97L243.361 348.561V353.72L252.824 356.45L260.503 354.166C263.929 354.849 267.389 355.353 270.867 355.676L269.32 358.834L282.414 359.416L283.979 356.259C287.791 356.259 291.631 356.068 295.379 355.713L300.438 358.542L312.14 356.768L311.23 352.856C312.631 352.437 313.959 352 315.079 351.527L324.833 352.965L330.692 349.507V344.339L333.276 344.221V338.061L320.984 337.115ZM256.8 334.294L258.847 335.44C257.565 335.722 256.363 336.032 255.208 336.35L256.8 334.294ZM298.3 350.672V347.551L294.779 347.651V347.196L291.057 347.769C284.179 347.97 274.825 348.252 274.498 348.252L273.724 349.826C268.201 350.117 263.388 349.771 260.422 348.106C253.879 344.466 258.656 339.972 271.104 338.097C283.551 336.223 298.928 337.661 305.47 341.309C311.348 344.567 308.063 348.525 298.3 350.654V350.672ZM327.835 345.076L324.196 344.658L328.954 344.43L327.835 345.076Z"
		fill="#263238" />
	<path
		d="M322.467 335.641V335.777L320.356 336.268L314.897 337.888C315.965 338.31 317.005 338.803 318.008 339.362C318.3 339.517 318.554 339.68 318.809 339.844L320.984 337.115L333.276 338.061V344.221L330.692 344.339V349.507L324.833 352.965L315.079 351.527C313.959 352 312.631 352.437 311.23 352.856L312.14 356.768L300.438 358.542L295.379 355.713C291.631 356.068 287.791 356.259 283.979 356.259L282.414 359.416L269.32 358.834L270.867 355.676C267.389 355.353 263.929 354.849 260.503 354.166L252.824 356.45L243.361 353.72V348.561L234.799 348.97L232.561 345.158V338.998L234.799 342.82L244.062 342.374C244.326 341.988 244.631 341.631 244.972 341.309L235.172 339.872V333.712H246.855L253.798 332.574V326.414L262.824 329.089L259.339 331.728L265.508 330.818L270.567 333.648C272.596 327.079 276.781 327.388 281.331 330.008L283.524 329.954L296.617 330.536L299.692 331.637C303.368 331.992 302.231 334.549 305.434 335.204L313.059 332.938L313.878 333.175L312.058 331.637L322.467 329.644V335.641ZM322.467 335.641H322.512M256.8 334.294L258.847 335.44C257.565 335.722 256.363 336.032 255.208 336.35L256.8 334.294ZM298.3 350.672V347.551L294.779 347.651V347.196L291.057 347.769C284.179 347.97 274.825 348.252 274.498 348.252L273.724 349.826C268.201 350.117 263.388 349.771 260.422 348.106C253.879 344.466 258.656 339.972 271.104 338.097C283.551 336.223 298.928 337.661 305.47 341.309C311.348 344.567 308.063 348.525 298.3 350.654V350.672ZM327.835 345.076L324.196 344.658L328.954 344.43L327.835 345.076Z"
		stroke="#263238" stroke-linecap="round" stroke-linejoin="round" />
	<path d="M296.59 324.385L293.596 328.971L296.59 328.234V324.385Z" fill="#263238" stroke="#263238" stroke-linecap="round" stroke-linejoin="round" />
	<path
		d="M294.779 345.14C282.341 347.023 266.955 345.586 260.422 341.937C253.889 338.288 258.656 333.793 271.104 331.928C283.551 330.063 298.928 331.482 305.47 335.131C312.012 338.78 307.226 343.265 294.779 345.14ZM265.481 324.667L253.77 326.487L258.848 329.326C256.099 329.906 253.403 330.709 250.786 331.728L241.032 330.299L235.172 333.748L244.972 335.185C244.482 335.599 244.084 336.109 243.8 336.683C243.517 337.258 243.355 337.885 243.325 338.525L232.588 339.034L234.826 342.856L245.59 342.337C246.303 342.918 247.068 343.433 247.874 343.875C248.878 344.431 249.918 344.92 250.986 345.34L243.389 347.596L252.851 350.326L260.476 348.06C263.909 348.74 267.374 349.244 270.858 349.571L269.293 352.719L282.386 353.301L283.951 350.153C287.764 350.153 291.603 349.953 295.352 349.598L300.411 352.428L312.112 350.663L307.035 347.824C309.782 347.239 312.478 346.436 315.097 345.422L324.851 346.85L330.711 343.402L320.911 341.964C321.4 341.55 321.798 341.04 322.082 340.466C322.365 339.891 322.527 339.265 322.558 338.625L333.295 338.106L331.056 334.294L320.292 334.803C319.579 334.225 318.815 333.714 318.008 333.275C317.003 332.719 315.964 332.227 314.897 331.801L322.503 329.544L313.031 326.815L305.407 329.08C301.975 328.396 298.509 327.892 295.025 327.57L296.59 324.422L283.496 323.83L281.931 326.987C278.119 326.987 274.279 327.188 270.54 327.533L265.481 324.704"
		fill="#BDBDBD" />
	<path
		d="M265.481 324.667L253.77 326.487L258.848 329.326C256.099 329.906 253.403 330.709 250.786 331.728L241.032 330.299L235.172 333.748L244.972 335.185C244.482 335.599 244.084 336.109 243.8 336.683C243.517 337.258 243.355 337.885 243.325 338.525L232.588 339.034L234.826 342.856L245.59 342.337C246.303 342.918 247.068 343.433 247.874 343.875C248.878 344.431 249.918 344.92 250.986 345.34L243.389 347.596L252.851 350.326L260.476 348.06C263.909 348.74 267.374 349.244 270.858 349.571L269.293 352.719L282.386 353.301L283.951 350.153C287.764 350.153 291.603 349.953 295.352 349.598L300.411 352.428L312.112 350.663L307.035 347.824C309.782 347.239 312.478 346.436 315.097 345.422L324.851 346.85L330.711 343.402L320.911 341.964C321.4 341.55 321.798 341.04 322.082 340.466C322.365 339.891 322.527 339.265 322.558 338.625L333.295 338.106L331.056 334.294L320.292 334.803C319.579 334.225 318.815 333.714 318.008 333.275C317.003 332.719 315.964 332.227 314.897 331.801L322.503 329.544L313.031 326.815L305.407 329.08C301.975 328.396 298.509 327.892 295.025 327.57L296.59 324.422L283.496 323.83L281.931 326.987C278.119 326.987 274.279 327.188 270.54 327.533L265.481 324.704M294.779 345.14C282.341 347.023 266.955 345.586 260.422 341.937C253.889 338.288 258.656 333.793 271.104 331.928C283.551 330.063 298.928 331.482 305.47 335.131C312.012 338.78 307.226 343.265 294.779 345.14Z"
		stroke="#263238" stroke-linecap="round" stroke-linejoin="round" />
	<path
		d="M210.232 187.593C210.229 186 210.111 184.409 209.877 182.834L218.266 180.104L219.413 177.374L217.593 177.911L215 169.922L206.584 172.652C205.119 169.877 203.258 167.33 201.06 165.091L206.247 157.948L207.393 155.219L205.574 157.457L197.594 151.661L192.389 158.822C189.575 157.429 186.57 156.46 183.472 155.947V147.121H174.519L173.828 144.391L172.69 147.121V155.974C169.594 156.5 166.592 157.481 163.782 158.886L158.596 151.716L152.764 155.956L151.062 155.273L150.88 155.719L149.916 158.021L155.129 165.182C152.949 167.432 151.11 169.988 149.67 172.77L144.038 170.951L142.418 167.311L141.272 170.041L137.96 180.231L146.376 182.961C146.153 184.489 146.041 186.03 146.04 187.574C146.042 189.167 146.161 190.757 146.394 192.333L141.845 193.816L139.17 192.315L138.032 195.044L141.308 205.272L149.725 202.542C151.19 205.321 153.054 207.872 155.257 210.112L152.027 214.543H151.208L150.061 217.273L158.732 223.579L163.937 216.418C166.753 217.806 169.757 218.775 172.854 219.293V228.119H183.572L184.719 225.389H183.572V219.275C186.669 218.75 189.671 217.768 192.48 216.363L197.667 223.497L206.347 217.2L207.484 214.471L205.164 215.59L201.142 210.049C203.322 207.798 205.161 205.242 206.602 202.46L215 205.19L218.312 194.999L209.895 192.269C210.121 190.721 210.234 189.158 210.232 187.593ZM178.122 208.22C174.042 208.221 170.053 207.013 166.66 204.748C163.267 202.482 160.621 199.261 159.059 195.492C157.496 191.724 157.086 187.576 157.881 183.574C158.676 179.572 160.64 175.896 163.524 173.01C166.409 170.124 170.084 168.159 174.086 167.362C178.087 166.566 182.235 166.974 186.005 168.535C189.774 170.096 192.996 172.739 195.263 176.132C197.53 179.524 198.74 183.512 198.74 187.593C198.74 193.062 196.568 198.307 192.702 202.175C188.836 206.043 183.591 208.217 178.122 208.22Z"
		fill="#263238" stroke="#263238" stroke-linecap="round" stroke-linejoin="round" />
	<path
		d="M216.146 202.396L219.458 192.197L211.042 189.467C211.257 187.936 211.367 186.391 211.37 184.845C211.37 183.255 211.254 181.668 211.024 180.095L219.413 177.365L216.101 167.166L207.685 169.895C206.219 167.116 204.355 164.566 202.152 162.325L207.348 155.182L198.631 148.895L193.436 156.047C190.618 154.657 187.61 153.692 184.51 153.181V144.355H173.828V153.208C170.731 153.734 167.729 154.715 164.92 156.119L159.733 148.977L151.062 155.273L156.267 162.443C154.09 164.696 152.251 167.252 150.807 170.032L142.418 167.302L139.07 177.465L147.486 180.195C147.264 181.723 147.151 183.264 147.15 184.808C147.147 186.401 147.266 187.992 147.504 189.567L139.106 192.297L142.427 202.496L150.844 199.767C152.301 202.546 154.162 205.095 156.367 207.328L151.18 214.48L159.852 220.776L165.056 213.615C167.869 215.013 170.874 215.982 173.973 216.491V225.316H184.692V216.463C187.788 215.937 190.79 214.956 193.599 213.552L198.786 220.694L207.457 214.389L202.271 207.255C204.45 205.005 206.29 202.449 207.73 199.667L216.146 202.396ZM158.642 184.845C158.642 180.765 159.852 176.776 162.118 173.384C164.385 169.992 167.607 167.348 171.377 165.787C175.147 164.226 179.295 163.818 183.296 164.614C187.298 165.411 190.973 167.377 193.858 170.262C196.742 173.148 198.706 176.824 199.501 180.826C200.296 184.828 199.886 188.976 198.323 192.745C196.76 196.514 194.115 199.734 190.722 202C187.329 204.265 183.34 205.474 179.26 205.472C176.551 205.472 173.869 204.938 171.367 203.902C168.865 202.865 166.592 201.345 164.677 199.43C162.763 197.514 161.244 195.24 160.208 192.738C159.173 190.235 158.64 187.553 158.642 184.845Z"
		fill="#BDBDBD" stroke="#263238" stroke-linecap="round" stroke-linejoin="round" />
	<path
		d="M266.118 130.561C266.12 128.968 266.001 127.377 265.763 125.802L274.161 123.072L275.298 120.343L273.479 120.879L270.849 112.863L262.433 115.593C260.965 112.818 259.101 110.271 256.9 108.032L262.096 100.889L263.233 98.1596L261.414 100.398L253.434 94.6019L248.238 101.763C245.421 100.37 242.413 99.4016 239.312 98.8875V90.0616H230.423L229.74 87.3319L228.594 90.0616V98.9148C225.497 99.4407 222.495 100.422 219.686 101.826L214.5 94.6838L208.64 98.9239L206.948 98.2506L206.757 98.6873L205.81 101.035L211.015 108.196C208.833 110.447 206.993 113.007 205.555 115.793L199.923 113.973L198.304 110.334L197.166 113.064L193.854 123.254L202.271 125.984C202.048 127.512 201.936 129.053 201.934 130.597C201.932 132.19 202.051 133.781 202.289 135.356L197.74 136.839L194.992 135.301L193.845 138.031L197.157 148.222L205.583 145.492C207.044 148.269 208.905 150.816 211.106 153.053L207.885 157.493H207.057L205.91 160.178L214.582 166.483L219.777 159.322C222.595 160.715 225.602 161.683 228.703 162.198V171.096H239.422L240.568 168.367H239.422V162.252C242.518 161.726 245.52 160.745 248.329 159.34L253.516 166.483L262.187 160.178L263.333 157.448L261.004 158.558L256.982 153.026C259.164 150.774 261.004 148.214 262.442 145.428L270.84 148.158L274.152 137.967L265.726 135.238C265.97 133.69 266.101 132.127 266.118 130.561ZM234.008 151.188C229.928 151.188 225.94 149.978 222.548 147.712C219.156 145.445 216.512 142.223 214.951 138.454C213.389 134.685 212.981 130.538 213.777 126.537C214.573 122.535 216.537 118.86 219.422 115.975C222.307 113.09 225.982 111.126 229.984 110.33C233.985 109.534 238.132 109.942 241.901 111.504C245.67 113.065 248.892 115.709 251.159 119.101C253.425 122.493 254.635 126.481 254.635 130.561C254.635 136.031 252.462 141.278 248.593 145.146C244.725 149.015 239.478 151.188 234.008 151.188Z"
		fill="#263238" stroke="#263238" stroke-linecap="round" stroke-linejoin="round" />
	<path
		d="M272.032 145.365L275.344 135.165L266.927 132.435C267.15 130.907 267.263 129.366 267.264 127.822C267.262 126.229 267.143 124.639 266.909 123.063L275.298 120.334L271.986 110.134L263.57 112.863C262.113 110.084 260.252 107.536 258.047 105.302L263.233 98.1505L254.562 91.8541L249.358 99.0149C246.545 97.6186 243.539 96.6495 240.441 96.1396V87.3137H229.722V96.1669C226.626 96.6929 223.624 97.6741 220.814 99.0786L215.628 91.936L206.957 98.2415L212.161 105.402C209.981 107.652 208.142 110.209 206.702 112.991L198.304 110.261L194.992 120.47L203.408 123.2C203.185 124.73 203.073 126.275 203.072 127.822C203.074 129.412 203.193 130.999 203.426 132.572L195.037 135.301L198.349 145.501L206.766 142.771C208.231 145.551 210.095 148.101 212.298 150.342L207.066 157.448L215.737 163.817L220.942 156.665C223.757 158.053 226.762 159.019 229.859 159.532V168.357H240.586V159.513C243.681 158.985 246.679 158.001 249.485 156.593L254.68 163.735L263.352 157.439L258.147 150.269C260.324 148.017 262.163 145.461 263.606 142.68L272.032 145.365ZM214.527 127.822C214.525 123.742 215.733 119.753 217.999 116.36C220.264 112.966 223.485 110.321 227.254 108.758C231.023 107.196 235.171 106.786 239.173 107.581C243.175 108.376 246.851 110.34 249.737 113.224C252.622 116.108 254.588 119.784 255.384 123.785C256.181 127.787 255.773 131.935 254.212 135.704C252.651 139.474 250.007 142.696 246.615 144.963C243.223 147.23 239.234 148.44 235.154 148.44C229.685 148.44 224.44 146.268 220.572 142.402C216.704 138.535 214.529 133.291 214.527 127.822Z"
		fill="#BDBDBD" stroke="#263238" stroke-linecap="round" stroke-linejoin="round" />
	<path opacity="0.2" d="M255.253 198.657H255.335L256.709 197.41L255.253 198.657Z" fill="black" />
	<path opacity="0.2" d="M253.698 202.942L253.261 203.17C253.279 203.288 253.361 203.297 253.698 202.942Z" fill="black" />
	<path opacity="0.2" d="M254.453 201.368C254.58 201.205 253.543 202.278 253.197 202.715C253.543 202.551 254.525 201.632 254.453 201.368Z" fill="black" />
	<path opacity="0.2"
		d="M252.087 205.272L255.936 204.025C256.227 203.734 256.382 203.479 256.173 203.334C255.517 204.243 255.599 203.661 255.126 203.998V204.08C255.008 204.162 254.653 204.407 254.79 204.162C255.725 203.622 256.619 203.013 257.465 202.342C257.082 202.542 257.574 201.787 257.592 201.65C258.32 201.059 257.783 201.823 257.865 201.996C258.229 201.659 259.03 201.332 259.093 200.822C259.403 200.149 258.293 201.232 257.974 201.232L260.231 199.567H260.121C260.417 199.446 260.671 199.24 260.849 198.975C260.895 198.639 260.404 199.057 260.149 199.394C260.959 198.138 262.442 198.074 262.878 196.746L262.533 196.964C262.66 196.791 262.778 196.719 262.888 196.719L263.588 196.282C263.588 196.191 263.588 196.018 263.506 196.1L264.207 195.691C265.399 194.781 264.207 195.09 264.462 194.671L264.407 194.726C264.68 194.353 264.789 193.971 264.525 194.162L265.826 193.252C265.681 193.252 265.563 193.252 265.535 193.161L265.826 193.252C266.527 193.088 268.21 191.532 268.674 192.033C268.72 191.974 268.762 191.914 268.802 191.851C268.802 191.76 268.756 191.66 268.738 191.56C268.63 191.674 268.507 191.775 268.374 191.86L268.738 191.56C268.533 190.497 268.411 189.42 268.374 188.339C268.074 188.584 267.856 188.803 267.846 188.966L267.974 188.894L267.928 189.148C267.898 189.129 267.875 189.102 267.86 189.07C267.846 189.037 267.841 189.001 267.846 188.966C266.982 189.485 266.354 190.34 265.672 190.786L265.854 191.041C265.459 191.269 265.098 191.551 264.78 191.878C264.78 191.878 264.88 191.878 264.971 191.878L265.472 191.487C265.345 191.662 265.172 191.797 264.971 191.878C263.852 192.774 262.786 193.734 261.777 194.753C261.978 194.844 262.069 194.935 262.687 194.435C262.005 195.527 260.058 196.509 258.793 197.938H258.993L258.083 198.511C258.311 198.429 258.284 198.602 258.384 198.693C257.128 200.031 255.517 201.623 254.416 201.86C254.881 201.605 254.089 202.706 255.017 202.123C253.919 202.884 252.893 203.743 251.951 204.689L252.087 205.272ZM259.212 199.894L260.058 199.23L259.193 200.067L259.212 199.894ZM257.019 201.905L256.273 202.651L255.809 202.897L257.019 201.905Z"
		fill="black" />
	<path opacity="0.2" d="M253.225 203.206C253.225 203.033 253.461 202.56 252.861 203.388L253.225 203.206Z" fill="black" />
	<path opacity="0.2" d="M253.306 200.413L254.817 199.503L254.253 199.749L255.163 199.084C254.89 198.993 253.852 199.567 253.306 200.413Z" fill="black" />
	<path opacity="0.2" d="M254.134 200.34C253.964 200.429 253.807 200.542 253.67 200.677C253.813 200.549 253.969 200.437 254.134 200.34Z" fill="black" />
	<path opacity="0.2" d="M254.134 200.34C254.325 200.286 254.08 200.695 254.68 200.276C254.671 200.104 254.425 200.213 254.134 200.34Z" fill="black" />
	<path opacity="0.2" d="M284.707 223.36L285.171 222.65C284.497 222.614 284.807 223.005 284.707 223.36Z" fill="black" />
	<path opacity="0.2" d="M255.672 198.675L255.335 198.657L255.244 198.739L255.672 198.675Z" fill="black" />
	<path opacity="0.2" d="M292.522 164.236C292.896 164.081 293.478 164.063 293.678 163.326C292.977 163.38 293.123 163.899 292.522 164.236Z" fill="black" />
	<path opacity="0.2" d="M284.561 223.597C284.634 223.535 284.685 223.453 284.707 223.36L284.561 223.597Z" fill="black" />
	<path opacity="0.2" d="M297.381 156.629H297.236C297.099 156.875 297.036 157.075 297.108 157.102C297.159 156.924 297.253 156.762 297.381 156.629Z" fill="black" />
	<path opacity="0.2"
		d="M293.523 166.547H293.305C294.606 165.637 295.616 163.772 296.744 162.525C296.744 162.689 295.762 163.517 296.162 163.699L297.745 162.279C297.745 162.116 298.391 161.442 297.827 161.688C297.627 161.854 297.455 162.05 297.317 162.27L297.363 161.934C298.928 160.687 297.718 162.452 298.009 162.707C298.655 161.87 299.192 161.879 299.692 161.379C299.647 160.869 298.418 162.043 298.782 161.106C299.503 160.195 300.442 159.482 301.512 159.031C301.546 158.741 301.649 158.463 301.812 158.221C301.403 158.039 300.984 157.867 300.566 157.703C298.255 159.832 295.589 161.288 293.796 164.117H293.896L291.904 165.446C291.64 165.783 291.813 166.128 291.403 166.711C291.403 166.438 291.094 166.711 290.739 167.075C291.412 167.138 292.067 167.229 292.713 167.348C292.923 167.026 293.199 166.753 293.523 166.547Z"
		fill="black" />
	<path opacity="0.2" d="M258.393 196.846C258.647 196.509 258.338 196.418 259.039 196C259.112 196.264 259.721 196.446 260.394 195.518C259.655 195.679 258.955 195.988 258.338 196.427L258.393 196.846Z" fill="black" />
	<path opacity="0.2" d="M260.331 196.073L261.241 194.935C260.322 195.127 260.595 195.563 260.331 196.073Z" fill="black" />
	<path opacity="0.2" d="M260.331 196.073L260.049 196.446C260.166 196.341 260.262 196.214 260.331 196.073Z" fill="black" />
	<path opacity="0.2" d="M268.529 184.5H268.539V184.49L268.529 184.5Z" fill="black" />
	<path opacity="0.2" d="M314.396 168.066L314.205 167.83C314.069 167.948 313.932 168.075 313.787 168.221C313.805 168.439 314.123 168.257 314.396 168.066Z" fill="black" />
	<path opacity="0.2" d="M304.551 201.241C304.888 200.713 305.306 200.831 305.598 200.54C305.516 200.304 305.261 200.413 305.061 200.431C304.87 200.668 304.688 200.895 304.488 201.122C304.496 201.168 304.518 201.209 304.551 201.241Z" fill="black" />
	<path opacity="0.2" d="M305.561 200.276C305.561 200.085 305.898 199.758 306.171 199.366C305.752 199.303 305.379 200.213 305.561 200.276Z" fill="black" />
	<path opacity="0.2" d="M300.239 207.428C299.938 207.592 299.192 207.501 298.956 208.183L299.411 207.947L299.347 208.047L299.602 208.12C299.065 207.783 300.02 207.619 300.239 207.428Z" fill="black" />
	<path opacity="0.2" d="M307.936 175.791L307.527 176.383L307.891 176.046L307.936 175.791Z" fill="black" />
	<path opacity="0.2"
		d="M269.284 193.844C268.965 194.172 268.621 194.476 268.256 194.753L268.429 195.017C268.035 195.244 267.674 195.522 267.355 195.845C267.385 195.859 267.418 195.865 267.45 195.865C267.483 195.865 267.516 195.859 267.546 195.845L268.055 195.445C267.925 195.622 267.749 195.761 267.546 195.845C266.445 196.736 265.394 197.687 264.398 198.693C264.598 198.784 264.698 198.875 265.308 198.375C264.625 199.467 262.669 200.449 261.404 201.878H261.614L260.704 202.451C260.931 202.378 260.904 202.551 260.995 202.633L260.749 202.888C262.178 205.519 263.967 207.938 266.063 210.076L260.876 217.219L269.548 223.524L274.743 216.363C277.563 217.751 280.57 218.72 283.669 219.238V221.322C283.76 221.255 283.834 221.167 283.884 221.066C283.935 220.965 283.961 220.853 283.96 220.74L283.733 220.84C283.806 220.731 283.878 220.694 283.96 220.713L284.424 220.512C284.424 220.44 284.424 220.312 284.324 220.349L284.788 220.176C285.544 219.703 284.643 219.693 284.788 219.42C284.925 219.184 284.934 218.911 284.788 219.002L285.625 218.556C285.576 218.557 285.528 218.545 285.484 218.521C285.441 218.497 285.405 218.462 285.38 218.42L285.625 218.556C286.144 218.556 287.154 217.692 287.627 218.183C287.755 217.974 287.809 217.755 287.627 217.755C287.553 217.842 287.459 217.91 287.354 217.956L287.627 217.755C288.137 217.31 287.145 217.492 287.982 216.8C287.891 216.709 287.827 216.8 287.673 216.9C287.864 216.691 287.973 216.636 288.064 216.654C287.997 216.588 287.952 216.502 287.937 216.409C288.119 216.591 288.401 216.227 288.528 216.017H287.955C288.111 216.01 288.262 215.963 288.394 215.88C288.527 215.797 288.635 215.681 288.71 215.544H288.301C288.892 215.089 288.755 215.927 289.21 215.126L288.828 215.89C289.556 215.29 289.738 215.89 290.193 215.772C291.203 215.381 291.503 213.952 292.65 214.043C292.531 213.761 292.377 213.779 292.404 213.415C292.226 213.577 292.015 213.699 291.786 213.773C291.557 213.847 291.315 213.871 291.076 213.843C289.929 214.398 291.613 214.807 290.211 215.28C290.011 214.98 290.293 214.68 290.684 214.543C290.484 214.298 290.02 214.48 289.711 214.543C290.366 214.125 290.866 213.079 291.23 212.724H291.185H291.267C291.652 212.653 292.001 212.454 292.259 212.16C292.259 212.16 292.259 212.078 292.259 211.978C292.277 212.005 292.286 212.036 292.286 212.069C292.286 212.101 292.277 212.133 292.259 212.16C292.395 212.36 293.36 211.641 293.441 212.241C294.106 211.75 293.323 211.404 294.278 211.241C293.778 211.159 294.451 210.658 293.96 210.649C294.015 211.095 292.986 211.304 292.513 211.423L293.196 210.431C293.068 210.713 293.541 210.595 293.696 210.513L293.569 210.167C294.278 210.613 294.624 208.283 295.716 208.529C295.416 208.757 295.389 209.184 294.961 209.002C294.642 209.657 295.498 209.339 295.47 209.767C296.462 209.239 297.236 207.71 298.482 207.319C298.155 207.319 297.8 207.692 297.527 207.483C298 206.746 299.274 206.573 300.184 206.063L299.756 205.881C300.611 205.554 299.874 205.536 300.611 204.971C300.611 205.035 300.611 205.235 300.793 205.081C301.294 204.544 300.593 204.78 300.857 204.362C301.394 204.271 301.412 204.125 301.412 203.925C298.789 205.925 295.723 207.267 292.474 207.837C289.225 208.407 285.886 208.189 282.738 207.201C279.59 206.213 276.726 204.485 274.385 202.161C272.043 199.836 270.294 196.984 269.284 193.844ZM299.41 205.49C299.774 205.708 298.955 206.291 298.828 206.564C298.6 206.091 299.501 206.163 299.41 205.517V205.49Z"
		fill="black" />
	<path opacity="0.2" d="M314.405 169.276C314.461 169.189 314.503 169.094 314.533 168.994C314.424 169.131 314.396 169.213 314.405 169.276Z" fill="black" />
	<path opacity="0.2" d="M314.605 169.404C314.725 169.4 314.839 169.352 314.924 169.267C314.807 169.282 314.696 169.329 314.605 169.404Z" fill="black" />
	<path opacity="0.2" d="M314.606 169.404C314.497 169.404 314.424 169.404 314.406 169.286C313.741 170.258 312.965 171.15 312.095 171.943C311.931 172.37 313.004 171.706 313.323 171.542C312.204 171.178 314.306 170.632 314.642 169.777C314.415 169.859 314.033 170.277 313.823 170.268C314.019 169.927 314.286 169.632 314.606 169.404Z" fill="black" />
	<path opacity="0.2" d="M284.634 222.96C284.301 222.963 283.969 222.996 283.642 223.06C283.692 223.155 283.769 223.233 283.863 223.284C283.958 223.335 284.065 223.356 284.172 223.346C284.279 223.335 284.38 223.292 284.462 223.224C284.544 223.155 284.604 223.063 284.634 222.96Z" fill="black" />
	<path opacity="0.2"
		d="M312.604 169.822L314.078 168.403C313.705 168.048 313.468 168.985 313.031 169.067C313.095 168.585 313.668 168.157 314.151 167.757C313.421 166.826 312.643 165.933 311.821 165.082L317.008 157.939L310.766 153.39C310.229 153.899 309.61 154.6 308.946 155.128L309.137 155.301L308.427 155.801L308.755 155.719C308.145 156.302 307.126 156.711 306.589 157.539C306.972 157.039 307.372 157.221 307.454 157.393L305.325 158.886C305.407 159.059 304.651 159.896 305.325 159.486L304.415 159.977L304.615 160.068C302.049 163.171 298.546 164.554 296.362 168.012H296.462L296.098 168.257C300.335 169.847 303.934 172.781 306.344 176.61C307.34 175.965 308.256 175.205 309.073 174.345C308.864 174.345 308.491 174.672 308.391 174.672C309.474 173.762 311.385 173.107 311.639 172.006C311.021 172.316 310.293 172.698 309.628 173.062C309.535 173.165 309.41 173.235 309.274 173.262C308.855 173.498 308.464 173.717 308.173 173.899C308.709 173.162 308.973 173.316 309.274 173.262L309.628 173.062C309.819 172.867 309.975 172.643 310.092 172.397L309.537 172.561C310.675 171.297 310.884 172.079 311.794 171.651L312.258 170.641C312.932 169.767 313.733 168.997 314.633 168.358L314.424 168.103C313.878 168.694 313.186 169.613 312.604 169.822Z"
		fill="black" />
	<path opacity="0.2" d="M294.688 212.205L294.506 212.36C294.579 212.325 294.642 212.272 294.688 212.205Z" fill="black" />
	<path opacity="0.2" d="M294.169 212.423C294.324 212.623 294.342 212.532 294.524 212.36C294.251 212.487 293.997 212.187 293.796 212.696C293.933 212.678 293.987 212.442 294.169 212.423Z" fill="black" />
	<path opacity="0.2" d="M295.516 211.068C295.352 210.467 294.606 211.322 294.379 211.741C294.615 211.686 295.079 210.822 295.516 211.068Z" fill="black" />
	<path opacity="0.2" d="M294.479 210.658L294.524 210.977L294.806 210.622L294.479 210.658Z" fill="black" />
	<path opacity="0.2" d="M297.582 207.674L298.046 207.428L298.036 207.364L297.582 207.61V207.674Z" fill="black" />
	<path opacity="0.2" d="M297.236 211.186C296.79 210.877 297.054 211.632 296.508 211.787C296.69 211.968 297.127 211.595 297.372 211.595C297.509 211.386 297.117 211.459 296.945 211.413C297.02 211.313 297.12 211.235 297.236 211.186Z" fill="black" />
	<path opacity="0.2" d="M296.035 212.951L295.871 213.097C295.943 213.071 296.001 213.019 296.035 212.951Z" fill="black" />
	<path opacity="0.2" d="M296.035 212.951L296.308 212.724C296.107 212.578 296.126 212.787 296.035 212.951Z" fill="black" />
	<path opacity="0.2" d="M293.132 162.625L293.505 162.207C293.105 162.798 294.415 161.879 293.76 162.725C293.496 163.062 294.443 162.398 294.716 161.97C294.515 161.879 293.878 162.634 293.933 162.216L294.197 161.879C293.806 162.389 293.569 161.779 293.132 162.625Z" fill="black" />
	<path opacity="0.2" d="M313.805 194.335C313.578 194.462 313.496 194.435 313.386 194.845C313.614 194.754 313.823 194.462 313.805 194.335Z" fill="black" />
	<path opacity="0.2" d="M307.581 198.393C307.509 198.393 307.008 198.975 306.826 198.802L306.963 199.212C307.163 198.893 307.645 198.848 307.581 199.012C307.618 198.62 307.927 198.529 307.581 198.393Z" fill="black" />
	<path opacity="0.2" d="M310.848 194.753C310.648 195.063 309.938 195.108 310.138 195.545L310.811 195.117C310.793 194.908 311.102 194.817 310.848 194.753Z" fill="black" />
	<path opacity="0.2"
		d="M321.038 187.593C321.04 186 320.922 184.409 320.684 182.834L329.082 180.104L325.77 169.913L317.353 172.643C316.871 171.733 316.343 170.878 315.788 170.023C315.524 170.35 315.192 170.617 314.815 170.805C314.815 170.969 315.179 170.55 315.024 170.896C313.204 172.652 310.184 174.972 308.255 177.329C307.982 177.193 307.563 177.402 307.063 177.766C308.875 181.094 309.735 184.858 309.547 188.643C309.359 192.428 308.131 196.088 305.998 199.221C306.177 199.133 306.372 199.08 306.571 199.066C306.353 198.002 308.127 197.247 307.645 196.755C307.645 196.819 307.991 196.846 308.118 196.573H307.818C308.191 195.745 308.855 196.428 309.119 195.945C309.019 195.863 308.873 195.945 308.7 195.891C309.392 194.981 310.566 195.236 311.075 194.135C310.984 194.135 310.902 194.089 310.839 194.189C310.775 194.289 310.893 194.025 311.284 193.88L311.184 194.353C312.185 194.508 312.094 192.979 312.886 192.47C312.713 192.47 312.213 192.906 312.322 192.47C312.749 192.033 313.323 192.697 313.541 191.878C313.241 192.042 313.022 191.687 312.74 191.878C312.674 191.966 312.598 192.045 312.513 192.115C312.569 192.019 312.647 191.938 312.74 191.878C313.041 191.505 313.104 191.096 313.45 191.196C313.484 191.151 313.502 191.097 313.502 191.041C313.502 190.985 313.484 190.931 313.45 190.886C313.396 190.9 313.34 190.9 313.286 190.886C313.286 190.814 313.386 190.832 313.45 190.886C313.841 190.886 314.06 190.377 314.233 190.104L314.069 190.049C315.07 190.213 314.788 189.385 315.379 188.866L315.124 188.794C315.424 188.63 315.98 188.475 316.134 187.838H315.725C316.189 187.656 316.48 186.746 317.053 186.783C317.117 186.61 316.389 186.719 316.889 186.173C317.135 186.173 317.672 185.9 317.626 185.573C317.535 185.482 317.363 185.436 317.317 185.673C317.244 185.773 317.317 185.736 317.408 185.764H317.08C317.335 185.218 317.554 185.582 317.881 185.063C317.881 184.863 317.554 185.063 317.39 184.981L319.337 183.726C319.519 183.835 319.392 184.117 319.719 184.144L319.228 184.754C319.228 185.254 319.801 184.754 320.138 184.563L319.783 184.963C319.789 184.969 319.796 184.974 319.804 184.977C319.811 184.98 319.82 184.982 319.828 184.982C319.837 184.982 319.845 184.98 319.853 184.977C319.861 184.974 319.868 184.969 319.874 184.963L319.583 185.236C320.665 184.79 319.255 186.455 320.32 185.882C320.065 186.055 319.763 186.144 319.455 186.137C319.009 186.446 319.264 186.51 319.21 186.746L319.983 186.41C319.028 187.192 320.329 186.574 319.865 187.374C318.955 187.929 319.273 189.076 318.955 189.476C318.154 190.177 318.955 188.912 318.363 189.239C317.918 189.613 318.363 189.603 318.118 189.922L317.617 189.776C317.099 190.195 317.899 190.104 317.517 190.249C317.344 190.823 317.763 190.249 318.109 190.413C317.945 190.413 317.417 190.714 317.372 191.014C317.463 191.105 317.972 190.623 317.69 191.014C316.362 192.006 316.444 192.661 315.361 193.652L315.616 193.725C315.461 193.807 315.297 193.825 315.242 193.998H315.406C314.675 194.51 313.99 195.086 313.359 195.718L313.905 195.563L313.059 195.954L313.423 196.173C312.922 196.1 312.385 197.001 311.721 197.501L311.912 197.674L311.448 197.92H311.694C311.339 198.256 310.62 198.357 310.365 198.912C310.566 198.593 310.921 198.821 311.021 198.975L309.656 199.712C309.756 199.858 309.337 200.367 309.801 200.185L309.174 200.377L309.356 200.495C307.982 202.406 305.507 202.76 304.506 205.044H304.588L303.287 205.663C303.15 205.881 303.359 206.182 303.159 206.573C303.023 206.163 302.577 207.091 302.167 207.037C302.049 207.383 302.349 207.219 302.522 207.264C301.867 208.456 300.702 208.738 299.865 209.939C300.199 209.178 300.624 208.461 301.13 207.801C300.157 208.465 300.293 208.875 299.31 209.666L299.847 209.375C299.793 210.24 298.282 210.494 298.601 211.086C298.018 211.541 297.118 211.532 296.562 212.251L297.227 212.378L296.653 212.96L296.371 212.696C296.171 212.869 296.126 213.015 296.171 213.106C296.313 213.084 296.457 213.084 296.599 213.106C296.399 213.215 296.226 213.188 296.171 213.106C295.471 213.188 295.088 213.916 294.297 214.225L294.379 214.416C294.47 214.416 294.543 214.416 294.379 214.571V214.416C294.306 214.424 294.233 214.424 294.16 214.416C294.297 214.762 293.769 215.108 293.969 215.326C294.197 215.199 294.725 214.917 294.543 214.807C295.261 214.634 294.151 215.499 293.869 215.79C294.051 215.353 293.614 215.726 293.387 215.845C293.387 215.908 293.469 215.845 293.551 215.899C293.16 216.591 292.277 216.09 292.386 216.936L292.04 216.773L291.795 217.391C291.249 216.918 291.14 217.946 290.594 217.546C290.093 218.028 290.948 217.774 290.721 217.892C290.366 218.456 289.101 218.802 289.183 219.193H289.265V219.393C289.211 219.353 289.172 219.295 289.156 219.229C288.583 219.457 288.246 219.994 287.828 220.23L288.019 220.476C287.764 220.563 287.533 220.71 287.345 220.904C287.395 220.923 287.45 220.923 287.5 220.904L287.809 220.694C287.778 220.751 287.733 220.799 287.679 220.835C287.626 220.872 287.564 220.895 287.5 220.904C286.823 221.376 286.189 221.909 285.607 222.496C285.789 222.614 285.88 222.705 286.253 222.432C285.944 223.16 284.607 223.524 283.906 224.388H284.07L283.678 224.552V224.789C283.691 224.814 283.71 224.836 283.733 224.853L283.678 224.907V227.91H294.397V219.057C297.494 218.531 300.495 217.549 303.305 216.145L308.491 223.278L317.162 216.982L311.958 209.812C314.14 207.564 315.979 205.007 317.417 202.224L325.806 204.953L329.127 194.763L320.702 192.033C320.916 190.562 321.029 189.079 321.038 187.593ZM311.33 193.443C311.73 192.815 311.466 193.298 312.058 192.843L311.33 193.443Z"
		fill="black" />
	<path opacity="0.2"
		d="M256.864 187.593C256.862 189.185 256.981 190.776 257.219 192.351L248.821 195.081L251.396 202.997C252.161 202.302 252.811 201.492 253.325 200.595L251.923 201.423C252.569 200.668 254.08 199.758 253.598 199.403C252.933 200.313 253.015 199.73 252.542 200.067V200.149C252.424 200.231 252.069 200.477 252.206 200.231C253.144 199.691 254.041 199.083 254.89 198.411C254.498 198.611 254.99 197.856 255.008 197.72C255.736 197.128 255.199 197.892 255.281 198.065C255.645 197.729 256.446 197.401 256.518 196.892C256.819 196.218 255.709 197.301 255.39 197.292L257.592 195.663H257.483C257.777 195.54 258.029 195.334 258.211 195.072C258.211 194.735 257.774 195.154 257.51 195.49C258.32 194.235 259.803 194.171 260.24 192.843L259.894 193.061C260.031 192.888 260.14 192.815 260.249 192.806L260.95 192.36C260.95 192.278 260.95 192.106 260.877 192.187L261.568 191.778C262.769 190.868 261.568 191.178 261.823 190.75L261.768 190.804C262.041 190.431 262.151 190.058 261.887 190.249L263.188 189.34C263.042 189.34 262.933 189.34 262.897 189.249L263.188 189.34C263.889 189.176 265.572 187.611 266.036 188.12C266.3 187.784 266.436 187.465 266.236 187.52L266.181 187.574C266.051 187.715 265.904 187.841 265.745 187.947L266.181 187.574C266.181 187.574 266.181 187.574 266.227 187.52C267.082 186.737 265.663 187.347 267.055 186.091C266.964 186 266.837 186.173 266.6 186.337C266.937 185.982 267.11 185.873 267.219 185.864C267.184 185.826 267.158 185.781 267.142 185.733C267.127 185.684 267.122 185.632 267.128 185.582C267.319 185.755 267.828 185.163 268.092 184.826L267.319 184.99C267.799 184.815 268.215 184.498 268.511 184.08L267.956 184.235C268.42 183.844 268.547 183.908 268.665 183.944C269.447 179.609 271.595 175.638 274.796 172.613C277.997 169.587 282.082 167.665 286.454 167.129C286.67 166.957 286.816 166.711 286.863 166.438C287.054 166.52 286.863 166.802 286.581 167.12C286.763 167.12 286.945 167.102 287.127 167.065H286.991C288.273 166.319 287.282 166.556 288.483 165.555C288.483 165.637 288.437 165.901 288.692 165.646C289.602 164.736 288.519 165.3 289.038 164.627C290.63 163.972 289.265 163.781 290.921 162.616H290.712C292.013 161.706 293.014 159.886 294.142 158.594C294.142 158.758 293.16 159.586 293.56 159.768L295.079 158.358C295.079 158.194 295.725 157.521 295.161 157.766C294.961 157.932 294.789 158.129 294.652 158.349L294.706 158.003C296.262 156.766 295.061 158.531 295.343 158.785C295.989 157.948 296.526 157.957 297.027 157.457C297.027 156.938 295.753 158.121 296.117 157.184C296.282 156.922 296.488 156.689 296.726 156.493C295.889 156.292 295.052 156.11 294.197 155.965V147.139H283.497V155.992C280.4 156.518 277.398 157.499 274.589 158.904L269.402 151.761L260.731 158.067L265.963 165.182C263.783 167.432 261.944 169.988 260.504 172.77L252.115 170.041L248.793 180.232L257.219 182.961C256.989 184.494 256.87 186.042 256.864 187.593ZM251.632 201.241L250.877 201.314C251.405 200.886 251.705 201.123 251.587 201.232L251.632 201.241ZM253.689 198.72L253.225 198.966L254.435 197.974L253.689 198.72ZM256.609 196.136V195.964L257.447 195.299L256.609 196.136Z"
		fill="black" />
	<path opacity="0.2" d="M304.706 203.652C304.524 203.534 304.178 203.998 304.133 203.652L304.269 203.443C304.069 203.752 303.76 203.233 303.587 203.807L303.796 203.552C303.605 203.934 304.442 203.488 304.106 204.016C303.969 204.253 304.579 203.925 304.706 203.652Z" fill="black" />
	<path opacity="0.2" d="M314.815 190.886H314.897C314.899 190.801 314.921 190.717 314.96 190.641C314.869 190.677 314.787 190.723 314.815 190.886Z" fill="black" />
	<path opacity="0.2" d="M317.69 188.648L317.918 188.53C318.036 188.184 317.645 188.33 317.426 188.53C317.517 188.539 317.526 188.666 317.69 188.648Z" fill="black" />
	<path opacity="0.2" d="M313.914 194.553C314.287 194.289 314.587 194.681 314.76 194.171C314.469 194.398 314.187 193.944 313.914 194.553Z" fill="black" />
	<path opacity="0.2" d="M314.333 190.313C314.533 190.313 315.015 190.077 315.143 190.313C315.397 189.895 315.661 189.467 315.042 189.567L314.77 189.931C314.915 189.776 314.924 189.849 315.006 189.867C314.888 190.204 314.56 190.204 314.333 190.313Z" fill="black" />
	<path opacity="0.2" d="M315.17 190.55C315.185 190.514 315.193 190.475 315.193 190.436C315.193 190.397 315.185 190.358 315.17 190.322L314.988 190.659C315.097 190.641 315.142 190.632 315.17 190.55Z" fill="black" />
	<path opacity="0.2" d="M304.178 204.498C303.632 204.398 303.851 204.835 303.45 204.971C303.705 204.935 304.178 205.035 304.178 204.498Z" fill="black" />
	<path opacity="0.2" d="M308.728 152.061C308.723 152.031 308.723 152.001 308.728 151.97L308.555 151.843C308.109 152.198 307.508 152.489 307.645 152.889L308.728 152.061Z" fill="black" />
	<path opacity="0.2" d="M257.883 202.597H257.956L259.339 201.35L257.883 202.597Z" fill="black" />
	<path opacity="0.2" d="M256.864 203.688L257.774 203.024C257.167 203.121 256.62 203.446 256.245 203.934L257.082 203.661L257.401 203.47L256.864 203.688Z" fill="black" />
	<path opacity="0.2" d="M295.38 168.003L295.525 168.048C295.715 168.003 295.889 167.906 296.027 167.768C296.165 167.63 296.263 167.456 296.308 167.266C295.716 167.311 295.716 167.684 295.38 168.003Z" fill="black" />
	<path opacity="0.2" d="M297.345 165.91C297.145 165.828 296.508 166.574 296.562 166.156L296.826 165.819C296.435 166.329 296.198 165.728 295.762 166.565L296.135 166.156C295.734 166.738 297.045 165.819 296.39 166.665C296.126 167.002 297.072 166.338 297.345 165.91Z" fill="black" />
	<path opacity="0.2" d="M262.678 200.386C262.793 200.282 262.888 200.159 262.96 200.022L262.678 200.386Z" fill="black" />
	<path opacity="0.2" d="M263.015 199.458C262.28 199.625 261.584 199.934 260.968 200.367L261.013 200.795C261.277 200.458 260.968 200.367 261.668 199.949C261.732 200.213 262.323 200.386 263.015 199.458Z" fill="black" />
	<path opacity="0.2" d="M308.336 151.634L308.027 152.061C308.182 151.96 308.33 151.851 308.473 151.734L308.336 151.634Z" fill="black" />
	<path opacity="0.2" d="M262.96 200.022L263.87 198.875C262.951 199.066 263.233 199.503 262.96 200.022Z" fill="black" />
	<path opacity="0.2" d="M302.304 158.421C302.167 158.503 302.058 158.549 302.004 158.494V159.013C302.152 158.824 302.334 158.663 302.541 158.54L302.304 158.421Z" fill="black" />
	<path opacity="0.2" d="M299.738 161.015C299.738 160.76 300.384 160.178 300.893 159.586C300.357 159.577 299.528 160.924 299.738 161.015Z" fill="black" />
	<path opacity="0.2" d="M258.302 202.615L257.956 202.597L257.865 202.688L258.302 202.615Z" fill="black" />
</svg>