<svg width="397" height="400" viewBox="0 0 397 400" fill="none" xmlns="http://www.w3.org/2000/svg">
	<path opacity="0.7" d="M258.503 85.8674C231.384 27.957 188.72 -4.355 137.307 0.474138C85.8935 5.30327 83.5125 51.9947 83.5125 104.35C83.5125 156.096 22.753 131.96 3.38223 194.376C-11.7108 243.011 27.5472 331.869 45.6266 368.755H302.095C312.047 326.951 330.126 244.679 332.088 191.431C335.615 95.6925 280.142 132.098 258.503 85.8674Z" fill="#005893" />
	<path d="M288.321 301.555C288.321 301.555 308.413 241.093 283.185 296.936C283.185 296.936 274.286 248.331 276.609 301.369C276.609 301.369 250.598 260.668 272.532 310.195C272.532 310.195 238.778 274.173 273.63 321.111C273.63 321.111 341.706 317.688 288.811 315.364C288.811 315.364 350.39 289.257 291.693 308.028C291.693 308.047 344.176 256.039 288.321 301.555Z" fill="#0BBBEF" />
	<path d="M284.038 302.899C284.038 302.899 270.503 321.993 265.603 341.785" stroke="#263238" stroke-width="0.75" stroke-linecap="round" stroke-linejoin="round" />
	<path d="M246.981 303.497C246.981 303.497 199.604 266.151 241.208 306.586C241.208 306.586 195.086 298.907 243.041 313.873C243.041 313.873 198.447 323.984 249.608 320.346C249.608 320.346 206.69 338.862 259.683 322.876C259.683 322.876 278.51 261.09 259.438 307.498C259.438 307.498 255.988 244.212 253.842 302.595C253.842 302.575 224.361 239.082 246.981 303.497Z" fill="#0BBBEF" />
	<path opacity="0.3" d="M246.981 303.497C246.981 303.497 199.604 266.151 241.208 306.586C241.208 306.586 195.086 298.907 243.041 313.873C243.041 313.873 198.447 323.984 249.608 320.346C249.608 320.346 206.69 338.862 259.683 322.876C259.683 322.876 278.51 261.09 259.438 307.498C259.438 307.498 255.988 244.212 253.842 302.595C253.842 302.575 224.361 239.082 246.981 303.497Z" fill="white" />
	<path d="M269.288 343.599C260.771 315.158 245.766 308.214 245.766 308.214" stroke="#263238" stroke-width="0.75" stroke-linecap="round" stroke-linejoin="round" />
	<path d="M266.151 306.802C266.151 306.802 272.228 312.51 273.845 320.267C279.674 318.273 285.838 317.443 291.986 317.825" stroke="#263238" stroke-width="0.5" stroke-linecap="round" stroke-linejoin="round" />
	<path d="M272.571 300.653C272.571 300.653 276.746 305.723 273.845 320.267L289.821 309.058" stroke="#263238" stroke-width="0.5" stroke-linecap="round" stroke-linejoin="round" />
	<path d="M261.457 307.518C259.722 311.842 258.875 316.472 258.967 321.13C258.967 321.13 252.107 321.895 247.461 324.073" stroke="#263238" stroke-width="0.5" stroke-linecap="round" stroke-linejoin="round" />
	<path d="M254.057 305.714C254.778 311.1 256.437 316.318 258.958 321.131C258.958 321.131 254.586 317.208 243.021 316.56" stroke="#263238" stroke-width="0.5" stroke-linecap="round" stroke-linejoin="round" />
	<path
		d="M253.097 339.617H281.362L277.021 366.097H275.648V367.156C275.65 367.337 275.615 367.517 275.547 367.685C275.478 367.852 275.378 368.005 275.25 368.133C275.122 368.262 274.971 368.364 274.804 368.433C274.637 368.503 274.457 368.539 274.276 368.539H272.963C272.782 368.539 272.603 368.503 272.436 368.433C272.269 368.364 272.117 368.262 271.989 368.133C271.862 368.005 271.761 367.852 271.692 367.685C271.624 367.517 271.59 367.337 271.591 367.156V366.097H262.868V367.156C262.868 367.338 262.832 367.517 262.763 367.685C262.693 367.853 262.592 368.006 262.463 368.134C262.335 368.262 262.183 368.364 262.015 368.434C261.847 368.503 261.668 368.539 261.486 368.539H260.173C259.808 368.536 259.459 368.389 259.202 368.13C258.945 367.871 258.801 367.521 258.801 367.156V366.097H257.429L253.097 339.617Z"
		fill="#263238" stroke="#263238" stroke-width="0.75" stroke-linecap="round" stroke-linejoin="round" />
	<path d="M377.734 368.48H46.9558C26.9915 371.54 10.9769 375.502 16.0048 380.013C27.7658 390.576 112.465 378.238 109.975 390.468C107.486 402.698 171.005 399.667 205.563 399.667C240.12 399.667 277.844 396.421 265.701 387.035C253.557 377.65 334.169 384.505 368.815 384.505C394.101 384.505 411.429 377.444 377.734 368.48Z" fill="#0BBBEF" />
	<path d="M299.514 23.5571H131.449C126.978 23.5571 123.353 27.184 123.353 31.658V252.862C123.353 257.336 126.978 260.963 131.449 260.963H299.514C303.985 260.963 307.609 257.336 307.609 252.862V31.658C307.609 27.184 303.985 23.5571 299.514 23.5571Z" fill="#263238" stroke="#263238" stroke-linecap="round" stroke-linejoin="round" />
	<path d="M296.573 20.0754H128.509C124.038 20.0754 120.413 23.7023 120.413 28.1763V249.38C120.413 253.854 124.038 257.481 128.509 257.481H296.573C301.044 257.481 304.669 253.854 304.669 249.38V28.1763C304.669 23.7023 301.044 20.0754 296.573 20.0754Z" fill="#0BBBEF" />
	<mask id="mask0_6_1664" style="mask-type:luminance" maskUnits="userSpaceOnUse" x="120" y="20" width="185" height="238">
		<path d="M296.573 20.0754H128.509C124.038 20.0754 120.413 23.7023 120.413 28.1763V249.38C120.413 253.854 124.038 257.481 128.509 257.481H296.573C301.044 257.481 304.669 253.854 304.669 249.38V28.1763C304.669 23.7023 301.044 20.0754 296.573 20.0754Z" fill="white" />
	</mask>
	<g mask="url(#mask0_6_1664)">
		<path opacity="0.8" d="M296.573 20.0754H128.509C124.038 20.0754 120.413 23.7023 120.413 28.1763V249.38C120.413 253.854 124.038 257.481 128.509 257.481H296.573C301.044 257.481 304.669 253.854 304.669 249.38V28.1763C304.669 23.7023 301.044 20.0754 296.573 20.0754Z" fill="white" />
	</g>
	<path d="M296.573 20.0754H128.509C124.038 20.0754 120.413 23.7023 120.413 28.1763V249.38C120.413 253.854 124.038 257.481 128.509 257.481H296.573C301.044 257.481 304.669 253.854 304.669 249.38V28.1763C304.669 23.7023 301.044 20.0754 296.573 20.0754Z" stroke="#263238" stroke-linecap="round" stroke-linejoin="round" />
	<path d="M296.828 53.999H128.254V119.786H296.828V53.999Z" fill="white" stroke="#263238" stroke-linecap="round" stroke-linejoin="round" />
	<path d="M296.828 119.786L128.254 53.999" stroke="#263238" stroke-width="0.75" stroke-linecap="round" stroke-linejoin="round" />
	<path d="M128.254 119.786L296.828 53.999" stroke="#263238" stroke-width="0.75" stroke-linecap="round" stroke-linejoin="round" />
	<path d="M212.541 133.115H128.254V198.902H212.541V133.115Z" fill="#0BBBEF" />
	<mask id="mask1_6_1664" style="mask-type:luminance" maskUnits="userSpaceOnUse" x="128" y="133" width="85" height="66">
		<path d="M212.541 133.115H128.254V198.902H212.541V133.115Z" fill="white" />
	</mask>
	<g mask="url(#mask1_6_1664)">
		<path opacity="0.5" d="M212.541 133.115H128.254V198.902H212.541V133.115Z" fill="white" />
	</g>
	<path d="M212.541 133.115H128.254V198.902H212.541V133.115Z" stroke="#263238" stroke-linecap="round" stroke-linejoin="round" />
	<path d="M249.049 31.4226H176.033C175.221 31.4226 174.562 32.0812 174.562 32.8937C174.562 33.7062 175.221 34.3648 176.033 34.3648H249.049C249.861 34.3648 250.519 33.7062 250.519 32.8937C250.519 32.0812 249.861 31.4226 249.049 31.4226Z" fill="#263238" stroke="#263238" stroke-width="0.75" stroke-linecap="round" stroke-linejoin="round" />
	<path
		d="M295.358 136.057H222.342C221.952 136.057 221.578 135.902 221.302 135.626C221.026 135.35 220.872 134.976 220.872 134.586C220.872 134.195 221.026 133.821 221.302 133.545C221.578 133.269 221.952 133.115 222.342 133.115H295.358C295.748 133.115 296.122 133.269 296.397 133.545C296.673 133.821 296.828 134.195 296.828 134.586C296.828 134.976 296.673 135.35 296.397 135.626C296.122 135.902 295.748 136.057 295.358 136.057Z"
		fill="#263238" stroke="#263238" stroke-width="0.75" stroke-linecap="round" stroke-linejoin="round" />
	<path
		d="M279.677 152.317H222.342C221.952 152.317 221.578 152.162 221.302 151.886C221.026 151.61 220.872 151.236 220.872 150.846C220.872 150.456 221.026 150.082 221.302 149.806C221.578 149.53 221.952 149.375 222.342 149.375H279.677C280.067 149.375 280.44 149.53 280.716 149.806C280.992 150.082 281.147 150.456 281.147 150.846C281.147 151.236 280.992 151.61 280.716 151.886C280.44 152.162 280.067 152.317 279.677 152.317Z"
		fill="#263238" stroke="#263238" stroke-width="0.75" stroke-linecap="round" stroke-linejoin="round" />
	<path d="M272.081 160.879H222.342C221.53 160.879 220.872 161.538 220.872 162.35C220.872 163.163 221.53 163.821 222.342 163.821H272.081C272.893 163.821 273.551 163.163 273.551 162.35C273.551 161.538 272.893 160.879 272.081 160.879Z" fill="#263238" stroke="#263238" stroke-width="0.75" stroke-linecap="round" stroke-linejoin="round" />
	<path
		d="M286.537 175.315H222.342C221.952 175.315 221.578 175.161 221.302 174.885C221.026 174.609 220.872 174.235 220.872 173.844C220.872 173.454 221.026 173.08 221.302 172.804C221.578 172.528 221.952 172.373 222.342 172.373H286.537C286.927 172.373 287.301 172.528 287.577 172.804C287.852 173.08 288.007 173.454 288.007 173.844C288.007 174.235 287.852 174.609 287.577 174.885C287.301 175.161 286.927 175.315 286.537 175.315Z"
		fill="#263238" stroke="#263238" stroke-width="0.75" stroke-linecap="round" stroke-linejoin="round" />
	<path
		d="M280.412 186.81H222.342C221.952 186.81 221.578 186.655 221.302 186.379C221.026 186.103 220.872 185.729 220.872 185.339C220.872 184.948 221.026 184.574 221.302 184.298C221.578 184.022 221.952 183.867 222.342 183.867H280.412C280.802 183.867 281.176 184.022 281.451 184.298C281.727 184.574 281.882 184.948 281.882 185.339C281.882 185.729 281.727 186.103 281.451 186.379C281.176 186.655 280.802 186.81 280.412 186.81Z"
		fill="#263238" stroke="#263238" stroke-width="0.75" stroke-linecap="round" stroke-linejoin="round" />
	<path
		d="M272.081 198.314H222.342C221.952 198.314 221.578 198.159 221.302 197.883C221.026 197.607 220.872 197.233 220.872 196.842C220.872 196.452 221.026 196.078 221.302 195.802C221.578 195.526 221.952 195.371 222.342 195.371H272.081C272.471 195.371 272.845 195.526 273.12 195.802C273.396 196.078 273.551 196.452 273.551 196.842C273.551 197.233 273.396 197.607 273.12 197.883C272.845 198.159 272.471 198.314 272.081 198.314Z"
		fill="#263238" stroke="#263238" stroke-width="0.75" stroke-linecap="round" stroke-linejoin="round" />
	<path
		d="M260.075 44.3289H165.007C164.617 44.3289 164.243 44.1739 163.967 43.898C163.692 43.6222 163.537 43.248 163.537 42.8578C163.537 42.4677 163.692 42.0935 163.967 41.8176C164.243 41.5417 164.617 41.3867 165.007 41.3867H260.075C260.465 41.3867 260.839 41.5417 261.114 41.8176C261.39 42.0935 261.545 42.4677 261.545 42.8578C261.545 43.248 261.39 43.6222 261.114 43.898C260.839 44.1739 260.465 44.3289 260.075 44.3289Z"
		fill="#263238" stroke="#263238" stroke-width="0.75" stroke-linecap="round" stroke-linejoin="round" />
	<path d="M212.541 247.34C221.202 247.34 228.222 240.315 228.222 231.648C228.222 222.982 221.202 215.957 212.541 215.957C203.88 215.957 196.86 222.982 196.86 231.648C196.86 240.315 203.88 247.34 212.541 247.34Z" fill="#0BBBEF" stroke="#263238" stroke-width="0.75" stroke-linecap="round" stroke-linejoin="round" />
	<path d="M165.497 247.34C174.157 247.34 181.178 240.315 181.178 231.648C181.178 222.982 174.157 215.957 165.497 215.957C156.836 215.957 149.815 222.982 149.815 231.648C149.815 240.315 156.836 247.34 165.497 247.34Z" fill="#0BBBEF" stroke="#263238" stroke-linecap="round" stroke-linejoin="round" />
	<path d="M259.585 247.34C268.245 247.34 275.266 240.315 275.266 231.648C275.266 222.982 268.245 215.957 259.585 215.957C250.924 215.957 243.904 222.982 243.904 231.648C243.904 240.315 250.924 247.34 259.585 247.34Z" fill="#0BBBEF" stroke="#263238" stroke-linecap="round" stroke-linejoin="round" />
	<path d="M176.415 369.314L151.678 366.528V310.529L164.37 302.899V300.104H130.351V302.879L143.092 310.489V366.528L118.355 369.314C117.244 369.439 116.219 369.969 115.474 370.803C114.729 371.637 114.317 372.716 114.317 373.835V376.13H180.522V373.835C180.52 372.706 180.098 371.618 179.339 370.782C178.58 369.947 177.538 369.423 176.415 369.314Z" fill="white" stroke="#263238" stroke-width="0.75"
		stroke-linecap="round" stroke-linejoin="round" />
	<path d="M122.961 267.288H116.199V298.024H122.961V267.288Z" fill="white" stroke="#263238" stroke-width="0.75" stroke-linecap="round" stroke-linejoin="round" />
	<path d="M183.305 291.66H111.435C109.092 291.66 107.192 293.561 107.192 295.906V300.143C107.192 302.488 109.092 304.39 111.435 304.39H183.305C185.649 304.39 187.549 302.488 187.549 300.143V295.906C187.549 293.561 185.649 291.66 183.305 291.66Z" fill="#263238" stroke="#263238" stroke-linecap="round" stroke-linejoin="round" />
	<path d="M133.752 235.875H105.418C100.914 235.875 97.2634 239.529 97.2634 244.035V261.933C97.2634 266.44 100.914 270.093 105.418 270.093H133.752C138.255 270.093 141.906 266.44 141.906 261.933V244.035C141.906 239.529 138.255 235.875 133.752 235.875Z" fill="#263238" />
	<mask id="mask2_6_1664" style="mask-type:luminance" maskUnits="userSpaceOnUse" x="97" y="235" width="45" height="36">
		<path d="M133.752 235.875H105.418C100.914 235.875 97.2634 239.529 97.2634 244.035V261.933C97.2634 266.44 100.914 270.093 105.418 270.093H133.752C138.255 270.093 141.906 266.44 141.906 261.933V244.035C141.906 239.529 138.255 235.875 133.752 235.875Z" fill="white" />
	</mask>
	<g mask="url(#mask2_6_1664)">
		<path opacity="0.5" d="M141.2 235.875H112.866C108.363 235.875 104.712 239.529 104.712 244.035V261.933C104.712 266.44 108.363 270.093 112.866 270.093H141.2C145.704 270.093 149.355 266.44 149.355 261.933V244.035C149.355 239.529 145.704 235.875 141.2 235.875Z" fill="black" />
	</g>
	<path d="M133.752 235.875H105.418C100.914 235.875 97.2634 239.529 97.2634 244.035V261.933C97.2634 266.44 100.914 270.093 105.418 270.093H133.752C138.255 270.093 141.906 266.44 141.906 261.933V244.035C141.906 239.529 138.255 235.875 133.752 235.875Z" stroke="#263238" stroke-linecap="round" stroke-linejoin="round" />
	<path d="M173.269 289.737C175.384 288.046 177.73 286.669 180.237 285.647" stroke="#263238" stroke-width="0.75" stroke-linecap="round" stroke-linejoin="round" />
	<path d="M177.473 283.323C177.473 283.323 170.368 289.149 171.809 290.022" stroke="#263238" stroke-width="0.75" stroke-linecap="round" stroke-linejoin="round" />
	<path d="M199.937 337.783L202.142 353.328C202.142 353.328 198.016 356.702 197.81 365.881L205.083 368.47L207.043 365.881L213.531 372.648C213.531 372.648 225.027 377.827 226.595 374.365C228.164 370.903 221.822 368.343 216.461 360.732C215.07 358.771 210.414 353.161 210.414 353.161L210.875 336.94L199.937 337.783Z" fill="#263238" stroke="#263238" stroke-width="0.75" stroke-linecap="round"
		stroke-linejoin="round" />
	<path
		d="M144.425 271.809C144.425 271.809 205.278 267.73 208.052 276.331C210.826 284.932 212.129 312.461 212.266 323.406C212.404 334.351 211.541 348.169 211.541 348.169C207.886 349.278 203.984 349.278 200.329 348.169C200.329 348.169 197.653 332.291 195.722 324.573C193.792 316.854 191.743 306.557 192.91 290.247C192.91 290.247 134.595 299.074 134.271 288.835C133.948 278.596 144.425 271.809 144.425 271.809Z"
		fill="white" />
	<mask id="mask3_6_1664" style="mask-type:luminance" maskUnits="userSpaceOnUse" x="134" y="270" width="79" height="80">
		<path
			d="M144.425 271.809C144.425 271.809 205.278 267.73 208.052 276.331C210.826 284.932 212.129 312.461 212.266 323.406C212.404 334.351 211.541 348.169 211.541 348.169C207.886 349.278 203.984 349.278 200.329 348.169C200.329 348.169 197.653 332.291 195.722 324.573C193.792 316.854 191.743 306.557 192.91 290.247C192.91 290.247 134.595 299.074 134.271 288.835C133.948 278.596 144.425 271.809 144.425 271.809Z"
			fill="white" />
	</mask>
	<g mask="url(#mask3_6_1664)">
		<path opacity="0.5"
			d="M144.425 271.809C144.425 271.809 205.278 267.73 208.052 276.331C210.826 284.932 212.129 312.461 212.266 323.406C212.404 334.351 211.541 348.169 211.541 348.169C207.886 349.278 203.984 349.278 200.329 348.169C200.329 348.169 197.653 332.291 195.722 324.573C193.792 316.854 191.743 306.557 192.91 290.247C192.91 290.247 134.595 299.074 134.271 288.835C133.948 278.596 144.425 271.809 144.425 271.809Z"
			fill="black" />
		<path opacity="0.2"
			d="M187.294 274.693L188.352 275.164L188.774 275.33L189.028 275.448C189.481 275.639 189.912 275.879 190.312 276.164C194.674 278.292 196.732 282.176 195.213 287.129C195.205 287.405 195.179 287.68 195.134 287.952C194.455 291.435 193.471 294.851 192.194 298.162C192.585 298.838 192.747 299.622 192.655 300.398C192.498 301.643 192.371 302.879 192.273 304.125C192.728 305.197 192.87 306.377 192.684 307.528C192.573 308.274 192.521 309.029 192.527 309.783C192.89 312.51 193.243 315.236 193.752 317.933L194.34 320.189C194.34 319.659 194.34 319.091 194.282 318.453C193.145 296.083 196.595 305.174 198.114 289.737C199.319 278.125 191.332 275.35 187.294 274.693Z"
			fill="black" />
	</g>
	<path
		d="M144.425 271.809C144.425 271.809 205.278 267.73 208.052 276.331C210.826 284.932 212.129 312.461 212.266 323.406C212.404 334.351 211.541 348.169 211.541 348.169C207.886 349.278 203.984 349.278 200.329 348.169C200.329 348.169 197.653 332.291 195.722 324.573C193.792 316.854 191.743 306.557 192.91 290.247C192.91 290.247 134.595 299.074 134.271 288.835C133.948 278.596 144.425 271.809 144.425 271.809Z"
		stroke="#263238" stroke-linecap="round" stroke-linejoin="round" />
	<path d="M199.447 284.706C199.447 284.706 198.82 287.531 194.88 290.267" stroke="#263238" stroke-width="0.75" stroke-linecap="round" stroke-linejoin="round" />
	<path d="M212.953 344.668L212.531 348.787C212.531 348.787 205.572 352.524 199.447 349.071L198.173 345.021C198.173 345.021 202.319 347.865 212.953 344.668Z" fill="#0BBBEF" />
	<mask id="mask4_6_1664" style="mask-type:luminance" maskUnits="userSpaceOnUse" x="198" y="344" width="15" height="7">
		<path d="M212.953 344.668L212.531 348.787C212.531 348.787 205.572 352.524 199.447 349.071L198.173 345.021C198.173 345.021 202.319 347.865 212.953 344.668Z" fill="white" />
	</mask>
	<g mask="url(#mask4_6_1664)">
		<path opacity="0.3" d="M212.953 344.668L212.531 348.787C212.531 348.787 205.572 352.524 199.447 349.071L198.173 345.021C198.173 345.021 202.319 347.865 212.953 344.668Z" fill="#0BBBEF" stroke="#263238" stroke-width="0.75" stroke-miterlimit="10" />
	</g>
	<path d="M212.953 344.668L212.531 348.787C212.531 348.787 205.572 352.524 199.447 349.071L198.173 345.021C198.173 345.021 202.319 347.865 212.953 344.668Z" stroke="#263238" stroke-width="0.75" stroke-linecap="round" stroke-linejoin="round" />
	<path d="M210.032 354.554C212.813 357.338 215.272 360.427 217.363 363.763" stroke="#7F7F7F" stroke-linecap="round" stroke-linejoin="round" />
	<path d="M155.706 326.927L148.914 341.078C148.914 341.078 143.612 341.588 138.349 349.111L142.965 355.299L146.032 354.24L147.679 363.478C147.679 363.478 154.363 374.168 157.588 372.158C160.812 370.147 156.97 364.498 156.735 355.191C156.666 352.769 155.902 345.531 155.902 345.531L165.291 332.301L155.706 326.927Z" fill="#263238" stroke="#263238" stroke-width="0.75" stroke-linecap="round"
		stroke-linejoin="round" />
	<path
		d="M123.49 274.104C123.49 274.104 114.856 291.365 125.892 292.895C136.927 294.425 170.662 292.463 170.662 292.463C166.435 299.248 162.689 306.32 159.45 313.628C155.079 323.965 150.717 334.605 150.717 334.605C150.717 334.605 152.609 339.705 160.322 340.725C160.322 340.725 166.585 330.918 180.267 315.668C193.949 300.417 197.742 285.069 194.831 279.822C191.92 274.575 176.778 271.741 152.315 270.613L123.49 274.104Z"
		fill="white" />
	<mask id="mask5_6_1664" style="mask-type:luminance" maskUnits="userSpaceOnUse" x="120" y="270" width="76" height="71">
		<path
			d="M123.49 274.104C123.49 274.104 114.856 291.365 125.892 292.895C136.927 294.425 170.662 292.463 170.662 292.463C166.435 299.248 162.689 306.32 159.45 313.628C155.079 323.965 150.717 334.605 150.717 334.605C150.717 334.605 152.609 339.705 160.322 340.725C160.322 340.725 166.585 330.918 180.267 315.668C193.949 300.417 197.742 285.069 194.831 279.822C191.92 274.575 176.778 271.741 152.315 270.613L123.49 274.104Z"
			fill="white" />
	</mask>
	<g mask="url(#mask5_6_1664)">
		<path opacity="0.5"
			d="M123.49 274.104C123.49 274.104 114.856 291.365 125.892 292.895C136.927 294.425 170.662 292.463 170.662 292.463C166.435 299.248 162.689 306.32 159.45 313.628C155.079 323.965 150.717 334.605 150.717 334.605C150.717 334.605 152.609 339.705 160.322 340.725C160.322 340.725 166.585 330.918 180.267 315.668C193.949 300.417 197.742 285.069 194.831 279.822C191.92 274.575 176.778 271.741 152.315 270.613L123.49 274.104Z"
			fill="black" />
	</g>
	<path
		d="M123.49 274.104C123.49 274.104 114.856 291.365 125.892 292.895C136.927 294.425 170.662 292.463 170.662 292.463C166.435 299.248 162.689 306.32 159.45 313.628C155.079 323.965 150.717 334.605 150.717 334.605C150.717 334.605 152.609 339.705 160.322 340.725C160.322 340.725 166.585 330.918 180.267 315.668C193.949 300.417 197.742 285.069 194.831 279.822C191.92 274.575 176.778 271.741 152.315 270.613L123.49 274.104Z"
		stroke="#263238" stroke-linecap="round" stroke-linejoin="round" />
	<path d="M162.91 339.264L160.293 342.471C160.293 342.471 152.452 341.745 149.228 335.479L150.394 331.399C150.394 331.399 152.285 336.057 162.91 339.264Z" fill="#0BBBEF" />
	<mask id="mask6_6_1664" style="mask-type:luminance" maskUnits="userSpaceOnUse" x="149" y="331" width="14" height="12">
		<path d="M162.91 339.264L160.293 342.471C160.293 342.471 152.452 341.745 149.228 335.479L150.394 331.399C150.394 331.399 152.285 336.057 162.91 339.264Z" fill="white" />
	</mask>
	<g mask="url(#mask6_6_1664)">
		<path opacity="0.3" d="M162.91 339.264L160.293 342.471C160.293 342.471 152.452 341.745 149.228 335.479L150.394 331.399C150.394 331.399 152.285 336.057 162.91 339.264Z" fill="#0BBBEF" stroke="#263238" stroke-width="0.75" stroke-miterlimit="10" />
	</g>
	<path d="M162.91 339.264L160.293 342.471C160.293 342.471 152.452 341.745 149.228 335.479L150.394 331.399C150.394 331.399 152.285 336.057 162.91 339.264Z" stroke="#263238" stroke-width="0.75" stroke-linecap="round" stroke-linejoin="round" />
	<path d="M154.559 346.865C154.951 349.003 155.687 353.357 156.069 358.055" stroke="#7F7F7F" stroke-linecap="round" stroke-linejoin="round" />
	<path d="M151.413 170.863C151.413 170.863 158.911 167.136 151.011 162.164C143.112 157.192 129.302 170.863 129.302 170.863L127.959 177.248C127.959 177.248 128.538 182.338 130.37 185.29C131.841 187.673 134.457 187.683 135.692 190.046C137.584 193.636 136.957 196.186 138.907 194.616C143.729 190.693 145.287 175.188 145.287 175.188L151.413 170.863Z" fill="#263238" stroke="#263238"
		stroke-linecap="round" stroke-linejoin="round" />
	<path d="M148.522 201.491L149.825 193.841L139.966 185.338L137.182 198.147L148.522 201.491Z" fill="white" />
	<mask id="mask7_6_1664" style="mask-type:luminance" maskUnits="userSpaceOnUse" x="137" y="185" width="13" height="17">
		<path d="M148.522 201.491L149.825 193.841L139.966 185.338L137.182 198.147L148.522 201.491Z" fill="white" />
	</mask>
	<g mask="url(#mask7_6_1664)">
		<path d="M139.005 186.231C139.005 186.231 139.809 190.644 142.21 193.42C144.611 196.195 150.874 199.49 150.874 199.49L151.413 194.234L141.612 186.761L139.966 185.358L139.005 186.231Z" fill="#263238" stroke="#263238" stroke-width="0.5" stroke-linecap="round" stroke-linejoin="round" />
	</g>
	<path d="M148.522 201.491L149.825 193.841L139.966 185.338L137.182 198.147L148.522 201.491Z" stroke="#263238" stroke-linecap="round" stroke-linejoin="round" />
	<path
		d="M151.658 168.166C151.658 168.166 156.137 176.012 156.039 178.277C156.039 178.277 161.92 193.724 156.039 196.264C151.472 198.225 145.739 194.4 143.494 192.655C142.879 192.169 142.364 191.57 141.975 190.889L140.064 187.525C140.064 187.525 137.712 188.202 135.565 185.142C133.419 182.082 135.624 179.179 137.986 180.984C137.986 180.984 139.77 177.287 139.211 175.247C138.653 173.207 141.328 173.177 141.446 171.01C141.475 171.01 147.836 170.784 151.658 168.166Z"
		fill="white" />
	<path
		d="M151.658 168.166C151.658 168.166 156.137 176.012 156.039 178.277C156.039 178.277 161.92 193.724 156.039 196.264C151.472 198.225 145.739 194.4 143.494 192.655C142.879 192.169 142.364 191.57 141.975 190.889L140.064 187.525C140.064 187.525 137.712 188.202 135.565 185.142C133.419 182.082 135.624 179.179 137.986 180.984C137.986 180.984 139.77 177.287 139.211 175.247C138.653 173.207 141.328 173.177 141.446 171.01C141.475 171.01 147.836 170.784 151.658 168.166Z"
		stroke="#263238" stroke-linecap="round" stroke-linejoin="round" />
	<path d="M150.835 189.34C150.835 189.34 152.285 191.301 155.236 188.683" stroke="#263238" stroke-width="0.75" stroke-linecap="round" stroke-linejoin="round" />
	<path d="M153.275 180.19C153.814 182.308 153.187 184.289 151.874 184.623C150.56 184.956 149.061 183.524 148.522 181.416C147.983 179.307 148.845 178.473 150.159 178.15C151.472 177.826 152.736 178.081 153.275 180.19Z" stroke="#263238" stroke-width="0.75" stroke-linecap="round" stroke-linejoin="round" />
	<path d="M159.273 178.493C159.812 180.611 159.381 182.544 158.293 182.818C157.205 183.093 155.912 181.602 155.353 179.493C154.794 177.385 155.5 176.61 156.568 176.336C157.637 176.061 158.773 176.336 159.273 178.493Z" fill="white" stroke="#263238" stroke-width="0.75" stroke-linecap="round" stroke-linejoin="round" />
	<path d="M147.826 178.091C147.997 177.738 148.237 177.423 148.531 177.164C148.825 176.905 149.168 176.708 149.54 176.584C149.911 176.46 150.304 176.411 150.695 176.441C151.086 176.47 151.466 176.578 151.815 176.757" stroke="#263238" stroke-width="0.75" stroke-linecap="round" stroke-linejoin="round" />
	<path d="M154.314 175.904C154.384 175.579 154.534 175.278 154.752 175.027C154.97 174.777 155.248 174.586 155.56 174.472" stroke="#263238" stroke-width="0.75" stroke-linecap="round" stroke-linejoin="round" />
	<path d="M148.522 181.416L146.023 182.426L138.015 180.984" stroke="#263238" stroke-width="0.75" stroke-linecap="round" stroke-linejoin="round" />
	<path d="M155.314 179.091L153.314 179.905" stroke="#263238" stroke-width="0.75" stroke-linecap="round" stroke-linejoin="round" />
	<path d="M152.168 180.7C152.236 181.367 151.972 181.945 151.55 181.994C151.129 182.043 150.737 181.533 150.658 180.866C150.58 180.2 150.854 179.621 151.266 179.572C151.678 179.523 152.089 180.023 152.168 180.7Z" fill="#263238" />
	<path d="M157.059 178.925C157.137 179.582 156.961 180.131 156.657 180.17C156.353 180.209 156.059 179.699 155.99 179.052C155.921 178.405 156.088 177.846 156.382 177.816C156.676 177.787 156.981 178.277 157.059 178.925Z" fill="#263238" />
	<path d="M154.794 179.317L158.911 182.936C159.008 183.022 159.085 183.131 159.133 183.252C159.182 183.373 159.202 183.504 159.192 183.635C159.181 183.765 159.141 183.891 159.073 184.003C159.006 184.115 158.913 184.209 158.803 184.279L156.686 185.603" fill="white" />
	<path d="M154.794 179.317L158.911 182.936C159.008 183.022 159.085 183.131 159.133 183.252C159.182 183.373 159.202 183.504 159.192 183.635C159.181 183.765 159.141 183.891 159.073 184.003C159.006 184.115 158.913 184.209 158.803 184.279L156.686 185.603" stroke="#263238" stroke-width="0.75" stroke-linecap="round" stroke-linejoin="round" />
	<path
		d="M131.478 171.128C131.478 171.128 130.753 158.084 120.638 163.282C110.524 168.48 120.188 183.779 117.159 187.153C114.131 190.527 119.923 189.016 120.638 186.574C121.354 184.132 120.766 190.644 122.167 190.88C123.569 191.115 123.794 185.29 125.108 185.29C126.421 185.29 124.765 188.918 125.813 189.32C126.862 189.722 129.302 182.2 129.998 178.042C130.366 175.712 130.86 173.404 131.478 171.128Z"
		fill="#263238" stroke="#263238" stroke-linecap="round" stroke-linejoin="round" />
	<path d="M131.478 169.353C131.478 169.353 127.94 173.275 129.322 183.083C129.371 183.063 122.51 173.128 131.478 169.353Z" fill="#0BBBEF" stroke="#263238" stroke-linecap="round" stroke-linejoin="round" />
	<path d="M139.858 170.863C139.858 170.863 143.778 171.951 144.317 175.188C144.856 178.424 146.679 167.754 139.858 170.863Z" fill="#263238" stroke="#263238" stroke-width="0.75" stroke-linecap="round" stroke-linejoin="round" />
	<path d="M152.893 170.167C152.893 170.167 157.156 168.882 158.431 171.677C158.401 171.677 157.793 164.939 152.893 170.167Z" fill="#263238" stroke="#263238" stroke-width="0.75" stroke-linecap="round" stroke-linejoin="round" />
	<path
		d="M186.549 167.362C187.411 167.127 188.303 168.245 188.303 168.245C189.225 166.675 190.695 169.284 190.695 169.284C191.93 167.774 192.557 171.079 192.557 171.079C192.557 171.079 193.86 170.775 193.704 172.432C193.498 174.61 190.969 179.592 190.969 179.592L189.323 188.026L183.158 187.3L185.118 179.209L183.275 175.659C182.599 174.232 182.263 172.668 182.295 171.089C182.589 169.078 185.686 167.587 186.549 167.362Z"
		fill="white" stroke="#263238" stroke-linecap="round" stroke-linejoin="round" />
	<path d="M186.559 169.382C186.559 169.382 188.401 173.236 188.176 169.382C188.176 169.382 189.519 174.158 190.371 170.274C190.371 170.274 189.852 174.737 191.665 172.236C191.665 172.236 190.901 173.57 191.244 174.197C191.587 174.825 192.557 173.795 192.557 173.795" fill="white" />
	<path d="M186.559 169.382C186.559 169.382 188.401 173.236 188.176 169.382C188.176 169.382 189.519 174.158 190.371 170.274C190.371 170.274 189.852 174.737 191.665 172.236C191.665 172.236 190.901 173.57 191.244 174.197C191.587 174.825 192.557 173.795 192.557 173.795" stroke="#263238" stroke-width="0.75" stroke-linecap="round" stroke-linejoin="round" />
	<path d="M156.47 204.227L176.209 204.639L183.619 184.044L190.136 186.339C190.136 186.339 186.794 212.416 183.452 213.966C180.11 215.516 159.754 217.722 159.754 217.722C159.754 217.722 153.422 210.73 156.47 204.227Z" fill="#0BBBEF" />
	<mask id="mask8_6_1664" style="mask-type:luminance" maskUnits="userSpaceOnUse" x="155" y="184" width="36" height="34">
		<path d="M156.47 204.227L176.209 204.639L183.619 184.044L190.136 186.339C190.136 186.339 186.794 212.416 183.452 213.966C180.11 215.516 159.754 217.722 159.754 217.722C159.754 217.722 153.422 210.73 156.47 204.227Z" fill="white" />
	</mask>
	<g mask="url(#mask8_6_1664)">
		<path opacity="0.2" d="M163.478 210.141C162.604 208.543 161.412 207.141 159.976 206.021C158.54 204.901 156.89 204.087 155.128 203.629C158.156 205.591 159.959 209.514 161.145 212.721C161.623 214.02 161.987 215.359 162.233 216.722C166.513 216.712 170.78 216.278 174.974 215.427C171.897 215.261 165.948 214.398 163.478 210.141Z" fill="black" />
	</g>
	<path d="M156.47 204.227L176.209 204.639L183.619 184.044L190.136 186.339C190.136 186.339 186.794 212.416 183.452 213.966C180.11 215.516 159.754 217.722 159.754 217.722C159.754 217.722 153.422 210.73 156.47 204.227Z" stroke="#263238" stroke-linecap="round" stroke-linejoin="round" />
	<path d="M182.452 185.633L190.136 188.251L190.656 184.75L183.383 182.436L182.452 185.633Z" fill="#0BBBEF" stroke="#263238" stroke-linecap="round" stroke-linejoin="round" />
	<path
		d="M193.233 176.267C192.528 176.429 191.799 176.451 191.085 176.331C190.372 176.211 189.69 175.951 189.077 175.567C188.464 175.182 187.933 174.681 187.515 174.091C187.096 173.501 186.798 172.834 186.637 172.128L179.022 138.832L189.803 136.371L197.379 169.666C197.54 170.372 197.56 171.103 197.439 171.816C197.318 172.53 197.057 173.213 196.672 173.826C196.287 174.439 195.786 174.97 195.195 175.389C194.605 175.807 193.939 176.106 193.233 176.267Z"
		fill="white" stroke="#263238" stroke-width="0.75" stroke-linecap="round" stroke-linejoin="round" />
	<path d="M188.161 138.433L181.244 140.017L182.373 144.95L189.29 143.366L188.161 138.433Z" fill="#0BBBEF" />
	<mask id="mask9_6_1664" style="mask-type:luminance" maskUnits="userSpaceOnUse" x="181" y="138" width="9" height="7">
		<path d="M188.162 138.434L181.244 140.017L182.373 144.95L189.29 143.367L188.162 138.434Z" fill="white" />
	</mask>
	<g mask="url(#mask9_6_1664)">
		<path opacity="0.7" d="M188.162 138.434L181.244 140.017L182.373 144.95L189.29 143.367L188.162 138.434Z" fill="white" />
	</g>
	<path d="M189.567 144.537L182.65 146.121L183.778 151.054L190.695 149.47L189.567 144.537Z" fill="#0BBBEF" />
	<mask id="mask10_6_1664" style="mask-type:luminance" maskUnits="userSpaceOnUse" x="182" y="144" width="9" height="8">
		<path d="M189.567 144.538L182.65 146.121L183.779 151.054L190.696 149.471L189.567 144.538Z" fill="white" />
	</mask>
	<g mask="url(#mask10_6_1664)">
		<path opacity="0.3" d="M189.567 144.538L182.65 146.121L183.779 151.054L190.696 149.471L189.567 144.538Z" fill="white" />
	</g>
	<path d="M190.962 150.653L184.045 152.237L185.173 157.17L192.09 155.586L190.962 150.653Z" fill="#0BBBEF" />
	<path d="M192.355 156.748L185.438 158.332L186.567 163.265L193.484 161.681L192.355 156.748Z" fill="#0BBBEF" />
	<mask id="mask11_6_1664" style="mask-type:luminance" maskUnits="userSpaceOnUse" x="185" y="156" width="9" height="8">
		<path d="M192.356 156.748L185.438 158.331L186.567 163.264L193.485 161.681L192.356 156.748Z" fill="white" />
	</mask>
	<g mask="url(#mask11_6_1664)">
		<path opacity="0.2" d="M192.356 156.748L185.438 158.331L186.567 163.264L193.485 161.681L192.356 156.748Z" fill="black" />
	</g>
	<path d="M193.751 162.864L186.834 164.448L187.962 169.381L194.879 167.797L193.751 162.864Z" fill="#0BBBEF" />
	<mask id="mask12_6_1664" style="mask-type:luminance" maskUnits="userSpaceOnUse" x="186" y="162" width="9" height="8">
		<path d="M193.751 162.864L186.834 164.447L187.963 169.38L194.88 167.797L193.751 162.864Z" fill="white" />
	</mask>
	<g mask="url(#mask12_6_1664)">
		<path opacity="0.3" d="M193.751 162.864L186.834 164.447L187.963 169.38L194.88 167.797L193.751 162.864Z" fill="black" />
	</g>
	<path
		d="M183.923 170.382C183.951 170.161 184.042 169.953 184.185 169.782C184.327 169.611 184.516 169.485 184.728 169.418C184.941 169.351 185.168 169.346 185.383 169.404C185.598 169.462 185.792 169.58 185.942 169.745C187.529 170.912 189.862 171.294 189.597 172.02C189.333 172.746 188.725 173.187 186.451 172.265C186.451 172.265 186.049 172.511 186.618 173.246C187.382 174.046 187.905 175.045 188.127 176.129"
		fill="white" />
	<path
		d="M183.923 170.382C183.951 170.161 184.042 169.953 184.185 169.782C184.327 169.611 184.516 169.485 184.728 169.418C184.941 169.351 185.168 169.346 185.383 169.404C185.598 169.462 185.792 169.58 185.942 169.745C187.529 170.912 189.862 171.294 189.597 172.02C189.333 172.746 188.725 173.187 186.451 172.265C186.451 172.265 186.049 172.511 186.618 173.246C187.382 174.046 187.905 175.045 188.127 176.129"
		stroke="#263238" stroke-width="0.75" stroke-linecap="round" stroke-linejoin="round" />
	<path d="M119.727 204.659L125.892 259.815L121.972 276.399C121.972 276.399 126.098 277.331 137.535 273.732C148.973 270.133 161.214 271.211 161.214 271.211C161.214 271.211 166.281 234.493 164.252 223.018C163.1 216.253 160.447 209.832 156.49 204.227C156.49 204.227 134.526 194.616 121.109 201.962C120.637 202.223 120.253 202.619 120.007 203.1C119.761 203.58 119.664 204.123 119.727 204.659Z"
		fill="#0BBBEF" />
	<mask id="mask13_6_1664" style="mask-type:luminance" maskUnits="userSpaceOnUse" x="119" y="199" width="46" height="78">
		<path d="M119.727 204.659L125.892 259.815L121.972 276.399C121.972 276.399 126.098 277.331 137.535 273.732C148.973 270.133 161.214 271.211 161.214 271.211C161.214 271.211 166.281 234.493 164.252 223.018C163.1 216.253 160.447 209.832 156.49 204.227C156.49 204.227 134.526 194.616 121.109 201.962C120.637 202.223 120.253 202.619 120.007 203.1C119.761 203.58 119.664 204.123 119.727 204.659Z"
			fill="white" />
	</mask>
	<g mask="url(#mask13_6_1664)">
		<path opacity="0.12"
			d="M131.478 236.542C131.939 229.677 128.881 218.389 128.881 218.389L126.597 218.693C126.142 225.337 126.201 232.006 126.774 238.641C127.009 241.299 128.411 244.065 128.322 246.703C128.244 249.047 126.901 250.626 125.764 252.587C125.568 252.921 125.392 253.254 125.196 253.568C125.756 254.439 125.976 255.487 125.813 256.51C125.686 257.756 125.48 258.982 125.255 260.198C125.326 260.811 125.286 261.432 125.137 262.032C124.451 264.915 123.843 267.769 123.314 270.682C122.797 272.618 122.395 274.583 122.109 276.566C126.424 276.437 130.713 275.859 134.909 274.84C136.631 274.423 138.304 273.822 139.897 273.045C124.03 275.389 129.469 265.121 129.949 260.855C130.43 256.589 145.748 251.381 146.513 246.722C147.277 242.064 131.008 243.378 131.478 236.542Z"
			fill="black" />
	</g>
	<path d="M119.727 204.659L125.892 259.815L121.972 276.399C121.972 276.399 126.098 277.331 137.535 273.732C148.973 270.133 161.214 271.211 161.214 271.211C161.214 271.211 166.281 234.493 164.252 223.018C163.1 216.253 160.447 209.832 156.49 204.227C156.49 204.227 134.526 194.616 121.109 201.962C120.637 202.223 120.253 202.619 120.007 203.1C119.761 203.58 119.664 204.123 119.727 204.659Z"
		stroke="#263238" stroke-linecap="round" stroke-linejoin="round" />
	<path d="M133.625 199.491L136.516 193.842C139.843 194.966 143.23 195.909 146.66 196.666C152.217 197.882 150.874 199.491 150.874 199.491L149.453 203.776C149.453 203.776 147.267 205.954 133.625 199.491Z" fill="#0BBBEF" stroke="#263238" stroke-linecap="round" stroke-linejoin="round" />
	<path d="M122.883 242.24C122.883 242.24 126.029 239.759 126.803 240.818C127.577 241.877 125.921 241.524 124.676 245.133" stroke="#263238" stroke-linecap="round" stroke-linejoin="round" />
	<path d="M151.09 268.387C150.871 267.238 151.117 266.048 151.773 265.08C152.428 264.111 153.441 263.442 154.589 263.218L181.404 258.06L183.07 266.72L156.255 271.878C155.107 272.1 153.919 271.857 152.95 271.202C151.982 270.547 151.313 269.535 151.09 268.387Z" fill="white" stroke="#263238" stroke-width="0.75" stroke-linecap="round" stroke-linejoin="round" />
	<path d="M181.465 265.381L180.391 259.795L176.416 260.561L177.49 266.146L181.465 265.381Z" fill="#0BBBEF" />
	<mask id="mask14_6_1664" style="mask-type:luminance" maskUnits="userSpaceOnUse" x="176" y="259" width="6" height="8">
		<path d="M181.465 265.381L180.391 259.795L176.416 260.561L177.49 266.146L181.465 265.381Z" fill="white" />
	</mask>
	<g mask="url(#mask14_6_1664)">
		<path opacity="0.7" d="M181.465 265.381L180.391 259.795L176.416 260.561L177.49 266.146L181.465 265.381Z" fill="white" />
	</g>
	<path d="M176.544 266.334L175.47 260.748L171.495 261.514L172.569 267.099L176.544 266.334Z" fill="#0BBBEF" />
	<mask id="mask15_6_1664" style="mask-type:luminance" maskUnits="userSpaceOnUse" x="171" y="260" width="6" height="8">
		<path d="M176.544 266.334L175.47 260.748L171.495 261.514L172.569 267.099L176.544 266.334Z" fill="white" />
	</mask>
	<g mask="url(#mask15_6_1664)">
		<path opacity="0.3" d="M176.544 266.334L175.47 260.748L171.495 261.514L172.569 267.099L176.544 266.334Z" fill="white" />
	</g>
	<path d="M171.621 267.27L170.549 261.693L166.574 262.459L167.646 268.035L171.621 267.27Z" fill="#0BBBEF" />
	<path d="M166.7 268.215L165.628 262.638L161.653 263.404L162.725 268.98L166.7 268.215Z" fill="#0BBBEF" />
	<mask id="mask16_6_1664" style="mask-type:luminance" maskUnits="userSpaceOnUse" x="161" y="262" width="6" height="7">
		<path d="M166.7 268.215L165.628 262.638L161.653 263.404L162.725 268.98L166.7 268.215Z" fill="white" />
	</mask>
	<g mask="url(#mask16_6_1664)">
		<path opacity="0.2" d="M166.7 268.215L165.628 262.638L161.653 263.404L162.725 268.98L166.7 268.215Z" fill="black" />
	</g>
	<path d="M161.779 269.158L160.707 263.582L156.732 264.347L157.804 269.923L161.779 269.158Z" fill="#0BBBEF" />
	<mask id="mask17_6_1664" style="mask-type:luminance" maskUnits="userSpaceOnUse" x="156" y="263" width="6" height="7">
		<path d="M161.779 269.158L160.707 263.582L156.732 264.347L157.804 269.923L161.779 269.158Z" fill="white" />
	</mask>
	<g mask="url(#mask17_6_1664)">
		<path opacity="0.3" d="M161.779 269.158L160.707 263.582L156.732 264.347L157.804 269.923L161.779 269.158Z" fill="black" />
	</g>
	<path
		d="M152.158 269.544C151.778 269.106 151.488 268.598 151.305 268.048C151.121 267.498 151.048 266.917 151.089 266.339C151.13 265.76 151.284 265.196 151.543 264.677C151.803 264.159 152.161 263.696 152.599 263.316L173.239 245.428L179.012 252.097L158.372 269.985C157.935 270.365 157.428 270.655 156.879 270.838C156.33 271.022 155.75 271.095 155.173 271.054C154.596 271.013 154.033 270.859 153.515 270.599C152.998 270.34 152.537 269.982 152.158 269.544Z"
		fill="white" stroke="#263238" stroke-width="0.75" stroke-linecap="round" stroke-linejoin="round" />
	<path d="M176.947 251.739L173.233 247.446L170.173 250.097L173.887 254.39L176.947 251.739Z" fill="#0BBBEF" />
	<mask id="mask18_6_1664" style="mask-type:luminance" maskUnits="userSpaceOnUse" x="170" y="247" width="7" height="8">
		<path d="M176.948 251.739L173.233 247.446L170.173 250.097L173.888 254.39L176.948 251.739Z" fill="white" />
	</mask>
	<g mask="url(#mask18_6_1664)">
		<path opacity="0.7" d="M176.948 251.739L173.233 247.446L170.173 250.097L173.888 254.39L176.948 251.739Z" fill="white" />
	</g>
	<path d="M173.173 255.022L169.451 250.722L166.391 253.374L170.113 257.674L173.173 255.022Z" fill="#0BBBEF" />
	<mask id="mask19_6_1664" style="mask-type:luminance" maskUnits="userSpaceOnUse" x="166" y="250" width="8" height="8">
		<path d="M173.173 255.022L169.451 250.722L166.391 253.374L170.113 257.674L173.173 255.022Z" fill="white" />
	</mask>
	<g mask="url(#mask19_6_1664)">
		<path opacity="0.3" d="M173.173 255.022L169.451 250.722L166.391 253.374L170.113 257.674L173.173 255.022Z" fill="white" />
	</g>
	<path d="M169.374 258.305L165.659 254.012L162.599 256.664L166.314 260.957L169.374 258.305Z" fill="#0BBBEF" />
	<path d="M165.591 261.596L161.877 257.303L158.817 259.954L162.531 264.247L165.591 261.596Z" fill="#0BBBEF" />
	<mask id="mask20_6_1664" style="mask-type:luminance" maskUnits="userSpaceOnUse" x="158" y="257" width="8" height="8">
		<path d="M165.591 261.596L161.877 257.303L158.817 259.954L162.531 264.247L165.591 261.596Z" fill="white" />
	</mask>
	<g mask="url(#mask20_6_1664)">
		<path opacity="0.2" d="M165.591 261.596L161.877 257.303L158.817 259.954L162.531 264.247L165.591 261.596Z" fill="black" />
	</g>
	<path d="M161.807 264.87L158.085 260.57L155.026 263.221L158.747 267.521L161.807 264.87Z" fill="#0BBBEF" />
	<mask id="mask21_6_1664" style="mask-type:luminance" maskUnits="userSpaceOnUse" x="155" y="260" width="7" height="8">
		<path d="M161.806 264.87L158.085 260.57L155.025 263.221L158.746 267.521L161.806 264.87Z" fill="white" />
	</mask>
	<g mask="url(#mask21_6_1664)">
		<path opacity="0.3" d="M161.806 264.87L158.085 260.57L155.025 263.221L158.746 267.521L161.806 264.87Z" fill="black" />
	</g>
	<path d="M152.991 269.701C151.888 269.316 150.984 268.509 150.475 267.457C149.966 266.406 149.894 265.195 150.276 264.091L159.214 238.317L167.535 241.201L158.597 267.023C158.207 268.121 157.397 269.019 156.347 269.521C155.296 270.023 154.089 270.087 152.991 269.701Z" fill="white" stroke="#263238" stroke-width="0.75" stroke-linecap="round" stroke-linejoin="round" />
	<path d="M165.581 241.888L160.21 240.026L158.885 243.853L164.256 245.715L165.581 241.888Z" fill="#0BBBEF" />
	<mask id="mask22_6_1664" style="mask-type:luminance" maskUnits="userSpaceOnUse" x="158" y="240" width="8" height="6">
		<path d="M165.581 241.888L160.21 240.026L158.885 243.853L164.256 245.715L165.581 241.888Z" fill="white" />
	</mask>
	<g mask="url(#mask22_6_1664)">
		<path opacity="0.7" d="M165.581 241.888L160.21 240.026L158.885 243.853L164.256 245.715L165.581 241.888Z" fill="white" />
	</g>
	<path d="M163.927 246.616L158.565 244.757L157.24 248.584L162.602 250.443L163.927 246.616Z" fill="#0BBBEF" />
	<mask id="mask23_6_1664" style="mask-type:luminance" maskUnits="userSpaceOnUse" x="157" y="244" width="7" height="7">
		<path d="M163.927 246.616L158.565 244.757L157.24 248.584L162.602 250.443L163.927 246.616Z" fill="white" />
	</mask>
	<g mask="url(#mask23_6_1664)">
		<path opacity="0.3" d="M163.927 246.616L158.565 244.757L157.24 248.584L162.602 250.443L163.927 246.616Z" fill="white" />
	</g>
	<path d="M162.291 251.35L156.929 249.491L155.604 253.318L160.966 255.177L162.291 251.35Z" fill="#0BBBEF" />
	<path d="M160.664 256.097L155.293 254.235L153.968 258.062L159.339 259.924L160.664 256.097Z" fill="#0BBBEF" />
	<mask id="mask24_6_1664" style="mask-type:luminance" maskUnits="userSpaceOnUse" x="153" y="254" width="8" height="6">
		<path d="M160.664 256.097L155.293 254.235L153.968 258.062L159.339 259.924L160.664 256.097Z" fill="white" />
	</mask>
	<g mask="url(#mask24_6_1664)">
		<path opacity="0.2" d="M160.664 256.097L155.293 254.235L153.968 258.062L159.339 259.924L160.664 256.097Z" fill="black" />
	</g>
	<path d="M159.01 260.825L153.648 258.966L152.323 262.793L157.685 264.652L159.01 260.825Z" fill="#0BBBEF" />
	<mask id="mask25_6_1664" style="mask-type:luminance" maskUnits="userSpaceOnUse" x="152" y="258" width="8" height="7">
		<path d="M159.01 260.825L153.648 258.966L152.323 262.793L157.685 264.652L159.01 260.825Z" fill="white" />
	</mask>
	<g mask="url(#mask25_6_1664)">
		<path opacity="0.3" d="M159.01 260.825L153.648 258.966L152.323 262.793L157.685 264.652L159.01 260.825Z" fill="black" />
	</g>
	<path
		d="M142.69 253.548L150.119 258.972C150.119 258.972 158.548 258.972 160.077 261.277C161.606 263.581 162.037 266.18 160.665 267.112C159.293 268.044 161.381 264.621 157.568 262.885C157.568 262.885 159.528 271.78 156.127 269.877C156.127 269.877 155.686 271.388 154.402 270.005C154.625 268.898 154.459 267.748 153.932 266.749C153.78 266.379 153.535 266.055 153.22 265.807C152.906 265.56 152.534 265.398 152.138 265.337C152.138 265.337 154.53 268.603 152.952 269.495C151.678 270.211 150.992 265.513 149.286 264.984C148.365 264.922 147.475 264.617 146.709 264.101C145.943 263.584 145.328 262.873 144.925 262.041L139.172 258.913L142.69 253.548Z"
		fill="white" stroke="#263238" stroke-linecap="round" stroke-linejoin="round" />
	<path d="M156.422 268.495C156.612 266.839 156.147 265.174 155.128 263.856" stroke="#263238" stroke-width="0.75" stroke-linecap="round" stroke-linejoin="round" />
	<path d="M158.264 261.355C158.264 261.355 158.107 262.032 156.578 261.885C155.451 261.777 153.795 264.052 152.07 263.709" stroke="#263238" stroke-width="0.75" stroke-linecap="round" stroke-linejoin="round" />
	<path d="M121.334 203.139C121.246 203.018 121.126 202.923 120.988 202.864C120.85 202.806 120.699 202.785 120.551 202.805C120.402 202.825 120.262 202.885 120.144 202.978C120.027 203.072 119.937 203.195 119.884 203.335C118.267 207.493 113.935 221.39 116.267 246.026C116.267 246.026 118.139 251.057 140.132 260.668L144.317 254.196L128.058 240.985C128.058 240.985 130.184 223.332 128.577 216.741"
		fill="#0BBBEF" />
	<path d="M121.334 203.139C121.246 203.018 121.126 202.923 120.988 202.864C120.85 202.806 120.699 202.785 120.551 202.805C120.402 202.825 120.262 202.885 120.144 202.978C120.027 203.072 119.937 203.195 119.884 203.335C118.267 207.493 113.935 221.39 116.267 246.026C116.267 246.026 118.139 251.057 140.132 260.668L144.317 254.196L128.058 240.985C128.058 240.985 130.184 223.332 128.577 216.741"
		stroke="#263238" stroke-linecap="round" stroke-linejoin="round" />
	<path d="M143.347 252.705L138.3 260.884L142.259 262.306L146.513 255.157L143.347 252.705Z" fill="#0BBBEF" stroke="#263238" stroke-linecap="round" stroke-linejoin="round" />
	<path d="M54.8259 123.749C54.9141 126.377 55.1885 134.262 55.1885 134.262L70.811 143.638L71.7911 125.769L72.3302 101.251L74.898 97.681C74.898 97.681 78.7399 91.7966 72.3302 89.5115C65.9204 87.2264 67.7042 91.4729 61.3336 92.1889C54.9631 92.9048 40.0266 102.977 46.7892 111.735C53.5518 120.493 54.6691 119.355 54.8259 123.749Z" fill="#999999" />
	<mask id="mask26_6_1664" style="mask-type:luminance" maskUnits="userSpaceOnUse" x="45" y="88" width="32" height="56">
		<path d="M54.8259 123.749C54.9141 126.377 55.1885 134.262 55.1885 134.262L70.811 143.638L71.7911 125.769L72.3302 101.251L74.898 97.681C74.898 97.681 78.7399 91.7966 72.3302 89.5115C65.9204 87.2264 67.7042 91.4729 61.3336 92.1889C54.9631 92.9048 40.0266 102.977 46.7892 111.735C53.5518 120.493 54.6691 119.355 54.8259 123.749Z" fill="white" />
	</mask>
	<g mask="url(#mask26_6_1664)">
		<path d="M60.8141 119.071C61.7293 119.862 62.8276 120.411 64.0092 120.669C64.0092 120.669 66.43 127.534 67.6453 128.456C68.8606 129.378 73.1926 130.114 73.1926 130.114L74.4667 121.062L65.4695 115.177L60.5691 113.706L60.8141 119.071Z" fill="#263238" stroke="#263238" stroke-linecap="round" stroke-linejoin="round" />
	</g>
	<path d="M54.8259 123.749C54.9141 126.377 55.1885 134.262 55.1885 134.262L70.811 143.638L71.7911 125.769L72.3302 101.251L74.898 97.681C74.898 97.681 78.7399 91.7966 72.3302 89.5115C65.9204 87.2264 67.7042 91.4729 61.3336 92.1889C54.9631 92.9048 40.0266 102.977 46.7892 111.735C53.5518 120.493 54.6691 119.355 54.8259 123.749Z" stroke="#263238" stroke-linecap="round" stroke-linejoin="round" />
	<path
		d="M72.3202 101.27L74.888 97.7002C74.888 97.7002 78.73 91.8159 72.3202 89.5308C65.9105 87.2457 67.6942 91.4922 61.3237 92.2082C54.9531 92.9241 40.0265 102.977 46.789 111.734C51.1798 117.462 53.1988 118.962 54.1103 120.561C54.8304 120.098 55.6887 119.898 56.5392 119.997C57.3897 120.095 58.1799 120.485 58.7755 121.1C61.3237 123.641 63.9209 109.449 63.9209 109.449L72.2712 103.516L72.3202 101.27Z"
		fill="#263238" stroke="#263238" stroke-linecap="round" stroke-linejoin="round" />
	<path
		d="M60.9417 110.715C60.9417 110.715 54.6496 110.881 58.0014 115.618C61.3533 120.355 64.862 119.453 64.862 119.453L68.6941 126.76C68.6941 126.76 82.0331 128.643 85.1792 127.74C88.3252 126.838 82.8858 115.834 82.8858 115.834L84.9733 113.441C85.0896 113.31 85.1779 113.157 85.2328 112.99C85.2876 112.824 85.3078 112.648 85.2922 112.474C85.2766 112.299 85.2255 112.129 85.142 111.975C85.0585 111.821 84.9444 111.686 84.8067 111.578L79.8279 107.576C80.2493 105.115 74.8099 97.7103 74.8099 97.7103C74.8099 97.7103 66.734 97.622 65.9891 100.348C65.5321 101.962 65.1624 103.599 64.8816 105.252L60.2948 107.125L60.9417 110.715Z"
		fill="#999999" />
	<mask id="mask27_6_1664" style="mask-type:luminance" maskUnits="userSpaceOnUse" x="57" y="97" width="30" height="31">
		<path
			d="M60.9417 110.715C60.9417 110.715 54.6496 110.881 58.0014 115.618C61.3533 120.355 64.862 119.453 64.862 119.453L68.6941 126.76C68.6941 126.76 82.0331 128.643 85.1792 127.74C88.3252 126.838 82.8858 115.834 82.8858 115.834L84.9733 113.441C85.0896 113.31 85.1779 113.157 85.2328 112.99C85.2876 112.824 85.3078 112.648 85.2922 112.474C85.2766 112.299 85.2255 112.129 85.142 111.975C85.0585 111.821 84.9444 111.686 84.8067 111.578L79.8279 107.576C80.2493 105.115 74.8099 97.7103 74.8099 97.7103C74.8099 97.7103 66.734 97.622 65.9891 100.348C65.5321 101.962 65.1624 103.599 64.8816 105.252L60.2948 107.125L60.9417 110.715Z"
			fill="white" />
	</mask>
	<g mask="url(#mask27_6_1664)">
		<path opacity="0.3"
			d="M64.0093 103.31L64.9894 105.272C64.9894 105.272 69.0274 108.037 69.243 109.528C69.5174 111.49 67.4298 112.843 71.6932 117.011C75.9566 121.179 80.0435 116.334 83.0132 115.824C85.9828 115.315 88.4526 122.886 88.4526 122.886L88.1194 129.751L71.6932 130.261L68.1355 128.054L63.4801 120.208C63.4801 120.208 68.5275 119.757 66.0087 115.305C62.5196 109.156 58.4425 110.028 58.4425 110.028L55.6296 107.528L62.8627 102.32L64.0093 103.31Z"
			fill="black" />
	</g>
	<path
		d="M60.9417 110.715C60.9417 110.715 54.6496 110.881 58.0014 115.618C61.3533 120.355 64.862 119.453 64.862 119.453L68.6941 126.76C68.6941 126.76 82.0331 128.643 85.1792 127.74C88.3252 126.838 82.8858 115.834 82.8858 115.834L84.9733 113.441C85.0896 113.31 85.1779 113.157 85.2328 112.99C85.2876 112.824 85.3078 112.648 85.2922 112.474C85.2766 112.299 85.2255 112.129 85.142 111.975C85.0585 111.821 84.9444 111.686 84.8067 111.578L79.8279 107.576C80.2493 105.115 74.8099 97.7103 74.8099 97.7103C74.8099 97.7103 66.734 97.622 65.9891 100.348C65.5321 101.962 65.1624 103.599 64.8816 105.252L60.2948 107.125L60.9417 110.715Z"
		stroke="#263238" stroke-linecap="round" stroke-linejoin="round" />
	<path d="M78.6819 108.224C78.9369 108.979 78.8977 109.685 78.5839 109.793C78.27 109.901 77.8091 109.371 77.5541 108.606C77.2991 107.841 77.3482 107.155 77.6522 107.047C77.9562 106.939 78.4073 107.469 78.6819 108.224Z" fill="#263238" />
	<path d="M77.4266 104.673C77.4266 104.673 75.1332 104.163 74.4863 107.312" stroke="#263238" stroke-linecap="round" stroke-linejoin="round" />
	<path d="M81.9839 117.364C81.9839 117.364 81.1901 119.581 78.1616 118.463" stroke="#263238" stroke-linecap="round" stroke-linejoin="round" />
	<path
		d="M137.3 116.943C138.28 117.364 138.358 119.139 138.358 119.139C140.456 118.286 139.946 121.954 139.946 121.954C142.288 121.395 140.436 125.132 140.436 125.132C140.436 125.132 141.955 125.818 140.554 127.328C138.711 129.29 132.478 132.33 132.478 132.33L124.519 139.431L118.982 134.076L126.96 127.534C126.96 127.534 127.342 125.406 127.842 122.631C127.842 122.631 128.577 119.218 130.341 117.423C132.105 115.628 136.231 116.521 137.3 116.943Z"
		fill="#999999" stroke="#263238" stroke-linecap="round" stroke-linejoin="round" />
	<path d="M135.8 118.943C135.8 118.943 134.713 124.141 137.398 120.14C137.398 120.14 135.144 125.867 138.898 122.68C138.898 122.68 135.026 126.691 138.711 125.553C138.711 125.553 136.967 126.299 136.83 127.162C136.692 128.025 138.427 127.75 138.427 127.75" fill="#999999" />
	<path d="M135.8 118.943C135.8 118.943 134.713 124.141 137.398 120.14C137.398 120.14 135.144 125.867 138.898 122.68C138.898 122.68 135.026 126.691 138.711 125.553C138.711 125.553 136.967 126.299 136.83 127.162C136.692 128.025 138.427 127.75 138.427 127.75" stroke="#263238" stroke-linecap="round" stroke-linejoin="round" />
	<path d="M54.4338 160.84C54.4338 160.84 68.6156 164.145 98.9982 159.663C98.9982 159.663 122.334 147.463 128.293 136.233L122.755 129.868L94.088 145.972C94.088 145.972 64.2347 141.363 58.707 142.049L54.4338 160.84Z" fill="#263238" stroke="#263238" stroke-linecap="round" stroke-linejoin="round" />
	<path d="M177.447 84.5747L129.556 93.0334L135.837 128.643L183.728 120.184L177.447 84.5747Z" fill="#76B9CD" stroke="#263238" stroke-width="0.75" stroke-linecap="round" stroke-linejoin="round" />
	<path fill-rule="evenodd" clip-rule="evenodd"
		d="M172.889 90.8287C172.947 90.8104 172.979 90.7448 172.961 90.682C172.942 90.6193 172.88 90.5832 172.822 90.6014L169.808 91.5425L169.661 91.5067C169.601 91.4921 169.543 91.5318 169.531 91.5955L169.493 91.7884C169.487 91.8206 169.494 91.8529 169.51 91.8787L168.101 94.8254L167.894 92.9942L167.9 92.9911C167.982 92.9449 168.013 92.8348 167.968 92.7453L167.907 92.6247C167.872 92.557 167.794 92.5304 167.731 92.5654L167.617 92.629C167.541 92.6712 167.51 92.7668 167.539 92.8512L164.972 96.7069C164.937 96.7595 164.949 96.8336 165 96.8723C165.05 96.911 165.119 96.8997 165.154 96.8471L167.678 93.0551L167.899 95.0094L167.834 95.067C167.783 95.1117 167.777 95.1929 167.821 95.2479L167.942 95.4018C167.985 95.4565 168.061 95.4646 168.112 95.4197L168.247 95.2988C168.295 95.2558 168.303 95.1793 168.264 95.1244L168.232 95.078L169.72 91.9646L169.765 91.9756C169.825 91.9903 169.884 91.9505 169.896 91.8868L169.921 91.7552L172.889 90.8287Z"
		fill="url(#paint0_linear_6_1664)" />
	<path d="M168.058 98.7442L168.047 98.6797L167.817 98.7209L167.906 99.2154L167.983 99.2015L167.906 98.7715L168.058 98.7442Z" fill="white" />
	<path
		d="M168.561 99.0955L168.553 99.05C168.516 99.0578 168.505 99.0326 168.498 98.9967L168.465 98.8097C168.447 98.7125 168.43 98.5977 168.293 98.6224C168.215 98.6365 168.158 98.6597 168.126 98.6764L168.138 98.7398C168.173 98.7215 168.216 98.7039 168.26 98.696C168.309 98.6871 168.361 98.6788 168.379 98.7771L168.387 98.8235L168.326 98.8346C168.206 98.8562 168.135 98.9114 168.159 99.0445C168.177 99.1459 168.251 99.1676 168.31 99.1569C168.358 99.1483 168.4 99.1179 168.43 99.0514C168.43 99.0514 168.45 99.122 168.498 99.1134C168.533 99.1071 168.553 99.0992 168.561 99.0955ZM168.415 98.9799C168.415 98.9799 168.389 99.0709 168.315 99.0841C168.271 99.092 168.245 99.0662 168.235 99.0124C168.219 98.9257 168.271 98.9011 168.332 98.8902L168.397 98.8785L168.415 98.9799Z"
		fill="white" />
	<path
		d="M168.954 98.7543C168.929 98.6159 168.866 98.5226 168.75 98.5435C168.666 98.5586 168.632 98.6246 168.632 98.6246L168.617 98.5772L168.546 98.5898L168.676 99.3114L168.753 99.2975L168.71 99.0577C168.735 99.0664 168.772 99.0696 168.812 99.0624C168.9 99.0464 168.99 98.9572 168.954 98.7543ZM168.874 98.7687C168.903 98.9325 168.867 98.9925 168.793 99.0057C168.738 99.0157 168.697 98.9869 168.697 98.9869L168.646 98.7038C168.646 98.7038 168.658 98.6286 168.74 98.6139C168.824 98.5988 168.86 98.6927 168.874 98.7687Z"
		fill="white" />
	<path
		d="M169.443 98.937L169.435 98.8916C169.398 98.8993 169.387 98.8741 169.38 98.8382L169.347 98.6512C169.329 98.554 169.313 98.4392 169.175 98.464C169.097 98.478 169.041 98.5012 169.009 98.5179L169.02 98.5813C169.055 98.563 169.098 98.5454 169.142 98.5376C169.192 98.5286 169.244 98.5204 169.261 98.6186L169.27 98.6651L169.208 98.6761C169.088 98.6977 169.018 98.753 169.041 98.8861C169.06 98.9875 169.133 99.0092 169.193 98.9985C169.24 98.9899 169.282 98.9595 169.313 98.8929C169.313 98.8929 169.332 98.9635 169.38 98.9549C169.415 98.9486 169.435 98.9407 169.443 98.937ZM169.298 98.8214C169.298 98.8214 169.271 98.9125 169.198 98.9256C169.154 98.9335 169.127 98.9078 169.117 98.8539C169.102 98.7673 169.154 98.7427 169.214 98.7318L169.28 98.72L169.298 98.8214Z"
		fill="white" />
	<path d="M169.857 98.8645L169.768 98.3701L169.691 98.384L169.728 98.59L169.543 98.6233L169.506 98.4173L169.428 98.4312L169.517 98.9256L169.594 98.9117L169.553 98.6825L169.739 98.6491L169.78 98.8784L169.857 98.8645Z" fill="white" />
	<path d="M170.175 98.3636L170.164 98.2991L169.837 98.3579L169.848 98.4224L169.973 98.3999L170.05 98.8299L170.127 98.816L170.05 98.386L170.175 98.3636Z" fill="white" />
	<path d="M170.676 98.7176L170.587 98.2221L170.505 98.2368L170.377 98.6557L170.308 98.2733L170.231 98.2872L170.32 98.7816L170.402 98.7669L170.53 98.3479L170.599 98.7314L170.676 98.7176Z" fill="white" />
	<path
		d="M171.09 98.6432L171.002 98.1509C170.976 98.1523 170.922 98.1533 170.872 98.1623C170.801 98.1751 170.687 98.2162 170.711 98.3493C170.729 98.4497 170.809 98.4592 170.842 98.461L170.843 98.4674C170.817 98.4927 170.804 98.5038 170.785 98.5848L170.756 98.7034L170.846 98.6871L170.864 98.5815C170.88 98.4859 170.909 98.4686 170.944 98.4623L170.977 98.4564L171.013 98.6571L171.09 98.6432ZM170.968 98.4067L170.917 98.4158C170.827 98.4321 170.799 98.3782 170.791 98.3349C170.776 98.2483 170.834 98.2302 170.876 98.2227C170.898 98.2186 170.934 98.2176 170.934 98.2176L170.968 98.4067Z"
		fill="white" />
	<path
		d="M171.742 98.2534C171.717 98.115 171.654 98.0216 171.537 98.0425C171.454 98.0576 171.42 98.1236 171.42 98.1236L171.404 98.0762L171.334 98.0889L171.464 98.8104L171.541 98.7966L171.498 98.5567C171.523 98.5654 171.559 98.5686 171.599 98.5614C171.688 98.5454 171.778 98.4562 171.742 98.2534ZM171.662 98.2678C171.691 98.4315 171.654 98.4915 171.581 98.5047C171.526 98.5147 171.485 98.486 171.485 98.486L171.434 98.2028C171.434 98.2028 171.446 98.1277 171.528 98.1129C171.612 98.0978 171.648 98.1917 171.662 98.2678Z"
		fill="white" />
	<path
		d="M172.194 98.1916C172.154 97.9687 172.032 97.9535 171.959 97.9666C171.889 97.9793 171.777 98.0354 171.817 98.2593C171.848 98.4336 171.943 98.505 172.048 98.4861C172.153 98.4673 172.225 98.3659 172.194 98.1916ZM172.114 98.206C172.138 98.3402 172.11 98.4128 172.041 98.4251C171.977 98.4367 171.921 98.3791 171.897 98.245C171.864 98.0601 171.927 98.0346 171.97 98.0269C172.011 98.0195 172.08 98.0211 172.114 98.206Z"
		fill="white" />
	<path
		d="M172.588 98.3594L172.576 98.2928C172.561 98.3076 172.526 98.3249 172.505 98.3285C172.422 98.3435 172.373 98.2978 172.349 98.1636C172.317 97.9862 172.385 97.9564 172.432 97.948C172.455 97.9438 172.498 97.9438 172.514 97.9463L172.502 97.8776C172.486 97.8773 172.456 97.8771 172.414 97.8846C172.338 97.8983 172.229 97.9593 172.269 98.178C172.3 98.3513 172.38 98.4209 172.487 98.4016C172.556 98.3891 172.578 98.3668 172.588 98.3594Z"
		fill="white" />
	<path d="M172.885 97.8765L172.873 97.8121L172.546 97.8708L172.558 97.9353L172.683 97.9128L172.76 98.3428L172.837 98.329L172.76 97.899L172.885 97.8765Z" fill="white" />
	<path
		d="M173.386 98.228L173.378 98.1826C173.341 98.1903 173.33 98.1652 173.323 98.1292L173.29 97.9422C173.272 97.845 173.256 97.7303 173.118 97.755C173.04 97.769 172.984 97.7922 172.951 97.8089L172.963 97.8723C172.998 97.854 173.041 97.8365 173.085 97.8286C173.135 97.8196 173.187 97.8114 173.204 97.9096L173.213 97.9561L173.151 97.9672C173.031 97.9887 172.96 98.044 172.984 98.1771C173.002 98.2785 173.076 98.3002 173.135 98.2895C173.183 98.2809 173.225 98.2505 173.256 98.184C173.256 98.184 173.275 98.2546 173.323 98.246C173.358 98.2396 173.378 98.2317 173.386 98.228ZM173.241 98.1125C173.241 98.1125 173.214 98.2035 173.141 98.2166C173.097 98.2245 173.07 98.1988 173.06 98.1449C173.045 98.0583 173.097 98.0337 173.157 98.0228L173.222 98.011L173.241 98.1125Z"
		fill="white" />
	<path d="M170.13 90.5481C170.117 90.5386 170.114 90.5202 170.122 90.5069L170.28 90.2631C170.288 90.2498 170.305 90.2467 170.318 90.2562L170.55 90.43C170.563 90.4394 170.566 90.4579 170.558 90.4712L170.4 90.715C170.392 90.7283 170.375 90.7314 170.362 90.7219L170.13 90.5481Z" fill="white" />
	<path fill-rule="evenodd" clip-rule="evenodd"
		d="M169.415 89.2505C169.476 89.2058 169.55 89.1872 169.624 89.1942C169.705 89.2019 169.824 89.2138 169.867 89.2207C169.933 89.2313 170.065 89.2566 170.19 89.2817C170.437 89.3314 170.809 89.4212 170.86 89.4334L170.86 89.4335L170.862 89.4338C170.863 89.434 170.865 89.4344 170.867 89.4348C170.869 89.4351 170.872 89.4357 170.876 89.4367C170.876 89.4367 170.876 89.4368 170.876 89.4368L172.038 89.7599L173.308 90.1316C173.349 90.1436 173.374 90.1884 173.363 90.2317C173.353 90.275 173.312 90.3004 173.271 90.2885L172.003 89.9171L172.002 89.9169L170.842 89.5945C170.842 89.5945 170.842 89.5945 170.841 89.5944C170.841 89.5943 170.839 89.594 170.838 89.5937C170.836 89.5935 170.834 89.593 170.831 89.5923C170.784 89.5809 170.411 89.4909 170.165 89.4416C170.04 89.4165 169.911 89.3917 169.848 89.3816C169.811 89.3756 169.697 89.3642 169.614 89.3562C169.573 89.3524 169.534 89.3627 169.503 89.3857C169.454 89.4209 169.394 89.4671 169.352 89.506C169.272 89.5792 169.09 89.7569 169.071 89.775C169.07 89.7764 169.068 89.7776 169.067 89.7789L168.719 90.106L166.146 92.4237L164.597 96.8885L164.597 96.8886C164.592 96.9036 164.583 96.917 164.572 96.9276L163.436 98.0027L163.471 98.9238L164.776 97.4054C164.809 97.3669 164.865 97.3629 164.904 97.3962L166.151 98.454L166.201 97.9084C166.205 97.8638 166.242 97.8321 166.284 97.8375C166.326 97.8429 166.356 97.8834 166.352 97.928L166.292 98.5841C166.285 98.663 166.199 98.7005 166.14 98.6505L164.854 97.5586L163.489 99.1456C163.433 99.2116 163.328 99.1686 163.324 99.078L163.282 97.9766C163.281 97.9467 163.292 97.9182 163.313 97.8986L164.459 96.8146L166.016 92.325L168.618 89.9817L168.965 89.6557C168.965 89.6552 168.966 89.6548 168.966 89.6543C168.966 89.6541 168.967 89.6538 168.967 89.6536C168.985 89.6361 169.169 89.4567 169.25 89.3819C169.299 89.3366 169.366 89.2862 169.415 89.2505ZM164.469 96.8048C164.469 96.8047 164.469 96.8047 164.469 96.8047L164.469 96.8048ZM173.438 90.8672C173.475 90.8896 173.489 90.9393 173.468 90.9783L173.101 91.6932L171.399 93.5061L168.995 94.2366C168.955 94.2489 168.912 94.2237 168.9 94.1805C168.888 94.1372 168.91 94.0923 168.95 94.0801L171.317 93.3607L172.977 91.5926L173.335 90.8973C173.355 90.8584 173.401 90.8449 173.438 90.8672ZM172.737 91.1994C172.767 91.2309 172.769 91.2824 172.74 91.3145L171.161 93.074L169.371 93.6519C169.331 93.6648 169.288 93.6404 169.275 93.5974C169.262 93.5543 169.284 93.509 169.324 93.4961L171.077 92.9301L172.629 91.2004C172.658 91.1684 172.706 91.1679 172.737 91.1994ZM171.686 91.4767C171.718 91.5059 171.723 91.5572 171.697 91.5914L170.85 92.6804L169.786 93.0202C169.746 93.0329 169.703 93.0084 169.69 92.9653C169.677 92.9223 169.699 92.877 169.739 92.8642L170.76 92.5381L171.579 91.4857C171.605 91.4515 171.653 91.4475 171.686 91.4767ZM167.698 94.8799C167.725 94.9153 167.721 94.9664 167.688 94.9941L166.108 96.3429C166.075 96.3706 166.027 96.3644 166 96.329C165.974 96.2937 165.978 96.2426 166.011 96.2148L167.591 94.8661C167.624 94.8383 167.672 94.8445 167.698 94.8799Z"
		fill="white" />
	<path fill-rule="evenodd" clip-rule="evenodd"
		d="M167.671 95.3658C167.264 95.5461 167.021 96.0145 167.109 96.5062L167.258 97.3342C167.36 97.9043 167.87 98.2897 168.396 98.1951L168.794 98.1235C169.321 98.0289 169.664 97.49 169.562 96.9199L169.413 96.0919C169.326 95.6034 168.939 95.2505 168.499 95.219L168.625 95.9197C168.721 95.9752 168.794 96.0756 168.816 96.1992L168.965 97.0273C169.003 97.2403 168.875 97.4416 168.678 97.477L168.28 97.5485C168.083 97.5839 167.893 97.4399 167.855 97.2269L167.706 96.3988C167.683 96.2713 167.72 96.1479 167.796 96.0619L167.671 95.3658ZM170.265 94.9318L169.668 95.0391L170.183 97.909L170.78 97.8016L170.714 97.433L171.379 97.3134C172.015 97.199 172.431 96.5476 172.307 95.8585C172.184 95.1694 171.565 94.698 170.929 94.8124L170.265 94.9318ZM170.382 95.584L170.598 96.7864L171.263 96.6668C171.57 96.6117 171.77 96.2979 171.71 95.9658C171.651 95.6338 171.354 95.4093 171.047 95.4644L170.382 95.584ZM175.743 93.9469L175.146 94.0542L175.661 96.924L176.258 96.8167L175.743 93.9469ZM172.444 94.5401L172.56 95.1867L173.419 95.0322L173.818 97.2555L174.415 97.1481L174.016 94.9249L174.875 94.7705L174.758 94.1239L173.9 94.2783L173.303 94.3857L172.444 94.5401Z"
		fill="white" />
	<path
		d="M175.199 93.0927L175.354 93.0649C175.361 93.0635 175.369 93.0656 175.375 93.0705L175.611 93.2559C175.617 93.2605 175.621 93.2673 175.622 93.275L175.651 93.4359C175.653 93.4439 175.651 93.452 175.647 93.4585L175.488 93.701C175.484 93.7074 175.478 93.7118 175.47 93.7131L175.315 93.7411C175.307 93.7424 175.3 93.7406 175.294 93.7361L175.059 93.5643C175.053 93.5597 175.048 93.5526 175.047 93.5446L175.018 93.3837C175.016 93.3761 175.018 93.3682 175.022 93.3618L175.18 93.1055C175.184 93.0987 175.191 93.0941 175.199 93.0927Z"
		fill="white" />
	<path d="M138.073 93.9002L133.054 94.7866L133.712 98.5146L138.731 97.6282L138.073 93.9002Z" fill="#263238" stroke="#263238" stroke-linecap="round" stroke-linejoin="round" />
	<path
		d="M132.429 116.962C132.624 116.767 132.871 116.631 133.141 116.572C133.411 116.512 133.692 116.531 133.951 116.626C134.21 116.721 134.437 116.887 134.605 117.107C134.773 117.326 134.875 117.589 134.899 117.864C135.595 120.198 138.603 121.365 137.78 121.866C136.957 122.366 135.065 123.347 133.507 120.728C133.507 120.728 132.929 120.669 132.968 121.797C133.017 123.17 132.968 124.886 132.292 125.769"
		fill="#999999" />
	<path
		d="M132.429 116.962C132.624 116.767 132.871 116.631 133.141 116.572C133.411 116.512 133.692 116.531 133.951 116.626C134.21 116.721 134.437 116.887 134.605 117.107C134.773 117.326 134.875 117.589 134.899 117.864C135.595 120.198 138.603 121.365 137.78 121.866C136.957 122.366 135.065 123.347 133.507 120.728C133.507 120.728 132.929 120.669 132.968 121.797C133.017 123.17 132.968 124.886 132.292 125.769"
		stroke="#263238" stroke-linecap="round" stroke-linejoin="round" />
	<path
		d="M24.1297 355.839C21.5693 359.127 19.7685 362.942 18.8568 367.009C18.7651 367.411 18.7552 367.828 18.8275 368.234C18.8999 368.64 19.053 369.028 19.2779 369.373C19.5028 369.719 19.7948 370.016 20.1367 370.247C20.4785 370.478 20.8632 370.637 21.2678 370.716L41.1635 374.776C45.5347 375.679 52.2287 375.492 55.61 375.326C56 375.311 56.3825 375.214 56.732 375.04C57.0814 374.866 57.3898 374.62 57.6366 374.317C57.8833 374.015 58.0627 373.663 58.1628 373.286C58.2629 372.908 58.2814 372.514 58.217 372.128C58.0321 371.374 57.6772 370.671 57.1795 370.075C56.6818 369.478 56.0545 369.003 55.3453 368.686C50.6409 366.077 39.4582 364.322 34.8518 357.251L24.1297 355.839Z"
		fill="#263238" stroke="#263238" stroke-linecap="round" stroke-linejoin="round" />
	<path d="M83.4542 233.355C83.4542 233.355 72.9869 262.453 59.5891 290.296C59.5891 290.296 56.9919 302.536 51.1408 310.892L36.4395 357.859C36.4395 357.859 29.9906 360.516 22.3459 355.897C22.3459 355.897 25.9919 325.848 35.3124 304.046L40.8107 286.775L47.6713 251.999C47.6713 251.999 41.8594 241.936 43.4079 227.167L69.2135 226.813L83.4542 233.355Z" fill="#0BBBEF" />
	<mask id="mask28_6_1664" style="mask-type:luminance" maskUnits="userSpaceOnUse" x="22" y="226" width="62" height="133">
		<path d="M83.4542 233.355C83.4542 233.355 72.9869 262.453 59.5891 290.296C59.5891 290.296 56.9919 302.536 51.1408 310.892L36.4395 357.859C36.4395 357.859 29.9906 360.516 22.3459 355.897C22.3459 355.897 25.9919 325.848 35.3124 304.046L40.8107 286.775L47.6713 251.999C47.6713 251.999 41.8594 241.936 43.4079 227.167L69.2135 226.813L83.4542 233.355Z" fill="white" />
	</mask>
	<g mask="url(#mask28_6_1664)">
		<path opacity="0.2"
			d="M50.3177 228.804C48.5829 229.785 46.9364 230.893 45.1722 231.815C44.2544 232.256 43.3671 232.757 42.5162 233.316C42.575 233.316 42.4574 233.404 42.3398 233.512C42.3575 233.672 42.3575 233.833 42.3398 233.993C42.2908 234.29 42.2052 234.58 42.085 234.856C42.5415 235.301 42.8922 235.843 43.111 236.443C43.3299 237.042 43.4113 237.683 43.3493 238.318C43.3493 238.769 43.3493 239.22 43.2709 239.671L43.3983 239.867C43.9694 241.139 44.3555 242.487 44.545 243.868C44.9604 245.926 45.6424 247.921 46.5737 249.802C46.772 250.238 46.9199 250.695 47.0148 251.165L47.6714 251.999C47.6714 251.999 54.0224 294.523 58.7562 293.572C63.49 292.621 66.5968 269.966 66.5968 269.966L50.3177 228.804Z"
			fill="black" />
	</g>
	<path d="M83.4542 233.355C83.4542 233.355 72.9869 262.453 59.5891 290.296C59.5891 290.296 56.9919 302.536 51.1408 310.892L36.4395 357.859C36.4395 357.859 29.9906 360.516 22.3459 355.897C22.3459 355.897 25.9919 325.848 35.3124 304.046L40.8107 286.775L47.6713 251.999C47.6713 251.999 41.8594 241.936 43.4079 227.167L69.2135 226.813L83.4542 233.355Z" stroke="#263238" stroke-linecap="round"
		stroke-linejoin="round" />
	<path
		d="M68.6058 360.507C68.6058 360.507 65.4695 364.695 65.3029 372.168C65.299 372.601 65.3811 373.031 65.5445 373.433C65.7079 373.834 65.9492 374.199 66.2546 374.507C66.56 374.814 66.9234 375.058 67.3236 375.224C67.7238 375.389 68.153 375.474 68.5862 375.473H90.148C94.8818 375.473 101.791 373.855 105.271 372.962C105.676 372.861 106.055 372.675 106.383 372.416C106.71 372.157 106.979 371.831 107.171 371.46C107.363 371.088 107.474 370.681 107.496 370.263C107.518 369.846 107.451 369.429 107.299 369.039C106.94 368.302 106.42 367.654 105.777 367.145C105.134 366.635 104.385 366.277 103.585 366.097C98.1357 364.4 86.1493 364.959 79.8571 358.594L68.6058 360.507Z"
		fill="#263238" stroke="#263238" stroke-linecap="round" stroke-linejoin="round" />
	<path d="M81.592 224.391C81.592 224.391 85.9142 255.686 81.592 286.315C81.592 286.315 81.8567 299.064 78.7988 308.773L81.2392 359.055C81.2392 359.055 75.9958 363.135 67.322 361.095C67.322 361.095 58.3935 329.447 60.4614 306.733L59.4814 288.609L52.5326 251.067C52.5326 251.067 44.5645 245.183 41.5654 230.648L66.0675 222.479L81.592 224.391Z" fill="#0BBBEF" stroke="#263238" stroke-linecap="round"
		stroke-linejoin="round" />
	<path d="M52.7873 133.428C52.7873 133.428 42.075 141.598 40.5363 162.017C38.9976 182.436 35.6947 225.058 42.3298 236.287C42.3298 236.287 48.7004 224.823 83.1405 229.422C83.1405 229.422 86.708 212.318 81.347 178.885C75.9859 145.452 69.8702 137.008 52.7873 133.428Z" fill="#263238" stroke="#263238" stroke-linecap="round" stroke-linejoin="round" />
	<path d="M52.7874 134.448L53.7674 128.074C58.9109 128.34 63.8304 130.263 67.7924 133.556C72.3498 137.4 73.7905 141.088 70.4681 145.423L52.7874 135.213V134.448Z" fill="#263238" stroke="#263238" stroke-linecap="round" stroke-linejoin="round" />
	<path d="M70.2328 143.03C66.4986 138.195 61.7256 135.616 55.2571 133.978" stroke="#7F7F7F" stroke-width="0.75" stroke-linecap="round" stroke-linejoin="round" />
	<path d="M78.5047 163.37C76.6916 155.701 74.653 150.013 72.0852 145.717" stroke="#7F7F7F" stroke-width="0.75" stroke-linecap="round" stroke-linejoin="round" />
	<path d="M107.817 206.951L59.1858 207.019L59.2362 243.179L107.868 243.111L107.817 206.951Z" fill="#999999" stroke="#263238" stroke-width="0.75" stroke-linecap="round" stroke-linejoin="round" />
	<path d="M67.4316 209.342L62.3352 209.349L62.3405 213.135L67.4369 213.128L67.4316 209.342Z" fill="#263238" stroke="#263238" stroke-linecap="round" stroke-linejoin="round" />
	<path d="M67.1162 235.307L78.6224 217.673L90.1678 235.268L67.1162 235.307Z" fill="#0BBBEF" />
	<mask id="mask29_6_1664" style="mask-type:luminance" maskUnits="userSpaceOnUse" x="67" y="217" width="24" height="19">
		<path d="M67.1162 235.307L78.6224 217.673L90.1678 235.268L67.1162 235.307Z" fill="white" />
	</mask>
	<g mask="url(#mask29_6_1664)">
		<path opacity="0.5" d="M67.1162 235.307L78.6224 217.673L90.1678 235.268L67.1162 235.307Z" fill="white" />
	</g>
	<path d="M67.1162 235.307L78.6224 217.673L90.1678 235.268L67.1162 235.307Z" stroke="#263238" stroke-width="0.75" stroke-linecap="round" stroke-linejoin="round" />
	<path d="M82.3467 235.287L91.1282 221.822L99.949 235.258L82.3467 235.287Z" fill="#0BBBEF" stroke="#263238" stroke-width="0.75" stroke-linecap="round" stroke-linejoin="round" />
	<path
		d="M90.0795 217.654C90.0795 218.236 89.907 218.804 89.584 219.288C89.2609 219.772 88.8017 220.149 88.2644 220.372C87.7271 220.595 87.136 220.653 86.5656 220.539C85.9953 220.426 85.4714 220.146 85.0602 219.734C84.649 219.323 84.3689 218.798 84.2555 218.228C84.142 217.657 84.2003 217.065 84.4228 216.528C84.6453 215.99 85.0222 215.531 85.5057 215.207C85.9892 214.884 86.5577 214.711 87.1392 214.711C87.919 214.711 88.6669 215.021 89.2183 215.573C89.7697 216.125 90.0795 216.873 90.0795 217.654Z"
		fill="#0BBBEF" />
	<mask id="mask30_6_1664" style="mask-type:luminance" maskUnits="userSpaceOnUse" x="84" y="214" width="7" height="7">
		<path
			d="M90.0795 217.654C90.0795 218.236 89.907 218.804 89.584 219.288C89.2609 219.772 88.8017 220.149 88.2644 220.372C87.7271 220.595 87.136 220.653 86.5656 220.539C85.9953 220.426 85.4714 220.146 85.0602 219.734C84.649 219.323 84.3689 218.798 84.2555 218.228C84.142 217.657 84.2003 217.065 84.4228 216.528C84.6453 215.99 85.0222 215.531 85.5057 215.207C85.9892 214.884 86.5577 214.711 87.1392 214.711C87.919 214.711 88.6669 215.021 89.2183 215.573C89.7697 216.125 90.0795 216.873 90.0795 217.654Z"
			fill="white" />
	</mask>
	<g mask="url(#mask30_6_1664)">
		<path opacity="0.7"
			d="M90.0795 217.654C90.0795 218.236 89.907 218.804 89.584 219.288C89.2609 219.772 88.8017 220.149 88.2644 220.372C87.7271 220.595 87.136 220.653 86.5656 220.539C85.9953 220.426 85.4714 220.146 85.0602 219.734C84.649 219.323 84.3689 218.798 84.2555 218.228C84.142 217.657 84.2003 217.065 84.4228 216.528C84.6453 215.99 85.0222 215.531 85.5057 215.207C85.9892 214.884 86.5577 214.711 87.1392 214.711C87.919 214.711 88.6669 215.021 89.2183 215.573C89.7697 216.125 90.0795 216.873 90.0795 217.654Z"
			fill="white" />
	</g>
	<path
		d="M90.0795 217.654C90.0795 218.236 89.907 218.804 89.5839 219.288C89.2609 219.772 88.8017 220.149 88.2644 220.372C87.7271 220.595 87.136 220.653 86.5656 220.539C85.9953 220.426 85.4714 220.146 85.0602 219.734C84.649 219.323 84.3689 218.798 84.2555 218.228C84.142 217.657 84.2003 217.065 84.4228 216.528C84.6453 215.99 85.0222 215.531 85.5057 215.207C85.9892 214.884 86.5577 214.711 87.1392 214.711C87.919 214.711 88.6669 215.021 89.2183 215.573C89.7697 216.125 90.0795 216.873 90.0795 217.654Z"
		stroke="#263238" stroke-width="0.75" stroke-linecap="round" stroke-linejoin="round" />
	<path d="M105.263 203.985L57.0447 210.32L61.7488 246.172L109.967 239.837L105.263 203.985Z" fill="white" stroke="#263238" stroke-width="0.75" stroke-linecap="round" stroke-linejoin="round" />
	<path fill-rule="evenodd" clip-rule="evenodd"
		d="M93.1352 215.918C93.3029 215.874 93.403 215.692 93.3588 215.512C93.3146 215.332 93.1429 215.221 92.9752 215.265L84.3127 217.539L83.9028 217.419C83.7349 217.369 83.5639 217.474 83.5208 217.653L83.3902 218.195C83.3684 218.286 83.3837 218.378 83.4258 218.453L79.0506 226.619L78.7022 221.403L78.7185 221.395C78.959 221.275 79.0594 220.967 78.9428 220.708L78.7857 220.358C78.6974 220.162 78.4784 220.076 78.2963 220.167L77.9648 220.332C77.7451 220.442 77.6423 220.709 77.7152 220.952L69.9406 231.542C69.8344 231.686 69.8595 231.898 69.9966 232.014C70.1336 232.13 70.3308 232.107 70.437 231.963L78.0832 221.548L78.455 227.114L78.2624 227.268C78.1128 227.388 78.0853 227.618 78.2012 227.779L78.5255 228.231C78.6409 228.392 78.8545 228.424 79.0028 228.304L79.4023 227.979C79.5444 227.863 79.5756 227.648 79.4736 227.487L79.3874 227.351L84.0102 218.724L84.1359 218.761C84.3039 218.81 84.475 218.705 84.518 218.526L84.6072 218.157L93.1352 215.918Z"
		fill="url(#paint1_linear_6_1664)" />
	<path d="M78.4189 237.717L78.3945 237.533L77.7393 237.62L77.9265 239.032L78.1468 239.003L77.984 237.775L78.4189 237.717Z" fill="#263238" />
	<path
		d="M79.7984 238.777L79.7812 238.648C79.6756 238.665 79.6461 238.592 79.6325 238.489L79.5617 237.955C79.5249 237.677 79.4929 237.35 79.0997 237.402C78.8767 237.432 78.7142 237.49 78.6206 237.533L78.6446 237.714C78.7461 237.667 78.8708 237.623 78.9962 237.606C79.1385 237.588 79.2866 237.571 79.3238 237.852L79.3414 237.984L79.1658 238.008C78.8229 238.053 78.6154 238.201 78.6658 238.581C78.7042 238.87 78.9094 238.942 79.0795 238.919C79.2161 238.901 79.3387 238.82 79.4334 238.636C79.4334 238.636 79.4802 238.838 79.6168 238.82C79.7171 238.807 79.7741 238.787 79.7984 238.777ZM79.4006 238.431C79.4006 238.431 79.3124 238.685 79.1032 238.713C78.9778 238.73 78.9052 238.653 78.8848 238.499C78.852 238.252 79.0025 238.189 79.1755 238.166L79.3622 238.141L79.4006 238.431Z"
		fill="#263238" />
	<path
		d="M80.9546 237.863C80.9022 237.467 80.7355 237.194 80.4037 237.238C80.1639 237.27 80.0604 237.453 80.0604 237.453L80.0225 237.317L79.8217 237.343L80.0949 239.405L80.3152 239.375L80.2244 238.69C80.2934 238.718 80.3973 238.732 80.5116 238.717C80.7654 238.683 81.0314 238.442 80.9546 237.863ZM80.7259 237.893C80.7879 238.361 80.6765 238.526 80.4674 238.554C80.3084 238.575 80.1976 238.488 80.1976 238.488L80.0904 237.679C80.0904 237.679 80.1333 237.468 80.3675 237.437C80.6073 237.405 80.6971 237.676 80.7259 237.893Z"
		fill="#263238" />
	<path
		d="M82.3192 238.443L82.302 238.313C82.1964 238.33 82.1669 238.257 82.1533 238.155L82.0825 237.621C82.0457 237.343 82.0137 237.016 81.6205 237.068C81.3974 237.097 81.2349 237.156 81.1414 237.199L81.1654 237.38C81.2669 237.333 81.3916 237.289 81.5171 237.272C81.6592 237.253 81.8075 237.236 81.8447 237.517L81.8623 237.65L81.6865 237.673C81.3436 237.719 81.1361 237.866 81.1865 238.246C81.2249 238.536 81.4301 238.607 81.6002 238.584C81.7368 238.566 81.8595 238.486 81.9542 238.301C81.9542 238.301 82.001 238.504 82.1376 238.486C82.238 238.472 82.2949 238.452 82.3192 238.443ZM81.9215 238.097C81.9215 238.097 81.8331 238.351 81.6241 238.379C81.4986 238.395 81.426 238.319 81.4056 238.165C81.3728 237.918 81.5234 237.855 81.6962 237.832L81.8831 237.807L81.9215 238.097Z"
		fill="#263238" />
	<path d="M83.5 238.292L83.3128 236.88L83.0925 236.909L83.1705 237.498L82.6408 237.568L82.5628 236.979L82.3425 237.009L82.5297 238.421L82.75 238.392L82.6632 237.737L83.1929 237.667L83.2797 238.321L83.5 238.292Z" fill="#263238" />
	<path d="M84.4664 236.914L84.442 236.73L83.5078 236.854L83.5322 237.038L83.8891 236.991L84.0519 238.219L84.2723 238.19L84.1094 236.961L84.4664 236.914Z" fill="#263238" />
	<path d="M85.8394 237.982L85.6518 236.566L85.4176 236.597L84.9995 237.767L84.8547 236.675L84.6344 236.704L84.8216 238.117L85.0559 238.085L85.4739 236.915L85.6191 238.011L85.8394 237.982Z" fill="#263238" />
	<path
		d="M87.0229 237.825L86.8365 236.418C86.7629 236.419 86.609 236.415 86.4669 236.434C86.2633 236.461 85.9363 236.563 85.9868 236.943C86.0248 237.23 86.251 237.267 86.343 237.276L86.3454 237.294C86.2694 237.363 86.2308 237.393 86.1644 237.619L86.0666 237.952L86.3259 237.917L86.3886 237.62C86.4467 237.352 86.5315 237.307 86.6319 237.293L86.7266 237.281L86.8026 237.854L87.0229 237.825ZM86.7078 237.139L86.5629 237.158C86.3035 237.193 86.2318 237.036 86.2154 236.913C86.1826 236.665 86.3499 236.621 86.4697 236.605C86.5338 236.597 86.6362 236.599 86.6362 236.599L86.7078 237.139Z"
		fill="#263238" />
	<path
		d="M88.9191 236.805C88.8667 236.41 88.7 236.137 88.3682 236.181C88.1284 236.213 88.0249 236.396 88.0249 236.396L87.9871 236.26L87.7863 236.286L88.0595 238.348L88.2798 238.318L88.189 237.633C88.2579 237.661 88.3619 237.675 88.4762 237.66C88.7299 237.626 88.9959 237.385 88.9191 236.805ZM88.6904 236.836C88.7524 237.303 88.641 237.469 88.4319 237.497C88.273 237.518 88.1622 237.431 88.1622 237.431L88.0549 236.622C88.0549 236.622 88.0978 236.411 88.3321 236.38C88.5719 236.348 88.6616 236.618 88.6904 236.836Z"
		fill="#263238" />
	<path
		d="M90.2084 236.69C90.124 236.053 89.7814 235.994 89.5723 236.022C89.3716 236.048 89.0474 236.193 89.1322 236.832C89.1982 237.33 89.4564 237.545 89.7575 237.505C90.0559 237.465 90.2744 237.188 90.2084 236.69ZM89.9798 236.72C90.0306 237.103 89.9411 237.305 89.7459 237.331C89.5619 237.356 89.4116 237.185 89.3608 236.802C89.2908 236.274 89.4724 236.21 89.5951 236.194C89.7122 236.178 89.9098 236.192 89.9798 236.72Z"
		fill="#263238" />
	<path
		d="M91.305 237.217L91.2798 237.026C91.234 237.066 91.132 237.111 91.0735 237.118C90.8365 237.15 90.7022 237.014 90.6514 236.631C90.5842 236.124 90.7813 236.048 90.9151 236.031C90.982 236.022 91.1019 236.027 91.1486 236.037L91.1226 235.84C91.0767 235.837 90.9939 235.833 90.874 235.849C90.6565 235.878 90.3399 236.036 90.4227 236.661C90.4883 237.156 90.7059 237.364 91.0127 237.323C91.2106 237.297 91.2735 237.236 91.305 237.217Z"
		fill="#263238" />
	<path d="M92.2075 235.887L92.1831 235.702L91.249 235.826L91.2734 236.011L91.6303 235.963L91.7932 237.191L92.0135 237.162L91.8507 235.934L92.2075 235.887Z" fill="#263238" />
	<path
		d="M93.5824 236.948L93.5652 236.818C93.4596 236.835 93.4301 236.762 93.4165 236.66L93.3457 236.126C93.3089 235.848 93.2768 235.521 92.8837 235.573C92.6606 235.602 92.4981 235.661 92.4045 235.704L92.4285 235.885C92.5301 235.838 92.6548 235.793 92.7802 235.777C92.9224 235.758 93.0706 235.741 93.1078 236.022L93.1254 236.155L92.9497 236.178C92.6068 236.224 92.3993 236.371 92.4497 236.751C92.4881 237.041 92.6933 237.112 92.8634 237.089C93 237.071 93.1227 236.991 93.2174 236.806C93.2174 236.806 93.2641 237.009 93.4007 236.99C93.5011 236.977 93.5581 236.957 93.5824 236.948ZM93.1846 236.601C93.1846 236.601 93.0963 236.856 92.8872 236.884C92.7617 236.9 92.6892 236.824 92.6688 236.67C92.636 236.422 92.7865 236.359 92.9594 236.337L93.1462 236.312L93.1846 236.601Z"
		fill="#263238" />
	<path d="M85.3548 214.765C85.3201 214.736 85.3131 214.683 85.3392 214.647L85.8162 213.977C85.8423 213.94 85.8915 213.934 85.9261 213.962L86.5613 214.485C86.596 214.513 86.603 214.566 86.577 214.602L86.0998 215.273C86.0738 215.309 86.0246 215.316 85.9899 215.287L85.3548 214.765Z" fill="white" />
	<path fill-rule="evenodd" clip-rule="evenodd"
		d="M83.498 210.995C83.678 210.876 83.8898 210.833 84.0965 210.862C84.3253 210.895 84.6628 210.944 84.7837 210.969C84.9694 211.008 85.3398 211.097 85.6894 211.184C86.3831 211.357 87.4267 211.66 87.5683 211.701L87.5695 211.702L87.5748 211.703C87.5782 211.703 87.5834 211.705 87.589 211.706C87.594 211.707 87.6025 211.709 87.6121 211.713C87.6125 211.713 87.6127 211.713 87.613 211.713L90.8644 212.78L94.4138 213.998C94.5279 214.037 94.5924 214.168 94.5578 214.289C94.5232 214.41 94.4028 214.477 94.2887 214.438L90.7433 213.221L90.7406 213.22L87.4966 212.155C87.4962 212.155 87.4957 212.155 87.495 212.155C87.493 212.155 87.4882 212.154 87.4841 212.153C87.48 212.152 87.4728 212.15 87.4648 212.148C87.3334 212.109 86.2879 211.806 85.5988 211.634C85.2486 211.546 84.8854 211.459 84.7086 211.423C84.604 211.401 84.2836 211.354 84.0473 211.32C83.9336 211.304 83.8215 211.328 83.729 211.389C83.5871 211.483 83.4094 211.606 83.285 211.71C83.0512 211.907 82.5102 212.387 82.455 212.436C82.4509 212.44 82.4472 212.443 82.4431 212.447L81.4153 213.328L73.8229 219.56L68.8537 232.008L68.8536 232.009C68.8368 232.051 68.8107 232.087 68.7775 232.116L65.4179 235.014L65.3979 237.628L69.2939 233.496C69.3927 233.392 69.5515 233.388 69.6583 233.487L73.0525 236.646L73.2644 235.107C73.2817 234.981 73.3913 234.896 73.5093 234.917C73.6272 234.938 73.7087 235.057 73.6914 235.182L73.4366 237.034C73.4061 237.256 73.1579 237.351 72.9975 237.202L69.4938 233.94L65.4216 238.259C65.2523 238.439 64.961 238.304 64.963 238.046L64.9869 234.92C64.9876 234.835 65.0233 234.756 65.0845 234.703L68.472 231.781L73.4688 219.263L81.1451 212.963L82.1695 212.084C82.171 212.083 82.1723 212.082 82.1736 212.081C82.1744 212.08 82.1751 212.079 82.1759 212.078C82.2291 212.031 82.7752 211.547 83.0141 211.346C83.1588 211.224 83.354 211.09 83.498 210.995ZM68.5027 231.755C68.5028 231.754 68.5029 231.754 68.5029 231.754L68.5027 231.755ZM94.6858 216.099C94.7877 216.168 94.8202 216.31 94.7583 216.418L93.6241 218.396L88.5653 223.311L81.6603 225.068C81.5449 225.097 81.4273 225.02 81.3978 224.896C81.3682 224.772 81.4379 224.647 81.5534 224.618L88.3522 222.888L93.2865 218.095L94.3893 216.171C94.4511 216.063 94.5838 216.031 94.6858 216.099ZM92.6556 216.949C92.7386 217.043 92.7364 217.189 92.6507 217.276L87.9482 222.055L82.8014 223.46C82.6864 223.491 82.5678 223.416 82.5363 223.293C82.5049 223.169 82.5727 223.043 82.6877 223.012L87.7277 221.637L92.3504 216.938C92.4361 216.851 92.5727 216.856 92.6556 216.949ZM89.6422 217.598C89.7308 217.685 89.7381 217.831 89.6584 217.924L87.1177 220.9L84.0598 221.724C83.9447 221.755 83.8263 221.68 83.7951 221.556C83.7641 221.432 83.8322 221.307 83.9473 221.276L86.8819 220.485L89.3374 217.61C89.4171 217.516 89.5536 217.511 89.6422 217.598ZM77.9024 226.721C77.9736 226.825 77.9538 226.969 77.8582 227.044L73.2048 230.659C73.1092 230.734 72.9739 230.71 72.9028 230.606C72.8317 230.502 72.8514 230.358 72.9471 230.284L77.6004 226.668C77.6961 226.594 77.8313 226.618 77.9024 226.721Z"
		fill="#263238" />
	<path fill-rule="evenodd" clip-rule="evenodd"
		d="M77.7596 228.095C76.5849 228.553 75.834 229.848 76.0202 231.253L76.3337 233.618C76.5496 235.247 77.9437 236.405 79.4476 236.206L80.5847 236.055C82.0886 235.855 83.1328 234.373 82.9169 232.745L82.6034 230.379C82.4184 228.984 81.3683 227.933 80.1253 227.787L80.3906 229.789C80.6558 229.959 80.8509 230.252 80.8977 230.606L81.2113 232.971C81.2919 233.58 80.9018 234.133 80.3399 234.208L79.2028 234.359C78.6409 234.433 78.12 234.001 78.0394 233.392L77.7258 231.027C77.6775 230.662 77.798 230.317 78.0231 230.083L77.7596 228.095ZM85.1665 227.203L83.4609 227.43L84.5475 235.628L86.2532 235.401L86.1136 234.348L88.0137 234.096C89.8316 233.855 91.0938 232.063 90.8329 230.095C90.5719 228.126 88.882 226.71 87.0641 226.951L85.1665 227.203ZM85.4135 229.066L85.8688 232.501L87.7689 232.249C88.6448 232.133 89.2529 231.27 89.1272 230.321C89.0015 229.373 88.1895 228.698 87.3136 228.814L85.4135 229.066ZM100.816 225.126L99.1108 225.352L100.198 233.551L101.903 233.324L100.816 225.126ZM91.3906 226.377L91.6354 228.224L94.0892 227.899L94.931 234.25L96.6367 234.023L95.7948 227.672L98.2485 227.346L98.0037 225.499L95.55 225.825L93.8443 226.051L91.3906 226.377Z"
		fill="#263238" />
	<path
		d="M99.385 222.633L99.8271 222.575C99.8488 222.572 99.8709 222.578 99.8881 222.593L100.532 223.149C100.548 223.163 100.558 223.183 100.561 223.205L100.622 223.665C100.625 223.687 100.62 223.71 100.607 223.728L100.127 224.394C100.114 224.412 100.095 224.424 100.074 224.426L99.6291 224.485C99.6083 224.488 99.5872 224.482 99.5702 224.468L98.928 223.951C98.9106 223.937 98.8992 223.916 98.8962 223.894L98.8353 223.434C98.8324 223.412 98.8375 223.39 98.8495 223.373L99.3311 222.667C99.3439 222.648 99.3634 222.636 99.385 222.633Z"
		fill="white" />
	<path d="M65.5333 211.566L60.4802 212.23L60.9727 215.983L66.0258 215.319L65.5333 211.566Z" fill="#263238" stroke="#263238" stroke-linecap="round" stroke-linejoin="round" />
	<path d="M76.9465 224.391L82.0919 231.727L87.9724 233.09C90.3834 233.649 91.6575 234.179 92.5788 236.493C93.2355 238.151 92.7944 238.661 91.5987 239.092C91.5987 239.092 95.1074 245.83 91.4517 245.173C91.4517 245.173 91.7555 248.262 88.1096 247.134C88.1096 247.134 86.9433 249.223 84.4147 247.527C84.4147 247.527 82.4545 249.027 79.7299 243.957L75.8096 236.739L70.0369 230.226L76.9465 224.391Z"
		fill="#999999" stroke="#263238" stroke-linecap="round" stroke-linejoin="round" />
	<path d="M91.1479 242.996C91.1479 242.996 91.6379 245.036 89.6287 244.957C87.6196 244.879 87.9822 246.919 83.2876 246.203" fill="#999999" />
	<path d="M91.1479 242.996C91.1479 242.996 91.6379 245.036 89.6287 244.957C87.6196 244.879 87.9822 246.919 83.2876 246.203" stroke="#263238" stroke-linecap="round" stroke-linejoin="round" />
	<path d="M49.21 151.032C49.21 151.032 44.1136 166.342 46.9166 200.069C46.9166 200.069 59.4715 226.608 72.3204 234.012L80.3277 227.373L64.7737 195.724C64.7737 195.724 72.732 163.311 72.3204 157.191" fill="#263238" />
	<path d="M49.21 151.032C49.21 151.032 44.1136 166.342 46.9166 200.069C46.9166 200.069 59.4715 226.608 72.3204 234.012L80.3277 227.373L64.7737 195.724C64.7737 195.724 72.732 163.311 72.3204 157.191" stroke="#263238" stroke-linecap="round" stroke-linejoin="round" />
	<path d="M70.4973 170.353C71.6636 164.469 72.4575 159.271 72.3693 157.172" stroke="#7F7F7F" stroke-width="0.75" stroke-linecap="round" stroke-linejoin="round" />
	<path d="M65.6656 197.402L64.8325 195.705C64.8325 195.705 67.7728 183.711 69.9878 172.932" stroke="#7F7F7F" stroke-width="0.75" stroke-linecap="round" stroke-linejoin="round" />
	<path d="M69.9779 206.208L66.6848 199.5" stroke="#7F7F7F" stroke-width="0.75" stroke-linecap="round" stroke-linejoin="round" />
	<path d="M46.6912 196.431C46.7696 197.617 46.8578 198.814 46.9656 200.05C50.021 206.309 53.502 212.351 57.3839 218.134" stroke="#7F7F7F" stroke-width="0.75" stroke-linecap="round" stroke-linejoin="round" />
	<path d="M49.2591 151.032C49.2591 151.032 44.8193 164.38 46.505 193.557" stroke="#7F7F7F" stroke-width="0.75" stroke-linecap="round" stroke-linejoin="round" />
	<path
		d="M82.2192 42.1714C81.5084 40.2917 80.4304 38.5725 79.0484 37.1142C77.6663 35.6558 76.0077 34.4876 74.1695 33.6777C72.3314 32.8678 70.3504 32.4324 68.3422 32.3969C66.334 32.3614 64.3389 32.7266 62.4733 33.4711C60.6077 34.2156 58.909 35.3246 57.4763 36.7332C56.0437 38.1418 54.9058 39.8219 54.1291 41.6754C53.3524 43.5288 52.9525 45.5185 52.9526 47.5284C52.9528 49.5382 53.353 51.5278 54.13 53.3812C56.3744 59.0106 62.3725 61.0309 66.9789 64.3556C68.4098 65.3951 70.37 70.593 70.37 70.593L82.327 65.8463C82.327 65.8463 80.1708 60.7268 80.5041 58.9811C81.5037 53.4106 84.4636 47.8106 82.2192 42.1714Z"
		stroke="#0BBBEF" stroke-linecap="round" stroke-linejoin="round" />
	<path d="M70.6914 71.3863L82.6082 66.6313L82.7316 66.941C82.8951 67.3512 82.9758 67.7898 82.969 68.2314C82.9621 68.6731 82.868 69.109 82.6919 69.514C82.5158 69.919 82.2613 70.285 81.9431 70.5911C81.6249 70.8971 81.2492 71.1371 80.8378 71.297L75.1298 73.5747C74.3064 73.9032 73.3864 73.891 72.5721 73.5407C71.7577 73.1905 71.1158 72.5308 70.7875 71.7069L70.6641 71.3972L70.6914 71.3863Z"
		stroke="#0BBBEF" stroke-linecap="round" stroke-linejoin="round" />
	<path opacity="0.5"
		d="M70.6914 71.3863L82.6082 66.6313L82.7316 66.941C82.8951 67.3512 82.9758 67.7898 82.969 68.2314C82.9621 68.6731 82.868 69.109 82.6919 69.514C82.5158 69.919 82.2613 70.285 81.9431 70.5911C81.6249 70.8971 81.2492 71.1371 80.8378 71.297L75.1298 73.5747C74.3064 73.9032 73.3864 73.891 72.5721 73.5407C71.7577 73.1905 71.1158 72.5308 70.7875 71.7069L70.6641 71.3972L70.6914 71.3863Z"
		stroke="#0BBBEF" stroke-linecap="round" stroke-linejoin="round" />
	<path d="M75.5396 74.3503L81.1114 72.1282L81.213 72.3833C81.4806 73.055 81.4705 73.8055 81.185 74.4698C80.8995 75.1341 80.362 75.6577 79.6908 75.9254L79.19 76.1251C78.5188 76.3928 77.7687 76.3827 77.1049 76.097C76.441 75.8114 75.9178 75.2735 75.6503 74.6018L75.5487 74.3467L75.5396 74.3503Z" stroke="#0BBBEF" stroke-linecap="round" stroke-linejoin="round" />
	<path opacity="0.2" d="M75.5396 74.3503L81.1114 72.1282L81.213 72.3833C81.4806 73.055 81.4705 73.8055 81.185 74.4698C80.8995 75.1341 80.362 75.6577 79.6908 75.9254L79.19 76.1251C78.5188 76.3928 77.7687 76.3827 77.1049 76.097C76.441 75.8114 75.9178 75.2735 75.6503 74.6018L75.5487 74.3467L75.5396 74.3503Z" stroke="#0BBBEF" stroke-linecap="round" stroke-linejoin="round" />
	<path d="M59.9028 15.6721L63.3625 28.6178" stroke="#0BBBEF" stroke-linecap="round" stroke-linejoin="round" />
	<path d="M58.5012 10.4446L59.2073 13.0827" stroke="#0BBBEF" stroke-linecap="round" stroke-linejoin="round" />
	<path d="M44.8977 53.4203L31.6567 56.9706" stroke="#0BBBEF" stroke-linecap="round" stroke-linejoin="round" />
	<path d="M49.8176 52.1062L47.5732 52.7044" stroke="#0BBBEF" stroke-linecap="round" stroke-linejoin="round" />
	<path d="M100.694 38.4543L86.8354 42.1713" stroke="#0BBBEF" stroke-linecap="round" stroke-linejoin="round" />
	<path d="M104.987 37.3069L103.017 37.8365" stroke="#0BBBEF" stroke-linecap="round" stroke-linejoin="round" />
	<path d="M58.7462 63.7476L49.3472 80.0375" stroke="#0BBBEF" stroke-linecap="round" stroke-linejoin="round" />
	<path d="M87.3057 14.2402L77.9067 30.5302" stroke="#0BBBEF" stroke-linecap="round" stroke-linejoin="round" />
	<path d="M51.7191 37.5522L35.4497 28.147" stroke="#0BBBEF" stroke-linecap="round" stroke-linejoin="round" />
	<path d="M87.3941 58.1572L84.9243 56.7253" stroke="#0BBBEF" stroke-linecap="round" stroke-linejoin="round" />
	<path d="M101.203 66.1306L89.6482 59.4617" stroke="#0BBBEF" stroke-linecap="round" stroke-linejoin="round" />
	<defs>
		<linearGradient id="paint0_linear_6_1664" x1="164.976" y1="96.9151" x2="173.275" y2="91.0466" gradientUnits="userSpaceOnUse">
			<stop offset="0.0001" stop-color="#0BBBEF" />
			<stop offset="0.395412" stop-color="#00A0E3" />
			<stop offset="0.67667" stop-color="#126797" />
			<stop offset="0.792521" stop-color="#005893" />
			<stop offset="1" stop-color="#142647" />
		</linearGradient>
		<linearGradient id="paint1_linear_6_1664" x1="69.9229" y1="232.132" x2="94.2007" y2="216.585" gradientUnits="userSpaceOnUse">
			<stop offset="0.0001" stop-color="#0BBBEF" />
			<stop offset="0.395412" stop-color="#00A0E3" />
			<stop offset="0.67667" stop-color="#126797" />
			<stop offset="0.792521" stop-color="#005893" />
			<stop offset="1" stop-color="#142647" />
		</linearGradient>
	</defs>
</svg>