<svg width="486" height="402" viewBox="0 0 486 402" fill="none" xmlns="http://www.w3.org/2000/svg">
	<path d="M46.6935 395.424H453.443C460.117 387.442 498.954 336.928 481.555 260.157C462.545 176.36 451.358 175.189 367.494 122.645C283.629 70.0997 254.635 25.3867 158.423 61.1614C62.2112 96.9362 58.9014 164.017 63.3503 217.668C67.7993 271.319 6.39467 312.691 2.98807 346.231C0.290737 373.154 23.5888 390.697 46.6935 395.424Z" fill="#3298DC" />
	<path opacity="0.3" d="M46.6935 395.424H453.443C460.117 387.442 498.954 336.928 481.555 260.157C462.545 176.36 451.358 175.189 367.494 122.645C283.629 70.0997 254.635 25.3867 158.423 61.1614C62.2112 96.9362 58.9014 164.017 63.3503 217.668C67.7993 271.319 6.39467 312.691 2.98807 346.231C0.290737 373.154 23.5888 390.697 46.6935 395.424Z" fill="white" />
	<g opacity="0.5">
		<path d="M76.1519 108.432C105.827 108.432 129.884 84.3823 129.884 54.7158C129.884 25.0494 105.827 1 76.1519 1C46.4766 1 22.4201 25.0494 22.4201 54.7158C22.4201 84.3823 46.4766 108.432 76.1519 108.432Z" stroke="white" stroke-miterlimit="10" />
		<path d="M76.1519 103.06C102.86 103.06 124.511 81.4156 124.511 54.7158C124.511 28.016 102.86 6.37158 76.1519 6.37158C49.4442 6.37158 27.7933 28.016 27.7933 54.7158C27.7933 81.4156 49.4442 103.06 76.1519 103.06Z" stroke="white" stroke-miterlimit="10" />
	</g>
	<g opacity="0.5">
		<path d="M146.602 189.929H19.7952V394.769H146.602V189.929Z" stroke="#142647" stroke-miterlimit="10" />
		<path d="M141.584 201.381H24.8031V272.286H141.584V201.381Z" stroke="#142647" stroke-miterlimit="10" />
		<path d="M90.0012 229.313H72.087V245.783H90.0012V229.313Z" stroke="#142647" stroke-miterlimit="10" />
		<path d="M141.584 283.029H24.8031V353.934H141.584V283.029Z" stroke="#142647" stroke-miterlimit="10" />
		<path d="M90.0012 310.961H72.087V327.431H90.0012V310.961Z" stroke="#142647" stroke-miterlimit="10" />
		<path d="M141.584 365.397H24.8031V394.049H141.584V365.397Z" stroke="#142647" stroke-miterlimit="10" />
	</g>
	<path d="M477.225 74.9664H230.779V239.487H477.225V74.9664Z" stroke="white" stroke-miterlimit="10" />
	<path d="M473.926 77.1795H234.088V237.285H473.926V77.1795Z" stroke="white" stroke-miterlimit="10" />
	<path d="M263.114 101.158C263.114 101.158 265.747 115.328 265.747 119.529V134.215C265.747 134.215 276.246 134.741 284.639 134.215C293.032 133.689 303.016 128.446 303.016 128.446C303.016 128.446 299.34 114.276 299.34 110.601C299.34 106.927 297.191 98.0105 297.191 98.0105L263.114 101.158Z" fill="white" stroke="white" stroke-miterlimit="10" />
	<path d="M264.168 189.327C264.168 189.327 262.599 201.392 262.599 206.645C262.599 211.899 259.966 220.289 259.966 220.289C259.966 220.289 272.571 225.016 275.72 225.016C278.869 225.016 292.516 223.942 292.516 223.942L294.612 192.98C294.612 192.98 268.369 190.38 264.168 189.327Z" fill="white" stroke="white" stroke-miterlimit="10" />
	<path d="M322.445 124.245L328.785 153.101C328.785 153.101 336.662 153.628 345.055 153.628C353.448 153.628 367.623 145.753 367.623 145.753C367.623 145.753 360.799 132.109 360.799 128.435C360.799 124.761 358.649 114.265 358.649 114.265C358.649 114.265 337.157 121.087 333.933 121.613C330.709 122.14 322.445 124.245 322.445 124.245Z" fill="white" stroke="white" stroke-miterlimit="10" />
	<path d="M369.686 116.381C369.686 116.381 368.117 135.268 368.117 137.373C368.117 139.479 367.59 147.87 367.59 147.87C372.981 148.688 378.413 149.212 383.86 149.438C389.642 149.438 399.615 148.912 399.615 148.912C399.615 148.912 399.088 130.552 400.141 128.972C401.194 127.393 401.71 119.003 401.71 119.003C401.71 119.003 371.771 116.897 369.686 116.381Z" fill="white" stroke="white"
		stroke-miterlimit="10" />
	<path d="M381.238 158.366V170.957C381.238 173.051 380.163 188.275 380.163 188.275C380.163 188.275 393.811 188.801 399.066 188.275C404.321 187.748 414.81 184.6 414.81 184.6L413.241 167.809L412.166 156.26C412.166 156.26 387.009 159.934 381.238 158.366Z" fill="white" stroke="white" stroke-miterlimit="10" />
	<path d="M460.514 87.5681L448.435 88.0945H442.138V97.0113C442.138 99.6327 441.611 108.034 441.611 109.602C441.611 111.171 450.015 112.234 453.69 112.234H466.811L467.338 86.5153L460.514 87.5681Z" fill="white" stroke="white" stroke-miterlimit="10" />
	<g opacity="0.5">
		<path d="M430.059 144.195H452.637" stroke="white" stroke-miterlimit="10" />
		<path d="M430.059 149.438H452.637" stroke="white" stroke-miterlimit="10" />
		<path d="M430.059 154.691H452.637" stroke="white" stroke-miterlimit="10" />
		<path d="M430.059 159.934H452.637" stroke="white" stroke-miterlimit="10" />
	</g>
	<g opacity="0.5">
		<path d="M313.515 84.3666H388.062" stroke="white" stroke-miterlimit="10" />
		<path d="M313.515 89.6093H388.062" stroke="white" stroke-miterlimit="10" />
	</g>
	<path d="M389.642 198.771H412.209" stroke="white" stroke-miterlimit="10" />
	<path d="M389.642 204.024H412.209" stroke="white" stroke-miterlimit="10" />
	<path d="M389.642 209.267H412.209" stroke="white" stroke-miterlimit="10" />
	<path d="M389.642 214.52H412.209" stroke="white" stroke-miterlimit="10" />
	<path d="M249.466 164.135H272.045" stroke="white" stroke-miterlimit="10" />
	<path d="M249.466 169.388H272.045" stroke="white" stroke-miterlimit="10" />
	<path d="M249.466 174.631H272.045" stroke="white" stroke-miterlimit="10" />
	<path d="M249.466 179.884H272.045" stroke="white" stroke-miterlimit="10" />
	<path d="M408.534 98.0105H431.112" stroke="white" stroke-miterlimit="10" />
	<path d="M408.534 103.253H431.112" stroke="white" stroke-miterlimit="10" />
	<path d="M408.534 108.507H431.112" stroke="white" stroke-miterlimit="10" />
	<path d="M408.534 113.749H431.112" stroke="white" stroke-miterlimit="10" />
	<path d="M325.884 148.127L312.934 151.823L316.266 154.702C310.216 158.688 297.395 165.51 289.002 158.58C277.751 149.288 280.781 141.262 280.91 140.919L279.922 140.521L278.922 140.113C278.761 140.5 275.097 149.878 287.637 160.235C290.494 162.582 294.096 163.828 297.793 163.748C305.627 163.748 313.708 159.085 317.974 156.228L322.187 159.87L325.884 148.127Z" fill="white" />
	<path d="M456.57 126.039L452.831 113.577L445.974 123.547L449.779 124.439L445.824 138.652L447.898 139.232L451.874 124.933L456.57 126.039Z" fill="white" />
	<path opacity="0.3"
		d="M284.639 102.727C284.648 102.102 284.47 101.489 284.129 100.965C283.788 100.442 283.298 100.032 282.723 99.7871C282.148 99.5425 281.513 99.4747 280.899 99.5921C280.285 99.7095 279.72 100.007 279.276 100.446C278.832 100.886 278.528 101.448 278.405 102.06C278.281 102.673 278.342 103.308 278.581 103.886C278.819 104.463 279.225 104.957 279.745 105.303C280.265 105.65 280.876 105.834 281.501 105.831C282.327 105.829 283.119 105.502 283.706 104.921C284.293 104.34 284.628 103.552 284.639 102.727Z"
		fill="#00A0E3" stroke="white" stroke-miterlimit="10" />
	<path opacity="0.3"
		d="M343.016 123.621C343.016 122.998 342.831 122.39 342.485 121.872C342.139 121.354 341.647 120.951 341.072 120.713C340.496 120.474 339.863 120.412 339.253 120.534C338.642 120.655 338.081 120.955 337.64 121.395C337.2 121.835 336.9 122.396 336.779 123.007C336.657 123.617 336.72 124.25 336.958 124.825C337.196 125.401 337.6 125.892 338.118 126.238C338.635 126.584 339.244 126.769 339.867 126.769C340.702 126.769 341.503 126.437 342.093 125.847C342.684 125.256 343.016 124.456 343.016 123.621Z"
		fill="#3298DC" />
	<path opacity="0.3" d="M397.508 164.661C399.247 164.661 400.657 163.252 400.657 161.513C400.657 159.775 399.247 158.366 397.508 158.366C395.769 158.366 394.36 159.775 394.36 161.513C394.36 163.252 395.769 164.661 397.508 164.661Z" fill="#3298DC" stroke="white" stroke-miterlimit="10" />
	<path opacity="0.3"
		d="M284.639 195.096C284.644 194.473 284.462 193.861 284.118 193.341C283.775 192.82 283.284 192.413 282.708 192.172C282.132 191.931 281.498 191.866 280.886 191.986C280.273 192.106 279.71 192.405 279.268 192.845C278.826 193.286 278.525 193.848 278.403 194.46C278.281 195.071 278.343 195.706 278.583 196.282C278.822 196.858 279.227 197.35 279.747 197.696C280.267 198.041 280.877 198.225 281.501 198.223C282.331 198.22 283.126 197.89 283.713 197.305C284.301 196.719 284.634 195.926 284.639 195.096Z"
		fill="#3298DC" stroke="white" stroke-miterlimit="10" />
	<path opacity="0.3"
		d="M457.819 87.8729C457.819 87.2504 457.634 86.6418 457.288 86.1241C456.942 85.6065 456.45 85.203 455.875 84.9648C455.3 84.7266 454.667 84.6642 454.056 84.7857C453.445 84.9071 452.884 85.2069 452.444 85.6471C452.003 86.0874 451.703 86.6482 451.582 87.2589C451.46 87.8695 451.523 88.5024 451.761 89.0775C451.999 89.6527 452.403 90.1443 452.921 90.4902C453.439 90.8361 454.047 91.0207 454.67 91.0207C455.505 91.0207 456.306 90.6891 456.897 90.0987C457.487 89.5084 457.819 88.7078 457.819 87.8729Z"
		fill="#3298DC" />
	<path opacity="0.3" d="M385.035 124.887C386.774 124.887 388.184 123.478 388.184 121.739C388.184 120.001 386.774 118.592 385.035 118.592C383.296 118.592 381.886 120.001 381.886 121.739C381.886 123.478 383.296 124.887 385.035 124.887Z" fill="#0BBBEF" />
	<path
		d="M355.888 375.249V371.929L358.445 371.392L355.888 370.747V369.834L358.198 368.76L355.888 368.072V354.428H353.072V351.624L354.372 351.517L353.072 350.905V349.83L356.296 350.303L354.147 347.671L353.072 346.092V345.49L356.522 345.275C356.522 345.275 354.566 344.083 353.072 343.008V331.642H356.522C356.522 331.642 354.619 330.74 353.072 329.966V325.744H274.29V332.63L270.755 334.038L274.258 335.596V336.401C273.184 337.024 271.324 338.152 271.034 338.829C270.561 339.785 269.594 341.934 269.594 341.934C269.594 341.934 271.991 341.461 272.711 341.214C273.249 341.105 273.808 341.177 274.301 341.418V341.547L271.507 344.33L274.29 345.554V354.998H280.48V355.653C280.035 355.76 279.597 355.896 279.169 356.061C277.762 356.772 276.401 357.572 275.096 358.457L278.686 358.221L277.009 360.853L280.48 361.068V374.121H272.603V378.869C272.04 378.986 271.504 379.208 271.024 379.524C270.463 379.93 269.948 380.395 269.487 380.91C268.412 382.06 267.434 383.36 267.434 383.36L271.507 382.156L269.358 385.036L271.034 385.508L269.594 387.657L272.614 387.872V392.674H351.353V389.451L354.104 389.558L353.136 389.086L355.533 388.366L353.136 385.97L352.427 383.102L351.353 382.919V375.227L355.888 375.249Z"
		fill="#B5B5B5" />
	<path d="M277.729 333.082H325.626" stroke="#263238" stroke-miterlimit="10" />
	<path d="M278.213 337.153H305.509" stroke="#263238" stroke-miterlimit="10" />
	<path d="M346.71 342.89H298.803" stroke="#263238" stroke-miterlimit="10" />
	<path d="M282.759 355.105H347.43" stroke="#263238" stroke-miterlimit="10" />
	<path d="M281.566 346.726H328.506" stroke="#263238" stroke-miterlimit="10" />
	<path d="M348.623 359.897H314.138" stroke="#263238" stroke-miterlimit="10" />
	<path d="M347.183 366.364H283.962" stroke="#263238" stroke-miterlimit="10" />
	<path d="M296.406 371.865H333.772" stroke="#263238" stroke-miterlimit="10" />
	<path d="M349.107 375.216H286.831" stroke="#263238" stroke-miterlimit="10" />
	<path d="M277.493 384.08H322.52" stroke="#263238" stroke-miterlimit="10" />
	<path d="M318.211 379.524H285.155" stroke="#263238" stroke-miterlimit="10" />
	<path d="M290.184 386.712H338.081" stroke="#263238" stroke-miterlimit="10" />
	<path d="M345.27 379.052H332.331" stroke="#263238" stroke-miterlimit="10" />
	<path
		d="M377.38 308.243V304.924L379.938 304.387L377.38 303.742V302.829L379.691 301.755L377.38 301.056V287.391H374.565V284.587L375.865 284.48L374.565 283.867V282.793L377.789 283.276L375.639 280.633L374.565 279.054V278.463L378.014 278.249C378.014 278.249 376.059 277.045 374.565 275.971V264.637H378.014C378.014 264.637 376.112 263.734 374.565 262.972V258.739H295.783V265.636L292.28 267.033L295.783 268.59V269.396C294.709 270.019 292.849 271.158 292.559 271.824C292.086 272.78 291.119 274.94 291.119 274.94C291.119 274.94 293.516 274.456 294.236 274.22C294.773 274.103 295.333 274.171 295.826 274.413V274.499L293.043 277.282L295.826 278.506V287.95H302.016V288.616C301.569 288.718 301.131 288.854 300.705 289.024C299.296 289.728 297.936 290.525 296.632 291.409L300.221 291.173L298.502 293.837L301.973 294.052V307.105H294.096V311.864C293.531 311.974 292.994 312.197 292.516 312.519C291.958 312.924 291.443 313.385 290.98 313.894C289.905 315.044 288.927 316.344 288.927 316.344L293 315.151L290.851 318.02L292.527 318.503L291.087 320.652L294.107 320.867V325.669H372.845V322.446L375.596 322.564L374.629 322.081L377.026 321.361L374.629 318.965L373.92 316.097L372.845 315.914V308.222L377.38 308.243Z"
		fill="#B5B5B5" />
	<path d="M299.222 266.077H347.118" stroke="#263238" stroke-miterlimit="10" />
	<path d="M299.706 270.148H327.001" stroke="#263238" stroke-miterlimit="10" />
	<path d="M368.203 275.896H320.296" stroke="#263238" stroke-miterlimit="10" />
	<path d="M304.251 288.1H368.923" stroke="#263238" stroke-miterlimit="10" />
	<path d="M303.058 279.72H349.999" stroke="#263238" stroke-miterlimit="10" />
	<path d="M370.116 292.891H335.631" stroke="#263238" stroke-miterlimit="10" />
	<path d="M368.676 299.359H305.455" stroke="#263238" stroke-miterlimit="10" />
	<path d="M317.899 304.859H355.264" stroke="#263238" stroke-miterlimit="10" />
	<path d="M370.599 308.211H308.324" stroke="#263238" stroke-miterlimit="10" />
	<path d="M298.986 317.074H344.013" stroke="#263238" stroke-miterlimit="10" />
	<path d="M339.704 312.53H306.648" stroke="#263238" stroke-miterlimit="10" />
	<path d="M311.677 319.706H359.574" stroke="#263238" stroke-miterlimit="10" />
	<path d="M366.763 312.047H353.824" stroke="#263238" stroke-miterlimit="10" />
	<path
		d="M427.813 375.249V371.929L430.371 371.392L427.813 370.747V369.834L430.134 368.76L427.813 368.072V354.428H424.997V351.624L426.298 351.517L424.997 350.905V349.83L428.221 350.303L426.072 347.671L424.997 346.092V345.49L428.458 345.275C428.458 345.275 426.502 344.083 424.997 343.008V331.642H428.458C428.458 331.642 426.545 330.74 424.997 329.966V325.744H346.216V332.63L342.755 334.038L346.259 335.596V336.401C345.184 337.024 343.336 338.152 343.035 338.829C342.562 339.785 341.606 341.934 341.606 341.934C341.606 341.934 344.002 341.461 344.711 341.214C345.249 341.105 345.809 341.177 346.302 341.418V341.547L343.433 344.33L346.216 345.554V354.998H352.427V355.653C351.982 355.761 351.544 355.898 351.116 356.061C349.71 356.775 348.35 357.575 347.043 358.457L350.643 358.221L348.967 360.853L352.427 361.068V374.121H344.55V378.869C343.987 378.986 343.451 379.208 342.97 379.524C342.412 379.933 341.897 380.397 341.434 380.91C340.359 382.06 339.381 383.36 339.381 383.36L343.454 382.156L341.305 385.036L342.981 385.508L341.552 387.657L344.561 387.872V392.674H423.353V389.451L426.104 389.558L425.148 389.086L427.544 388.366L425.148 385.97L424.428 383.102L423.353 382.919V375.227L427.813 375.249Z"
		fill="#B5B5B5" stroke="#263238" stroke-miterlimit="10" />
	<path d="M349.655 333.082H397.562" stroke="#263238" stroke-miterlimit="10" />
	<path d="M350.138 337.153H377.445" stroke="#263238" stroke-miterlimit="10" />
	<path d="M418.635 342.89H370.739" stroke="#263238" stroke-miterlimit="10" />
	<path d="M354.695 355.105H419.355" stroke="#263238" stroke-miterlimit="10" />
	<path d="M353.491 346.726H400.431" stroke="#263238" stroke-miterlimit="10" />
	<path d="M420.548 359.897H386.063" stroke="#263238" stroke-miterlimit="10" />
	<path d="M419.119 366.364H355.887" stroke="#263238" stroke-miterlimit="10" />
	<path d="M368.343 371.865H405.708" stroke="#263238" stroke-miterlimit="10" />
	<path d="M421.032 375.216H358.757" stroke="#263238" stroke-miterlimit="10" />
	<path d="M349.418 384.08H394.445" stroke="#263238" stroke-miterlimit="10" />
	<path d="M390.136 379.524H357.08" stroke="#263238" stroke-miterlimit="10" />
	<path d="M362.11 386.712H410.017" stroke="#263238" stroke-miterlimit="10" />
	<path d="M417.196 379.052H404.268" stroke="#263238" stroke-miterlimit="10" />
	<path
		d="M447.586 375.249V371.929L450.144 371.392L447.586 370.747V369.834L449.907 368.76L447.586 368.072V354.428H444.771V351.624L446.071 351.517L444.771 350.905V349.83L447.995 350.303L445.845 347.671L444.771 346.092V345.49L448.231 345.275C448.231 345.275 446.275 344.083 444.771 343.008V331.642H448.231C448.231 331.642 446.318 330.74 444.771 329.966V325.744H365.989V332.63L362.486 334.038L365.989 335.596V336.401C364.914 337.024 363.066 338.152 362.765 338.829C362.292 339.785 361.336 341.934 361.336 341.934C361.336 341.934 363.732 341.461 364.442 341.214C364.98 341.105 365.539 341.177 366.032 341.418V341.547L363.174 344.33L365.957 345.554V354.998H372.147V355.653C371.702 355.761 371.264 355.898 370.836 356.061C369.43 356.775 368.069 357.575 366.763 358.457L370.363 358.221L368.686 360.853L372.147 361.068V374.121H364.27V378.869C363.706 378.986 363.17 379.208 362.69 379.524C362.132 379.933 361.617 380.397 361.153 380.91C360.079 382.06 359.101 383.36 359.101 383.36L363.174 382.156L361.024 385.036L362.701 385.508L361.271 387.657L364.28 387.872V392.674H443.062V389.451L445.813 389.558L444.857 389.086L447.253 388.366L444.846 385.992L444.126 383.123L443.051 382.941V375.249H447.586Z"
		fill="white" stroke="#263238" stroke-miterlimit="10" />
	<path d="M369.428 333.082H417.335" stroke="#263238" stroke-miterlimit="10" />
	<path d="M369.911 337.153H397.218" stroke="#263238" stroke-miterlimit="10" />
	<path d="M438.409 342.89H390.512" stroke="#263238" stroke-miterlimit="10" />
	<path d="M374.457 355.105H439.129" stroke="#263238" stroke-miterlimit="10" />
	<path d="M373.265 346.726H420.205" stroke="#263238" stroke-miterlimit="10" />
	<path d="M440.322 359.897H405.837" stroke="#263238" stroke-miterlimit="10" />
	<path d="M438.892 366.364H375.661" stroke="#263238" stroke-miterlimit="10" />
	<path d="M388.116 371.865H425.481" stroke="#263238" stroke-miterlimit="10" />
	<path d="M440.805 375.216H378.53" stroke="#263238" stroke-miterlimit="10" />
	<path d="M369.192 384.08H414.219" stroke="#263238" stroke-miterlimit="10" />
	<path d="M409.909 379.524H376.854" stroke="#263238" stroke-miterlimit="10" />
	<path d="M381.883 386.712H429.79" stroke="#263238" stroke-miterlimit="10" />
	<path d="M436.969 379.052H424.041" stroke="#263238" stroke-miterlimit="10" />
	<path
		d="M447.586 309.35V306.03L450.144 305.493L447.586 304.859V303.946L449.907 302.872L447.586 302.174V288.541H444.771V285.726L446.071 285.618L444.771 285.006V283.932L447.995 284.404L445.845 281.772L444.771 280.182V279.591L448.231 279.377C448.231 279.377 446.275 278.184 444.771 277.11V265.754H448.231C448.231 265.754 446.318 264.841 444.771 264.078V259.845H365.989V266.743L362.486 268.139L365.989 269.708V270.513C364.914 271.137 363.066 272.265 362.765 272.931C362.292 273.887 361.336 276.046 361.336 276.046C361.336 276.046 363.732 275.563 364.442 275.326C364.98 275.217 365.539 275.289 366.032 275.531V275.649L363.249 278.442L366.032 279.656V289.099H372.222V289.765C371.777 289.874 371.339 290.01 370.911 290.173C369.503 290.883 368.142 291.683 366.838 292.569L370.438 292.322L368.762 294.965L372.222 295.18V308.233H364.345V312.981C363.782 313.098 363.246 313.32 362.765 313.637C362.207 314.045 361.692 314.509 361.228 315.022C360.504 315.804 359.819 316.622 359.176 317.472L363.249 316.269L361.1 319.148L362.776 319.62L361.347 321.769L364.356 321.984V326.786H443.137V323.563L445.888 323.671L444.932 323.187L447.328 322.478L444.846 320.104L444.126 317.225L443.051 317.053V309.35H447.586Z"
		fill="white" stroke="#263238" stroke-miterlimit="10" />
	<path d="M369.428 267.183H417.335" stroke="#263238" stroke-miterlimit="10" />
	<path d="M369.911 271.255H397.218" stroke="#263238" stroke-miterlimit="10" />
	<path d="M438.409 277.002H390.512" stroke="#263238" stroke-miterlimit="10" />
	<path d="M374.457 289.217H439.129" stroke="#263238" stroke-miterlimit="10" />
	<path d="M373.265 280.838H420.205" stroke="#263238" stroke-miterlimit="10" />
	<path d="M440.322 293.998H405.837" stroke="#263238" stroke-miterlimit="10" />
	<path d="M438.892 300.465H375.661" stroke="#263238" stroke-miterlimit="10" />
	<path d="M388.116 305.977H425.481" stroke="#263238" stroke-miterlimit="10" />
	<path d="M440.805 309.328H378.53" stroke="#263238" stroke-miterlimit="10" />
	<path d="M369.192 318.181H414.219" stroke="#263238" stroke-miterlimit="10" />
	<path d="M409.909 313.637H376.854" stroke="#263238" stroke-miterlimit="10" />
	<path d="M381.883 320.824H429.79" stroke="#263238" stroke-miterlimit="10" />
	<path d="M436.969 313.153H424.041" stroke="#263238" stroke-miterlimit="10" />
	<path d="M306.497 391.514H214.616V386.615L306.497 381.727V391.514Z" fill="white" stroke="#263238" stroke-miterlimit="10" />
	<path
		d="M358.875 373.336L335.233 314.743L331.236 316.365V317.322L354.577 375.055C355.12 376.41 355.322 377.878 355.166 379.33C355.01 380.781 354.5 382.172 353.681 383.381C352.862 384.59 351.759 385.579 350.469 386.263C349.179 386.947 347.741 387.304 346.28 387.303H315.299V391.976H346.28C348.497 391.964 350.678 391.411 352.632 390.366C354.587 389.321 356.257 387.815 357.498 385.979C358.739 384.143 359.513 382.031 359.753 379.828C359.993 377.625 359.692 375.397 358.875 373.336Z"
		fill="white" stroke="#263238" stroke-miterlimit="10" />
	<path d="M346.811 233.859L339.514 232.979L323.005 369.757L330.303 370.638L346.811 233.859Z" fill="white" stroke="#263238" stroke-miterlimit="10" />
	<path d="M316.072 391.6H276.311V386.927C276.309 384.483 277.215 382.125 278.853 380.311C280.491 378.496 282.744 377.355 285.177 377.107L305.24 375.077C306.612 374.939 307.997 375.089 309.307 375.519C310.616 375.949 311.821 376.649 312.844 377.573C313.867 378.497 314.684 379.626 315.244 380.885C315.804 382.144 316.093 383.507 316.094 384.885L316.072 391.6Z" fill="white" stroke="#263238"
		stroke-miterlimit="10" />
	<path d="M139.456 198.652C139.456 198.652 130.977 178.144 122.95 176.36C114.922 174.577 81.0388 191.519 90.3881 207.129C99.7375 222.739 109.57 221.836 118.49 217.872C127.409 213.908 139.456 198.652 139.456 198.652Z" fill="#263238" stroke="#263238" stroke-miterlimit="10" />
	<path d="M102.875 183.934C102.875 183.934 93.9559 180.819 89.4962 180.819C85.0364 180.819 84.123 195.086 84.123 195.086C84.123 195.086 87.2717 181.259 102.875 183.934Z" fill="#263238" stroke="#263238" stroke-miterlimit="10" />
	<path
		d="M199.216 214.262C199.216 214.262 204.128 220.945 205.46 226.746C206.793 232.547 203.236 238.778 204.568 243.688C205.901 248.597 212.155 253.045 211.704 256.171C211.252 259.298 202.344 264.197 202.344 264.197C202.344 264.197 194.757 282.46 191.597 283.814C188.438 285.167 177.81 282.019 172.963 279.806C168.116 277.593 161.808 278.023 161.808 278.023L132.793 263.305C132.793 263.305 135.92 257.504 132.353 249.038C128.785 240.572 126.979 226.295 148.848 212.028C170.717 197.761 199.216 214.262 199.216 214.262Z"
		fill="white" stroke="#263238" stroke-miterlimit="10" />
	<path d="M195.208 263.305C194.603 262.376 193.69 261.688 192.63 261.362C191.569 261.036 190.428 261.093 189.405 261.522" stroke="#263238" stroke-miterlimit="10" />
	<path d="M198.753 241.453C198.753 243.677 198.055 245.471 197.196 245.471C196.336 245.471 195.627 243.677 195.627 241.453C195.627 239.229 196.326 237.446 197.196 237.446C198.066 237.446 198.753 239.24 198.753 241.453Z" fill="#263238" />
	<path d="M194.316 230.313C194.732 229.885 195.235 229.554 195.792 229.341C196.349 229.129 196.946 229.041 197.54 229.082C198.135 229.124 198.713 229.296 199.235 229.584C199.756 229.873 200.208 230.272 200.56 230.753" stroke="#263238" stroke-miterlimit="10" />
	<path d="M197.658 250.37C201.967 250.37 205.46 244.781 205.46 237.887C205.46 230.992 201.967 225.403 197.658 225.403C193.349 225.403 189.856 230.992 189.856 237.887C189.856 244.781 193.349 250.37 197.658 250.37Z" stroke="#263238" stroke-miterlimit="10" />
	<path d="M189.856 237.887L155.06 241.453" stroke="#263238" stroke-miterlimit="10" />
	<path
		d="M147.924 249.93C147.924 249.93 139.456 259.298 134.545 259.298C129.634 259.298 120.274 253.045 115.814 246.406C111.354 239.767 120.274 222.771 125.185 212.962C130.096 203.154 139.005 186.652 157.295 183.086C175.585 179.519 182.721 180.862 198.324 188.887C213.928 196.912 212.155 208.504 209.479 212.071C207.509 214.548 205.263 216.794 202.784 218.764C202.784 218.764 212.596 213.392 216.163 215.197C219.731 217.002 219.742 219.204 219.742 219.204C219.742 219.204 208.587 219.655 207.244 219.655C205.901 219.655 201.452 221.879 201.452 221.879C201.452 221.879 192.081 224.114 187.18 222.771C182.28 221.428 175.585 216.486 175.112 221.858C174.64 227.229 167.977 236.576 165.301 237.468C162.625 238.359 158.606 238.8 155.038 241.475C151.47 244.15 147.924 249.93 147.924 249.93Z"
		fill="#263238" stroke="#263238" stroke-miterlimit="10" />
	<path d="M158.187 245.912C158.187 245.912 151.943 233.02 145.7 238.338C139.456 243.656 146.14 257.503 148.816 258.846C151.492 260.189 156.844 256.612 156.844 256.612C156.844 256.612 157.295 262.413 159.079 265.088" fill="white" />
	<path d="M158.187 245.912C158.187 245.912 151.943 233.02 145.7 238.338C139.456 243.656 146.14 257.503 148.816 258.846C151.492 260.189 156.844 256.612 156.844 256.612C156.844 256.612 157.295 262.413 159.079 265.088" stroke="#263238" stroke-miterlimit="10" />
	<path d="M122.509 278.023C122.509 278.023 130.031 270.438 130.031 265.539C130.031 260.641 132.707 256.612 149.654 264.648C166.601 272.684 172.458 282.019 168.89 284.705C165.323 287.391 157.736 290.077 155.995 291.839C154.254 293.601 147.967 302.098 147.967 302.098C147.967 302.098 137.221 278.023 122.509 278.023Z" fill="#3298DC" stroke="#263238" stroke-miterlimit="10" />
	<path d="M140.982 262.016C140.982 262.016 137.199 262.778 137.962 265.421C138.411 267.023 138.411 268.718 137.962 270.32L135.695 273.726" stroke="#263238" stroke-miterlimit="10" />
	<path d="M149.708 264.648C149.708 264.648 145.506 269.192 145.882 270.696C146.258 272.2 147.021 274.478 145.506 275.23C144.161 275.831 142.775 276.337 141.358 276.745" stroke="#263238" stroke-miterlimit="10" />
	<path d="M151.169 282.148C150.385 283.298 149.665 284.297 149.665 284.297" stroke="#263238" stroke-miterlimit="10" />
	<path d="M157.596 269.944C157.596 269.944 158.348 273.339 156.833 275.606C155.318 277.873 153.437 277.873 153.061 279.001" stroke="#263238" stroke-miterlimit="10" />
	<path d="M165.903 275.982C165.207 277.95 164.322 279.846 163.259 281.643C162.12 283.158 157.972 282.782 157.209 284.662C156.467 286.113 155.44 287.399 154.189 288.444" stroke="#263238" stroke-miterlimit="10" />
	<path d="M252.68 346.876C249.359 345.555 240.063 344.222 240.063 344.222" stroke="#263238" stroke-miterlimit="10" />
	<path d="M236.076 342.89C236.076 342.89 243.384 340.903 248.026 342.89" stroke="#263238" stroke-miterlimit="10" />
	<path
		d="M251.197 358.296C251.197 358.296 255.141 365.096 256.215 367.245C257.29 369.394 257.644 370.468 256.57 370.468C255.495 370.468 251.551 368.685 251.197 366.536C251.051 365.402 250.686 364.307 250.122 363.313C250.122 363.313 252.142 371.188 251.551 371.542C249.219 372.971 247.618 370.468 247.618 370.468L244.749 361.873C244.749 361.873 243.674 366.171 243.32 367.245C242.965 368.319 240.805 365.462 240.805 363.313C240.84 361.635 240.962 359.961 241.17 358.296L239.021 356.502C239.021 356.502 242.245 353.279 245.823 353.279C249.402 353.279 251.197 358.296 251.197 358.296Z"
		fill="white" stroke="#263238" stroke-miterlimit="10" />
	<path
		d="M196.036 347.553L197.433 347.456C203.612 347.048 228.135 345.404 229.672 345.404C231.466 345.404 241.847 351.13 241.847 351.13C245.075 350.935 248.315 351.058 251.519 351.496C255.108 352.205 258.332 356.502 259.761 357.941C261.191 359.381 265.855 361.164 263.34 361.873C260.825 362.582 259.762 362.948 258.332 362.593C256.903 362.239 251.164 358.296 251.164 358.296L241.847 356.867C241.847 356.867 233.25 361.519 232.176 361.873C231.101 362.228 233.616 364.742 236.12 366.536C238.623 368.33 242.567 370.833 242.213 373.691C241.858 376.549 240.773 376.205 237.914 373.691C235.056 371.177 232.176 369.759 227.877 366.89C223.949 364.067 220.239 360.953 216.776 357.576L214.627 355.427C214.627 355.427 189.556 363.667 180.958 366.171C173.089 368.383 165.079 370.059 156.983 371.188C151.61 371.908 141.229 369.759 138.36 367.61C135.491 365.462 127.968 358.65 127.968 358.65L140.864 332.867C140.864 332.867 156.274 347.198 162.357 348.627C168.439 350.056 196.036 347.553 196.036 347.553Z"
		fill="white" stroke="#263238" stroke-miterlimit="10" />
	<path d="M162.357 348.627C156.274 347.198 140.864 332.867 140.864 332.867L127.968 358.65C127.968 358.65 135.491 365.462 138.36 367.61C141.229 369.759 151.61 371.908 156.983 371.188C164.334 370.161 171.615 368.69 178.788 366.783C178.981 365.139 179.132 363.377 179.196 361.519C179.336 357.458 179.196 352.86 178.992 348.767C172.071 349.164 165.075 349.304 162.357 348.627Z" fill="#3298DC"
		stroke="#263238" stroke-miterlimit="10" />
	<path
		d="M153.437 306.288C153.406 298.88 151.066 291.667 146.742 285.651C144.664 282.606 141.851 280.134 138.564 278.463C123.67 271.695 113.203 276.605 103.767 289.207C85.0365 314.184 72.2268 343.846 67.2298 356.094C56.6876 381.619 54.7532 390.826 54.7532 390.826H125.228C125.228 390.826 121.66 381.909 121.66 379.686C121.66 377.462 125.228 372.993 125.228 372.993C125.228 372.993 146.635 365.408 150.643 353.816C153.555 345.286 153.62 319.384 153.437 306.288Z"
		fill="#3298DC" stroke="#263238" stroke-miterlimit="10" />
	<path d="M257.322 312.358C262.982 313.492 268.55 315.047 273.979 317.01" stroke="#263238" stroke-miterlimit="10" />
	<path d="M267.95 310.371C272.007 312.046 275.808 314.281 279.245 317.01" stroke="#263238" stroke-miterlimit="10" />
	<path
		d="M107.786 324.39C107.786 324.39 129.645 384.144 135.437 385.927C141.229 387.711 147.032 385.036 149.708 383.252C152.384 381.469 229.994 326.625 229.994 326.625C229.994 326.625 243.825 334.661 246.5 334.661C249.176 334.661 254.528 342.686 255.861 345.404C257.193 348.122 258.536 349.411 258.988 346.736C259.439 344.061 255.861 338.271 254.969 336.487C254.456 335.476 254.011 334.431 253.636 333.361C255.185 333.568 256.69 334.021 258.096 334.704C259.428 335.596 263.888 341.386 265.231 343.17C266.575 344.953 269.691 346.736 269.691 344.061C269.691 341.386 264.78 336.487 263.888 334.253C263.374 332.942 262.431 331.844 261.212 331.137C261.212 331.137 269.691 332.469 271.959 333.361C274.226 334.253 275.537 339.603 278.213 340.054C280.889 340.505 276.87 334.682 275.978 332.029C275.086 329.375 263.931 325.787 263.931 325.787C263.931 325.787 271.067 324.895 273.302 324.895C275.537 324.895 280.427 329.289 281.738 329.289C283.049 329.289 283.07 327.946 279.503 325.271C275.935 322.596 269.691 319.9 267.015 319.9C264.319 319.826 261.634 319.528 258.988 319.008C256.312 318.568 236.238 314.55 232.229 314.55C228.221 314.55 167.998 342.643 167.998 342.643L164.097 339.173C164.023 339.106 163.929 339.065 163.829 339.055L163.173 338.98C160.924 338.791 158.682 339.424 156.865 340.763C156.543 340.978 156.22 340.946 155.952 340.409C155.06 338.625 149.267 302.958 146.14 295.373C143.013 287.788 133.245 270.857 116.265 280.666"
		fill="white" />
	<path
		d="M107.786 324.39C107.786 324.39 129.645 384.144 135.437 385.927C141.229 387.711 147.032 385.036 149.708 383.252C152.384 381.469 229.994 326.625 229.994 326.625C229.994 326.625 243.825 334.661 246.5 334.661C249.176 334.661 254.528 342.686 255.861 345.404C257.193 348.122 258.536 349.411 258.988 346.736C259.439 344.061 255.861 338.271 254.969 336.487C254.456 335.476 254.011 334.431 253.636 333.361C255.185 333.568 256.69 334.021 258.096 334.704C259.428 335.596 263.888 341.386 265.231 343.17C266.575 344.953 269.691 346.736 269.691 344.061C269.691 341.386 264.78 336.487 263.888 334.253C263.374 332.942 262.431 331.844 261.212 331.137C261.212 331.137 269.691 332.469 271.959 333.361C274.226 334.253 275.537 339.603 278.213 340.054C280.889 340.505 276.87 334.682 275.978 332.029C275.086 329.375 263.931 325.787 263.931 325.787C263.931 325.787 271.067 324.895 273.302 324.895C275.537 324.895 280.427 329.289 281.738 329.289C283.049 329.289 283.07 327.946 279.503 325.271C275.935 322.596 269.691 319.9 267.015 319.9C264.319 319.826 261.634 319.528 258.988 319.008C256.312 318.568 236.238 314.55 232.229 314.55C228.221 314.55 167.998 342.643 167.998 342.643L164.097 339.173C164.023 339.106 163.929 339.065 163.829 339.055L163.173 338.98C160.924 338.791 158.682 339.424 156.865 340.763C156.543 340.978 156.22 340.946 155.952 340.409C155.06 338.625 149.267 302.958 146.14 295.373C143.013 287.788 133.245 270.857 116.265 280.666"
		stroke="#263238" stroke-miterlimit="10" />
	<path
		d="M107.786 324.391C107.786 324.391 129.645 384.144 135.437 385.927C141.229 387.711 147.032 385.036 149.708 383.252C151.127 382.307 173.35 366.611 194.09 351.979L186.375 334.188C176.004 338.937 167.998 342.675 167.998 342.675L164.097 339.205C164.023 339.138 163.929 339.097 163.829 339.087L163.173 339.012C160.924 338.823 158.682 339.457 156.865 340.795C156.543 341.01 156.22 340.978 155.952 340.441C155.06 338.657 149.267 302.99 146.14 295.405C143.013 287.821 133.245 270.89 116.265 280.698"
		fill="#3298DC" />
	<path
		d="M107.786 324.391C107.786 324.391 129.645 384.144 135.437 385.927C141.229 387.711 147.032 385.036 149.708 383.252C151.127 382.307 173.35 366.611 194.09 351.979L186.375 334.188C176.004 338.937 167.998 342.675 167.998 342.675L164.097 339.205C164.023 339.138 163.929 339.097 163.829 339.087L163.173 339.012C160.924 338.823 158.682 339.457 156.865 340.795C156.543 341.01 156.22 340.978 155.952 340.441C155.06 338.657 149.267 302.99 146.14 295.405C143.013 287.821 133.245 270.89 116.265 280.698"
		stroke="#263238" stroke-miterlimit="10" />
	<path d="M156.016 341.891C152.619 346.039 148.873 349.889 144.818 353.397" stroke="#263238" stroke-miterlimit="10" />
	<path d="M153.459 344.77C153.459 344.77 146.108 347.327 140.026 348.928" stroke="#263238" stroke-miterlimit="10" />
	<path d="M54.7533 390.826L42.4487 282.965C42.2994 281.653 41.8886 280.384 41.2406 279.233C40.5925 278.082 39.7202 277.072 38.6754 276.264C37.6305 275.456 36.4343 274.865 35.1572 274.527C33.8802 274.189 32.5483 274.11 31.2402 274.295C28.6714 274.661 26.3494 276.022 24.7753 278.084C23.2011 280.146 22.5009 282.744 22.8258 285.318L36.2373 390.998L54.7533 390.826Z" fill="#263238" stroke="#263238"
		stroke-miterlimit="10" />
	<path fill-rule="evenodd" clip-rule="evenodd"
		d="M81.8124 14.0412C81.9127 14.0286 81.9845 13.9313 81.9728 13.8237C81.9611 13.7162 81.8702 13.6392 81.7699 13.6518L76.5867 14.3015L76.3589 14.2004C76.2656 14.159 76.1586 14.2066 76.12 14.3066L76.003 14.6096C75.9834 14.6603 75.9852 14.7148 76.0038 14.7615L72.8481 19.1444L73.0464 16.1039L73.0564 16.1005C73.2047 16.0495 73.2863 15.8794 73.2388 15.7204L73.1748 15.5063C73.1388 15.3861 73.0187 15.3199 72.9064 15.3584L72.7021 15.4287C72.5666 15.4752 72.4867 15.6213 72.5102 15.7674L67.203 21.2907C67.1305 21.3661 67.1288 21.4902 67.1992 21.5679C67.2695 21.6455 67.3853 21.6474 67.4578 21.572L72.6774 16.1399L72.4657 19.3848L72.3425 19.4593C72.2468 19.5172 72.2134 19.6476 72.268 19.7498L72.4209 20.0358C72.4753 20.1376 72.5963 20.1729 72.6913 20.1146L72.9472 19.9574C73.0382 19.9015 73.0728 19.7793 73.0261 19.6786L72.9867 19.5936L76.3209 14.9628L76.3908 14.9938C76.4842 15.0352 76.5911 14.9877 76.6298 14.8876L76.7096 14.6808L81.8124 14.0412Z"
		fill="url(#paint0_linear_206_3)" />
	<path d="M77.4019 12.7781C77.384 12.759 77.384 12.728 77.4019 12.7088L77.7289 12.3582C77.7467 12.339 77.7756 12.339 77.7935 12.3582L78.1205 12.7088C78.1384 12.728 78.1384 12.759 78.1205 12.7781L77.7935 13.1288C77.7756 13.1479 77.7467 13.1479 77.7289 13.1288L77.4019 12.7781Z" fill="white" />
	<path fill-rule="evenodd" clip-rule="evenodd"
		d="M76.6173 10.4571C76.7305 10.4024 76.8563 10.3937 76.9736 10.4265C77.1034 10.4629 77.2947 10.5172 77.3627 10.541C77.4671 10.5776 77.6745 10.6574 77.87 10.7346C78.2579 10.8878 78.8381 11.1429 78.9168 11.1776L78.9174 11.1778L78.9204 11.1789C78.9223 11.1796 78.9253 11.1807 78.9284 11.1819C78.9312 11.183 78.9359 11.1849 78.9412 11.1875C78.9414 11.1876 78.9416 11.1876 78.9418 11.1877L80.74 12.0535L82.699 13.0299C82.762 13.0613 82.7893 13.1415 82.76 13.209C82.7307 13.2764 82.656 13.3057 82.593 13.2743L80.6362 12.299L80.6347 12.2983L78.8405 11.4345C78.8403 11.4344 78.84 11.4343 78.8396 11.4341C78.8385 11.4337 78.8358 11.4327 78.8335 11.4319C78.8312 11.431 78.8272 11.4295 78.8227 11.4275C78.7497 11.3953 78.1684 11.1397 77.7831 10.9875C77.5873 10.9102 77.384 10.8321 77.2845 10.7972C77.2258 10.7766 77.0441 10.7248 76.9101 10.6873C76.8455 10.6692 76.7788 10.6747 76.7207 10.7028C76.6314 10.7459 76.5193 10.8033 76.4393 10.8544C76.289 10.9502 75.9395 11.186 75.9038 11.2101C75.9011 11.2119 75.8987 11.2135 75.8961 11.2152L75.2342 11.6457L70.3664 14.6645L66.5389 21.4768L66.5389 21.4769C66.5259 21.4998 66.508 21.5191 66.4866 21.5331L64.3219 22.95L64.11 24.4592L66.6795 22.3703C66.7446 22.3174 66.8368 22.3272 66.8909 22.3928L68.6114 24.4788L68.8519 23.6056C68.8715 23.5342 68.9414 23.4934 69.008 23.5145C69.0747 23.5355 69.1127 23.6105 69.093 23.6819L68.8038 24.732C68.7691 24.8583 68.6183 24.8941 68.537 24.7955L66.761 22.6423L64.0753 24.8256C63.9637 24.9164 63.8056 24.8158 63.8265 24.6673L64.0799 22.8628C64.0868 22.8138 64.1135 22.7706 64.1529 22.7448L66.3357 21.3161L70.1844 14.4659L75.106 11.4139L75.7656 10.9847C75.7666 10.9841 75.7675 10.9835 75.7683 10.983C75.7688 10.9827 75.7693 10.9823 75.7698 10.982C75.8042 10.9588 76.1571 10.7208 76.3107 10.6227C76.4036 10.5634 76.5268 10.5009 76.6173 10.4571ZM66.3555 21.3032C66.3555 21.3031 66.3556 21.3031 66.3556 21.3031L66.3555 21.3032ZM82.6952 14.2649C82.7489 14.3121 82.7568 14.397 82.7128 14.4546L81.9054 15.5106L78.6034 17.9626L74.4761 18.4482C74.4071 18.4563 74.3451 18.4029 74.3375 18.3289C74.3299 18.2549 74.3797 18.1884 74.4487 18.1802L78.5126 17.7021L81.7332 15.3105L82.5183 14.2837C82.5623 14.2262 82.6415 14.2177 82.6952 14.2649ZM81.4562 14.6004C81.497 14.6606 81.4845 14.7449 81.4284 14.7886L78.3429 17.1898L75.2592 17.6066C75.1903 17.616 75.1274 17.5636 75.1187 17.4898C75.11 17.416 75.1588 17.3485 75.2277 17.3392L78.2474 16.9311L81.2806 14.5705C81.3368 14.5267 81.4154 14.5401 81.4562 14.6004ZM79.664 14.7441C79.7086 14.8011 79.7016 14.8861 79.6484 14.9339L77.9512 16.4583L76.1198 16.7001C76.0509 16.7092 75.9882 16.6566 75.9797 16.5828C75.9712 16.5089 76.0202 16.4416 76.0891 16.4325L77.8467 16.2005L79.4869 14.7273C79.5401 14.6795 79.6194 14.687 79.664 14.7441ZM72.1764 19.1155C72.2097 19.1809 72.1871 19.2628 72.1262 19.2984L69.1583 21.0309C69.0973 21.0665 69.0209 21.0423 68.9878 20.977C68.9546 20.9116 68.977 20.8298 69.0381 20.7942L72.0059 19.0617C72.0669 19.026 72.1432 19.0502 72.1764 19.1155Z"
		fill="white" />
	<path d="M113.761 362.507C112.922 361.656 111.826 361.103 110.643 360.933C109.459 360.762 108.252 360.983 107.206 361.562C103.456 363.625 102.703 372.058 104.391 378.053C106.078 384.047 113.761 380.674 113.761 380.674L113.579 376.742C113.579 376.742 107.206 377.483 106.83 374.121C106.454 370.758 106.271 366.439 110.054 366.439C113.837 366.439 114.933 367.374 114.933 367.374L113.761 362.507Z"
		fill="white" stroke="#263238" stroke-miterlimit="10" />
	<path d="M142.895 355.159H113.138V390.762H142.895V355.159Z" fill="white" stroke="#263238" stroke-miterlimit="10" />
	<path d="M463.265 390.568H1V401H463.265V390.568Z" fill="#263238" stroke="#263238" stroke-miterlimit="10" />
	<path fill-rule="evenodd" clip-rule="evenodd"
		d="M135.087 370.745C135.194 370.732 135.27 370.628 135.257 370.514C135.245 370.4 135.148 370.319 135.042 370.332L129.544 371.021L129.303 370.914C129.204 370.87 129.09 370.92 129.049 371.026L128.925 371.348C128.904 371.402 128.906 371.459 128.926 371.509L125.579 376.158L125.789 372.933L125.8 372.929C125.957 372.875 126.044 372.695 125.993 372.526L125.925 372.299C125.887 372.171 125.76 372.101 125.641 372.142L125.424 372.217C125.28 372.266 125.195 372.421 125.22 372.576L119.591 378.434C119.514 378.514 119.512 378.646 119.587 378.728C119.662 378.811 119.784 378.813 119.861 378.733L125.398 372.971L125.173 376.413L125.042 376.492C124.941 376.553 124.905 376.692 124.963 376.8L125.126 377.103C125.183 377.211 125.312 377.249 125.412 377.187L125.684 377.02C125.78 376.961 125.817 376.831 125.768 376.724L125.726 376.634L129.262 371.722L129.336 371.755C129.435 371.799 129.549 371.749 129.59 371.643L129.675 371.423L135.087 370.745Z"
		fill="url(#paint1_linear_206_3)" />
	<path d="M124.289 382.909V382.794H123.88V383.675H124.018V382.909H124.289Z" fill="#263238" />
	<path
		d="M125.049 383.671V383.59C124.982 383.592 124.97 383.545 124.97 383.481V383.148C124.97 382.975 124.977 382.771 124.732 382.771C124.593 382.771 124.489 382.794 124.428 382.813V382.926C124.494 382.905 124.574 382.888 124.652 382.888C124.741 382.888 124.833 382.89 124.833 383.065V383.148H124.723C124.51 383.148 124.37 383.221 124.37 383.458C124.37 383.639 124.49 383.699 124.596 383.699C124.682 383.699 124.763 383.66 124.836 383.554C124.836 383.554 124.849 383.682 124.934 383.682C124.996 383.682 125.033 383.675 125.049 383.671ZM124.833 383.426C124.833 383.426 124.758 383.575 124.628 383.575C124.55 383.575 124.511 383.522 124.511 383.426C124.511 383.272 124.609 383.246 124.716 383.246H124.833V383.426Z"
		fill="#263238" />
	<path
		d="M125.832 383.204C125.832 382.958 125.752 382.777 125.545 382.777C125.396 382.777 125.317 382.881 125.317 382.881L125.305 382.794H125.18V384.08H125.317V383.652C125.357 383.675 125.42 383.692 125.491 383.692C125.649 383.692 125.832 383.566 125.832 383.204ZM125.689 383.204C125.689 383.496 125.608 383.588 125.477 383.588C125.378 383.588 125.317 383.526 125.317 383.526V383.022C125.317 383.022 125.361 382.896 125.507 382.896C125.656 382.896 125.689 383.069 125.689 383.204Z"
		fill="#263238" />
	<path
		d="M126.622 383.671V383.59C126.556 383.592 126.543 383.545 126.543 383.481V383.148C126.543 382.975 126.55 382.771 126.305 382.771C126.166 382.771 126.062 382.794 126.001 382.813V382.926C126.067 382.905 126.147 382.888 126.225 382.888C126.314 382.888 126.406 382.89 126.406 383.065V383.148H126.297C126.083 383.148 125.943 383.221 125.943 383.458C125.943 383.639 126.063 383.699 126.17 383.699C126.255 383.699 126.337 383.66 126.41 383.554C126.41 383.554 126.422 383.682 126.507 383.682C126.57 383.682 126.606 383.675 126.622 383.671ZM126.406 383.426C126.406 383.426 126.331 383.575 126.201 383.575C126.123 383.575 126.084 383.522 126.084 383.426C126.084 383.272 126.182 383.246 126.29 383.246H126.406V383.426Z"
		fill="#263238" />
	<path d="M127.358 383.675V382.794H127.221V383.161H126.89V382.794H126.753V383.675H126.89V383.266H127.221V383.675H127.358Z" fill="#263238" />
	<path d="M128.063 382.909V382.794H127.48V382.909H127.703V383.675H127.84V382.909H128.063Z" fill="#263238" />
	<path d="M128.818 383.675V382.792H128.672L128.321 383.475V382.794H128.183V383.675H128.33L128.681 382.991V383.675H128.818Z" fill="#263238" />
	<path
		d="M129.557 383.675V382.798C129.512 382.792 129.418 382.777 129.329 382.777C129.202 382.777 128.994 382.813 128.994 383.05C128.994 383.229 129.129 383.27 129.185 383.283V383.295C129.133 383.33 129.107 383.346 129.048 383.479L128.961 383.675H129.122L129.185 383.498C129.242 383.338 129.298 383.317 129.361 383.317H129.42V383.675H129.557ZM129.42 383.229H129.329C129.168 383.229 129.136 383.127 129.136 383.05C129.136 382.896 129.242 382.882 129.317 382.882C129.357 382.882 129.42 382.892 129.42 382.892V383.229Z"
		fill="#263238" />
	<path
		d="M130.803 383.204C130.803 382.958 130.723 382.777 130.516 382.777C130.366 382.777 130.288 382.881 130.288 382.881L130.276 382.794H130.151V384.08H130.288V383.652C130.328 383.675 130.391 383.692 130.462 383.692C130.62 383.692 130.803 383.566 130.803 383.204ZM130.66 383.204C130.66 383.496 130.579 383.588 130.448 383.588C130.349 383.588 130.288 383.526 130.288 383.526V383.022C130.288 383.022 130.332 382.896 130.478 382.896C130.627 382.896 130.66 383.069 130.66 383.204Z"
		fill="#263238" />
	<path
		d="M131.603 383.238C131.603 382.841 131.398 382.777 131.267 382.777C131.142 382.777 130.932 382.839 130.932 383.238C130.932 383.549 131.073 383.701 131.26 383.701C131.446 383.701 131.603 383.549 131.603 383.238ZM131.46 383.238C131.46 383.477 131.389 383.594 131.267 383.594C131.153 383.594 131.074 383.477 131.074 383.238C131.074 382.909 131.191 382.884 131.267 382.884C131.34 382.884 131.46 382.909 131.46 383.238Z"
		fill="#263238" />
	<path
		d="M132.233 383.65V383.532C132.201 383.553 132.135 383.571 132.099 383.571C131.951 383.571 131.88 383.477 131.88 383.238C131.88 382.922 132.007 382.892 132.09 382.892C132.132 382.892 132.205 382.905 132.233 382.914V382.792C132.205 382.786 132.154 382.777 132.08 382.777C131.944 382.777 131.737 382.849 131.737 383.238C131.737 383.547 131.854 383.692 132.045 383.692C132.168 383.692 132.212 383.66 132.233 383.65Z"
		fill="#263238" />
	<path d="M132.894 382.909V382.794H132.312V382.909H132.534V383.675H132.672V382.909H132.894Z" fill="#263238" />
	<path
		d="M133.651 383.671V383.59C133.585 383.592 133.573 383.545 133.573 383.481V383.148C133.573 382.975 133.58 382.771 133.335 382.771C133.196 382.771 133.091 382.794 133.03 382.813V382.926C133.097 382.905 133.177 382.888 133.255 382.888C133.344 382.888 133.436 382.89 133.436 383.065V383.148H133.326C133.112 383.148 132.973 383.221 132.973 383.458C132.973 383.639 133.093 383.699 133.199 383.699C133.284 383.699 133.366 383.66 133.439 383.554C133.439 383.554 133.451 383.682 133.537 383.682C133.599 383.682 133.636 383.675 133.651 383.671ZM133.436 383.426C133.436 383.426 133.361 383.575 133.23 383.575C133.152 383.575 133.114 383.522 133.114 383.426C133.114 383.272 133.211 383.246 133.319 383.246H133.436V383.426Z"
		fill="#263238" />
	<path d="M130.409 369.405C130.39 369.385 130.39 369.352 130.409 369.332L130.756 368.96C130.775 368.939 130.805 368.939 130.824 368.96L131.171 369.332C131.19 369.352 131.19 369.385 131.171 369.405L130.824 369.777C130.805 369.797 130.775 369.797 130.756 369.777L130.409 369.405Z" fill="white" />
	<path fill-rule="evenodd" clip-rule="evenodd"
		d="M129.577 366.943C129.697 366.885 129.83 366.876 129.954 366.911C130.092 366.949 130.295 367.007 130.367 367.032C130.478 367.071 130.698 367.156 130.905 367.238C131.317 367.4 131.932 367.671 132.016 367.708L132.016 367.708L132.02 367.709C132.021 367.71 132.025 367.711 132.028 367.712C132.031 367.713 132.036 367.715 132.042 367.718C132.042 367.718 132.042 367.718 132.042 367.718L133.95 368.637L136.027 369.672C136.094 369.706 136.123 369.791 136.092 369.862C136.061 369.934 135.982 369.965 135.915 369.932L133.839 368.897L133.838 368.896L131.935 367.98C131.934 367.98 131.934 367.98 131.934 367.98C131.933 367.979 131.93 367.978 131.927 367.977C131.925 367.976 131.921 367.975 131.916 367.973C131.838 367.938 131.222 367.667 130.813 367.506C130.605 367.424 130.39 367.341 130.284 367.304C130.222 367.282 130.029 367.227 129.887 367.187C129.819 367.168 129.748 367.174 129.686 367.204C129.592 367.25 129.473 367.311 129.388 367.365C129.228 367.466 128.858 367.716 128.82 367.742C128.817 367.744 128.814 367.746 128.812 367.747L128.11 368.204L122.946 371.406L118.886 378.632L118.886 378.632C118.873 378.656 118.854 378.677 118.831 378.692L116.535 380.195L116.31 381.795L119.036 379.58C119.105 379.524 119.202 379.534 119.26 379.604L121.085 381.816L121.34 380.89C121.361 380.814 121.435 380.771 121.505 380.793C121.576 380.816 121.616 380.895 121.596 380.971L121.289 382.085C121.252 382.219 121.092 382.257 121.006 382.152L119.122 379.868L116.273 382.184C116.155 382.28 115.987 382.174 116.009 382.016L116.278 380.102C116.285 380.05 116.314 380.004 116.356 379.977L118.671 378.461L122.753 371.195L127.974 367.958L128.673 367.503C128.674 367.502 128.675 367.502 128.676 367.501C128.677 367.501 128.677 367.5 128.678 367.5C128.714 367.475 129.088 367.223 129.251 367.119C129.35 367.056 129.481 366.99 129.577 366.943ZM118.692 378.448C118.692 378.448 118.692 378.448 118.692 378.448L118.692 378.448ZM136.023 370.982C136.08 371.032 136.089 371.122 136.042 371.183L135.186 372.303L131.683 374.904L127.305 375.419C127.232 375.428 127.166 375.371 127.158 375.293C127.15 375.214 127.203 375.144 127.276 375.135L131.587 374.628L135.003 372.091L135.836 371.002C135.882 370.941 135.966 370.932 136.023 370.982ZM134.709 371.338C134.752 371.402 134.739 371.491 134.68 371.538L131.407 374.085L128.136 374.527C128.063 374.537 127.996 374.481 127.987 374.403C127.978 374.325 128.03 374.253 128.103 374.243L131.306 373.81L134.523 371.306C134.583 371.26 134.666 371.274 134.709 371.338ZM132.808 371.49C132.855 371.551 132.848 371.641 132.792 371.692L130.991 373.309L129.049 373.565C128.976 373.575 128.909 373.519 128.9 373.441C128.891 373.362 128.943 373.291 129.016 373.281L130.881 373.035L132.62 371.473C132.677 371.422 132.761 371.43 132.808 371.49ZM124.866 376.127C124.901 376.197 124.878 376.283 124.813 376.321L121.665 378.159C121.6 378.197 121.519 378.171 121.484 378.102C121.449 378.032 121.473 377.946 121.537 377.908L124.685 376.07C124.75 376.032 124.831 376.058 124.866 376.127Z"
		fill="#263238" />
	<path fill-rule="evenodd" clip-rule="evenodd"
		d="M124.667 376.958C123.909 377.143 123.343 377.876 123.343 378.752V380.227C123.343 381.243 124.104 382.066 125.043 382.066H125.753C126.691 382.066 127.452 381.243 127.452 380.227V378.752C127.452 377.881 126.893 377.152 126.143 376.961V378.21C126.292 378.335 126.388 378.531 126.388 378.752V380.227C126.388 380.607 126.103 380.914 125.753 380.914H125.043C124.692 380.914 124.408 380.607 124.408 380.227V378.752C124.408 378.524 124.51 378.323 124.667 378.198V376.958ZM129.282 377.013H128.218V382.127H129.282V381.47H130.468C131.603 381.47 132.523 380.475 132.523 379.247C132.523 378.019 131.601 377.013 130.467 377.013H129.282ZM129.282 378.176V380.318H130.468C131.015 380.318 131.458 379.838 131.458 379.247C131.458 378.655 131.015 378.176 130.468 378.176H129.282ZM139.05 377.013H137.985V382.127H139.05V377.013ZM133.167 377.013V378.166H134.698V382.127H135.763V378.166H137.294V377.013H135.763H134.698H133.167Z"
		fill="#263238" />
	<path
		d="M138.374 375.369H138.65C138.664 375.369 138.677 375.375 138.686 375.386L139.036 375.779C139.045 375.789 139.05 375.802 139.05 375.815V376.102C139.05 376.116 139.044 376.13 139.035 376.14L138.686 376.509C138.677 376.519 138.664 376.524 138.651 376.524H138.374C138.361 376.524 138.348 376.519 138.339 376.509L137.987 376.14C137.978 376.13 137.972 376.116 137.972 376.102V375.815C137.972 375.802 137.977 375.789 137.986 375.779L138.339 375.386C138.348 375.375 138.361 375.369 138.374 375.369Z"
		fill="white" />
	<path d="M96.7599 31.1035L76.5913 65.6754" stroke="#95B5CB" stroke-linecap="round" />
	<path d="M76.5283 44.2737L76.5283 65.9105" stroke="url(#paint2_linear_206_3)" stroke-linecap="round" />
	<defs>
		<linearGradient id="paint0_linear_206_3" x1="67.1475" y1="21.6305" x2="82.3731" y2="14.4994" gradientUnits="userSpaceOnUse">
			<stop offset="0.0001" stop-color="#0BBBEF" />
			<stop offset="0.395412" stop-color="#00A0E3" />
			<stop offset="0.67667" stop-color="#126797" />
			<stop offset="0.792521" stop-color="#005893" />
			<stop offset="1" stop-color="#142647" />
		</linearGradient>
		<linearGradient id="paint1_linear_206_3" x1="119.532" y1="378.795" x2="135.682" y2="371.231" gradientUnits="userSpaceOnUse">
			<stop offset="0.0001" stop-color="#0BBBEF" />
			<stop offset="0.395412" stop-color="#00A0E3" />
			<stop offset="0.67667" stop-color="#126797" />
			<stop offset="0.792521" stop-color="#005893" />
			<stop offset="1" stop-color="#142647" />
		</linearGradient>
		<linearGradient id="paint2_linear_206_3" x1="76.0283" y1="65.9105" x2="76.0283" y2="41.9219" gradientUnits="userSpaceOnUse">
			<stop stop-color="#142647" />
			<stop offset="1" stop-color="#142647" stop-opacity="0.39" />
		</linearGradient>
	</defs>
</svg>