<svg width="26" height="21" viewBox="0 0 26 21" fill="none" xmlns="http://www.w3.org/2000/svg">
	<path d="M9.60376 19.6172C8.85181 19.6172 8.92017 19.3438 8.71509 18.6602L6.52759 11.4824L23.2756 1.63867" fill="#C8DAEA" />
	<path d="M9.60376 19.6172C10.0823 19.6172 10.3557 19.3438 10.6975 19.0703L13.7737 16.1309L9.94556 13.8066" fill="#A9C9DD" />
	<path d="M9.94557 13.8066L19.1741 20.5742C20.1311 21.1895 20.9514 20.8477 21.2249 19.6172L24.9846 1.98047C25.3264 0.476565 24.3694 -0.207029 23.344 0.271487L1.40065 8.74805C-0.0348943 9.29492 -0.0348943 10.1836 1.12722 10.5254L6.80104 12.3027L19.7893 4.03125C20.4046 3.68946 20.9514 3.82617 20.5413 4.30469" fill="#F6FBFE" />
</svg>