<svg width="74" height="28" viewBox="0 0 74 28" fill="none" xmlns="http://www.w3.org/2000/svg">
	<path d="M70.3154 1.93176H2.56604C1.70114 1.93176 1 2.63212 1 3.49606V25.0484C1 25.9123 1.70114 26.6127 2.56604 26.6127H70.3154C71.1803 26.6127 71.8814 25.9123 71.8814 25.0484V3.49606C71.8814 2.63212 71.1803 1.93176 70.3154 1.93176Z" fill="#263238" stroke="#263238" stroke-linecap="round" stroke-linejoin="round" />
	<path d="M71.4339 1H3.68463C2.81973 1 2.11859 1.70036 2.11859 2.5643V24.1166C2.11859 24.9806 2.81973 25.6809 3.68463 25.6809H71.4339C72.2988 25.6809 73 24.9806 73 24.1166V2.5643C73 1.70036 72.2988 1 71.4339 1Z" fill="white" stroke="#263238" stroke-miterlimit="10" />
	<path
		d="M25.7661 10.6002C25.6527 10.6002 25.544 10.6452 25.4638 10.7253C25.3836 10.8054 25.3385 10.9141 25.3385 11.0273V15.0895C25.3347 15.148 25.343 15.2067 25.3628 15.2619C25.3826 15.3172 25.4136 15.3677 25.4537 15.4106C25.4939 15.4534 25.5424 15.4875 25.5963 15.5108C25.6502 15.5341 25.7083 15.5462 25.767 15.5462C25.8258 15.5462 25.8839 15.5341 25.9378 15.5108C25.9917 15.4875 26.0402 15.4534 26.0804 15.4106C26.1205 15.3677 26.1515 15.3172 26.1713 15.2619C26.1911 15.2067 26.1993 15.148 26.1955 15.0895V11.0273C26.1951 10.9139 26.1496 10.8053 26.0691 10.7252C25.9887 10.6452 25.8797 10.6002 25.7661 10.6002Z"
		fill="#263238" />
	<path
		d="M30.9984 10.6002C30.8848 10.6002 30.7758 10.6452 30.6954 10.7252C30.6149 10.8053 30.5694 10.9139 30.569 11.0273V15.0895C30.5652 15.148 30.5734 15.2067 30.5932 15.2619C30.613 15.3172 30.644 15.3677 30.6841 15.4106C30.7243 15.4534 30.7728 15.4875 30.8267 15.5108C30.8806 15.5341 30.9387 15.5462 30.9975 15.5462C31.0562 15.5462 31.1143 15.5341 31.1682 15.5108C31.2221 15.4875 31.2706 15.4534 31.3108 15.4106C31.3509 15.3677 31.3819 15.3172 31.4017 15.2619C31.4215 15.2067 31.4298 15.148 31.4259 15.0895V11.0273C31.4259 10.9141 31.3809 10.8054 31.3007 10.7253C31.2205 10.6452 31.1118 10.6002 30.9984 10.6002Z"
		fill="#263238" />
	<path
		d="M34.9117 10.6002C34.7983 10.6002 34.6895 10.6452 34.6093 10.7253C34.5291 10.8054 34.4841 10.9141 34.4841 11.0273V15.0895C34.4841 15.2027 34.5291 15.3114 34.6093 15.3915C34.6895 15.4716 34.7983 15.5166 34.9117 15.5166C35.0251 15.5166 35.1338 15.4716 35.214 15.3915C35.2942 15.3114 35.3393 15.2027 35.3393 15.0895V11.0273C35.3393 10.9141 35.2942 10.8054 35.214 10.7253C35.1338 10.6452 35.0251 10.6002 34.9117 10.6002Z"
		fill="#263238" />
	<path
		d="M37.5242 10.6002C37.4108 10.6002 37.302 10.6452 37.2218 10.7253C37.1416 10.8054 37.0966 10.9141 37.0966 11.0273V15.0895C37.0966 15.2027 37.1416 15.3114 37.2218 15.3915C37.302 15.4716 37.4108 15.5166 37.5242 15.5166C37.6376 15.5166 37.7463 15.4716 37.8265 15.3915C37.9067 15.3114 37.9517 15.2027 37.9517 15.0895V11.0273C37.9517 10.9141 37.9067 10.8054 37.8265 10.7253C37.7463 10.6452 37.6376 10.6002 37.5242 10.6002Z"
		fill="#263238" />
	<path
		d="M38.8304 10.6002C38.7169 10.6002 38.6082 10.6452 38.528 10.7253C38.4478 10.8054 38.4028 10.9141 38.4028 11.0273V15.0895C38.399 15.148 38.4072 15.2067 38.427 15.2619C38.4468 15.3172 38.4778 15.3677 38.5179 15.4106C38.5581 15.4534 38.6066 15.4875 38.6605 15.5108C38.7144 15.5341 38.7725 15.5462 38.8313 15.5462C38.89 15.5462 38.9481 15.5341 39.002 15.5108C39.0559 15.4875 39.1044 15.4534 39.1446 15.4106C39.1847 15.3677 39.2157 15.3172 39.2355 15.2619C39.2553 15.2067 39.2636 15.148 39.2598 15.0895V11.0273C39.2593 10.9139 39.2138 10.8053 39.1333 10.7252C39.0529 10.6452 38.9439 10.6002 38.8304 10.6002Z"
		fill="#263238" />
	<path
		d="M45.3633 10.6002C45.2498 10.6002 45.1408 10.6452 45.0604 10.7252C44.9799 10.8053 44.9344 10.9139 44.9339 11.0273V15.0895C44.9301 15.148 44.9384 15.2067 44.9582 15.2619C44.978 15.3172 45.009 15.3677 45.0491 15.4106C45.0893 15.4534 45.1378 15.4875 45.1917 15.5108C45.2456 15.5341 45.3037 15.5462 45.3624 15.5462C45.4212 15.5462 45.4793 15.5341 45.5332 15.5108C45.5871 15.4875 45.6356 15.4534 45.6758 15.4106C45.7159 15.3677 45.7469 15.3172 45.7667 15.2619C45.7865 15.2067 45.7947 15.148 45.7909 15.0895V11.0273C45.7909 10.9141 45.7459 10.8054 45.6657 10.7253C45.5855 10.6452 45.4768 10.6002 45.3633 10.6002Z"
		fill="#263238" />
	<path
		d="M53.2008 10.6002C53.0874 10.6002 52.9786 10.6452 52.8984 10.7253C52.8182 10.8054 52.7732 10.9141 52.7732 11.0273V15.0895C52.7732 15.2027 52.8182 15.3114 52.8984 15.3915C52.9786 15.4716 53.0874 15.5166 53.2008 15.5166C53.3142 15.5166 53.423 15.4716 53.5031 15.3915C53.5833 15.3114 53.6284 15.2027 53.6284 15.0895V11.0273C53.6284 10.9141 53.5833 10.8054 53.5031 10.7253C53.423 10.6452 53.3142 10.6002 53.2008 10.6002Z"
		fill="#263238" />
	<path
		d="M57.1195 10.6002C57.0061 10.6002 56.8973 10.6452 56.8171 10.7253C56.7369 10.8054 56.6919 10.9141 56.6919 11.0273V15.0895C56.6881 15.148 56.6963 15.2067 56.7161 15.2619C56.736 15.3172 56.7669 15.3677 56.8071 15.4106C56.8472 15.4534 56.8958 15.4875 56.9496 15.5108C57.0035 15.5341 57.0616 15.5462 57.1204 15.5462C57.1791 15.5462 57.2372 15.5341 57.2911 15.5108C57.345 15.4875 57.3935 15.4534 57.4337 15.4106C57.4739 15.3677 57.5048 15.3172 57.5246 15.2619C57.5444 15.2067 57.5527 15.148 57.5489 15.0895V11.0273C57.5484 10.9139 57.5029 10.8053 57.4225 10.7252C57.342 10.6452 57.233 10.6002 57.1195 10.6002Z"
		fill="#263238" />
	<path
		d="M58.4221 10.6002C58.3658 10.6 58.31 10.6109 58.2579 10.6322C58.2058 10.6536 58.1585 10.685 58.1186 10.7247C58.0787 10.7644 58.047 10.8115 58.0254 10.8635C58.0038 10.9154 57.9927 10.9711 57.9927 11.0273V15.0895C57.9889 15.148 57.9972 15.2067 58.017 15.2619C58.0368 15.3172 58.0677 15.3677 58.1079 15.4106C58.1481 15.4534 58.1966 15.4875 58.2505 15.5108C58.3044 15.5341 58.3625 15.5462 58.4212 15.5462C58.48 15.5462 58.5381 15.5341 58.592 15.5108C58.6458 15.4875 58.6944 15.4534 58.7345 15.4106C58.7747 15.3677 58.8056 15.3172 58.8255 15.2619C58.8453 15.2067 58.8535 15.148 58.8497 15.0895V11.0273C58.8497 10.9141 58.8047 10.8054 58.7245 10.7253C58.6443 10.6452 58.5355 10.6002 58.4221 10.6002Z"
		fill="#263238" />
	<path
		d="M63.6543 10.6002C63.5409 10.6002 63.4321 10.6452 63.3519 10.7253C63.2717 10.8054 63.2267 10.9141 63.2267 11.0273V15.0895C63.2267 15.2027 63.2717 15.3114 63.3519 15.3915C63.4321 15.4716 63.5409 15.5166 63.6543 15.5166C63.7677 15.5166 63.8764 15.4716 63.9566 15.3915C64.0368 15.3114 64.0819 15.2027 64.0819 15.0895V11.0273C64.0819 10.9141 64.0368 10.8054 63.9566 10.7253C63.8764 10.6452 63.7677 10.6002 63.6543 10.6002Z"
		fill="#263238" />
	<path
		d="M64.9587 10.6002C64.8453 10.6002 64.7366 10.6452 64.6564 10.7253C64.5762 10.8054 64.5311 10.9141 64.5311 11.0273V15.0895C64.5311 15.2027 64.5762 15.3114 64.6564 15.3915C64.7366 15.4716 64.8453 15.5166 64.9587 15.5166C65.0721 15.5166 65.1809 15.4716 65.2611 15.3915C65.3413 15.3114 65.3863 15.2027 65.3863 15.0895V11.0273C65.3863 10.9141 65.3413 10.8054 65.2611 10.7253C65.1809 10.6452 65.0721 10.6002 64.9587 10.6002Z"
		fill="#263238" />
	<path
		d="M66.2649 10.6002C66.1515 10.6002 66.0428 10.6452 65.9626 10.7253C65.8824 10.8054 65.8373 10.9141 65.8373 11.0273V15.0895C65.8373 15.2027 65.8824 15.3114 65.9626 15.3915C66.0428 15.4716 66.1515 15.5166 66.2649 15.5166C66.3783 15.5166 66.4871 15.4716 66.5673 15.3915C66.6475 15.3114 66.6925 15.2027 66.6925 15.0895V11.0273C66.6925 10.9141 66.6475 10.8054 66.5673 10.7253C66.4871 10.6452 66.3783 10.6002 66.2649 10.6002Z"
		fill="#263238" />
	<path
		d="M67.5711 10.6002C67.4577 10.6002 67.349 10.6452 67.2688 10.7253C67.1886 10.8054 67.1436 10.9141 67.1436 11.0273V15.0895C67.1436 15.2027 67.1886 15.3114 67.2688 15.3915C67.349 15.4716 67.4577 15.5166 67.5711 15.5166C67.6846 15.5166 67.7933 15.4716 67.8735 15.3915C67.9537 15.3114 67.9987 15.2027 67.9987 15.0895V11.0273C67.9987 10.9141 67.9537 10.8054 67.8735 10.7253C67.7933 10.6452 67.6846 10.6002 67.5711 10.6002Z"
		fill="#263238" />
	<path
		d="M21.8854 10.6002C21.772 10.6002 21.6632 10.6452 21.583 10.7253C21.5028 10.8054 21.4578 10.9141 21.4578 11.0273V15.0895C21.4578 15.2027 21.5028 15.3114 21.583 15.3915C21.6632 15.4716 21.772 15.5166 21.8854 15.5166C21.9988 15.5166 22.1075 15.4716 22.1877 15.3915C22.2679 15.3114 22.313 15.2027 22.313 15.0895V11.0273C22.313 10.9141 22.2679 10.8054 22.1877 10.7253C22.1075 10.6452 21.9988 10.6002 21.8854 10.6002Z"
		fill="#263238" />
	<path
		d="M23.1916 10.6002C23.0782 10.6002 22.9694 10.6452 22.8892 10.7253C22.809 10.8054 22.764 10.9141 22.764 11.0273V15.0895C22.7602 15.148 22.7684 15.2067 22.7882 15.2619C22.808 15.3172 22.839 15.3677 22.8791 15.4106C22.9193 15.4534 22.9678 15.4875 23.0217 15.5108C23.0756 15.5341 23.1337 15.5462 23.1925 15.5462C23.2512 15.5462 23.3093 15.5341 23.3632 15.5108C23.4171 15.4875 23.4656 15.4534 23.5058 15.4106C23.5459 15.3677 23.5769 15.3172 23.5967 15.2619C23.6165 15.2067 23.6248 15.148 23.621 15.0895V11.0273C23.6205 10.9139 23.575 10.8053 23.4946 10.7252C23.4141 10.6452 23.3051 10.6002 23.1916 10.6002Z"
		fill="#263238" />
	<path
		d="M24.5033 10.6002C24.3899 10.6002 24.2811 10.6452 24.2009 10.7253C24.1207 10.8054 24.0757 10.9141 24.0757 11.0273V15.0895C24.0719 15.148 24.0801 15.2067 24.0999 15.2619C24.1197 15.3172 24.1507 15.3677 24.1909 15.4106C24.231 15.4534 24.2795 15.4875 24.3334 15.5108C24.3873 15.5341 24.4454 15.5462 24.5042 15.5462C24.5629 15.5462 24.621 15.5341 24.6749 15.5108C24.7288 15.4875 24.7773 15.4534 24.8175 15.4106C24.8576 15.3677 24.8886 15.3172 24.9084 15.2619C24.9282 15.2067 24.9365 15.148 24.9327 15.0895V11.0273C24.9322 10.9139 24.8867 10.8053 24.8063 10.7252C24.7258 10.6452 24.6168 10.6002 24.5033 10.6002Z"
		fill="#263238" />
	<path
		d="M46.6696 10.6002C46.556 10.6002 46.447 10.6452 46.3666 10.7252C46.2861 10.8053 46.2406 10.9139 46.2402 11.0273V15.0895C46.2364 15.148 46.2446 15.2067 46.2644 15.2619C46.2842 15.3172 46.3152 15.3677 46.3553 15.4106C46.3955 15.4534 46.444 15.4875 46.4979 15.5108C46.5518 15.5341 46.6099 15.5462 46.6687 15.5462C46.7274 15.5462 46.7855 15.5341 46.8394 15.5108C46.8933 15.4875 46.9418 15.4534 46.982 15.4106C47.0221 15.3677 47.0531 15.3172 47.0729 15.2619C47.0927 15.2067 47.101 15.148 47.0972 15.0895V11.0273C47.0972 10.9141 47.0521 10.8054 46.9719 10.7253C46.8917 10.6452 46.783 10.6002 46.6696 10.6002Z"
		fill="#263238" />
	<path
		d="M40.1366 10.6002C40.0232 10.6002 39.9144 10.6452 39.8342 10.7253C39.754 10.8054 39.709 10.9141 39.709 11.0273V15.0895C39.7052 15.148 39.7134 15.2067 39.7332 15.2619C39.753 15.3172 39.784 15.3677 39.8242 15.4106C39.8643 15.4534 39.9128 15.4875 39.9667 15.5108C40.0206 15.5341 40.0787 15.5462 40.1375 15.5462C40.1962 15.5462 40.2543 15.5341 40.3082 15.5108C40.3621 15.4875 40.4106 15.4534 40.4508 15.4106C40.4909 15.3677 40.5219 15.3172 40.5417 15.2619C40.5615 15.2067 40.5698 15.148 40.566 15.0895V11.0273C40.5655 10.9139 40.52 10.8053 40.4396 10.7252C40.3591 10.6452 40.2501 10.6002 40.1366 10.6002Z"
		fill="#263238" />
	<path d="M27.0742 8.7981H27.0724C26.8363 8.7981 26.6448 8.98932 26.6448 9.22521V16.8935C26.6448 17.1294 26.8363 17.3206 27.0724 17.3206H27.0742C27.3104 17.3206 27.5018 17.1294 27.5018 16.8935V9.22521C27.5018 8.98932 27.3104 8.7981 27.0742 8.7981Z" fill="#263238" />
	<path
		d="M29.6867 8.7981C29.5731 8.79809 29.4642 8.84304 29.3837 8.92308C29.3032 9.00313 29.2578 9.11177 29.2573 9.22521V16.8917C29.2535 16.9503 29.2618 17.009 29.2816 17.0642C29.3014 17.1194 29.3323 17.17 29.3725 17.2128C29.4127 17.2556 29.4612 17.2897 29.5151 17.3131C29.569 17.3364 29.6271 17.3484 29.6858 17.3484C29.7445 17.3484 29.8026 17.3364 29.8565 17.3131C29.9104 17.2897 29.959 17.2556 29.9991 17.2128C30.0393 17.17 30.0702 17.1194 30.09 17.0642C30.1099 17.009 30.1181 16.9503 30.1143 16.8917V9.22521C30.1143 9.11193 30.0693 9.0033 29.9891 8.92319C29.9089 8.84309 29.8001 8.7981 29.6867 8.7981Z"
		fill="#263238" />
	<path
		d="M33.6054 8.7981C33.492 8.7981 33.3832 8.84309 33.303 8.92319C33.2229 9.0033 33.1778 9.11193 33.1778 9.22521V16.8917C33.1778 17.005 33.2229 17.1136 33.303 17.1937C33.3832 17.2738 33.492 17.3188 33.6054 17.3188C33.7188 17.3188 33.8276 17.2738 33.9077 17.1937C33.9879 17.1136 34.033 17.005 34.033 16.8917V9.22521C34.033 9.11193 33.9879 9.0033 33.9077 8.92319C33.8276 8.84309 33.7188 8.7981 33.6054 8.7981Z"
		fill="#263238" />
	<path
		d="M36.2179 8.7981C36.1045 8.7981 35.9957 8.84309 35.9155 8.92319C35.8353 9.0033 35.7903 9.11193 35.7903 9.22521V16.8917C35.7903 17.005 35.8353 17.1136 35.9155 17.1937C35.9957 17.2738 36.1045 17.3188 36.2179 17.3188C36.3313 17.3188 36.44 17.2738 36.5202 17.1937C36.6004 17.1136 36.6455 17.005 36.6455 16.8917V9.22521C36.6455 9.11193 36.6004 9.0033 36.5202 8.92319C36.44 8.84309 36.3313 8.7981 36.2179 8.7981Z"
		fill="#263238" />
	<path
		d="M41.4428 8.7981C41.3294 8.7981 41.2207 8.84309 41.1405 8.92319C41.0603 9.0033 41.0152 9.11193 41.0152 9.22521V16.8917C41.0114 16.9503 41.0197 17.009 41.0395 17.0642C41.0593 17.1194 41.0903 17.17 41.1304 17.2128C41.1706 17.2556 41.2191 17.2897 41.273 17.3131C41.3269 17.3364 41.385 17.3484 41.4437 17.3484C41.5025 17.3484 41.5606 17.3364 41.6145 17.3131C41.6684 17.2897 41.7169 17.2556 41.7571 17.2128C41.7972 17.17 41.8282 17.1194 41.848 17.0642C41.8678 17.009 41.876 16.9503 41.8722 16.8917V9.22521C41.8718 9.11177 41.8263 9.00313 41.7458 8.92308C41.6654 8.84304 41.5564 8.79809 41.4428 8.7981Z"
		fill="#263238" />
	<path
		d="M47.9758 8.7981C47.9197 8.7981 47.8641 8.80914 47.8122 8.83061C47.7603 8.85207 47.7132 8.88353 47.6735 8.92319C47.6338 8.96286 47.6023 9.00994 47.5808 9.06176C47.5593 9.11358 47.5482 9.16912 47.5482 9.22521V16.8917C47.5482 17.005 47.5933 17.1136 47.6735 17.1937C47.7536 17.2738 47.8624 17.3188 47.9758 17.3188C48.0892 17.3188 48.198 17.2738 48.2782 17.1937C48.3584 17.1136 48.4034 17.005 48.4034 16.8917V9.22521C48.4034 9.11193 48.3584 9.0033 48.2782 8.92319C48.198 8.84309 48.0892 8.7981 47.9758 8.7981Z"
		fill="#263238" />
	<path d="M49.2838 8.7981H49.282C49.0459 8.7981 48.8544 8.98932 48.8544 9.22521V16.8935C48.8544 17.1294 49.0459 17.3206 49.282 17.3206H49.2838C49.52 17.3206 49.7114 17.1294 49.7114 16.8935V9.22521C49.7114 8.98932 49.52 8.7981 49.2838 8.7981Z" fill="#263238" />
	<path
		d="M50.5883 8.7981C50.4749 8.7981 50.3661 8.84309 50.2859 8.92319C50.2058 9.0033 50.1607 9.11193 50.1607 9.22521V16.8917C50.1607 17.005 50.2058 17.1136 50.2859 17.1937C50.3661 17.2738 50.4749 17.3188 50.5883 17.3188C50.7017 17.3188 50.8105 17.2738 50.8907 17.1937C50.9708 17.1136 51.0159 17.005 51.0159 16.8917V9.22521C51.0159 9.11193 50.9708 9.0033 50.8907 8.92319C50.8105 8.84309 50.7017 8.7981 50.5883 8.7981Z"
		fill="#263238" />
	<path
		d="M51.8946 8.7981C51.7812 8.7981 51.6724 8.84309 51.5922 8.92319C51.512 9.0033 51.467 9.11193 51.467 9.22521V16.8917C51.467 17.005 51.512 17.1136 51.5922 17.1937C51.6724 17.2738 51.7812 17.3188 51.8946 17.3188C52.008 17.3188 52.1167 17.2738 52.1969 17.1937C52.2771 17.1136 52.3222 17.005 52.3222 16.8917V9.22521C52.3222 9.11193 52.2771 9.0033 52.1969 8.92319C52.1167 8.84309 52.008 8.7981 51.8946 8.7981Z"
		fill="#263238" />
	<path d="M59.7337 8.7981H59.7319C59.4958 8.7981 59.3043 8.98932 59.3043 9.22521V16.8935C59.3043 17.1294 59.4958 17.3206 59.7319 17.3206H59.7337C59.9699 17.3206 60.1613 17.1294 60.1613 16.8935V9.22521C60.1613 8.98932 59.9699 8.7981 59.7337 8.7981Z" fill="#263238" />
	<path
		d="M62.3463 8.7981C62.2327 8.79809 62.1237 8.84304 62.0433 8.92308C61.9628 9.00313 61.9173 9.11177 61.9169 9.22521V16.8917C61.9131 16.9503 61.9213 17.009 61.9411 17.0642C61.9609 17.1194 61.9919 17.17 62.032 17.2128C62.0722 17.2556 62.1207 17.2897 62.1746 17.3131C62.2285 17.3364 62.2866 17.3484 62.3454 17.3484C62.4041 17.3484 62.4622 17.3364 62.5161 17.3131C62.57 17.2897 62.6185 17.2556 62.6587 17.2128C62.6988 17.17 62.7298 17.1194 62.7496 17.0642C62.7694 17.009 62.7777 16.9503 62.7738 16.8917V9.22521C62.7738 9.11193 62.7288 9.0033 62.6486 8.92319C62.5684 8.84309 62.4597 8.7981 62.3463 8.7981Z"
		fill="#263238" />
	<path
		d="M28.3804 6.99585C28.2669 6.99585 28.1579 7.04079 28.0774 7.12084C27.997 7.20089 27.9515 7.30952 27.951 7.42297V18.6938C27.9472 18.7524 27.9555 18.8111 27.9753 18.8663C27.9951 18.9215 28.0261 18.9721 28.0662 19.0149C28.1064 19.0577 28.1549 19.0919 28.2088 19.1152C28.2627 19.1385 28.3208 19.1505 28.3795 19.1505C28.4383 19.1505 28.4964 19.1385 28.5503 19.1152C28.6042 19.0919 28.6527 19.0577 28.6928 19.0149C28.733 18.9721 28.764 18.9215 28.7838 18.8663C28.8036 18.8111 28.8118 18.7524 28.808 18.6938V7.42297C28.808 7.30969 28.763 7.20105 28.6828 7.12095C28.6026 7.04085 28.4938 6.99585 28.3804 6.99585Z"
		fill="#263238" />
	<path
		d="M32.2992 6.99585C32.1858 6.99585 32.077 7.04085 31.9968 7.12095C31.9166 7.20105 31.8716 7.30969 31.8716 7.42297V18.6938C31.8716 18.8071 31.9166 18.9157 31.9968 18.9958C32.077 19.0759 32.1858 19.121 32.2992 19.121C32.4126 19.121 32.5213 19.0759 32.6015 18.9958C32.6817 18.9157 32.7268 18.8071 32.7268 18.6938V7.42297C32.7268 7.30969 32.6817 7.20105 32.6015 7.12095C32.5213 7.04085 32.4126 6.99585 32.2992 6.99585Z"
		fill="#263238" />
	<path
		d="M42.7491 6.99585C42.6356 6.99585 42.5269 7.04085 42.4467 7.12095C42.3665 7.20105 42.3215 7.30969 42.3215 7.42297V18.6938C42.3177 18.7524 42.3259 18.8111 42.3457 18.8663C42.3655 18.9215 42.3965 18.9721 42.4366 19.0149C42.4768 19.0577 42.5253 19.0919 42.5792 19.1152C42.6331 19.1385 42.6912 19.1505 42.75 19.1505C42.8087 19.1505 42.8668 19.1385 42.9207 19.1152C42.9746 19.0919 43.0231 19.0577 43.0633 19.0149C43.1034 18.9721 43.1344 18.9215 43.1542 18.8663C43.174 18.8111 43.1823 18.7524 43.1785 18.6938V7.42297C43.1785 7.36673 43.1673 7.31104 43.1457 7.2591C43.1241 7.20716 43.0925 7.16 43.0526 7.12031C43.0127 7.08063 42.9653 7.0492 42.9132 7.02785C42.8612 7.00649 42.8054 6.99562 42.7491 6.99585Z"
		fill="#263238" />
	<path
		d="M44.0571 6.99585C43.9436 6.99585 43.8346 7.04079 43.7541 7.12084C43.6737 7.20089 43.6282 7.30952 43.6277 7.42297V18.6938C43.6239 18.7524 43.6322 18.8111 43.652 18.8663C43.6718 18.9215 43.7028 18.9721 43.7429 19.0149C43.7831 19.0577 43.8316 19.0919 43.8855 19.1152C43.9394 19.1385 43.9975 19.1505 44.0562 19.1505C44.115 19.1505 44.1731 19.1385 44.227 19.1152C44.2808 19.0919 44.3294 19.0577 44.3695 19.0149C44.4097 18.9721 44.4406 18.9215 44.4605 18.8663C44.4803 18.8111 44.4885 18.7524 44.4847 18.6938V7.42297C44.4847 7.30969 44.4397 7.20105 44.3595 7.12095C44.2793 7.04085 44.1705 6.99585 44.0571 6.99585Z"
		fill="#263238" />
	<path
		d="M54.507 6.99585C54.4508 6.99585 54.3952 7.00689 54.3434 7.02836C54.2915 7.04982 54.2443 7.08129 54.2046 7.12095C54.1649 7.16061 54.1334 7.20769 54.1119 7.25951C54.0905 7.31133 54.0794 7.36688 54.0794 7.42297V18.6938C54.0756 18.7524 54.0838 18.8111 54.1037 18.8663C54.1235 18.9215 54.1544 18.9721 54.1946 19.0149C54.2347 19.0577 54.2833 19.0919 54.3372 19.1152C54.3911 19.1385 54.4492 19.1505 54.5079 19.1505C54.5666 19.1505 54.6247 19.1385 54.6786 19.1152C54.7325 19.0919 54.781 19.0577 54.8212 19.0149C54.8614 18.9721 54.8923 18.9215 54.9121 18.8663C54.9319 18.8111 54.9402 18.7524 54.9364 18.6938V7.42297C54.9359 7.30952 54.8905 7.20089 54.81 7.12084C54.7295 7.04079 54.6206 6.99585 54.507 6.99585Z"
		fill="#263238" />
	<path
		d="M55.8133 6.99585C55.6999 6.99585 55.5911 7.04085 55.5109 7.12095C55.4307 7.20105 55.3857 7.30969 55.3857 7.42297V18.6938C55.3819 18.7524 55.3901 18.8111 55.4099 18.8663C55.4297 18.9215 55.4607 18.9721 55.5009 19.0149C55.541 19.0577 55.5895 19.0919 55.6434 19.1152C55.6973 19.1385 55.7554 19.1505 55.8142 19.1505C55.8729 19.1505 55.931 19.1385 55.9849 19.1152C56.0388 19.0919 56.0873 19.0577 56.1275 19.0149C56.1676 18.9721 56.1986 18.9215 56.2184 18.8663C56.2382 18.8111 56.2465 18.7524 56.2427 18.6938V7.42297C56.2422 7.30952 56.1967 7.20089 56.1163 7.12084C56.0358 7.04079 55.9268 6.99585 55.8133 6.99585Z"
		fill="#263238" />
	<path
		d="M61.04 6.99585C60.9264 6.99585 60.8175 7.04079 60.737 7.12084C60.6565 7.20089 60.6111 7.30952 60.6106 7.42297V18.6938C60.6068 18.7524 60.615 18.8111 60.6349 18.8663C60.6547 18.9215 60.6856 18.9721 60.7258 19.0149C60.7659 19.0577 60.8145 19.0919 60.8683 19.1152C60.9222 19.1385 60.9803 19.1505 61.0391 19.1505C61.0978 19.1505 61.1559 19.1385 61.2098 19.1152C61.2637 19.0919 61.3122 19.0577 61.3524 19.0149C61.3926 18.9721 61.4235 18.9215 61.4433 18.8663C61.4631 18.8111 61.4714 18.7524 61.4676 18.6938V7.42297C61.4676 7.30969 61.4225 7.20105 61.3423 7.12095C61.2621 7.04085 61.1534 6.99585 61.04 6.99585Z"
		fill="#263238" />
	<path d="M16.6346 18.0883C19.1373 15.5884 19.1373 11.5353 16.6346 9.03544C14.1319 6.53556 10.0743 6.53555 7.57159 9.03544C5.06892 11.5353 5.06892 15.5885 7.5716 18.0883C10.0743 20.5882 14.1319 20.5882 16.6346 18.0883Z" fill="#263238" />
	<path d="M16.8516 13.5612L9.18921 9.14227V17.9802L16.8516 13.5612Z" fill="#FFB800" stroke="#263238" stroke-miterlimit="10" />
</svg>