<svg width="87" height="82" viewBox="0 0 87 82" fill="none" xmlns="http://www.w3.org/2000/svg">
	<path d="M77.7084 73.7237H12.0847L12.1615 19.7021C12.1615 19.1819 12.3681 18.683 12.736 18.3151C13.1038 17.9473 13.6027 17.7407 14.1229 17.7407H75.8237C76.0814 17.7404 76.3366 17.791 76.5746 17.8895C76.8127 17.988 77.029 18.1324 77.2112 18.3146C77.3934 18.4968 77.5378 18.7131 77.6363 18.9512C77.7348 19.1893 77.7854 19.4444 77.7851 19.7021L77.7084 73.7237Z" fill="white" stroke="#263238"
		stroke-width="0.25" stroke-linecap="round" stroke-linejoin="round" />
	<path d="M30.1303 22.5408H20.8132V24.4584H30.1303V22.5408Z" stroke="#263238" stroke-width="0.25" stroke-linecap="round" stroke-linejoin="round" />
	<path d="M58.376 25.153H75.3668" stroke="#263238" stroke-width="0.25" stroke-linecap="round" stroke-linejoin="round" />
	<path d="M15.8047 25.153H57.3852" stroke="#263238" stroke-width="0.25" stroke-linecap="round" stroke-linejoin="round" />
	<path d="M75.8238 17.7407H14.1229C13.6027 17.7407 13.1038 17.9473 12.736 18.3151C12.3681 18.683 12.1615 19.1819 12.1615 19.7021V21.1955H77.7851V19.7021C77.7854 19.4444 77.7348 19.1893 77.6363 18.9512C77.5379 18.7131 77.3934 18.4968 77.2112 18.3146C77.029 18.1324 76.8127 17.988 76.5746 17.8895C76.3366 17.791 76.0814 17.7404 75.8238 17.7407Z" fill="#263238" stroke="#263238" stroke-width="0.25"
		stroke-linecap="round" stroke-linejoin="round" />
	<path
		d="M15.7408 19.6581C15.7408 19.5409 15.7061 19.4264 15.641 19.329C15.5759 19.2316 15.4834 19.1557 15.3752 19.1109C15.267 19.0661 15.1479 19.0543 15.033 19.0772C14.9181 19.1 14.8126 19.1564 14.7297 19.2393C14.6469 19.3221 14.5905 19.4276 14.5677 19.5425C14.5448 19.6574 14.5565 19.7765 14.6014 19.8847C14.6462 19.9929 14.7221 20.0854 14.8195 20.1505C14.9169 20.2156 15.0314 20.2503 15.1485 20.2503C15.3056 20.2503 15.4563 20.1879 15.5673 20.0768C15.6784 19.9658 15.7408 19.8151 15.7408 19.6581Z"
		fill="white" stroke="#263238" stroke-width="0.25" stroke-linecap="round" stroke-linejoin="round" />
	<path
		d="M18.1042 19.6581C18.1042 19.5409 18.0695 19.4264 18.0044 19.329C17.9393 19.2316 17.8468 19.1557 17.7386 19.1109C17.6304 19.0661 17.5113 19.0543 17.3964 19.0772C17.2815 19.1 17.176 19.1564 17.0931 19.2393C17.0103 19.3221 16.9539 19.4276 16.9311 19.5425C16.9082 19.6574 16.9199 19.7765 16.9648 19.8847C17.0096 19.9929 17.0855 20.0854 17.1829 20.1505C17.2803 20.2156 17.3948 20.2503 17.5119 20.2503C17.669 20.2503 17.8197 20.1879 17.9307 20.0768C18.0418 19.9658 18.1042 19.8151 18.1042 19.6581Z"
		fill="white" stroke="#263238" stroke-width="0.25" stroke-linecap="round" stroke-linejoin="round" />
	<path d="M19.8791 20.2503C20.2062 20.2503 20.4714 19.9851 20.4714 19.6581C20.4714 19.331 20.2062 19.0658 19.8791 19.0658C19.552 19.0658 19.2869 19.331 19.2869 19.6581C19.2869 19.9851 19.552 20.2503 19.8791 20.2503Z" fill="white" stroke="#263238" stroke-width="0.25" stroke-linecap="round" stroke-linejoin="round" />
	<path d="M15.9491 22.6542H18.7568" stroke="#263238" stroke-width="0.25" stroke-linecap="round" stroke-linejoin="round" />
	<path d="M15.9491 23.4092H18.7568" stroke="#263238" stroke-width="0.25" stroke-linecap="round" stroke-linejoin="round" />
	<path d="M15.9491 24.1622H18.7568" stroke="#263238" stroke-width="0.25" stroke-linecap="round" stroke-linejoin="round" />
	<path d="M16.4719 29.3153V26.8951H15.9766V26.6227H17.2689V26.8951H16.7717V29.3153H16.4719Z" fill="#263238" />
	<path d="M17.6308 28.7723L17.5266 29.3207H17.2488L17.7643 26.6281H18.1993L18.7148 29.3207H18.415L18.3108 28.7723H17.6308ZM17.6692 28.5146H18.2688L17.9653 26.9608L17.6692 28.5146Z" fill="#263238" />
	<path
		d="M20.115 27.268V27.3411H19.8299V27.2533C19.8299 27.0102 19.7385 26.8676 19.5228 26.8676C19.3071 26.8676 19.2157 27.0102 19.2157 27.2497C19.2157 27.8529 20.1187 27.9114 20.1187 28.6682C20.1187 29.0758 19.9231 29.3409 19.5118 29.3409C19.1005 29.3409 18.9067 29.0758 18.9067 28.6682V28.5146H19.1882V28.6846C19.1882 28.9259 19.2888 29.0685 19.5045 29.0685C19.7202 29.0685 19.8189 28.9259 19.8189 28.6846C19.8189 28.0832 18.9195 28.0266 18.9195 27.268C18.9195 26.853 19.1023 26.5953 19.5154 26.5953C19.9286 26.5953 20.115 26.8603 20.115 27.268Z"
		fill="#263238" />
	<path d="M20.8388 28.1454L20.6798 28.4105V29.3153H20.38V26.6227H20.6761V27.9224L21.3927 26.6227H21.6961L21.0198 27.842L21.7236 29.3044H21.4073L20.8388 28.1454Z" fill="#263238" />
	<path
		d="M23.1001 27.268V27.3411H22.815V27.2533C22.815 27.0102 22.7236 26.8676 22.5079 26.8676C22.2922 26.8676 22.2008 27.0102 22.2008 27.2497C22.2008 27.8529 23.1038 27.9114 23.1038 28.6682C23.1038 29.0758 22.9082 29.3409 22.4969 29.3409C22.0856 29.3409 21.8918 29.0758 21.8918 28.6682V28.5146H22.1734V28.6846C22.1734 28.9259 22.2739 29.0685 22.4896 29.0685C22.7053 29.0685 22.804 28.9259 22.804 28.6846C22.804 28.0832 21.9046 28.0266 21.9046 27.268C21.9046 26.853 22.0966 26.5953 22.5006 26.5953C22.9045 26.5953 23.1001 26.8603 23.1001 27.268Z"
		fill="#263238" />
	<path d="M57.1457 44.4307H15.8503V55.4642H57.1457V44.4307Z" fill="white" stroke="#263238" stroke-width="0.25" stroke-linecap="round" stroke-linejoin="round" />
	<path d="M47.6713 47.3097C47.8541 47.3097 47.9291 47.4157 47.9291 47.5894V47.7283C47.9291 47.9111 47.8432 48.0061 47.6622 48.0061H47.547V48.4613H47.4191V47.3097H47.6713ZM47.6622 47.891C47.7572 47.891 47.8029 47.8471 47.8029 47.7374V47.5839C47.8029 47.4779 47.7646 47.4249 47.6713 47.4249H47.547V47.891H47.6622Z" fill="#263238" />
	<path
		d="M48.2784 47.3097C48.4612 47.3097 48.5361 47.4011 48.5361 47.5729V47.6661C48.5437 47.7162 48.5336 47.7672 48.5076 47.8106C48.4815 47.854 48.4412 47.8869 48.3935 47.9038C48.4977 47.9349 48.5379 48.0189 48.5379 48.1432V48.326C48.5345 48.3734 48.542 48.421 48.5599 48.465H48.4301C48.4127 48.4202 48.4059 48.372 48.41 48.3242V48.1414C48.41 48.0116 48.3478 47.9714 48.2418 47.9714H48.1504V48.4631H48.0225V47.3115L48.2784 47.3097ZM48.2473 47.8581C48.3478 47.8581 48.41 47.8252 48.41 47.699V47.5839C48.41 47.4797 48.3716 47.4249 48.2765 47.4249H48.1504V47.8526L48.2473 47.8581Z"
		fill="#263238" />
	<path
		d="M48.6677 47.5839C48.6677 47.4011 48.7554 47.2932 48.9309 47.2932C49.1064 47.2932 49.1959 47.4065 49.1959 47.5839V48.1798C49.199 48.2163 49.1944 48.2531 49.1825 48.2878C49.1706 48.3224 49.1517 48.3543 49.1268 48.3812C49.102 48.4082 49.0719 48.4298 49.0383 48.4445C49.0047 48.4592 48.9685 48.4668 48.9318 48.4668C48.8951 48.4668 48.8589 48.4592 48.8253 48.4445C48.7917 48.4298 48.7616 48.4082 48.7368 48.3812C48.7119 48.3543 48.693 48.3224 48.6811 48.2878C48.6692 48.2531 48.6646 48.2163 48.6677 48.1798V47.5839ZM48.7956 48.1853C48.7956 48.2913 48.8395 48.3516 48.9309 48.3516C49.0223 48.3516 49.068 48.2913 49.068 48.1853V47.5839C49.068 47.4797 49.0259 47.4175 48.9309 47.4175C48.8358 47.4175 48.7956 47.4797 48.7956 47.5839V48.1853Z"
		fill="#263238" />
	<path
		d="M49.8265 47.5839V47.6826H49.704V47.5839C49.704 47.4797 49.6638 47.4175 49.5688 47.4175C49.4737 47.4175 49.4353 47.4797 49.4353 47.5839V48.1926C49.4353 48.2968 49.4774 48.3589 49.5688 48.3589C49.6602 48.3589 49.704 48.2968 49.704 48.1926V47.9622H49.5852V47.8471H49.8265V48.1871C49.8265 48.3699 49.7443 48.4759 49.5669 48.4759C49.3896 48.4759 49.3074 48.3607 49.3074 48.1871V47.5839C49.3074 47.4011 49.3896 47.2932 49.5669 47.2932C49.7443 47.2932 49.8265 47.412 49.8265 47.5839Z"
		fill="#263238" />
	<path
		d="M50.205 47.3097C50.3878 47.3097 50.4609 47.4011 50.4609 47.5729V47.6661C50.4685 47.7162 50.4584 47.7672 50.4324 47.8106C50.4063 47.854 50.366 47.8869 50.3183 47.9038C50.4244 47.9349 50.4628 48.0189 50.4628 48.1432V48.326C50.459 48.3736 50.4672 48.4213 50.4865 48.465H50.3567C50.3385 48.4204 50.331 48.3722 50.3348 48.3242V48.1414C50.3348 48.0116 50.2745 47.9714 50.1666 47.9714H50.077V48.4631H49.9473V47.3115L50.205 47.3097ZM50.1721 47.8581C50.2745 47.8581 50.3348 47.8252 50.3348 47.699V47.5839C50.3348 47.4797 50.2964 47.4249 50.2013 47.4249H50.077V47.8526L50.1721 47.8581Z"
		fill="#263238" />
	<path d="M51.0055 47.8197V47.9349H50.724V48.3443H51.0695V48.4613H50.5961V47.3097H51.0695V47.4249H50.724V47.8197H51.0055Z" fill="#263238" />
	<path
		d="M51.6874 47.5839V47.615H51.5685V47.5839C51.5685 47.4797 51.5302 47.4194 51.4369 47.4194C51.3437 47.4194 51.3053 47.4797 51.3053 47.582C51.3053 47.8416 51.6928 47.8654 51.6928 48.1889C51.6928 48.3717 51.6088 48.4777 51.4314 48.4777C51.2541 48.4777 51.1737 48.3644 51.1737 48.1889V48.1231H51.2944V48.1962C51.2944 48.3004 51.3364 48.3608 51.4296 48.3608C51.5228 48.3608 51.5631 48.3004 51.5631 48.1962C51.5631 47.9403 51.1792 47.9147 51.1792 47.5912C51.1792 47.4084 51.2615 47.3024 51.4333 47.3024C51.6051 47.3024 51.6874 47.4102 51.6874 47.5839Z"
		fill="#263238" />
	<path
		d="M52.2998 47.5839V47.615H52.1773V47.5839C52.1773 47.4797 52.1371 47.4194 52.0457 47.4194C51.9543 47.4194 51.9141 47.4797 51.9141 47.582C51.9141 47.8416 52.2998 47.8654 52.2998 48.1889C52.2998 48.3717 52.2175 48.4777 52.0402 48.4777C51.8629 48.4777 51.7825 48.3644 51.7825 48.1889V48.1231H51.9031V48.1962C51.9031 48.3004 51.9452 48.3608 52.0366 48.3608C52.128 48.3608 52.1718 48.3004 52.1718 48.1962C52.1718 47.9403 51.788 47.9147 51.788 47.5912C51.788 47.4084 51.8702 47.3024 52.042 47.3024C52.2139 47.3024 52.2998 47.4102 52.2998 47.5839Z"
		fill="#263238" />
	<path d="M39.4182 47.3097C39.601 47.3097 39.6796 47.4175 39.6796 47.5949V48.1761C39.6796 48.3589 39.5974 48.4613 39.4182 48.4613H39.1477V47.3097H39.4182ZM39.4182 48.3443C39.5096 48.3443 39.5553 48.2858 39.5553 48.1816V47.5839C39.5553 47.4779 39.5096 47.4194 39.4164 47.4194H39.2775V48.3333L39.4182 48.3443Z" fill="#263238" />
	<path d="M40.2098 47.8197V47.9349H39.9283V48.3443H40.2737V48.4613H39.8003V47.3097H40.2737V47.4249H39.9283V47.8197H40.2098Z" fill="#263238" />
	<path d="M40.5222 48.2292L40.4765 48.4613H40.3595L40.5789 47.3097H40.7616L40.9828 48.4613H40.853L40.8092 48.2292H40.5222ZM40.5386 48.1177H40.7946L40.6648 47.4541L40.5386 48.1177Z" fill="#263238" />
	<path d="M41.3559 47.3097C41.5387 47.3097 41.6173 47.4175 41.6173 47.5949V48.1761C41.6173 48.3589 41.535 48.4613 41.3559 48.4613H41.0853V47.3097H41.3559ZM41.3559 48.3443C41.4491 48.3443 41.493 48.2858 41.493 48.1816V47.5839C41.493 47.4779 41.4491 47.4194 41.354 47.4194H41.2169V48.3333L41.3559 48.3443Z" fill="#263238" />
	<path d="M41.7379 48.4613V47.3097H41.8659V48.3443H42.1949V48.4613H41.7379Z" fill="#263238" />
	<path d="M42.429 47.3097V48.4613H42.301V47.3097H42.429Z" fill="#263238" />
	<path d="M42.6646 48.4613H42.5494V47.3097H42.7121L42.979 48.1414V47.3097H43.0923V48.4613H42.9607L42.6646 47.529V48.4613Z" fill="#263238" />
	<path d="M43.6353 47.8197V47.9349H43.3538V48.3443H43.7084V48.4613H43.2332V47.3097H43.7084V47.4249H43.3629V47.8197H43.6353Z" fill="#263238" />
	<path d="M31.8468 48.6257H34.2524" stroke="#263238" stroke-width="0.25" stroke-linecap="round" stroke-linejoin="round" />
	<path d="M24.6337 48.6257H30.9822" stroke="#263238" stroke-width="0.25" stroke-linecap="round" stroke-linejoin="round" />
	<path d="M17.8959 48.6257H23.6722" stroke="#263238" stroke-width="0.25" stroke-linecap="round" stroke-linejoin="round" />
	<path d="M28.2896 51.3604H30.1266" stroke="#263238" stroke-width="0.25" stroke-linecap="round" stroke-linejoin="round" />
	<path d="M23.5753 51.3604H26.7505" stroke="#263238" stroke-width="0.25" stroke-linecap="round" stroke-linejoin="round" />
	<path d="M21.2684 51.3604H22.6138" stroke="#263238" stroke-width="0.25" stroke-linecap="round" stroke-linejoin="round" />
	<path d="M17.8959 51.3604H20.4989" stroke="#263238" stroke-width="0.25" stroke-linecap="round" stroke-linejoin="round" />
	<path
		d="M55.6158 50.8504C55.6153 51.0791 55.5242 51.2983 55.3625 51.46C55.2008 51.6217 54.9816 51.7127 54.753 51.7132H45.6954C45.4664 51.7132 45.2468 51.6224 45.0847 51.4606C44.9226 51.2988 44.8313 51.0794 44.8308 50.8504C44.8318 50.6214 44.9232 50.402 45.0851 50.2401C45.2471 50.0781 45.4664 49.9867 45.6954 49.9858H54.753C54.8664 49.9858 54.9788 50.0082 55.0836 50.0516C55.1884 50.0951 55.2836 50.1588 55.3637 50.2391C55.4438 50.3194 55.5074 50.4148 55.5506 50.5197C55.5939 50.6246 55.616 50.7369 55.6158 50.8504Z"
		fill="white" stroke="#263238" stroke-width="0.25" stroke-linecap="round" stroke-linejoin="round" />
	<path d="M52.9159 49.9858V51.7132H45.6954C45.4664 51.7132 45.2468 51.6224 45.0847 51.4606C44.9226 51.2988 44.8313 51.0794 44.8308 50.8504C44.8318 50.6214 44.9232 50.402 45.0851 50.2401C45.2471 50.0781 45.4664 49.9867 45.6954 49.9858H52.9159Z" fill="#92E3A9" stroke="#263238" stroke-width="0.25" stroke-linecap="round" stroke-linejoin="round" />
	<path d="M43.1161 49.9858H39.5407C39.0641 49.9858 38.6779 50.3721 38.6779 50.8486V50.8504C38.6779 51.3269 39.0641 51.7132 39.5407 51.7132H43.1161C43.5926 51.7132 43.9789 51.3269 43.9789 50.8504V50.8486C43.9789 50.3721 43.5926 49.9858 43.1161 49.9858Z" fill="white" stroke="#263238" stroke-width="0.25" stroke-linecap="round" stroke-linejoin="round" />
	<path d="M57.1457 58.5077H15.8503V69.5412H57.1457V58.5077Z" fill="white" stroke="#263238" stroke-width="0.25" stroke-linecap="round" stroke-linejoin="round" />
	<path d="M47.6713 61.619C47.8541 61.619 47.9291 61.725 47.9291 61.9005V62.0376C47.9291 62.2204 47.8432 62.3172 47.6622 62.3172H47.547V62.7706H47.4191V61.619H47.6713ZM47.6622 62.2021C47.7572 62.2021 47.8029 62.1564 47.8029 62.0467V61.8932C47.8029 61.789 47.7646 61.7359 47.6713 61.7359H47.547V62.2076L47.6622 62.2021Z" fill="#263238" />
	<path
		d="M48.2784 61.619C48.4612 61.619 48.5361 61.7104 48.5361 61.8822V61.9754C48.5361 62.1034 48.4922 62.182 48.3935 62.213C48.4977 62.2441 48.5379 62.33 48.5379 62.4525V62.6353C48.5343 62.6827 48.5419 62.7303 48.5599 62.7742H48.4301C48.4127 62.7301 48.4058 62.6825 48.41 62.6353V62.4525C48.41 62.3209 48.3478 62.2807 48.2418 62.2807H48.1504V62.7724H48.0225V61.6208L48.2784 61.619ZM48.2473 62.1673C48.3478 62.1673 48.41 62.1344 48.41 62.0101V61.8986C48.41 61.7963 48.3716 61.7414 48.2765 61.7414H48.1504V62.1673H48.2473Z"
		fill="#263238" />
	<path
		d="M48.6677 61.8968C48.6677 61.714 48.7554 61.608 48.9309 61.608C49.1064 61.608 49.1959 61.7213 49.1959 61.8968V62.4927C49.199 62.5292 49.1944 62.566 49.1825 62.6007C49.1706 62.6354 49.1517 62.6672 49.1268 62.6942C49.102 62.7212 49.0719 62.7427 49.0383 62.7574C49.0047 62.7721 48.9685 62.7797 48.9318 62.7797C48.8951 62.7797 48.8589 62.7721 48.8253 62.7574C48.7917 62.7427 48.7616 62.7212 48.7368 62.6942C48.7119 62.6672 48.693 62.6354 48.6811 62.6007C48.6692 62.566 48.6646 62.5292 48.6677 62.4927V61.8968ZM48.7956 62.5C48.7956 62.6042 48.8395 62.6645 48.9309 62.6645C49.0223 62.6645 49.068 62.6042 49.068 62.5V61.8895C49.068 61.7871 49.0259 61.725 48.9309 61.725C48.8358 61.725 48.7956 61.7871 48.7956 61.8895V62.5Z"
		fill="#263238" />
	<path
		d="M49.8265 61.8968V61.9955H49.704V61.8895C49.704 61.7871 49.6638 61.725 49.5688 61.725C49.4737 61.725 49.4353 61.7871 49.4353 61.8895V62.5C49.4353 62.6024 49.4774 62.6645 49.5688 62.6645C49.6602 62.6645 49.704 62.6024 49.704 62.5V62.2697H49.5852V62.1545H49.8265V62.4927C49.8265 62.6664 49.7443 62.7815 49.5669 62.7815C49.3896 62.7815 49.3074 62.6664 49.3074 62.4927V61.8968C49.3074 61.7231 49.3896 61.608 49.5669 61.608C49.7443 61.608 49.8265 61.7231 49.8265 61.8968Z"
		fill="#263238" />
	<path
		d="M50.205 61.619C50.3878 61.619 50.4609 61.7104 50.4609 61.8822V61.9754C50.4609 62.1034 50.4171 62.182 50.3183 62.213C50.4244 62.2441 50.4628 62.33 50.4628 62.4525V62.6353C50.4588 62.6829 50.4669 62.7307 50.4865 62.7742H50.3567C50.3385 62.7303 50.331 62.6827 50.3348 62.6353V62.4525C50.3348 62.3209 50.2745 62.2807 50.1666 62.2807H50.077V62.7724H49.9473V61.6208L50.205 61.619ZM50.1721 62.1673C50.2745 62.1673 50.3348 62.1344 50.3348 62.0101V61.8986C50.3348 61.7963 50.2964 61.7414 50.2013 61.7414H50.077V62.1673H50.1721Z"
		fill="#263238" />
	<path d="M51.0055 62.129V62.2441H50.724V62.6536H51.0695V62.7706H50.5961V61.619H51.0695V61.7359H50.724V62.129H51.0055Z" fill="#263238" />
	<path
		d="M51.6874 61.895V61.926H51.5685V61.8895C51.5685 61.7853 51.5302 61.725 51.4369 61.725C51.3437 61.725 51.3053 61.7853 51.3053 61.8876C51.3053 62.1454 51.6928 62.1692 51.6928 62.4945C51.6928 62.6682 51.6088 62.7815 51.4314 62.7815C51.2541 62.7815 51.1737 62.6682 51.1737 62.4945V62.4287H51.2944V62.5C51.2944 62.6042 51.3364 62.6645 51.4296 62.6645C51.5228 62.6645 51.5631 62.6042 51.5631 62.5C51.5631 62.2441 51.1792 62.2185 51.1792 61.895C51.1792 61.7122 51.2615 61.608 51.4333 61.608C51.6051 61.608 51.6874 61.7213 51.6874 61.895Z"
		fill="#263238" />
	<path
		d="M52.2998 61.895V61.926H52.1773V61.8895C52.1773 61.7853 52.1371 61.725 52.0457 61.725C51.9543 61.725 51.9141 61.7853 51.9141 61.8876C51.9141 62.1454 52.2998 62.1692 52.2998 62.4945C52.2998 62.6682 52.2175 62.7815 52.0402 62.7815C51.8629 62.7815 51.7825 62.6682 51.7825 62.4945V62.4287H51.9031V62.5C51.9031 62.6042 51.9452 62.6645 52.0366 62.6645C52.128 62.6645 52.1718 62.6042 52.1718 62.5C52.1718 62.2441 51.788 62.2185 51.788 61.895C51.788 61.7122 51.8702 61.608 52.042 61.608C52.2139 61.608 52.2998 61.7213 52.2998 61.895Z"
		fill="#263238" />
	<path d="M39.4182 61.619C39.601 61.619 39.6796 61.7268 39.6796 61.9059V62.4854C39.6796 62.6682 39.5974 62.7706 39.4182 62.7706H39.1477V61.619H39.4182ZM39.4182 62.6536C39.5096 62.6536 39.5553 62.5969 39.5553 62.4909V61.8986C39.5553 61.7926 39.5096 61.7359 39.4164 61.7359H39.2775V62.6499L39.4182 62.6536Z" fill="#263238" />
	<path d="M40.2098 62.129V62.2441H39.9283V62.6536H40.2737V62.7706H39.8003V61.619H40.2737V61.7359H39.9283V62.129H40.2098Z" fill="#263238" />
	<path d="M40.5222 62.5384L40.4765 62.7706H40.3595L40.5789 61.619H40.7616L40.9828 62.7706H40.853L40.8092 62.5384H40.5222ZM40.5386 62.4287H40.7946L40.6648 61.7634L40.5386 62.4287Z" fill="#263238" />
	<path d="M41.3559 61.619C41.5387 61.619 41.6173 61.7268 41.6173 61.9059V62.4854C41.6173 62.6682 41.535 62.7706 41.3559 62.7706H41.0853V61.619H41.3559ZM41.3559 62.6536C41.4491 62.6536 41.493 62.5969 41.493 62.4909V61.8986C41.493 61.7926 41.4491 61.7359 41.354 61.7359H41.2169V62.6499L41.3559 62.6536Z" fill="#263238" />
	<path d="M41.7379 62.7706V61.619H41.8659V62.6536H42.1949V62.7706H41.7379Z" fill="#263238" />
	<path d="M42.429 61.619V62.7706H42.301V61.619H42.429Z" fill="#263238" />
	<path d="M42.6646 62.7706H42.5494V61.619H42.7121L42.979 62.4507V61.619H43.0923V62.7706H42.9607L42.6646 61.842V62.7706Z" fill="#263238" />
	<path d="M43.6353 62.129V62.2441H43.3538V62.6536H43.7084V62.7706H43.2332V61.619H43.7084V61.7359H43.3629V62.129H43.6353Z" fill="#263238" />
	<path d="M31.8468 62.935H34.2524" stroke="#263238" stroke-width="0.25" stroke-linecap="round" stroke-linejoin="round" />
	<path d="M24.6337 62.935H30.9822" stroke="#263238" stroke-width="0.25" stroke-linecap="round" stroke-linejoin="round" />
	<path d="M17.8959 62.935H23.6722" stroke="#263238" stroke-width="0.25" stroke-linecap="round" stroke-linejoin="round" />
	<path d="M28.2896 65.6714H30.1266" stroke="#263238" stroke-width="0.25" stroke-linecap="round" stroke-linejoin="round" />
	<path d="M23.5753 65.6714H26.7505" stroke="#263238" stroke-width="0.25" stroke-linecap="round" stroke-linejoin="round" />
	<path d="M21.2684 65.6714H22.6138" stroke="#263238" stroke-width="0.25" stroke-linecap="round" stroke-linejoin="round" />
	<path d="M17.8959 65.6714H20.4989" stroke="#263238" stroke-width="0.25" stroke-linecap="round" stroke-linejoin="round" />
	<path
		d="M55.6158 65.1597C55.616 65.2731 55.5938 65.3854 55.5506 65.4902C55.5073 65.595 55.4438 65.6902 55.3636 65.7704C55.2834 65.8505 55.1882 65.9141 55.0834 65.9573C54.9786 66.0006 54.8663 66.0228 54.753 66.0225H45.6954C45.582 66.0228 45.4696 66.0006 45.3647 65.9574C45.2598 65.9141 45.1645 65.8506 45.0842 65.7705C45.0039 65.6903 44.9401 65.5951 44.8967 65.4903C44.8532 65.3855 44.8308 65.2732 44.8308 65.1597C44.8313 64.9307 44.9226 64.7113 45.0847 64.5495C45.2468 64.3878 45.4664 64.2969 45.6954 64.2969H54.753C54.8663 64.2969 54.9785 64.3193 55.0831 64.3626C55.1878 64.406 55.2829 64.4695 55.363 64.5496C55.4432 64.6298 55.5067 64.7249 55.5501 64.8296C55.5934 64.9342 55.6158 65.0464 55.6158 65.1597Z"
		fill="white" stroke="#263238" stroke-width="0.25" stroke-linecap="round" stroke-linejoin="round" />
	<path d="M46.5564 64.2969V66.0225H45.6954C45.582 66.0228 45.4696 66.0006 45.3647 65.9574C45.2598 65.9141 45.1645 65.8506 45.0842 65.7705C45.0039 65.6903 44.9401 65.5951 44.8967 65.4903C44.8532 65.3855 44.8308 65.2732 44.8308 65.1597C44.8313 64.9307 44.9226 64.7113 45.0847 64.5495C45.2468 64.3878 45.4664 64.2969 45.6954 64.2969H46.5564Z" fill="#92E3A9" stroke="#263238" stroke-width="0.25"
		stroke-linecap="round" stroke-linejoin="round" />
	<path
		d="M43.1143 66.0225H39.5407C39.3118 66.0225 39.0924 65.9316 38.9306 65.7698C38.7688 65.608 38.6779 65.3886 38.6779 65.1597C38.6779 65.0464 38.7002 64.9342 38.7435 64.8296C38.7869 64.7249 38.8504 64.6298 38.9306 64.5496C39.0107 64.4695 39.1058 64.406 39.2105 64.3626C39.3152 64.3193 39.4273 64.2969 39.5407 64.2969H43.1143C43.2278 64.2967 43.3402 64.3188 43.445 64.3621C43.5499 64.4053 43.6453 64.4689 43.7256 64.549C43.8059 64.6291 43.8696 64.7243 43.9131 64.8291C43.9566 64.9339 43.9789 65.0463 43.9789 65.1597C43.9789 65.2732 43.9566 65.3855 43.9131 65.4903C43.8696 65.5951 43.8059 65.6903 43.7256 65.7705C43.6453 65.8506 43.5499 65.9141 43.445 65.9574C43.3402 66.0006 43.2278 66.0228 43.1143 66.0225Z"
		fill="white" stroke="#263238" stroke-width="0.25" stroke-linecap="round" stroke-linejoin="round" />
	<path d="M75.0433 30.3572H60.5969C60.1204 30.3572 59.7341 30.7435 59.7341 31.22V35.3036C59.7341 35.7801 60.1204 36.1664 60.5969 36.1664H75.0433C75.5198 36.1664 75.9061 35.7801 75.9061 35.3036V31.22C75.9061 30.7435 75.5198 30.3572 75.0433 30.3572Z" fill="#92E3A9" stroke="#263238" stroke-width="0.25" stroke-linecap="round" stroke-linejoin="round" />
	<path d="M62.8344 34.1959L62.7302 34.7443H62.4524L62.9679 32.0462H63.4029L63.9184 34.7388H63.6186L63.5144 34.1904L62.8344 34.1959ZM62.8728 33.9381H63.4724L63.1689 32.3844L62.8728 33.9381Z" fill="white" />
	<path d="M64.7829 32.0462C65.2033 32.0462 65.3952 32.3003 65.3952 32.7152V34.0734C65.3952 34.4847 65.2033 34.7388 64.7829 34.7388H64.1522V32.0462H64.7829ZM64.7829 34.4664C64.9986 34.4664 65.1028 34.3311 65.1028 34.0844V32.7006C65.1028 32.4538 64.9986 32.3204 64.7792 32.3204H64.4557V34.4664H64.7829Z" fill="white" />
	<path d="M66.3075 32.0462C66.7261 32.0462 66.9181 32.3003 66.9181 32.7152V34.0734C66.9181 34.4847 66.7261 34.7388 66.3075 34.7388H65.6769V32.0462H66.3075ZM66.3075 34.4664C66.5214 34.4664 66.6256 34.3311 66.6256 34.0844V32.7006C66.6256 32.4538 66.5214 32.3204 66.302 32.3204H65.9803V34.4664H66.3075Z" fill="white" />
	<path d="M68.1885 34.7388V32.3204H67.6913V32.0462H68.9836V32.3204H68.4883V34.7388H68.1885Z" fill="white" />
	<path d="M69.3492 34.1959L69.245 34.7443H68.969L69.4826 32.0462H69.9177L70.4332 34.7388H70.1316L70.0292 34.1904L69.3492 34.1959ZM69.3876 33.9381H69.9872L69.6837 32.3844L69.3876 33.9381Z" fill="white" />
	<path
		d="M71.8351 32.6933V32.7664H71.5499V32.6769C71.5499 32.4356 71.4567 32.293 71.2429 32.293C71.029 32.293 70.9339 32.4356 70.9339 32.6732C70.9339 33.2783 71.8388 33.3349 71.8388 34.0935C71.8388 34.5012 71.6413 34.7662 71.2301 34.7662C70.8188 34.7662 70.6268 34.5012 70.6268 34.0935V33.9382H70.9065V34.1082C70.9065 34.3513 71.007 34.492 71.2227 34.492C71.4384 34.492 71.539 34.3513 71.539 34.1082C71.539 33.5086 70.6378 33.4501 70.6378 32.6933C70.6378 32.2765 70.8297 32.0188 71.2337 32.0188C71.6377 32.0188 71.8351 32.2857 71.8351 32.6933Z"
		fill="white" />
	<path d="M72.5572 33.5707L72.4 33.8358V34.7388H72.1002V32.0462H72.4073V33.3459L73.122 32.0462H73.4273L72.7455 33.2728L73.4493 34.7351H73.1385L72.5572 33.5707Z" fill="white" />
	<path
		d="M62.0446 7.20798C62.0446 7.20798 59.9205 8.14389 58.8146 8.44002C57.7087 8.73615 56.5205 9.20594 56.2225 10.14C55.9246 11.0741 54.5975 14.6679 54.5116 15.4411C54.4257 16.2143 55.7912 17.5853 55.7912 17.5853H73.4712C73.4712 17.5853 73.8002 13.1123 73.0763 11.5823C72.3524 10.0523 70.1516 8.74529 69.5191 8.4912C68.8866 8.23712 67.2305 7.42002 66.5578 7.29389C65.8851 7.16776 62.8105 6.91002 62.0446 7.20798Z"
		fill="white" stroke="#263238" stroke-width="0.25" stroke-linecap="round" stroke-linejoin="round" />
	<path d="M56.1842 13.4011C56.5247 13.3018 56.8837 13.2831 57.2327 13.3465C57.5817 13.41 57.9112 13.5538 58.195 13.7667" fill="white" />
	<path d="M56.1842 13.4011C56.5247 13.3018 56.8837 13.2831 57.2327 13.3465C57.5817 13.41 57.9112 13.5538 58.195 13.7667" stroke="#263238" stroke-width="0.25" stroke-linecap="round" stroke-linejoin="round" />
	<path d="M57.6008 13.7666C58.0079 13.789 58.395 13.9503 58.6976 14.2236L57.6008 13.7666Z" fill="white" />
	<path d="M57.6008 13.7666C58.0079 13.789 58.395 13.9503 58.6976 14.2236" stroke="#263238" stroke-width="0.25" stroke-linecap="round" stroke-linejoin="round" />
	<path d="M59.4069 11.7266C59.5733 12.0114 59.645 12.3417 59.6117 12.6699C59.5582 13.2987 59.4071 13.9154 59.1638 14.4978" stroke="#263238" stroke-width="0.25" stroke-linecap="round" stroke-linejoin="round" />
	<path d="M58.7891 11.1069C58.9568 11.2079 59.1069 11.3358 59.2333 11.4853" stroke="#263238" stroke-width="0.25" stroke-linecap="round" stroke-linejoin="round" />
	<path d="M59.873 11.6737C59.873 11.6737 60.2149 12.7028 60.0229 13.5346" stroke="#263238" stroke-width="0.25" stroke-linecap="round" stroke-linejoin="round" />
	<path d="M69.0567 12.3043C69.0567 12.3043 68.6326 13.7922 68.6747 14.2602" stroke="#263238" stroke-width="0.25" stroke-linecap="round" stroke-linejoin="round" />
	<path d="M62.2969 10.8548L63.0774 12.2586L63.741 14.4047L64.6769 12.4542L65.5744 10.895L63.8177 10.6208L62.2969 10.8548Z" fill="#92E3A9" stroke="#263238" stroke-width="0.25" stroke-linecap="round" stroke-linejoin="round" />
	<path d="M63.0774 12.2604L64.6769 12.4541" stroke="#263238" stroke-width="0.25" stroke-linecap="round" stroke-linejoin="round" />
	<path d="M62.2147 8.35587C62.0144 8.62775 61.8566 8.92854 61.7468 9.24792C61.5768 9.75792 61.2806 11.5 61.2806 11.5C61.2806 11.5 62.9368 11.4159 63.3627 11.4159C63.7886 11.4159 64.4595 11.4579 64.5947 11.4579C64.73 11.4579 66.6347 12.6059 66.6347 12.6059C66.6347 12.6059 66.9747 10.65 66.5927 9.54587C66.2106 8.44179 63.6168 7.12383 62.2147 8.35587Z" fill="white" stroke="#263238"
		stroke-width="0.25" stroke-linecap="round" stroke-linejoin="round" />
	<path d="M63.1067 10.7669L63.7794 12.1818L65.1467 10.639C65.1467 10.639 63.8726 11.0247 63.1067 10.7669Z" fill="white" stroke="#263238" stroke-width="0.25" stroke-linecap="round" stroke-linejoin="round" />
	<path
		d="M68.8064 26.7214L68.1501 27.9334C68.1501 27.9334 67.3385 28.1034 67.2544 28.2734C67.0462 28.6614 66.8014 29.0287 66.5233 29.3701C66.3112 29.5822 65.8871 29.8801 66.2692 30.0501C66.6512 30.2201 67.3312 29.4561 67.3312 29.4561L67.7133 29.2422C67.7405 29.5815 67.6989 29.9229 67.5908 30.2457C67.3404 30.9641 67.0515 31.8379 67.0881 31.9293C67.2709 32.3863 67.5725 32.0646 67.5725 32.0646L68.1428 30.732L68.2434 30.668C68.2434 30.668 68.1282 32.1907 68.1282 32.1962C68.1063 32.4758 68.353 32.8031 68.5687 32.5161L69.0787 30.902V32.3534C69.0773 32.4062 69.0879 32.4587 69.1097 32.5069C69.1315 32.5551 69.1639 32.5977 69.2046 32.6315C69.2452 32.6653 69.2931 32.6894 69.3444 32.702C69.3958 32.7146 69.4493 32.7154 69.501 32.7043L69.5467 32.6861C69.7167 32.602 69.7752 30.8289 69.7752 30.8289L70.1298 32.1084C70.1381 32.1419 70.1532 32.1732 70.1743 32.2004C70.1954 32.2277 70.2219 32.2502 70.2522 32.2665C70.2825 32.2829 70.3159 32.2927 70.3502 32.2954C70.3846 32.2981 70.4191 32.2935 70.4515 32.2821C70.4679 32.2771 70.4828 32.2684 70.4952 32.2567C70.5076 32.245 70.517 32.2305 70.5228 32.2144C70.5667 32.0883 70.4387 30.0483 70.4387 30.0483L70.3528 27.9224L70.4808 27.2004L68.8064 26.7214Z"
		fill="white" stroke="#263238" stroke-width="0.25" stroke-linecap="round" stroke-linejoin="round" />
	<path d="M69.6105 12.4871C69.6105 12.4871 68.9305 13.933 69.0146 14.443C69.0987 14.953 71.0802 19.8282 71.0802 19.8282L68.6179 26.9225L70.5738 27.3904C70.5738 27.3904 73.9135 22.4257 74.2681 21.3582C74.4627 20.7548 74.5487 20.1216 74.5222 19.4882C74.5222 19.2323 73.7325 13.423 73.2646 12.403C72.9925 11.802 72.6347 11.2436 72.2025 10.7451" fill="white" />
	<path d="M69.6105 12.4871C69.6105 12.4871 68.9305 13.933 69.0146 14.443C69.0987 14.953 71.0802 19.8282 71.0802 19.8282L68.6179 26.9225L70.5738 27.3904C70.5738 27.3904 73.9135 22.4257 74.2681 21.3582C74.4627 20.7548 74.5487 20.1216 74.5222 19.4882C74.5222 19.2323 73.7325 13.423 73.2646 12.403C72.9925 11.802 72.6347 11.2436 72.2025 10.7451" stroke="#263238" stroke-width="0.25"
		stroke-linecap="round" stroke-linejoin="round" />
	<path d="M71.3783 19.649C71.3783 19.649 72.1424 18.5852 72.6103 17.9052" stroke="#263238" stroke-width="0.25" stroke-linecap="round" stroke-linejoin="round" />
	<path d="M72.4823 17.5232L71.5482 18.7132" stroke="#263238" stroke-width="0.25" stroke-linecap="round" stroke-linejoin="round" />
	<path d="M68.788 26.2334L70.87 26.7434" stroke="#263238" stroke-width="0.25" stroke-linecap="round" stroke-linejoin="round" />
	<path d="M55.1753 14.2254C54.9758 14.3989 54.7995 14.5974 54.6506 14.8159C54.2668 15.3643 54.4806 16.5579 54.7347 16.94C54.9888 17.322 56.0143 17.5779 56.0143 17.5779H64.2657L64.432 16.1832H64.1304C64.1304 16.1832 62.6443 15.7152 61.5804 15.4173C60.5165 15.1193 58.4272 14.2364 57.7984 14.1011C57.3178 13.9981 56.8231 13.979 56.336 14.0445" fill="white" />
	<path d="M55.1753 14.2254C54.9758 14.3989 54.7995 14.5974 54.6506 14.8159C54.2668 15.3643 54.4806 16.5579 54.7347 16.94C54.9888 17.322 56.0143 17.5779 56.0143 17.5779H64.2657L64.432 16.1832H64.1304C64.1304 16.1832 62.6443 15.7152 61.5804 15.4173C60.5165 15.1193 58.4272 14.2364 57.7984 14.1011C57.3178 13.9981 56.8231 13.979 56.336 14.0445" stroke="#263238" stroke-width="0.25"
		stroke-linecap="round" stroke-linejoin="round" />
	<path d="M65.6549 17.5779L65.6128 17.5249C65.6128 17.5249 66.4702 17.4463 66.5872 17.4079C66.7414 17.3723 66.8977 17.346 67.0551 17.3293L68.2945 17.5779H69.5247L69.3967 17.3659L68.2999 16.6859L67.3512 16.2124C66.366 15.7189 65.1833 16.3276 64.134 16.1759L64.3333 16.2015L64.1669 17.5779H65.6549Z" fill="white" stroke="#263238" stroke-width="0.25" stroke-linecap="round" stroke-linejoin="round" />
	<path d="M67.3676 16.6274L69.318 17.4865" stroke="#263238" stroke-width="0.25" stroke-linecap="round" stroke-linejoin="round" />
	<path d="M63.5838 16.1211L63.5326 17.5359" stroke="#263238" stroke-width="0.25" stroke-linecap="round" stroke-linejoin="round" />
	<path
		d="M61.9605 5.93383C61.6195 5.45897 61.4135 4.90052 61.3646 4.31792C61.3226 3.42587 61.7467 3.25587 61.7467 3.25587C61.7467 3.25587 61.1105 2.23587 62.5126 1.63996C63.9146 1.04405 66.0405 0.705874 67.2305 1.34383C68.4205 1.98179 68.8446 3.46792 68.8026 4.48792C68.7605 5.50792 68.1646 6.69792 68.1646 6.69792L67.2305 7.84587C67.2305 7.84587 66.6346 8.05792 66.4994 7.80383C66.3641 7.54974 65.6567 6.78383 65.2783 6.78383C64.8999 6.78383 63.9183 6.78383 63.4083 6.56996C62.8983 6.35609 61.9605 5.93383 61.9605 5.93383Z"
		fill="#263238" stroke="#263238" stroke-width="0.25" stroke-linecap="round" stroke-linejoin="round" />
	<path
		d="M61.8747 4.65796C61.8747 4.65796 61.8326 7.25 61.8326 7.80387C61.8326 8.35774 61.8326 8.90065 62.0867 9.46C62.3408 10.0194 62.5547 11.5 63.7026 11.5859C64.8506 11.6718 66.5067 10.4891 66.8102 9.84387C67.1136 9.19861 67.2726 8.1 67.2726 8.1C67.2726 8.1 68.2926 7.42 68.4626 6.61387C68.6326 5.80774 68.2926 5.42387 68.0806 5.80592C67.8686 6.18796 67.5706 7.16592 67.4426 7.25C67.3147 7.33409 67.1447 6.74 67.1447 6.74C67.1447 6.74 66.5067 6.99592 66.4226 6.74C66.3386 6.48409 66.7626 5.25387 66.7626 5.25387C66.7626 5.25387 65.3606 5.63592 65.0626 5.63592C64.7439 5.59928 64.4301 5.52819 64.1267 5.42387L65.3606 6.18796C64.8222 6.4113 64.2264 6.45615 63.6606 6.31592C62.8106 6.06 62.1726 4.65796 62.1726 4.65796H61.8747Z"
		fill="white" stroke="#263238" stroke-width="0.25" stroke-linecap="round" stroke-linejoin="round" />
	<path d="M63.1506 7.37799V7.88799C63.1506 7.88799 62.6022 9.3339 62.6826 9.58799C62.763 9.84208 63.5326 9.71595 63.7026 9.63003" fill="white" />
	<path d="M63.1506 7.37799V7.88799C63.1506 7.88799 62.6022 9.3339 62.6826 9.58799C62.763 9.84208 63.5326 9.71595 63.7026 9.63003" stroke="#263238" stroke-width="0.25" stroke-linecap="round" stroke-linejoin="round" />
	<path d="M63.0647 10.0139C63.3153 10.1595 63.5985 10.2398 63.8883 10.2471C64.1781 10.2545 64.465 10.1887 64.7227 10.0559" fill="white" />
	<path d="M63.0647 10.0139C63.3153 10.1595 63.5985 10.2398 63.8883 10.2471C64.1781 10.2545 64.465 10.1887 64.7227 10.0559" stroke="#263238" stroke-width="0.25" stroke-linecap="round" stroke-linejoin="round" />
	<path d="M64.2968 8.09998C64.5099 8.25128 64.7561 8.3496 65.0149 8.3868C65.2736 8.42399 65.5375 8.39898 65.7847 8.31385" fill="white" />
	<path d="M64.2968 8.09998C64.5099 8.25128 64.7561 8.3496 65.0149 8.3868C65.2736 8.42399 65.5375 8.39898 65.7847 8.31385" stroke="#263238" stroke-width="0.25" stroke-linecap="round" stroke-linejoin="round" />
	<path d="M64.3406 7.33592C64.3406 7.33592 65.2783 7.00323 65.8706 7.63388L64.3406 7.33592Z" fill="white" />
	<path d="M64.3406 7.33592C64.3406 7.33592 65.2783 7.00323 65.8706 7.63388" stroke="#263238" stroke-width="0.25" stroke-linecap="round" stroke-linejoin="round" />
	<path d="M62.1708 7.42004C62.1708 7.42004 62.3408 7.80391 63.1487 7.888L62.1708 7.42004Z" fill="white" />
	<path d="M62.1708 7.42004C62.1708 7.42004 62.3408 7.80391 63.1487 7.888" stroke="#263238" stroke-width="0.25" stroke-linecap="round" stroke-linejoin="round" />
	<path d="M62.9806 7.00323C62.9806 7.00323 62.6826 6.49323 62.2494 6.66323L62.9806 7.00323Z" fill="white" />
	<path d="M62.9806 7.00323C62.9806 7.00323 62.6826 6.49323 62.2494 6.66323" stroke="#263238" stroke-width="0.25" stroke-linecap="round" stroke-linejoin="round" />
	<path d="M63.741 14.4046L62.5309 25.2097L64.092 27.3941L65.5342 25.2097L63.741 14.4046Z" fill="#92E3A9" stroke="#263238" stroke-width="0.25" stroke-linecap="round" stroke-linejoin="round" />
	<path d="M16.8539 40.7255V42.5041C16.8539 42.5041 35.0567 41.7601 57.1457 41.3908L16.8539 40.7255Z" fill="#263238" stroke="#263238" stroke-width="0.25" stroke-linecap="round" stroke-linejoin="round" />
	<path d="M57.1457 30.3572H15.8503V41.3908H57.1457V30.3572Z" fill="white" stroke="#263238" stroke-width="0.25" stroke-linecap="round" stroke-linejoin="round" />
	<path d="M47.6712 33.2015C47.854 33.2015 47.9289 33.3076 47.9289 33.483V33.6201C47.9289 33.8029 47.843 33.898 47.6621 33.898H47.5469V34.3531H47.4189V33.2015H47.6712ZM47.6621 33.7828C47.7571 33.7828 47.8028 33.739 47.8028 33.6293V33.4757C47.8028 33.3715 47.7644 33.3185 47.6712 33.3185H47.5469V33.7828H47.6621Z" fill="#263238" />
	<path
		d="M48.2783 33.2015C48.461 33.2015 48.536 33.2929 48.536 33.4648V33.558C48.536 33.6841 48.4921 33.7645 48.3934 33.7956C48.4976 33.8267 48.5378 33.9126 48.5378 34.0351V34.2179C48.5344 34.2653 48.5419 34.3128 48.5598 34.3568H48.43C48.4124 34.3121 48.4055 34.2639 48.4099 34.2161V34.0333C48.4099 33.9035 48.3477 33.8633 48.2417 33.8633H48.1503V34.355H48.0223V33.2034L48.2783 33.2015ZM48.2472 33.7499C48.3477 33.7499 48.4099 33.717 48.4099 33.5909V33.4812C48.4099 33.377 48.3715 33.324 48.2764 33.324H48.1503V33.7499H48.2472Z"
		fill="#263238" />
	<path
		d="M48.6675 33.4794C48.6675 33.2966 48.7553 33.1888 48.9308 33.1888C49.1063 33.1888 49.1958 33.3039 49.1958 33.4794V34.0753C49.1989 34.1119 49.1943 34.1486 49.1824 34.1833C49.1705 34.218 49.1515 34.2498 49.1267 34.2768C49.1019 34.3038 49.0717 34.3253 49.0382 34.3401C49.0046 34.3548 48.9683 34.3624 48.9317 34.3624C48.895 34.3624 48.8588 34.3548 48.8252 34.3401C48.7916 34.3253 48.7615 34.3038 48.7366 34.2768C48.7118 34.2498 48.6929 34.218 48.681 34.1833C48.6691 34.1486 48.6645 34.1119 48.6675 34.0753V33.4794ZM48.7955 34.0808C48.7955 34.1868 48.8394 34.2472 48.9308 34.2472C49.0222 34.2472 49.0679 34.1868 49.0679 34.0808V33.4721C49.0679 33.3698 49.0258 33.3058 48.9308 33.3058C48.8357 33.3058 48.7955 33.3698 48.7955 33.4721V34.0808Z"
		fill="#263238" />
	<path
		d="M49.8265 33.4794V33.5781H49.704V33.4721C49.704 33.3698 49.6638 33.3058 49.5688 33.3058C49.4737 33.3058 49.4353 33.3698 49.4353 33.4721V34.0808C49.4353 34.185 49.4774 34.2472 49.5688 34.2472C49.6602 34.2472 49.704 34.185 49.704 34.0808V33.8505H49.5852V33.7353H49.8265V34.0753C49.8265 34.2581 49.7443 34.3642 49.5669 34.3642C49.3896 34.3642 49.3074 34.249 49.3074 34.0753V33.4794C49.3074 33.2966 49.3896 33.1888 49.5669 33.1888C49.7443 33.1888 49.8265 33.3039 49.8265 33.4794Z"
		fill="#263238" />
	<path
		d="M50.2049 33.2015C50.3877 33.2015 50.4608 33.2929 50.4608 33.4648V33.558C50.4608 33.6841 50.4169 33.7645 50.3182 33.7956C50.4242 33.8267 50.4626 33.9126 50.4626 34.0351V34.2179C50.4589 34.2654 50.467 34.3132 50.4864 34.3568H50.3566C50.3382 34.3123 50.3307 34.264 50.3347 34.2161V34.0333C50.3347 33.9035 50.2743 33.8633 50.1665 33.8633H50.0769V34.355H49.9471V33.2034L50.2049 33.2015ZM50.172 33.7499C50.2743 33.7499 50.3347 33.717 50.3347 33.5909V33.4812C50.3347 33.377 50.2963 33.324 50.2012 33.324H50.0769V33.7499H50.172Z"
		fill="#263238" />
	<path d="M51.0055 33.7115V33.8267H50.724V34.2398H51.0695V34.3568H50.5961V33.2052H51.0695V33.3258H50.724V33.7189L51.0055 33.7115Z" fill="#263238" />
	<path
		d="M51.6874 33.4776V33.5087H51.5685V33.4703C51.5685 33.3679 51.5302 33.3058 51.4369 33.3058C51.3437 33.3058 51.3053 33.3679 51.3053 33.4703C51.3053 33.728 51.6928 33.7518 51.6928 34.0772C51.6928 34.2508 51.6088 34.3642 51.4314 34.3642C51.2541 34.3642 51.1737 34.2508 51.1737 34.0772V34.0114H51.2944V34.0827C51.2944 34.1868 51.3364 34.2472 51.4296 34.2472C51.5228 34.2472 51.5631 34.1868 51.5631 34.0827C51.5631 33.8267 51.1792 33.8011 51.1792 33.4776C51.1792 33.2948 51.2615 33.1888 51.4333 33.1888C51.6051 33.1888 51.6874 33.3039 51.6874 33.4776Z"
		fill="#263238" />
	<path
		d="M52.2997 33.4776V33.5087H52.1772V33.4703C52.1772 33.3679 52.137 33.3058 52.0456 33.3058C51.9542 33.3058 51.914 33.3679 51.914 33.4703C51.914 33.728 52.2997 33.7518 52.2997 34.0772C52.2997 34.2508 52.2174 34.3642 52.0401 34.3642C51.8628 34.3642 51.7823 34.2508 51.7823 34.0772V34.0114H51.903V34.0827C51.903 34.1868 51.945 34.2472 52.0364 34.2472C52.1278 34.2472 52.1717 34.1868 52.1717 34.0827C52.1717 33.8267 51.7878 33.8011 51.7878 33.4776C51.7878 33.2948 51.8701 33.1888 52.0419 33.1888C52.2137 33.1888 52.2997 33.3039 52.2997 33.4776Z"
		fill="#263238" />
	<path d="M39.4181 33.2015C39.6009 33.2015 39.6795 33.3094 39.6795 33.4867V34.068C39.6795 34.2508 39.5973 34.3531 39.4181 34.3531H39.1476V33.2015H39.4181ZM39.4181 34.2362C39.5095 34.2362 39.5552 34.1795 39.5552 34.0735V33.4812C39.5552 33.3752 39.5095 33.3185 39.4163 33.3185H39.2774V34.2325L39.4181 34.2362Z" fill="#263238" />
	<path d="M40.2096 33.7115V33.8267H39.9281V34.2398H40.2736V34.3568H39.8002V33.2052H40.2736V33.3258H39.9281V33.7189L40.2096 33.7115Z" fill="#263238" />
	<path d="M40.5222 34.121L40.4765 34.3531H40.3595L40.5789 33.2015H40.7616L40.9828 34.3531H40.853L40.8092 34.121H40.5222ZM40.5386 34.0113H40.7946L40.6648 33.3459L40.5386 34.0113Z" fill="#263238" />
	<path d="M41.3557 33.2015C41.5385 33.2015 41.6171 33.3094 41.6171 33.4867V34.068C41.6171 34.2508 41.5349 34.3531 41.3557 34.3531H41.0852V33.2015H41.3557ZM41.3557 34.2362C41.449 34.2362 41.4928 34.1795 41.4928 34.0735V33.4812C41.4928 33.3752 41.449 33.3185 41.3539 33.3185H41.2168V34.2325L41.3557 34.2362Z" fill="#263238" />
	<path d="M41.7378 34.3531V33.2015H41.8657V34.2398H42.1948V34.3568L41.7378 34.3531Z" fill="#263238" />
	<path d="M42.4287 33.2015V34.3531H42.3008V33.2015H42.4287Z" fill="#263238" />
	<path d="M42.6646 34.3531H42.5494V33.2015H42.7121L42.979 34.0333V33.2015H43.0923V34.3531H42.9607L42.6646 33.4209V34.3531Z" fill="#263238" />
	<path d="M43.6352 33.7115V33.8267H43.3537V34.2398H43.7083V34.3568H43.233V33.2052H43.7083V33.3258H43.3628V33.7189L43.6352 33.7115Z" fill="#263238" />
	<path d="M31.8467 34.5178H34.2523" stroke="#263238" stroke-width="0.25" stroke-linecap="round" stroke-linejoin="round" />
	<path d="M24.6335 34.5178H30.982" stroke="#263238" stroke-width="0.25" stroke-linecap="round" stroke-linejoin="round" />
	<path d="M17.8958 34.5178H23.6721" stroke="#263238" stroke-width="0.25" stroke-linecap="round" stroke-linejoin="round" />
	<path d="M28.2894 37.2542H30.1265" stroke="#263238" stroke-width="0.25" stroke-linecap="round" stroke-linejoin="round" />
	<path d="M23.5752 37.2542H26.7504" stroke="#263238" stroke-width="0.25" stroke-linecap="round" stroke-linejoin="round" />
	<path d="M21.2683 37.2542H22.6137" stroke="#263238" stroke-width="0.25" stroke-linecap="round" stroke-linejoin="round" />
	<path d="M17.8958 37.2542H20.4988" stroke="#263238" stroke-width="0.25" stroke-linecap="round" stroke-linejoin="round" />
	<path
		d="M55.6156 36.7424C55.6159 36.8557 55.5937 36.968 55.5504 37.0728C55.5072 37.1776 55.4436 37.2728 55.3635 37.353C55.2833 37.4332 55.1881 37.4967 55.0833 37.54C54.9785 37.5833 54.8662 37.6054 54.7528 37.6052H45.6953C45.5819 37.6054 45.4695 37.5833 45.3646 37.54C45.2597 37.4968 45.1644 37.4332 45.084 37.3531C45.0037 37.273 44.94 37.1778 44.8965 37.073C44.8531 36.9682 44.8307 36.8558 44.8307 36.7424C44.8317 36.5134 44.923 36.294 45.085 36.1321C45.2469 35.9701 45.4663 35.8787 45.6953 35.8777H54.7528C54.8663 35.8777 54.9786 35.9001 55.0834 35.9436C55.1882 35.9871 55.2834 36.0508 55.3636 36.1311C55.4437 36.2114 55.5072 36.3067 55.5505 36.4116C55.5937 36.5165 55.6159 36.6289 55.6156 36.7424Z"
		fill="white" stroke="#263238" stroke-width="0.25" stroke-linecap="round" stroke-linejoin="round" />
	<path
		d="M43.1142 37.6051H39.5405C39.3117 37.6051 39.0922 37.5142 38.9304 37.3524C38.7686 37.1906 38.6777 36.9711 38.6777 36.7423C38.6792 36.5144 38.7707 36.2964 38.9324 36.1358C39.094 35.9752 39.3126 35.885 39.5405 35.885H43.1142C43.2277 35.885 43.3402 35.9074 43.4451 35.9508C43.55 35.9943 43.6453 36.058 43.7256 36.1383C43.8059 36.2185 43.8695 36.3139 43.913 36.4188C43.9564 36.5237 43.9788 36.6361 43.9788 36.7496C43.9769 36.9775 43.8849 37.1954 43.7229 37.3556C43.5609 37.5159 43.3421 37.6056 43.1142 37.6051Z"
		fill="white" stroke="#263238" stroke-width="0.25" stroke-linecap="round" stroke-linejoin="round" />
	<path
		d="M19.4916 43.1969C19.4916 43.1969 20.1021 41.6084 20.2228 41.4457C20.3434 41.283 20.5481 40.8753 20.9156 40.8753C21.283 40.8753 21.9337 40.9156 22.2189 40.7931C22.5041 40.6706 22.8696 40.6706 22.7892 40.9156C22.7088 41.1605 22.2189 41.2409 22.2189 41.2409L24.3357 41.4055C24.3357 41.4055 23.7251 41.974 23.44 42.0964C23.1478 42.2 22.8485 42.2819 22.5443 42.3414C22.2912 42.5118 22.0172 42.6488 21.729 42.749C21.4607 42.8067 21.189 42.8476 20.9156 42.8715L20.4677 43.6849L19.4916 43.1969Z"
		fill="white" stroke="#263238" stroke-width="0.25" stroke-linecap="round" stroke-linejoin="round" />
	<path d="M22.2207 41.2391L21.283 41.484" stroke="#263238" stroke-width="0.25" stroke-linecap="round" stroke-linejoin="round" />
	<path d="M14.441 36.1483L13.7482 37.331L14.1558 38.2669L15.2964 37.4114L15.8668 37.0038V34.5598L14.441 36.1483Z" fill="white" stroke="#263238" stroke-width="0.25" stroke-linecap="round" stroke-linejoin="round" />
	<path d="M14.2782 36.7991C14.2782 36.7991 14.6036 35.1283 14.7663 34.9254C14.929 34.7225 15.5815 34.2326 15.7844 34.1942C15.9873 34.1558 16.2743 34.2747 16.1116 34.5196C15.9083 34.7524 15.6754 34.9577 15.4188 35.1301C15.4188 35.1301 15.704 35.9454 15.4993 36.3933C15.3584 36.6752 15.1301 36.9041 14.8485 37.0458" fill="white" />
	<path d="M14.2782 36.7991C14.2782 36.7991 14.6036 35.1283 14.7663 34.9254C14.929 34.7225 15.5815 34.2326 15.7844 34.1942C15.9873 34.1558 16.2743 34.2747 16.1116 34.5196C15.9083 34.7524 15.6754 34.9577 15.4188 35.1301C15.4188 35.1301 15.704 35.9454 15.4993 36.3933C15.3584 36.6752 15.1301 36.9041 14.8485 37.0458" stroke="#263238" stroke-width="0.25" stroke-linecap="round"
		stroke-linejoin="round" />
	<path d="M13.7901 37.0038L14.4811 38.755L10.9385 41.4439L10.1653 38.6745L13.7901 37.0038Z" fill="#92E3A9" stroke="#263238" stroke-width="0.25" stroke-linecap="round" stroke-linejoin="round" />
	<path
		d="M12.1762 66.3808L12.3133 68.1174C12.3133 68.1174 11.3993 70.0367 11.4907 71.7276C11.5821 73.4184 11.7649 78.3082 11.7649 78.5824C11.7649 78.8566 11.3079 79.1765 11.6278 80.319C11.7173 80.637 12.4961 80.4104 13.2729 80.9131C14.0498 81.4157 15.0095 81.7356 15.6036 81.7356C16.1977 81.7356 16.5176 81.7356 16.5176 81.4614C16.5176 81.1873 15.6493 80.8217 15.2837 80.4561C14.7096 79.8035 14.1754 79.1167 13.6842 78.3996C13.5928 78.2168 14.0041 75.5206 14.2783 74.4695C14.5525 73.4184 15.3294 70.905 15.6493 69.1227C15.9692 67.3405 16.1063 65.8781 16.1063 65.8781L12.1762 66.3808Z"
		fill="white" stroke="#263238" stroke-width="0.25" stroke-linecap="round" stroke-linejoin="round" />
	<path d="M11.6277 80.319L11.7191 81.5529H12.3589L12.6331 80.5475C12.6331 80.5475 11.8562 80.2733 11.6277 80.319Z" fill="#263238" stroke="#263238" stroke-width="0.25" stroke-linecap="round" stroke-linejoin="round" />
	<path
		d="M15.6035 81.7357C16.1939 81.6772 16.5175 81.7357 16.5175 81.4615C16.5175 81.1873 15.6492 80.8217 15.2836 80.4561C14.7866 79.8923 14.3187 79.3036 13.8816 78.6921C13.6931 78.8394 13.4656 78.9284 13.2272 78.948C12.5417 78.9937 11.7648 78.5825 11.7648 78.5825C11.7648 78.8567 11.3078 79.1765 11.6277 80.319C11.7173 80.6371 12.5216 80.5804 13.1485 81.3335C13.7408 82.0446 15.5139 81.7448 15.6035 81.7357Z"
		fill="#263238" stroke="#263238" stroke-width="0.25" stroke-linecap="round" stroke-linejoin="round" />
	<path
		d="M6.82927 65.0555L6.92067 67.6146C6.92067 67.6146 5.7325 69.2141 5.504 70.7678C5.27551 72.3216 4.49863 78.3996 4.49863 78.9937C4.49863 79.5877 4.13304 81.5071 4.31583 81.6442C4.49863 81.7813 6.60078 81.6442 6.60078 81.6442C6.67497 81.4395 6.70608 81.2217 6.69218 81.0044C6.69218 80.5474 6.32658 79.0394 6.41798 78.6738C6.50938 78.3082 6.82927 77.1657 6.82927 77.1657C6.82927 77.1657 8.24594 73.4641 8.84002 72.3216C9.43411 71.1791 9.9368 69.534 10.2567 68.5286C10.5766 67.5232 10.8508 66.1066 10.8508 66.1066L6.82927 65.0555Z"
		fill="white" stroke="#263238" stroke-width="0.25" stroke-linecap="round" stroke-linejoin="round" />
	<path d="M6.40701 78.7433C5.77271 77.8513 4.73809 78.396 4.53519 78.5148C4.51142 78.7506 4.49863 78.9188 4.49863 78.9937C4.49863 79.5878 4.13304 81.5072 4.31583 81.6443C4.49863 81.7814 6.60078 81.6443 6.60078 81.6443C6.67497 81.4396 6.70608 81.2218 6.69218 81.0045C6.69218 80.5731 6.36497 79.2076 6.40701 78.7433Z" fill="#263238" stroke="#263238" stroke-width="0.25" stroke-linecap="round"
		stroke-linejoin="round" />
	<path d="M6.60079 81.6443C6.50939 81.3701 5.86961 80.2733 5.86961 80.2733L4.68143 80.319C4.27014 80.776 4.31584 81.6443 4.31584 81.6443C4.49864 81.7814 6.60079 81.6443 6.60079 81.6443Z" fill="#8C8C8C" stroke="#263238" stroke-width="0.25" stroke-linecap="round" stroke-linejoin="round" />
	<path d="M5.86957 80.2733C5.86957 80.2733 5.45828 79.9077 5.13839 80.0448C4.9714 80.1092 4.8168 80.202 4.6814 80.319L4.7271 81.69H5.54968L5.86957 80.2733Z" fill="#263238" stroke="#263238" stroke-width="0.25" stroke-linecap="round" stroke-linejoin="round" />
	<path
		d="M5.82396 55.9615C5.57954 56.6369 5.44081 57.3459 5.41267 58.0636C5.36697 59.2518 5.68687 65.1013 5.68687 65.1013C5.68687 65.1013 7.97181 66.655 11.8105 66.7921C15.6492 66.9292 17.4315 65.8781 17.4315 65.8781C17.4315 65.8781 17.3401 58.8405 16.8831 57.1496C16.4261 55.4588 15.6035 54.7733 15.6035 54.7733C15.6035 54.7733 13.7756 55.3217 10.9879 55.276C9.40371 55.2642 7.82546 55.0803 6.28095 54.7276L5.82396 55.9615Z"
		fill="#263238" stroke="#263238" stroke-width="0.25" stroke-linecap="round" stroke-linejoin="round" />
	<path
		d="M7.02863 41.8918C7.02863 41.8918 5.88798 44.0085 5.7253 45.5568C5.56261 47.1051 7.06884 51.8285 7.06884 51.9912C7.06884 52.1539 5.48218 56.2266 5.48218 56.2266C6.72906 56.7613 8.02104 57.184 9.34282 57.4897C11.3792 57.9376 13.4557 57.6524 13.8634 57.5299L14.3935 55.9433L14.5964 57.2868C14.5964 57.2868 14.5964 57.327 15.249 57.1643C15.9015 57.0017 16.7113 56.3089 16.7113 56.3089C16.7113 56.3089 15.6529 53.8247 15.1228 53.1319C14.5927 52.4391 13.942 50.8524 13.942 50.8524L14.1851 48.8161C14.1851 48.8161 16.013 50.3223 16.1812 50.3625C16.3494 50.4027 18.8701 47.4378 19.3984 46.575C19.9267 45.7122 20.784 43.5205 20.784 43.5205L19.5794 42.9099L19.0913 43.398L16.1995 46.5348C16.1995 46.5348 14.4483 44.5386 13.5928 44.2133C12.7373 43.8879 11.1086 43.398 11.1086 43.398L7.80917 42.6248L8.05411 41.932C8.05411 41.932 7.88046 41.4439 7.02863 41.8918Z"
		fill="#92E3A9" stroke="#263238" stroke-width="0.25" stroke-linecap="round" stroke-linejoin="round" />
	<path d="M14.1978 48.816L12.3589 47.7357L14.0333 49.7593L14.1978 48.816Z" fill="#263238" stroke="#263238" stroke-width="0.25" stroke-linecap="round" stroke-linejoin="round" />
	<path d="M10.3352 51.3367C10.5064 51.5379 10.6941 51.7244 10.8964 51.8943" stroke="#263238" stroke-width="0.25" stroke-linecap="round" stroke-linejoin="round" />
	<path d="M8.09424 47.3573C8.09424 47.3573 8.88026 49.3827 9.96241 50.8633" stroke="#263238" stroke-width="0.25" stroke-linecap="round" stroke-linejoin="round" />
	<path d="M8.96252 50.4264C9.40181 51.1458 9.91588 51.8167 10.4962 52.428" stroke="#263238" stroke-width="0.25" stroke-linecap="round" stroke-linejoin="round" />
	<path
		d="M12.3241 35.4975C12.4859 35.8212 12.6086 36.163 12.6897 36.5157C12.8524 37.1664 13.4209 37.4936 13.6275 37.4516C13.834 37.4095 13.8304 37.8994 13.7079 38.1444C13.6209 38.3082 13.5114 38.4589 13.3825 38.5922C13.3575 39.165 13.3032 39.736 13.2198 40.3032C13.0974 41.0344 13.0571 41.6065 12.772 41.6065H11.3096C11.3096 41.6065 11.1871 42.2573 11.1451 42.7874C11.1031 43.3175 11.1049 43.3979 11.1049 43.3979L7.80543 42.6247L8.17102 41.4841C8.17102 41.4841 6.09446 40.5481 7.11263 38.8372C8.1308 37.1262 10.5309 34.9711 12.3241 35.4975Z"
		fill="white" stroke="#263238" stroke-width="0.25" stroke-linecap="round" stroke-linejoin="round" />
	<path d="M11.306 41.6065L10.6296 41.5516L11.1634 42.4857L11.306 41.6065Z" fill="#263238" stroke="#263238" stroke-width="0.25" stroke-linecap="round" stroke-linejoin="round" />
	<path d="M13.3003 39.488C13.1792 39.563 13.0412 39.6062 12.8989 39.6135C12.7567 39.6209 12.615 39.5922 12.4868 39.53" stroke="#263238" stroke-width="0.25" stroke-linecap="round" stroke-linejoin="round" />
	<path d="M12.0389 36.9636C12.0389 36.9636 12.1194 36.1903 12.527 36.2324" stroke="#263238" stroke-width="0.25" stroke-linecap="round" stroke-linejoin="round" />
	<path d="M12.6824 37.2871C12.7519 37.501 12.7464 37.693 12.6714 37.7185C12.5965 37.7441 12.4886 37.5869 12.4119 37.3731C12.3351 37.1592 12.3479 36.9673 12.4228 36.9417C12.4978 36.9161 12.6148 37.0714 12.6824 37.2871Z" fill="#263238" />
	<path
		d="M12.3241 34.2746L12.3387 34.2929C12.7701 34.854 12.7043 35.4792 12.3643 36.0678C11.6861 37.2651 9.62237 38.3783 9.62237 39.3673C9.62237 40.3562 10.6643 40.305 10.6643 40.305C10.6643 40.305 11.0811 41.1916 10.0391 41.9721C8.99721 42.7526 6.8585 42.961 5.50398 41.5517C5.13154 41.151 4.86017 40.6672 4.71248 40.1405C4.30119 38.7695 4.24269 37.245 4.84775 36.002C5.35592 34.9601 5.94452 34.1156 7.00291 33.5909C7.83646 33.1815 9.15259 33.0791 10.083 33.1339C10.5374 33.1512 10.9837 33.2593 11.3955 33.452C11.7572 33.661 12.073 33.9408 12.3241 34.2746Z"
		fill="#263238" stroke="#263238" stroke-width="0.25" stroke-linecap="round" stroke-linejoin="round" />
	<path d="M9.4762 41.1458C9.67729 41.113 9.8741 41.0578 10.063 40.9813" stroke="#757575" stroke-width="0.25" stroke-linecap="round" stroke-linejoin="round" />
	<path d="M11.2548 36.5759C10.9713 36.9876 10.6166 37.3454 10.2074 37.6325C8.77061 38.6379 7.19126 39.6908 7.90964 40.6468C8.0333 40.8105 8.19245 40.9441 8.37512 41.0375C8.5578 41.1309 8.75926 41.1817 8.96438 41.186" stroke="#757575" stroke-width="0.25" stroke-linecap="round" stroke-linejoin="round" />
	<path d="M11.8817 35.1429C11.824 35.4262 11.7313 35.7013 11.6057 35.9618" stroke="#757575" stroke-width="0.25" stroke-linecap="round" stroke-linejoin="round" />
	<path d="M8.45627 37.9598C8.22229 38.2833 7.92799 38.6635 7.57519 39.0675C6.56982 40.2173 6.7124 42.5607 8.96261 42.3706" stroke="#757575" stroke-width="0.25" stroke-linecap="round" stroke-linejoin="round" />
	<path d="M9.10506 36.9617C9.10506 36.9617 8.99904 37.1646 8.79431 37.4717" stroke="#757575" stroke-width="0.25" stroke-linecap="round" stroke-linejoin="round" />
	<path d="M83.6821 81.7155H86" stroke="#263238" stroke-width="0.25" stroke-linecap="round" stroke-linejoin="round" />
	<path d="M81.7025 81.7155H82.6165" stroke="#263238" stroke-width="0.25" stroke-linecap="round" stroke-linejoin="round" />
	<path d="M1 81.7155H81.0426" stroke="#263238" stroke-width="0.25" stroke-linecap="round" stroke-linejoin="round" />
</svg>