<svg width="22" height="23" viewBox="0 0 22 23" fill="none" xmlns="http://www.w3.org/2000/svg">
	<path fill-rule="evenodd" clip-rule="evenodd"
		d="M11.5323 3.35968C9.59577 3.29711 7.70323 3.95219 6.20977 5.202C4.7163 6.45182 3.72456 8.21048 3.4206 10.148C3.11664 12.0856 3.52135 14.0688 4.55881 15.7257L4.85218 16.1943L4.26156 18.9708L6.9615 18.202L7.44159 18.4696C9.13893 19.4156 11.1189 19.7021 13.01 19.2752C14.9011 18.8483 16.5733 17.7373 17.713 16.1507C18.8527 14.5642 19.3814 12.6111 19.2001 10.6579C19.0187 8.70463 18.1397 6.88553 16.728 5.54185C15.3163 4.19816 13.4688 3.42225 11.5323 3.35968ZM4.50472 3.1131C6.50056 1.44286 9.02971 0.567434 11.6177 0.65105C14.2056 0.734667 16.6745 1.77159 18.5611 3.56726C20.4477 5.36293 21.6224 7.79395 21.8648 10.4042C22.1071 13.0145 21.4005 15.6246 19.8774 17.7448C18.3544 19.865 16.1196 21.3497 13.5924 21.9202C11.2489 22.4493 8.80334 22.1586 6.65147 21.1054L0.709786 22.7975L2.00952 16.6873C0.838344 14.5776 0.400638 12.124 0.777319 9.72287C1.18353 7.13357 2.50888 4.78333 4.50472 3.1131Z"
		fill="white" />
	<path
		d="M14.9621 12.7913C14.7552 12.654 14.5484 12.5854 14.3415 12.86L13.514 13.9582C13.3072 14.0955 13.1692 14.1641 12.8934 14.0268C11.8591 13.4777 10.411 12.86 9.16978 10.8008C9.10082 10.5262 9.23873 10.3889 9.37665 10.2516L9.99725 9.29068C10.1352 9.1534 10.0662 9.01612 9.99725 8.87884L9.16978 6.88828C8.96291 6.33917 8.75604 6.40781 8.54917 6.40781H7.99752C7.85961 6.40781 7.58378 6.47645 7.30796 6.751C5.79092 8.26108 6.41153 10.3889 7.51483 11.7617C7.7217 12.0363 9.10082 14.5073 12.0659 15.8115C14.2725 16.7724 14.7552 16.6351 15.3758 16.4979C16.1344 16.4292 16.8929 15.8115 17.2377 15.1937C17.3066 14.9878 17.6514 14.0955 17.3756 13.9582"
		fill="white" />
</svg>