<svg width="127" height="32" viewBox="0 0 127 32" fill="none" xmlns="http://www.w3.org/2000/svg">
<path d="M16.0048 0C7.38077 0 0.381836 6.96843 0.381836 15.5541C0.381836 24.1432 7.38077 31.1109 16.0048 31.1109C19.6014 31.1109 22.913 29.8973 25.5541 27.8603V31.1072H27.9914V20.989C25.912 25.5168 21.3228 28.6725 16.0048 28.6725C8.7406 28.6725 2.8299 22.7878 2.8299 15.5541C2.8299 8.32156 8.7406 2.43727 16.0048 2.43727C23.2698 2.43727 29.1808 8.32156 29.1808 15.5541C29.1808 15.6438 29.1756 15.7327 29.1734 15.822H29.1808V31.1072H31.6177V16.113C31.6241 15.9284 31.6282 15.742 31.6282 15.5541C31.6282 6.96843 24.6292 0 16.0048 0Z" fill="#003DA6"/>
<path d="M16.0048 24.9948C10.7715 24.9948 6.5239 20.7635 6.5239 15.5537C6.5239 10.3451 10.7715 6.1153 16.0048 6.1153C21.2383 6.1153 25.4867 10.3451 25.4867 15.5537C25.4867 20.7635 21.2383 24.9948 16.0048 24.9948ZM16.0048 3.62073C9.39572 3.62073 4.01854 8.97373 4.01854 15.5537C4.01854 22.1349 9.39572 27.489 16.0048 27.489C22.6142 27.489 27.9914 22.1349 27.9914 15.5537C27.9914 8.97373 22.6142 3.62073 16.0048 3.62073Z" fill="#003DA6"/>
<path d="M73.4171 10.0466V3.18421H74.8688V10.0745C74.8688 12.8537 76.0977 14.1938 78.6109 14.1938V15.5194C75.2364 15.5235 73.4171 13.6558 73.4171 10.0466ZM70.5657 10.0745V3.18421H72.0182L72.0137 10.0745C72.0108 14.5301 74.4127 16.9027 78.6109 16.8636V18.1933C73.5845 18.1933 70.5657 15.3557 70.5657 10.0745ZM83.7968 14.0491C83.7968 17.6583 81.9779 19.5264 78.6027 19.5223V18.1963C81.1162 18.1963 82.3451 16.8565 82.3451 14.077V3.18123H83.7968V14.0491ZM86.6482 14.077C86.6482 19.3582 83.6298 22.1958 78.6027 22.1958V20.8657C82.8012 20.9048 85.2017 18.5322 85.1998 14.077L85.1961 3.18123H86.6482V14.077ZM40.9058 11.3279C40.9058 7.71871 42.6693 5.85253 46.3228 5.85513L50.2207 5.85811V7.1811H46.3228C43.5302 7.1811 42.3575 8.52084 42.3575 11.3V18.8604H40.9058V11.3279ZM38.0544 11.3C38.0544 6.0192 41.0174 3.18123 46.3228 3.18123H50.2207V4.53213L46.3228 4.51093C41.8452 4.48712 39.4998 6.8444 39.5024 11.3L39.5065 18.8604H38.0544V11.3ZM111.886 3.18421H113.338V18.8604H111.886V3.18421ZM109.038 3.18421H110.49V18.8604H109.038V3.18421ZM122.428 11.3279V18.8604H120.977V11.3C120.977 8.52084 119.803 7.18073 117.011 7.18073H114.677V5.85811L117.011 5.85513C120.666 5.85067 122.428 7.71871 122.428 11.3279ZM125.28 11.3V18.8604H123.828L123.832 11.3C123.834 6.8444 121.488 4.47112 117.011 4.51093L114.677 4.53213V3.18123H117.011C122.317 3.18123 125.28 6.0192 125.28 11.3ZM92.56 3.18421H94.0117V18.8604H92.56V3.18421ZM89.7112 3.18421H91.163V18.8604H89.7112V3.18421ZM103.103 11.3279V18.8604H101.65V11.3C101.65 8.52084 100.478 7.18073 97.6849 7.18073H95.3507V5.85811L97.6849 5.85513C101.339 5.85067 103.103 7.71871 103.103 11.3279ZM105.953 11.3V18.8604H104.501L104.506 11.3C104.508 6.8444 102.163 4.47112 97.6849 4.51093L95.3507 4.53213V3.18123H97.6849C102.991 3.18123 105.953 6.0192 105.953 11.3ZM55.6467 11.0221C55.6467 13.3515 57.2695 15.2999 59.609 15.2999C61.9491 15.2999 63.572 13.3515 63.572 11.0221C63.572 8.69273 61.9491 6.68852 59.609 6.68852C57.2695 6.68852 55.6467 8.69273 55.6467 11.0221ZM54.1309 11.0221C54.1309 7.9118 56.4808 5.34654 59.609 5.34654C62.7379 5.34654 65.0877 7.91106 65.0877 11.0221C65.0877 14.1339 62.7379 16.6422 59.609 16.6422C56.4841 16.6422 54.1309 14.1261 54.1309 11.0221ZM51.2264 11.0515C51.2264 6.39236 54.9275 2.67786 59.609 2.67786C64.2908 2.67786 67.9923 6.35925 67.9923 11.0221C67.9923 15.685 64.2908 19.3109 59.609 19.3109C58.1505 19.3109 56.787 18.9891 55.6009 18.312V22.1958H54.1488L54.1362 15.1998C55.3725 16.842 57.3313 17.9701 59.609 17.9701C63.5106 17.9701 66.4777 14.9055 66.4777 11.0221C66.4777 7.13869 63.5106 4.01908 59.609 4.01908C55.708 4.01908 52.7414 7.13869 52.7414 11.0221L52.7332 22.1958H51.2253L51.2264 11.0515Z" fill="#003DA6"/>
<path d="M37.9998 30.68V25H38.5518V29.912L42.0718 25H42.5918V30.68H42.0398V25.856L38.5598 30.68H37.9998Z" fill="#003DA6"/>
<path d="M51.8859 25V30.68H51.3339V28.024H47.9659V30.68H47.4059V25H47.9659V27.528H51.3339V25H51.8859Z" fill="#003DA6"/>
<path d="M56.1681 30.68L58.3761 27.752L56.3041 25H56.9601L58.8481 27.528H59.6241V25H60.1761V27.528H60.9441L62.8401 25H63.4961L61.4161 27.752L63.6241 30.68H62.9761L60.9601 28.04H60.1761V30.68H59.6241V28.04H58.8321L56.8161 30.68H56.1681Z" fill="#003DA6"/>
<path d="M67.9469 30.68V25H68.4989V29.912L72.0189 25H72.5389V30.68H71.9869V25.856L68.5069 30.68H67.9469Z" fill="#003DA6"/>
<path d="M81.8331 25V30.68H81.2811V28.024H77.9131V30.68H77.3531V25H77.9131V27.528H81.2811V25H81.8331Z" fill="#003DA6"/>
<path d="M86.6513 30.68V25H87.2033V29.912L90.7233 25H91.2433V30.68H90.6913V25.856L87.2113 30.68H86.6513Z" fill="#003DA6"/>
<path d="M96.0574 30.68V25H98.4094C98.6548 25 98.8788 25.0507 99.0814 25.152C99.2894 25.2533 99.4681 25.392 99.6174 25.568C99.7668 25.7387 99.8841 25.9307 99.9694 26.144C100.055 26.352 100.097 26.5653 100.097 26.784C100.097 27.0933 100.028 27.3867 99.8894 27.664C99.7561 27.936 99.5668 28.1573 99.3214 28.328C99.0761 28.4987 98.7881 28.584 98.4574 28.584H96.6174V30.68H96.0574ZM96.6174 28.088H98.4334C98.6574 28.088 98.8521 28.0267 99.0174 27.904C99.1828 27.7813 99.3108 27.6213 99.4014 27.424C99.4921 27.2267 99.5374 27.0133 99.5374 26.784C99.5374 26.5493 99.4841 26.3333 99.3774 26.136C99.2708 25.9387 99.1294 25.784 98.9534 25.672C98.7828 25.5547 98.5934 25.496 98.3854 25.496H96.6174V28.088Z" fill="#003DA6"/>
<path d="M104.426 30.68V25H104.978V29.912L108.498 25H109.018V30.68H108.466V25.856L104.986 30.68H104.426Z" fill="#003DA6"/>
<path d="M118.312 25V30.68H117.76V28.024H114.392V30.68H113.832V25H114.392V27.528H117.76V25H118.312Z" fill="#003DA6"/>
<path d="M123.098 30.68V25H126.322V25.496H123.658V30.68H123.098Z" fill="#003DA6"/>
</svg>
