<svg width="126" height="32" viewBox="0 0 126 32" fill="none" xmlns="http://www.w3.org/2000/svg">
<path d="M16.0048 0C7.38077 0 0.381836 6.96843 0.381836 15.5541C0.381836 24.1432 7.38077 31.1109 16.0048 31.1109C19.6014 31.1109 22.913 29.8973 25.5541 27.8603V31.1072H27.9914V20.989C25.912 25.5168 21.3228 28.6725 16.0048 28.6725C8.7406 28.6725 2.8299 22.7878 2.8299 15.5541C2.8299 8.32156 8.7406 2.43727 16.0048 2.43727C23.2698 2.43727 29.1808 8.32156 29.1808 15.5541C29.1808 15.6438 29.1756 15.7327 29.1734 15.822H29.1808V31.1072H31.6177V16.113C31.6241 15.9284 31.6282 15.742 31.6282 15.5541C31.6282 6.96843 24.6292 0 16.0048 0Z" fill="#E32629"/>
<path d="M16.0048 24.9948C10.7715 24.9948 6.5239 20.7635 6.5239 15.5537C6.5239 10.3451 10.7715 6.1153 16.0048 6.1153C21.2383 6.1153 25.4867 10.3451 25.4867 15.5537C25.4867 20.7635 21.2383 24.9948 16.0048 24.9948ZM16.0048 3.62073C9.39572 3.62073 4.01854 8.97373 4.01854 15.5537C4.01854 22.1349 9.39572 27.489 16.0048 27.489C22.6142 27.489 27.9914 22.1349 27.9914 15.5537C27.9914 8.97373 22.6142 3.62073 16.0048 3.62073Z" fill="#E32629"/>
<path d="M73.4171 10.0466V3.18421H74.8688V10.0745C74.8688 12.8537 76.0977 14.1938 78.6109 14.1938V15.5194C75.2364 15.5235 73.4171 13.6558 73.4171 10.0466ZM70.5657 10.0745V3.18421H72.0182L72.0137 10.0745C72.0108 14.5301 74.4127 16.9027 78.6109 16.8636V18.1933C73.5845 18.1933 70.5657 15.3557 70.5657 10.0745ZM83.7968 14.0491C83.7968 17.6583 81.9779 19.5264 78.6027 19.5223V18.1963C81.1162 18.1963 82.3451 16.8565 82.3451 14.077V3.18123H83.7968V14.0491ZM86.6482 14.077C86.6482 19.3582 83.6298 22.1958 78.6027 22.1958V20.8657C82.8012 20.9048 85.2017 18.5322 85.1998 14.077L85.1961 3.18123H86.6482V14.077ZM40.9058 11.3279C40.9058 7.71871 42.6693 5.85253 46.3228 5.85513L50.2207 5.85811V7.1811H46.3228C43.5302 7.1811 42.3575 8.52084 42.3575 11.3V18.8604H40.9058V11.3279ZM38.0544 11.3C38.0544 6.0192 41.0174 3.18123 46.3228 3.18123H50.2207V4.53213L46.3228 4.51093C41.8452 4.48712 39.4998 6.8444 39.5024 11.3L39.5065 18.8604H38.0544V11.3ZM111.886 3.18421H113.338V18.8604H111.886V3.18421ZM109.038 3.18421H110.49V18.8604H109.038V3.18421ZM122.428 11.3279V18.8604H120.977V11.3C120.977 8.52084 119.803 7.18073 117.011 7.18073H114.677V5.85811L117.011 5.85513C120.666 5.85067 122.428 7.71871 122.428 11.3279ZM125.28 11.3V18.8604H123.828L123.832 11.3C123.834 6.8444 121.488 4.47112 117.011 4.51093L114.677 4.53213V3.18123H117.011C122.317 3.18123 125.28 6.0192 125.28 11.3ZM92.56 3.18421H94.0117V18.8604H92.56V3.18421ZM89.7112 3.18421H91.163V18.8604H89.7112V3.18421ZM103.103 11.3279V18.8604H101.65V11.3C101.65 8.52084 100.478 7.18073 97.6849 7.18073H95.3507V5.85811L97.6849 5.85513C101.339 5.85067 103.103 7.71871 103.103 11.3279ZM105.953 11.3V18.8604H104.501L104.506 11.3C104.508 6.8444 102.163 4.47112 97.6849 4.51093L95.3507 4.53213V3.18123H97.6849C102.991 3.18123 105.953 6.0192 105.953 11.3ZM55.6467 11.0221C55.6467 13.3515 57.2695 15.2999 59.609 15.2999C61.9491 15.2999 63.572 13.3515 63.572 11.0221C63.572 8.69273 61.9491 6.68852 59.609 6.68852C57.2695 6.68852 55.6467 8.69273 55.6467 11.0221ZM54.1309 11.0221C54.1309 7.9118 56.4808 5.34654 59.609 5.34654C62.7379 5.34654 65.0877 7.91106 65.0877 11.0221C65.0877 14.1339 62.7379 16.6422 59.609 16.6422C56.4841 16.6422 54.1309 14.1261 54.1309 11.0221ZM51.2264 11.0515C51.2264 6.39236 54.9275 2.67786 59.609 2.67786C64.2908 2.67786 67.9923 6.35925 67.9923 11.0221C67.9923 15.685 64.2908 19.3109 59.609 19.3109C58.1505 19.3109 56.787 18.9891 55.6009 18.312V22.1958H54.1488L54.1362 15.1998C55.3725 16.842 57.3313 17.9701 59.609 17.9701C63.5106 17.9701 66.4777 14.9055 66.4777 11.0221C66.4777 7.13869 63.5106 4.01908 59.609 4.01908C55.708 4.01908 52.7414 7.13869 52.7414 11.0221L52.7332 22.1958H51.2253L51.2264 11.0515Z" fill="#E32629"/>
<g opacity="0.99">
<g opacity="0.99">
<path opacity="0.99" d="M41.8553 29.5392C41.5375 29.9831 40.9065 30.2773 40.222 30.2773C38.8953 30.2773 38.0544 29.4306 38.0544 28.1224C38.0544 26.9155 38.8767 25.9661 40.1803 25.9661C40.9371 25.9661 41.513 26.2849 41.7954 26.6637L41.4404 27.0056C41.1171 26.6808 40.7443 26.4892 40.1918 26.4892C39.213 26.4892 38.6244 27.1611 38.6244 28.1224C38.6244 29.1069 39.2796 29.7554 40.2584 29.7554C40.84 29.7554 41.2548 29.515 41.5431 29.191L41.8553 29.5392Z" fill="#E32629"/>
</g>
</g>
<g opacity="0.99">
<g opacity="0.99">
<path opacity="0.99" d="M43.0648 26.0211H46.0914V26.5316H43.6113V27.8401H45.9232V28.3386H43.6113V29.7133H46.1461V30.2238H43.0648V26.0211Z" fill="#E32629"/>
</g>
</g>
<g opacity="0.99">
<g opacity="0.99">
<path opacity="0.99" d="M47.1143 26.0211H50.5858V26.5316H49.12V30.2238H48.5742V26.5316H47.1143V26.0211Z" fill="#E32629"/>
</g>
</g>
<g opacity="0.99">
<g opacity="0.99">
<path opacity="0.99" d="M52.2394 27.5819H53.3384C54.4735 27.5819 55.032 28.0503 55.032 28.8669C55.032 29.7613 54.3827 30.2238 53.2848 30.2238H51.6928V26.0211H52.2394V27.5819ZM52.2394 28.0923V29.7133H53.3023C54.0472 29.7133 54.4609 29.438 54.4609 28.8669C54.4609 28.3505 54.0531 28.0923 53.3209 28.0923H52.2394Z" fill="#E32629"/>
</g>
</g>
<g opacity="0.99">
<g opacity="0.99">
<path opacity="0.99" d="M58.7331 26.0211H59.2376L60.8355 28.1344L62.3784 26.0211H62.8706V30.2238H62.3248V26.9639L60.8891 28.897H60.757L59.2796 26.9639V30.2238H58.7331V26.0211Z" fill="#E32629"/>
</g>
</g>
<g opacity="0.99">
<g opacity="0.99">
<path opacity="0.99" d="M64.5061 26.0211H67.5327V26.5316H65.0526V27.8401H67.3645V28.3386H65.0526V29.7133H67.5874V30.2238H64.5061V26.0211Z" fill="#E32629"/>
</g>
</g>
<g opacity="0.99">
<g opacity="0.99">
<path opacity="0.99" d="M68.6514 26.0211H72.123V26.5316H70.6571V30.2238H70.1113V26.5316H68.6514V26.0211Z" fill="#E32629"/>
</g>
</g>
<g opacity="0.99">
<g opacity="0.99">
<path opacity="0.99" d="M74.1423 26.0085H74.5747L76.4189 30.2238H75.8478L75.3794 29.1613H73.3201L72.8577 30.2238H72.2992L74.1423 26.0085ZM73.5244 28.681H75.1759L74.3466 26.7712L73.5244 28.681Z" fill="#E32629"/>
</g>
</g>
<g opacity="0.99">
<g opacity="0.99">
<path opacity="0.99" d="M80.3065 26.5317H78.4928V26.7899C78.4928 29.6959 77.8863 30.2358 77.2918 30.2358C77.2137 30.2358 77.1236 30.2298 77.0396 30.2239V29.6959C77.4905 29.7614 77.947 29.4731 77.947 26.7058V26.0212H80.853V30.2239H80.3065V26.5317Z" fill="#E32629"/>
</g>
</g>
<g opacity="0.99">
<g opacity="0.99">
<path opacity="0.99" d="M85.2802 26.5316H83.4661V26.7898C83.4661 29.6958 82.8596 30.2357 82.2651 30.2357C82.1873 30.2357 82.0969 30.2297 82.0128 30.2238V29.6958C82.4638 29.7613 82.9203 29.473 82.9203 26.7057V26.0211H85.8267V30.2238H85.2802V26.5316Z" fill="#E32629"/>
</g>
</g>
<g opacity="0.99">
<g opacity="0.99">
<path opacity="0.99" d="M89.3723 25.9666C90.5558 25.9666 91.5037 26.8673 91.5037 28.1229C91.5037 29.36 90.5558 30.2778 89.3723 30.2778C88.1832 30.2778 87.2349 29.3775 87.2349 28.1229C87.2349 26.9034 88.1713 25.9666 89.3723 25.9666ZM89.3723 29.7558C90.2555 29.7558 90.9338 29.0772 90.9338 28.1229C90.9338 27.1616 90.2135 26.4896 89.3723 26.4896C88.5136 26.4896 87.8049 27.1616 87.8049 28.1229C87.8049 29.0772 88.5195 29.7558 89.3723 29.7558Z" fill="#E32629"/>
</g>
</g>
<g opacity="0.99">
<g opacity="0.99">
<path opacity="0.99" d="M92.9112 26.0211H93.4581V29.7133H95.8001V26.0211H96.3463V29.7133H96.8805V30.9924H96.3585V30.2238H92.9112V26.0211Z" fill="#E32629"/>
</g>
</g>
<g opacity="0.99">
<g opacity="0.99">
<path opacity="0.99" d="M98.1333 26.0211H101.16V26.5316H98.6798V27.8401H100.991V28.3386H98.6798V29.7133H101.214V30.2238H98.1333V26.0211Z" fill="#E32629"/>
</g>
</g>
<g opacity="0.99">
<g opacity="0.99">
<path opacity="0.99" d="M105.756 28.3446H103.251V30.2238H102.705V26.0211H103.251V27.8341H105.756V26.0211H106.302V30.2238H105.756V28.3446Z" fill="#E32629"/>
</g>
</g>
<g opacity="0.99">
<g opacity="0.99">
<path opacity="0.99" d="M107.512 26.0211H110.983V26.5316H109.517V30.2238H108.972V26.5316H107.512V26.0211Z" fill="#E32629"/>
</g>
</g>
<g opacity="0.99">
<g opacity="0.99">
<path opacity="0.99" d="M112.186 30.2238V26.0211H113.82C115.225 26.0211 115.543 26.6986 115.543 27.3423C115.543 28.0198 115.099 28.6749 113.814 28.6749H112.732V30.2238H112.186ZM112.732 26.5316V28.1704H113.801C114.625 28.1704 114.978 27.8341 114.978 27.3356C114.978 26.8668 114.678 26.5316 113.843 26.5316H112.732Z" fill="#E32629"/>
</g>
</g>
<g opacity="0.99">
<g opacity="0.99">
<path opacity="0.99" d="M118.745 25.9666C119.929 25.9666 120.877 26.8673 120.877 28.1229C120.877 29.36 119.929 30.2778 118.745 30.2778C117.556 30.2778 116.608 29.3775 116.608 28.1229C116.608 26.9034 117.544 25.9666 118.745 25.9666ZM118.745 29.7558C119.628 29.7558 120.307 29.0772 120.307 28.1229C120.307 27.1616 119.586 26.4896 118.745 26.4896C117.887 26.4896 117.178 27.1616 117.178 28.1229C117.178 29.0772 117.893 29.7558 118.745 29.7558Z" fill="#E32629"/>
</g>
</g>
<g opacity="0.99">
<g opacity="0.99">
<path opacity="0.99" d="M122.285 26.0211H123.985C125.126 26.0211 125.468 26.4594 125.468 27.0655C125.468 27.5283 125.246 27.8646 124.874 28.0268C125.331 28.1228 125.618 28.4707 125.618 29.0232C125.618 29.8759 124.958 30.2241 123.955 30.2241H122.285V26.0211ZM122.832 26.5316V27.8282H124.027C124.562 27.8282 124.91 27.5878 124.91 27.1801C124.91 26.7477 124.669 26.5316 123.937 26.5316H122.832ZM122.832 28.3271V29.7137H123.949C124.711 29.7137 125.054 29.4916 125.054 28.993C125.054 28.5492 124.736 28.3271 124.009 28.3271H122.832Z" fill="#E32629"/>
</g>
</g>
</svg>
