<svg width="126" height="32" viewBox="0 0 126 32" fill="none" xmlns="http://www.w3.org/2000/svg">
<path d="M16.0048 0C7.38077 0 0.381836 6.96843 0.381836 15.5541C0.381836 24.1432 7.38077 31.1109 16.0048 31.1109C19.6014 31.1109 22.913 29.8973 25.5541 27.8603V31.1072H27.9914V20.989C25.912 25.5168 21.3228 28.6725 16.0048 28.6725C8.7406 28.6725 2.8299 22.7878 2.8299 15.5541C2.8299 8.32156 8.7406 2.43727 16.0048 2.43727C23.2698 2.43727 29.1808 8.32156 29.1808 15.5541C29.1808 15.6438 29.1756 15.7327 29.1734 15.822H29.1808V31.1072H31.6177V16.113C31.6241 15.9284 31.6282 15.742 31.6282 15.5541C31.6282 6.96843 24.6292 0 16.0048 0Z" fill="#4A4C54"/>
<path d="M16.0048 24.9948C10.7715 24.9948 6.5239 20.7635 6.5239 15.5537C6.5239 10.3451 10.7715 6.1153 16.0048 6.1153C21.2383 6.1153 25.4867 10.3451 25.4867 15.5537C25.4867 20.7635 21.2383 24.9948 16.0048 24.9948ZM16.0048 3.62073C9.39572 3.62073 4.01854 8.97373 4.01854 15.5537C4.01854 22.1349 9.39572 27.489 16.0048 27.489C22.6142 27.489 27.9914 22.1349 27.9914 15.5537C27.9914 8.97373 22.6142 3.62073 16.0048 3.62073Z" fill="#4A4C54"/>
<path d="M73.4171 10.0466V3.18421H74.8688V10.0745C74.8688 12.8537 76.0977 14.1938 78.6109 14.1938V15.5194C75.2364 15.5235 73.4171 13.6558 73.4171 10.0466ZM70.5657 10.0745V3.18421H72.0182L72.0137 10.0745C72.0108 14.5301 74.4127 16.9027 78.6109 16.8636V18.1933C73.5845 18.1933 70.5657 15.3557 70.5657 10.0745ZM83.7968 14.0491C83.7968 17.6583 81.9779 19.5264 78.6027 19.5223V18.1963C81.1162 18.1963 82.3451 16.8565 82.3451 14.077V3.18123H83.7968V14.0491ZM86.6482 14.077C86.6482 19.3582 83.6298 22.1958 78.6027 22.1958V20.8657C82.8012 20.9048 85.2017 18.5322 85.1998 14.077L85.1961 3.18123H86.6482V14.077ZM40.9058 11.3279C40.9058 7.71871 42.6693 5.85253 46.3228 5.85513L50.2207 5.85811V7.1811H46.3228C43.5302 7.1811 42.3575 8.52084 42.3575 11.3V18.8604H40.9058V11.3279ZM38.0544 11.3C38.0544 6.0192 41.0174 3.18123 46.3228 3.18123H50.2207V4.53213L46.3228 4.51093C41.8452 4.48712 39.4998 6.8444 39.5024 11.3L39.5065 18.8604H38.0544V11.3ZM111.886 3.18421H113.338V18.8604H111.886V3.18421ZM109.038 3.18421H110.49V18.8604H109.038V3.18421ZM122.428 11.3279V18.8604H120.977V11.3C120.977 8.52084 119.803 7.18073 117.011 7.18073H114.677V5.85811L117.011 5.85513C120.666 5.85067 122.428 7.71871 122.428 11.3279ZM125.28 11.3V18.8604H123.828L123.832 11.3C123.834 6.8444 121.488 4.47112 117.011 4.51093L114.677 4.53213V3.18123H117.011C122.317 3.18123 125.28 6.0192 125.28 11.3ZM92.56 3.18421H94.0117V18.8604H92.56V3.18421ZM89.7112 3.18421H91.163V18.8604H89.7112V3.18421ZM103.103 11.3279V18.8604H101.65V11.3C101.65 8.52084 100.478 7.18073 97.6849 7.18073H95.3507V5.85811L97.6849 5.85513C101.339 5.85067 103.103 7.71871 103.103 11.3279ZM105.953 11.3V18.8604H104.501L104.506 11.3C104.508 6.8444 102.163 4.47112 97.6849 4.51093L95.3507 4.53213V3.18123H97.6849C102.991 3.18123 105.953 6.0192 105.953 11.3ZM55.6467 11.0221C55.6467 13.3515 57.2695 15.2999 59.609 15.2999C61.9491 15.2999 63.572 13.3515 63.572 11.0221C63.572 8.69273 61.9491 6.68852 59.609 6.68852C57.2695 6.68852 55.6467 8.69273 55.6467 11.0221ZM54.1309 11.0221C54.1309 7.9118 56.4808 5.34654 59.609 5.34654C62.7379 5.34654 65.0877 7.91106 65.0877 11.0221C65.0877 14.1339 62.7379 16.6422 59.609 16.6422C56.4841 16.6422 54.1309 14.1261 54.1309 11.0221ZM51.2264 11.0515C51.2264 6.39236 54.9275 2.67786 59.609 2.67786C64.2908 2.67786 67.9923 6.35925 67.9923 11.0221C67.9923 15.685 64.2908 19.3109 59.609 19.3109C58.1505 19.3109 56.787 18.9891 55.6009 18.312V22.1958H54.1488L54.1362 15.1998C55.3725 16.842 57.3313 17.9701 59.609 17.9701C63.5106 17.9701 66.4777 14.9055 66.4777 11.0221C66.4777 7.13869 63.5106 4.01908 59.609 4.01908C55.708 4.01908 52.7414 7.13869 52.7414 11.0221L52.7332 22.1958H51.2253L51.2264 11.0515Z" fill="#4A4C54"/>
<path d="M37.9998 28.0882C37.9998 27.8333 38.0472 27.5843 38.1422 27.3412C38.2414 27.0941 38.3838 26.8706 38.5694 26.6706C38.7549 26.4667 38.9836 26.3059 39.2555 26.1882C39.5274 26.0667 39.8359 26.0059 40.1811 26.0059C40.5911 26.0059 40.9406 26.0922 41.2298 26.2647C41.5232 26.4333 41.739 26.651 41.8771 26.9176L41.521 27.1176C41.4218 26.9333 41.2966 26.7882 41.1456 26.6824C40.9946 26.5725 40.8328 26.4941 40.6601 26.4471C40.4918 26.4 40.3235 26.3765 40.1552 26.3765C39.8791 26.3765 39.6353 26.4275 39.4238 26.5294C39.2124 26.6275 39.0333 26.7608 38.8866 26.9294C38.7441 27.0941 38.6363 27.2804 38.5629 27.4882C38.4895 27.6922 38.4529 27.9 38.4529 28.1118C38.4529 28.3431 38.496 28.5647 38.5823 28.7765C38.6686 28.9882 38.7895 29.1765 38.9448 29.3412C39.1002 29.502 39.2814 29.6314 39.4885 29.7294C39.7 29.8235 39.9287 29.8706 40.1747 29.8706C40.3473 29.8706 40.5242 29.8431 40.7054 29.7882C40.8867 29.7333 41.055 29.649 41.2103 29.5353C41.37 29.4216 41.4973 29.2745 41.5922 29.0941L41.9677 29.2706C41.8727 29.4784 41.726 29.6549 41.5275 29.8C41.329 29.9451 41.1068 30.0549 40.8608 30.1294C40.6191 30.2039 40.3818 30.2412 40.1488 30.2412C39.8338 30.2412 39.5446 30.1804 39.2814 30.0588C39.0182 29.9333 38.7895 29.7686 38.5953 29.5647C38.4054 29.3569 38.2587 29.1255 38.1551 28.8706C38.0515 28.6118 37.9998 28.351 37.9998 28.0882Z" fill="#4A4C54"/>
<path d="M46.1207 26.3941H44.483V30.2059H44.0299V26.3941H42.3923V26.0294H46.1207V26.3941Z" fill="#4A4C54"/>
<path d="M47.9264 26.0294H48.3083L50.2179 30.2059H49.7389L49.1433 28.9H47.0785L46.4894 30.2059H46.004L47.9264 26.0294ZM49.0398 28.5765L48.1141 26.5118L47.1756 28.5765H49.0398Z" fill="#4A4C54"/>
<path d="M54.1132 30.2059V26.3941H52.236L52.2101 27.2765C52.1885 27.8529 52.1432 28.3314 52.0742 28.7118C52.0051 29.0922 51.908 29.3922 51.7829 29.6118C51.6577 29.8275 51.5046 29.9824 51.3233 30.0765C51.1421 30.1667 50.9263 30.2118 50.676 30.2118V29.8471C50.8443 29.8471 50.9932 29.8078 51.1227 29.7294C51.2521 29.651 51.3622 29.5137 51.4528 29.3176C51.5434 29.1216 51.6146 28.851 51.6664 28.5059C51.7225 28.1569 51.7592 27.7157 51.7764 27.1824L51.8153 26.0294H54.5598V30.2059H54.1132Z" fill="#4A4C54"/>
<path d="M55.8386 30.2059V26.0294H56.2917V27.6529H57.4568C57.7891 27.6529 58.0653 27.7059 58.2854 27.8118C58.5055 27.9176 58.6694 28.0667 58.7773 28.2588C58.8895 28.451 58.9456 28.6745 58.9456 28.9294C58.9456 29.1608 58.8917 29.3745 58.7838 29.5706C58.6759 29.7667 58.5141 29.9216 58.2983 30.0353C58.0826 30.149 57.8129 30.2059 57.4892 30.2059H55.8386ZM56.2917 29.8588H57.4309C57.6855 29.8588 57.8905 29.8157 58.0459 29.7294C58.2012 29.6392 58.3134 29.5235 58.3825 29.3824C58.4558 29.2373 58.4925 29.0863 58.4925 28.9294C58.4925 28.7647 58.4601 28.6118 58.3954 28.4706C58.3307 28.3294 58.2206 28.2157 58.0653 28.1294C57.9099 28.0431 57.6963 28 57.4245 28H56.2917V29.8588Z" fill="#4A4C54"/>
<path d="M63.5437 26.0294V30.2059H63.0971V28.2529H60.3719V30.2059H59.9188V26.0294H60.3719V27.8882H63.0971V26.0294H63.5437Z" fill="#4A4C54"/>
<path d="M64.8272 30.2059V26.0294H65.2803V27.6529H66.4454C66.7777 27.6529 67.0538 27.7059 67.2739 27.8118C67.494 27.9176 67.658 28.0667 67.7659 28.2588C67.8781 28.451 67.9342 28.6745 67.9342 28.9294C67.9342 29.1608 67.8802 29.3745 67.7723 29.5706C67.6645 29.7667 67.5026 29.9216 67.2869 30.0353C67.0711 30.149 66.8014 30.2059 66.4778 30.2059H64.8272ZM65.2803 29.8588H66.4195C66.6741 29.8588 66.8791 29.8157 67.0344 29.7294C67.1898 29.6392 67.302 29.5235 67.371 29.3824C67.4444 29.2373 67.4811 29.0863 67.4811 28.9294C67.4811 28.7647 67.4487 28.6118 67.384 28.4706C67.3192 28.3294 67.2092 28.2157 67.0538 28.1294C66.8985 28.0431 66.6849 28 66.413 28H65.2803V29.8588ZM68.7368 30.2059V26.0353H69.1834V30.2059H68.7368Z" fill="#4A4C54"/>
<path d="M73.55 29.8412V30.2059H70.4624V26.0294H73.4918V26.3941H70.9155V27.9H73.1616V28.2471H70.9155V29.8412H73.55Z" fill="#4A4C54"/>
<path d="M76.3156 30.2059V26.0294H76.7687V27.8882H77.4613L79.0407 26.0294H79.565L77.8368 28.0529L79.6751 30.2059H79.1184L77.4743 28.2647H76.7687V30.2059H76.3156Z" fill="#4A4C54"/>
<path d="M82.146 30.2353C81.8223 30.2353 81.5289 30.1765 81.2657 30.0588C81.0024 29.9412 80.7759 29.7824 80.586 29.5824C80.3961 29.3784 80.2494 29.151 80.1458 28.9C80.0423 28.6451 79.9905 28.3843 79.9905 28.1176C79.9905 27.8392 80.0444 27.5745 80.1523 27.3235C80.2602 27.0686 80.4112 26.8431 80.6054 26.6471C80.8039 26.4471 81.0348 26.2902 81.298 26.1765C81.5613 26.0588 81.8461 26 82.1525 26C82.4761 26 82.7696 26.0608 83.0328 26.1824C83.296 26.3039 83.5204 26.4667 83.706 26.6706C83.8958 26.8745 84.0426 27.102 84.1461 27.3529C84.2497 27.6039 84.3015 27.8608 84.3015 28.1235C84.3015 28.402 84.2475 28.6686 84.1397 28.9235C84.0318 29.1745 83.8807 29.4 83.6866 29.6C83.4924 29.7961 83.2637 29.951 83.0004 30.0647C82.7372 30.1784 82.4524 30.2353 82.146 30.2353ZM80.4436 28.1176C80.4436 28.3451 80.4846 28.5647 80.5666 28.7765C80.6486 28.9843 80.7651 29.1706 80.9161 29.3353C81.0672 29.4961 81.2463 29.6255 81.4534 29.7235C81.6648 29.8176 81.8957 29.8647 82.146 29.8647C82.4092 29.8647 82.6444 29.8157 82.8515 29.7176C83.063 29.6157 83.2421 29.4824 83.3888 29.3176C83.5398 29.149 83.6542 28.9608 83.7319 28.7529C83.8095 28.5451 83.8484 28.3333 83.8484 28.1176C83.8484 27.8902 83.8074 27.6725 83.7254 27.4647C83.6434 27.2569 83.5247 27.0706 83.3694 26.9059C83.2183 26.7412 83.0393 26.6118 82.8321 26.5176C82.625 26.4235 82.3963 26.3765 82.146 26.3765C81.8871 26.3765 81.6519 26.4255 81.4404 26.5235C81.2333 26.6216 81.0542 26.7549 80.9032 26.9235C80.7565 27.0882 80.6421 27.2745 80.5601 27.4824C80.4824 27.6902 80.4436 27.902 80.4436 28.1176Z" fill="#4A4C54"/>
<path d="M88.9101 26.0294V30.2059H88.4634V28.2529H85.7383V30.2059H85.2852V26.0294H85.7383V27.8882H88.4634V26.0294H88.9101Z" fill="#4A4C54"/>
<path d="M89.8893 28.0882C89.8893 27.8333 89.9368 27.5843 90.0317 27.3412C90.131 27.0941 90.2734 26.8706 90.4589 26.6706C90.6445 26.4667 90.8732 26.3059 91.1451 26.1882C91.4169 26.0667 91.7255 26.0059 92.0707 26.0059C92.4806 26.0059 92.8302 26.0922 93.1193 26.2647C93.4127 26.4333 93.6285 26.651 93.7666 26.9176L93.4106 27.1176C93.3113 26.9333 93.1862 26.7882 93.0352 26.6824C92.8841 26.5725 92.7223 26.4941 92.5497 26.4471C92.3814 26.4 92.2131 26.3765 92.0448 26.3765C91.7686 26.3765 91.5248 26.4275 91.3134 26.5294C91.1019 26.6275 90.9228 26.7608 90.7761 26.9294C90.6337 27.0941 90.5258 27.2804 90.4525 27.4882C90.3791 27.6922 90.3424 27.9 90.3424 28.1118C90.3424 28.3431 90.3856 28.5647 90.4719 28.7765C90.5582 28.9882 90.679 29.1765 90.8344 29.3412C90.9897 29.502 91.171 29.6314 91.3781 29.7294C91.5895 29.8235 91.8182 29.8706 92.0642 29.8706C92.2368 29.8706 92.4138 29.8431 92.595 29.7882C92.7762 29.7333 92.9445 29.649 93.0999 29.5353C93.2596 29.4216 93.3869 29.2745 93.4818 29.0941L93.8572 29.2706C93.7623 29.4784 93.6156 29.6549 93.4171 29.8C93.2186 29.9451 92.9963 30.0549 92.7504 30.1294C92.5087 30.2039 92.2714 30.2412 92.0383 30.2412C91.7233 30.2412 91.4342 30.1804 91.171 30.0588C90.9077 29.9333 90.679 29.7686 90.4848 29.5647C90.2949 29.3569 90.1482 29.1255 90.0447 28.8706C89.9411 28.6118 89.8893 28.351 89.8893 28.0882Z" fill="#4A4C54"/>
<path d="M98.0102 26.3941H96.3726V30.2059H95.9195V26.3941H94.2818V26.0294H98.0102V26.3941Z" fill="#4A4C54"/>
<path d="M98.8281 30.2059V26.0294H100.731C100.93 26.0294 101.111 26.0667 101.275 26.1412C101.443 26.2157 101.588 26.3176 101.709 26.4471C101.829 26.5725 101.924 26.7137 101.993 26.8706C102.062 27.0235 102.097 27.1804 102.097 27.3412C102.097 27.5686 102.041 27.7843 101.929 27.9882C101.821 28.1882 101.668 28.351 101.469 28.4765C101.271 28.602 101.038 28.6647 100.77 28.6647H99.2812V30.2059H98.8281ZM99.2812 28.3H100.751C100.932 28.3 101.089 28.2549 101.223 28.1647C101.357 28.0745 101.46 27.9569 101.534 27.8118C101.607 27.6667 101.644 27.5098 101.644 27.3412C101.644 27.1686 101.601 27.0098 101.514 26.8647C101.428 26.7196 101.314 26.6059 101.171 26.5235C101.033 26.4373 100.88 26.3941 100.712 26.3941H99.2812V28.3Z" fill="#4A4C54"/>
<path d="M103.489 30.2176V29.8706H103.78C103.88 29.8706 103.953 29.8451 104 29.7941C104.052 29.7431 104.108 29.6667 104.169 29.5647L104.369 29.1824L102.408 26.0294H102.907L104.577 28.7647L105.968 26.0294H106.441L104.518 29.7647C104.432 29.9255 104.343 30.0412 104.253 30.1118C104.162 30.1824 104.035 30.2176 103.871 30.2176H103.489Z" fill="#4A4C54"/>
<path d="M107.102 30.2059V26.0294H107.555V27.8882H108.248L109.827 26.0294H110.352L108.623 28.0529L110.462 30.2059H109.905L108.261 28.2647H107.555V30.2059H107.102Z" fill="#4A4C54"/>
<path d="M114.836 31V30.2059H111.334V26.0294H111.787V29.8412H114.234V26.0294H114.681V29.8412H115.237V31H114.836Z" fill="#4A4C54"/>
<path d="M116.237 30.2059V26.0294H116.684V29.6412L119.532 26.0294H119.952V30.2059H119.506V26.6588L116.69 30.2059H116.237Z" fill="#4A4C54"/>
<path d="M121.284 30.2059V26.0294H121.731V29.6412L124.579 26.0294H125V30.2059H124.553V26.6588L121.737 30.2059H121.284Z" fill="#4A4C54"/>
</svg>
