<svg width="11" height="11" viewBox="0 0 11 11" fill="none" xmlns="http://www.w3.org/2000/svg">
<g clip-path="url(#clip0_2_31)">
<path d="M2.8387 5.56178C2.85275 5.6966 2.90796 5.82383 2.99684 5.92617L6.95684 10.5462C7.0089 10.6232 7.07664 10.6884 7.15563 10.7374C7.23463 10.7864 7.32309 10.8182 7.41522 10.8307C7.50736 10.8432 7.60109 10.836 7.69027 10.8098C7.77946 10.7835 7.86209 10.7387 7.93275 10.6782C8.00341 10.6178 8.06051 10.5431 8.1003 10.4591C8.1401 10.3751 8.16169 10.2836 8.16367 10.1907C8.16565 10.0977 8.14797 10.0054 8.11178 9.91973C8.0756 9.83408 8.02173 9.75705 7.95371 9.69367L4.35809 5.49992L7.95371 1.30617C8.02173 1.24279 8.0756 1.16575 8.11178 1.0801C8.14797 0.994457 8.16565 0.902139 8.16367 0.809184C8.16169 0.71623 8.1401 0.624739 8.1003 0.54071C8.06051 0.456682 8.00341 0.382024 7.93275 0.321597C7.86209 0.261169 7.77946 0.216331 7.69028 0.190059C7.60109 0.163786 7.50736 0.156669 7.41522 0.169138C7.32309 0.181608 7.23463 0.213399 7.15564 0.262434C7.07664 0.311469 7.0089 0.376635 6.95684 0.453671L2.99684 5.07367C2.93923 5.14036 2.89556 5.2179 2.8684 5.30173C2.84124 5.38556 2.83114 5.47399 2.8387 5.56178Z" fill="#333333"/>
</g>
<defs>
<clipPath id="clip0_2_31">
<rect width="11" height="11" fill="white" transform="translate(11 11) rotate(-180)"/>
</clipPath>
</defs>
</svg>
