<svg width="20" height="20" viewBox="0 0 20 20" fill="none" xmlns="http://www.w3.org/2000/svg">
<path d="M5 0C4.3125 0 3.75 0.5625 3.75 1.25V18.75C3.75 19.4375 4.3125 20 5 20H17.5C18.1875 20 18.75 19.4375 18.75 18.75V5L13.75 0H5Z" fill="#E2E5E7"/>
<path d="M15 5H18.75L13.75 0V3.75C13.75 4.4375 14.3125 5 15 5Z" fill="#B0B7BD"/>
<path d="M18.75 8.75L15 5H18.75V8.75Z" fill="#CAD1D8"/>
<path d="M16.25 16.25C16.25 16.5938 15.9688 16.875 15.625 16.875H1.875C1.53125 16.875 1.25 16.5938 1.25 16.25V10C1.25 9.65625 1.53125 9.375 1.875 9.375H15.625C15.9688 9.375 16.25 9.65625 16.25 10V16.25Z" fill="#F15642"/>
<path d="M3.97449 11.8421C3.97449 11.6771 4.10449 11.4971 4.31386 11.4971H5.46824C6.11824 11.4971 6.70324 11.9321 6.70324 12.7658C6.70324 13.5558 6.11824 13.9958 5.46824 13.9958H4.63386V14.6558C4.63386 14.8758 4.49386 15.0002 4.31386 15.0002C4.14886 15.0002 3.97449 14.8758 3.97449 14.6558V11.8421ZM4.63386 12.1264V13.3714H5.46824C5.80324 13.3714 6.06824 13.0758 6.06824 12.7658C6.06824 12.4164 5.80324 12.1264 5.46824 12.1264H4.63386Z" fill="white"/>
<path d="M7.68191 15.0003C7.51691 15.0003 7.33691 14.9103 7.33691 14.6909V11.8522C7.33691 11.6728 7.51691 11.5422 7.68191 11.5422H8.82629C11.11 11.5422 11.06 15.0003 8.87129 15.0003H7.68191ZM7.99691 12.1522V14.3909H8.82629C10.1757 14.3909 10.2357 12.1522 8.82629 12.1522H7.99691Z" fill="white"/>
<path d="M11.87 12.1918V12.9862H13.1444C13.3244 12.9862 13.5044 13.1662 13.5044 13.3406C13.5044 13.5056 13.3244 13.6406 13.1444 13.6406H11.87V14.6899C11.87 14.8649 11.7456 14.9993 11.5706 14.9993C11.3506 14.9993 11.2162 14.8649 11.2162 14.6899V11.8512C11.2162 11.6718 11.3512 11.5412 11.5706 11.5412H13.325C13.545 11.5412 13.675 11.6718 13.675 11.8512C13.675 12.0112 13.545 12.1912 13.325 12.1912H11.87V12.1918Z" fill="white"/>
<path d="M15.625 16.875H3.75V17.5H15.625C15.9688 17.5 16.25 17.2188 16.25 16.875V16.25C16.25 16.5938 15.9688 16.875 15.625 16.875Z" fill="#CAD1D8"/>
</svg>
