<svg width="20" height="20" viewBox="0 0 20 20" fill="none" xmlns="http://www.w3.org/2000/svg">
<path d="M19.4444 2.22223H10.5555V17.7778H19.4444C19.7517 17.7778 20 17.5295 20 17.2222V2.77778C20 2.47056 19.7517 2.22223 19.4444 2.22223Z" fill="#4CAF50"/>
<path d="M14.4444 5H18.3333V6.66667H14.4444V5ZM14.4444 10.5556H18.3333V12.2222H14.4444V10.5556ZM14.4444 13.3333H18.3333V15H14.4444V13.3333ZM14.4444 7.77778H18.3333V9.44444H14.4444V7.77778ZM10.5555 5H13.3333V6.66667H10.5555V5ZM10.5555 10.5556H13.3333V12.2222H10.5555V10.5556ZM10.5555 13.3333H13.3333V15H10.5555V13.3333ZM10.5555 7.77778H13.3333V9.44444H10.5555V7.77778Z" fill="white"/>
<path d="M11.6667 20L0 17.7778V2.22222L11.6667 0V20Z" fill="#2E7D32"/>
<path d="M7.29388 13.8889L5.95444 11.355C5.90332 11.26 5.8511 11.0866 5.79666 10.8339H5.7761C5.75055 10.9533 5.69055 11.1344 5.5961 11.3777L4.2511 13.8889H2.16388L4.64277 9.99942L2.37443 6.11108H4.5061L5.61777 8.44219C5.70443 8.62608 5.78221 8.84497 5.8511 9.09719H5.87332C5.91666 8.94664 5.99777 8.71942 6.11721 8.41942L7.35388 6.11108H9.30666L6.97388 9.96608L9.37166 13.8877H7.29388V13.8889Z" fill="white"/>
</svg>
