<svg width="515" height="74" viewBox="0 0 515 74" fill="none" xmlns="http://www.w3.org/2000/svg">
	<path d="M513.536 40.5356C515.488 38.5829 515.488 35.4171 513.536 33.4645L481.716 1.64468C479.763 -0.307939 476.597 -0.307939 474.645 1.64468C472.692 3.5973 472.692 6.76313 474.645 8.71575L502.929 37L474.645 65.2843C472.692 67.2369 472.692 70.4027 474.645 72.3554C476.597 74.308 479.763 74.308 481.716 72.3554L513.536 40.5356ZM229 42L510 42L510 32L229 32L229 42Z" fill="#359E5F" />
	<line x1="223" y1="37" x2="113" y2="37" stroke="#6ACB91" stroke-width="10" />
	<line x1="106" y1="37" x2="41" y2="37" stroke="#98DDB4" stroke-width="10" />
	<line x1="32" y1="37" x2="-4.37114e-07" y2="37" stroke="#C7FFDD" stroke-width="10" />
</svg>