<?xml version="1.0" encoding="UTF-8"?> <svg xmlns="http://www.w3.org/2000/svg" width="100" height="100" viewBox="0 0 100 100" fill="none"> <path d="M81.5 79H15V36H80V42.46C80 42.8578 80.158 43.2394 80.4393 43.5207C80.7206 43.802 81.1022 43.96 81.5 43.96C81.8978 43.96 82.2794 43.802 82.5607 43.5207C82.842 43.2394 83 42.8578 83 42.46V20.46C82.9896 20.0691 82.827 19.6978 82.5468 19.4251C82.2666 19.1524 81.891 18.9999 81.5 19H13.5C13.1022 19 12.7206 19.158 12.4393 19.4393C12.158 19.7206 12 20.1022 12 20.5V80.5C12 80.8978 12.158 81.2794 12.4393 81.5607C12.7206 81.842 13.1022 82 13.5 82H81.5C81.8978 82 82.2794 81.842 82.5607 81.5607C82.842 81.2794 83 80.8978 83 80.5C83 80.1022 82.842 79.7206 82.5607 79.4393C82.2794 79.158 81.8978 79 81.5 79ZM80 22V33H15V22H80Z" fill="#0052C9"></path> <path d="M20 29H26C26.3978 29 26.7794 28.842 27.0607 28.5607C27.342 28.2794 27.5 27.8978 27.5 27.5C27.5 27.1022 27.342 26.7206 27.0607 26.4393C26.7794 26.158 26.3978 26 26 26H20C19.6022 26 19.2206 26.158 18.9393 26.4393C18.658 26.7206 18.5 27.1022 18.5 27.5C18.5 27.8978 18.658 28.2794 18.9393 28.5607C19.2206 28.842 19.6022 29 20 29Z" fill="#0052C9"></path> <path d="M34 29H40C40.3978 29 40.7794 28.842 41.0607 28.5607C41.342 28.2794 41.5 27.8978 41.5 27.5C41.5 27.1022 41.342 26.7206 41.0607 26.4393C40.7794 26.158 40.3978 26 40 26H34C33.6022 26 33.2206 26.158 32.9393 26.4393C32.658 26.7206 32.5 27.1022 32.5 27.5C32.5 27.8978 32.658 28.2794 32.9393 28.5607C33.2206 28.842 33.6022 29 34 29V29Z" fill="#0052C9"></path> <path d="M97.8801 61.56V61.43C97.8826 61.38 97.8826 61.33 97.8801 61.28C97.8801 61.28 97.8801 61.19 97.8801 61.14C97.8801 61.09 97.8801 61.04 97.8801 60.99C97.8801 60.94 97.8801 60.89 97.8801 60.84C97.8801 60.79 97.8801 60.75 97.8801 60.7C97.8826 60.65 97.8826 60.6 97.8801 60.55V60.42L97.8201 60.28L97.7401 60.15L97.6901 60.06C97.2801 59.55 87.5201 47 74.8801 47C61.0001 47 50.7601 59.53 50.3301 60.06L50.2501 60.18L50.1701 60.3C50.1473 60.3489 50.1273 60.3989 50.1101 60.45V60.57C50.1072 60.6233 50.1072 60.6767 50.1101 60.73C50.1101 60.73 50.1101 60.81 50.1101 60.86C50.1101 60.91 50.1101 60.96 50.1101 61.01C50.1101 61.06 50.1101 61.11 50.1101 61.16C50.1101 61.21 50.1101 61.24 50.1101 61.29C50.1072 61.3433 50.1072 61.3967 50.1101 61.45V61.57C50.1273 61.6211 50.1473 61.6711 50.1701 61.72L50.2501 61.84L50.3301 61.96C50.7601 62.47 61.0001 75 74.8801 75C87.5201 75 97.2801 62.45 97.6901 61.91L97.7401 61.82L97.8201 61.69L97.8801 61.56ZM74.8801 72C64.5101 72 56.0801 63.81 53.4901 61C56.0801 58.19 64.4901 50 74.8801 50C84.1901 50 92.1201 58.22 94.5401 61C92.1301 63.78 84.1901 72 74.8801 72Z" fill="#0052C9"></path> <path d="M74 52.5C72.3189 52.5 70.6755 52.9985 69.2777 53.9325C67.8798 54.8665 66.7904 56.194 66.147 57.7472C65.5037 59.3004 65.3354 61.0094 65.6633 62.6583C65.9913 64.3071 66.8009 65.8217 67.9896 67.0104C69.1783 68.1992 70.6929 69.0087 72.3417 69.3367C73.9906 69.6647 75.6996 69.4963 77.2528 68.853C78.806 68.2096 80.1335 67.1202 81.0675 65.7223C82.0015 64.3245 82.5 62.6811 82.5 61C82.4974 58.7465 81.601 56.586 80.0075 54.9925C78.414 53.399 76.2535 52.5026 74 52.5ZM74 66.5C72.9122 66.5 71.8488 66.1774 70.9444 65.5731C70.0399 64.9687 69.335 64.1098 68.9187 63.1048C68.5024 62.0998 68.3935 60.9939 68.6057 59.927C68.8179 58.8601 69.3417 57.8801 70.1109 57.1109C70.8801 56.3417 71.8601 55.8179 72.927 55.6057C73.9939 55.3935 75.0998 55.5024 76.1048 55.9187C77.1098 56.3349 77.9687 57.0399 78.5731 57.9444C79.1774 58.8488 79.5 59.9122 79.5 61C79.4974 62.4579 78.9171 63.8553 77.8862 64.8862C76.8553 65.917 75.4579 66.4974 74 66.5V66.5Z" fill="#0052C9"></path> </svg> 