<?xml version="1.0" encoding="UTF-8"?> <svg xmlns="http://www.w3.org/2000/svg" width="101" height="101" viewBox="0 0 101 101" fill="none"> <path d="M55.6929 49.9741C54.9569 49.5981 54.0509 49.8881 53.6739 50.6261L43.6249 70.2671C43.2479 71.0051 43.5399 71.9091 44.2769 72.2861C44.4959 72.3981 44.7289 72.4511 44.9589 72.4511C45.5039 72.4511 46.0299 72.1531 46.2949 71.6351L56.3429 51.9941C56.7229 51.2551 56.4309 50.3521 55.6929 49.9741Z" fill="#0052C9"></path> <path d="M66.208 49.2239C65.622 48.6389 64.673 48.6389 64.087 49.2239C63.501 49.8089 63.501 50.7599 64.087 51.3449L73.67 60.9249L64.087 70.5049C63.501 71.0899 63.501 72.0399 64.087 72.6259C64.38 72.9189 64.764 73.0649 65.148 73.0649C65.532 73.0649 65.916 72.9189 66.209 72.6259L76.854 61.9849C77.135 61.7039 77.293 61.3219 77.293 60.9239C77.293 60.5259 77.135 60.1449 76.854 59.8629L66.208 49.2239Z" fill="#0052C9"></path> <path d="M35.911 49.2251C35.326 48.6391 34.376 48.6391 33.79 49.2251L23.147 59.8651C22.866 60.1461 22.708 60.5281 22.708 60.9261C22.708 61.3241 22.866 61.7051 23.147 61.9871L33.79 72.6271C34.083 72.9201 34.467 73.0661 34.851 73.0661C35.235 73.0661 35.619 72.9201 35.912 72.6271C36.498 72.0411 36.498 71.0921 35.912 70.5061L26.331 60.9261L35.912 51.3461C36.497 50.7601 36.497 49.8111 35.911 49.2251Z" fill="#0052C9"></path> <path d="M95.874 8.41406H4.12598C3.29698 8.41406 2.62598 9.08506 2.62598 9.91406V90.0871C2.62598 90.9151 3.29698 91.5871 4.12598 91.5871H95.874C96.702 91.5871 97.374 90.9151 97.374 90.0871V9.91406C97.374 9.08506 96.702 8.41406 95.874 8.41406ZM94.374 11.4141V30.2761H5.62598V11.4141H94.374ZM5.62598 88.5871V33.2761H94.374V88.5871H5.62598Z" fill="#0052C9"></path> <path d="M13.562 21.8511H20.452C21.281 21.8511 21.952 21.1801 21.952 20.3511C21.952 19.5221 21.281 18.8511 20.452 18.8511H13.562C12.733 18.8511 12.062 19.5221 12.062 20.3511C12.062 21.1801 12.733 21.8511 13.562 21.8511Z" fill="#0052C9"></path> <path d="M28.3259 21.8511H35.2159C36.0449 21.8511 36.7159 21.1801 36.7159 20.3511C36.7159 19.5221 36.0449 18.8511 35.2159 18.8511H28.3259C27.4969 18.8511 26.8259 19.5221 26.8259 20.3511C26.8259 21.1801 27.4979 21.8511 28.3259 21.8511Z" fill="#0052C9"></path> </svg> 