<?xml version="1.0" encoding="UTF-8"?> <svg xmlns="http://www.w3.org/2000/svg" width="101" height="101" viewBox="0 0 101 101" fill="none"> <path d="M87.666 11.582H26.572C22.924 11.582 20.001 14.147 19.917 17.46V30.274C19.917 31.103 20.588 31.774 21.417 31.774C22.246 31.774 22.917 31.103 22.917 30.274V17.498C22.958 15.89 24.598 14.582 26.572 14.582H87.666C89.684 14.582 91.325 15.917 91.325 17.559V66.505C91.325 68.148 89.683 69.484 87.666 69.484H26.572C24.557 69.484 22.917 68.148 22.917 66.505V59.498C22.917 58.67 22.246 57.998 21.417 57.998C20.588 57.998 19.917 58.67 19.917 59.498V66.505C19.917 69.802 22.902 72.484 26.572 72.484H55.39V85.419H36.349C35.52 85.419 34.849 86.091 34.849 86.919C34.849 87.747 35.52 88.419 36.349 88.419H77.263C78.091 88.419 78.763 87.747 78.763 86.919C78.763 86.091 78.091 85.419 77.263 85.419H58.39V72.483H87.666C91.338 72.483 94.325 69.801 94.325 66.504V17.559C94.325 14.263 91.338 11.582 87.666 11.582Z" fill="#0052C9"></path> <path d="M47.1289 36.0571H79.2799C80.1079 36.0571 80.7799 35.3861 80.7799 34.5571C80.7799 33.7281 80.1079 33.0571 79.2799 33.0571H47.1289C46.2999 33.0571 45.6289 33.7281 45.6289 34.5571C45.6289 35.3861 46.2999 36.0571 47.1289 36.0571Z" fill="#0052C9"></path> <path d="M47.1289 45.5562H79.2799C80.1079 45.5562 80.7799 44.8852 80.7799 44.0562C80.7799 43.2272 80.1079 42.5562 79.2799 42.5562H47.1289C46.2999 42.5562 45.6289 43.2272 45.6289 44.0562C45.6289 44.8852 46.2999 45.5562 47.1289 45.5562Z" fill="#0052C9"></path> <path d="M47.1289 55.5801H79.2799C80.1079 55.5801 80.7799 54.9081 80.7799 54.0801C80.7799 53.2521 80.1079 52.5801 79.2799 52.5801H47.1289C46.2999 52.5801 45.6289 53.2521 45.6289 54.0801C45.6289 54.9081 46.2999 55.5801 47.1289 55.5801Z" fill="#0052C9"></path> <path d="M21.111 48.7252C21.498 48.7252 21.882 48.5762 22.172 48.2862L43.844 26.6132C44.43 26.0272 44.43 25.0772 43.844 24.4922C43.258 23.9062 42.309 23.9062 41.723 24.4922L20.948 45.2682L8.04499 36.0822C7.36899 35.6022 6.43399 35.7602 5.95299 36.4342C5.47299 37.1092 5.62999 38.0462 6.30599 38.5262L20.243 48.4472C20.504 48.6342 20.809 48.7252 21.111 48.7252Z" fill="#0052C9"></path> </svg> 