<?xml version="1.0" encoding="UTF-8"?> <svg xmlns="http://www.w3.org/2000/svg" width="101" height="101" viewBox="0 0 101 101" fill="none"> <path d="M88.1271 7.64014H64.7291C61.8211 7.64014 59.4551 10.0061 59.4551 12.9141V17.4341C59.4551 17.4371 59.4541 17.4401 59.4541 17.4441C59.4541 17.4481 59.4551 17.4501 59.4551 17.4541V47.9001C59.4551 47.9031 59.4541 47.9061 59.4541 47.9101C59.4541 47.9141 59.4551 47.9161 59.4551 47.9201V52.4001C59.4551 55.3091 61.8211 57.6761 64.7291 57.6761H88.1271C91.0391 57.6761 93.4091 55.3091 93.4091 52.4001V12.9141C93.4091 10.0061 91.0391 7.64014 88.1271 7.64014ZM62.3601 18.8971H90.5031V46.4571H62.3601V18.8971ZM64.7291 10.5461H88.1271C89.4381 10.5461 90.5031 11.6081 90.5031 12.9141V15.9911H62.3601V12.9141C62.3601 11.6081 63.4231 10.5461 64.7291 10.5461ZM88.1271 54.7711H64.7291C63.4231 54.7711 62.3611 53.7081 62.3611 52.4011V49.3641H90.5041V52.4001C90.5031 53.7071 89.4381 54.7711 88.1271 54.7711Z" fill="#0052C9"></path> <path d="M83.7429 64.3159C82.9399 64.3159 82.2899 64.9659 82.2899 65.7689V84.6779H51.8009C50.9979 84.6779 50.3479 85.3279 50.3479 86.1309C50.3479 86.9339 50.9979 87.5839 51.8009 87.5839H83.7429C84.5459 87.5839 85.1959 86.9339 85.1959 86.1309V65.7699C85.1959 64.9669 84.5459 64.3159 83.7429 64.3159Z" fill="#0052C9"></path> <path d="M16.861 52.2359C17.664 52.2359 18.314 51.5859 18.314 50.7829V20.7019H50.665C51.468 20.7019 52.118 20.0519 52.118 19.2489C52.118 18.4459 51.468 17.7959 50.665 17.7959H16.861C16.058 17.7959 15.408 18.4459 15.408 19.2489V50.7829C15.408 51.5859 16.058 52.2359 16.861 52.2359Z" fill="#0052C9"></path> <path d="M41.4821 73.7412C40.6791 73.7412 40.0291 74.3912 40.0291 75.1942V89.4542H32.4231V75.1942C32.4231 74.3912 31.7731 73.7412 30.9701 73.7412C30.1671 73.7412 29.5171 74.3912 29.5171 75.1942V89.4542H20.1001V75.1942C20.1001 74.3912 19.4501 73.7412 18.6471 73.7412C17.8441 73.7412 17.1941 74.3912 17.1941 75.1942V89.4542H9.52612V75.1942C9.52612 74.3912 8.87612 73.7412 8.07312 73.7412C7.27012 73.7412 6.62012 74.3912 6.62012 75.1942V90.9072C6.62012 91.7102 7.27012 92.3602 8.07312 92.3602H41.4821C42.2851 92.3602 42.9351 91.7102 42.9351 90.9072V75.1942C42.9351 74.3922 42.2851 73.7412 41.4821 73.7412Z" fill="#0052C9"></path> <path d="M48.66 69.2493L26.006 56.3043C25.561 56.0493 25.014 56.0493 24.568 56.3023L1.76701 69.2473C1.28801 69.5193 1.02901 70.0233 1.03801 70.5373C1.03701 70.5603 1.03101 70.5823 1.03101 70.6063C1.03101 71.4093 1.68101 72.0593 2.48401 72.0593H47.259C47.449 72.0593 47.629 72.0203 47.796 71.9543C48.348 72.0083 48.908 71.7453 49.201 71.2313C49.599 70.5353 49.356 69.6473 48.66 69.2493ZM25.283 59.2373L42.635 69.1533H7.81801L25.283 59.2373Z" fill="#0052C9"></path> </svg> 