<?xml version="1.0" encoding="UTF-8"?> <svg xmlns="http://www.w3.org/2000/svg" width="101" height="101" viewBox="0 0 101 101" fill="none"> <path d="M76.21 9H24.79C23.7848 9 22.8208 9.3993 22.1101 10.1101C21.3993 10.8208 21 11.7848 21 12.79V89.21C21 90.2152 21.3993 91.1792 22.1101 91.8899C22.8208 92.6007 23.7848 93 24.79 93H76.21C77.2152 93 78.1792 92.6007 78.8899 91.8899C79.6007 91.1792 80 90.2152 80 89.21V12.79C80 11.7848 79.6007 10.8208 78.8899 10.1101C78.1792 9.3993 77.2152 9 76.21 9V9ZM24.79 12H76.21C76.4187 12.0026 76.6182 12.0867 76.7657 12.2343C76.9133 12.3818 76.9974 12.5813 77 12.79V75H24V12.79C24 12.5805 24.0832 12.3795 24.2314 12.2314C24.3795 12.0832 24.5805 12 24.79 12ZM76.21 90H24.79C24.5813 89.9974 24.3818 89.9133 24.2343 89.7657C24.0867 89.6182 24.0026 89.4187 24 89.21V78H77V89.21C76.9974 89.4187 76.9133 89.6182 76.7657 89.7657C76.6182 89.9133 76.4187 89.9974 76.21 90V90Z" fill="#0052C9"></path> <path d="M42.5 21H58.5C58.8978 21 59.2794 20.842 59.5607 20.5607C59.842 20.2794 60 19.8978 60 19.5C60 19.1022 59.842 18.7206 59.5607 18.4393C59.2794 18.158 58.8978 18 58.5 18H42.5C42.1022 18 41.7206 18.158 41.4393 18.4393C41.158 18.7206 41 19.1022 41 19.5C41 19.8978 41.158 20.2794 41.4393 20.5607C41.7206 20.842 42.1022 21 42.5 21V21Z" fill="#0052C9"></path> <path d="M50.49 81.6002C49.9955 81.6022 49.5128 81.7507 49.1028 82.0271C48.6927 82.3034 48.3739 82.6951 48.1865 83.1527C47.9991 83.6103 47.9516 84.1131 48.05 84.5977C48.1484 85.0823 48.3883 85.5268 48.7393 85.875C49.0903 86.2232 49.5367 86.4595 50.0221 86.5541C50.5074 86.6486 51.0099 86.5971 51.4659 86.406C51.922 86.215 52.3111 85.893 52.5842 85.4808C52.8573 85.0686 53.002 84.5846 53 84.0902C53 83.7615 52.9349 83.4361 52.8085 83.1327C52.6822 82.8292 52.497 82.5539 52.2636 82.3224C52.0303 82.0909 51.7534 81.9079 51.449 81.7839C51.1446 81.66 50.8187 81.5975 50.49 81.6002V81.6002Z" fill="#0052C9"></path> <path d="M35.4301 62.9998C35.5344 63.2948 35.7283 63.5498 35.9847 63.7291C36.2412 63.9084 36.5472 64.0031 36.8601 63.9998H64.1401C64.453 64.0031 64.7591 63.9084 65.0155 63.7291C65.2719 63.5498 65.4658 63.2948 65.5701 62.9998L71.4301 44.9998C71.5039 44.7752 71.5224 44.5361 71.4841 44.3029C71.4458 44.0696 71.3518 43.849 71.2101 43.6598C71.0765 43.4605 70.8967 43.2964 70.686 43.1815C70.4753 43.0666 70.24 43.0042 70.0001 42.9998H60.8101L57.0001 32.2698C56.9344 32.084 56.8328 31.9129 56.7011 31.7664C56.5693 31.6198 56.4099 31.5006 56.2321 31.4157C56.0543 31.3307 55.8615 31.2816 55.6647 31.2712C55.4679 31.2607 55.2709 31.2891 55.0851 31.3548C54.8993 31.4205 54.7282 31.5221 54.5817 31.6538C54.4351 31.7856 54.316 31.945 54.231 32.1228C54.146 32.3006 54.0969 32.4934 54.0865 32.6902C54.076 32.887 54.1044 33.084 54.1701 33.2698L57.6301 42.9998H43.5801L47.0001 33.2598C47.1284 32.8844 47.1038 32.4736 46.9317 32.1162C46.7595 31.7588 46.4536 31.4835 46.0801 31.3498C45.8944 31.2835 45.6973 31.2548 45.5004 31.2653C45.3035 31.2758 45.1106 31.3252 44.9329 31.4108C44.7552 31.4964 44.5963 31.6164 44.4654 31.7638C44.3345 31.9113 44.2341 32.0833 44.1701 32.2698L40.4001 42.9998H31.0001C30.7637 42.9997 30.5307 43.0559 30.3203 43.1637C30.1099 43.2715 29.9281 43.4279 29.7901 43.6198C29.6418 43.8135 29.544 44.0411 29.5056 44.282C29.4672 44.5229 29.4894 44.7696 29.5701 44.9998L35.4301 62.9998ZM39.3401 45.9998L38.1901 49.2598C38.0575 49.6351 38.0794 50.0477 38.251 50.4068C38.4226 50.7659 38.7298 51.0422 39.1051 51.1748C39.4804 51.3074 39.893 51.2855 40.2521 51.1139C40.6112 50.9423 40.8875 50.6351 41.0201 50.2598L42.5201 45.9998H58.6801L60.1901 50.2598C60.292 50.5524 60.4825 50.8059 60.7353 50.9852C60.988 51.1644 61.2903 51.2604 61.6001 51.2598C61.7702 51.2633 61.9396 51.2362 62.1001 51.1798C62.4723 51.0422 62.7754 50.7637 62.9438 50.4043C63.1122 50.045 63.1325 49.6339 63.0001 49.2598L61.8701 45.9998H67.9301L63.0501 60.9998H38.0001L33.0701 45.9998H39.3401Z" fill="#0052C9"></path> </svg> 