<?xml version="1.0" encoding="UTF-8"?> <svg xmlns="http://www.w3.org/2000/svg" width="100" height="100" viewBox="0 0 100 100" fill="none"> <path d="M83.89 15.1098C83.1499 14.3714 82.2596 13.8008 81.2796 13.4368C80.2995 13.0727 79.2527 12.9237 78.21 12.9998C66.0358 13.9112 54.5991 19.184 46 27.8498L44.87 28.9998H30.13C29.9307 29 29.7334 29.0399 29.5497 29.1171C29.366 29.1944 29.1995 29.3075 29.06 29.4498L13.43 45.4498C13.2233 45.6607 13.0834 45.9279 13.0279 46.2179C12.9724 46.508 13.0038 46.8079 13.118 47.0802C13.2323 47.3525 13.4244 47.585 13.6702 47.7486C13.916 47.9122 14.2047 47.9996 14.5 47.9998H28.88L32.73 51.8498C26.8887 52.0642 21.3505 54.5042 17.25 58.6698C4.99997 71.0698 14.65 85.2198 14.75 85.3598C14.9327 85.6217 15.1943 85.8184 15.4966 85.9213C15.7989 86.0242 16.1261 86.0279 16.4307 85.932C16.7352 85.836 17.0012 85.6454 17.19 85.3878C17.3787 85.1302 17.4803 84.8192 17.48 84.4998C17.48 79.6898 21.99 75.1298 26.75 75.1298C29.0353 75.1431 31.2221 76.0622 32.8306 77.6857C34.4391 79.3092 35.338 81.5045 35.33 83.7898C35.3346 84.061 35.4127 84.3258 35.5559 84.5561C35.6991 84.7864 35.902 84.9735 36.1431 85.0977C36.3842 85.2218 36.6544 85.2783 36.925 85.261C37.1957 85.2438 37.4566 85.1535 37.68 84.9998C40.5627 82.7626 42.8995 79.8998 44.514 76.6275C46.1285 73.3551 46.9786 69.7587 47 66.1098L51 70.1098V84.4998C51.0002 84.7963 51.0883 85.0861 51.2532 85.3325C51.418 85.5789 51.6522 85.771 51.9261 85.8844C52.2001 85.9978 52.5014 86.0275 52.7922 85.9698C53.083 85.912 53.3502 85.7693 53.56 85.5598L69.56 69.5598C69.8365 69.2837 69.9944 68.9106 70 68.5198V54.1298L71.15 52.9998C79.8158 44.4007 85.0886 32.964 86 20.7898C86.0761 19.7471 85.9271 18.7003 85.5631 17.7202C85.199 16.7402 84.6284 15.8499 83.89 15.1098V15.1098ZM30.76 31.9998H41.87L28.87 44.9998H18.06L30.76 31.9998ZM37.94 80.8298C37.295 78.3478 35.8464 76.1491 33.8202 74.577C31.7941 73.005 29.3045 72.148 26.74 72.1398C21.82 72.1398 17.24 75.5998 15.36 80.1398C13.61 75.7698 12.2 68.0398 19.36 60.8098C21.4845 58.6493 24.0745 57.0028 26.9324 55.9958C29.7902 54.9889 32.8404 54.6482 35.85 54.9998L43.85 62.9998C44.2548 66.2243 43.9343 69.4986 42.9118 72.5833C41.8893 75.6681 40.1907 78.4855 37.94 80.8298V80.8298ZM67 67.8998L54 80.8998V70.1298L67 57.1298V67.8998ZM69 50.8998L67.44 52.4598L67.39 52.5098L52.5 67.3798L31.62 46.4998L46.53 31.5898L46.58 31.5398L48.14 29.9998C56.2198 21.8415 66.9708 16.8708 78.42 15.9998C79.0353 15.9447 79.6552 16.0253 80.2359 16.2359C80.8166 16.4466 81.344 16.7822 81.7808 17.219C82.2176 17.6558 82.5532 18.1832 82.7639 18.7639C82.9745 19.3447 83.0551 19.9645 83 20.5798C82.129 32.029 77.1583 42.78 69 50.8598V50.8998Z" fill="#0052C9"></path> <path d="M63.4999 27C61.3021 27.0012 59.1727 27.7644 57.4745 29.1595C55.7762 30.5546 54.6143 32.4954 54.1865 34.6512C53.7588 36.807 54.0918 39.0444 55.1287 40.9822C56.1657 42.92 57.8424 44.4384 59.8733 45.2785C61.9042 46.1187 64.1636 46.2287 66.2665 45.5898C68.3694 44.9509 70.1857 43.6027 71.406 41.7747C72.6263 39.9468 73.1751 37.7524 72.9588 35.5652C72.7425 33.3781 71.7746 31.3336 70.2199 29.78C69.3393 28.8954 68.2919 28.1942 67.1384 27.717C65.9849 27.2398 64.7482 26.9961 63.4999 27V27ZM68.0999 41.1C67.0375 42.1642 65.639 42.8271 64.1427 42.9758C62.6463 43.1245 61.1447 42.7498 59.8937 41.9155C58.6426 41.0812 57.7195 39.839 57.2816 38.4005C56.8437 36.9619 56.9182 35.416 57.4922 34.0262C58.0663 32.6364 59.1045 31.4886 60.4299 30.7784C61.7553 30.0681 63.286 29.8394 64.7611 30.1312C66.2362 30.4229 67.5646 31.2171 68.5198 32.3784C69.4751 33.5397 69.9982 34.9963 69.9999 36.5C70.0031 37.3543 69.8368 38.2008 69.5107 38.9904C69.1846 39.78 68.7051 40.497 68.0999 41.1V41.1Z" fill="#0052C9"></path> </svg> 