<svg id="icon-1c" width="51" height="50" viewBox="0 0 51 50" fill="none" xmlns="http://www.w3.org/2000/svg">
	<path class="footer__icon-change"
		d="M15.7903 2.29536C15.7903 2.86536 15.7903 3.24536 15.7903 3.63536C15.7903 10.7754 15.7603 17.9154 15.8103 25.0554C15.8403 29.7754 18.9803 33.5354 23.5903 34.5554C29.1003 35.7754 34.4003 31.8454 35.2103 25.9354C35.9303 20.7454 31.5203 15.5754 26.1803 15.3154C26.1103 15.3154 26.0403 15.3454 25.9003 15.3854V19.6154C26.2403 19.7054 26.5803 19.7854 26.9103 19.8754C29.6103 20.6554 31.1603 23.1154 30.7403 25.9454C30.3603 28.4954 27.9603 30.4054 25.2503 30.3154C22.6303 30.2254 20.2503 28.1254 20.2203 25.4454C20.1203 17.2854 20.1803 9.11536 20.1803 0.965361C29.5303 -1.53464 42.5903 2.67536 48.0803 14.9654C53.3703 26.8154 48.5203 40.7854 37.0303 46.8554C25.5003 52.9454 11.2703 49.0554 4.42031 37.8854C-2.32969 26.8654 0.830314 13.2754 9.66031 6.10536C9.66031 6.60536 9.66031 6.96536 9.66031 7.32536C9.66031 13.2254 9.63031 19.1154 9.67031 25.0154C9.72031 32.4954 14.8103 38.7854 22.0903 40.4454C31.9903 42.7054 41.4803 34.9954 41.3303 24.7954C41.2203 16.8254 35.1703 10.1254 27.2903 9.24536C26.8703 9.19536 26.4403 9.24536 25.9303 9.24536V13.4854C26.7203 13.6354 27.5203 13.7454 28.3003 13.9454C33.8203 15.3554 37.5503 20.6554 36.9003 26.1654C36.2103 32.0254 31.4203 36.3854 25.5903 36.4454C19.3903 36.5154 14.2303 31.5754 14.1303 25.2454C14.0203 18.1054 14.1203 10.9654 14.0903 3.82536C14.0903 2.70536 14.9303 2.70536 15.7903 2.29536Z"
		fill="white" />
</svg>