<svg width="50" height="50" viewBox="0 0 50 50" fill="none" xmlns="http://www.w3.org/2000/svg">
<g clip-path="url(#clip0_47_24256)">
<path d="M50 13.3333V11.6667H45.8333V8.33333C45.8333 8.11229 45.7454 7.90042 45.5892 7.74417L42.2558 4.41083C42.0996 4.25458 41.8877 4.16667 41.6667 4.16667H38.3333V0H36.6667V4.16667H34.1667V0H32.5V4.16667H30V0H28.3333V4.16667H25.8333V0H24.1667V4.16667H21.6667V0H20V4.16667H17.5V0H15.8333V4.16667H13.3333V0H11.6667V4.16667H8.33333C8.11229 4.16667 7.90042 4.25458 7.74417 4.41083L4.41083 7.74417C4.25458 7.90042 4.16667 8.11229 4.16667 8.33333V11.6667H0V13.3333H4.16667V15.8333H0V17.5H4.16667V20H0V21.6667H4.16667V24.1667H0V25.8333H4.16667V28.3333H0V30H4.16667V32.5H0V34.1667H4.16667V36.6667H0V38.3333H4.16667V41.6667C4.16667 41.8877 4.25458 42.0996 4.41083 42.2558L7.74417 45.5892C7.90042 45.7454 8.11229 45.8333 8.33333 45.8333H11.6667V50H13.3333V45.8333H15.8333V50H17.5V45.8333H20V50H21.6667V45.8333H24.1667V50H25.8333V45.8333H28.3333V50H30V45.8333H32.5V50H34.1667V45.8333H36.6667V50H38.3333V45.8333H41.6667C41.8877 45.8333 42.0996 45.7454 42.2558 45.5892L45.5892 42.2558C45.7454 42.0996 45.8333 41.8877 45.8333 41.6667V38.3333H50V36.6667H45.8333V34.1667H50V32.5H45.8333V30H50V28.3333H45.8333V25.8333H50V24.1667H45.8333V21.6667H50V20H45.8333V17.5H50V15.8333H45.8333V13.3333H50ZM44.1667 41.3217L41.3217 44.1667H8.67833L5.83333 41.3217V8.67833L8.67833 5.83333H41.3217L44.1667 8.67833V41.3217Z" fill="#555555"/>
<path d="M40.0001 9.16699H10.0001C9.53987 9.16699 9.16675 9.54012 9.16675 10.0003V40.0003C9.16675 40.4605 9.53987 40.8337 10.0001 40.8337H40.0001C40.4603 40.8337 40.8334 40.4605 40.8334 40.0003V10.0003C40.8334 9.54012 40.4603 9.16699 40.0001 9.16699ZM39.1667 13.3337H30.0001C29.5399 13.3337 29.1667 13.7068 29.1667 14.167V17.5003H28.3334C27.8732 17.5003 27.5001 17.8735 27.5001 18.3337V21.667C27.5001 22.1272 27.8732 22.5003 28.3334 22.5003H31.6667C32.127 22.5003 32.5001 22.1272 32.5001 21.667V18.3337C32.5001 17.8735 32.127 17.5003 31.6667 17.5003H30.8334V15.0003H39.1667V37.9887L35.0001 33.822V30.8337H35.8334C36.2936 30.8337 36.6667 30.4605 36.6667 30.0003V26.667C36.6667 26.2068 36.2936 25.8337 35.8334 25.8337H32.5001C32.0399 25.8337 31.6667 26.2068 31.6667 26.667V30.0003C31.6667 30.4605 32.0399 30.8337 32.5001 30.8337H33.3334V34.167C33.3334 34.388 33.4213 34.5999 33.5776 34.7562L37.9884 39.167H29.1667V34.167C29.1667 33.7068 28.7936 33.3337 28.3334 33.3337H22.5001V32.5003C22.5001 32.0401 22.127 31.667 21.6667 31.667H18.3334C17.8732 31.667 17.5001 32.0401 17.5001 32.5003V35.8337C17.5001 36.2939 17.8732 36.667 18.3334 36.667H21.6667C22.127 36.667 22.5001 36.2939 22.5001 35.8337V35.0003H27.5001V39.167H10.8334V22.5003H15.0001V26.667C15.0001 27.1272 15.3732 27.5003 15.8334 27.5003H20.0001V28.3337C20.0001 28.7939 20.3732 29.167 20.8334 29.167H24.1667C24.627 29.167 25.0001 28.7939 25.0001 28.3337V25.0003C25.0001 24.5401 24.627 24.167 24.1667 24.167H20.8334C20.3732 24.167 20.0001 24.5401 20.0001 25.0003V25.8337H16.6667V21.667C16.6667 21.2068 16.2936 20.8337 15.8334 20.8337H10.8334V10.8337H25.4884L21.3217 15.0003H18.3334V14.167C18.3334 13.7068 17.9603 13.3337 17.5001 13.3337H14.1667C13.7065 13.3337 13.3334 13.7068 13.3334 14.167V17.5003C13.3334 17.9605 13.7065 18.3337 14.1667 18.3337H17.5001C17.9603 18.3337 18.3334 17.9605 18.3334 17.5003V16.667H21.6667C21.8878 16.667 22.0997 16.5791 22.2559 16.4228L27.8451 10.8337H39.1667V13.3337ZM30.8334 19.167V20.8337H29.1667V19.167H30.8334ZM33.3334 29.167V27.5003H35.0001V29.167H33.3334ZM20.8334 33.3337V35.0003H19.1667V33.3337H20.8334ZM21.6667 27.5003V25.8337H23.3334V27.5003H21.6667ZM16.6667 15.0003V16.667H15.0001V15.0003H16.6667Z" fill="#359E5F"/>
<path d="M23.3334 19.167H21.6667V20.8337H23.3334V19.167Z" fill="black"/>
<path d="M29.1667 27.3877H27.5V29.0544H29.1667V27.3877Z" fill="black"/>
<path d="M14.9999 33.333H13.3333V34.9997H14.9999V33.333Z" fill="black"/>
<path d="M36.6667 19.167H35V20.8337H36.6667V19.167Z" fill="black"/>
</g>
<defs>
<clipPath id="clip0_47_24256">
<rect width="50" height="50" fill="white"/>
</clipPath>
</defs>
</svg>
