<svg width="31" height="166" viewBox="0 0 31 166" fill="none" xmlns="http://www.w3.org/2000/svg">
<path d="M30.0607 155.061C30.6464 154.475 30.6464 153.525 30.0607 152.939L20.5147 143.393C19.9289 142.808 18.9792 142.808 18.3934 143.393C17.8076 143.979 17.8076 144.929 18.3934 145.515L26.8787 154L18.3934 162.485C17.8076 163.071 17.8076 164.021 18.3934 164.607C18.9792 165.192 19.9289 165.192 20.5147 164.607L30.0607 155.061ZM-1.31134e-07 155.5L29 155.5L29 152.5L1.31134e-07 152.5L-1.31134e-07 155.5Z" fill="#359E5F"/>
<line x1="1.5" y1="54" x2="1.5" y2="101" stroke="#6ACB91" stroke-width="3"/>
<line x1="1.5" y1="107" x2="1.5" y2="154" stroke="#359E5F" stroke-width="3"/>
<line x1="1.5" y1="20" x2="1.5" y2="48" stroke="#98DDB4" stroke-width="3"/>
<line x1="1.5" x2="1.5" y2="14" stroke="#C7FFDD" stroke-width="3"/>
</svg>
