<svg id="filter" width="75" height="75" viewBox="0 0 75 75" fill="none" xmlns="http://www.w3.org/2000/svg">
	<path
		d="M67.0127 0.000733923C71.4151 0.000733923 75 3.68967 75 8.22454V13.9685C75 16.1625 74.1263 18.3025 72.6038 19.836L47.558 45.1718V64.2577C47.558 65.4204 46.9018 66.471 45.8856 66.9577L29.6822 74.7219C29.2884 74.9111 28.8722 75 28.4634 75C27.3722 75 26.326 74.3626 25.8347 73.2772C25.1635 71.7785 25.7897 70.0054 27.241 69.3102L41.7644 62.3533V43.9241C41.7644 43.1245 42.0794 42.3559 42.6344 41.7957L68.5501 15.5754C68.9701 15.1543 69.2064 14.5672 69.2064 13.9685V8.22454C69.2064 6.9846 68.2239 5.96869 67.0127 5.96869H33.6421C32.0446 5.96869 30.7471 4.63218 30.7471 2.98278C30.7471 1.34111 32.0446 0.000733923 33.6421 0.000733923H67.0127ZM19.5671 0C21.1646 0 22.462 1.35485 22.462 3.01815C22.462 4.68145 21.1646 6.03239 19.5671 6.03239H7.98359C6.77611 6.03239 5.78988 7.05927 5.78988 8.3126V14.2474C5.78988 14.8252 6.00363 15.3836 6.38237 15.8053L30.2431 42.3361C30.7494 42.8983 31.0269 43.6323 31.0269 44.3976V59.3361C31.0269 60.9955 29.7294 62.3464 28.1319 62.3464C26.5345 62.3464 25.237 60.9955 25.237 59.3361V45.5885L2.15621 19.9323C0.764985 18.3822 0 16.3675 0 14.2474V8.3126C0 3.72876 3.58118 0 7.98359 0H19.5671Z"
		fill="black" />
</svg>