<svg id="users" width="44" height="34" viewBox="0 0 44 34" fill="none" xmlns="http://www.w3.org/2000/svg">
	<path
		d="M22.7953 21.2539C26.9232 21.2791 35.4802 21.6668 35.4802 27.6103C35.4802 33.5833 26.615 33.9728 22.735 33.9982L22.0005 34C21.2361 34 20.6157 33.3763 20.6157 32.6077C20.6157 31.8391 21.2361 31.2154 22.0005 31.2154C26.8857 31.2154 32.7108 30.5898 32.7108 27.6103C32.7108 25.2378 29.1087 24.0367 22.0005 24.0367C17.1152 24.0367 11.2901 24.6623 11.2901 27.6437C11.2901 28.3083 11.484 29.1641 12.9961 29.9085C13.6165 30.2148 14.403 30.471 15.3298 30.6696C16.0776 30.8293 16.5558 31.57 16.3951 32.3218C16.2363 33.0737 15.4978 33.56 14.7538 33.393C13.6054 33.1461 12.6047 32.8156 11.7776 32.4109C9.08568 31.0836 8.52071 29.0861 8.52071 27.6437C8.52071 21.6689 17.3859 21.2793 21.2659 21.2539L22.7953 21.2539ZM36.139 19.9955C37.1637 20.0642 38.1939 20.2145 39.2057 20.4392C41.46 20.8884 42.9462 21.8111 43.5943 23.1755C44.1352 24.3172 44.1352 25.6241 43.5943 26.7658C42.9536 28.1191 41.471 29.0454 39.1835 29.5188C39.0912 29.5393 38.997 29.5485 38.9029 29.5485C38.2603 29.5485 37.6843 29.0937 37.5495 28.4366C37.3963 27.6829 37.8782 26.9459 38.6278 26.7918C40.5165 26.4001 40.9818 25.806 41.0944 25.5684C41.2735 25.1897 41.2735 24.7534 41.0944 24.3747C40.8581 23.8754 39.9405 23.4243 38.637 23.1644C37.7305 22.9639 36.8369 22.8321 35.9543 22.7727C35.19 22.7225 34.6139 22.0561 34.6656 21.2894C34.7155 20.5227 35.382 19.9546 36.139 19.9955ZM7.8758 19.9669C8.61432 19.9094 9.29929 20.4941 9.35099 21.2608C9.40268 22.0294 8.82664 22.694 8.06228 22.7441C7.17237 22.8035 6.27876 22.9353 5.40547 23.1321C4.06506 23.3975 3.14377 23.8505 2.9056 24.3517C2.72651 24.7323 2.72651 25.1723 2.9056 25.5528C3.02007 25.7923 3.48533 26.3882 5.38147 26.7799C6.13106 26.934 6.61294 27.6691 6.4597 28.4228C6.32677 29.0818 5.74888 29.5348 5.10453 29.5348C5.01221 29.5348 4.9199 29.5255 4.82574 29.507C2.53449 29.0354 1.04823 28.1072 0.405722 26.7483C-0.135241 25.6066 -0.135241 24.2979 0.405722 23.1562C1.05562 21.7843 2.54557 20.858 4.83497 20.405C5.81165 20.186 6.84742 20.0356 7.8758 19.9669ZM22.001 0C27.0377 0 31.1364 4.11936 31.1364 9.18548C31.1364 14.2516 27.0377 18.371 22.001 18.371C19.9387 18.371 17.9946 17.7045 16.3809 16.4422C15.7772 15.9706 15.6682 15.0963 16.1372 14.4892C16.6043 13.8803 17.4776 13.7726 18.0813 14.246C19.2039 15.1222 20.5591 15.5864 22.001 15.5864C25.5127 15.5864 28.367 12.7145 28.367 9.18548C28.367 5.65646 25.5127 2.7846 22.001 2.7846C18.4894 2.7846 15.6332 5.65646 15.6332 9.18548C15.6332 9.95403 15.0128 10.5778 14.2485 10.5778C13.4841 10.5778 12.8637 9.95403 12.8637 9.18548C12.8637 4.11936 16.9625 0 22.001 0ZM33.3666 1.90207C37.3435 1.90207 40.58 5.15449 40.58 9.15503C40.58 13.1537 37.3435 16.408 33.3666 16.408C32.6022 16.408 31.9819 15.7842 31.9819 15.0157C31.9819 14.2471 32.6022 13.6234 33.3666 13.6234C35.8166 13.6234 37.8106 11.6185 37.8106 9.15503C37.8106 6.69159 35.8166 4.68667 33.3666 4.68667C32.6022 4.68667 31.9819 4.06292 31.9819 3.29437C31.9819 2.52396 32.6022 1.90207 33.3666 1.90207ZM10.6567 1.82521C11.421 1.82521 12.0414 2.44897 12.0414 3.21752C12.0414 3.98607 11.421 4.60982 10.6567 4.60982C8.19743 4.60982 6.19605 6.62216 6.19605 9.09488C6.19605 11.5676 8.19743 13.5781 10.6567 13.5781C11.421 13.5781 12.0414 14.2018 12.0414 14.9704C12.0414 15.7389 11.421 16.3627 10.6567 16.3627C6.67055 16.3627 3.42662 13.1029 3.42662 9.09488C3.42662 5.08691 6.67055 1.82521 10.6567 1.82521Z"
		fill="black" />
</svg>