<svg width="35" height="35" viewBox="0 0 35 35" fill="none" xmlns="http://www.w3.org/2000/svg">
<path d="M22.7625 16.7804L19.3125 20.2584V10.36C19.3125 9.34452 18.4893 8.5475 17.5 8.5475C16.4889 8.5475 15.6875 9.34886 15.6875 10.36V20.2619L12.2193 16.7797L12.2186 16.7789C11.8784 16.4388 11.4006 16.2475 10.9375 16.2475C10.4669 16.2475 10.0138 16.445 9.66884 16.767L9.66254 16.7729L9.65645 16.7789C8.95376 17.4816 8.95368 18.638 9.65621 19.3408C9.65629 19.3409 9.65637 19.341 9.65645 19.3411L16.218 25.9376L16.2189 25.9386C16.9042 26.6238 18.0958 26.6238 18.7811 25.9386L18.782 25.9376L25.3436 19.3411C25.3436 19.341 25.3437 19.3409 25.3438 19.3408C26.0463 18.638 26.0462 17.4816 25.3436 16.7789L25.3436 16.7789L25.3375 16.773C24.6187 16.0782 23.4888 16.0782 22.77 16.773L22.7699 16.7729L22.7625 16.7804ZM25.0775 0.5C27.9224 0.5 30.2676 1.4959 31.9026 3.20076C33.5393 4.90745 34.5 7.36249 34.5 10.3425V24.64C34.5 27.6291 33.539 30.0885 31.9024 31.7973C30.2675 33.5041 27.9224 34.5 25.0775 34.5H9.905C7.06114 34.5 4.72063 33.5042 3.08997 31.7977C1.45738 30.0892 0.5 27.6297 0.5 24.64V10.3425C0.5 7.36194 1.45716 4.90683 3.08976 3.20033C4.72048 1.49579 7.06112 0.5 9.905 0.5H25.0775Z" fill="#0BBBEF" stroke="black"/>
</svg>
