<svg width="120" height="120" viewBox="0 0 120 120" fill="none" xmlns="http://www.w3.org/2000/svg">
<path d="M58.0358 41.45L71.1919 54.5H35.52C32.439 54.5 30.02 56.9964 30.02 60C30.02 63.0723 32.4477 65.5 35.52 65.5H71.1989L58.0343 78.6115L58.0329 78.6129C57.0025 79.6433 56.42 81.0988 56.42 82.5C56.42 83.9136 57.015 85.2973 58.0089 86.3623L58.0207 86.3749L58.0329 86.3871C60.1633 88.5175 63.6761 88.5176 65.8067 86.3876C65.8068 86.3874 65.807 86.3873 65.8071 86.3871L88.4252 63.889L88.4271 63.8871C90.4976 61.8166 90.4976 58.1834 88.4271 56.1129L88.4252 56.111L65.8071 33.6129C65.807 33.6127 65.8068 33.6126 65.8067 33.6124C63.6761 31.4824 60.1633 31.4825 58.0329 33.6129L58.0269 33.6189L58.021 33.625C55.9063 35.8126 55.9063 39.2474 58.021 41.435L58.0283 41.4426L58.0358 41.45ZM84.48 1C94.8832 1 103.502 4.34694 109.513 10.1047C115.521 15.8588 119 24.0928 119 34.02V86.04C119 95.964 115.521 104.182 109.514 109.922C103.503 115.666 94.8843 119 84.48 119H35.46C25.0864 119 16.4824 115.666 10.4788 109.923C4.47909 104.183 1 95.964 1 86.04V34.02C1 24.0927 4.47929 15.8585 10.4797 10.1043C16.4837 4.34649 25.0875 1 35.46 1H84.48Z" fill="white" stroke="black" stroke-width="2"/>
</svg>
