<svg width="35" height="35" viewBox="0 0 35 35" fill="none" xmlns="http://www.w3.org/2000/svg">
<path d="M19.435 15.53V11.095C19.435 10.0139 18.5636 9.1425 17.4825 9.1425C16.4014 9.1425 15.53 10.0139 15.53 11.095V15.53H11.0775C10.5552 15.53 10.0679 15.7432 9.70303 16.0852L9.69126 16.0963L9.68023 16.108C9.3384 16.4727 9.125 16.9581 9.125 17.4825C9.125 18.5657 9.99608 19.4291 11.0666 19.4524L11.0666 19.4525H11.0775H15.53V23.905C15.53 24.9861 16.4014 25.8575 17.4825 25.8575C18.5636 25.8575 19.435 24.9861 19.435 23.905V19.4525H23.905V19.4526L23.9159 19.4524C24.9864 19.4291 25.8575 18.5657 25.8575 17.4825C25.8575 16.4014 24.9861 15.53 23.905 15.53H19.435ZM25.655 0.5C28.5375 0.5 30.732 1.31236 32.2059 2.78022C33.6795 4.24776 34.5 6.4373 34.5 9.3275V25.6725C34.5 28.5452 33.6839 30.7354 32.2137 32.2076C30.7436 33.6797 28.5536 34.5 25.6725 34.5H9.3275C6.43729 34.5 4.24758 33.6795 2.77998 32.2079C1.31214 30.736 0.5 28.5459 0.5 25.6725V9.3275C0.5 6.43591 1.3125 4.24648 2.77949 2.77949C4.24648 1.3125 6.43591 0.5 9.3275 0.5H25.655Z" fill="#0BBBEF" stroke="black"/>
</svg>
