<svg width="28" height="28" viewBox="0 0 28 28" fill="none" xmlns="http://www.w3.org/2000/svg">
<path d="M14.6813 12.4227V22.1293H12.8707V11.7413L14.6813 12.4227Z" fill="black"/>
<path d="M7.448 11.5173C7.448 9.03461 8.80133 7.68127 10.388 7.68127C11.9747 7.68127 12.1987 7.90527 14 8.81061C15.8013 9.71594 16.2587 9.93994 17.164 9.93994C18.0693 9.93994 18.5173 9.25861 18.5173 7.90527H20.0947C20.3187 10.6119 18.7413 11.7413 17.1547 11.7413C15.568 11.7413 15.12 11.5173 13.5427 10.6119C11.9653 9.70661 11.508 9.48261 10.6027 9.48261C9.69733 9.48261 9.24933 10.1639 9.02533 11.7413L7.448 11.5173Z" fill="black"/>
<path d="M14 28C6.28133 28 0 21.7187 0 14C0 6.28133 6.28133 0 14 0C21.7187 0 28 6.28133 28 14C28 21.7187 21.7187 28 14 28ZM14 0.905333C6.776 0.905333 0.905333 6.776 0.905333 14C0.905333 21.224 6.776 27.0947 14 27.0947C21.224 27.0947 27.0947 21.224 27.0947 14C27.0947 6.776 21.224 0.905333 14 0.905333Z" fill="black"/>
</svg>
