<svg width="357" height="250" viewBox="0 0 357 250" fill="none" xmlns="http://www.w3.org/2000/svg">
<path fill-rule="evenodd" clip-rule="evenodd" d="M295.605 56.0587C297.253 55.8647 298.433 54.3627 298.24 52.7038C298.048 51.045 296.555 49.8574 294.906 50.0514L209.727 60.0734L205.984 58.5148C204.451 57.876 202.693 58.6093 202.058 60.1525L200.135 64.8268C199.814 65.6091 199.843 66.4494 200.148 67.1711L148.289 134.784L151.547 87.8798L151.712 87.8267C154.148 87.0405 155.491 84.4154 154.709 81.9637L153.657 78.661C153.065 76.806 151.092 75.7841 149.247 76.3791L145.889 77.4628C143.662 78.1813 142.349 80.4352 142.736 82.689L55.5196 167.896C54.3287 169.058 54.3006 170.974 55.4567 172.172C56.6128 173.37 58.5155 173.398 59.7063 172.235L145.483 88.435L142.005 138.493L139.98 139.643C138.408 140.537 137.858 142.548 138.756 144.125L141.268 148.537C142.162 150.107 144.151 150.651 145.711 149.752L149.917 147.327C151.413 146.465 151.981 144.579 151.215 143.026L150.566 141.714L205.36 70.2756L206.509 70.7539C208.043 71.3926 209.8 70.6593 210.435 69.1161L211.748 65.9251L295.605 56.0587Z" fill="url(#paint0_linear_40_993)"/>
<path d="M128.31 232.972V231.301H121.976V244.114H124.105V232.972H128.31Z" fill="white"/>
<path d="M140.079 244.059V242.882C139.054 242.91 138.866 242.225 138.866 241.294V236.448C138.866 233.93 138.973 230.973 135.173 230.973C133.017 230.973 131.4 231.301 130.457 231.576V233.218C131.481 232.917 132.721 232.671 133.933 232.671C135.308 232.671 136.736 232.698 136.736 235.244V236.448H135.039C131.724 236.448 129.567 237.516 129.567 240.965C129.567 243.593 131.427 244.47 133.071 244.47C134.392 244.47 135.659 243.895 136.79 242.362C136.79 242.362 136.979 244.223 138.3 244.223C139.27 244.223 139.836 244.114 140.079 244.059ZM136.736 240.5C136.736 240.5 135.578 242.663 133.556 242.663C132.344 242.663 131.751 241.896 131.751 240.5C131.751 238.256 133.259 237.872 134.931 237.872H136.736V240.5Z" fill="white"/>
<path d="M152.218 237.27C152.218 233.683 150.978 231.055 147.771 231.055C145.453 231.055 144.24 232.561 144.24 232.561L144.051 231.301H142.111V250H144.24V243.785C144.86 244.114 145.83 244.36 146.935 244.36C149.388 244.36 152.218 242.526 152.218 237.27ZM150.008 237.27C150.008 241.513 148.741 242.855 146.72 242.855C145.183 242.855 144.24 241.951 144.24 241.951V234.614C144.24 234.614 144.914 232.78 147.178 232.78C149.495 232.78 150.008 235.299 150.008 237.27Z" fill="white"/>
<path d="M164.451 244.059V242.882C163.427 242.91 163.238 242.225 163.238 241.294V236.448C163.238 233.93 163.347 230.973 159.546 230.973C157.39 230.973 155.773 231.301 154.829 231.576V233.218C155.853 232.917 157.093 232.671 158.306 232.671C159.681 232.671 161.109 232.698 161.109 235.244V236.448H159.411C156.096 236.448 153.94 237.516 153.94 240.965C153.94 243.593 155.8 244.47 157.444 244.47C158.764 244.47 160.031 243.895 161.163 242.362C161.163 242.362 161.352 244.223 162.673 244.223C163.643 244.223 164.208 244.114 164.451 244.059ZM161.109 240.5C161.109 240.5 159.95 242.663 157.929 242.663C156.716 242.663 156.123 241.896 156.123 240.5C156.123 238.256 157.633 237.872 159.303 237.872H161.109V240.5Z" fill="white"/>
<path d="M175.863 244.114V231.301H173.734V236.64H168.613V231.301H166.484V244.114H168.613V238.173H173.734V244.114H175.863Z" fill="white"/>
<path d="M186.783 232.972V231.301H177.753V232.972H181.203V244.114H183.332V232.972H186.783Z" fill="white"/>
<path d="M198.483 244.114V231.274H196.219L190.775 241.212V231.301H188.646V244.114H190.909L196.354 234.176V244.114H198.483Z" fill="white"/>
<path d="M209.928 244.114V231.356C209.227 231.275 207.771 231.055 206.397 231.055C204.429 231.055 201.195 231.576 201.195 235.025C201.195 237.626 203.297 238.228 204.16 238.42V238.584C203.352 239.104 202.947 239.323 202.03 241.267L200.683 244.114H203.19L204.16 241.541C205.049 239.214 205.912 238.912 206.882 238.912H207.798V244.114H209.928ZM207.798 237.626H206.397C203.89 237.626 203.405 236.147 203.405 235.025C203.405 232.78 205.049 232.588 206.208 232.588C206.828 232.588 207.798 232.725 207.798 232.725V237.626Z" fill="white"/>
<path d="M229.232 237.27C229.232 233.683 227.992 231.055 224.784 231.055C222.467 231.055 221.254 232.561 221.254 232.561L221.066 231.301H219.125V250H221.254V243.785C221.874 244.114 222.844 244.36 223.949 244.36C226.402 244.36 229.232 242.526 229.232 237.27ZM227.022 237.27C227.022 241.513 225.755 242.855 223.734 242.855C222.197 242.855 221.254 241.951 221.254 241.951V234.614C221.254 234.614 221.927 232.78 224.191 232.78C226.51 232.78 227.022 235.299 227.022 237.27Z" fill="white"/>
<path d="M241.627 237.763C241.627 231.986 238.446 231.055 236.425 231.055C234.485 231.055 231.224 231.959 231.224 237.763C231.224 242.28 233.406 244.497 236.317 244.497C239.201 244.497 241.627 242.28 241.627 237.763ZM239.417 237.763C239.417 241.239 238.312 242.937 236.425 242.937C234.646 242.937 233.433 241.239 233.433 237.763C233.433 232.972 235.239 232.616 236.425 232.616C237.557 232.616 239.417 232.972 239.417 237.763Z" fill="white"/>
<path d="M251.384 243.758V242.033C250.899 242.334 249.875 242.609 249.309 242.609C247.018 242.609 245.913 241.239 245.913 237.763C245.913 233.163 247.88 232.725 249.174 232.725C249.821 232.725 250.953 232.917 251.384 233.054V231.275C250.953 231.192 250.171 231.055 249.012 231.055C246.91 231.055 243.703 232.095 243.703 237.763C243.703 242.252 245.508 244.36 248.473 244.36C250.387 244.36 251.061 243.895 251.384 243.758Z" fill="white"/>
<path d="M261.638 232.972V231.301H252.609V232.972H256.059V244.114H258.188V232.972H261.638Z" fill="white"/>
<path d="M273.366 244.059V242.882C272.342 242.91 272.153 242.225 272.153 241.294V236.448C272.153 233.93 272.26 230.973 268.461 230.973C266.304 230.973 264.687 231.301 263.744 231.576V233.218C264.768 232.917 266.008 232.671 267.221 232.671C268.595 232.671 270.023 232.698 270.023 235.244V236.448H268.325C265.011 236.448 262.854 237.516 262.854 240.965C262.854 243.593 264.714 244.47 266.358 244.47C267.679 244.47 268.945 243.895 270.078 242.362C270.078 242.362 270.266 244.223 271.587 244.223C272.557 244.223 273.123 244.114 273.366 244.059ZM270.023 240.5C270.023 240.5 268.865 242.663 266.844 242.663C265.631 242.663 265.038 241.896 265.038 240.5C265.038 238.256 266.547 237.872 268.218 237.872H270.023V240.5Z" fill="white"/>
<path d="M223.123 36.574C222.83 36.2788 222.83 35.8 223.123 35.5048L228.498 30.0954C228.792 29.8002 229.267 29.8002 229.561 30.0954L234.937 35.5048C235.23 35.8 235.23 36.2788 234.937 36.574L229.561 41.9834C229.267 42.2786 228.792 42.2786 228.498 41.9834L223.123 36.574Z" fill="white"/>
<path fill-rule="evenodd" clip-rule="evenodd" d="M210.231 0.767982C212.091 -0.0763768 214.158 -0.210241 216.085 0.29627C218.219 0.856797 221.363 1.69485 222.481 2.06268C224.196 2.62737 227.604 3.85789 230.817 5.04894C237.191 7.41174 246.726 11.3474 248.019 11.8825L248.03 11.8862L248.079 11.9031C248.11 11.9134 248.158 11.9301 248.21 11.9491C248.256 11.966 248.334 11.9956 248.421 12.0355C248.424 12.0367 248.426 12.0379 248.43 12.0392L277.981 25.3956L310.175 40.4587C311.21 40.9428 311.658 42.1794 311.177 43.2206C310.696 44.2617 309.467 44.7134 308.433 44.2292L276.276 29.1831L276.251 29.1718L246.766 15.8456C246.762 15.8441 246.757 15.8425 246.751 15.8405C246.733 15.8342 246.688 15.8191 246.65 15.8058C246.613 15.7927 246.547 15.769 246.474 15.7387C245.273 15.2421 235.721 11.2985 229.389 8.95072C226.171 7.75818 222.83 6.55262 221.196 6.01477C220.23 5.69675 217.244 4.89814 215.041 4.31954C213.98 4.04072 212.885 4.12457 211.929 4.55838C210.463 5.224 208.62 6.10894 207.305 6.89636C204.836 8.37536 199.091 12.0127 198.505 12.384C198.461 12.4119 198.422 12.4364 198.379 12.4625L187.502 19.1052L107.506 65.6744L44.6067 170.767L44.6057 170.769C44.3929 171.123 44.0984 171.42 43.7468 171.636L8.17277 193.495L4.68986 216.777L46.916 184.552C47.986 183.736 49.5007 183.887 50.3902 184.899L78.6645 217.08L82.6162 203.608C82.9397 202.507 84.0881 201.878 85.1828 202.203C86.2775 202.528 86.9021 203.684 86.5795 204.785L81.8265 220.986C81.2557 222.933 78.7782 223.486 77.4415 221.965L48.2562 188.748L4.1203 222.43C2.28541 223.83 -0.312046 222.279 0.0307518 219.987L4.19529 192.149C4.30836 191.394 4.74798 190.728 5.39571 190.33L41.2661 168.288L104.515 62.6115L185.394 15.5278L196.235 8.90791C196.251 8.89813 196.265 8.88943 196.278 8.88073C196.287 8.87564 196.295 8.87056 196.303 8.86517C196.868 8.50703 202.667 4.83555 205.191 3.32329C206.719 2.408 208.744 1.44296 210.231 0.767982ZM41.5914 168.089C41.5922 168.088 41.5929 168.087 41.5937 168.087L41.5914 168.089ZM310.113 59.5108C310.995 60.2387 311.124 61.5486 310.401 62.4367L297.132 78.7272L242.87 116.554L175.043 124.046C173.91 124.171 172.889 123.347 172.765 122.206C172.64 121.064 173.459 120.038 174.593 119.912L241.377 112.535L294.303 75.6412L307.205 59.8009C307.928 58.9128 309.23 58.7829 310.113 59.5108ZM289.751 64.6855C290.422 65.6147 290.217 66.9148 289.293 67.5894L238.588 104.633L187.912 111.063C186.779 111.207 185.746 110.4 185.603 109.26C185.46 108.121 186.262 107.081 187.395 106.938L237.019 100.641L286.865 64.2246C287.788 63.5499 289.081 63.7563 289.751 64.6855ZM260.299 66.9028C261.031 67.7829 260.917 69.0942 260.042 69.8317L232.151 93.3485L202.055 97.0777C200.923 97.2179 199.892 96.4078 199.752 95.2682C199.613 94.1285 200.418 93.0905 201.551 92.9504L230.433 89.3713L257.389 66.6445C258.263 65.907 259.566 66.0227 260.299 66.9028ZM137.251 134.341C137.797 135.35 137.427 136.613 136.425 137.162L87.6519 163.888C86.6501 164.437 85.3949 164.066 84.8494 163.057C84.304 162.049 84.6735 160.786 85.676 160.237L134.449 133.51C135.451 132.96 136.706 133.333 137.251 134.341Z" fill="white"/>
<path fill-rule="evenodd" clip-rule="evenodd" d="M134.163 146.417C122.424 149.11 113.657 159.77 113.657 172.51V193.969C113.657 208.742 125.446 220.718 139.988 220.718H150.984C165.525 220.718 177.314 208.742 177.314 193.969V172.51C177.314 159.851 168.659 149.246 157.032 146.47V164.627C159.338 166.456 160.821 169.307 160.821 172.51V193.969C160.821 199.488 156.416 203.963 150.984 203.963H139.988C134.554 203.963 130.15 199.488 130.15 193.969V172.51C130.15 169.205 131.73 166.274 134.163 164.455V146.417ZM205.671 147.23H189.178V221.6H205.671V212.047H224.044C241.622 212.047 255.873 197.57 255.873 179.712C255.873 161.854 241.598 147.23 224.019 147.23H205.671ZM205.671 164.133V195.292H224.044C232.514 195.292 239.38 188.317 239.38 179.712C239.38 171.108 232.514 164.133 224.044 164.133H205.671ZM357 147.23H340.507V221.6H357V147.23ZM265.855 147.23V163.986H289.582V221.6H306.075V163.986H329.801V147.23H306.075H289.582H265.855Z" fill="white"/>
<path d="M346.539 123.316H350.814C351.025 123.316 351.226 123.403 351.371 123.556L356.789 129.274C356.924 129.417 357 129.607 357 129.804V133.976C357 134.182 356.918 134.378 356.773 134.523L351.368 139.894C351.225 140.037 351.03 140.117 350.827 140.117H346.525C346.324 140.117 346.131 140.038 345.987 139.896L340.534 134.523C340.387 134.379 340.304 134.181 340.304 133.974V129.806C340.304 129.608 340.381 129.417 340.517 129.273L345.984 123.554C346.129 123.402 346.33 123.316 346.539 123.316Z" fill="white"/>
<defs>
<linearGradient id="paint0_linear_40_993" x1="54.6077" y1="173.137" x2="298.896" y2="51.2554" gradientUnits="userSpaceOnUse">
<stop offset="0.0001" stop-color="#0BBBEF"/>
<stop offset="0.395412" stop-color="#00A0E3"/>
<stop offset="0.67667" stop-color="#126797"/>
<stop offset="0.792521" stop-color="#005893"/>
<stop offset="1" stop-color="#142647"/>
</linearGradient>
</defs>
</svg>
