<svg width="107" height="75" viewBox="0 0 107 75" fill="none" xmlns="http://www.w3.org/2000/svg">
<path fill-rule="evenodd" clip-rule="evenodd" d="M88.5986 16.8176C89.0928 16.7594 89.4464 16.3088 89.3886 15.8111C89.3308 15.3135 88.8835 14.9572 88.3894 15.0154L62.8593 18.022L61.7375 17.5544C61.2779 17.3628 60.7511 17.5828 60.5609 18.0457L59.9846 19.448C59.8881 19.6827 59.8969 19.9348 59.9885 20.1513L44.4451 40.4353L45.4218 26.3639L45.4711 26.348C46.2014 26.1121 46.6037 25.3246 46.3695 24.5891L46.0541 23.5983C45.8768 23.0418 45.2852 22.7352 44.7324 22.9137L43.7258 23.2388C43.0585 23.4544 42.665 24.1305 42.7808 24.8067L16.6404 50.3687C16.2834 50.7175 16.275 51.2921 16.6215 51.6515C16.968 52.011 17.5383 52.0195 17.8952 51.6705L43.6042 26.5305L42.5619 41.5479L41.9549 41.893C41.4836 42.161 41.3187 42.7644 41.5879 43.2375L42.3408 44.5612C42.6088 45.0322 43.2049 45.1953 43.6726 44.9255L44.9332 44.198C45.3815 43.9395 45.5519 43.3738 45.3221 42.9078L45.1278 42.5142L61.5505 21.0826L61.8948 21.2261C62.3546 21.4178 62.8814 21.1978 63.0716 20.7348L63.4651 19.7775L88.5986 16.8176Z" fill="url(#paint0_linear_37_869)"/>
<path d="M38.457 69.8913V69.3903H36.5586V73.234H37.1968V69.8913H38.457Z" fill="#282828"/>
<path d="M41.9844 73.2178V72.8645C41.6772 72.8729 41.6208 72.6675 41.6208 72.3882V70.9345C41.6208 70.1788 41.653 69.292 40.514 69.292C39.8679 69.292 39.3832 69.3904 39.1005 69.4726V69.9654C39.4074 69.8751 39.779 69.8011 40.1424 69.8011C40.5545 69.8011 40.9826 69.8094 40.9826 70.5732V70.9345H40.4737C39.4802 70.9345 38.8339 71.2549 38.8339 72.2896C38.8339 73.078 39.3913 73.3409 39.884 73.3409C40.2798 73.3409 40.6595 73.1685 40.9987 72.7086C40.9987 72.7086 41.0553 73.267 41.4511 73.267C41.7419 73.267 41.9116 73.2342 41.9844 73.2178ZM40.9826 72.15C40.9826 72.15 40.6353 72.7989 40.0293 72.7989C39.666 72.7989 39.4882 72.5688 39.4882 72.15C39.4882 71.4766 39.9404 71.3616 40.4415 71.3616H40.9826V72.15Z" fill="#282828"/>
<path d="M45.6228 71.1809C45.6228 70.1048 45.2512 69.3164 44.2899 69.3164C43.5953 69.3164 43.2317 69.7683 43.2317 69.7683L43.1751 69.3903H42.5934V74.9999H43.2317V73.1354C43.4175 73.2341 43.7083 73.308 44.0394 73.308C44.7746 73.308 45.6228 72.7577 45.6228 71.1809ZM44.9604 71.1809C44.9604 72.4537 44.5807 72.8564 43.9749 72.8564C43.5144 72.8564 43.2317 72.5852 43.2317 72.5852V70.3841C43.2317 70.3841 43.4336 69.8339 44.1122 69.8339C44.8068 69.8339 44.9604 70.5895 44.9604 71.1809Z" fill="#282828"/>
<path d="M49.2893 73.2178V72.8645C48.9824 72.8729 48.9257 72.6675 48.9257 72.3882V70.9345C48.9257 70.1788 48.9582 69.292 47.8192 69.292C47.1728 69.292 46.6882 69.3904 46.4054 69.4726V69.9654C46.7123 69.8751 47.084 69.8011 47.4475 69.8011C47.8595 69.8011 48.2877 69.8094 48.2877 70.5732V70.9345H47.7786C46.7851 70.9345 46.1388 71.2549 46.1388 72.2896C46.1388 73.078 46.6962 73.3409 47.189 73.3409C47.5848 73.3409 47.9644 73.1685 48.3038 72.7086C48.3038 72.7086 48.3605 73.267 48.7563 73.267C49.0471 73.267 49.2165 73.2342 49.2893 73.2178ZM48.2877 72.15C48.2877 72.15 47.9403 72.7989 47.3345 72.7989C46.9709 72.7989 46.7932 72.5688 46.7932 72.15C46.7932 71.4766 47.2456 71.3616 47.7464 71.3616H48.2877V72.15Z" fill="#282828"/>
<path d="M52.7096 73.234V69.3903H52.0714V70.9918H50.5365V69.3903H49.8985V73.234H50.5365V71.4518H52.0714V73.234H52.7096Z" fill="#282828"/>
<path d="M55.9824 69.8913V69.3903H53.2761V69.8913H54.3101V73.234H54.9484V69.8913H55.9824Z" fill="#282828"/>
<path d="M59.4893 73.2342V69.3823H58.8108L57.179 72.3635V69.3904H56.5408V73.2342H57.2193L58.8511 70.2528V73.2342H59.4893Z" fill="#282828"/>
<path d="M62.9194 73.2341V69.4067C62.7095 69.3822 62.2731 69.3164 61.8612 69.3164C61.2715 69.3164 60.3022 69.4726 60.3022 70.5075C60.3022 71.2876 60.9322 71.4683 61.1907 71.5258V71.575C60.9485 71.7311 60.8272 71.7967 60.5525 72.38L60.1486 73.2341H60.8999L61.1907 72.4621C61.4574 71.7639 61.7159 71.6736 62.0067 71.6736H62.2812V73.2341H62.9194ZM62.2812 71.2876H61.8612C61.1099 71.2876 60.9646 70.8441 60.9646 70.5075C60.9646 69.8339 61.4574 69.7763 61.8046 69.7763C61.9904 69.7763 62.2812 69.8175 62.2812 69.8175V71.2876Z" fill="#282828"/>
<path d="M68.7054 71.1809C68.7054 70.1048 68.3338 69.3164 67.3725 69.3164C66.6778 69.3164 66.3142 69.7683 66.3142 69.7683L66.2578 69.3903H65.6762V74.9999H66.3142V73.1354C66.5 73.2341 66.7908 73.308 67.1222 73.308C67.8571 73.308 68.7054 72.7577 68.7054 71.1809ZM68.0429 71.1809C68.0429 72.4537 67.6633 72.8564 67.0575 72.8564C66.597 72.8564 66.3142 72.5852 66.3142 72.5852V70.3841C66.3142 70.3841 66.5162 69.8339 67.1947 69.8339C67.8896 69.8339 68.0429 70.5895 68.0429 71.1809Z" fill="#282828"/>
<path d="M72.4204 71.3287C72.4204 69.5957 71.4671 69.3164 70.8613 69.3164C70.2797 69.3164 69.3023 69.5876 69.3023 71.3287C69.3023 72.6838 69.9564 73.3491 70.8289 73.3491C71.6932 73.3491 72.4204 72.6838 72.4204 71.3287ZM71.7579 71.3287C71.7579 72.3717 71.4268 72.8809 70.8613 72.8809C70.3281 72.8809 69.9645 72.3717 69.9645 71.3287C69.9645 69.8914 70.5058 69.7847 70.8613 69.7847C71.2005 69.7847 71.7579 69.8914 71.7579 71.3287Z" fill="#282828"/>
<path d="M75.3448 73.1274V72.6099C75.1993 72.7002 74.8924 72.7825 74.7227 72.7825C74.0361 72.7825 73.705 72.3717 73.705 71.3287C73.705 69.9489 74.2946 69.8175 74.6824 69.8175C74.8763 69.8175 75.2154 69.875 75.3448 69.9161V69.3822C75.2154 69.3575 74.9812 69.3164 74.6338 69.3164C74.0038 69.3164 73.0425 69.6285 73.0425 71.3287C73.0425 72.6755 73.5836 73.308 74.4724 73.308C75.0459 73.308 75.2479 73.1685 75.3448 73.1274Z" fill="#282828"/>
<path d="M78.418 69.8913V69.3903H75.7119V69.8913H76.7459V73.234H77.3842V69.8913H78.418Z" fill="#282828"/>
<path d="M81.9331 73.2178V72.8645C81.6262 72.8729 81.5695 72.6675 81.5695 72.3882V70.9345C81.5695 70.1788 81.6018 69.292 80.463 69.292C79.8166 69.292 79.332 69.3904 79.0492 69.4726V69.9654C79.3561 69.8751 79.7278 69.8011 80.0913 69.8011C80.5032 69.8011 80.9313 69.8094 80.9313 70.5732V70.9345H80.4224C79.4289 70.9345 78.7826 71.2549 78.7826 72.2896C78.7826 73.078 79.34 73.3409 79.8328 73.3409C80.2286 73.3409 80.6082 73.1685 80.9476 72.7086C80.9476 72.7086 81.004 73.267 81.3998 73.267C81.6906 73.267 81.8603 73.2342 81.9331 73.2178ZM80.9313 72.15C80.9313 72.15 80.5841 72.7989 79.9783 72.7989C79.6147 72.7989 79.437 72.5688 79.437 72.15C79.437 71.4766 79.8894 71.3616 80.3902 71.3616H80.9313V72.15Z" fill="#282828"/>
<path d="M66.8744 10.9724C66.7865 10.8838 66.7865 10.7402 66.8744 10.6516L68.4855 9.02883C68.5735 8.94026 68.716 8.94026 68.8039 9.02883L70.4152 10.6516C70.5032 10.7402 70.5032 10.8838 70.4152 10.9724L68.8039 12.5952C68.716 12.6838 68.5735 12.6838 68.4855 12.5952L66.8744 10.9724Z" fill="#282828"/>
<path fill-rule="evenodd" clip-rule="evenodd" d="M63.0103 0.230395C63.5678 -0.0229131 64.1874 -0.0630723 64.7651 0.0888813C65.4044 0.257039 66.3469 0.508455 66.6819 0.618804C67.196 0.788212 68.2174 1.15737 69.1803 1.51469C71.0907 2.22353 73.9486 3.40421 74.3363 3.56476L74.3395 3.56587L74.3543 3.57093C74.3635 3.57403 74.378 3.57904 74.3934 3.58472C74.4072 3.5898 74.4305 3.59867 74.4567 3.61064C74.4576 3.61101 74.4583 3.61138 74.4593 3.61175L83.3165 7.61869L92.9656 12.1376C93.2757 12.2829 93.4102 12.6538 93.266 12.9662C93.1217 13.2785 92.7535 13.414 92.4434 13.2688L82.8053 8.75495L82.798 8.75155L73.9605 4.75367C73.9594 4.75323 73.958 4.75275 73.9562 4.75217C73.9506 4.75025 73.9373 4.74575 73.926 4.74175C73.9147 4.73782 73.8949 4.73071 73.873 4.72163C73.5132 4.57263 70.6502 3.38957 68.7523 2.68522C67.788 2.32746 66.7864 1.96579 66.2967 1.80443C66.0072 1.70903 65.1123 1.46944 64.4521 1.29586C64.1342 1.21222 63.8058 1.23737 63.5194 1.36751C63.0799 1.5672 62.5275 1.83268 62.1335 2.06891C61.3933 2.51261 59.6715 3.60383 59.4958 3.7152C59.4827 3.72358 59.4709 3.73093 59.458 3.73876L56.1979 5.73155L32.2216 19.7023L13.3695 51.2302L13.3692 51.2307C13.3054 51.3369 13.2172 51.4261 13.1118 51.491L2.44954 58.0486L1.40564 65.0332L14.0616 55.3657C14.3824 55.1208 14.8363 55.1661 15.103 55.4699L23.5773 65.124L24.7617 61.0825C24.8587 60.7521 25.2029 60.5634 25.531 60.6609C25.8591 60.7584 26.0463 61.1054 25.9496 61.4357L24.525 66.2959C24.3539 66.8801 23.6114 67.046 23.2108 66.5897L14.4633 56.6245L1.23493 66.729C0.684981 67.1492 -0.0935264 66.6837 0.00921691 65.9963L1.25741 57.6448C1.2913 57.4182 1.42306 57.2184 1.6172 57.099L12.3683 50.4866L31.3252 18.7835L55.5663 4.65836L58.8154 2.67238C58.8202 2.66944 58.8244 2.66683 58.8285 2.66422C58.8311 2.6627 58.8334 2.66117 58.8359 2.65955C59.0054 2.55211 60.7433 1.45067 61.4999 0.996988C61.9578 0.722402 62.5646 0.432888 63.0103 0.230395ZM12.4658 50.4267C12.466 50.4265 12.4662 50.4263 12.4665 50.4263L12.4658 50.4267ZM92.9469 17.8533C93.2115 18.0716 93.2502 18.4646 93.0333 18.731L89.0564 23.6182L72.7929 34.9663L52.464 37.2137C52.1241 37.2514 51.8183 37.0042 51.781 36.6619C51.7435 36.3193 51.989 36.0113 52.329 35.9737L72.3456 33.7606L88.2084 22.6924L92.0754 17.9403C92.2921 17.6739 92.6824 17.6349 92.9469 17.8533ZM86.8441 19.4057C87.0452 19.6844 86.9837 20.0745 86.7069 20.2769L71.5095 31.39L56.3209 33.3189C55.9815 33.3621 55.6718 33.12 55.629 32.7781C55.5862 32.4365 55.8265 32.1244 56.1659 32.0814L71.0394 30.1925L85.9791 19.2674C86.2559 19.065 86.6431 19.1269 86.8441 19.4057ZM78.0166 20.0709C78.2363 20.3349 78.202 20.7283 77.9397 20.9495L69.5803 28.0046L60.56 29.1234C60.2206 29.1654 59.9116 28.9224 59.8697 28.5805C59.828 28.2386 60.0693 27.9272 60.4087 27.8851L69.0654 26.8114L77.1444 19.9934C77.4064 19.7721 77.7972 19.8068 78.0166 20.0709ZM41.1368 40.3023C41.3005 40.6049 41.1896 40.9838 40.8893 41.1485L26.271 49.1666C25.9708 49.3313 25.5945 49.2197 25.4311 48.9171C25.2676 48.6147 25.3783 48.2359 25.6788 48.0711L40.2969 40.0531C40.5974 39.8881 40.9734 39.9999 41.1368 40.3023Z" fill="#282828"/>
<path fill-rule="evenodd" clip-rule="evenodd" d="M40.2115 43.9252C36.693 44.733 34.0654 47.9311 34.0654 51.7531V58.1907C34.0654 62.6226 37.5986 66.2154 41.9572 66.2154H45.2528C49.6112 66.2154 53.1446 62.6226 53.1446 58.1907V51.7531C53.1446 47.9553 50.5504 44.7739 47.0656 43.9409V49.3881C47.7568 49.9369 48.2014 50.7921 48.2014 51.7531V58.1907C48.2014 59.8465 46.8811 61.1889 45.2528 61.1889H41.9572C40.3287 61.1889 39.0087 59.8465 39.0087 58.1907V51.7531C39.0087 50.7614 39.482 49.8822 40.2115 49.3365V43.9252ZM61.6436 44.1691H56.7003V66.4799H61.6436V63.614H67.1505C72.419 63.614 76.6902 59.2711 76.6902 53.9138C76.6902 48.5562 72.4117 44.1691 67.1431 44.1691H61.6436ZM61.6436 49.2398V58.5875H67.1505C69.689 58.5875 71.7469 56.495 71.7469 53.9138C71.7469 51.3325 69.689 49.2398 67.1505 49.2398H61.6436ZM107 44.1691H102.057V66.4799H107V44.1691ZM79.682 44.1691V49.1959H86.7935V66.4799H91.7367V49.1959H98.848V44.1691H91.7367H86.7935H79.682Z" fill="#282828"/>
<path d="M103.864 36.9952H105.146C105.209 36.9952 105.269 37.0213 105.313 37.0671L106.937 38.7826C106.977 38.8253 107 38.8823 107 38.9415V40.1931C107 40.2548 106.975 40.3137 106.932 40.3571L105.312 41.9684C105.269 42.0114 105.211 42.0354 105.15 42.0354H103.86C103.8 42.0354 103.742 42.0116 103.699 41.9691L102.065 40.3573C102.021 40.3139 101.996 40.2545 101.996 40.1926V38.9422C101.996 38.8826 102.019 38.8253 102.06 38.7823L103.698 37.0664C103.742 37.0209 103.802 36.9952 103.864 36.9952Z" fill="#282828"/>
<defs>
<linearGradient id="paint0_linear_37_869" x1="16.3671" y1="51.9412" x2="89.6123" y2="15.4314" gradientUnits="userSpaceOnUse">
<stop offset="0.0001" stop-color="#0BBBEF"/>
<stop offset="0.395412" stop-color="#00A0E3"/>
<stop offset="0.67667" stop-color="#126797"/>
<stop offset="0.792521" stop-color="#005893"/>
<stop offset="1" stop-color="#142647"/>
</linearGradient>
</defs>
</svg>
