<svg width="40" height="35" viewBox="0 0 40 35" fill="none" xmlns="http://www.w3.org/2000/svg">
<path d="M27.6736 12.4016L27.6737 12.4016L27.6686 12.3964C26.8783 11.6062 25.5817 11.6062 24.7914 12.3964L17.9175 19.2704L15.2086 16.5614C14.4183 15.7712 13.1217 15.7712 12.3314 16.5614C11.5384 17.3545 11.5457 18.6297 12.3264 19.4334L12.3263 19.4334L12.3322 19.4393L16.4964 23.5861C16.4965 23.5862 16.4966 23.5863 16.4968 23.5864C16.8951 23.9846 17.4105 24.17 17.9175 24.17C18.4391 24.17 18.9556 23.9865 19.3561 23.5861L19.0025 23.2325C19.3561 23.5861 19.3561 23.586 19.3561 23.586L19.3564 23.5857L19.3575 23.5846L19.3617 23.5805L19.3782 23.5639L19.4429 23.4992L19.6888 23.2533L20.5712 22.3709L23.2892 19.6529L27.6686 15.2736C28.4616 14.4805 28.4543 13.2053 27.6736 12.4016ZM30 0.5C35.6111 0.5 39.5 4.89362 39.5 10.86V18.0096V25.1592C39.5 28.1189 38.4323 30.4401 36.6861 32.0253C34.9341 33.6158 32.46 34.5 29.595 34.5H10.4225C7.56308 34.5 5.0849 33.5793 3.32648 31.9492C1.57244 30.3232 0.5 27.9599 0.5 25V11C0.5 5.02481 4.3968 0.5 10 0.5H30Z" fill="#0BBBEF" stroke="black"/>
</svg>
