<svg width="338" height="250" viewBox="0 0 338 250" fill="none" xmlns="http://www.w3.org/2000/svg">
<g clip-path="url(#clip0_40_1017)">
<path d="M106.586 90.5V160.375H92.9656V85.375L106.586 90.5Z" fill="white"/>
<path d="M53.8551 84.375C53.2304 66 63.1017 56.75 75.5971 56.75C83.0943 56.75 88.8422 59.125 101.463 64.875C110.709 69.25 117.082 72.75 123.954 72.75C130.452 72.75 133.451 67.25 133.826 57.375H144.322C145.446 77.875 134.95 85 123.704 85C116.582 85 109.709 83 97.464 76.875C88.9671 72.75 82.0947 68.75 75.722 68.75C69.3494 68.75 65.2259 73.125 65.2259 84.375H53.8551Z" fill="white"/>
<path d="M100.838 202.5C45.3582 202.5 0.374878 157.5 0.374878 102C0.374878 46.5 45.3582 1.5 100.838 1.5C156.317 1.5 201.301 46.5 201.301 102C201.301 157.25 156.067 202.5 100.838 202.5ZM100.838 7.75C48.732 7.75 6.49761 49.875 6.49761 101.75C6.49761 153.625 48.732 195.75 100.463 195.75C152.194 195.75 194.428 153.5 194.428 101.75C194.428 50 152.569 7.75 100.838 7.75Z" fill="white"/>
<path d="M337.125 114.625C332.002 114.625 329.628 118 326.879 122.125C323.755 126.25 320.381 131 313.884 131C307.011 131 304.012 126.25 300.889 122.125C298.14 118 295.391 114.625 290.642 114.625C285.519 114.625 283.145 118 280.396 122.125C277.272 126.25 273.899 131 267.151 131C260.279 131 257.28 126.25 254.156 122.125C251.407 118 248.658 114.625 243.91 114.625C238.787 114.625 236.412 118 233.663 122.125C230.54 126.25 227.166 131 220.668 131C213.796 131 210.797 126.25 207.673 122.125C204.924 118 202.175 114.625 197.427 114.625C192.304 114.625 189.93 118 187.181 122.125C184.057 126.25 180.683 131 174.185 131C167.313 131 164.314 126.25 161.19 122.125C158.441 118 155.692 114.625 150.944 114.625V111.25C157.817 111.25 160.815 116 163.939 120.125C166.688 124.25 169.437 127.625 174.185 127.625C179.309 127.625 181.683 124.25 184.432 120.125C187.556 116 190.929 111.25 197.427 111.25C204.299 111.25 207.298 116 210.422 120.125C213.171 124.25 215.92 127.625 220.668 127.625C225.791 127.625 228.166 124.25 230.914 120.125C234.038 116 237.412 111.25 243.91 111.25C250.782 111.25 253.781 116 256.905 120.125C259.654 124.25 262.403 127.625 267.151 127.625C271.899 127.625 274.648 124.25 277.397 120.125C280.521 116 283.895 111.25 290.392 111.25C297.265 111.25 300.264 116 303.388 120.125C306.137 124.25 308.886 127.625 313.634 127.625C318.382 127.625 321.131 124.25 323.88 120.125C327.004 116 330.378 111.25 336.875 111.25" fill="white"/>
<path d="M337.125 144C332.002 144 329.628 147.375 326.879 151.5C323.755 155.625 320.381 160.375 313.884 160.375C307.011 160.375 304.012 155.625 300.889 151.5C298.14 147.375 295.391 144 290.642 144C285.519 144 283.145 147.375 280.396 151.5C277.272 155.625 273.899 160 267.151 160C260.279 160 257.28 155.25 254.156 151.125C251.407 147 248.658 143.625 243.91 143.625C238.787 143.625 236.412 147 233.663 151.125C230.54 155.25 227.166 160 220.668 160C213.796 160 210.797 155.25 207.673 151.125C204.924 147 202.175 143.625 197.427 143.625C192.304 143.625 189.93 147 187.181 151.125C184.057 155.25 180.683 160 174.185 160C167.313 160 164.314 155.25 161.19 151.125C158.441 147 155.692 143.625 150.944 143.625V140.25C157.817 140.25 160.815 145 163.939 149.125C166.688 153.25 169.437 156.625 174.185 156.625C179.309 156.625 181.683 153.25 184.432 149.125C187.556 145 190.929 140.25 197.427 140.25C204.299 140.25 207.298 145 210.422 149.125C213.171 153.25 215.92 156.625 220.668 156.625C225.791 156.625 228.166 153.25 230.914 149.125C234.038 145 237.412 140.25 243.91 140.25C250.782 140.25 253.781 145 256.905 149.125C259.654 153.25 262.403 156.625 267.151 156.625C271.899 156.625 274.648 153.25 277.397 149.125C280.521 145 283.895 140.25 290.392 140.25C297.265 140.25 300.264 145 303.388 149.125C306.137 153.25 308.886 156.625 313.634 156.625C318.382 156.625 321.131 153.25 323.88 149.125C327.004 145 330.378 140.25 336.875 140.25" fill="white"/>
<path d="M337.125 173.25C332.002 173.25 329.628 176.625 326.879 180.75C323.755 184.875 320.381 189.625 313.884 189.625C307.011 189.625 304.012 184.875 300.889 180.75C298.14 176.625 295.391 173.25 290.642 173.25C285.519 173.25 283.145 176.625 280.396 180.75C277.272 184.875 273.899 189.25 267.151 189.25C260.279 189.25 257.28 184.5 254.156 180.375C251.407 176.25 248.658 172.875 243.91 172.875C238.787 172.875 236.412 176.25 233.663 180.375C230.54 184.5 227.166 189.25 220.668 189.25C213.796 189.25 210.797 184.5 207.673 180.375C204.924 176.25 202.175 172.875 197.427 172.875C192.304 172.875 189.93 176.25 187.181 180.375C184.057 184.5 180.683 189.25 174.185 189.25C167.313 189.25 164.314 184.5 161.19 180.375C158.441 176.25 155.692 172.875 150.944 172.875V169.5C157.817 169.5 160.815 174.25 163.939 178.375C166.688 182.5 169.437 185.875 174.185 185.875C179.309 185.875 181.683 182.5 184.432 178.375C187.556 174.25 190.929 169.5 197.427 169.5C204.299 169.5 207.298 174.25 210.422 178.375C213.171 182.5 215.92 185.875 220.668 185.875C225.791 185.875 228.166 182.5 230.914 178.375C234.038 174.25 237.412 169.5 243.91 169.5C250.782 169.5 253.781 174.25 256.905 178.375C259.654 182.5 262.403 185.875 267.151 185.875C271.899 185.875 274.648 182.5 277.397 178.375C280.521 174.25 283.895 169.5 290.392 169.5C297.265 169.5 300.264 174.25 303.388 178.375C306.137 182.5 308.886 185.875 313.634 185.875C318.382 185.875 321.131 182.5 323.88 178.375C327.004 174.25 330.378 169.5 336.875 169.5" fill="white"/>
<path d="M337.125 202.25C332.002 202.25 329.628 205.625 326.879 209.75C323.755 213.875 320.381 218.625 313.884 218.625C307.011 218.625 304.012 213.875 300.889 209.75C298.14 205.625 295.391 202.25 290.642 202.25C285.519 202.25 283.145 205.625 280.396 209.75C277.272 213.875 273.899 218.625 267.151 218.625C260.279 218.625 257.28 213.875 254.156 209.75C251.407 205.625 248.658 202.25 243.91 202.25C238.787 202.25 236.412 205.625 233.663 209.75C230.54 213.875 227.166 218.625 220.668 218.625C213.796 218.625 210.797 213.875 207.673 209.75C204.924 205.625 202.175 202.25 197.427 202.25C192.304 202.25 189.93 205.625 187.181 209.75C184.057 213.875 180.683 218.625 174.185 218.625C167.313 218.625 164.314 213.875 161.19 209.75C158.441 205.625 155.692 202.25 150.944 202.25V198.75C157.817 198.75 160.815 203.5 163.939 207.625C166.688 211.75 169.437 215.125 174.185 215.125C179.309 215.125 181.683 211.75 184.432 207.625C187.556 203.5 190.929 198.75 197.427 198.75C204.299 198.75 207.298 203.5 210.422 207.625C213.171 211.75 215.92 215.125 220.668 215.125C225.791 215.125 228.166 211.75 230.914 207.625C234.038 203.5 237.412 198.75 243.91 198.75C250.782 198.75 253.781 203.5 256.905 207.625C259.654 211.75 262.403 215.125 267.151 215.125C271.899 215.125 274.648 211.75 277.397 207.625C280.521 203.5 283.895 198.75 290.392 198.75C297.265 198.75 300.264 203.5 303.388 207.625C306.137 211.75 308.886 215.125 313.634 215.125C318.382 215.125 321.131 211.75 323.88 207.625C327.004 203.5 330.378 198.75 336.875 198.75" fill="white"/>
<path d="M337.125 231.5C332.002 231.5 329.628 234.875 326.879 239C323.755 243.125 320.381 247.875 313.884 247.875C307.011 247.875 304.012 243.125 300.889 239C298.14 234.875 295.391 231.5 290.642 231.5C285.519 231.5 283.145 234.875 280.396 239C277.272 243.125 273.899 247.875 267.151 247.875C260.279 247.875 257.28 243.125 254.156 239C251.407 234.875 248.658 231.5 243.91 231.5C238.787 231.5 236.412 234.875 233.663 239C230.54 243.125 227.166 247.875 220.668 247.875C213.796 247.875 210.797 243.125 207.673 239C204.924 234.875 202.175 231.5 197.427 231.5C192.304 231.5 189.93 234.875 187.181 239C184.057 243.125 180.683 247.875 174.185 247.875C167.313 247.875 164.314 243.125 161.19 239C158.441 234.875 155.692 231.5 150.944 231.5V228.125C157.817 228.125 160.815 232.875 163.939 237C166.688 241.125 169.437 244.5 174.185 244.5C179.309 244.5 181.683 241.125 184.432 237C187.556 232.875 190.929 228.125 197.427 228.125C204.299 228.125 207.298 232.875 210.422 237C213.171 241.125 215.92 244.5 220.668 244.5C225.791 244.5 228.166 241.125 230.914 237C234.038 232.875 237.412 228.125 243.91 228.125C250.782 228.125 253.781 232.875 256.905 237C259.654 241.125 262.403 244.5 267.151 244.5C271.899 244.5 274.648 241.125 277.397 237C280.521 232.875 283.895 228.125 290.392 228.125C297.265 228.125 300.264 232.875 303.388 237C306.137 241.125 308.886 244.5 313.634 244.5C318.382 244.5 321.131 241.125 323.88 237C327.004 232.875 330.378 228.125 336.875 228.125" fill="white"/>
<path d="M106.586 90.5V160.375H92.9656V85.375L106.586 90.5Z" fill="white"/>
<path d="M53.8551 84.375C53.2304 66 63.1017 56.75 75.5971 56.75C83.0943 56.75 88.8422 59.125 101.463 64.875C110.709 69.25 117.082 72.75 123.954 72.75C130.452 72.75 133.451 67.25 133.826 57.375H144.322C145.446 77.875 134.95 85 123.704 85C116.582 85 109.709 83 97.464 76.875C88.9671 72.75 82.0947 68.75 75.722 68.75C69.3494 68.75 65.2259 73.125 65.2259 84.375H53.8551Z" fill="white"/>
<path d="M100.838 202.5C45.3582 202.5 0.374878 157.5 0.374878 102C0.374878 46.5 45.3582 1.5 100.838 1.5C156.317 1.5 201.301 46.5 201.301 102C201.301 157.25 156.067 202.5 100.838 202.5ZM100.838 7.75C48.732 7.75 6.49761 49.875 6.49761 101.75C6.49761 153.625 48.732 195.75 100.463 195.75C152.194 195.75 194.428 153.5 194.428 101.75C194.428 50 152.569 7.75 100.838 7.75Z" fill="white"/>
<path d="M337.125 114.625C332.002 114.625 329.628 118 326.879 122.125C323.755 126.25 320.381 131 313.884 131C307.011 131 304.012 126.25 300.889 122.125C298.14 118 295.391 114.625 290.642 114.625C285.519 114.625 283.145 118 280.396 122.125C277.272 126.25 273.899 131 267.151 131C260.279 131 257.28 126.25 254.156 122.125C251.407 118 248.658 114.625 243.91 114.625C238.787 114.625 236.412 118 233.663 122.125C230.54 126.25 227.166 131 220.668 131C213.796 131 210.797 126.25 207.673 122.125C204.924 118 202.175 114.625 197.427 114.625C192.304 114.625 189.93 118 187.181 122.125C184.057 126.25 180.683 131 174.185 131C167.313 131 164.314 126.25 161.19 122.125C158.441 118 155.692 114.625 150.944 114.625V111.25C157.817 111.25 160.815 116 163.939 120.125C166.688 124.25 169.437 127.625 174.185 127.625C179.309 127.625 181.683 124.25 184.432 120.125C187.556 116 190.929 111.25 197.427 111.25C204.299 111.25 207.298 116 210.422 120.125C213.171 124.25 215.92 127.625 220.668 127.625C225.791 127.625 228.166 124.25 230.914 120.125C234.038 116 237.412 111.25 243.91 111.25C250.782 111.25 253.781 116 256.905 120.125C259.654 124.25 262.403 127.625 267.151 127.625C271.899 127.625 274.648 124.25 277.397 120.125C280.521 116 283.895 111.25 290.392 111.25C297.265 111.25 300.264 116 303.388 120.125C306.137 124.25 308.886 127.625 313.634 127.625C318.382 127.625 321.131 124.25 323.88 120.125C327.004 116 330.378 111.25 336.875 111.25" fill="white"/>
<path d="M337.125 144C332.002 144 329.628 147.375 326.879 151.5C323.755 155.625 320.381 160.375 313.884 160.375C307.011 160.375 304.012 155.625 300.889 151.5C298.14 147.375 295.391 144 290.642 144C285.519 144 283.145 147.375 280.396 151.5C277.272 155.625 273.899 160 267.151 160C260.279 160 257.28 155.25 254.156 151.125C251.407 147 248.658 143.625 243.91 143.625C238.787 143.625 236.412 147 233.663 151.125C230.54 155.25 227.166 160 220.668 160C213.796 160 210.797 155.25 207.673 151.125C204.924 147 202.175 143.625 197.427 143.625C192.304 143.625 189.93 147 187.181 151.125C184.057 155.25 180.683 160 174.185 160C167.313 160 164.314 155.25 161.19 151.125C158.441 147 155.692 143.625 150.944 143.625V140.25C157.817 140.25 160.815 145 163.939 149.125C166.688 153.25 169.437 156.625 174.185 156.625C179.309 156.625 181.683 153.25 184.432 149.125C187.556 145 190.929 140.25 197.427 140.25C204.299 140.25 207.298 145 210.422 149.125C213.171 153.25 215.92 156.625 220.668 156.625C225.791 156.625 228.166 153.25 230.914 149.125C234.038 145 237.412 140.25 243.91 140.25C250.782 140.25 253.781 145 256.905 149.125C259.654 153.25 262.403 156.625 267.151 156.625C271.899 156.625 274.648 153.25 277.397 149.125C280.521 145 283.895 140.25 290.392 140.25C297.265 140.25 300.264 145 303.388 149.125C306.137 153.25 308.886 156.625 313.634 156.625C318.382 156.625 321.131 153.25 323.88 149.125C327.004 145 330.378 140.25 336.875 140.25" fill="white"/>
<path d="M337.125 173.25C332.002 173.25 329.628 176.625 326.879 180.75C323.755 184.875 320.381 189.625 313.884 189.625C307.011 189.625 304.012 184.875 300.889 180.75C298.14 176.625 295.391 173.25 290.642 173.25C285.519 173.25 283.145 176.625 280.396 180.75C277.272 184.875 273.899 189.25 267.151 189.25C260.279 189.25 257.28 184.5 254.156 180.375C251.407 176.25 248.658 172.875 243.91 172.875C238.787 172.875 236.412 176.25 233.663 180.375C230.54 184.5 227.166 189.25 220.668 189.25C213.796 189.25 210.797 184.5 207.673 180.375C204.924 176.25 202.175 172.875 197.427 172.875C192.304 172.875 189.93 176.25 187.181 180.375C184.057 184.5 180.683 189.25 174.185 189.25C167.313 189.25 164.314 184.5 161.19 180.375C158.441 176.25 155.692 172.875 150.944 172.875V169.5C157.817 169.5 160.815 174.25 163.939 178.375C166.688 182.5 169.437 185.875 174.185 185.875C179.309 185.875 181.683 182.5 184.432 178.375C187.556 174.25 190.929 169.5 197.427 169.5C204.299 169.5 207.298 174.25 210.422 178.375C213.171 182.5 215.92 185.875 220.668 185.875C225.791 185.875 228.166 182.5 230.914 178.375C234.038 174.25 237.412 169.5 243.91 169.5C250.782 169.5 253.781 174.25 256.905 178.375C259.654 182.5 262.403 185.875 267.151 185.875C271.899 185.875 274.648 182.5 277.397 178.375C280.521 174.25 283.895 169.5 290.392 169.5C297.265 169.5 300.264 174.25 303.388 178.375C306.137 182.5 308.886 185.875 313.634 185.875C318.382 185.875 321.131 182.5 323.88 178.375C327.004 174.25 330.378 169.5 336.875 169.5" fill="white"/>
<path d="M337.125 202.25C332.002 202.25 329.628 205.625 326.879 209.75C323.755 213.875 320.381 218.625 313.884 218.625C307.011 218.625 304.012 213.875 300.889 209.75C298.14 205.625 295.391 202.25 290.642 202.25C285.519 202.25 283.145 205.625 280.396 209.75C277.272 213.875 273.899 218.625 267.151 218.625C260.279 218.625 257.28 213.875 254.156 209.75C251.407 205.625 248.658 202.25 243.91 202.25C238.787 202.25 236.412 205.625 233.663 209.75C230.54 213.875 227.166 218.625 220.668 218.625C213.796 218.625 210.797 213.875 207.673 209.75C204.924 205.625 202.175 202.25 197.427 202.25C192.304 202.25 189.93 205.625 187.181 209.75C184.057 213.875 180.683 218.625 174.185 218.625C167.313 218.625 164.314 213.875 161.19 209.75C158.441 205.625 155.692 202.25 150.944 202.25V198.75C157.817 198.75 160.815 203.5 163.939 207.625C166.688 211.75 169.437 215.125 174.185 215.125C179.309 215.125 181.683 211.75 184.432 207.625C187.556 203.5 190.929 198.75 197.427 198.75C204.299 198.75 207.298 203.5 210.422 207.625C213.171 211.75 215.92 215.125 220.668 215.125C225.791 215.125 228.166 211.75 230.914 207.625C234.038 203.5 237.412 198.75 243.91 198.75C250.782 198.75 253.781 203.5 256.905 207.625C259.654 211.75 262.403 215.125 267.151 215.125C271.899 215.125 274.648 211.75 277.397 207.625C280.521 203.5 283.895 198.75 290.392 198.75C297.265 198.75 300.264 203.5 303.388 207.625C306.137 211.75 308.886 215.125 313.634 215.125C318.382 215.125 321.131 211.75 323.88 207.625C327.004 203.5 330.378 198.75 336.875 198.75" fill="white"/>
<path d="M337.125 231.5C332.002 231.5 329.628 234.875 326.879 239C323.755 243.125 320.381 247.875 313.884 247.875C307.011 247.875 304.012 243.125 300.889 239C298.14 234.875 295.391 231.5 290.642 231.5C285.519 231.5 283.145 234.875 280.396 239C277.272 243.125 273.899 247.875 267.151 247.875C260.279 247.875 257.28 243.125 254.156 239C251.407 234.875 248.658 231.5 243.91 231.5C238.787 231.5 236.412 234.875 233.663 239C230.54 243.125 227.166 247.875 220.668 247.875C213.796 247.875 210.797 243.125 207.673 239C204.924 234.875 202.175 231.5 197.427 231.5C192.304 231.5 189.93 234.875 187.181 239C184.057 243.125 180.683 247.875 174.185 247.875C167.313 247.875 164.314 243.125 161.19 239C158.441 234.875 155.692 231.5 150.944 231.5V228.125C157.817 228.125 160.815 232.875 163.939 237C166.688 241.125 169.437 244.5 174.185 244.5C179.309 244.5 181.683 241.125 184.432 237C187.556 232.875 190.929 228.125 197.427 228.125C204.299 228.125 207.298 232.875 210.422 237C213.171 241.125 215.92 244.5 220.668 244.5C225.791 244.5 228.166 241.125 230.914 237C234.038 232.875 237.412 228.125 243.91 228.125C250.782 228.125 253.781 232.875 256.905 237C259.654 241.125 262.403 244.5 267.151 244.5C271.899 244.5 274.648 241.125 277.397 237C280.521 232.875 283.895 228.125 290.392 228.125C297.265 228.125 300.264 232.875 303.388 237C306.137 241.125 308.886 244.5 313.634 244.5C318.382 244.5 321.131 241.125 323.88 237C327.004 232.875 330.378 228.125 336.875 228.125" fill="white"/>
</g>
<defs>
<clipPath id="clip0_40_1017">
<rect width="337.75" height="250" fill="white"/>
</clipPath>
</defs>
</svg>
