<svg xmlns="http://www.w3.org/2000/svg" width="30" height="30" viewBox="0 0 30 30" fill="none">
	<g opacity="0.2">
		<rect width="30" height="30" rx="8" fill="#C1E9F4" />
		<path fill-rule="evenodd" clip-rule="evenodd"
			d="M9.40114 10.8619V10.6007V10C9.40114 7.23857 11.6397 5 14.4011 5H15.6026C18.3641 5 20.6026 7.23858 20.6026 10V10.6007V10.862C22.5799 11.5288 24.0037 13.3986 24.0037 15.6008V20.0038C24.0037 22.7652 21.7651 25.0038 19.0037 25.0038H11C8.23858 25.0038 6 22.7652 6 20.0038V15.6008C6 13.3986 7.42382 11.5288 9.40114 10.8619ZM10.5009 12.6007V13.5017C10.5009 13.6398 10.6129 13.7517 10.7509 13.7517H11.1513C11.2894 13.7517 11.4013 13.6398 11.4013 13.5017V12.6007H11.4011H10.5009ZM18.6026 12.6007V13.5017C18.6026 13.6398 18.7145 13.7517 18.8526 13.7517H19.253C19.391 13.7517 19.503 13.6398 19.503 13.5017V12.6007H18.6026H18.6026ZM18.257 8.60074C18.4777 9.01851 18.6026 9.49466 18.6026 10V10.6007H16.6026H13.4011H11.4011V10C11.4011 9.49466 11.5261 9.01851 11.7468 8.60074C12.2496 7.64878 13.2496 7 14.4011 7H15.6026C16.7542 7 17.7541 7.64878 18.257 8.60074Z"
			fill="#126797" />
	</g>
</svg>