<svg xmlns="http://www.w3.org/2000/svg" width="28" height="30" viewBox="0 0 28 30" fill="none">
	<path fill-rule="evenodd" clip-rule="evenodd"
		d="M21.3727 7.53506V5C21.3727 2.23857 19.1341 0 16.3727 0H11.3026C8.54115 0 6.30258 2.23858 6.30258 5V7.53506L5 7.53506C2.23858 7.53506 0 9.77364 0 12.5351V24.6753C0 27.4367 2.23857 29.6753 5 29.6753H22.6753C25.4367 29.6753 27.6753 27.4367 27.6753 24.6753V12.5351C27.6753 9.77363 25.4367 7.53506 22.6753 7.53506L21.3727 7.53506ZM8.30258 5C8.30258 3.34315 9.64572 2 11.3026 2H16.3727C18.0295 2 19.3727 3.34315 19.3727 5V5.53506V7.53506H17.3727H10.3026H8.30258V5.53506V5ZM7.16882 9.6107C7.03074 9.6107 6.91882 9.72263 6.91882 9.8607V12.1282C6.91882 12.2663 7.03074 12.3782 7.16882 12.3782H8.05258C8.19065 12.3782 8.30258 12.2663 8.30258 12.1282V9.8607C8.30258 9.72263 8.19065 9.6107 8.05258 9.6107H7.16882ZM19.3727 9.8607C19.3727 9.72263 19.4846 9.6107 19.6227 9.6107H20.5065C20.6445 9.6107 20.7565 9.72263 20.7565 9.8607V12.1282C20.7565 12.2663 20.6445 12.3782 20.5065 12.3782H19.6227C19.4846 12.3782 19.3727 12.2663 19.3727 12.1282V9.8607Z"
		fill="#129757" />
</svg>