<svg xmlns="http://www.w3.org/2000/svg" width="60" height="60" viewBox="0 0 60 60" fill="none">
	<path
		d="M20.8682 8.8785C22.3386 8.60328 23.8129 9.33744 24.4544 10.6644C24.6141 10.9052 24.7419 11.1649 24.8347 11.4374C25.2423 17.7279 25.6769 23.9118 26.0845 30.0957C26.0752 30.7385 26.1762 31.3783 26.3833 31.9882C26.8708 33.1882 28.0841 33.9496 29.399 33.8807L49.3674 32.6012L49.5033 32.6545L49.8677 32.6808C50.5896 32.7732 51.2626 33.1027 51.7736 33.6211C52.3697 34.226 52.6965 35.0385 52.6824 35.8798C51.8951 47.346 43.4885 56.9265 32.0483 59.3947C20.6081 61.8629 8.88052 56.6263 3.26335 46.5417C1.61165 43.6371 0.567908 40.4382 0.193362 37.1325C0.048094 36.153 -0.0155088 35.1635 0.00318596 34.1739C0.0410473 21.9812 8.72183 11.4572 20.8682 8.8785ZM32.7406 0.0024747C46.453 0.412964 57.9131 10.3674 59.9901 23.6719C60.0033 23.7513 60.0033 23.8323 59.9901 23.9118L59.9864 24.2874C59.9413 24.7839 59.7374 25.2574 59.3989 25.6375C58.9757 26.1128 58.377 26.403 57.7352 26.444L34.6967 27.9633L34.3172 27.9708C33.6883 27.9402 33.0853 27.6956 32.6155 27.2728C32.0518 26.7654 31.7323 26.0484 31.7354 25.2978L30.1868 2.66795V2.29478C30.215 1.65833 30.5001 1.05901 30.9792 0.628988C31.4582 0.198967 32.092 -0.0264395 32.7406 0.0024747Z"
		fill="#129757" />
</svg>