<svg xmlns="http://www.w3.org/2000/svg" width="32" height="27" viewBox="0 0 32 27" fill="none">
	<path fill-rule="evenodd" clip-rule="evenodd"
		d="M1.75 12.7496C1.33579 12.7496 0.999999 13.0854 0.999999 13.4996C0.999999 13.9138 1.33579 14.2496 1.75 14.2496L28.4101 14.2496L18.23 24.2146C17.934 24.5043 17.9289 24.9792 18.2187 25.2752C18.5084 25.5712 18.9833 25.5763 19.2793 25.2865L30.7698 14.0388C30.7742 14.0345 30.7786 14.0302 30.7829 14.0258C30.9212 13.8856 30.999 13.6964 30.999 13.499C30.999 13.2973 30.9178 13.1041 30.7736 12.9631L19.2792 1.71344C18.9832 1.42371 18.5083 1.42882 18.2186 1.72485C17.9289 2.02088 17.934 2.49572 18.23 2.78545L28.411 12.7496L1.75 12.7496Z"
		fill="black" />
	<path
		d="M1.75 12.7496L1.75 11.7496L1.75 12.7496ZM1.75 14.2496L1.75 13.2496L1.75 14.2496ZM28.4101 14.2496L29.1096 14.9642C29.4 14.6799 29.4895 14.2482 29.336 13.8719C29.1825 13.4956 28.8165 13.2496 28.4101 13.2496L28.4101 14.2496ZM18.23 24.2146L17.5305 23.5L17.5305 23.5L18.23 24.2146ZM18.2187 25.2752L17.504 25.9747L17.504 25.9747L18.2187 25.2752ZM19.2793 25.2865L19.9788 26.0011L19.9788 26.0011L19.2793 25.2865ZM30.7698 14.0388L30.0746 13.3199L30.0703 13.3242L30.7698 14.0388ZM30.7829 14.0258L30.0711 13.3235L30.0704 13.3241L30.7829 14.0258ZM30.999 13.499L29.999 13.4991L29.999 13.4991L30.999 13.499ZM30.7736 12.9631L30.0741 13.6777L30.0741 13.6777L30.7736 12.9631ZM19.2792 1.71344L18.5798 2.42811L19.2792 1.71344ZM18.23 2.78545L18.9295 2.07078L18.23 2.78545ZM28.411 12.7496L28.411 13.7496C28.8174 13.7496 29.1834 13.5036 29.3369 13.1273C29.4904 12.751 29.4009 12.3192 29.1104 12.0349L28.411 12.7496ZM2 13.4996C2 13.6377 1.88807 13.7496 1.75 13.7496L1.75 11.7496C0.783501 11.7496 -5.66825e-07 12.5331 -5.24578e-07 13.4996L2 13.4996ZM1.75 13.2496C1.88807 13.2496 2 13.3615 2 13.4996L-5.24578e-07 13.4996C-4.82331e-07 14.4661 0.783501 15.2496 1.75 15.2496L1.75 13.2496ZM28.4101 13.2496L1.75 13.2496L1.75 15.2496L28.4101 15.2496L28.4101 13.2496ZM18.9295 24.9292L29.1096 14.9642L27.7106 13.535L17.5305 23.5L18.9295 24.9292ZM18.9333 24.5757C19.0299 24.6743 19.0282 24.8326 18.9295 24.9292L17.5305 23.5C16.8398 24.176 16.828 25.284 17.504 25.9747L18.9333 24.5757ZM18.5797 24.5719C18.6784 24.4753 18.8367 24.477 18.9333 24.5757L17.504 25.9747C18.1801 26.6654 19.2881 26.6772 19.9788 26.0011L18.5797 24.5719ZM30.0703 13.3242L18.5797 24.5719L19.9788 26.0011L31.4693 14.7534L30.0703 13.3242ZM30.0704 13.3241C30.0718 13.3227 30.0732 13.3213 30.0746 13.32L31.465 14.7576C31.4753 14.7477 31.4854 14.7377 31.4953 14.7276L30.0704 13.3241ZM29.999 13.4991C29.999 13.4333 30.0249 13.3702 30.0711 13.3235L31.4947 14.7282C31.8176 14.401 31.999 13.9595 31.999 13.499L29.999 13.4991ZM30.0741 13.6777C30.0261 13.6307 29.999 13.5663 29.999 13.4991L31.999 13.499C31.999 13.0284 31.8094 12.5776 31.4731 12.2484L30.0741 13.6777ZM18.5798 2.42811L30.0741 13.6777L31.4731 12.2484L19.9787 0.998761L18.5798 2.42811ZM18.9333 2.42431C18.8367 2.52298 18.6784 2.52469 18.5798 2.42811L19.9787 0.998761C19.2879 0.322738 18.18 0.334661 17.5039 1.02539L18.9333 2.42431ZM18.9295 2.07078C19.0282 2.16735 19.0299 2.32563 18.9333 2.42431L17.5039 1.02539C16.8279 1.71613 16.8398 2.8241 17.5306 3.50013L18.9295 2.07078ZM29.1104 12.0349L18.9295 2.07078L17.5306 3.50013L27.7115 13.4643L29.1104 12.0349ZM1.75 13.7496L28.411 13.7496L28.411 11.7496L1.75 11.7496L1.75 13.7496Z"
		fill="black" />
</svg>