<svg xmlns="http://www.w3.org/2000/svg" width="24" height="27" viewBox="0 0 24 27" fill="none">
	<path fill-rule="evenodd" clip-rule="evenodd"
		d="M0 4C0 1.79086 1.79086 0 4 0H11.4412C13.6503 0 15.4412 1.79086 15.4412 4V12.3529H7.80608C7.47471 12.3529 7.20608 12.6216 7.20608 12.9529V13.8118C7.20608 14.1431 7.47471 14.4118 7.80608 14.4118H15.4412V22.7647C15.4412 24.9738 13.6503 26.7647 11.4412 26.7647H4C1.79086 26.7647 0 24.9738 0 22.7647V4ZM19.8088 14.4118H15.4412V12.3529H20.0739L17.9371 10.2162C17.6959 9.97496 17.6959 9.58388 17.9371 9.34268L18.5194 8.76035C18.7606 8.51915 19.1517 8.51915 19.3929 8.76035L23.3236 12.691L23.327 12.6927L23.4507 12.8164C23.6919 13.0576 23.6919 13.4487 23.4507 13.6899L23.327 13.8136L23.3228 13.8094L19.3928 17.7394C19.1516 17.9807 18.7605 17.9807 18.5193 17.7394L17.937 17.1571C17.6957 16.9159 17.6957 16.5248 17.937 16.2836L19.8088 14.4118Z"
		fill="#126797" />
</svg>