<svg xmlns="http://www.w3.org/2000/svg" width="30" height="30" viewBox="0 0 30 30" fill="none">
	<g opacity="0.2">
		<rect width="30" height="30" rx="8" fill="#C1E9F4" />
		<path fill-rule="evenodd" clip-rule="evenodd"
			d="M8.84781 5C8.3278 5 7.90625 5.42155 7.90625 5.94155C7.90625 6.46156 8.3278 6.88311 8.84781 6.88311H20.0564C20.5764 6.88311 20.9979 6.46156 20.9979 5.94155C20.9979 5.42155 20.5764 5 20.0564 5H8.84781ZM6.03601 9.44814C6.03601 8.92814 6.45756 8.50659 6.97757 8.50659H21.9266C22.4466 8.50659 22.8681 8.92814 22.8681 9.44814C22.8681 9.96815 22.4466 10.3897 21.9266 10.3897H6.97756C6.45756 10.3897 6.03601 9.96815 6.03601 9.44814ZM5.04668 15.5357C4.72168 13.6984 6.13493 12.0132 8.00082 12.0132H20.9998C22.8657 12.0132 24.2789 13.6984 23.9539 15.5357L22.718 22.5227C22.4645 23.9557 21.2191 25.0001 19.7639 25.0001H9.23672C7.78145 25.0001 6.53606 23.9557 6.28258 22.5227L5.04668 15.5357Z"
			fill="#2F3E51" />
	</g>
</svg>