<svg xmlns="http://www.w3.org/2000/svg" width="30" height="30" viewBox="0 0 30 30" fill="none">
	<g opacity="0.2">
		<rect width="30" height="30" rx="8" fill="#C1E9F4" />
		<path
			d="M15.6148 6.85712C16.263 6.85712 16.8499 7.21712 17.174 7.74855C17.3317 8.00569 17.4368 8.32283 17.4105 8.65712C17.393 8.91426 17.4718 9.1714 17.612 9.4114C18.0587 10.14 19.0486 10.4143 19.8194 10.0028C20.6866 9.50569 21.7816 9.80569 22.2809 10.6543L22.8678 11.6657C23.3758 12.5143 23.0955 13.6028 22.2196 14.0914C21.475 14.5285 21.2122 15.4971 21.6589 16.2343C21.7991 16.4657 21.9568 16.6628 22.202 16.7828C22.5086 16.9457 22.7451 17.2028 22.9116 17.46C23.2357 17.9914 23.2094 18.6428 22.8941 19.2171L22.2809 20.2457C21.9568 20.7943 21.3524 21.1371 20.7304 21.1371C20.4238 21.1371 20.0822 21.0514 19.8019 20.88C19.5742 20.7343 19.3114 20.6828 19.0311 20.6828C18.1639 20.6828 17.4368 21.3943 17.4105 22.2428C17.4105 23.2285 16.6046 24 15.5973 24H14.406C13.3899 24 12.584 23.2285 12.584 22.2428C12.5664 21.3943 11.8394 20.6828 10.9722 20.6828C10.6831 20.6828 10.4203 20.7343 10.2013 20.88C9.92104 21.0514 9.57065 21.1371 9.27282 21.1371C8.64213 21.1371 8.03772 20.7943 7.71361 20.2457L7.10919 19.2171C6.78509 18.66 6.76757 17.9914 7.09168 17.46C7.23183 17.2028 7.49462 16.9457 7.79245 16.7828C8.03772 16.6628 8.19539 16.4657 8.3443 16.2343C8.78229 15.4971 8.5195 14.5285 7.77493 14.0914C6.90772 13.6028 6.62741 12.5143 7.12671 11.6657L7.71361 10.6543C8.22167 9.80569 9.30786 9.50569 10.1838 10.0028C10.9459 10.4143 11.9358 10.14 12.3825 9.4114C12.5226 9.1714 12.6015 8.91426 12.584 8.65712C12.5664 8.32283 12.6628 8.00569 12.8292 7.74855C13.1533 7.21712 13.7402 6.87426 14.3797 6.85712H15.6148ZM15.0104 13.0114C13.6351 13.0114 12.5226 14.0914 12.5226 15.4371C12.5226 16.7828 13.6351 17.8543 15.0104 17.8543C16.3856 17.8543 17.4718 16.7828 17.4718 15.4371C17.4718 14.0914 16.3856 13.0114 15.0104 13.0114Z"
			fill="#142647" />
	</g>
</svg>