<svg xmlns="http://www.w3.org/2000/svg" width="30" height="30" viewBox="0 0 30 30" fill="none">
	<g opacity="0.2">
		<rect width="30" height="30" rx="8" fill="#C1E9F4" />
		<path
			d="M19.6536 17.3198C20.8802 17.2945 22.1989 17.482 22.6862 17.6151C23.7185 17.841 24.3975 18.3022 24.6789 18.9724C24.9166 19.5226 24.9166 20.161 24.6789 20.7103C24.2485 21.7498 22.8612 22.0835 22.322 22.1697C22.2106 22.1885 22.121 22.0807 22.1328 21.956C22.4082 19.0755 20.2171 17.7097 19.6503 17.3957C19.626 17.3817 19.621 17.3601 19.6235 17.347C19.6252 17.3376 19.6352 17.3226 19.6536 17.3198ZM9.48996 17.3202C9.50838 17.323 9.51759 17.338 9.51927 17.3464C9.52178 17.3605 9.51676 17.3811 9.49331 17.3961C8.92565 17.7101 6.73454 19.0759 7.01 21.9555C7.02172 22.0811 6.93297 22.1879 6.82162 22.1701C6.28242 22.0839 4.89508 21.7502 4.46473 20.7106C4.22611 20.1604 4.22611 19.523 4.46473 18.9728C4.74605 18.3025 5.42423 17.8414 6.45657 17.6145C6.94469 17.4823 8.26254 17.2949 9.48996 17.3202ZM14.5238 7.71423C16.7082 7.71423 18.4598 9.67333 18.4598 12.1199C18.4598 14.5654 16.7082 16.5264 14.5238 16.5264C12.3394 16.5264 10.5879 14.5654 10.5879 12.1199C10.5879 9.67333 12.3394 7.71423 14.5238 7.71423ZM19.8671 8.44894C21.977 8.44894 23.634 10.6714 23.0696 13.147C22.6887 14.8137 21.3097 15.9207 19.7734 15.8757C19.6193 15.871 19.4678 15.8551 19.3212 15.827C19.2149 15.8063 19.1613 15.6723 19.2216 15.5729C19.8077 14.6074 20.1417 13.446 20.1417 12.1993C20.1417 10.8983 19.7767 9.68533 19.1429 8.69078C19.1228 8.65985 19.1077 8.61204 19.1278 8.57642C19.1446 8.54736 19.1756 8.53237 19.2049 8.52487C19.4184 8.47612 19.6377 8.44894 19.8671 8.44894ZM9.27521 8.44885C9.50462 8.44885 9.72398 8.47603 9.93832 8.52477C9.96678 8.53227 9.9986 8.54821 10.0153 8.57633C10.0346 8.61195 10.0204 8.65975 10.0003 8.69069C9.36647 9.68523 9.00142 10.8982 9.00142 12.1992C9.00142 13.4459 9.33549 14.6073 9.92157 15.5728C9.98185 15.6722 9.92827 15.8062 9.82194 15.8269C9.67458 15.8559 9.52387 15.8709 9.36982 15.8756C7.83344 15.9206 6.45448 14.8136 6.07353 13.1469C5.50838 10.6713 7.16531 8.44885 9.27521 8.44885Z"
			fill="#D34A4E" />
		<path d="M8.96094 21.0086C8.96094 19.1274 10.486 17.6023 12.3672 17.6023H16.7754C18.6567 17.6023 20.1817 19.1274 20.1817 21.0086C20.1817 21.7141 19.6098 22.286 18.9044 22.286H10.2383C9.53283 22.286 8.96094 21.7141 8.96094 21.0086Z" fill="#D34A4E" />
	</g>
</svg>