<svg xmlns="http://www.w3.org/2000/svg" width="35" height="23" viewBox="0 0 35 23" fill="none">
	<path
		d="M26.1467 14.6823C28.2336 14.6436 30.4772 14.9302 31.3063 15.1336C33.0627 15.4789 34.2179 16.1839 34.6966 17.2083C35.1011 18.0493 35.1011 19.0251 34.6966 19.8647C33.9644 21.4536 31.604 21.9637 30.6866 22.0955C30.4971 22.1242 30.3447 21.9594 30.3647 21.7689C30.8333 17.3659 27.1054 15.2783 26.141 14.7984C26.0997 14.7769 26.0912 14.7439 26.0954 14.7239C26.0983 14.7095 26.1154 14.6866 26.1467 14.6823ZM8.85436 14.6829C8.8857 14.6872 8.90137 14.7101 8.90422 14.723C8.90849 14.7445 8.89995 14.776 8.86006 14.7989C7.89425 15.2789 4.16632 17.3665 4.63498 21.768C4.65492 21.96 4.50393 22.1233 4.31447 22.0961C3.39709 21.9643 1.03668 21.4542 0.304488 19.8653C-0.101496 19.0242 -0.101496 18.0499 0.304488 17.2089C0.783121 16.1844 1.93697 15.4795 3.69338 15.1328C4.52387 14.9308 6.76604 14.6442 8.85436 14.6829ZM17.4189 0C21.1354 0 24.1155 2.99452 24.1155 6.73408C24.1155 10.4722 21.1354 13.4696 17.4189 13.4696C13.7024 13.4696 10.7223 10.4722 10.7223 6.73408C10.7223 2.99452 13.7024 0 17.4189 0ZM26.51 1.12302C30.0997 1.12302 32.9188 4.52015 31.9587 8.30413C31.3105 10.8516 28.9644 12.5437 26.3504 12.475C26.0883 12.4678 25.8305 12.4434 25.5812 12.4005C25.4003 12.3689 25.3091 12.164 25.4117 12.0122C26.4088 10.5364 26.9772 8.76119 26.9772 6.85558C26.9772 4.86688 26.3561 3.01286 25.2778 1.49267C25.2436 1.44539 25.2179 1.37232 25.2521 1.31787C25.2806 1.27346 25.3333 1.25053 25.3832 1.23907C25.7464 1.16457 26.1196 1.12302 26.51 1.12302ZM8.48898 1.12287C8.87929 1.12287 9.25251 1.16442 9.61719 1.23893C9.66562 1.25039 9.71975 1.27475 9.74824 1.31773C9.781 1.37218 9.75679 1.44525 9.7226 1.49253C8.64425 3.01271 8.02316 4.86674 8.02316 6.85544C8.02316 8.76104 8.59154 10.5363 9.5887 12.012C9.69126 12.1639 9.60009 12.3688 9.41918 12.4003C9.16847 12.4447 8.91206 12.4677 8.64995 12.4748C6.03598 12.5436 3.68982 10.8515 3.04167 8.30398C2.08013 4.52 4.89923 1.12287 8.48898 1.12287Z"
		fill="#0BBBEF" />
	<path d="M7.95459 20.3203C7.95459 17.4447 10.2857 15.1136 13.1612 15.1136H21.8389C24.7144 15.1136 27.0455 17.4447 27.0455 20.3203C27.0455 21.3986 26.1713 22.2727 25.093 22.2727H9.90707C8.82875 22.2727 7.95459 21.3986 7.95459 20.3203Z" fill="#0BBBEF" />
</svg>