<svg width="30" height="30" viewBox="0 0 30 30" fill="none" xmlns="http://www.w3.org/2000/svg">
	<path d="M30 15C30 23.2842 23.2842 30 15 30C6.71667 30 0 23.2842 0 15C0 6.71667 6.71667 0 15 0C23.2842 0 30 6.71667 30 15Z" fill="#FFCC4D" />
	<path
		d="M5.83412 12.5C5.56495 12.5 5.30079 12.37 5.13995 12.1292C4.88495 11.7458 4.98829 11.2283 5.37079 10.9733C5.48162 10.9 8.12162 9.16667 11.6666 9.16667C12.1266 9.16667 12.5 9.54001 12.5 10C12.5 10.46 12.1266 10.8333 11.6666 10.8333C8.62079 10.8333 6.31829 12.345 6.29579 12.36C6.15329 12.455 5.99245 12.5 5.83412 12.5ZM24.1658 12.5C24.0083 12.5 23.8475 12.455 23.7058 12.3608C23.6825 12.3458 21.3566 10.8333 18.3333 10.8333C17.8725 10.8333 17.5 10.46 17.5 10C17.5 9.54001 17.8725 9.16667 18.3333 9.16667C21.8783 9.16667 24.5183 10.9 24.6291 10.9733C25.0125 11.2283 25.1158 11.7458 24.86 12.1292C24.7 12.37 24.435 12.5 24.1658 12.5Z"
		fill="#664500" />
	<path
		d="M22.5 18.4092L30 15C30 14.45 29.9658 13.9092 29.9092 13.375L22.5 16.7425V15.8333C22.5 14.9133 21.7533 14.1667 20.8333 14.1667H9.16667C8.24667 14.1667 7.5 14.9133 7.5 15.8333V16.7425L0.0916667 13.375C0.0341667 13.9092 0 14.45 0 15L7.5 18.4092V22.1975L1.28917 21.0683C1.57333 21.71 1.90667 22.3242 2.275 22.9142L7.5 23.8642V25C7.5 25.92 8.24667 26.6667 9.16667 26.6667H20.8333C21.7533 26.6667 22.5 25.92 22.5 25V23.8642L27.7258 22.9133C28.0933 22.3233 28.4267 21.7092 28.7108 21.0675L22.5 22.1975V18.4092Z"
		fill="#F5F8FA" />
</svg>