<svg xmlns="http://www.w3.org/2000/svg" width="30" height="30" viewBox="0 0 30 30" fill="none">
	<g opacity="0.3">
		<rect width="30" height="30" rx="8" fill="#C1E9F4" />
		<path
			d="M18.2871 6.85718C21.1911 6.85718 23.1429 8.89546 23.1429 11.9289V18.9292C23.1429 21.9626 21.1911 24 18.2863 24H10.8566C7.95171 24 6 21.9626 6 18.9292V11.9289C6 8.89546 7.95171 6.85718 10.8566 6.85718H18.2871ZM11.8637 13.1992C10.6346 13.1992 9.63429 14.1995 9.63429 15.4286C9.63429 16.6586 10.6346 17.6589 11.8637 17.6589C12.8683 17.6589 13.71 16.9869 13.9877 16.0715H15.798V17.016C15.798 17.3709 16.086 17.6589 16.4409 17.6589C16.7957 17.6589 17.0837 17.3709 17.0837 17.016V16.0715H18.2237V17.016C18.2237 17.3709 18.5117 17.6589 18.8666 17.6589C19.2214 17.6589 19.5094 17.3709 19.5094 17.016V15.4286C19.5094 15.0737 19.2214 14.7857 18.8666 14.7857H13.9877C13.71 13.8712 12.8683 13.1992 11.8637 13.1992ZM11.8638 14.4848C12.3841 14.4848 12.8084 14.9082 12.8084 15.4294C12.8084 15.9497 12.3841 16.3731 11.8638 16.3731C11.3435 16.3731 10.9192 15.9497 10.9192 15.4294C10.9192 14.9082 11.3435 14.4848 11.8638 14.4848Z"
			fill="#0BBBEF" />
	</g>
</svg>