<svg width="30" height="35" viewBox="0 0 30 35" fill="none" xmlns="http://www.w3.org/2000/svg">
	<path
		d="M18.9557 19.8534C18.9033 19.062 18.8228 18.2962 18.7161 17.5648C18.587 16.6888 18.426 15.8639 18.2455 15.0912C18.0796 14.3795 17.9001 13.7161 17.7138 13.1058C17.4344 12.1894 17.1472 11.395 16.8872 10.7434C16.3758 9.46475 15.9722 8.73241 15.9722 8.73241L12.4667 9.19111C12.4667 9.19111 12.8713 10.0475 13.3089 11.7258C13.4865 12.4069 13.6689 13.2259 13.8328 14.1817C13.9163 14.664 13.9939 15.1778 14.0637 15.73C14.1608 16.4988 14.2413 17.3365 14.2985 18.2391C14.3315 18.749 14.3548 19.2805 14.3703 19.8327C14.3762 20.0335 14.3849 20.2274 14.3878 20.4342C14.3975 21.0799 14.3529 21.7364 14.2733 22.392C14.2015 22.9826 14.0967 23.5702 13.9716 24.153C13.7921 24.9877 13.5709 25.8076 13.3215 26.5892C13.1197 27.2221 12.9033 27.8304 12.686 28.4004C12.3522 29.2774 12.0165 30.0658 11.7264 30.7224C11.2394 31.8239 10.8813 32.5562 10.8813 32.7088C10.8813 33.1911 11.2209 34.0947 13.5951 34.6971C17.3082 35.6382 17.6663 34.0859 17.6663 34.0859C17.6663 34.0859 17.902 33.3594 18.1766 31.9282C18.3124 31.2215 18.457 30.3483 18.588 29.2922C18.6666 28.6602 18.7393 27.9653 18.8034 27.2093C18.8694 26.4218 18.9247 25.5684 18.9635 24.6451C18.9926 23.9462 19.0091 23.1982 19.0168 22.4215C19.0188 22.1794 19.0246 21.9451 19.0246 21.6961C19.0246 21.0661 18.9955 20.4548 18.9557 19.8534Z"
		fill="#C1694F" />
	<path
		d="M15.3929 29.3463C14.0316 29.1061 13.1633 28.7035 12.6869 28.4023C12.3531 29.2794 12.0174 30.0678 11.7273 30.7244C12.616 31.2155 13.7444 31.6053 14.9689 31.8209C15.6762 31.9459 16.3777 32.0089 17.0365 32.0089C17.4381 32.0089 17.8156 31.9764 18.1775 31.9302C18.3133 31.2234 18.4579 30.3503 18.5889 29.2941C18.1581 29.4487 17.0869 29.6455 15.3929 29.3463ZM16.4213 24.7465C15.3609 24.6402 14.5449 24.404 13.9715 24.1539C13.792 24.9887 13.5708 25.8086 13.3214 26.5902C14.1597 26.9111 15.1464 27.1424 16.1788 27.2457C16.595 27.2871 17.0083 27.3087 17.411 27.3087C17.898 27.3087 18.3599 27.2703 18.8033 27.2113C18.8693 26.4238 18.9246 25.5704 18.9634 24.6471C18.3541 24.78 17.4993 24.8538 16.4213 24.7465ZM16.7211 22.6469C17.5187 22.6469 18.3026 22.5652 19.0167 22.4225C19.0187 22.1804 19.0245 21.9461 19.0245 21.697C19.0245 21.0661 18.9964 20.4548 18.9556 19.8534C18.4423 19.9892 17.7088 20.1211 16.6736 20.1349C15.6218 20.13 14.8816 19.9823 14.3702 19.8337C14.3761 20.0345 14.3848 20.2284 14.3877 20.4351C14.3974 21.0809 14.3528 21.7374 14.2732 22.393C15.0135 22.5514 15.8305 22.642 16.661 22.6459L16.7211 22.6469ZM16.4795 18.1416C17.28 18.0245 18.0222 17.8139 18.715 17.5658C18.5859 16.6897 18.4249 15.8649 18.2444 15.0922C17.7632 15.293 17.0811 15.5164 16.1283 15.6552C15.2454 15.7851 14.5711 15.7773 14.0627 15.731C14.1597 16.4998 14.2402 17.3374 14.2975 18.2401C14.4449 18.246 14.5788 18.2686 14.7302 18.2686C15.3007 18.2696 15.8945 18.2263 16.4795 18.1416ZM17.7127 13.1058C17.4333 12.1894 17.1461 11.395 16.8861 10.7434C16.4563 10.9619 15.912 11.1922 15.2008 11.3921C14.4294 11.6096 13.8065 11.6962 13.3078 11.7258C13.4854 12.4069 13.6678 13.2259 13.8318 14.1817C14.4925 14.1147 15.1736 14.0055 15.8634 13.8116C16.5222 13.6265 17.1345 13.3785 17.7127 13.1058Z"
		fill="#D99E82" />
	<path
		d="M29.2712 3.98694C29.2286 3.92689 24.9246 -1.91315 19.3418 0.650051C16.8376 1.79877 15.2212 3.67589 14.6351 6.09833C13.5436 4.5549 11.8845 3.57352 9.69369 3.17683C3.67915 2.08816 0.0640259 8.85446 0.0281269 8.92337C-0.0242662 9.02377 -0.00195062 9.14878 0.0824605 9.22359C0.166872 9.2984 0.293003 9.30332 0.384206 9.23835C0.411373 9.21867 3.14552 7.27658 7.70275 8.09948C12.3609 8.9401 15.6267 9.76694 15.6597 9.77481C15.6791 9.77974 15.6995 9.7817 15.7189 9.7817C15.7858 9.7817 15.8508 9.75414 15.8974 9.70296C15.9285 9.66851 19.0216 6.29717 21.8673 4.99096C26.0772 3.06068 28.9482 4.34228 28.9753 4.35508C29.0762 4.40036 29.1956 4.3728 29.2645 4.28618C29.3343 4.20054 29.3372 4.07651 29.2712 3.98694Z"
		fill="#529527" />
	<path
		d="M24.6858 7.25983C20.4119 4.9683 17.0704 6.08552 14.9882 7.47638C12.4899 6.99701 7.87248 7.02458 3.9624 12.1096C-0.872323 18.3966 3.36279 26.2269 3.40645 26.3057C3.47145 26.4228 3.5937 26.4937 3.72372 26.4937C3.73827 26.4937 3.75379 26.4927 3.76835 26.4907C3.91485 26.472 4.03613 26.3657 4.07494 26.221C4.0895 26.1679 5.55651 20.7875 9.26574 16.2616C11.278 13.8047 13.6803 11.5309 15.386 10.0209C17.0956 10.3142 19.5843 10.953 22.0283 12.338C26.8388 15.0676 29.0471 19.687 29.0694 19.7333C29.1353 19.875 29.2741 19.9558 29.4371 19.942C29.5904 19.9243 29.7175 19.8111 29.7524 19.6595C29.7718 19.5728 31.6619 10.9973 24.6858 7.25983Z"
		fill="#58AD23" />
</svg>