<svg xmlns="http://www.w3.org/2000/svg" width="30" height="30" viewBox="0 0 30 30" fill="none">
	<g opacity="0.2">
		<rect width="30" height="30" rx="8" fill="#C1E9F4" />
		<path fill-rule="evenodd" clip-rule="evenodd"
			d="M10.6 5C10.1581 5 9.79997 5.35817 9.79997 5.8C9.79997 6.24183 10.1581 6.6 10.6 6.6H20.2C20.6418 6.6 21 6.24183 21 5.8C21 5.35817 20.6418 5 20.2 5H10.6ZM8.20001 8.99992C8.20001 8.55809 8.55818 8.19992 9.00001 8.19992H21.8C22.2418 8.19992 22.6 8.55809 22.6 8.99992C22.6 9.44175 22.2418 9.79992 21.8 9.79992H9.00001C8.55818 9.79992 8.20001 9.44175 8.20001 8.99992ZM5 15.4C5 13.1909 6.79086 11.4 9 11.4H21.8C24.0091 11.4 25.8 13.1909 25.8 15.4V21C25.8 23.2091 24.0091 25 21.8 25H9C6.79086 25 5 23.2091 5 21V15.4ZM17.7999 18.2002C17.7999 19.7465 16.5463 21.0001 14.9999 21.0001C13.4536 21.0001 12.2 19.7465 12.2 18.2002C12.2 16.6538 13.4536 15.4002 14.9999 15.4002C16.5463 15.4002 17.7999 16.6538 17.7999 18.2002ZM19.4 14.6001C19.4 14.1583 19.7582 13.8001 20.2 13.8001H22.6C23.0418 13.8001 23.4 14.1583 23.4 14.6001C23.4 15.0419 23.0418 15.4001 22.6 15.4001H20.2C19.7582 15.4001 19.4 15.0419 19.4 14.6001ZM8.19998 21.0001C7.75816 21.0001 7.39998 21.3582 7.39998 21.8001C7.39998 22.2419 7.75816 22.6001 8.19998 22.6001H10.6C11.0418 22.6001 11.4 22.2419 11.4 21.8001C11.4 21.3582 11.0418 21.0001 10.6 21.0001H8.19998Z"
			fill="#272A2E" />
	</g>
</svg>