<svg xmlns="http://www.w3.org/2000/svg" width="30" height="30" viewBox="0 0 30 30" fill="none">
	<g opacity="0.2">
		<rect width="30" height="30" rx="8" fill="#C1E9F4" />
		<path
			d="M22.9799 16.1274C23.0417 16.1621 23.054 16.2357 23.0565 16.2638L23.0571 16.2749L22.9885 20.7017C22.9885 22.4675 21.6203 23.9075 19.8975 23.9957L19.7297 24H9.40456C7.65994 24 6.23724 22.6152 6.15002 20.8715L6.14579 20.7017L6.08576 16.2749C6.08576 16.2749 6.08576 16.1708 6.16294 16.1274C6.23154 16.084 6.3173 16.1361 6.32588 16.1447C8.05817 17.3078 10.1421 18.0804 12.3289 18.4015C12.6376 18.4449 12.9463 18.2453 13.0321 17.9328C13.209 17.2655 13.7552 16.8119 14.4234 16.7578L14.5586 16.7523H14.5843C15.3132 16.7523 15.9221 17.221 16.1108 17.9328C16.1965 18.2453 16.5053 18.4449 16.814 18.4015C19.0008 18.0804 21.0847 17.3078 22.817 16.1447C22.817 16.1447 22.8341 16.1361 22.8513 16.1274C22.8856 16.11 22.937 16.1013 22.9799 16.1274ZM14.5671 17.9936C14.2448 17.9936 13.973 18.2415 13.9299 18.557L13.924 18.6445V19.7643C13.924 20.1288 14.2155 20.4152 14.5671 20.4152C14.8973 20.4152 15.1626 20.1746 15.2045 19.8536L15.2103 19.7643V18.6445C15.2103 18.2887 14.9273 17.9936 14.5671 17.9936ZM15.6734 6.85718C16.9598 6.85718 18.0146 7.838 18.1775 9.09659H19.8755C21.6764 9.09659 23.1429 10.5808 23.1429 12.4036C23.1429 12.4036 23.0914 13.1753 23.0743 14.2498C23.0725 14.3349 23.0314 14.4182 22.9636 14.4686C22.5511 14.7732 22.1738 15.0249 22.1395 15.0423C20.7159 15.9971 19.0617 16.6689 17.2994 17.0031C17.1844 17.0257 17.0712 16.9658 17.0129 16.8633C16.519 16.0075 15.5962 15.4503 14.5671 15.4503C13.5449 15.4503 12.6136 16.0014 12.1051 16.8581C12.0459 16.9588 11.9344 17.017 11.8203 16.9953C10.0726 16.6602 8.41835 15.9893 7.00336 15.051L6.18009 14.4781C6.11148 14.4347 6.06861 14.3566 6.06861 14.2698C6.04288 13.8271 6 12.4036 6 12.4036C6 10.5808 7.46645 9.09659 9.26735 9.09659H10.9568C11.1197 7.838 12.1745 6.85718 13.4609 6.85718H15.6734ZM15.6734 8.15916H13.4609C12.8863 8.15916 12.3975 8.55843 12.2603 9.09659H16.874C16.7368 8.55843 16.248 8.15916 15.6734 8.15916Z"
			fill="#BB3D40" />
	</g>
</svg>