<svg xmlns="http://www.w3.org/2000/svg" width="15" height="12" viewBox="0 0 15 12" fill="none">
	<path
		d="M6.08625 11.5569C6.01375 11.4891 5.70375 11.2331 5.44875 10.9946C3.845 9.59649 1.22 5.94915 0.41875 4.04014C0.29 3.75022 0.0175 3.01724 0 2.62562C0 2.25037 0.09 1.89265 0.2725 1.55129C0.5275 1.12577 0.92875 0.784413 1.4025 0.59737C1.73125 0.476961 2.715 0.289917 2.7325 0.289917C3.80875 0.102874 5.5575 0 7.49 0C9.33125 0 11.0087 0.102874 12.1012 0.256016C12.1187 0.273551 13.3413 0.460594 13.76 0.665173C14.525 1.04043 15 1.7734 15 2.55782V2.62562C14.9812 3.13648 14.5062 4.21081 14.4887 4.21081C13.6862 6.01695 11.19 9.58013 9.53125 11.0122C9.53125 11.0122 9.105 11.4155 8.83875 11.5908C8.45625 11.8644 7.9825 12 7.50875 12C6.98 12 6.4875 11.8469 6.08625 11.5569Z"
		fill="#4F687C" />
</svg>