<svg xmlns="http://www.w3.org/2000/svg" width="40" height="40" viewBox="0 0 40 40" fill="none">
	<rect width="40" height="40" rx="8" fill="#BAEFFF" />
	<path fill-rule="evenodd" clip-rule="evenodd"
		d="M20.1429 21.2857C24.0877 21.2857 27.2857 18.0877 27.2857 14.1429C27.2857 10.198 24.0877 7 20.1429 7C16.198 7 13 10.198 13 14.1429C13 18.0877 16.198 21.2857 20.1429 21.2857ZM13.1948 24.8572C10.3258 24.8572 8 27.1829 8 30.052C8 31.1278 8.87217 32 9.94805 32H30.3377C31.4135 32 32.2857 31.1278 32.2857 30.052C32.2857 27.1829 29.9599 24.8572 27.0909 24.8572H13.1948Z" fill="#142647" />
	<rect x="28.3333" y="19" width="1.33333" height="4" rx="0.3" fill="#142647" />
	<rect x="31" y="20.3333" width="1.33333" height="4" rx="0.3" transform="rotate(90 31 20.3333)" fill="#142647" />
</svg>