<svg xmlns="http://www.w3.org/2000/svg" width="30" height="30" viewBox="0 0 30 30" fill="none">
	<g opacity="0.2">
		<rect width="30" height="30" rx="8" fill="#C1E9F4" />
		<path fill-rule="evenodd" clip-rule="evenodd"
			d="M14.5715 16.6531C17.0776 16.6531 19.1093 14.4602 19.1093 11.7551C19.1093 9.05007 17.0776 6.85718 14.5715 6.85718C12.0653 6.85718 10.0337 9.05007 10.0337 11.7551C10.0337 14.4602 12.0653 16.6531 14.5715 16.6531ZM10.4193 19.1021C8.45201 19.1021 6.85718 20.6969 6.85718 22.6642C6.85718 23.402 7.45524 24 8.19299 24H20.9499C21.6877 24 22.2857 23.402 22.2857 22.6642C22.2857 20.6969 20.6909 19.1021 18.7236 19.1021H10.4193Z"
			fill="#142647" />
		<rect x="19.7747" y="15.0856" width="0.846588" height="2.74286" rx="0.3" fill="#142647" />
		<rect x="21.469" y="15.9999" width="0.914285" height="2.54118" rx="0.3" transform="rotate(90 21.469 15.9999)" fill="#142647" />
	</g>
</svg>