<svg id="plus" width="14" height="14" viewBox="0 0 14 14" fill="none" xmlns="http://www.w3.org/2000/svg">
	<path
		d="M10.062 0C12.3956 0 13.7272 1.31781 13.7272 3.65829V10.0689C13.7272 12.3956 12.4025 13.7272 10.0689 13.7272H3.65829C1.31781 13.7272 0 12.3956 0 10.0689V3.65829C0 1.31781 1.31781 0 3.65829 0H10.062ZM6.85672 3.78184C6.541 3.78184 6.28705 4.03579 6.28705 4.35151V6.28705H4.34465C4.19365 6.28705 4.04952 6.34882 3.9397 6.45177C3.83675 6.56159 3.77497 6.70504 3.77497 6.85672C3.77497 7.17245 4.02893 7.4264 4.34465 7.43326H6.28705V9.37566C6.28705 9.69138 6.541 9.94534 6.85672 9.94534C7.17245 9.94534 7.4264 9.69138 7.4264 9.37566V7.43326H9.37566C9.69138 7.4264 9.94534 7.17245 9.94534 6.85672C9.94534 6.541 9.69138 6.28705 9.37566 6.28705H7.4264V4.35151C7.4264 4.03579 7.17245 3.78184 6.85672 3.78184Z"
		fill="#299B9C" />
</svg>
