<svg width="70" height="70" viewBox="0 0 70 70" fill="none" xmlns="http://www.w3.org/2000/svg">
<rect width="70" height="70" rx="15" fill="#1C2A4D"/>
<path fill-rule="evenodd" clip-rule="evenodd" d="M32.7307 31.8832C32.7307 34.6963 34.0398 35.6005 35.0468 36.9065C36.0539 38.2126 35.6511 39.1168 35.6511 40.021C35.0468 39.7196 34.2412 39.3178 33.637 38.8154C33.0328 38.3131 32.4286 37.8107 32.0258 37.1075C31.8244 36.8061 31.623 36.5047 31.4215 36.1028C31.2201 35.7009 31.0187 35.3995 30.918 34.9977C30.1124 32.8878 30.2131 30.4766 31.0187 28.4673C31.4215 27.5631 31.9251 26.9603 32.5293 26.1565C33.1335 25.4533 38.8735 19.7266 40.1827 18.6215C43.3044 15.8084 48.7424 15.9089 51.9649 19.1238C52.6698 19.8271 53.3747 20.7313 53.7775 21.736C54.986 24.5491 54.8853 27.6636 53.0726 30.1752C52.1663 31.5818 48.2389 35.1986 46.829 36.7056C45.7213 37.8107 44.815 38.8154 43.4052 39.6192L43.3045 37.6098C43.2038 36.6051 42.8009 37.2079 44.5129 35.5L50.2529 29.7734C52.5691 27.4626 52.6698 23.4439 50.2529 20.9322C48.3396 19.0234 45.4192 18.521 42.9016 19.8271C42.096 20.229 41.6932 20.6308 41.089 21.2336L34.7447 27.5631C33.637 28.3668 32.7307 29.8738 32.7307 31.8832ZM42.096 34.0935C41.9953 33.5911 41.3911 32.7874 41.1897 32.3855C40.2834 31.1799 39.8806 30.6776 38.5714 29.7734C38.1686 29.472 37.363 28.8692 36.8595 28.7687C37.1616 28.2664 38.37 27.2617 38.8735 26.7593C39.8806 25.7547 43.0023 22.4393 44.1101 21.9369C45.1171 21.4346 46.2248 21.4346 47.2319 21.8364C49.6487 22.9416 50.3536 26.0561 48.2389 28.0654L44.2108 32.0841C43.6066 32.5864 42.5995 33.7921 42.096 34.0935ZM35.3489 32.1846L35.4497 30.979C36.0539 31.2804 36.8595 31.6822 37.4637 32.1846C38.0679 32.6869 38.6721 33.1893 39.0749 33.8925C40.3841 35.8014 40.7869 37.007 40.7869 39.5187C40.7869 40.7243 40.4848 41.729 40.082 42.6332C39.0749 44.9439 36.7588 46.8528 34.8454 48.7617C33.5363 50.0678 32.4286 51.2734 31.0187 52.479C29.6089 53.6846 27.2927 54.4883 25.3794 54.4883C24.7752 54.4883 23.9696 54.3878 23.466 54.2874C22.8618 54.1869 22.3583 53.986 21.8548 53.785C17.6253 51.7757 15.8126 47.6565 17.0211 43.1355C17.6253 40.8248 19.4379 39.3178 21.0492 37.6098C22.6604 36.0023 25.8829 32.486 27.6956 31.4813C27.6956 32.6869 27.897 34.0935 27.897 34.0935C27.897 34.3949 26.7892 35.2991 26.5878 35.5L20.8478 41.2266C20.3443 41.729 19.9415 42.3318 19.6393 42.9346C18.1288 45.9486 19.4379 49.9673 22.5597 51.2734C25.2787 52.479 27.897 51.9766 30.0117 49.8668L36.356 43.5374C38.5714 41.3271 38.8735 38.0117 37.0609 35.3995C36.6581 34.8972 36.356 34.5958 35.9532 34.0935C35.6511 33.5911 35.3489 32.8878 35.3489 32.1846ZM45.1171 14H46.3255C47.7354 14.1005 49.2459 14.4019 50.555 15.1051C51.8642 15.7079 52.7705 16.4112 53.6768 17.3154C55.6909 19.3248 56.7986 21.9369 57 24.6495V25.9556C56.8993 27.965 56.2951 29.8738 55.0867 31.6822C53.9789 33.2897 49.1452 37.9112 47.4333 39.6192C46.6276 40.4229 45.7213 41.2266 44.7143 41.8294C42.9016 42.8341 42.9016 42.2313 42.4988 43.4369C42.3981 43.7383 42.2974 43.8388 42.1967 44.1402C41.4918 45.5467 40.8876 46.3505 39.6792 47.4556C37.9672 49.1636 33.3349 53.986 31.7237 55.0911C29.5082 56.4977 27.6955 57 24.7752 57C22.0562 57 19.2365 55.5935 17.3232 53.6846C16.4169 52.7804 15.7119 51.8762 15.1077 50.5701C14.2014 48.7617 14 47.3551 14 45.2453C14 42.9346 14.9063 40.7243 15.9133 39.3178C16.9204 37.8107 18.4309 36.5047 19.6393 35.2991C21.2506 33.6916 23.9696 30.778 25.6815 29.5724C26.185 29.271 26.3864 29.0701 26.8899 28.8692C28.2998 28.1659 28.0984 28.6682 28.5012 27.5631C28.8033 26.8598 29.2061 26.257 29.5082 25.6542C30.0117 24.9509 30.6159 24.1472 31.3208 23.5444C33.0328 21.8364 37.6651 17.014 39.2763 15.9089C40.9883 14.7033 43.103 14.1005 45.1171 14ZM21.5527 45.5467C21.5527 43.5374 23.3653 42.1308 24.7752 40.7243C25.3794 40.1215 28.4005 37.007 28.8033 36.7056C29.1054 38.1122 31.2201 40.1215 32.3279 41.0257C32.7307 41.3271 33.5363 41.9299 34.0398 42.0304C33.8384 42.4322 28.6019 47.4556 28.0984 47.9579C27.5948 48.4603 27.0913 48.8621 26.2857 49.1636C23.8689 49.8668 21.5527 47.9579 21.5527 45.5467Z" fill="white"/>
<path fill-rule="evenodd" clip-rule="evenodd" d="M46.6276 47.8574C46.6276 48.6612 47.4333 49.264 47.9368 49.6658C48.4403 50.1682 48.9438 50.9719 49.7494 50.9719C50.4543 50.9719 50.9578 50.4696 50.9578 49.7663C50.9578 48.9626 50.1522 48.4602 49.7494 47.9579C49.0445 47.2546 48.1382 46.049 47.0304 46.9532C46.9297 47.0537 46.6276 47.556 46.6276 47.8574Z" fill="white"/>
<path d="M46.6276 47.8574C46.6276 48.6612 47.4333 49.264 47.9368 49.6658C48.4403 50.1682 48.9438 50.9719 49.7494 50.9719C50.4543 50.9719 50.9578 50.4696 50.9578 49.7663C50.9578 48.9626 50.1522 48.4602 49.7494 47.9579C49.0445 47.2546 48.1382 46.049 47.0304 46.9532C46.9297 47.0537 46.6276 47.556 46.6276 47.8574Z" fill="white"/>
<path fill-rule="evenodd" clip-rule="evenodd" d="M29.0047 15.8084C29.0047 16.4112 29.5082 18.7219 29.911 19.2242C30.8173 20.2289 32.2272 19.4252 32.2272 18.521C32.2272 18.2196 31.623 15.7079 31.3208 15.306C30.7166 14.3013 29.0047 14.8037 29.0047 15.8084Z" fill="white"/>
<path d="M29.0047 15.8084C29.0047 16.4112 29.5082 18.7219 29.911 19.2242C30.8173 20.2289 32.2272 19.4252 32.2272 18.521C32.2272 18.2196 31.623 15.7079 31.3208 15.306C30.7166 14.3013 29.0047 14.8037 29.0047 15.8084Z" fill="white"/>
<path fill-rule="evenodd" clip-rule="evenodd" d="M14.8056 30.0748C14.8056 30.5771 14.8056 30.8785 15.3092 31.2804C15.712 31.5818 18.2295 32.1846 18.5316 32.1846C19.6394 32.1846 20.2436 30.7781 19.3373 29.9743C19.0352 29.6729 17.8267 29.3715 17.3232 29.271C16.5176 29.0701 16.719 29.0701 15.9134 29.0701C15.3092 28.9696 14.8056 29.5724 14.8056 30.0748Z" fill="white"/>
<path d="M14.8056 30.0748C14.8056 30.5771 14.8056 30.8785 15.3092 31.2804C15.712 31.5818 18.2295 32.1846 18.5316 32.1846C19.6394 32.1846 20.2436 30.7781 19.3373 29.9743C19.0352 29.6729 17.8267 29.3715 17.3232 29.271C16.5176 29.0701 16.719 29.0701 15.9134 29.0701C15.3092 28.9696 14.8056 29.5724 14.8056 30.0748Z" fill="white"/>
<path fill-rule="evenodd" clip-rule="evenodd" d="M51.2599 39.9205C51.2599 40.8247 51.9649 41.1261 52.6698 41.3271C53.0726 41.4275 53.3747 41.528 53.6768 41.6285C54.4824 41.8294 54.281 41.8294 55.0866 41.8294C56.0937 41.8294 56.5972 40.2219 55.6908 39.5187C55.288 39.2173 52.7705 38.6145 52.4684 38.6145C51.8641 38.7149 51.2599 39.2173 51.2599 39.9205Z" fill="white"/>
<path d="M51.2599 39.9205C51.2599 40.8247 51.9649 41.1261 52.6698 41.3271C53.0726 41.4275 53.3747 41.528 53.6768 41.6285C54.4824 41.8294 54.281 41.8294 55.0866 41.8294C56.0937 41.8294 56.5972 40.2219 55.6908 39.5187C55.288 39.2173 52.7705 38.6145 52.4684 38.6145C51.8641 38.7149 51.2599 39.2173 51.2599 39.9205Z" fill="white"/>
<path fill-rule="evenodd" clip-rule="evenodd" d="M19.9415 21.2337C19.9415 22.0374 20.7471 22.5398 21.1499 23.0421C21.5527 23.444 22.2576 24.3482 22.9625 24.3482C23.8689 24.3482 24.9766 23.243 23.6674 21.937C22.8618 21.1332 22.0562 20.0281 21.1499 20.0281C20.5457 19.9276 19.9415 20.5304 19.9415 21.2337Z" fill="white"/>
<path d="M19.9415 21.2337C19.9415 22.0374 20.7471 22.5398 21.1499 23.0421C21.5527 23.444 22.2576 24.3482 22.9625 24.3482C23.8689 24.3482 24.9766 23.243 23.6674 21.937C22.8618 21.1332 22.0562 20.0281 21.1499 20.0281C20.5457 19.9276 19.9415 20.5304 19.9415 21.2337Z" fill="white"/>
<path fill-rule="evenodd" clip-rule="evenodd" d="M38.7728 52.3785C38.7728 52.8808 39.1757 54.0864 39.2764 54.5888C39.3771 54.9906 39.4778 55.292 39.5785 55.5934C40.082 56.3972 41.8946 56.4976 41.8946 54.6892C41.8946 54.2874 41.2904 51.9766 40.9883 51.6752C40.1827 50.5701 38.7728 51.3738 38.7728 52.3785Z" fill="white"/>
<path d="M38.7728 52.3785C38.7728 52.8808 39.1757 54.0864 39.2764 54.5888C39.3771 54.9906 39.4778 55.292 39.5785 55.5934C40.082 56.3972 41.8946 56.4976 41.8946 54.6892C41.8946 54.2874 41.2904 51.9766 40.9883 51.6752C40.1827 50.5701 38.7728 51.3738 38.7728 52.3785Z" fill="white"/>
</svg>
