<svg width="45" height="45" viewBox="0 0 45 45" fill="none" xmlns="http://www.w3.org/2000/svg">
<path fill-rule="evenodd" clip-rule="evenodd" d="M9.9 8.2C9.9 8.7 10.4 9 10.7 9.3L35.1 33.7C35.4 34 35.8 34.5 36.2 34.5C36.7 34.5 37 33.9 37.3 33.6C37.5 33.4 37.5 33.3 37.7 33C41.3 28.1 42.1 20.9 39.9 15.3C39.1 13.3 38.3 11.9 37 10.4C36.4 9.6 35.8 9.1 35.1 8.4C34.4 7.7 32.7 6.4 31.8 5.9C28 3.8 25 3.3 20.7 3.4C19.7 3.4 18.3 3.8 17.4 4C14.6 4.7 12.5 5.9 10.3 7.6C10.2 7.7 9.9 7.9 9.9 8.2ZM11.6 8.2C11.8 8.1 11.9 8 12.1 7.8C12.3 7.7 12.4 7.6 12.6 7.5L13.7 6.9C14.5 6.5 15.2 6.1 16.1 5.8C19.6 4.6 22.7 4.4 26.3 5.2C27.5 5.5 28.4 5.9 29.5 6.3C31.4 7.1 33.2 8.4 34.6 9.9C39.2 14.5 41.1 21.8 38.6 28.3C38.4 28.8 38.3 29.1 38.1 29.5C37.9 29.9 37.7 30.3 37.5 30.7C37.1 31.5 36.6 32.2 36.1 32.9L34.4 31C35.2 29.7 34.8 30 35.2 29.4C36.1 29.4 36.5 29.4 37 29C37.4 28.7 37.8 28.2 37.8 27.4V20.1C37.8 19.2 37.4 18.4 37 17.9C35.9 16.7 34.9 16.9 33.5 16.9C33 16.9 32.8 17.3 32.8 17.4C32.8 19.2 35.1 17 36.4 19.4C35.7 19.4 34.1 19.3 33.6 19.5C31.3 20.2 32.3 24 34.7 24H36.4V27.6C36.4 28.1 35.7 28 35.4 28C35.1 28 35.2 27.9 35.1 27.7C34.1 25.1 31.7 24.4 29.3 25.9C29.1 25.6 28.4 25.2 28.4 24.9V18.2C29.8 18.2 31.1 18.5 31.1 17.5C31.1 16.6 29.5 16.9 28.4 16.9C28.4 15.2 28.7 13.9 27.4 13.1C26.8 12.7 25.7 12.8 24.8 12.8H16.7C15.8 12.8 15.8 12.4 14.6 11.2L11.6 8.2ZM17.6 14.3C19.2 14.3 20.7 14.3 22.3 14.3C23.1 14.3 26.5 14.1 26.8 14.5C27.2 14.9 27 18.2 27 19C27 20.6 27 22.1 27 23.7L17.6 14.3ZM33.5 21.4C33.5 20.4 34.8 20.7 36.4 20.7V22.7C35.5 22.7 33.5 22.9 33.5 21.4ZM30.3 26.8C30.9 26.7 30.8 26.5 31.7 26.5C32.8 26.5 33.9 27.5 33.9 28.8C33.9 29.5 33.7 29.6 33.6 30.1C33.2 30 33 29.6 32.8 29.4C32.1 28.8 30.6 27.4 30.3 26.8Z" fill="white"/>
<path fill-rule="evenodd" clip-rule="evenodd" d="M23.1 44.4H21.3C18.6 44.3 15.9 43.7 13.2 42.5C11.9 41.9 10.8 41.3 9.7 40.5C8.5 39.7 6.2 37.7 5.3 36.6C4.9 36.1 4.5 35.6 4.1 35.1C1.8 32 0 27.3 0 23V21.4C0 18.3 1.1 14.8 2.1 12.8C3.5 10 5.4 7.2 7.9 5.3C9.1 4.4 9.8 3.8 11.1 3.1C13.9 1.3 17.7 0 21.5 0C26.5 0 29.5 0.8 33.4 3C34.6 3.7 35.9 4.6 36.9 5.6C37.8 6.5 38.3 6.8 39.2 8C40 9 40.8 10 41.4 11.2C43.6 15.2 44.4 18.1 44.4 23.1C44.4 26.2 43.3 29.8 42.3 31.9C41.3 33.9 40.9 34.5 39.7 36.1C39.5 36.4 39.3 36.5 39.1 36.9L36.3 39.6C32.4 42.5 27.8 44.2 23.1 44.4ZM22.7 43C18.7 43 16.8 42.5 13.3 41.1C11.7 40.4 9.2 38.6 7.9 37.4L6 35.4C4.9 34.2 3.6 32 3 30.6C2 28.1 1.7 27.2 1.4 24.4L1.3 22C1.3 20.6 1.6 18.9 1.9 17.5C3.3 11 7.8 5.9 13.7 3.2C14.9 2.6 16.2 2.2 17.6 1.9C18.5 1.6 20 1.4 21 1.4C21.5 1.4 21.7 1.3 22.2 1.3C22.7 1.3 22.8 1.4 23.3 1.4C23.8 1.4 24.1 1.4 24.5 1.5C26.5 1.7 28.9 2.3 30.7 3.2C30.9 3.3 30.9 3.3 31.1 3.4C32.1 3.9 33.1 4.5 34 5.1C36.5 6.8 38.7 9.2 40.2 11.8C41.6 14.1 42.5 16.9 42.8 19.6L43 22C43 22.5 43 22.8 42.9 23.2C42.8 24.2 42.9 24.9 42.5 26.7C41.6 30.5 40.3 33 38 35.8L37 36.8C35.9 38.1 32.6 40.5 31 41.2L29.2 42C27.6 42.5 24.8 43 22.7 43Z" fill="white"/>
<path fill-rule="evenodd" clip-rule="evenodd" d="M20.6 41C21.2 41 21.4 40.9 21.4 40.2C21.4 39.5 19.6 39.6 18.1 39.2C14.8 38.4 12.1 36.8 9.8 34.5C6.6 31.4 4.7 26.8 4.7 22C4.7 19.2 5.3 17.2 6.3 14.9C6.5 14.5 6.7 14.1 6.9 13.7C7.1 13.3 7.3 13 7.6 12.6L8.3 11.5L9.6 12.8C8.6 13.1 8 13.8 8 15.1V19.3C8 20.4 9.4 20.9 9.4 19.1V15.4C9.4 14.1 9.6 14.2 10.8 14.2C11.1 14.2 14 17.3 14.3 17.6C15.1 18.4 24.4 27.6 24.7 28H17.6C17.6 26.4 14.8 23.7 11.8 25.9C11.3 26.3 10.6 27.2 10.6 28H9.6C9.4 27.7 9.3 27.7 9.3 27.2C9.3 26.8 9.3 26.4 9.3 26.1C9.3 25.4 9.3 24.7 9.3 23.9C9.3 23.1 9.4 22.4 9 22.1C8.5 21.8 8 22.2 8 22.9V27.2C8 28.5 8.8 29.5 9.9 29.5H10.5C10.5 30.2 11.2 31.2 11.7 31.6C13.1 32.8 15.2 32.8 16.5 31.6C17.9 30.2 17.3 29.6 17.9 29.6H26.1C26.4 29.6 29.3 32.7 29.5 32.9C30 33.4 32.7 36 32.9 36.3C32.6 36.5 32.3 36.7 31.9 37C30 38.2 28 39.1 25.8 39.5C25.2 39.6 24.9 39.7 24.3 39.7C23.5 39.8 23.2 39.9 23.2 40.5C23.2 41.1 23.6 41.1 24 41.1C25 41.1 26.4 40.8 27.2 40.6C28.5 40.2 30.1 39.7 31.3 39C32.1 38.5 34.6 37.2 34.6 36.4C34.6 35.9 33.6 35.1 33.1 34.6L9.9 11.3C9.5 10.9 8.6 9.7 8 10C7.2 10.3 5.2 13.9 4.8 15C2.6 20.6 3 25.8 5.6 31.1C7.4 34.8 11.3 38.1 15.2 39.7C16.4 40.2 18.9 41 20.6 41ZM14 26.5C16.1 26.5 17.1 28.9 15.7 30.3C14.2 31.9 11.7 30.7 11.8 28.7C11.8 27.4 12.9 26.5 14 26.5Z" fill="white"/>
</svg>
