<svg width="70" height="70" viewBox="0 0 70 70" fill="none" xmlns="http://www.w3.org/2000/svg">
<rect width="70" height="70" rx="15" fill="#1C2A4D"/>
<path fill-rule="evenodd" clip-rule="evenodd" d="M14 31.9598V51.2598C14 52.5598 15.7 51.8598 16.3 51.8598C18.8 51.8598 19.5 53.5598 22.5 53.5598C23.6 53.5598 24.8 53.1598 25.6 52.7598C27.2 51.9598 28.2 51.4598 30.3 52.0598C31.6 52.4598 34.1 54.6598 38 52.7598C38.9 52.2598 39.6 51.8598 41 51.8598C41.5 51.8598 42.2 51.9598 42.7 52.1598C43.8 52.4598 44.9 53.5598 47.3 53.5598C49.8 53.5598 50.7 52.3598 52.3 52.0598C53.5 51.8598 53.6 51.9598 54.6 51.9598C55 51.9598 55.3 51.6598 55.3 51.2598V31.8598C55.3 31.2598 54 31.0598 53.6 30.9598C52.9 30.7598 52.1 30.6598 51.3 30.5598C49.7 30.3598 47 29.9598 45.4 29.8598C44.9 29.8598 44.7 29.7598 44.2 29.7598L40.5 29.5598C40.1 29.5598 39.6 29.5598 39.1 29.5598C35.5 29.3598 32.2 29.5598 28.7 29.5598C28.2 29.5598 28 29.6598 27.4 29.6598L22.5 30.0598C22.2 30.0598 21.8 30.0598 21.4 30.1598C20 30.2598 17.1 30.7598 15.7 31.0598C15.1 31.1598 14 31.2598 14 31.9598ZM15.6 32.6598C16 32.6598 16.3 32.5598 16.7 32.4598C18.4 32.1598 23.1 31.4598 24.7 31.4598L29.6 31.1598C30.3 31.0598 31.4 31.1598 32.2 31.1598C32.7 31.1598 32.9 31.0598 33.4 31.0598H36C36.5 31.0598 36.7 31.1598 37.2 31.1598C38 31.1598 39 31.0598 39.7 31.1598L42.2 31.2598C43.4 31.2598 48 31.7598 49.3 31.9598L53.8 32.6598V34.1598H38.5C37.1 34.1598 37.2 35.8598 38.3 35.8598H53.8V39.5598C49.9 39.5598 49.2 42.1598 45.6 40.9598C44.9 40.7598 44.8 40.5598 44.3 40.3598C42.3 39.3598 39.9 39.4598 38 40.3598C36.2 41.2598 34.4 41.6598 32.6 40.6598C32.4 40.5598 32.3 40.4598 32 40.2598C30 39.2598 27.6 39.2598 25.7 40.2598C24.2 41.0598 22.8 41.5598 20.9 40.8598C19.8 40.4598 19.2 39.8598 17.7 39.6598C16.5 39.4598 16.4 39.5598 15.7 39.5598V35.7598H31.2C32.3 35.7598 32.4 34.0598 31 34.0598H15.6V32.6598ZM15.6 41.4598C18.2 40.8598 19.4 43.0598 22.6 43.0598C23.8 43.0598 24.8 42.7598 25.7 42.2598C30.5 39.8598 31.1 42.9598 34.5 42.9598C37.8 42.9598 37.4 42.3598 39.5 41.6598C40.8 41.2598 42.3 41.3598 43.5 41.9598C43.8 42.0598 43.9 42.1598 44.2 42.3598C46.2 43.3598 48.6 43.3598 50.5 42.3598C51.6 41.8598 52.3 41.4598 53.8 41.4598V50.3598C51 50.3598 50.8 51.0598 49.1 51.6598C48.4 51.9598 47.8 51.9598 47 51.9598C44.6 51.9598 44.6 50.3598 40.8 50.3598C38.2 50.3598 37.6 51.9598 34.8 51.9598C32.5 51.9598 31.6 50.3598 29.1 50.3598C24.9 50.3598 25.7 51.9598 22.4 51.9598C21.2 51.9598 20.5 51.5598 19.7 51.1598C17.9 50.2598 17.5 50.3598 15.7 50.3598V41.4598H15.6Z" fill="white"/>
<path fill-rule="evenodd" clip-rule="evenodd" d="M35.8 17.0598C35.8 18.0598 37.5 17.9598 38.1 17.7598C38 18.3598 35 20.9598 34.5 21.6598L31.6 18.8598C31.1 18.3598 29.2 16.1598 28.5 16.1598C28.3 16.1598 28.1 16.2598 28 16.3598C27.7 16.5598 27.7 16.8598 27.7 17.0598C27.7 17.4598 28.5 18.1598 28.9 18.5598C29.5 19.1598 32.9 22.4598 33.1 22.7598C33 23.0598 31.7 24.2598 31.3 24.6598C30 25.9598 28.9 26.8598 27.2 25.2598L19.5 17.2598C19.1 16.9598 18.5 16.1598 18 16.1598C17.5 16.1598 17.2 16.4598 17.2 17.0598C17.2 17.4598 18 18.1598 18.4 18.5598L25.4 25.5598C27 27.1598 27.2 27.7598 29.5 27.7598C30.7 27.7598 31.7 26.8598 32.3 26.1598C32.8 25.6598 34 24.3598 34.5 23.9598C34.8 24.3598 37.2 26.7598 37.8 27.1598C38.9 27.9598 40.7 27.8598 41.9 27.1598C42.4 26.8598 47 22.1598 47.7 21.4598C48.1 21.0598 48.5 20.6598 48.9 20.2598C49.2 19.9598 49.7 19.3598 50.1 19.0598C50.1 20.1598 49.7 21.3598 50.9 21.3598C51.8 21.3598 51.7 20.2598 51.7 19.8598L51.9 17.6598C52 15.5598 51.1 16.0598 48.9 16.1598C48.3 16.1598 47.9 16.1598 47.4 16.2598C46.2 16.3598 46.6 17.8598 47.2 17.8598C47.9 17.8598 48.3 17.9598 48.9 17.7598C48.6 18.1598 42.4 24.2598 41.4 25.3598C41 25.7598 40.6 26.0598 39.9 26.0598C38.7 26.0598 38.2 25.2598 37.6 24.6598C37.1 24.1598 36.1 23.2598 35.8 22.7598L39.4 19.0598C39.5 19.9598 39.3 20.1598 39.3 20.5598C39.3 21.0598 39.7 21.3598 40.2 21.3598C41.1 21.3598 41 20.2598 41.1 19.3598C41.2 18.8598 41.1 18.4598 41.2 18.0598C41.6 15.4598 40.3 16.0598 39.4 16.0598L36.9 16.2598C36.5 16.2598 36.5 16.2598 36.2 16.4598C36 16.6598 35.8 16.8598 35.8 17.0598Z" fill="white"/>
<path fill-rule="evenodd" clip-rule="evenodd" d="M22.3 49.8598C25.9 49.8598 25.9 44.6598 22.3 44.6598C21 44.6598 19.8 45.9598 19.8 47.2598C19.8 48.5598 21 49.8598 22.3 49.8598ZM21.5 47.3598C21.5 46.0598 23.4 45.9598 23.4 47.3598C23.4 47.8598 23 48.2598 22.5 48.2598C22 48.2598 21.5 47.8598 21.5 47.3598Z" fill="white"/>
<path fill-rule="evenodd" clip-rule="evenodd" d="M44.7 47.1598C44.7 48.7598 45.8 49.8598 47.4 49.8598C48.6 49.8598 49.8 48.7598 49.8 47.5598C49.8 46.6598 49.8 46.1598 49 45.3598C47.5 43.8598 44.7 45.0598 44.7 47.1598ZM47.3 48.2598C46.1 48.2598 46.1 46.3598 47.3 46.3598C48.6 46.3598 48.5 48.2598 47.3 48.2598Z" fill="white"/>
<path fill-rule="evenodd" clip-rule="evenodd" d="M34.1 45.9598C34.1 47.2598 35.7 46.9598 35.7 46.1598C35.7 45.6598 35.6 45.0598 34.9 45.0598C34.6 45.1598 34.1 45.5598 34.1 45.9598Z" fill="white"/>
<path fill-rule="evenodd" clip-rule="evenodd" d="M33.9 35.0598C33.9 36.2598 35.5 36.2598 35.5 35.0598C35.5 34.0598 33.9 34.0598 33.9 35.0598Z" fill="white"/>
</svg>
