<svg width="70" height="70" viewBox="0 0 70 70" fill="none" xmlns="http://www.w3.org/2000/svg">
<rect width="70" height="70" rx="15" fill="#1C2A4D"/>
<path fill-rule="evenodd" clip-rule="evenodd" d="M19.7 14.2V18.4C17.7 18.4 17 17.8 13.9 19C13.4 19.2 13.1 19.3 13.1 20V25.5C13.1 26.2 13.9 26.8 14.8 25.8C15.1 25.5 15.3 25.4 15.7 25.2C17.6 24.2 18.6 24.7 19.8 24.8V29.3C17.9 29.3 16.8 28.8 13.8 30C13.4 30.2 13.1 30.3 13.1 30.9C13.1 31.8 12.9 36.5 13.3 37C13.8 37.6 14.5 37.2 14.9 36.7C16.7 35 18.7 35.7 19.8 35.7V40.2L17.5 40.1C16.4 40.1 13.1 40.7 13.1 41.6V47.5C13.1 47.8 13.5 48.2 13.8 48.2C14.9 48.2 14.9 46.5 18.4 46.5C19.1 46.5 19.2 46.7 19.8 46.7V55C19.8 57.7 19.5 57.1 25.8 57.1C26.8 57.1 26.5 54.9 26.5 53.9C26.5 52.6 26.5 51.2 26.5 49.9C26.9 50 27.3 50.2 27.7 50.4C29.8 51.2 30.3 51.2 31.5 51.5C31.9 51.6 31.8 51.5 31.9 52C32 53.3 31.4 57.2 32.6 57.2H37.9C38.8 57.2 38.6 55.4 38.6 54.8C38.6 53.8 38.6 52.7 38.6 51.7C40.4 51.3 40.9 51.1 42.6 50.5C43 50.3 43.5 50.1 43.9 50C43.9 51.3 43.9 52.6 43.9 53.9C43.9 58 42.9 57.2 49.9 57.2C50.7 57.2 50.6 55.9 50.6 55.1V46.8C51.7 46.7 53 46.1 54.8 47.1C55.2 47.3 56.1 48.3 56.5 48.3C56.8 48.3 57.3 47.9 57.3 47.6V41.7C57.3 40.8 54 40.2 52.9 40.2L50.6 40.3V35.8C51.8 35.7 52.7 35.2 54.7 36.1C55.6 36.5 56.3 37.8 57.1 37.1C57.3 36.9 57.3 36.8 57.3 36.5V31C57.3 30.2 56.3 29.9 55.4 29.7C53.9 29.3 53.4 29.3 51.9 29.3C51.3 29.3 51.2 29.4 50.6 29.4V24.9C51.8 24.8 52.8 24.3 54.6 25.2C55.8 25.8 55.7 26.4 56.4 26.4C56.9 26.4 57.2 26.1 57.2 25.6V20C57.2 19.2 56.3 19 55.2 18.7C52.8 18 52.1 18.4 50.5 18.4V14.2C50.5 13.7 50.3 13 49.8 13C42.8 13 43.8 12.2 43.8 16.6C43.8 18.1 43.8 19.5 43.8 21L39.9 22.7C39.5 22.8 38.8 23.1 38.5 23.2V13.8C38.4 13.5 38.2 13.1 37.8 13.1H32.5C31.6 13.1 31.8 14.7 31.8 15.1V23.3L26.4 21C26.4 19.6 26.4 18.2 26.4 16.7C26.4 12.2 27.4 13 20.4 13C20 13.1 19.7 13.7 19.7 14.2ZM21.5 14.7H24.7V20C23.7 19.8 22.6 18.9 21.5 18.8V14.7ZM45.5 20V14.7H48.7V18.9C47.6 18.9 46.4 19.7 45.5 20ZM14.7 23.8V20.5C16.8 19.5 20 20 22.2 20.8C24.7 21.7 27.2 23.5 30.9 24.7C31.2 24.8 31.5 24.9 31.8 25V28C30.1 27.9 24.9 25.5 23.5 24.7C20.7 23 17.6 22.2 14.7 23.8ZM38.4 27.9V24.9C38.8 24.7 39.6 24.5 40.1 24.4C43.9 23.1 48 20 51.7 20C53 20 54.3 20 55.5 20.6V23.8C50.8 21.3 47.3 24.7 42.8 26.5C41.7 26.9 39.6 27.8 38.4 27.9ZM26.4 27.9C27.7 28.6 30.2 29.3 31.7 29.6V34C30.6 33.9 28.8 32.9 27.7 32.5C27.2 32.3 26.9 32.1 26.4 31.8V27.9ZM38.4 34V29.6C39.9 29.2 42.4 28.6 43.7 27.9V31.8C43 32.3 39.4 34 38.4 34ZM14.7 34.7V31.5C16.3 30.7 18.1 30.9 19.8 31V34C18.4 34 19 33.7 17 33.9C16 34.1 15.4 34.3 14.7 34.7ZM50.4 34V31C52 30.9 53.9 30.7 55.5 31.5V34.7C52.9 33.4 51.9 34 50.4 34ZM33.5 14.7H36.7V34.5L34.5 34.6C33.9 34.6 34 34.5 33.5 34.5V14.7ZM26.4 33.8L30.3 35.4C34.5 36.8 37.6 36.5 41.7 34.7L43.7 33.8V37L42 37.8C37.1 39.8 33.1 39.8 28.2 37.8C27.9 37.7 27.6 37.6 27.3 37.4C27 37.2 26.7 37.2 26.4 37V33.8ZM21.5 25.5L24.7 27.1V41.9C24.2 41.8 22.4 40.8 21.5 40.7V25.5ZM45.5 41.9V27.1L48.7 25.5V40.7C47.7 40.8 46 41.8 45.5 41.9ZM26.4 38.9C27.1 39.3 28.1 39.6 28.9 39.9C29.6 40.1 31 40.6 31.7 40.7V45C30.6 44.9 27.4 43.4 26.4 42.8V38.9ZM38.4 45V40.6C39.1 40.5 40.4 40.1 41.1 39.9C42 39.6 43 39.3 43.7 38.9V42.8C42.7 43.4 39.5 44.9 38.4 45ZM14.7 45.7V42.4C15.1 42.4 15.3 42.2 15.8 42.1C16.1 42 16.6 41.9 17 41.9C18 41.9 18.6 41.8 19.6 42C22.9 42.6 24.8 44 27.6 45.3C28.4 45.7 30.8 46.8 31.8 46.8V49.9C26.9 48.8 25.1 47.1 21.8 45.7C19.1 44.6 17.2 44.3 14.7 45.7ZM38.4 49.8V46.7C40.2 46.7 44.5 44.2 46.3 43.3C48.9 42 51.3 41.4 54.2 42C54.7 42.1 55 42.2 55.4 42.3V45.6C49.8 42.7 46.6 47.9 38.4 49.8ZM21.5 47.4L23.2 48.2C23.8 48.5 24.7 48.8 24.7 49.2V55.4H21.5V47.4ZM33.5 40.8C35.5 41 34.7 41 36.7 40.8V55.4H33.5V40.8ZM45.5 49.3C45.5 48.9 45.9 48.9 46.2 48.7C46.5 48.6 46.7 48.4 47 48.3L48.7 47.5V55.6H45.5V49.3Z" fill="white"/>
</svg>
