<svg width="70" height="70" viewBox="0 0 70 70" fill="none" xmlns="http://www.w3.org/2000/svg">
<rect width="70" height="70" rx="15" fill="#1C2A4D"/>
<path fill-rule="evenodd" clip-rule="evenodd" d="M38.5 47.5024C38.5 47.1024 39.5 42.2024 39.6 42.0024C39.7 41.8024 41.5 40.4024 41.9 40.1024L43.2 38.9024C43.9 38.3024 45.7 36.3024 46.4 35.4024C47.8 33.6024 48.5 32.7024 51.2 32.7024C52.9 32.7024 54.8 34.2024 55.2 35.9024C55.9 38.4024 55 39.5024 53.8 41.1024L53 42.1024C52 43.4024 50.6 44.7024 49.5 45.8024C49.1 46.2024 49.3 46.0024 48.1 45.9024L44.9 45.4024C45.1 45.1024 45.5 44.9024 45.8 44.6024L46.7 43.8024C47.5 43.0024 51.4 39.2024 51.4 38.2024C51.4 37.7024 50.6 36.8024 49.7 37.8024L46.5 41.6024C45.3 42.8024 43.4 44.4024 42 45.5024L38.5 47.5024ZM28.3 51.4024C28.8 50.4024 29.5 48.5024 30 47.8024C30.1 47.6024 30.2 47.4024 30.4 47.2024C31.3 46.2024 33.4 45.7024 34.6 45.0024C35.1 44.7024 35.5 44.5024 36 44.3024C36.5 44.0024 36.9 43.8024 37.4 43.5024C37.3 44.0024 36.5 48.5024 36.3 48.7024C35.8 49.2024 31.1 50.8024 30.1 51.0024C29.5 51.1024 28.9 51.3024 28.3 51.4024ZM34.1 57.1024H33.4C32 57.0024 30.9 56.1024 29.2 55.1024C28.5 54.7024 27.9 54.3024 27.2 53.9024C26.7 53.6024 26.8 53.6024 26.1 53.7024C25.8 53.8024 25.2 53.9024 24.7 53.9024C24.9 54.2024 25.7 54.8024 26.1 55.0024C26.3 55.2024 26.6 55.3024 26.8 55.5024C27.3 55.9024 27.3 57.1024 26.2 57.1024C25.7 57.1024 23.6 55.3024 23.2 55.0024C22.2 54.2024 22.3 54.1024 21.5 54.1024C20.4 54.1024 18.1 54.7024 18.4 53.2024C18.6 52.1024 19.9 52.5024 21.2 52.3024C22 52.2024 21.9 52.2024 22.2 51.5024C22.6 50.7024 23 49.9024 23.4 49.1024C23.6 48.7024 23.8 48.4024 24 47.9024C24.7 46.4024 25.9 47.3024 25.9 47.9024C25.9 48.6024 24.1 51.4024 24 52.1024C24.2 52.0024 25 52.0024 25.4 51.9024C26.8 51.7024 26.1 52.1024 27.4 49.4024C28.1 47.9024 28.4 46.7024 29.6 45.6024C30.6 44.6024 32.4 44.1024 33.5 43.5024L35.5 42.5024C38.4 40.7024 38.1 40.9024 40.8 38.7024L42.8 36.9024C42.9 36.7024 43 36.7024 43.1 36.5024L44.5 34.9024C44.7 34.6024 44.9 34.4024 45.2 34.1024C45.6 33.6024 46.1 32.9024 46.6 32.5024C49.1 30.3024 53 30.3024 55.4 32.7024C56 33.3024 56.3 33.6024 56.8 34.5024C57.4 35.7024 57.4 36.5024 57.4 37.7024C57.4 39.7024 55.9 41.7024 54.7 43.0024L52.8 45.1024C51.5 46.4024 50.2 47.8024 48.7 49.0024C44.6 52.4024 41.2 54.4024 36.3 56.4024C35.4 56.8024 34.7 57.0024 34.1 57.1024ZM29.4 53.0024C30.1 52.9024 33.5 51.8024 34.2 51.6024C36.4 50.8024 38.4 49.7024 40.4 48.6024C41.1 48.2024 41.6 47.8024 42.3 47.4024C43.1 46.9024 42.9 47.0024 44.7 47.3024L47.5 47.7024L42.5 51.4024L39.1 53.3024C38.3 53.7024 37.6 54.0024 36.8 54.4024C35.6 55.0024 34.2 55.7024 32.8 55.1024C32.2 54.9024 31.2 54.1024 30.6 53.8024C30.2 53.6024 29.6 53.2024 29.4 53.0024Z" fill="white"/>
<path fill-rule="evenodd" clip-rule="evenodd" d="M12 18.1024C12 21.5024 13.4 22.8024 15.9 24.5024C18 25.9024 21.3 27.7024 23.7 28.7024C25.8 29.6024 26.7 29.9024 29.1 30.5024C31.6 31.2024 35.3 31.9024 38 31.9024C39.6 31.9024 41.8 31.1024 42.9 30.2024L44.6 28.7024C44.7 28.6024 45.4 27.9024 45.4 27.8024C45.7 27.7024 46.5 27.7024 46.9 27.7024C46.7 28.0024 45.7 29.5024 45.7 29.7024C45.7 30.6024 46.7 31.3024 47.5 30.1024C48 29.3024 48.5 28.7024 48.9 27.9024C49.3 27.3024 49.2 27.4024 50 27.3024C50.5 27.2024 51 27.1024 51.6 27.0024C52.5 26.9024 54.1 26.8024 54.1 25.9024C54.1 24.6024 52.6 25.0024 52.1 25.1024L49.3 25.5024L47.3 21.2024C47 20.6024 46.8 20.1024 46.1 20.1024C45.7 20.1024 45.2 20.5024 45.2 20.9024C45.2 21.6024 47.3 25.0024 47.5 25.8024C46.7 25.8024 46.4 25.9024 45.6 25.9024L43.3 22.0024C42.8 21.2024 42.2 20.6024 41.4 20.0024C40.1 19.1024 39.3 19.1024 37.4 18.9024C35.8 18.7024 34.5 18.4024 33.1 18.1024C30.4 17.4024 28 16.4024 25.8 15.3024C25.5 15.2024 25.3 15.0024 25 14.9024C24.7 14.7024 24.4 14.6024 24.1 14.4024C23.6 14.1024 23.1 13.7024 22.6 13.4024C21 12.3024 20.2 12.0024 18.2 12.0024C15 11.9024 12 14.9024 12 18.1024ZM35 25.0024C34.5 25.0024 32.6 24.5024 32 24.3024C31.5 24.2024 31.1 24.0024 30.6 23.8024C29.2 23.4024 27.9 22.8024 26.5 22.2024C25.3 21.7024 23.9 21.0024 22.8 20.3024C21.4 19.4024 20.8 20.9024 21.4 21.5024C21.9 22.0024 26.7 24.4024 27.8 24.6024L27.5 24.8024C27.4 24.9024 27.3 24.9024 27.2 24.9024C26.9 25.0024 26.8 25.1024 26.6 25.2024C26.1 25.4024 25.8 25.6024 25.3 25.8024C23.7 26.6024 24.3 26.8024 21.4 25.3024C21.2 25.2024 21 25.1024 20.8 25.0024L18.9 23.9024C18.2 23.5024 15.9 22.1024 15.4 21.6024C14.5 20.8024 14.3 20.5024 13.9 19.2024C13.1 16.3024 15.4 13.0024 19.2 13.5024C20.6 13.7024 21.7 14.7024 23 15.5024C23.4 15.8024 23.8 16.0024 24.2 16.2024C24.4 16.3024 24.6 16.4024 24.8 16.6024C25 16.7024 25.2 16.8024 25.4 16.9024C25.9 17.1024 26.3 17.4024 26.7 17.5024C28.4 18.3024 29.2 18.5024 30.9 19.1024C31.4 19.3024 31.9 19.4024 32.4 19.5024C32.8 19.6024 32.8 19.8024 33.2 20.7024C33.6 21.7024 34.9 24.6024 35 25.0024ZM35 20.4024C38.7 21.3024 40.1 20.1024 42.2 23.7024C42.4 24.1024 42.6 24.4024 42.9 24.8024C43.1 25.1024 43.5 25.7024 43.6 26.0024L41.9 25.9024C41.2 25.9024 40.8 25.8024 40.2 25.8024L37.8 25.5024C37.1 25.4024 37.2 25.3024 36.6 24.0024L35.5 21.6024C35.3 21.2024 35.2 20.8024 35 20.4024ZM43 27.8024C42.4 28.7024 40.7 29.6024 39.7 29.9024C36.9 30.7024 31.2 29.3024 28.3 28.4024C27.7 28.2024 26.7 27.8024 26.2 27.8024C26.4 27.5024 29.1 26.3024 29.6 26.0024C30.3 25.6024 30.2 25.8024 31.5 26.1024C32.2 26.3024 32.9 26.5024 33.6 26.7024L35.7 27.1024C36.5 27.2024 37.2 27.4024 38 27.5024C39.6 27.6024 41.2 27.8024 43 27.8024Z" fill="white"/>
<path fill-rule="evenodd" clip-rule="evenodd" d="M18.2 18.9024C18.2 20.5024 20 20.2024 20 19.1024C20 17.8024 18.2 18.1024 18.2 18.9024Z" fill="white"/>
</svg>
