<svg width="267" height="96" viewBox="0 0 267 96" fill="none" xmlns="http://www.w3.org/2000/svg">
<rect width="266.182" height="96" fill="#1B1B1B"/>
<rect x="31.3744" y="4.30493" width="85.0979" height="32.287" rx="12" fill="#D9D9D9"/>
<path d="M147.56 86.1703C144.686 85.5787 143.663 84.4769 143.048 80.9327C143.048 80.9327 142.618 19.5874 143.119 16.7175C143.621 13.8475 144.694 12.8864 147.847 12.4843L175.64 12.5441C177.76 12.6539 179.293 13.68 179.938 16.6337C180.582 19.5874 180.869 78.7085 180.153 81.8655C179.436 85.0224 178.038 86.1933 174.637 86.1703H147.56Z" fill="#D9D9D9"/>
<path d="M100.097 86.1703C97.2225 85.5787 96.2 84.4769 95.5843 80.9327C95.5843 80.9327 95.1546 19.5874 95.656 16.7175C96.1574 13.8475 97.2303 12.8864 100.384 12.4843L128.177 12.5441C130.297 12.6539 131.83 13.68 132.475 16.6337C133.119 19.5874 133.406 78.7085 132.689 81.8655C131.973 85.0224 130.575 86.1933 127.174 86.1703H100.097Z" stroke="#D9D9D9"/>
<path d="M52.6772 87.6053C49.8026 87.0137 48.7801 85.9119 48.1644 82.3677C48.1644 82.3677 47.7346 21.0224 48.236 18.1525C48.7375 15.2825 49.8103 14.3213 52.9637 13.9193L80.7569 13.9791C82.8766 14.0889 84.4102 15.115 85.0547 18.0687C85.6992 21.0224 85.9857 80.1435 85.2694 83.3005C84.5531 86.4574 83.155 87.6283 79.7538 87.6053H52.6772Z" stroke="#D9D9D9"/>
<path d="M194.221 87.6053C191.346 87.0137 190.323 85.9119 189.708 82.3677C189.708 82.3677 189.278 21.0224 189.779 18.1525C190.281 15.2825 191.354 14.3213 194.507 13.9193L222.3 13.9791C224.42 14.0889 225.954 15.115 226.598 18.0687C227.243 21.0224 227.529 80.1435 226.813 83.3005C226.097 86.4574 224.698 87.6283 221.297 87.6053H194.221Z" stroke="#D9D9D9"/>
</svg>
