<svg width="64" height="64" viewBox="0 0 64 64" fill="none" xmlns="http://www.w3.org/2000/svg">
<rect width="64" height="64" rx="15" fill="#1C2A4D"/>
<path fill-rule="evenodd" clip-rule="evenodd" d="M11 34.9V35.8C11.1 36.1 11.1 36.6 11.3 37.4C11.5 37.9 11.7 38.4 11.9 38.8C12.2 39.3 12.4 39.6 12.7 40C15.3 43.2 20.2 45.3 24.5 46.1C25.6 46.3 26.8 46.5 27.9 46.6C28.6 46.7 31.2 46.7 31.6 46.9H32.8C33.1 46.8 34.2 46.8 34.6 46.8C35.2 46.7 35.8 46.7 36.4 46.6C39.6 46.2 42.8 45.5 45.6 44.1C47.1 43.3 47.9 43 49.2 41.9C50.9 40.5 52.3 38.9 52.8 36.7C52.8 36.5 52.9 36 52.9 35.8V34.9C52.8 34.6 52.8 34.2 52.7 33.9C52.5 33 52 32.2 51.5 31.5C51.1 31 50.8 30.6 50.4 30.2L49.2 29C48.8 28.7 46.9 27.2 46.2 27.2C45.5 27.2 45 27.8 45.4 28.5C45.6 29 46.3 29.2 46.8 29.5C48.5 30.5 50.7 32.3 51.1 34.9C51.5 37.9 49.1 40 47.6 41.1C41.8 45.2 31 46 23.6 44.2C20.1 43.3 16.4 41.8 14.2 39.1C12.4 36.9 12.4 34.3 14.1 32.1C14.8 31.2 15.6 30.5 16.7 29.8C20.8 27 26.4 26 32.2 25.9C33 25.9 33.8 26.2 34.2 25.7C34.7 25.2 34.5 24.4 33.8 24.2C32.8 23.9 30.4 24.1 29.2 24.2C23.9 24.7 18.9 26 14.8 29C14.1 29.5 12.9 30.8 12.4 31.4C12 31.9 11.7 32.4 11.5 33C11.1 34 11.1 34.7 11 34.9Z" fill="white"/>
<path fill-rule="evenodd" clip-rule="evenodd" d="M40.2 17H39.5C39.1 17.2 38.4 17.1 37.5 17.8C35.1 19.5 35.5 21.6 35.5 24.4C35.5 26.3 35.5 28.2 35.5 30.1C35.5 30.8 35.4 32.3 35.8 32.7C36 32.9 37.3 33.4 37.3 31.9L40 33.2C40.8 33.6 41.6 34.1 42.4 34.4L42.6 34.5C42.6 35.4 42.4 36.6 43.6 36.5C44.6 36.4 44.4 35.2 44.4 34.3C44.4 31.4 44.3 28 44.4 25.1C44.4 24.2 44.6 23.4 45.3 22.9C46.9 21.8 48.9 22.6 49.4 24C49.6 24.6 49.4 26 50.5 26C51 26 51.2 25.7 51.3 25.3C51.4 24.9 51.3 24.3 51.2 23.9C50.9 23 50.5 22.3 50 21.9C48 19.9 45.3 20.2 43.6 22.1C42.2 23.7 42.5 24.6 42.4 27.1L37.1 24.6C37.1 22.5 36.6 19.8 38.7 19C39.3 18.8 40.1 18.8 40.8 19C41.8 19.4 41.5 19.9 42.2 20C43.1 20.1 44.2 19 41.8 17.6C41.1 17 40.8 17.2 40.2 17ZM37.2 26.5C37.6 26.7 38 26.9 38.5 27.1C39.5 27.5 40.2 27.9 41.2 28.4C41.6 28.6 42.2 28.8 42.5 29.1V32.4C42.1 32.3 37.8 30 37.2 29.9V26.5Z" fill="white"/>
<path fill-rule="evenodd" clip-rule="evenodd" d="M24.3 29.9C24.5 29.3 24 28.8 23.4 28.8C22.8 28.8 22.2 29 21.8 29.2C19.5 30.2 15.7 32.3 15.7 35.3C15.7 36.9 16.4 37.8 17.3 38.8C17.5 39.1 18.1 39.5 18.4 39.7C20.2 41 22.4 41.9 24.7 42.4C30.8 43.9 39.6 43.4 45 39.9C46.2 39.1 48.3 37.3 48 34.9C47.9 33.8 47.2 32.7 46.7 32.1C45.7 30.9 44.3 31.9 45 33C45.1 33.2 45.3 33.4 45.5 33.5C47 35.1 46 36.9 44.5 38.2C43.2 39.3 40.9 40.2 38.8 40.7C34.5 41.7 28.5 41.8 24.2 40.6C23.1 40.3 22.2 40 21.2 39.5C20.6 39.2 19.8 38.8 19.3 38.4L18.9 38C18.5 37.7 18.3 37.4 18 36.9C17 35.3 18 33.7 19.2 32.8C21.9 30.6 24.1 31 24.3 29.9Z" fill="white"/>
<path fill-rule="evenodd" clip-rule="evenodd" d="M32 28.7C32.3 27.7 30.9 26.9 30 28.5C28.7 30.8 30.8 31.9 30.8 32.9C30.8 33.4 30.3 33.9 30.1 34.2C29.5 35.1 29.4 36.4 30 37.3C31 38.9 32.3 38 32 37.1C31.8 36.5 31.3 36.6 31.4 35.7C31.4 34.9 33.6 33.7 32.2 31.4C31.9 30.9 31.5 30.8 31.4 30.2C31.3 29.2 31.8 29.2 32 28.7Z" fill="white"/>
<path fill-rule="evenodd" clip-rule="evenodd" d="M27.2 27.6C26.6 27.7 26.1 28.6 25.9 29.3C25.6 30.3 26 31 26.4 31.6C26.8 32.2 27.1 32.4 27 33.1C26.9 33.4 26.9 33.4 26.7 33.6C26.1 34.2 26.6 35.4 27.6 35.2C28.4 35 29.6 32.9 28.3 31.1C27.7 30.3 27.3 30.2 28 29.1C28.2 28.8 28.4 28.5 28.2 28.1C28.1 27.8 27.7 27.5 27.2 27.6Z" fill="white"/>
</svg>
