<svg width="64" height="64" viewBox="0 0 64 64" fill="none" xmlns="http://www.w3.org/2000/svg">
<rect width="64" height="64" rx="15" fill="#1C2A4D"/>
<path fill-rule="evenodd" clip-rule="evenodd" d="M26.5 18.4C26.8 18.2 27.2 18.3 27.7 18.3C28.5 18.3 29.5 19.1 30.6 19.4C33.5 20.3 34.6 18.3 36.2 18.3C37.1 18.3 37.8 18.2 38.6 19.3C39.7 20.7 40.7 22.9 40.7 24.8C39 24.8 36.3 27.1 36.3 30.2H38.3C38.4 28.5 39.6 26.9 41.5 26.6C42.1 26.5 42.8 26.3 42.8 25.5C42.8 21.8 40.9 16.2 36.5 16.2C35.1 16.2 33.9 16.9 33 17.4C33 15.8 33.3 14.9 34.5 14C36 12.9 34.7 12 34.2 12C33.5 12 32.2 13.4 31.9 13.9C31.3 14.8 31 15.9 31 17.4C29.1 16.5 27.3 15.6 25.2 16.8C22.8 18.1 24.5 19.1 24.9 19.7C26.3 21.8 25.2 24.9 22.5 25.4C22.2 25.5 21.9 25.5 21.7 25.6C21.5 25.7 21.2 26 21.2 26.3C21.2 27.4 21.5 28.8 22 30.1H24.1C23.7 29.2 23.3 27.9 23.3 27.1C25.2 26.9 28.4 23.8 27.1 19.8C26.8 19 26.5 18.8 26.5 18.4Z" fill="white"/>
<path fill-rule="evenodd" clip-rule="evenodd" d="M35.2 29.4C34.3 29.4 34.3 30.8 35.2 30.8H48.8V39.3H45.1V37.6C45.8 37.6 46.4 37.7 46.4 36.8C46.4 36.5 46.1 36.2 45.8 36.2H18.3C17.4 36.2 17.4 37.6 18.3 37.6H19V39.3H15.4V30.8H29C29.9 30.8 29.9 29.4 29 29.4C18.1 29.4 21.7 29.4 15.2 29.4C14.7 29.4 14 30.1 14 30.6V39.5C14 40 14.6 40.7 15.3 40.7H19C19 42.3 18.7 43.2 19.8 43.2C20.1 43.2 20.4 42.9 20.4 42.6V37.6H23.1V45.1C23.1 46 24 46.2 24.4 45.7C24.5 45.6 24.6 45.3 24.6 45V37.6H27.2V43.1C27.2 44.1 28.1 44.2 28.5 43.8C28.6 43.7 28.7 43.5 28.7 43.3V37.6H31.4V43.4C31.4 44.3 32.8 44.3 32.8 43.4V37.6H35.5V43.3C35.5 44.2 37 44.3 37 43.2V37.6H39.6V43C39.6 44.5 41.1 44.2 41.1 43.4V37.7H43.8V50.5C43.8 50.9 44.1 51.1 44.4 51.1H44.6C44.9 51.1 45.2 50.9 45.2 50.5V40.7H49C49.4 40.7 49.7 40.5 49.9 40.3C50.1 40.1 50.3 39.8 50.3 39.5V30.6C50.3 30.1 49.6 29.4 49.1 29.4C42.6 29.4 46.1 29.4 35.2 29.4Z" fill="white"/>
<path fill-rule="evenodd" clip-rule="evenodd" d="M41.4 46.5C41.4 48 41.1 49.3 42.2 49.3C42.6 49.3 42.8 49 42.8 48.6V46.1C42.9 45.4 41.4 45 41.4 46.5Z" fill="white"/>
<path fill-rule="evenodd" clip-rule="evenodd" d="M33.2 46.2V48.7C33.2 49.6 34.6 49.6 34.6 48.7V46.2C34.6 46 34.5 45.8 34.4 45.7C33.9 45.2 33.2 45.7 33.2 46.2Z" fill="white"/>
<path fill-rule="evenodd" clip-rule="evenodd" d="M24.9 48.2V50.3C24.9 50.7 25.2 51 25.6 51H25.7C26 51 26.4 50.7 26.4 50.2C26.4 48.5 26.7 47.5 25.5 47.5C25.3 47.5 24.9 47.9 24.9 48.2Z" fill="white"/>
<path fill-rule="evenodd" clip-rule="evenodd" d="M37.3 48.2V50.3C37.3 50.7 37.6 51 38 51H38.1C38.5 51 38.8 50.7 38.8 50.2C38.8 48.5 39.1 47.5 37.9 47.5C37.6 47.5 37.3 47.9 37.3 48.2Z" fill="white"/>
<path fill-rule="evenodd" clip-rule="evenodd" d="M20.8 45.7V47.8C20.8 48.7 22.2 48.7 22.2 47.8V45.7C22.2 44.8 20.8 44.8 20.8 45.7Z" fill="white"/>
<path fill-rule="evenodd" clip-rule="evenodd" d="M29.7 47.2C30.5 47.2 30.6 46.4 30.3 46C30.1 45.7 29.9 45.8 29.7 45.8C28.8 45.8 28.8 47.2 29.7 47.2Z" fill="white"/>
<path fill-rule="evenodd" clip-rule="evenodd" d="M20.8 33.4C20.8 34.5 22.2 34.5 22.2 33.4C22.2 32.6 20.8 32.6 20.8 33.4Z" fill="white"/>
<path fill-rule="evenodd" clip-rule="evenodd" d="M24.8 33.4C24.8 34.5 26.2 34.5 26.2 33.4C26.2 32.6 24.8 32.6 24.8 33.4Z" fill="white"/>
<path fill-rule="evenodd" clip-rule="evenodd" d="M28.7 33.4C28.7 34.5 30.1 34.5 30.1 33.4C30.1 32.6 28.7 32.6 28.7 33.4Z" fill="white"/>
</svg>
