<svg width="64" height="64" viewBox="0 0 64 64" fill="none" xmlns="http://www.w3.org/2000/svg">
<rect width="64" height="64" rx="15" fill="#1C2A4D"/>
<path d="M12.8 31.6H40.5C40.9 31.6 41.3 31.9 41.3 32.4V37C41.3 37.4 41 37.8 40.5 37.8H12.8C12.3 37.7 12 37.4 12 37V32.4C12 31.9 12.3 31.6 12.8 31.6ZM39.7 33.1H13.5V36.2H39.7V33.1Z" fill="white"/>
<path d="M38.2 33.1H15.1C14.7 33.1 14.3 32.8 14.3 32.3C14.3 28.4 15.6 25.4 17.6 23.4C19.9 21.1 23.1 20 26.6 20C30 20 33.1 21.4 35.3 23.6C37.5 25.8 38.9 28.9 38.9 32.3C39 32.8 38.6 33.1 38.2 33.1ZM15.9 31.6H37.4C37.2 28.9 36 26.5 34.3 24.7C32.3 22.7 29.7 21.5 26.7 21.5C23.6 21.5 20.7 22.5 18.8 24.4C17.1 26.1 16 28.5 15.9 31.6Z" fill="white"/>
<path d="M52.8 10.8V13.9C52.8 14.3 52.5 14.7 52 14.7H29.7C29.5 14.7 29.3 14.8 29.2 14.9C29 15 29 15.2 29 15.4V20.2C28.5 20.1 28 20 27.5 20V15.4C27.5 14.8 27.8 14.2 28.2 13.8C28.6 13.4 29.2 13.1 29.8 13.1H51.3V11.5H29.7C28.6 11.5 27.7 11.9 27 12.6C26.3 13.3 25.9 14.3 25.9 15.3V20C25.4 20 24.9 20.1 24.4 20.2V15.4C24.4 13.9 25 12.6 26 11.6C27 10.6 28.3 10 29.8 10H52C52.4 10 52.8 10.3 52.8 10.8Z" fill="white"/>
<path d="M14.9 45.5C14.5 45.1 14.3 44.5 14.3 43.7C14.3 42.1 16 40.3 16.1 40.3C16.4 40 16.9 40 17.2 40.3C17.2 40.3 19 42.1 19 43.7C19 44.5 18.8 45.1 18.4 45.5C18 46 17.3 46.2 16.7 46.2C16 46.2 15.3 46 14.9 45.5ZM15.9 43.7C15.9 44.1 16 44.3 16.1 44.5C16.2 44.6 16.4 44.7 16.7 44.7C16.9 44.7 17.2 44.6 17.3 44.5C17.4 44.4 17.5 44.1 17.5 43.7C17.5 43.2 17.1 42.5 16.7 42C16.3 42.5 15.9 43.2 15.9 43.7Z" fill="white"/>
<path d="M24.9 45.5C24.5 45.1 24.3 44.5 24.3 43.7C24.3 42.1 26 40.3 26.1 40.3C26.4 40 26.9 40 27.2 40.3C27.2 40.3 29 42.1 29 43.7C29 44.5 28.8 45.1 28.4 45.5C28 46 27.3 46.2 26.7 46.2C26 46.2 25.4 46 24.9 45.5ZM25.9 43.7C25.9 44.1 26 44.3 26.1 44.5C26.2 44.6 26.4 44.7 26.7 44.7C26.9 44.7 27.2 44.6 27.3 44.5C27.4 44.4 27.5 44.1 27.5 43.7C27.5 43.2 27.1 42.5 26.7 42C26.3 42.5 25.9 43.2 25.9 43.7Z" fill="white"/>
<path d="M19.9 53.2C19.5 52.8 19.3 52.2 19.3 51.4C19.3 49.8 21 48 21.1 48C21.4 47.7 21.9 47.7 22.2 48C22.2 48 24 49.8 24 51.4C24 52.2 23.8 52.8 23.4 53.2C23 53.7 22.3 53.9 21.7 53.9C21.1 53.9 20.4 53.7 19.9 53.2ZM20.9 51.4C20.9 51.8 21 52 21.1 52.2C21.2 52.3 21.4 52.4 21.7 52.4C21.9 52.4 22.2 52.3 22.3 52.2C22.4 52.1 22.5 51.8 22.5 51.4C22.5 50.9 22.1 50.2 21.7 49.7C21.3 50.2 20.9 50.9 20.9 51.4Z" fill="white"/>
<path d="M29.9 53.2C29.5 52.8 29.3 52.2 29.3 51.4C29.3 49.8 31 48 31.1 48C31.4 47.7 31.9 47.7 32.2 48C32.2 48 34 49.8 34 51.4C34 52.2 33.8 52.8 33.4 53.2C33 53.7 32.3 53.9 31.7 53.9C31.1 53.9 30.4 53.7 29.9 53.2ZM30.9 51.4C30.9 51.8 31 52 31.1 52.2C31.2 52.3 31.4 52.4 31.7 52.4C31.9 52.4 32.2 52.3 32.3 52.2C32.4 52.1 32.5 51.8 32.5 51.4C32.5 50.9 32.1 50.2 31.7 49.7C31.3 50.2 30.9 50.9 30.9 51.4Z" fill="white"/>
<path d="M34.9 45.5C34.5 45.1 34.3 44.5 34.3 43.7C34.3 42.1 36 40.3 36.1 40.3C36.4 40 36.9 40 37.2 40.3C37.2 40.3 39 42.1 39 43.7C39 44.5 38.8 45.1 38.4 45.5C38 46 37.3 46.2 36.7 46.2C36 46.2 35.4 46 34.9 45.5ZM35.9 43.7C35.9 44.1 36 44.3 36.1 44.5C36.2 44.6 36.4 44.7 36.7 44.7C36.9 44.7 37.2 44.6 37.3 44.5C37.4 44.4 37.5 44.1 37.5 43.7C37.5 43.2 37.1 42.5 36.7 42C36.3 42.5 35.9 43.2 35.9 43.7Z" fill="white"/>
</svg>
