<svg width="24" height="24" viewBox="0 0 24 24" fill="none" xmlns="http://www.w3.org/2000/svg">
<path d="M11.988 0C5.364 0 0 5.376 0 12C0 18.624 5.364 24 11.988 24C18.624 24 24 18.624 24 12C24 5.376 18.624 0 11.988 0ZM16.8 16.8C16.689 16.9112 16.5571 16.9995 16.4119 17.0597C16.2668 17.1199 16.1112 17.1509 15.954 17.1509C15.7968 17.1509 15.6412 17.1199 15.4961 17.0597C15.3509 16.9995 15.219 16.9112 15.108 16.8L11.16 12.852C11.0466 12.7409 10.9564 12.6083 10.8946 12.4621C10.8328 12.3158 10.8007 12.1588 10.8 12V7.2C10.8 6.54 11.34 6 12 6C12.66 6 13.2 6.54 13.2 7.2V11.508L16.8 15.108C17.268 15.576 17.268 16.332 16.8 16.8Z" fill="#008ED6"/>
</svg>
