<svg width="14" height="18" viewBox="0 0 14 18" fill="none" xmlns="http://www.w3.org/2000/svg">
<g clip-path="url(#clip0_952_1475)">
<path d="M4.84985 6.51318H5.92935V13.9737H4.84985V6.51318ZM8.08835 6.51318H9.16785V13.9737H8.08835V6.51318Z" fill="#1C2A4D"/>
<path d="M0.531982 2.78298V4.02641H1.61148V16.4606C1.61148 16.7904 1.72521 17.1067 1.92766 17.3398C2.1301 17.573 2.40468 17.704 2.69098 17.704H11.327C11.6133 17.704 11.8878 17.573 12.0903 17.3398C12.2927 17.1067 12.4065 16.7904 12.4065 16.4606V4.02641H13.486V2.78298H0.531982ZM2.69098 16.4606V4.02641H11.327V16.4606H2.69098ZM4.84998 0.296143H9.16797V1.53956H4.84998V0.296143Z" fill="#1C2A4D"/>
</g>
<defs>
<clipPath id="clip0_952_1475">
<rect width="13.9821" height="18" fill="white" transform="translate(0.0178223)"/>
</clipPath>
</defs>
</svg>
