<svg width="24" height="24" viewBox="0 0 24 24" fill="none" xmlns="http://www.w3.org/2000/svg">
<path d="M1.5 20.8372C1.5 21.0465 1.53906 21.2403 1.61719 21.4186C1.69531 21.5969 1.80078 21.7519 1.93359 21.8837C2.06641 22.0155 2.22656 22.124 2.41406 22.2093C2.60156 22.2946 2.79688 22.3333 3 22.3256H10.5L13.5117 23.814H3C2.58594 23.814 2.19922 23.7364 1.83984 23.5814C1.48047 23.4264 1.16016 23.2132 0.878906 22.9419C0.597656 22.6705 0.382812 22.3566 0.234375 22C0.0859375 21.6434 0.0078125 21.2558 0 20.8372V2.97674C0 2.5969 0.0820312 2.22868 0.246094 1.87209C0.410156 1.5155 0.632812 1.19767 0.914062 0.918605C1.19531 0.639535 1.51562 0.418605 1.875 0.255814C2.23438 0.0930233 2.60938 0.00775194 3 0H19.5V9.57752L18 9V8.83592V1.48837H3C2.82031 1.48837 2.64062 1.53101 2.46094 1.61628C2.28125 1.70155 2.12109 1.81783 1.98047 1.96512C1.83984 2.1124 1.72656 2.27132 1.64062 2.44186C1.55469 2.6124 1.50781 2.7907 1.5 2.97674V18.2791C1.72656 18.1473 1.96484 18.0465 2.21484 17.9767C2.46484 17.907 2.72656 17.8682 3 17.8605H10.5V19.3488H3C2.78906 19.3488 2.59375 19.3876 2.41406 19.4651C2.23438 19.5426 2.07812 19.6473 1.94531 19.7791C1.8125 19.9109 1.70312 20.0698 1.61719 20.2558C1.53125 20.4419 1.49219 20.6357 1.5 20.8372ZM24 11.8023V20.6628L17.25 24L10.5 20.6628V11.8023L17.25 8.46512L18 8.83592L24 11.8023ZM17.25 10.1279L12.9258 12.2674L17.25 14.407L21.5742 12.2674L17.25 10.1279ZM12 19.7442L16.5 21.9651V15.6977L12 13.4651V19.7442ZM22.5 19.7442V13.4651L18 15.6977V21.9651L22.5 19.7442Z" fill="#008ED6"/>
<path d="M18 8.83592V1.48837H3C2.82031 1.48837 2.64062 1.53101 2.46094 1.61628C2.28125 1.70155 2.12109 1.81783 1.98047 1.96512C1.83984 2.1124 1.72656 2.27132 1.64062 2.44186C1.55469 2.6124 1.50781 2.7907 1.5 2.97674V18.2791C1.72656 18.1473 1.96484 18.0465 2.21484 17.9767C2.46484 17.907 2.72656 17.8682 3 17.8605H10.5V11.8023L17.25 8.46512L18 8.83592Z" fill="#008ED6"/>
</svg>
