<svg width="169" height="153" viewBox="0 0 169 153" fill="none" xmlns="http://www.w3.org/2000/svg">
<g clip-path="url(#clip0_342_746)">
<path d="M160.001 66C158.845 64.6166 157.623 64 156.004 64H14.1013C12.482 64 10.2614 64.6166 9.10476 66C7.94809 67.3834 7.87411 69.386 8.10545 71L20.0972 148C20.5599 150.767 23.0858 153 26.0931 153H144.012C146.788 153 149.546 150.767 150.008 148L162 71C162 69.386 161.158 67.1528 160.001 66Z" fill="#008ED6"/>
<rect x="91" y="89" width="18" height="43" fill="#1C2A4D"/>
<rect x="35" y="89" width="18" height="43" fill="#1C2A4D"/>
<rect x="63" y="89" width="18" height="43" fill="#1C2A4D"/>
<rect x="119" y="89" width="18" height="43" fill="#1C2A4D"/>
<path d="M148 76L21 77H9L10 81H21H148H159L160 76H148Z" fill="#1C2A4D"/>
<path d="M168 62C166.384 58.7579 163.232 57 160 57H9C5.53689 57 2.61612 58.7579 1 62C0.0765027 63.8526 0 65.9158 0 68C0 74.0211 3.92076 79 9 79H160C165.079 79 169 74.0211 169 68C169 65.9158 168.923 63.8526 168 62Z" fill="#008ED6"/>
<path d="M54.8136 65.0889C55.6992 69.318 53.3774 73.9304 48.9493 74.8207C44.7427 75.711 40.0612 73.2108 39.1756 68.9816C38.29 64.7525 40.8332 60.1402 45.0398 59.2498C49.4678 58.1369 53.928 60.8598 54.8136 65.0889Z" fill="#1C2A4D"/>
<path d="M84.9877 7.98223C84.5152 12.167 81.2696 15.4207 77.0175 14.9557C73.0017 14.4907 69.5712 10.9383 70.0437 6.98602C70.5161 2.80127 73.7617 -0.21993 78.0138 0.0125559C82.0297 0.710014 85.2239 4.02996 84.9877 7.98223Z" fill="#1C2A4D"/>
<path d="M51.8573 67.7444C50.4463 70.4661 47.3444 72.8444 44.7574 71.7104C41.9353 70.5763 41.3178 67.4916 42.7289 64.77L72.1427 8.25557C73.5537 5.53393 76.6556 3.15563 79.2426 4.28965C82.0647 5.42367 82.6821 8.50837 81.2711 11.23L51.8573 67.7444Z" fill="#D9D9D9"/>
<path d="M113.183 65.0889C112.284 69.318 114.777 73.9304 119.046 74.8207C123.315 75.711 127.919 73.2108 128.817 68.9816C129.716 64.7525 127.223 60.1402 122.954 59.2498C118.91 58.1369 114.081 60.8598 113.183 65.0889Z" fill="#1C2A4D"/>
<path d="M84.0472 7.98223C84.4858 12.167 88.265 15.4207 91.9933 14.9557C95.7215 14.4907 98.3915 10.9383 97.9528 6.98602C97.5142 2.80127 93.9543 -0.21993 90.0067 0.0125559C86.2785 0.710014 83.6085 3.79748 84.0472 7.98223Z" fill="#1C2A4D"/>
<path d="M116.155 67.7378C117.533 70.49 120.742 72.8502 123.269 71.7034C126.026 70.5567 126.68 66.5244 125.302 63.7722L96.8452 7.26221C95.4666 4.51001 92.2584 2.14985 89.7311 3.29659C86.974 4.44334 86.32 8.47563 87.6985 11.2278L116.155 67.7378Z" fill="#D9D9D9"/>
</g>
<defs>
<clipPath id="clip0_342_746">
<rect width="169" height="153" fill="white"/>
</clipPath>
</defs>
</svg>
