<svg width="42" height="30" viewBox="0 0 42 30" fill="none" xmlns="http://www.w3.org/2000/svg">
<path fill-rule="evenodd" clip-rule="evenodd" d="M0 17.9V18.8C0.1 19.1 0.1 19.6 0.3 20.4C0.5 20.9 0.7 21.4 0.9 21.8C1.2 22.3 1.4 22.6 1.7 23C4.3 26.2 9.2 28.3 13.5 29.1C14.6 29.3 15.8 29.5 16.9 29.6C17.6 29.7 20.2 29.7 20.6 29.9H21.8C22.1 29.8 23.2 29.8 23.6 29.8C24.2 29.7 24.8 29.7 25.4 29.6C28.6 29.2 31.8 28.5 34.6 27.1C36.1 26.3 36.9 26 38.2 24.9C39.9 23.5 41.3 21.9 41.8 19.7C41.8 19.5 41.9 19 41.9 18.8V17.9C41.8 17.6 41.8 17.2 41.7 16.9C41.5 16 41 15.2 40.5 14.5C40.1 14 39.8 13.6 39.4 13.2L38.2 12C37.8 11.7 35.9 10.2 35.2 10.2C34.5 10.2 34 10.8 34.4 11.5C34.6 12 35.3 12.2 35.8 12.5C37.5 13.5 39.7 15.3 40.1 17.9C40.5 20.9 38.1 23 36.6 24.1C30.8 28.2 20 29 12.6 27.2C9.1 26.3 5.4 24.8 3.2 22.1C1.4 19.9 1.4 17.3 3.1 15.1C3.8 14.2 4.6 13.5 5.7 12.8C9.8 10 15.4 9 21.2 8.9C22 8.9 22.8 9.2 23.2 8.7C23.7 8.2 23.5 7.4 22.8 7.2C21.8 6.9 19.4 7.1 18.2 7.2C12.9 7.7 7.9 9 3.8 12C3.1 12.5 1.9 13.8 1.4 14.4C1 14.9 0.7 15.4 0.5 16C0.1 17 0.1 17.7 0 17.9Z" fill="#1C2A4D"/>
<path fill-rule="evenodd" clip-rule="evenodd" d="M29.2 0H28.5C28.1 0.2 27.4 0.1 26.5 0.8C24.1 2.5 24.5 4.6 24.5 7.4C24.5 9.3 24.5 11.2 24.5 13.1C24.5 13.8 24.4 15.3 24.8 15.7C25 15.9 26.3 16.4 26.3 14.9L29 16.2C29.8 16.6 30.6 17.1 31.4 17.4L31.6 17.5C31.6 18.4 31.4 19.6 32.6 19.5C33.6 19.4 33.4 18.2 33.4 17.3C33.4 14.4 33.3 11 33.4 8.1C33.4 7.2 33.6 6.4 34.3 5.9C35.9 4.8 37.9 5.6 38.4 7C38.6 7.6 38.4 9 39.5 9C40 9 40.2 8.7 40.3 8.3C40.4 7.9 40.3 7.3 40.2 6.9C39.9 6 39.5 5.3 39 4.9C37 2.9 34.3 3.2 32.6 5.1C31.2 6.7 31.5 7.6 31.4 10.1L26.1 7.6C26.1 5.5 25.6 2.8 27.7 2C28.3 1.8 29.1 1.8 29.8 2C30.8 2.4 30.5 2.9 31.2 3C32.1 3.1 33.2 2 30.8 0.6C30.1 0 29.8 0.2 29.2 0ZM26.2 9.5C26.6 9.7 27 9.9 27.5 10.1C28.5 10.5 29.2 10.9 30.2 11.4C30.6 11.6 31.2 11.8 31.5 12.1V15.4C31.1 15.3 26.8 13 26.2 12.9V9.5Z" fill="#1C2A4D"/>
<path fill-rule="evenodd" clip-rule="evenodd" d="M13.3 12.9C13.5 12.3 13 11.8 12.4 11.8C11.8 11.8 11.2 12 10.8 12.2C8.5 13.2 4.7 15.3 4.7 18.3C4.7 19.9 5.4 20.8 6.3 21.8C6.5 22.1 7.1 22.5 7.4 22.7C9.2 24 11.4 24.9 13.7 25.4C19.8 26.9 28.6 26.4 34 22.9C35.2 22.1 37.3 20.3 37 17.9C36.9 16.8 36.2 15.7 35.7 15.1C34.7 13.9 33.3 14.9 34 16C34.1 16.2 34.3 16.4 34.5 16.5C36 18.1 35 19.9 33.5 21.2C32.2 22.3 29.9 23.2 27.8 23.7C23.5 24.7 17.5 24.8 13.2 23.6C12.1 23.3 11.2 23 10.2 22.5C9.6 22.2 8.8 21.8 8.3 21.4L7.9 21C7.5 20.7 7.3 20.4 7 19.9C6 18.3 7 16.7 8.2 15.8C10.9 13.6 13.1 14 13.3 12.9Z" fill="#1C2A4D"/>
<path fill-rule="evenodd" clip-rule="evenodd" d="M21 11.7C21.3 10.7 19.9 9.9 19 11.5C17.7 13.8 19.8 14.9 19.8 15.9C19.8 16.4 19.3 16.9 19.1 17.2C18.5 18.1 18.4 19.4 19 20.3C20 21.9 21.3 21 21 20.1C20.8 19.5 20.3 19.6 20.4 18.7C20.4 17.9 22.6 16.7 21.2 14.4C20.9 13.9 20.5 13.8 20.4 13.2C20.3 12.2 20.8 12.2 21 11.7Z" fill="#1C2A4D"/>
<path fill-rule="evenodd" clip-rule="evenodd" d="M16.2 10.6C15.6 10.7 15.1 11.6 14.9 12.3C14.6 13.3 15 14 15.4 14.6C15.8 15.2 16.1 15.4 16 16.1C15.9 16.4 15.9 16.4 15.7 16.6C15.1 17.2 15.6 18.4 16.6 18.2C17.4 18 18.6 15.9 17.3 14.1C16.7 13.3 16.3 13.2 17 12.1C17.2 11.8 17.4 11.5 17.2 11.1C17.1 10.8 16.7 10.5 16.2 10.6Z" fill="#1C2A4D"/>
</svg>
