<svg width="24" height="30" viewBox="0 0 24 30" fill="none" xmlns="http://www.w3.org/2000/svg">
<path d="M12 15C12.825 15 13.5315 14.706 14.1195 14.118C14.7065 13.531 15 12.825 15 12C15 11.175 14.7065 10.4685 14.1195 9.8805C13.5315 9.2935 12.825 9 12 9C11.175 9 10.469 9.2935 9.882 9.8805C9.294 10.4685 9 11.175 9 12C9 12.825 9.294 13.531 9.882 14.118C10.469 14.706 11.175 15 12 15ZM12 30C7.975 26.575 4.969 23.3935 2.982 20.4555C0.994 17.5185 0 14.8 0 12.3C0 8.55 1.2065 5.5625 3.6195 3.3375C6.0315 1.1125 8.825 0 12 0C15.175 0 17.9685 1.1125 20.3805 3.3375C22.7935 5.5625 24 8.55 24 12.3C24 14.8 23.0065 17.5185 21.0195 20.4555C19.0315 23.3935 16.025 26.575 12 30Z" fill="#008ED6"/>
</svg>
