<svg width="12" height="12" viewBox="0 0 12 12" fill="none" xmlns="http://www.w3.org/2000/svg">
<path d="M11 1L7.45213 10.8249C7.42819 10.8771 7.38974 10.9214 7.34136 10.9525C7.29298 10.9835 7.2367 11 7.17922 11C7.12174 11 7.06546 10.9835 7.01708 10.9525C6.9687 10.9214 6.93026 10.8771 6.90631 10.8249L4.99592 7.00409L1.17514 5.0937C1.12288 5.06975 1.0786 5.0313 1.04755 4.98292C1.0165 4.93454 1 4.87827 1 4.82078C1 4.7633 1.0165 4.70702 1.04755 4.65864C1.0786 4.61027 1.12288 4.57182 1.17514 4.54787L11 1Z" stroke="#1C2A4D" stroke-width="1.09165" stroke-linecap="round" stroke-linejoin="round"/>
</svg>
