<svg width="94" height="26" viewBox="0 0 94 26" fill="none" xmlns="http://www.w3.org/2000/svg">
<path d="M17.2328 7.50301C16.4689 6.72144 15.4505 6.30461 14.3302 6.30461C13.2098 6.30461 12.1914 6.77355 11.4275 7.50301C10.6637 8.28457 10.2563 9.32665 10.2563 10.4729C10.2563 11.6192 10.7146 12.6613 11.4275 13.4429C12.1405 14.1723 13.2098 14.6413 14.3302 14.6413C15.4505 14.6413 16.4689 14.1723 17.2328 13.4429C17.9457 12.6613 18.404 11.6192 18.404 10.4729C18.455 9.32665 17.9966 8.28457 17.2328 7.50301ZM14.3811 3.80361C16.1634 3.80361 17.8439 4.53307 19.0151 5.78357C20.1863 6.98196 20.9502 8.6493 20.9502 10.5251C20.9502 12.4008 20.2373 14.0681 19.0151 15.2665C17.8439 16.4649 16.2143 17.2465 14.3811 17.2465C12.5988 17.2465 10.9183 16.517 9.74706 15.2665C8.57582 14.0681 7.81197 12.4008 7.81197 10.5251C7.81197 8.6493 8.52489 6.98196 9.74706 5.78357C10.9183 4.53307 12.5478 3.80361 14.3811 3.80361Z" fill="#1C2A4D"/>
<path d="M91.5557 10.9419V4.27254H94V17.6112H91.5557V16.1523C90.4354 17.0902 89.0095 17.6112 87.4818 17.6112C85.6995 17.6112 84.019 16.8818 82.8478 15.6313C81.6765 14.4329 80.9127 12.7655 80.9127 10.8898V4.27254H83.357V10.9419C83.357 12.0882 83.8153 13.1303 84.5283 13.9118C85.2921 14.6934 86.3106 15.1102 87.4309 15.1102C88.5512 15.1102 89.5697 14.6413 90.3335 13.9118C91.1483 13.1303 91.5557 12.0882 91.5557 10.9419Z" fill="#1C2A4D"/>
<path d="M2.44432 10.4729V17.1944H0V10.4729C0 8.6493 0.712927 6.92986 1.93509 5.73146C3.10633 4.53307 4.73587 3.7515 6.56912 3.7515H7.79128V6.2525H6.56912C5.4488 6.2525 4.43034 6.72144 3.66648 7.4509C2.90263 8.28457 2.44432 9.32665 2.44432 10.4729Z" fill="#1C2A4D"/>
<path d="M32.7238 3.80361H33.946V17.1944H31.5017V6.30461H29.1083C27.988 6.30461 26.9695 6.77355 26.2057 7.50301C25.4927 8.23246 25.0344 9.32665 25.0344 10.4729V17.1944H22.5901V10.4729C22.5901 8.6493 23.303 6.92986 24.5252 5.73146C25.6964 4.53307 27.326 3.7515 29.1592 3.7515H32.7238V3.80361Z" fill="#1C2A4D"/>
<path d="M72.4594 14.6413H73.6816V17.1944H72.4594C70.6771 17.1944 68.9966 16.4649 67.8254 15.2144C66.6541 14.016 65.8903 12.3487 65.8903 10.4729C65.8903 8.6493 66.6032 6.92986 67.8254 5.73146C68.9966 4.53307 70.6262 3.7515 72.4594 3.7515C74.2417 3.7515 75.9222 4.48096 77.0934 5.73146C78.2647 6.92986 78.9776 8.59719 79.0285 10.4208V17.1944H76.5842V10.4729C76.5842 9.32665 76.1259 8.28457 75.413 7.50301C74.6491 6.72144 73.6306 6.30461 72.5103 6.30461C71.39 6.30461 70.3716 6.77355 69.6077 7.50301C68.8948 8.23246 68.4365 9.32665 68.4365 10.4729C68.4365 11.6192 68.8948 12.6613 69.6077 13.4429C70.2697 14.1723 71.2882 14.6413 72.4594 14.6413Z" fill="#1C2A4D"/>
<path d="M42.3128 14.6413H43.5349V17.1944H42.3128C40.5304 17.1944 38.85 16.4649 37.6787 15.2144C36.5075 14.016 35.7436 12.3487 35.7436 10.4729C35.7436 8.59719 36.4566 6.92986 37.6787 5.73146C38.85 4.53307 40.4795 3.7515 42.3128 3.7515C44.146 3.7515 45.7756 4.53307 46.9468 5.73146C48.118 6.92986 48.831 8.59719 48.8819 10.4208V19.2786C48.8819 21.1022 48.1689 22.8216 46.9468 24.02C45.7756 25.2184 44.146 26 42.3128 26C41.4471 26 40.5814 25.8437 39.8175 25.479C39.0027 25.1663 38.2898 24.6453 37.6787 24.02L39.4101 22.2485C39.8175 22.6653 40.2249 22.9259 40.7341 23.1343C41.2434 23.3427 41.7526 23.4469 42.3128 23.4469C43.4331 23.4469 44.4515 22.978 45.2154 22.2485C45.9792 21.4669 46.3866 20.4248 46.3866 19.2786V10.4729C46.3866 9.32665 45.9283 8.28457 45.2154 7.50301C44.4515 6.72144 43.4331 6.30461 42.3128 6.30461C41.1924 6.30461 40.174 6.77355 39.4101 7.50301C38.6463 8.28457 38.2389 9.32665 38.2389 10.4729C38.2389 11.6192 38.6972 12.6613 39.4101 13.4429C40.174 14.1723 41.1924 14.6413 42.3128 14.6413Z" fill="#1C2A4D"/>
<path d="M90.5372 0V2.501H84.4264V0H90.5372Z" fill="#1C2A4D"/>
<path d="M61.409 10.4729C61.409 9.32665 60.9507 8.28457 60.2378 7.55511C59.5249 6.82565 58.5064 6.35671 57.3861 6.35671C56.2658 6.35671 55.2473 6.82565 54.5344 7.55511C53.8214 8.28457 53.3631 9.32665 53.3631 10.4729C53.3631 12.4529 53.3631 15.0581 53.3631 17.0381C56.113 15.006 61.409 15.1623 61.409 10.4729ZM50.9188 10.4729C50.9188 9.58717 51.0716 8.75351 51.4281 7.97194C51.7336 7.19038 52.2428 6.46092 52.803 5.83567C53.4141 5.21042 54.127 4.74148 54.8908 4.42886C55.6547 4.11623 56.4695 3.90782 57.3352 3.90782C58.2009 3.90782 59.0156 4.06413 59.7795 4.42886C60.5433 4.74148 61.2563 5.26252 61.8673 5.83567C62.4784 6.46092 62.9367 7.19038 63.2423 7.97194C63.5478 8.75351 63.7515 9.58717 63.7515 10.4729C63.7515 15.1623 60.747 16.3086 57.9462 17.4028C55.7565 18.2365 53.7196 19.0701 53.3122 21.4669V21.519H50.8679L50.9188 10.4729Z" fill="#008ED6"/>
</svg>
