<svg width="130" height="30" viewBox="0 0 130 30" fill="none" xmlns="http://www.w3.org/2000/svg">
<path fill-rule="evenodd" clip-rule="evenodd" d="M63.0581 12.7129C59.9388 17.4059 56.5137 24.1188 50.1835 24.1188H50.1529C47.737 24.1188 45.5352 23.1683 43.9144 21.5941C42.3241 20.0495 41.315 17.9109 41.315 15.5346V6.92079H44.3119V15.5644C44.3119 17.1089 44.9541 18.5347 46.0244 19.5446C47.0948 20.5842 48.5321 21.2079 50.1223 21.2079H50.1529C54.5871 21.2079 58.1651 14.6436 60.5199 11.1089L63.0581 12.7129Z" fill="#1C2A4D"/>
<path fill-rule="evenodd" clip-rule="evenodd" d="M109.327 6.95049C109.327 11.7327 109.327 16.5446 109.327 21.3267C109.327 23.703 108.318 25.8416 106.728 27.4158C105.046 29.0495 102.875 29.9406 100.459 29.9406V27.0297C102.049 27.0297 103.456 26.4356 104.587 25.3663C105.474 24.5049 106.086 23.3465 106.269 22.0396C104.648 23.4059 102.599 24.1485 100.428 24.1485C97.9816 24.1485 95.7798 23.1683 94.159 21.6238C92.5687 20.0495 91.5596 17.9109 91.5596 15.5346V6.92079H94.5565V15.5049C94.5565 17.0792 95.2293 18.5049 96.2691 19.5148C97.3394 20.5545 98.8073 21.1782 100.397 21.1782H100.428C102.049 21.1782 103.517 20.5247 104.557 19.5148C105.566 18.5346 106.238 17.1683 106.269 15.6832C106.269 12.7723 106.269 9.83168 106.269 6.92079H109.327V6.95049Z" fill="#1C2A4D"/>
<path fill-rule="evenodd" clip-rule="evenodd" d="M79.7553 15.5941C79.7553 13.2178 80.7645 11.0495 82.3547 9.47524C83.9755 7.90099 86.2079 6.95049 88.6544 6.95049V9.89108C87.0336 9.89108 85.5657 10.5445 84.4953 11.5842C83.425 12.6238 82.7522 14.0495 82.7522 15.6238V24.1782H79.7553V15.5941Z" fill="#1C2A4D"/>
<path fill-rule="evenodd" clip-rule="evenodd" d="M14.7095 15.7129C14.7095 15.6535 14.7095 15.5941 14.7095 15.5346C14.7095 13.9604 14.0673 12.5347 12.9969 11.495C11.9266 10.4554 10.4587 9.83168 8.83792 9.83168C7.21713 9.83168 5.74924 10.4554 4.6789 11.495C3.60856 12.5347 2.96636 13.9604 2.96636 15.5346C2.96636 17.1089 3.60856 18.5347 4.6789 19.5743C5.74924 20.6139 7.21713 21.2376 8.83792 21.2376C10.4587 21.2376 11.9266 20.6139 12.9969 19.5743C14.0061 18.5644 14.6789 17.2277 14.7095 15.7129ZM17.6758 21.3861C17.6758 23.7624 16.6667 25.901 15.0765 27.4752C13.3945 29.1089 11.2232 30 8.83792 30V27.0891C10.4281 27.0891 11.8349 26.495 12.9664 25.4257C14.0061 24.3564 14.6789 22.9307 14.6789 21.3861L14.7095 22.0099C13.1498 23.3168 11.1009 24.1485 8.8685 24.1485C6.42202 24.1485 4.22018 23.198 2.59939 21.6238C0.978593 20.0495 0 17.9109 0 15.5346C0 13.1584 0.978593 11.0198 2.59939 9.44554C4.1896 7.90099 6.42202 6.92079 8.8685 6.92079C11.1315 6.92079 13.211 7.75247 14.8012 9.11881V6.92079H17.7676C17.7676 12.6535 17.7064 15.6535 17.6758 21.3861Z" fill="#1C2A4D"/>
<path fill-rule="evenodd" clip-rule="evenodd" d="M129.755 16.9604H115.443C115.719 17.9703 116.239 18.8614 116.972 19.5445C118.043 20.5842 119.511 21.2079 121.131 21.2079C122.752 21.2079 124.22 20.5842 125.291 19.5445C125.657 19.1881 125.963 18.802 126.208 18.3861H129.48C129.021 19.604 128.318 20.703 127.401 21.594C125.81 23.1386 123.578 24.1188 121.131 24.1188C118.685 24.1188 116.483 23.1683 114.862 21.594C113.272 20.0495 112.263 17.8812 112.263 15.5049C112.263 13.1287 113.242 10.9901 114.862 9.41584C116.453 7.87128 118.685 6.89108 121.131 6.89108C123.578 6.89108 125.78 7.84158 127.401 9.41584C128.991 10.9604 130 13.1287 130 15.5049C130 15.9802 129.969 16.4851 129.878 16.9307H129.755V16.9604ZM115.443 14.1386H126.82C126.544 13.1287 126.024 12.2376 125.291 11.5247C124.22 10.4851 122.752 9.86138 121.131 9.86138C119.511 9.86138 118.043 10.4851 116.972 11.5247C116.239 12.2079 115.688 13.1287 115.443 14.1386Z" fill="#1C2A4D"/>
<path fill-rule="evenodd" clip-rule="evenodd" d="M62.5688 15.7426C62.5688 17.2574 63.211 18.6238 64.2202 19.6337C65.2599 20.6139 66.6667 21.2376 68.2263 21.2376C69.7859 21.2376 71.1926 20.6139 72.2324 19.6337C73.2721 18.6238 73.8838 17.2574 73.8838 15.7426C73.8838 13.099 73.8838 9.65346 73.8838 7.0099C69.9694 9.68316 62.5688 9.47524 62.5688 15.7426ZM77.0642 15.7426C77.0642 18.1188 76.0856 20.2574 74.4648 21.8317C72.8746 23.3762 70.6422 24.3564 68.2263 24.3564C65.7798 24.3564 63.578 23.4059 61.9572 21.8317C60.367 20.2871 59.3578 18.1188 59.3578 15.7426C59.3578 4.78217 72.63 8.52475 73.8838 1.15841H77.0642V15.7426Z" fill="#008ED6"/>
<path fill-rule="evenodd" clip-rule="evenodd" d="M93.578 3.86138C93.5168 3.92079 93.4251 3.98019 93.3027 4.0099C93.1804 4.0396 93.0887 4.0693 92.9664 4.0693C92.6911 4.0693 92.4771 4.0099 92.3242 3.86138C92.1712 3.71287 92.1101 3.50495 92.1101 3.23762V1.51485H91.5902V1.18811H92.1101V0.564351H92.5076V1.18811H93.3945V1.51485H92.5076V3.23762C92.5076 3.41584 92.5382 3.53465 92.63 3.62376C92.7217 3.71287 92.844 3.74257 92.9969 3.74257C93.0887 3.74257 93.1498 3.74257 93.2416 3.71287C93.3333 3.68316 93.3945 3.65346 93.4251 3.59405L93.578 3.86138Z" fill="#1C2A4D"/>
<path fill-rule="evenodd" clip-rule="evenodd" d="M96.0856 1.48514C95.8104 1.48514 95.5657 1.57425 95.3822 1.75247C95.1987 1.93069 95.0764 2.16831 95.0458 2.43564H97.1254C97.0948 2.13861 97.003 1.93069 96.789 1.75247C96.6361 1.57425 96.3914 1.48514 96.0856 1.48514ZM97.5229 2.73267H95.0458C95.0764 3.0297 95.1987 3.26732 95.4128 3.44554C95.6269 3.62376 95.9021 3.71286 96.2079 3.71286C96.3914 3.71286 96.5443 3.68316 96.7278 3.62376C96.8807 3.56435 97.003 3.47524 97.1254 3.35643L97.3394 3.59405C97.2171 3.74257 97.0336 3.86138 96.8501 3.95049C96.6666 4.0396 96.4526 4.0693 96.2079 4.0693C95.9021 4.0693 95.6269 4.00989 95.4128 3.89108C95.1682 3.77227 94.9847 3.59405 94.8624 3.35643C94.74 3.14851 94.6789 2.88118 94.6789 2.61386C94.6789 2.34653 94.74 2.0792 94.8624 1.87128C94.9847 1.66336 95.1682 1.48514 95.3822 1.36633C95.5963 1.24752 95.841 1.18811 96.1162 1.18811C96.3914 1.18811 96.6361 1.24752 96.8501 1.36633C97.0642 1.48514 97.2477 1.66336 97.37 1.87128C97.4923 2.0792 97.5535 2.34653 97.5535 2.61386L97.5229 2.73267Z" fill="#1C2A4D"/>
<path fill-rule="evenodd" clip-rule="evenodd" d="M100.336 4.0693C100.031 4.0693 99.7859 4.00989 99.5412 3.89108C99.2966 3.77227 99.1437 3.59405 98.9907 3.35643C98.8378 3.11881 98.8073 2.88118 98.8073 2.61386C98.8073 2.34653 98.8684 2.0792 98.9907 1.87128C99.1131 1.66336 99.2966 1.48514 99.5412 1.36633C99.7859 1.24752 100.031 1.18811 100.336 1.18811C100.581 1.18811 100.826 1.24752 101.009 1.33663C101.223 1.42574 101.376 1.57425 101.498 1.75247L101.193 1.96039C101.101 1.81187 100.979 1.72277 100.826 1.63366C100.673 1.57425 100.52 1.51485 100.336 1.51485C100.122 1.51485 99.9388 1.57425 99.7553 1.66336C99.5718 1.75247 99.4495 1.90098 99.3577 2.0495C99.266 2.22772 99.2048 2.40593 99.2048 2.64356C99.2048 2.85148 99.266 3.0594 99.3577 3.23762C99.4495 3.41584 99.5718 3.53465 99.7553 3.62376C99.9388 3.71287 100.122 3.77227 100.336 3.77227C100.52 3.77227 100.673 3.74257 100.826 3.68316C100.979 3.62376 101.101 3.50494 101.193 3.35643L101.498 3.56435C101.376 3.74257 101.223 3.89108 101.009 3.98019C100.795 4.00989 100.581 4.0693 100.336 4.0693Z" fill="#1C2A4D"/>
<path fill-rule="evenodd" clip-rule="evenodd" d="M104.465 1.15842C104.832 1.15842 105.138 1.27723 105.352 1.48515C105.566 1.69307 105.688 1.9901 105.688 2.40594V4.06931H105.29V2.40594C105.29 2.10891 105.199 1.87129 105.046 1.72277C104.893 1.57426 104.679 1.48515 104.404 1.48515C104.098 1.48515 103.823 1.57426 103.639 1.75248C103.456 1.93069 103.364 2.19802 103.364 2.52475V4.0396H102.966V0H103.364V1.66337C103.486 1.48515 103.609 1.36634 103.823 1.27723C104.006 1.18812 104.22 1.15842 104.465 1.15842Z" fill="#1C2A4D"/>
<path fill-rule="evenodd" clip-rule="evenodd" d="M109.021 1.15841C109.388 1.15841 109.694 1.27722 109.908 1.48514C110.122 1.69306 110.245 1.99009 110.245 2.40594V4.0693H109.847V2.40594C109.847 2.10891 109.755 1.87128 109.602 1.72277C109.45 1.57425 109.235 1.48514 108.96 1.48514C108.654 1.48514 108.379 1.57425 108.196 1.75247C108.012 1.93069 107.92 2.19801 107.92 2.52475V4.0396H107.523V1.18811H107.92V1.72277C108.043 1.54455 108.165 1.42574 108.379 1.30693C108.563 1.21782 108.777 1.15841 109.021 1.15841Z" fill="#1C2A4D"/>
<path fill-rule="evenodd" clip-rule="evenodd" d="M113.303 3.71286C113.517 3.71286 113.7 3.65346 113.853 3.56435C114.006 3.47524 114.159 3.32673 114.251 3.17821C114.342 2.99999 114.404 2.82178 114.404 2.58415C114.404 2.37623 114.342 2.16831 114.251 1.99009C114.159 1.81188 114.037 1.69306 113.853 1.60395C113.7 1.51485 113.486 1.45544 113.303 1.45544C113.089 1.45544 112.905 1.51485 112.752 1.60395C112.599 1.69306 112.446 1.84158 112.355 1.99009C112.263 2.16831 112.202 2.34653 112.202 2.58415C112.202 2.79207 112.263 2.99999 112.355 3.17821C112.446 3.35643 112.569 3.47524 112.752 3.56435C112.905 3.68316 113.089 3.71286 113.303 3.71286ZM113.303 4.0693C113.027 4.0693 112.752 4.00989 112.538 3.89108C112.324 3.77227 112.141 3.59405 111.988 3.35643C111.865 3.14851 111.804 2.88118 111.804 2.61386C111.804 2.34653 111.865 2.0792 111.988 1.87128C112.11 1.66336 112.293 1.48514 112.538 1.36633C112.752 1.24752 113.027 1.18811 113.303 1.18811C113.578 1.18811 113.853 1.24752 114.067 1.36633C114.281 1.48514 114.465 1.66336 114.618 1.87128C114.771 2.0792 114.801 2.34653 114.801 2.61386C114.801 2.88118 114.74 3.14851 114.618 3.35643C114.495 3.56435 114.312 3.74257 114.067 3.89108C113.823 4.00989 113.578 4.0693 113.303 4.0693Z" fill="#1C2A4D"/>
<path d="M116.758 0H116.361V4.0396H116.758V0Z" fill="#1C2A4D"/>
<path fill-rule="evenodd" clip-rule="evenodd" d="M119.847 3.71286C120.061 3.71286 120.245 3.65346 120.398 3.56435C120.55 3.47524 120.703 3.32673 120.795 3.17821C120.887 2.99999 120.948 2.82178 120.948 2.58415C120.948 2.37623 120.887 2.16831 120.795 1.99009C120.703 1.81188 120.581 1.69306 120.398 1.60395C120.245 1.51485 120.031 1.45544 119.847 1.45544C119.633 1.45544 119.45 1.51485 119.297 1.60395C119.144 1.69306 118.991 1.84158 118.899 1.99009C118.807 2.16831 118.746 2.34653 118.746 2.58415C118.746 2.79207 118.807 2.99999 118.899 3.17821C118.991 3.35643 119.113 3.47524 119.297 3.56435C119.45 3.68316 119.633 3.71286 119.847 3.71286ZM119.847 4.0693C119.572 4.0693 119.297 4.00989 119.083 3.89108C118.868 3.77227 118.685 3.59405 118.532 3.35643C118.41 3.14851 118.349 2.88118 118.349 2.61386C118.349 2.34653 118.41 2.0792 118.532 1.87128C118.654 1.66336 118.838 1.48514 119.083 1.36633C119.297 1.24752 119.572 1.18811 119.847 1.18811C120.122 1.18811 120.398 1.24752 120.612 1.36633C120.826 1.48514 121.009 1.66336 121.162 1.87128C121.284 2.0792 121.346 2.34653 121.346 2.61386C121.346 2.88118 121.284 3.14851 121.162 3.35643C121.04 3.56435 120.856 3.74257 120.612 3.89108C120.367 4.00989 120.122 4.0693 119.847 4.0693Z" fill="#1C2A4D"/>
<path fill-rule="evenodd" clip-rule="evenodd" d="M124.128 3.59405C124.342 3.59405 124.526 3.56435 124.709 3.47524C124.893 3.38613 125.015 3.26732 125.107 3.0891C125.199 2.94059 125.26 2.76237 125.26 2.55445C125.26 2.34653 125.199 2.16831 125.107 2.0198C125.015 1.87128 124.893 1.75247 124.709 1.66336C124.526 1.57425 124.342 1.54455 124.128 1.54455C123.914 1.54455 123.731 1.57425 123.547 1.66336C123.364 1.75247 123.242 1.87128 123.15 2.0495C123.058 2.19801 122.997 2.37623 122.997 2.58415C122.997 2.79207 123.058 2.97029 123.15 3.11881C123.242 3.26732 123.364 3.41584 123.547 3.50495C123.731 3.53465 123.914 3.59405 124.128 3.59405ZM125.627 1.18811V3.71287C125.627 4.18811 125.505 4.57425 125.26 4.78217C125.015 5.0198 124.648 5.13861 124.159 5.13861V4.78217C124.526 4.78217 124.801 4.69306 124.985 4.51485C125.168 4.33663 125.26 4.0693 125.26 3.71287V3.35643C125.138 3.53465 124.985 3.68316 124.771 3.77227C124.556 3.86138 124.342 3.92079 124.098 3.92079C123.823 3.92079 123.578 3.86138 123.333 3.74257C123.119 3.62376 122.936 3.44554 122.813 3.23762C122.691 3.0297 122.63 2.79207 122.63 2.52475C122.63 2.25742 122.691 2.0198 122.813 1.81188C122.936 1.60396 123.119 1.42574 123.333 1.33663C123.547 1.21782 123.823 1.15841 124.098 1.15841C124.342 1.15841 124.587 1.21782 124.771 1.30693C124.985 1.39603 125.138 1.54455 125.26 1.72277V1.18811H125.627Z" fill="#1C2A4D"/>
<path fill-rule="evenodd" clip-rule="evenodd" d="M128.471 4.0396C128.104 4.0396 127.798 3.92079 127.584 3.71287C127.37 3.50495 127.248 3.20792 127.248 2.79207V1.15841H127.645V2.79207C127.645 3.0891 127.737 3.32673 127.89 3.47524C128.043 3.62376 128.257 3.71287 128.532 3.71287C128.838 3.71287 129.113 3.62376 129.297 3.44554C129.48 3.26732 129.572 2.99999 129.572 2.67326V1.15841H129.969V3.95049C129.939 4.30693 129.816 4.57425 129.633 4.78217C129.388 5.0198 129.021 5.13861 128.532 5.13861V4.78217C128.899 4.78217 129.174 4.69306 129.358 4.51485C129.511 4.36633 129.572 4.18811 129.602 3.92079V3.47524C129.48 3.65346 129.358 3.77227 129.144 3.89108C128.96 3.98019 128.716 4.0396 128.471 4.0396Z" fill="#1C2A4D"/>
<path fill-rule="evenodd" clip-rule="evenodd" d="M33.7003 11.495C32.63 10.4554 31.1621 9.83168 29.5413 9.83168C27.9205 9.83168 26.4526 10.4554 25.3823 11.495C24.3119 12.5346 23.6697 13.9604 23.6697 15.5346C23.6697 17.1089 24.3119 18.5346 25.3823 19.5743C26.4526 20.6139 27.9205 21.2376 29.5413 21.2376C31.1621 21.2376 32.63 20.6139 33.7003 19.5743C34.7706 18.5346 35.4128 17.1089 35.4128 15.5346C35.4434 13.9604 34.7706 12.5346 33.7003 11.495ZM29.5719 6.92079C32.0183 6.92079 34.2202 7.87128 35.841 9.44554C37.4312 10.9901 38.4404 13.1584 38.4404 15.5346C38.4404 17.9109 37.4618 20.0495 35.841 21.6238C34.2508 23.1683 32.0183 24.1485 29.5719 24.1485C27.1254 24.1485 24.9235 23.198 23.3027 21.6238C21.7125 20.0792 20.7034 17.9109 20.7034 15.5346C20.7034 13.1584 21.6819 11.0198 23.3027 9.44554C24.893 7.90099 27.1254 6.92079 29.5719 6.92079Z" fill="#1C2A4D"/>
</svg>
