<svg width="40" height="40" viewBox="0 0 40 40" fill="none" xmlns="http://www.w3.org/2000/svg">
<g clip-path="url(#clip0_210_267)">
<path fill-rule="evenodd" clip-rule="evenodd" d="M40 19.708V20.438C39.854 21.3139 39.562 22.1898 38.8321 22.9197C38.5401 23.2117 38.1022 23.5036 37.8102 23.7956C36.6423 24.6715 37.2262 25.6934 37.5182 26.5693C38.1022 28.3212 37.6642 30.365 36.0584 31.3869C34.5985 32.4088 34.0146 31.9708 33.1387 32.2628C32.5547 32.4088 32.1168 32.8467 31.9708 33.4307C31.8248 33.7226 31.8248 34.1606 31.8248 34.5985C31.5328 36.3504 29.781 37.9562 27.8832 37.9562C26.1314 37.9562 25.8394 37.2263 24.9635 37.2263C23.7956 37.2263 23.6496 37.6642 22.9197 38.6861C22.3357 39.562 21.1679 40 20 40H19.416C18.9781 40 18.3941 39.854 17.9562 39.708C16.7883 39.1241 16.6423 38.6861 16.0584 37.9562C15.1825 36.7883 14.1606 37.3723 13.2847 37.6642C11.5328 38.2482 9.48904 37.8102 8.46715 36.2044C7.44525 34.7445 7.8832 34.1606 7.59123 33.2847C7.44525 32.7007 7.00729 32.2628 6.42335 32.1168C6.27737 32.1168 5.83941 32.1168 5.54744 31.9708C3.21168 31.6788 1.45985 29.1971 2.48175 26.4234C2.77372 25.5474 3.35766 24.6715 2.18978 23.7956C1.60584 23.2117 1.45985 23.3577 0.875912 22.7737L0.291971 21.8978C0.145985 21.3139 0 20.8759 0 20.438V19.708C0.145985 18.8321 0.437956 17.8102 1.16788 17.0803C1.45985 16.7883 1.89781 16.4964 2.18978 16.2044C3.35766 15.3285 2.77372 14.3066 2.48175 13.4307C1.75182 11.6788 2.18978 9.78102 3.79562 8.61314C5.54744 7.44526 6.42335 8.17518 7.29926 7.29927C7.8832 6.71533 7.73722 6.13139 7.8832 5.40146C8.32116 3.21168 10.8029 1.45985 13.5766 2.48175C14.3066 2.77372 14.1606 2.91971 15.0365 2.91971C16.2044 2.91971 16.4963 1.75182 17.0803 1.16788C17.6642 0.583942 18.5401 0 19.708 0C20.7299 0 21.4598 0.145985 22.3357 0.729927L23.6496 2.18978C24.5255 3.35766 25.5474 2.77372 26.4233 2.48175C29.1971 1.45985 31.6788 3.21168 31.9708 5.69343C32.2627 7.88321 32.5547 7.73723 34.4525 8.0292C36.2043 8.32117 37.8102 10.073 37.8102 11.9708C37.8102 13.7226 37.0803 14.0146 37.0803 14.8905C37.0803 16.4963 38.1022 16.3504 38.8321 17.2263C39.562 17.9562 39.854 18.8321 40 19.708ZM3.79562 12.4088V11.8248C3.79562 10.6569 4.67153 9.78102 5.54744 9.63504C6.71532 9.34307 8.61313 9.48905 9.34306 7.29927C9.48904 6.71533 9.48904 6.13139 9.63503 5.54745C9.78101 4.67153 10.8029 3.79562 11.8248 3.79562C13.5766 3.79562 13.5766 4.52555 14.7445 4.52555C17.0803 4.52555 17.5182 2.77372 18.3941 2.18978C19.2701 1.60584 20.4379 1.45985 21.3139 2.0438C22.3357 2.77372 23.3576 5.40146 26.2773 4.23358C27.2992 3.79562 27.1533 3.79562 28.0292 3.79562C29.1971 3.79562 30.073 4.67153 30.219 5.54745C30.5109 6.71533 30.3649 8.61314 32.5547 9.34307C33.1387 9.48905 33.7226 9.48905 34.3065 9.63504C35.1824 9.78102 36.0584 10.8029 36.0584 11.8248C36.0584 13.5766 35.3284 13.4307 35.3284 14.8905C35.3284 17.0803 37.0803 17.6642 37.6642 18.3942C38.2481 19.2701 38.3941 20.438 37.8102 21.3139C37.2262 22.1898 34.4525 23.3577 35.6204 26.2774C36.0584 27.2993 36.0584 27.0073 36.0584 28.0292C36.0584 29.1971 35.1824 30.073 34.3065 30.219C33.7226 30.365 33.1387 30.365 32.5547 30.5109C30.3649 31.2409 30.5109 33.1387 30.219 34.3066C30.073 35.1825 29.0511 36.0584 28.0292 36.0584C27.1533 36.0584 27.1533 36.0584 26.2773 35.6204C24.6715 35.0365 23.2117 35.4745 22.3357 36.6423C22.1898 36.7883 22.0438 36.9343 21.8978 37.2263C21.4598 37.8102 20.8759 38.2482 19.854 38.2482C17.5182 38.3942 17.5182 35.3285 14.7445 35.3285C14.1606 35.3285 13.8686 35.4745 13.4306 35.6204C12.4087 36.0584 12.5547 36.0584 11.6788 36.0584C10.5109 36.0584 9.63503 35.1825 9.48904 34.3066C9.34306 33.2847 9.48904 31.3869 7.29926 30.6569C6.71532 30.5109 6.13138 30.5109 5.54744 30.365C4.67153 30.219 3.79562 29.1971 3.79562 28.1752C3.79562 26.4234 4.52554 26.4234 4.52554 25.2555C4.52554 23.5036 3.50365 22.7737 2.77372 22.1898C1.60584 21.3139 1.31387 19.854 2.18978 18.6861C2.91971 17.6642 5.54744 16.7883 4.37956 13.7226C3.9416 13.2847 3.79562 12.7007 3.79562 12.4088Z" fill="white"/>
<path fill-rule="evenodd" clip-rule="evenodd" d="M13.3295 7.19858C13.3295 7.49173 13.7683 7.93144 14.0608 7.93144C14.3533 7.93144 15.8159 7.34515 16.401 7.05201C19.0337 6.17258 22.2514 6.31915 24.7379 7.05201C27.9556 8.07801 30.4421 10.13 32.0509 12.6217C35.1224 17.3121 35.1224 23.7612 31.6122 28.5981C31.1734 29.1844 30.5883 29.9173 30.0033 30.357L29.1257 31.0898C26.7855 32.9953 24.0066 34.0213 20.9351 34.1678C20.6426 34.1678 20.4963 34.3144 20.2038 34.1678C19.9113 34.1678 19.765 34.1678 19.3262 34.1678C17.7173 34.1678 15.3772 33.435 14.2071 32.8487C13.037 32.2624 11.8669 31.5296 10.8431 30.5035C10.6968 30.357 10.5505 30.2104 10.4043 30.0638L8.94167 28.305C7.62532 26.5461 6.45523 23.4681 6.45523 20.9764C6.45523 20.5366 6.45523 20.5366 6.45523 20.2435C6.45523 19.9504 6.45523 19.8038 6.45523 19.5106C6.45523 18.9244 6.45523 18.6312 6.60149 18.0449C6.74775 17.0189 7.04027 16.2861 7.33279 15.4066C7.77158 14.3806 8.35662 13.5012 9.08793 12.4752C9.38045 12.0355 9.67297 11.8889 9.67297 11.3026C9.67297 10.8629 8.94167 9.98345 7.91784 11.3026C7.77158 11.5957 7.47905 11.8889 7.33279 12.182C6.89401 12.9149 6.60149 13.6478 6.1627 14.3806C4.11505 19.2175 4.84635 25.0804 7.77158 29.331C8.35662 30.0638 8.79541 30.6501 9.52671 31.383L11.5744 33.1418C16.8398 36.9527 24.1528 36.9527 29.4182 33.1418L32.3435 30.5035C34.8299 27.279 36 24.4941 36 20.0969C36 17.8983 35.2687 15.5532 34.5374 13.9409C34.0986 13.0615 33.6598 12.3286 33.221 11.5957L30.5883 8.6643C27.3706 6.17258 24.5916 5 20.0575 5C18.7412 5 17.1323 5.29314 16.2547 5.58629C15.5234 5.58629 15.0846 5.87943 14.4996 6.026C13.9146 6.31915 13.3295 6.46572 13.3295 7.19858Z" fill="white"/>
<path fill-rule="evenodd" clip-rule="evenodd" d="M12 11.1648C12 11.5758 12.1442 11.8498 12.5769 11.9868C13.1538 12.1238 13.875 11.1648 15.1731 10.6168C15.8942 10.3427 16.3269 10.0687 17.1923 9.79474C19.3558 9.24674 21.5192 9.24674 23.5385 10.2057C24.4038 10.4797 24.8365 10.8908 25.5577 11.3018C25.8462 11.5758 25.8462 11.7128 26.2788 11.7128C26.7115 11.7128 27 11.3018 27 10.8908C27 10.3427 26.1346 9.93175 25.7019 9.65774C25.2692 9.38374 24.5481 8.97274 23.9712 8.83574C20.2212 7.32873 15.75 7.87673 12.7212 10.3427C12.4327 10.6168 12 10.7538 12 11.1648Z" fill="white"/>
<path fill-rule="evenodd" clip-rule="evenodd" d="M13 27.7881C13 28.5206 13.5778 28.8136 14.3 29.2531L16.0333 30.1321C18.6333 31.4506 22.2444 31.1576 24.9889 29.9856C25.7111 29.6926 26 29.5461 26 28.9601C26 28.5206 25.7111 28.2276 25.2778 28.2276C24.7 28.2276 24.1222 28.6671 23.2556 28.9601C21.0889 29.5461 18.7778 29.5461 16.6111 28.5206C16.0333 28.2276 15.7444 28.0811 15.3111 27.7881C15.0222 27.6416 15.0222 27.4951 14.7333 27.3486C13.2889 26.4695 13 27.4951 13 27.7881Z" fill="white"/>
<path fill-rule="evenodd" clip-rule="evenodd" d="M10.9627 10C12.0295 10 12.3852 8.51163 11.4961 8.13953C10.9627 7.95349 10.6071 7.95349 10.2515 8.13953C10.0737 8.51163 9.89584 9.06977 10.0737 9.25581C10.2515 9.62791 10.6071 10 10.9627 10Z" fill="white"/>
<path fill-rule="evenodd" clip-rule="evenodd" d="M26 27.7449C26 28.2828 26.0979 29 26.4893 29C26.8807 29 27.1743 27.9242 26.8807 27.3863C26.3914 26.4898 26 27.3863 26 27.7449Z" fill="white"/>
<path d="M24.5842 24C26.5149 24 28 22.8923 28 21.0923C28 19.2923 26.5149 18.3231 24.7327 18.3231C24.1386 18.3231 23.6931 18.4615 23.2475 18.6L23.396 16.5231H26.8119C27.2574 16.5231 27.5545 16.2462 27.5545 15.8308C27.5545 15.4154 27.2574 15.1385 26.8119 15.1385H22.6535C22.2079 15.1385 21.9109 15.4154 21.9109 15.8308L21.7624 18.8769C21.7624 19.1538 21.9109 19.4308 22.0594 19.5692C22.3564 19.8462 22.505 19.8462 22.802 19.8462C23.099 19.8462 23.5446 19.5692 24.4356 19.5692C25.6238 19.5692 26.3663 20.1231 26.3663 20.9538C26.3663 21.9231 25.6238 22.4769 24.5842 22.4769C23.8416 22.4769 23.2475 22.2 22.505 21.7846C22.3564 21.6462 22.2079 21.6462 22.0594 21.6462C21.6139 21.6462 21.3168 21.9231 21.3168 22.3385C21.3168 22.6154 21.4653 22.7538 21.6139 22.8923C22.3564 23.5846 23.2475 24 24.5842 24ZM13 23.1692C13 23.5846 13.297 23.8615 13.8911 23.8615H19.0891C19.5347 23.8615 19.8317 23.5846 19.8317 23.1692C19.8317 22.7538 19.5347 22.4769 19.0891 22.4769H15.3762L17.3069 20.9538C18.9406 19.7077 19.6832 19.0154 19.6832 17.6308C19.6832 16.1077 18.4951 15 16.5644 15C15.0792 15 14.1881 15.5538 13.4455 16.3846C13.297 16.5231 13.297 16.6615 13.297 16.8C13.297 17.2154 13.5941 17.4923 14.0396 17.4923C14.3366 17.4923 14.4851 17.3538 14.6337 17.2154C15.2277 16.5231 15.6733 16.2462 16.4158 16.2462C17.3069 16.2462 17.901 16.8 17.901 17.6308C17.901 18.4615 17.4554 19.0154 16.1188 19.9846L13.297 22.2C13.1485 22.6154 13 22.8923 13 23.1692Z" fill="white"/>
</g>
<defs>
<clipPath id="clip0_210_267">
<rect width="40" height="40" fill="white"/>
</clipPath>
</defs>
</svg>
