<svg width="35" height="35" viewBox="0 0 35 35" fill="none" xmlns="http://www.w3.org/2000/svg">
<path fill-rule="evenodd" clip-rule="evenodd" d="M5.43655 1.01902V4.25844C3.73096 4.25844 3.16244 3.8359 0.746193 4.82181C0.319797 4.96266 0.035533 4.96266 0.035533 5.52604V9.89221C0.035533 10.4556 0.604061 10.8781 1.45685 10.0331C1.59898 9.89221 1.88325 9.75136 2.16751 9.61052C3.58883 8.76545 4.44162 9.18799 5.43655 9.32883V12.8499C3.8731 12.8499 3.0203 12.4274 0.746193 13.4133C0.319797 13.5542 0.035533 13.695 0.035533 14.1175C0.035533 14.8218 -0.106599 18.4837 0.177665 18.9062C0.604061 19.3288 1.03046 19.0471 1.45685 18.7654C2.87817 17.357 4.44162 17.9203 5.29442 18.0612V21.5823L3.4467 21.4414C2.59391 21.3006 0.035533 21.864 0.035533 22.5682V27.216C0.035533 27.4977 0.319797 27.7794 0.604061 27.7794C1.45685 27.7794 1.45685 26.371 4.29949 26.371C4.86802 26.371 5.01015 26.5118 5.43655 26.5118V32.9907C5.43655 35.1033 5.15228 34.6808 10.1269 34.6808C10.9797 34.6808 10.6954 32.9907 10.6954 32.1456C10.6954 31.1597 10.6954 30.0329 10.6954 29.047C10.9797 29.047 11.264 29.3287 11.5482 29.4696C13.2538 30.1738 13.6802 30.0329 14.533 30.3146C14.8173 30.4555 14.8173 30.3146 14.8173 30.7372C14.9594 31.7231 14.3909 34.8216 15.3858 34.8216H19.6497C20.3604 34.8216 20.2183 33.4132 20.2183 32.9907C20.2183 32.1456 20.2183 31.3005 20.2183 30.5963C21.6396 30.3146 22.066 30.1738 23.3452 29.6104C23.6294 29.4696 24.0558 29.3287 24.3401 29.1879C24.3401 30.1738 24.3401 31.3005 24.3401 32.2864C24.3401 35.5259 23.6294 34.9625 29.0305 34.9625C29.599 34.9625 29.599 33.9766 29.599 33.2724V26.7935C30.4518 26.7935 31.4467 26.2301 32.868 27.0752C33.1523 27.2161 33.8629 27.9203 34.2893 27.9203C34.5736 27.9203 34.8579 27.6386 34.8579 27.3569V22.5682C34.8579 21.864 32.2995 21.4414 31.4467 21.4414L29.599 21.5823V18.0612C30.5939 17.9203 31.3046 17.6386 32.868 18.3429C33.5787 18.6245 34.1472 19.7513 34.7157 19.0471C34.8579 18.9062 34.8579 18.9062 34.8579 18.6245V14.1175C34.8579 13.4133 34.0051 13.2725 33.2944 13.1316C32.2995 12.7091 31.8731 12.7091 30.736 12.7091C30.1675 12.7091 30.1675 12.8499 29.7411 12.8499V9.32883C30.5939 9.18799 31.4467 8.9063 33.0102 9.61052C34.0051 10.0331 33.8629 10.4556 34.4315 10.4556C34.8579 10.4556 35 10.1739 35 9.89221V5.52604C35 4.82181 34.2893 4.68097 33.4366 4.54013C31.4467 3.97675 30.8782 4.25844 29.599 4.25844V1.01902C29.599 0.596486 29.4569 0.173954 29.0305 0.173954C23.4873 0.173954 24.3401 -0.389424 24.3401 2.99084C24.3401 4.11759 24.3401 5.24435 24.3401 6.3711L21.3553 7.6387C21.0711 7.77954 20.5025 7.92039 20.2183 8.06123V0.596486C20.0761 0.455642 19.934 0.0331094 19.6497 0.0331094H15.3858C14.6751 0.0331094 14.8173 1.30071 14.8173 1.5824V8.06123L10.5533 6.3711C10.5533 5.24435 10.5533 4.11759 10.5533 2.99084C10.6954 -0.530268 11.5482 0.0331094 5.86294 0.0331094C5.57868 0.0331094 5.43655 0.596486 5.43655 1.01902ZM6.71574 1.30071H9.27411V5.52604C8.56345 5.38519 7.56853 4.68097 6.71574 4.54013V1.30071ZM25.7614 5.52604V1.30071H28.3198V4.54013C27.467 4.68097 26.4721 5.38519 25.7614 5.52604ZM1.31472 8.48376V5.94857C3.0203 5.1035 5.57868 5.52604 7.28426 6.08941C9.27411 6.79363 11.264 8.20208 14.1066 9.18799C14.3909 9.32883 14.6751 9.32883 14.8173 9.46967V11.864C13.3959 11.7232 9.41624 9.89221 8.27919 9.32883C6.14721 7.92039 3.73096 7.21617 1.31472 8.48376ZM20.2183 11.7232V9.32883C20.5025 9.18799 21.2132 9.04714 21.4975 8.9063C24.6244 7.77954 27.7513 5.38519 30.736 5.38519C31.731 5.38519 32.868 5.38519 33.7208 5.80772V8.48376C30.0254 6.51194 27.1827 9.18799 23.6294 10.5964C22.7767 11.019 21.0711 11.7232 20.2183 11.7232ZM10.6954 11.7232C11.6904 12.2866 13.6802 12.8499 14.9594 13.1316V16.5119C14.1066 16.371 12.6853 15.6668 11.8325 15.3851C11.4061 15.2443 11.1218 15.1034 10.8376 14.8218V11.7232H10.6954ZM20.2183 16.5119V13.1316C21.4975 12.8499 23.3452 12.2866 24.4822 11.7232V14.8218C23.7716 15.2443 20.9289 16.5119 20.2183 16.5119ZM1.31472 17.0753V14.5401C2.59391 13.9767 4.01523 14.1175 5.29442 14.1175V16.5119C4.15736 16.5119 4.72589 16.2302 3.16244 16.371C2.45178 16.5119 1.88325 16.7936 1.31472 17.0753ZM29.599 16.5119V14.1175C30.8782 13.9767 32.2995 13.8358 33.5787 14.5401V17.0753C31.5888 15.9485 30.8782 16.5119 29.599 16.5119ZM16.2386 1.30071H18.797V16.9344H17.0914C16.665 16.9344 16.665 16.7936 16.2386 16.7936V1.30071ZM10.6954 16.371L13.8223 17.6386C17.2335 18.7654 19.6497 18.4837 22.7766 17.0753L24.3401 16.371V18.9062L23.0609 19.4696C19.2234 21.0189 15.9543 21.0189 12.1168 19.4696C11.8325 19.3288 11.6904 19.3288 11.4061 19.1879C11.1218 19.0471 10.9797 19.0471 10.6954 18.9062V16.371ZM6.71574 9.89221L9.27411 11.1598V22.709C8.84772 22.5682 7.4264 21.864 6.71574 21.864V9.89221ZM25.7614 22.709V11.1598L28.3198 9.89221V21.864C27.6091 21.864 26.1878 22.5682 25.7614 22.709ZM10.6954 20.3147C11.264 20.5964 11.9746 20.8781 12.6853 21.0189C13.2538 21.1597 14.3909 21.5823 14.9594 21.5823V24.9625C14.1066 24.8217 11.5482 23.6949 10.6954 23.2724V20.3147ZM20.2183 25.1034V21.7231C20.7868 21.7231 21.7817 21.3006 22.3503 21.1597C23.0609 20.8781 23.7716 20.7372 24.3401 20.3147V23.4133C23.4873 23.8358 21.0711 25.1034 20.2183 25.1034ZM1.31472 25.6668V22.9907C1.59898 22.9907 1.88325 22.8499 2.16751 22.8499C2.45178 22.8499 2.73604 22.709 3.16244 22.709C4.01523 22.709 4.44162 22.5682 5.15228 22.709C7.71066 23.1316 9.27411 24.2583 11.5482 25.2442C12.1168 25.5259 14.1066 26.371 14.8173 26.371V28.7653C10.9797 27.9203 9.55838 26.5118 6.85787 25.5259C4.86802 24.8217 3.4467 24.6809 1.31472 25.6668ZM20.2183 28.9062V26.5118C21.6396 26.5118 25.0508 24.54 26.4721 23.8358C28.6041 22.8499 30.4518 22.4273 32.7259 22.8499C33.1523 22.9907 33.2944 22.9907 33.7208 23.1316V25.8076C29.1726 23.2724 26.6142 27.4977 20.2183 28.9062ZM6.71574 27.0752L7.99492 27.7794C8.56345 27.9203 9.27411 28.202 9.27411 28.4837V33.4132H6.71574V27.0752ZM16.2386 21.864C17.802 22.0048 17.2335 22.0048 18.797 21.864V33.4132H16.2386V21.864ZM25.7614 28.4837C25.7614 28.202 26.0457 28.202 26.33 28.0611C26.6142 27.9203 26.7563 27.9203 27.0406 27.7794L28.3198 27.0752V33.4132H25.7614V28.4837Z" fill="white"/>
</svg>
