<svg width="24" height="24" viewBox="0 0 24 24" fill="none" xmlns="http://www.w3.org/2000/svg">
<path d="M1.4 24C1.17778 24 0.944445 23.9947 0.7 23.984C0.455556 23.9724 0.222222 23.9556 0 23.9333V16.1333L6.66667 14.8L10.5333 18.6667C12.2222 17.6444 13.7724 16.4333 15.184 15.0333C16.5947 13.6333 17.7667 12.1333 18.7 10.5333L14.9 6.7L16.1333 0H23.9333C23.9778 0.222222 24 0.455556 24 0.7V1.4C24 4.26667 23.3609 7.06089 22.0827 9.78267C20.8053 12.5053 19.1164 14.9222 17.016 17.0333C14.9164 19.1444 12.5058 20.8333 9.784 22.1C7.06133 23.3667 4.26667 24 1.4 24Z" fill="#008ED6"/>
</svg>
