<svg width="19" height="19" viewBox="0 0 19 19" fill="none" xmlns="http://www.w3.org/2000/svg">
<path d="M17.6897 19L11.9969 13.6276C11.4146 14.0935 10.7448 14.4623 9.98774 14.7341C9.23065 15.0059 8.42503 15.1418 7.57088 15.1418C5.45492 15.1418 3.66431 14.4091 2.19905 12.9439C0.733017 11.4778 0 9.68685 0 7.57088C0 5.45492 0.733017 3.66392 2.19905 2.19789C3.66431 0.732629 5.45492 0 7.57088 0C9.68685 0 11.4778 0.732629 12.9439 2.19789C14.4091 3.66392 15.1418 5.45492 15.1418 7.57088C15.1418 8.42503 15.0059 9.23065 14.7341 9.98774C14.4623 10.7448 14.0935 11.4146 13.6276 11.9969L19 17.3693L17.6897 19ZM7.57088 12.8123C9.02682 12.8123 10.2646 12.3029 11.2841 11.2841C12.3029 10.2646 12.8123 9.02682 12.8123 7.57088C12.8123 6.11494 12.3029 4.8772 11.2841 3.85765C10.2646 2.83889 9.02682 2.3295 7.57088 2.3295C6.11494 2.3295 4.8772 2.83889 3.85765 3.85765C2.83889 4.8772 2.3295 6.11494 2.3295 7.57088C2.3295 9.02682 2.83889 10.2646 3.85765 11.2841C4.8772 12.3029 6.11494 12.8123 7.57088 12.8123Z" fill="#1C2A4D"/>
</svg>
