<svg width="41" height="44" viewBox="0 0 41 44" fill="none" xmlns="http://www.w3.org/2000/svg">
<path d="M0.8 21.6H28.5C28.9 21.6 29.3 21.9 29.3 22.4V27C29.3 27.4 29 27.8 28.5 27.8H0.8C0.3 27.7 0 27.4 0 27V22.4C0 21.9 0.3 21.6 0.8 21.6ZM27.7 23.1H1.5V26.2H27.7V23.1Z" fill="#1C2A4D"/>
<path d="M26.2 23.1H3.1C2.7 23.1 2.3 22.8 2.3 22.3C2.3 18.4 3.6 15.4 5.6 13.4C7.9 11.1 11.1 10 14.6 10C18 10 21.1 11.4 23.3 13.6C25.5 15.8 26.9 18.9 26.9 22.3C27 22.8 26.6 23.1 26.2 23.1ZM3.9 21.6H25.4C25.2 18.9 24 16.5 22.3 14.7C20.3 12.7 17.7 11.5 14.7 11.5C11.6 11.5 8.7 12.5 6.8 14.4C5.1 16.1 4 18.5 3.9 21.6Z" fill="#1C2A4D"/>
<path d="M40.8 0.8V3.9C40.8 4.3 40.5 4.7 40 4.7H17.7C17.5 4.7 17.3 4.8 17.2 4.9C17 5 17 5.2 17 5.4V10.2C16.5 10.1 16 10 15.5 10V5.4C15.5 4.8 15.8 4.2 16.2 3.8C16.6 3.4 17.2 3.1 17.8 3.1H39.3V1.5H17.7C16.6 1.5 15.7 1.9 15 2.6C14.3 3.3 13.9 4.3 13.9 5.3V10C13.4 10 12.9 10.1 12.4 10.2V5.4C12.4 3.9 13 2.6 14 1.6C15 0.6 16.3 0 17.8 0H40C40.4 0 40.8 0.3 40.8 0.8Z" fill="#1C2A4D"/>
<path d="M2.9 35.5C2.5 35.1 2.3 34.5 2.3 33.7C2.3 32.1 4 30.3 4.1 30.3C4.4 30 4.9 30 5.2 30.3C5.2 30.3 7 32.1 7 33.7C7 34.5 6.8 35.1 6.4 35.5C6 36 5.3 36.2 4.7 36.2C4 36.2 3.3 36 2.9 35.5ZM3.9 33.7C3.9 34.1 4 34.3 4.1 34.5C4.2 34.6 4.4 34.7 4.7 34.7C4.9 34.7 5.2 34.6 5.3 34.5C5.4 34.4 5.5 34.1 5.5 33.7C5.5 33.2 5.1 32.5 4.7 32C4.3 32.5 3.9 33.2 3.9 33.7Z" fill="#1C2A4D"/>
<path d="M12.9 35.5C12.5 35.1 12.3 34.5 12.3 33.7C12.3 32.1 14 30.3 14.1 30.3C14.4 30 14.9 30 15.2 30.3C15.2 30.3 17 32.1 17 33.7C17 34.5 16.8 35.1 16.4 35.5C16 36 15.3 36.2 14.7 36.2C14 36.2 13.4 36 12.9 35.5ZM13.9 33.7C13.9 34.1 14 34.3 14.1 34.5C14.2 34.6 14.4 34.7 14.7 34.7C14.9 34.7 15.2 34.6 15.3 34.5C15.4 34.4 15.5 34.1 15.5 33.7C15.5 33.2 15.1 32.5 14.7 32C14.3 32.5 13.9 33.2 13.9 33.7Z" fill="#1C2A4D"/>
<path d="M7.9 43.2C7.5 42.8 7.3 42.2 7.3 41.4C7.3 39.8 9 38 9.1 38C9.4 37.7 9.9 37.7 10.2 38C10.2 38 12 39.8 12 41.4C12 42.2 11.8 42.8 11.4 43.2C11 43.7 10.3 43.9 9.7 43.9C9.1 43.9 8.4 43.7 7.9 43.2ZM8.9 41.4C8.9 41.8 9 42 9.1 42.2C9.2 42.3 9.4 42.4 9.7 42.4C9.9 42.4 10.2 42.3 10.3 42.2C10.4 42.1 10.5 41.8 10.5 41.4C10.5 40.9 10.1 40.2 9.7 39.7C9.3 40.2 8.9 40.9 8.9 41.4Z" fill="#1C2A4D"/>
<path d="M17.9 43.2C17.5 42.8 17.3 42.2 17.3 41.4C17.3 39.8 19 38 19.1 38C19.4 37.7 19.9 37.7 20.2 38C20.2 38 22 39.8 22 41.4C22 42.2 21.8 42.8 21.4 43.2C21 43.7 20.3 43.9 19.7 43.9C19.1 43.9 18.4 43.7 17.9 43.2ZM18.9 41.4C18.9 41.8 19 42 19.1 42.2C19.2 42.3 19.4 42.4 19.7 42.4C19.9 42.4 20.2 42.3 20.3 42.2C20.4 42.1 20.5 41.8 20.5 41.4C20.5 40.9 20.1 40.2 19.7 39.7C19.3 40.2 18.9 40.9 18.9 41.4Z" fill="#1C2A4D"/>
<path d="M22.9 35.5C22.5 35.1 22.3 34.5 22.3 33.7C22.3 32.1 24 30.3 24.1 30.3C24.4 30 24.9 30 25.2 30.3C25.2 30.3 27 32.1 27 33.7C27 34.5 26.8 35.1 26.4 35.5C26 36 25.3 36.2 24.7 36.2C24 36.2 23.4 36 22.9 35.5ZM23.9 33.7C23.9 34.1 24 34.3 24.1 34.5C24.2 34.6 24.4 34.7 24.7 34.7C24.9 34.7 25.2 34.6 25.3 34.5C25.4 34.4 25.5 34.1 25.5 33.7C25.5 33.2 25.1 32.5 24.7 32C24.3 32.5 23.9 33.2 23.9 33.7Z" fill="#1C2A4D"/>
</svg>
