<svg width="37" height="40" viewBox="0 0 37 40" fill="none" xmlns="http://www.w3.org/2000/svg">
<path fill-rule="evenodd" clip-rule="evenodd" d="M12.5 6.4C12.8 6.2 13.2 6.3 13.7 6.3C14.5 6.3 15.5 7.1 16.6 7.4C19.5 8.3 20.6 6.3 22.2 6.3C23.1 6.3 23.8 6.2 24.6 7.3C25.7 8.7 26.7 10.9 26.7 12.8C25 12.8 22.3 15.1 22.3 18.2H24.3C24.4 16.5 25.6 14.9 27.5 14.6C28.1 14.5 28.8 14.3 28.8 13.5C28.8 9.8 26.9 4.2 22.5 4.2C21.1 4.2 19.9 4.9 19 5.4C19 3.8 19.3 2.9 20.5 2C22 0.9 20.7 0 20.2 0C19.5 0 18.2 1.4 17.9 1.9C17.3 2.8 17 3.9 17 5.4C15.1 4.5 13.3 3.6 11.2 4.8C8.8 6.1 10.5 7.1 10.9 7.7C12.3 9.8 11.2 12.9 8.5 13.4C8.2 13.5 7.9 13.5 7.7 13.6C7.5 13.7 7.2 14 7.2 14.3C7.2 15.4 7.5 16.8 8 18.1H10.1C9.7 17.2 9.3 15.9 9.3 15.1C11.2 14.9 14.4 11.8 13.1 7.8C12.8 7 12.5 6.8 12.5 6.4Z" fill="#1C2A4D"/>
<path fill-rule="evenodd" clip-rule="evenodd" d="M21.2 17.4C20.3 17.4 20.3 18.8 21.2 18.8H34.8V27.3H31.1V25.6C31.8 25.6 32.4 25.7 32.4 24.8C32.4 24.5 32.1 24.2 31.8 24.2H4.3C3.4 24.2 3.4 25.6 4.3 25.6H5V27.3H1.4V18.8H15C15.9 18.8 15.9 17.4 15 17.4C4.1 17.4 7.7 17.4 1.2 17.4C0.7 17.4 0 18.1 0 18.6V27.5C0 28 0.6 28.7 1.3 28.7H5C5 30.3 4.7 31.2 5.8 31.2C6.1 31.2 6.4 30.9 6.4 30.6V25.6H9.1V33.1C9.1 34 10 34.2 10.4 33.7C10.5 33.6 10.6 33.3 10.6 33V25.6H13.2V31.1C13.2 32.1 14.1 32.2 14.5 31.8C14.6 31.7 14.7 31.5 14.7 31.3V25.6H17.4V31.4C17.4 32.3 18.8 32.3 18.8 31.4V25.6H21.5V31.3C21.5 32.2 23 32.3 23 31.2V25.6H25.6V31C25.6 32.5 27.1 32.2 27.1 31.4V25.7H29.8V38.5C29.8 38.9 30.1 39.1 30.4 39.1H30.6C30.9 39.1 31.2 38.9 31.2 38.5V28.7H35C35.4 28.7 35.7 28.5 35.9 28.3C36.1 28.1 36.3 27.8 36.3 27.5V18.6C36.3 18.1 35.6 17.4 35.1 17.4C28.6 17.4 32.1 17.4 21.2 17.4Z" fill="#1C2A4D"/>
<path fill-rule="evenodd" clip-rule="evenodd" d="M27.4 34.5C27.4 36 27.1 37.3 28.2 37.3C28.6 37.3 28.8 37 28.8 36.6V34.1C28.9 33.4 27.4 33 27.4 34.5Z" fill="#1C2A4D"/>
<path fill-rule="evenodd" clip-rule="evenodd" d="M19.2 34.2V36.7C19.2 37.6 20.6 37.6 20.6 36.7V34.2C20.6 34 20.5 33.8 20.4 33.7C19.9 33.2 19.2 33.7 19.2 34.2Z" fill="#1C2A4D"/>
<path fill-rule="evenodd" clip-rule="evenodd" d="M10.9 36.2V38.3C10.9 38.7 11.2 39 11.6 39H11.7C12 39 12.4 38.7 12.4 38.2C12.4 36.5 12.7 35.5 11.5 35.5C11.3 35.5 10.9 35.9 10.9 36.2Z" fill="#1C2A4D"/>
<path fill-rule="evenodd" clip-rule="evenodd" d="M23.3 36.2V38.3C23.3 38.7 23.6 39 24 39H24.1C24.5 39 24.8 38.7 24.8 38.2C24.8 36.5 25.1 35.5 23.9 35.5C23.6 35.5 23.3 35.9 23.3 36.2Z" fill="#1C2A4D"/>
<path fill-rule="evenodd" clip-rule="evenodd" d="M6.8 33.7V35.8C6.8 36.7 8.2 36.7 8.2 35.8V33.7C8.2 32.8 6.8 32.8 6.8 33.7Z" fill="#1C2A4D"/>
<path fill-rule="evenodd" clip-rule="evenodd" d="M15.7 35.2C16.5 35.2 16.6 34.4 16.3 34C16.1 33.7 15.9 33.8 15.7 33.8C14.8 33.8 14.8 35.2 15.7 35.2Z" fill="#1C2A4D"/>
<path fill-rule="evenodd" clip-rule="evenodd" d="M6.8 21.4C6.8 22.5 8.2 22.5 8.2 21.4C8.2 20.6 6.8 20.6 6.8 21.4Z" fill="#1C2A4D"/>
<path fill-rule="evenodd" clip-rule="evenodd" d="M10.8 21.4C10.8 22.5 12.2 22.5 12.2 21.4C12.2 20.6 10.8 20.6 10.8 21.4Z" fill="#1C2A4D"/>
<path fill-rule="evenodd" clip-rule="evenodd" d="M14.7 21.4C14.7 22.5 16.1 22.5 16.1 21.4C16.1 20.6 14.7 20.6 14.7 21.4Z" fill="#1C2A4D"/>
</svg>
