<?xml version="1.0" encoding="utf-8"?><svg viewBox="0 0 24 22" xmlns="http://www.w3.org/2000/svg" xmlns:xlink="http://www.w3.org/1999/xlink"><style>:root>svg{display:none}:root>svg:target{display:block}</style><svg viewBox="0 0 24 22" id="catalog-button-icon" xmlns="http://www.w3.org/2000/svg"><path d="M21.984 7.025H11.812L7.079.52C6.891.208 6.625.036 6.281.005c-.343-.031-.672.078-.984.328-.469.499-.5.998-.094 1.497l3.703 5.195h-6.89c-.563 0-1.04.195-1.43.585C.196 8 0 8.46 0 8.99v1.03c0 .873.406 1.466 1.219 1.778l2.765 8.47c.125.437.375.835.75 1.194S5.531 22 6 22h12c.469 0 .89-.18 1.266-.538.375-.359.625-.757.75-1.194l2.765-8.376c.813-.312 1.219-.905 1.219-1.779v-1.03c0-.592-.195-1.083-.586-1.473a1.947 1.947 0 00-1.43-.585zM2.016 8.99h8.39l.703.936c.063 0 .094.031.094.094H2.016V8.99zm16.078 10.717v.093c0 .032-.016.063-.047.094s-.047.063-.047.094H6.094c-.063 0-.094-.063-.094-.188l-2.578-7.815h17.156l-2.484 7.722zM12.89 10.02c.218-.375.328-.718.328-1.03h8.765v1.03H12.89zm-5.907 8.19c.032.218.157.405.375.561.22.156.438.234.657.234h.187c.25-.062.453-.218.61-.468.156-.25.187-.5.093-.749l-.984-3.978c-.063-.25-.219-.452-.469-.608-.25-.156-.5-.187-.75-.094-.25.063-.453.219-.61.468-.155.25-.187.484-.093.702l.984 3.931zm8.813.795h.187c.22 0 .438-.078.657-.234.218-.156.343-.343.375-.562L18 14.185a.99.99 0 00-.117-.749c-.14-.25-.336-.39-.586-.421-.656-.125-1.063.11-1.219.702l-.984 3.978c-.188.624.047 1.06.703 1.31zm-3.797 0c.656 0 .984-.343.984-1.03v-3.977c0-.655-.328-.983-.984-.983-.656 0-.984.327-.984.983v3.977c0 .687.328 1.03.984 1.03z"/></svg></svg>