<svg width="80" height="80" viewBox="0 0 80 80" fill="none" xmlns="http://www.w3.org/2000/svg">
<g clip-path="url(#clip0_643_2831)">
<rect width="80" height="80" fill="#FFFBF5"/>
<mask id="mask0_643_2831" style="mask-type:luminance" maskUnits="userSpaceOnUse" x="4" y="11" width="72" height="71">
<path d="M6.50804 78.644C6.51057 78.8246 6.54865 79.0029 6.62011 79.1688C6.69157 79.3347 6.79501 79.4849 6.92452 79.6108C7.05403 79.7367 7.20707 79.8358 7.37491 79.9026C7.54275 79.9694 7.72209 80.0024 7.9027 79.9998H72.094C72.2748 80.0026 72.4543 79.9698 72.6223 79.9031C72.7904 79.8365 72.9436 79.7373 73.0733 79.6114C73.203 79.4855 73.3066 79.3352 73.3782 79.1692C73.4498 79.0032 73.4879 78.8247 73.4904 78.644V77.0254C73.5222 76.537 73.5874 74.1038 71.9829 71.4115C70.9709 69.7136 69.5022 68.2484 67.6173 67.053C65.3376 65.6072 62.4372 64.5616 58.9285 63.9322C57.1474 63.6815 55.3807 63.3378 53.6355 62.9025C48.9949 61.7176 48.5893 60.6686 48.5858 60.658C48.559 60.5544 48.5199 60.4544 48.4694 60.36C48.4307 60.1661 48.3372 59.4291 48.5171 57.4561C48.9719 52.4434 51.6608 49.4813 53.8206 47.1011C54.5012 46.3517 55.1448 45.6412 55.6402 44.9465C57.7789 41.9491 57.9764 38.5374 57.9852 38.3258C57.9933 37.9509 57.9415 37.5771 57.8318 37.2186C57.6202 36.5662 57.2271 36.1607 56.9379 35.8609C56.8695 35.7923 56.803 35.7218 56.7387 35.6493C56.7175 35.6247 56.6611 35.5577 56.7122 35.2209C56.8851 34.136 57.0046 33.0433 57.0701 31.9467C57.1689 30.18 57.2447 27.5388 56.788 24.9664C56.721 24.475 56.6196 23.989 56.4848 23.5118C56.0034 21.7415 55.2312 20.2288 54.1574 18.9804C53.9723 18.7777 49.4797 14.0436 36.4377 13.0739C34.6339 12.9399 32.8514 13.0121 31.0953 13.1021C30.5759 13.1136 30.0591 13.1774 29.5525 13.2925C28.2055 13.6398 27.8458 14.4932 27.7523 14.971C27.5954 15.7644 27.8705 16.378 28.0521 16.7871C28.0785 16.8453 28.112 16.9175 28.0538 17.108C27.7523 17.577 27.2745 18.0001 26.7896 18.4004C26.6486 18.5185 23.3797 21.3395 23.1999 25.0228C22.715 27.8244 22.7503 32.1883 23.3233 35.205C23.3585 35.3725 23.4061 35.6194 23.3268 35.7869C22.7097 36.3387 22.0115 36.9647 22.0133 38.3928C22.0203 38.5374 22.2195 41.9473 24.3583 44.9465C24.8519 45.6412 25.4955 46.35 26.1743 47.0993L26.1778 47.1011C28.3377 49.4813 31.0265 52.4434 31.4814 57.4543C31.6595 59.4291 31.566 60.1643 31.529 60.36C31.4778 60.4542 31.4382 60.5543 31.4109 60.658C31.4091 60.6686 31.0054 61.7141 26.3859 62.8972C23.72 63.5795 21.0964 63.9286 21.0171 63.9375C17.6071 64.514 14.7244 65.5349 12.4481 66.9719C10.5704 68.1585 9.09812 69.6289 8.07549 71.3392C6.43927 74.0721 6.48335 76.5617 6.50627 77.0166V78.644H6.50804Z" fill="white" stroke="white" stroke-width="4" stroke-linejoin="round"/>
</mask>
<g mask="url(#mask0_643_2831)">
<path d="M-2.31543 4.18433H82.3162V88.8159H-2.31543V4.18433Z" fill="#D7D3CD"/>
</g>
</g>
<defs>
<clipPath id="clip0_643_2831">
<rect width="80" height="80" rx="10" fill="white"/>
</clipPath>
</defs>
</svg>
