<svg width="21" height="21" viewBox="0 0 21 21" fill="none" xmlns="http://www.w3.org/2000/svg">
<path d="M10.5 0C9.12112 0 7.75574 0.271591 6.48182 0.799265C5.2079 1.32694 4.05039 2.10036 3.07538 3.07538C1.10625 5.04451 0 7.71523 0 10.5C0 13.2848 1.10625 15.9555 3.07538 17.9246C4.05039 18.8996 5.2079 19.6731 6.48182 20.2007C7.75574 20.7284 9.12112 21 10.5 21C13.2848 21 15.9555 19.8938 17.9246 17.9246C19.8938 15.9555 21 13.2848 21 10.5C21 9.12112 20.7284 7.75574 20.2007 6.48182C19.6731 5.2079 18.8996 4.05039 17.9246 3.07538C16.9496 2.10036 15.7921 1.32694 14.5182 0.799265C13.2443 0.271591 11.8789 0 10.5 0ZM5.3235 17.094C5.775 16.149 8.526 15.225 10.5 15.225C12.474 15.225 15.225 16.149 15.6765 17.094C14.2059 18.2658 12.3804 18.9027 10.5 18.9C8.547 18.9 6.7515 18.228 5.3235 17.094ZM17.178 15.5715C15.6765 13.7445 12.033 13.125 10.5 13.125C8.967 13.125 5.3235 13.7445 3.822 15.5715C2.70499 14.1169 2.09965 12.334 2.1 10.5C2.1 5.8695 5.8695 2.1 10.5 2.1C15.1305 2.1 18.9 5.8695 18.9 10.5C18.9 12.411 18.249 14.175 17.178 15.5715ZM10.5 4.2C8.463 4.2 6.825 5.838 6.825 7.875C6.825 9.912 8.463 11.55 10.5 11.55C12.537 11.55 14.175 9.912 14.175 7.875C14.175 5.838 12.537 4.2 10.5 4.2ZM10.5 9.45C10.0823 9.45 9.68168 9.28406 9.38631 8.98869C9.09094 8.69332 8.925 8.29272 8.925 7.875C8.925 7.45728 9.09094 7.05668 9.38631 6.76131C9.68168 6.46594 10.0823 6.3 10.5 6.3C10.9177 6.3 11.3183 6.46594 11.6137 6.76131C11.9091 7.05668 12.075 7.45728 12.075 7.875C12.075 8.29272 11.9091 8.69332 11.6137 8.98869C11.3183 9.28406 10.9177 9.45 10.5 9.45Z" fill="#1C2A4D"/>
</svg>
