<svg width="167" height="117" viewBox="0 0 167 117" fill="none" xmlns="http://www.w3.org/2000/svg">
<path fill-rule="evenodd" clip-rule="evenodd" d="M137.935 26.2124C138.705 26.1217 139.255 25.4194 139.165 24.6437C139.075 23.868 138.379 23.3128 137.61 23.4035L97.8629 28.0896L96.1164 27.3608C95.4009 27.0622 94.5807 27.4051 94.2847 28.1266L93.3874 30.3123C93.2372 30.6781 93.2508 31.071 93.3935 31.4084L69.1945 63.0236L70.7152 41.0916L70.7919 41.0667C71.9289 40.6991 72.5552 39.4717 72.1906 38.3253L71.6995 36.781C71.4235 35.9136 70.5026 35.4358 69.6419 35.714L68.0747 36.2207C67.0359 36.5567 66.4232 37.6105 66.6035 38.6644L25.9066 78.506C25.3509 79.0497 25.3378 79.9452 25.8773 80.5054C26.4167 81.0657 27.3045 81.079 27.8602 80.535L67.8854 41.3512L66.2627 64.7577L65.3177 65.2956C64.584 65.7133 64.3273 66.6537 64.7463 67.3911L65.9185 69.4542C66.3358 70.1884 67.2638 70.4426 67.9919 70.022L69.9545 68.8882C70.6524 68.4853 70.9177 67.6035 70.5599 66.8773L70.2574 66.2638L95.8253 32.86L96.3613 33.0837C97.0771 33.3824 97.8973 33.0395 98.1934 32.3179L98.806 30.8258L137.935 26.2124Z" fill="url(#paint0_linear_350_223)"/>
<path d="M59.8719 108.935V108.154H56.9163V114.145H57.91V108.935H59.8719Z" fill="white"/>
<path d="M65.3638 114.119V113.569C64.8856 113.582 64.7978 113.261 64.7978 112.826V110.56C64.7978 109.383 64.848 108 63.0747 108C62.0688 108 61.3143 108.154 60.8741 108.282V109.05C61.3519 108.909 61.9304 108.794 62.4961 108.794C63.1378 108.794 63.8041 108.807 63.8041 109.997V110.56H63.0119C61.4652 110.56 60.459 111.06 60.459 112.672C60.459 113.901 61.3268 114.311 62.0939 114.311C62.7101 114.311 63.3012 114.042 63.8293 113.326C63.8293 113.326 63.9174 114.196 64.5336 114.196C64.9864 114.196 65.2506 114.145 65.3638 114.119ZM63.8041 112.455C63.8041 112.455 63.2636 113.466 62.3201 113.466C61.7545 113.466 61.4777 113.108 61.4777 112.455C61.4777 111.405 62.1817 111.226 62.9618 111.226H63.8041V112.455Z" fill="white"/>
<path d="M71.0282 110.944C71.0282 109.267 70.4496 108.038 68.953 108.038C67.8715 108.038 67.3055 108.743 67.3055 108.743L67.2173 108.154H66.3119V116.897H67.3055V113.991C67.5948 114.145 68.0475 114.26 68.563 114.26C69.7076 114.26 71.0282 113.402 71.0282 110.944ZM69.9969 110.944C69.9969 112.928 69.4058 113.556 68.4626 113.556C67.7457 113.556 67.3055 113.133 67.3055 113.133V109.703C67.3055 109.703 67.6199 108.845 68.6763 108.845C69.7578 108.845 69.9969 110.023 69.9969 110.944Z" fill="white"/>
<path d="M76.7364 114.119V113.569C76.2586 113.582 76.1704 113.261 76.1704 112.826V110.56C76.1704 109.383 76.2209 108 74.4476 108C73.4414 108 72.6868 108.154 72.2466 108.282V109.05C72.7244 108.909 73.303 108.794 73.869 108.794C74.5103 108.794 75.1771 108.807 75.1771 109.997V110.56H74.3845C72.8377 110.56 71.8315 111.06 71.8315 112.672C71.8315 113.901 72.6994 114.311 73.4665 114.311C74.0827 114.311 74.6738 114.042 75.2022 113.326C75.2022 113.326 75.2904 114.196 75.9066 114.196C76.3593 114.196 76.6231 114.145 76.7364 114.119ZM75.1771 112.455C75.1771 112.455 74.6362 113.466 73.693 113.466C73.127 113.466 72.8503 113.108 72.8503 112.455C72.8503 111.405 73.5547 111.226 74.3343 111.226H75.1771V112.455Z" fill="white"/>
<path d="M82.0614 114.145V108.154H81.0678V110.65H78.6782V108.154H77.6849V114.145H78.6782V111.367H81.0678V114.145H82.0614Z" fill="white"/>
<path d="M87.1567 108.935V108.154H82.9433V108.935H84.5532V114.145H85.5468V108.935H87.1567Z" fill="white"/>
<path d="M92.6165 114.145V108.141H91.5601L89.0197 112.788V108.154H88.026V114.145H89.0824L91.6228 109.498V114.145H92.6165Z" fill="white"/>
<path d="M97.9567 114.145V108.179C97.6297 108.141 96.9505 108.038 96.3092 108.038C95.3911 108.038 93.882 108.282 93.882 109.895C93.882 111.111 94.8628 111.392 95.2653 111.482V111.559C94.8882 111.802 94.6993 111.904 94.2716 112.813L93.6429 114.145H94.8126L95.2653 112.941C95.6804 111.853 96.083 111.712 96.5357 111.712H96.963V114.145H97.9567ZM96.963 111.111H96.3092C95.1395 111.111 94.9133 110.419 94.9133 109.895C94.9133 108.845 95.6804 108.755 96.221 108.755C96.5103 108.755 96.963 108.819 96.963 108.819V111.111Z" fill="white"/>
<path d="M106.964 110.944C106.964 109.267 106.386 108.038 104.889 108.038C103.808 108.038 103.242 108.743 103.242 108.743L103.154 108.154H102.248V116.897H103.242V113.991C103.531 114.145 103.984 114.26 104.5 114.26C105.644 114.26 106.964 113.402 106.964 110.944ZM105.933 110.944C105.933 112.928 105.342 113.556 104.399 113.556C103.682 113.556 103.242 113.133 103.242 113.133V109.703C103.242 109.703 103.556 108.845 104.612 108.845C105.694 108.845 105.933 110.023 105.933 110.944Z" fill="white"/>
<path d="M112.748 111.175C112.748 108.474 111.264 108.038 110.321 108.038C109.416 108.038 107.894 108.461 107.894 111.175C107.894 113.287 108.912 114.324 110.271 114.324C111.616 114.324 112.748 113.287 112.748 111.175ZM111.717 111.175C111.717 112.801 111.201 113.594 110.321 113.594C109.491 113.594 108.925 112.801 108.925 111.175C108.925 108.935 109.768 108.768 110.321 108.768C110.849 108.768 111.717 108.935 111.717 111.175Z" fill="white"/>
<path d="M117.301 113.978V113.172C117.075 113.313 116.597 113.441 116.333 113.441C115.264 113.441 114.748 112.801 114.748 111.175C114.748 109.024 115.666 108.819 116.27 108.819C116.572 108.819 117.1 108.909 117.301 108.973V108.141C117.1 108.103 116.735 108.038 116.194 108.038C115.214 108.038 113.717 108.525 113.717 111.175C113.717 113.274 114.559 114.26 115.943 114.26C116.836 114.26 117.15 114.042 117.301 113.978Z" fill="white"/>
<path d="M122.086 108.935V108.154H117.873V108.935H119.482V114.145H120.476V108.935H122.086Z" fill="white"/>
<path d="M127.558 114.119V113.569C127.08 113.582 126.992 113.261 126.992 112.826V110.56C126.992 109.383 127.042 108 125.269 108C124.263 108 123.509 108.154 123.068 108.282V109.05C123.546 108.909 124.125 108.794 124.691 108.794C125.332 108.794 125.999 108.807 125.999 109.997V110.56H125.206C123.66 110.56 122.653 111.06 122.653 112.672C122.653 113.901 123.521 114.311 124.288 114.311C124.905 114.311 125.496 114.042 126.024 113.326C126.024 113.326 126.112 114.196 126.728 114.196C127.181 114.196 127.445 114.145 127.558 114.119ZM125.999 112.455C125.999 112.455 125.458 113.466 124.515 113.466C123.949 113.466 123.672 113.108 123.672 112.455C123.672 111.405 124.376 111.226 125.156 111.226H125.999V112.455Z" fill="white"/>
<path d="M104.114 17.1016C103.977 16.9635 103.977 16.7397 104.114 16.6016L106.622 14.0723C106.759 13.9342 106.981 13.9342 107.118 14.0723L109.626 16.6016C109.763 16.7397 109.763 16.9635 109.626 17.1016L107.118 19.6309C106.981 19.769 106.759 19.769 106.622 19.6309L104.114 17.1016Z" fill="white"/>
<path fill-rule="evenodd" clip-rule="evenodd" d="M98.0982 0.359099C98.966 -0.0357129 99.9306 -0.098306 100.83 0.138532C101.825 0.400628 103.293 0.792491 103.814 0.964482C104.615 1.22853 106.205 1.8039 107.704 2.36083C110.678 3.46564 115.127 5.30589 115.731 5.55613L115.759 5.56574C115.773 5.57056 115.796 5.57838 115.82 5.58723C115.842 5.59516 115.878 5.60898 115.919 5.62763L115.923 5.62936L129.712 11.8747L144.734 18.918C145.217 19.1444 145.426 19.7226 145.202 20.2094C144.977 20.6963 144.404 20.9074 143.921 20.681L128.916 13.6457L128.905 13.6404L115.146 7.40919C115.146 7.40919 115.142 7.40775 115.139 7.40685C115.131 7.40386 115.11 7.39684 115.092 7.39061C115.075 7.38449 115.044 7.3734 115.01 7.35925C114.45 7.12701 109.992 5.28306 107.038 4.18525C105.536 3.62763 103.977 3.06392 103.215 2.81243C102.764 2.66373 101.371 2.29031 100.343 2.01977C99.8478 1.88939 99.3367 1.9286 98.8907 2.13144C98.2064 2.44268 97.3465 2.85647 96.7331 3.22465C95.5807 3.91622 92.9001 5.61701 92.6265 5.79059C92.6061 5.80366 92.5878 5.81511 92.5677 5.82732L87.4922 8.93334L50.1644 30.7085L20.8144 79.8486C20.7151 80.0143 20.5772 80.154 20.4132 80.2551L3.81359 90.476L2.18839 101.362L21.892 86.2943C22.3913 85.9127 23.0981 85.9833 23.5132 86.4567L36.7065 101.504L38.5505 95.2046C38.7014 94.6898 39.2373 94.3956 39.7481 94.5475C40.2589 94.6995 40.5504 95.2403 40.3998 95.7552L38.182 103.33C37.9156 104.241 36.7596 104.499 36.1359 103.788L22.5174 88.2563L1.92262 104.005C1.06642 104.66 -0.145607 103.935 0.0143494 102.863L1.95761 89.8466C2.01037 89.4934 2.21551 89.182 2.51775 88.9958L19.2557 78.6896L48.7689 29.2764L86.509 7.26063L91.5673 4.16523C91.5748 4.16066 91.5813 4.15659 91.5877 4.15252C91.5917 4.15014 91.5952 4.14777 91.5992 4.14525C91.863 3.97779 94.5687 2.26104 95.7466 1.55393C96.4596 1.12595 97.4042 0.674709 98.0982 0.359099ZM144.705 27.8265C145.117 28.1669 145.177 28.7794 144.84 29.1946L138.648 36.8119L113.328 54.4993L81.679 58.0022C81.1499 58.0609 80.6738 57.6757 80.6158 57.1421C80.5573 56.6081 80.9395 56.1282 81.4689 56.0695L112.632 52.6201L137.328 35.3689L143.348 27.9622C143.686 27.5469 144.293 27.4862 144.705 27.8265ZM135.204 30.2462C135.517 30.6806 135.421 31.2886 134.99 31.604L111.33 48.9252L87.6836 51.9317C87.1553 51.999 86.6731 51.6217 86.6065 51.0888C86.5398 50.5563 86.914 50.0699 87.4424 50.0029L110.598 47.0587L133.857 30.0306C134.288 29.7152 134.891 29.8117 135.204 30.2462ZM121.461 31.2829C121.803 31.6945 121.749 32.3076 121.341 32.6524L108.327 43.6486L94.2834 45.3924C93.755 45.4579 93.2739 45.0791 93.2087 44.5462C93.1438 44.0134 93.5195 43.528 94.0479 43.4625L107.525 41.7889L120.103 31.1621C120.511 30.8173 121.119 30.8714 121.461 31.2829ZM64.0442 62.8162C64.2991 63.2879 64.1263 63.8784 63.6589 64.1351L40.9002 76.6322C40.4328 76.889 39.8471 76.7151 39.5926 76.2434C39.338 75.7721 39.5105 75.1816 39.9783 74.9249L62.7366 62.4277C63.2044 62.1706 63.7897 62.3449 64.0442 62.8162Z" fill="white"/>
<path fill-rule="evenodd" clip-rule="evenodd" d="M62.6036 68.4629C57.1259 69.722 53.035 74.7066 53.035 80.6637V90.6974C53.035 97.605 58.5357 103.205 65.3215 103.205H70.4522C77.2376 103.205 82.7386 97.605 82.7386 90.6974V80.6637C82.7386 74.7444 78.6998 69.7857 73.2744 68.4873V76.9775C74.3505 77.8329 75.0427 79.1659 75.0427 80.6637V90.6974C75.0427 93.2783 72.9873 95.3705 70.4522 95.3705H65.3215C62.786 95.3705 60.731 93.2783 60.731 90.6974V80.6637C60.731 79.118 61.468 77.7476 62.6036 76.8972V68.4629ZM88.2744 68.8431V103.617H95.9703V99.1504H104.544C112.746 99.1504 119.396 92.3814 119.396 84.0313C119.396 75.6809 112.735 68.8431 104.532 68.8431H88.2744ZM95.9703 76.7463V91.316H104.544C108.496 91.316 111.7 88.0546 111.7 84.0313C111.7 80.008 108.496 76.7463 104.544 76.7463H95.9703ZM166.584 68.8431H158.888V103.617H166.584V68.8431ZM124.054 68.8431V76.6779H135.125V103.617H142.821V76.6779H153.892V68.8431H124.054Z" fill="white"/>
<path d="M161.702 57.6611H163.697C163.796 57.6611 163.89 57.7018 163.957 57.7731L166.485 60.4468C166.548 60.5135 166.584 60.6024 166.584 60.6946V62.6454C166.584 62.7415 166.545 62.8333 166.478 62.901L163.956 65.4124C163.889 65.4793 163.798 65.5168 163.704 65.5168H161.696C161.602 65.5168 161.512 65.4797 161.445 65.4135L158.9 62.9014C158.832 62.8337 158.793 62.7411 158.793 62.6446V60.6957C158.793 60.6028 158.829 60.5135 158.893 60.4465L161.443 57.772C161.511 57.7011 161.605 57.6611 161.702 57.6611Z" fill="white"/>
<defs>
<linearGradient id="paint0_linear_350_223" x1="1.51453e-05" y1="116.943" x2="184.768" y2="50.5939" gradientUnits="userSpaceOnUse">
<stop offset="0.0001" stop-color="#0BBBEF"/>
<stop offset="0.395412" stop-color="#00A0E3"/>
<stop offset="0.67667" stop-color="#126797"/>
<stop offset="0.792521" stop-color="#005893"/>
<stop offset="1" stop-color="#142647"/>
</linearGradient>
</defs>
</svg>
