<svg width="108" height="75" viewBox="0 0 108 75" fill="none" xmlns="http://www.w3.org/2000/svg">
<path fill-rule="evenodd" clip-rule="evenodd" d="M88.6815 16.8177C89.176 16.7595 89.53 16.3089 89.4722 15.8112C89.4143 15.3136 88.9666 14.9573 88.472 15.0155L62.918 18.0221L61.7952 17.5545C61.3352 17.3629 60.8079 17.5829 60.6175 18.0458L60.0407 19.4481C59.9441 19.6828 59.9529 19.9349 60.0446 20.1514L44.4866 40.4354L45.4642 26.364L45.5135 26.3481C46.2446 26.1122 46.6472 25.3247 46.4128 24.5892L46.0971 23.5984C45.9196 23.0419 45.3276 22.7353 44.7742 22.9138L43.7666 23.2389C43.0987 23.4545 42.7049 24.1306 42.8208 24.8068L16.6559 50.3688C16.2986 50.7176 16.2902 51.2921 16.637 51.6516C16.9839 52.011 17.5547 52.0196 17.9119 51.6705L43.6449 26.5306L42.6016 41.548L41.9941 41.8931C41.5223 42.1611 41.3573 42.7645 41.6267 43.2376L42.3804 44.5613C42.6486 45.0323 43.2453 45.1954 43.7134 44.9256L44.9752 44.1981C45.4239 43.9396 45.5944 43.3739 45.3644 42.9079L45.1699 42.5143L61.6081 21.0828L61.9526 21.2263C62.4128 21.4179 62.9401 21.1979 63.1305 20.7349L63.5244 19.7776L88.6815 16.8177Z" fill="url(#paint0_linear_1_194)"/>
<path d="M38.4927 69.8914V69.3904H36.5925V73.2341H37.2314V69.8914H38.4927Z" fill="white"/>
<path d="M42.0238 73.2177V72.8645C41.7164 72.8729 41.6599 72.6675 41.6599 72.3882V70.9345C41.6599 70.1788 41.6922 69.292 40.5521 69.292C39.9054 69.292 39.4203 69.3904 39.1372 69.4726V69.9654C39.4445 69.8751 39.8164 69.8011 40.1801 69.8011C40.5926 69.8011 41.0211 69.8094 41.0211 70.5732V70.9345H40.5117C39.5173 70.9345 38.8704 71.2549 38.8704 72.2896C38.8704 73.078 39.4283 73.3409 39.9215 73.3409C40.3177 73.3409 40.6977 73.1685 41.0372 72.7086C41.0372 72.7086 41.0939 73.267 41.4901 73.267C41.7811 73.267 41.951 73.2341 42.0238 73.2177ZM41.0211 72.15C41.0211 72.15 40.6735 72.7989 40.0669 72.7989C39.7033 72.7989 39.5253 72.5688 39.5253 72.15C39.5253 71.4766 39.978 71.3616 40.4795 71.3616H41.0211V72.15Z" fill="white"/>
<path d="M45.6655 71.1809C45.6655 70.1048 45.2936 69.3164 44.3314 69.3164C43.6361 69.3164 43.2722 69.7683 43.2722 69.7683L43.2155 69.3903H42.6333V74.9999H43.2722V73.1354C43.4581 73.2341 43.7492 73.308 44.0806 73.308C44.8165 73.308 45.6655 72.7577 45.6655 71.1809ZM45.0025 71.1809C45.0025 72.4537 44.6224 72.8564 44.0161 72.8564C43.5552 72.8564 43.2722 72.5852 43.2722 72.5852V70.3841C43.2722 70.3841 43.4743 69.8339 44.1534 69.8339C44.8488 69.8339 45.0025 70.5895 45.0025 71.1809Z" fill="white"/>
<path d="M49.3353 73.2177V72.8645C49.0281 72.8729 48.9714 72.6675 48.9714 72.3882V70.9345C48.9714 70.1788 49.0039 69.292 47.8638 69.292C47.2169 69.292 46.7318 69.3904 46.4488 69.4726V69.9654C46.756 69.8751 47.1279 69.8011 47.4918 69.8011C47.9042 69.8011 48.3328 69.8094 48.3328 70.5732V70.9345H47.8233C46.8288 70.9345 46.1819 71.2549 46.1819 72.2896C46.1819 73.078 46.7398 73.3409 47.233 73.3409C47.6292 73.3409 48.0092 73.1685 48.3489 72.7086C48.3489 72.7086 48.4056 73.267 48.8018 73.267C49.0929 73.267 49.2625 73.2341 49.3353 73.2177ZM48.3328 72.15C48.3328 72.15 47.985 72.7989 47.3787 72.7989C47.0148 72.7989 46.8369 72.5688 46.8369 72.15C46.8369 71.4766 47.2897 71.3616 47.791 71.3616H48.3328V72.15Z" fill="white"/>
<path d="M52.7588 73.2341V69.3904H52.12V70.992H50.5837V69.3904H49.9451V73.2341H50.5837V71.4519H52.12V73.2341H52.7588Z" fill="white"/>
<path d="M56.0348 69.8914V69.3904H53.3259V69.8914H54.3609V73.2341H54.9998V69.8914H56.0348Z" fill="white"/>
<path d="M59.5451 73.2342V69.3823H58.8659L57.2326 72.3635V69.3904H56.5938V73.2342H57.2729L58.9062 70.2528V73.2342H59.5451Z" fill="white"/>
<path d="M62.9782 73.2341V69.4067C62.7681 69.3822 62.3313 69.3164 61.919 69.3164C61.3288 69.3164 60.3586 69.4726 60.3586 70.5075C60.3586 71.2876 60.9891 71.4682 61.2479 71.5258V71.575C61.0055 71.7311 60.884 71.7967 60.6091 72.38L60.2048 73.2341H60.9568L61.2479 72.462C61.5148 71.7639 61.7736 71.6736 62.0647 71.6736H62.3394V73.2341H62.9782ZM62.3394 71.2876H61.919C61.167 71.2876 61.0216 70.8441 61.0216 70.5075C61.0216 69.8339 61.5148 69.7763 61.8623 69.7763C62.0483 69.7763 62.3394 69.8175 62.3394 69.8175V71.2876Z" fill="white"/>
<path d="M68.7695 71.1809C68.7695 70.1048 68.3976 69.3164 67.4354 69.3164C66.7401 69.3164 66.3762 69.7683 66.3762 69.7683L66.3197 69.3903H65.7375V74.9999H66.3762V73.1354C66.5622 73.2341 66.8532 73.308 67.1849 73.308C67.9205 73.308 68.7695 72.7577 68.7695 71.1809ZM68.1065 71.1809C68.1065 72.4537 67.7265 72.8564 67.1201 72.8564C66.6592 72.8564 66.3762 72.5852 66.3762 72.5852V70.3841C66.3762 70.3841 66.5783 69.8339 67.2575 69.8339C67.953 69.8339 68.1065 70.5895 68.1065 71.1809Z" fill="white"/>
<path d="M72.4881 71.3287C72.4881 69.5957 71.534 69.3164 70.9277 69.3164C70.3455 69.3164 69.3672 69.5876 69.3672 71.3287C69.3672 72.6838 70.0219 73.3491 70.8952 73.3491C71.7603 73.3491 72.4881 72.6838 72.4881 71.3287ZM71.8251 71.3287C71.8251 72.3717 71.4937 72.8809 70.9277 72.8809C70.3939 72.8809 70.03 72.3717 70.03 71.3287C70.03 69.8914 70.5718 69.7847 70.9277 69.7847C71.2671 69.7847 71.8251 69.8914 71.8251 71.3287Z" fill="white"/>
<path d="M75.4153 73.1274V72.6099C75.2696 72.7002 74.9624 72.7825 74.7925 72.7825C74.1053 72.7825 73.7739 72.3717 73.7739 71.3287C73.7739 69.9489 74.3641 69.8175 74.7522 69.8175C74.9463 69.8175 75.2857 69.875 75.4153 69.9161V69.3822C75.2857 69.3575 75.0514 69.3164 74.7036 69.3164C74.073 69.3164 73.1108 69.6285 73.1108 71.3287C73.1108 72.6755 73.6524 73.308 74.542 73.308C75.1161 73.308 75.3182 73.1685 75.4153 73.1274Z" fill="white"/>
<path d="M78.4914 69.8914V69.3904H75.7827V69.8914H76.8177V73.2341H77.4566V69.8914H78.4914Z" fill="white"/>
<path d="M82.0097 73.2177V72.8645C81.7024 72.8729 81.6458 72.6675 81.6458 72.3882V70.9345C81.6458 70.1788 81.678 69.292 80.5381 69.292C79.8912 69.292 79.4061 69.3904 79.1231 69.4726V69.9654C79.4303 69.8751 79.8023 69.8011 80.1662 69.8011C80.5785 69.8011 81.0069 69.8094 81.0069 70.5732V70.9345H80.4976C79.5031 70.9345 78.8562 71.2549 78.8562 72.2896C78.8562 73.078 79.4142 73.3409 79.9074 73.3409C80.3035 73.3409 80.6836 73.1685 81.0233 72.7086C81.0233 72.7086 81.0797 73.267 81.4759 73.267C81.767 73.267 81.9368 73.2341 82.0097 73.2177ZM81.0069 72.15C81.0069 72.15 80.6594 72.7989 80.053 72.7989C79.6891 72.7989 79.5112 72.5688 79.5112 72.15C79.5112 71.4766 79.964 71.3616 80.4653 71.3616H81.0069V72.15Z" fill="white"/>
<path d="M66.9369 10.9722C66.8488 10.8836 66.8488 10.74 66.9369 10.6514L68.5494 9.02858C68.6375 8.94002 68.7801 8.94002 68.8682 9.02858L70.481 10.6514C70.569 10.74 70.569 10.8836 70.481 10.9722L68.8682 12.595C68.7801 12.6835 68.6375 12.6835 68.5494 12.595L66.9369 10.9722Z" fill="white"/>
<path fill-rule="evenodd" clip-rule="evenodd" d="M63.0693 0.230395C63.6272 -0.0229131 64.2474 -0.0630723 64.8256 0.0888812C65.4656 0.257039 66.4089 0.508455 66.7443 0.618803C67.2589 0.788211 68.2812 1.15737 69.245 1.51468C71.1572 2.22352 74.0177 3.40421 74.4058 3.56476L74.4091 3.56587L74.4238 3.57093C74.433 3.57402 74.4476 3.57904 74.463 3.58472C74.4768 3.5898 74.5001 3.59867 74.5264 3.61064C74.5273 3.61101 74.528 3.61138 74.5289 3.61175L83.3944 7.61868L93.0525 12.1376C93.363 12.2829 93.4976 12.6538 93.3533 12.9662C93.2088 13.2785 92.8403 13.414 92.5298 13.2688L82.8828 8.75494L82.8754 8.75155L74.0297 4.75367C74.0286 4.75323 74.0272 4.75274 74.0253 4.75217C74.0198 4.75025 74.0064 4.74574 73.9951 4.74175C73.9839 4.73782 73.964 4.73071 73.9421 4.72163C73.5819 4.57263 70.7163 3.38956 68.8166 2.68522C67.8514 2.32745 66.8489 1.96579 66.3587 1.80443C66.069 1.70903 65.1732 1.46944 64.5124 1.29586C64.1942 1.21222 63.8655 1.23737 63.5788 1.36751C63.1389 1.5672 62.586 1.83268 62.1917 2.06891C61.4507 2.51261 59.7273 3.60382 59.5514 3.71519C59.5383 3.72358 59.5266 3.73092 59.5137 3.73875L56.2505 5.73155L32.2517 19.7023L13.382 51.2301L13.3817 51.2306C13.3179 51.3369 13.2295 51.426 13.124 51.491L2.45183 58.0486L1.40696 65.0331L14.0748 55.3657C14.3958 55.1208 14.8502 55.1661 15.1171 55.4698L23.5994 65.1239L24.7849 61.0824C24.8819 60.7521 25.2265 60.5634 25.5549 60.6608C25.8833 60.7583 26.0706 61.1053 25.9738 61.4356L24.548 66.2958C24.3767 66.8801 23.6335 67.0459 23.2325 66.5897L14.4769 56.6244L1.23609 66.729C0.685622 67.1492 -0.0936139 66.6837 0.00922554 65.9962L1.25859 57.6448C1.29251 57.4182 1.4244 57.2183 1.61871 57.0989L12.3798 50.4865L31.3545 18.7835L55.6183 4.65835L58.8704 2.67237C58.8753 2.66944 58.8794 2.66683 58.8836 2.66422C58.8861 2.66269 58.8884 2.66117 58.8909 2.65955C59.0606 2.55211 60.8001 1.45066 61.5574 0.996987C62.0158 0.722401 62.6231 0.432887 63.0693 0.230395ZM12.4774 50.4267C12.4777 50.4265 12.4779 50.4262 12.4781 50.4262L12.4774 50.4267ZM93.0339 17.8533C93.2987 18.0716 93.3374 18.4646 93.1203 18.731L89.1397 23.6182L72.861 34.9662L52.513 37.2137C52.1729 37.2514 51.8668 37.0042 51.8295 36.6618C51.7919 36.3192 52.0376 36.0113 52.378 35.9737L72.4132 33.7606L88.2909 22.6924L92.1616 17.9403C92.3784 17.6739 92.7691 17.6349 93.0339 17.8533ZM86.9254 19.4057C87.1266 19.6844 87.0651 20.0744 86.788 20.2768L71.5764 31.39L56.3736 33.3189C56.0339 33.3621 55.7239 33.12 55.681 32.7781C55.6382 32.4365 55.8788 32.1244 56.2185 32.0814L71.1058 30.1924L86.0595 19.2674C86.3365 19.065 86.7242 19.1269 86.9254 19.4057ZM78.0896 20.0708C78.3095 20.3349 78.2751 20.7283 78.0126 20.9495L69.6453 28.0046L60.6167 29.1233C60.2769 29.1654 59.9677 28.9223 59.9257 28.5805C59.884 28.2386 60.1255 27.9272 60.4652 27.8851L69.13 26.8114L77.2166 19.9933C77.4789 19.7721 77.87 19.8068 78.0896 20.0708ZM41.1753 40.3023C41.3392 40.6049 41.2281 40.9838 40.9276 41.1485L26.2956 49.1665C25.9951 49.3313 25.6185 49.2197 25.4548 48.9171C25.2912 48.6147 25.4021 48.2358 25.7028 48.0711L40.3346 40.053C40.6353 39.8881 41.0117 39.9999 41.1753 40.3023Z" fill="white"/>
<path fill-rule="evenodd" clip-rule="evenodd" d="M40.249 43.9253C36.7272 44.7331 34.0972 47.9312 34.0972 51.7532V58.1908C34.0972 62.6227 37.6337 66.2155 41.9964 66.2155H45.295C49.6575 66.2155 53.1942 62.6227 53.1942 58.1908V51.7532C53.1942 47.9555 50.5975 44.774 47.1095 43.941V49.3882C47.8013 49.9371 48.2463 50.7923 48.2463 51.7532V58.1908C48.2463 59.8466 46.9248 61.189 45.295 61.189H41.9964C40.3663 61.189 39.045 59.8466 39.045 58.1908V51.7532C39.045 50.7615 39.5189 49.8823 40.249 49.3367V43.9253ZM61.7011 44.1692H56.7533V66.48H61.7011V63.6141H67.2131C72.4866 63.6141 76.7618 59.2712 76.7618 53.9139C76.7618 48.5563 72.4793 44.1692 67.2058 44.1692H61.7011ZM61.7011 49.2399V58.5876H67.2131C69.754 58.5876 71.8139 56.4952 71.8139 53.9139C71.8139 51.3326 69.754 49.2399 67.2131 49.2399H61.7011ZM107.1 44.1692H102.152V66.48H107.1V44.1692ZM79.7564 44.1692V49.196H86.8746V66.48H91.8224V49.196H98.9403V44.1692H91.8224H86.8746H79.7564Z" fill="white"/>
<path d="M103.962 36.9949H105.244C105.307 36.9949 105.368 37.021 105.411 37.0667L107.037 38.7822C107.077 38.8249 107.1 38.882 107.1 38.9411V40.1927C107.1 40.2544 107.075 40.3133 107.032 40.3567L105.41 41.968C105.367 42.011 105.309 42.035 105.248 42.035H103.958C103.897 42.035 103.839 42.0112 103.796 41.9687L102.16 40.357C102.116 40.3135 102.091 40.2542 102.091 40.1923V38.9418C102.091 38.8822 102.114 38.8249 102.155 38.782L103.795 37.066C103.839 37.0205 103.899 36.9949 103.962 36.9949Z" fill="white"/>
<defs>
<linearGradient id="paint0_linear_1_194" x1="16.3823" y1="51.9413" x2="89.6688" y2="15.3767" gradientUnits="userSpaceOnUse">
<stop offset="0.0001" stop-color="#0BBBEF"/>
<stop offset="0.395412" stop-color="#00A0E3"/>
<stop offset="0.67667" stop-color="#126797"/>
<stop offset="0.792521" stop-color="#005893"/>
<stop offset="1" stop-color="#142647"/>
</linearGradient>
</defs>
</svg>
