<?xml version="1.0" encoding="utf-8"?><svg viewBox="0 0 150 150" xmlns="http://www.w3.org/2000/svg" xmlns:xlink="http://www.w3.org/1999/xlink"><style>:root>svg{display:none}:root>svg:target{display:block}</style><svg viewBox="0 0 150 150" id="cashback-ellipse" xmlns="http://www.w3.org/2000/svg"><circle cx="75" cy="75" r="75"/></svg><svg viewBox="0 0 51 50" id="icon-1c" xmlns="http://www.w3.org/2000/svg"><path class="bfooter__icon-change" d="M15.79 2.295v1.34c0 7.14-.03 14.28.02 21.42.03 4.72 3.17 8.48 7.78 9.5 5.51 1.22 10.81-2.71 11.62-8.62.72-5.19-3.69-10.36-9.03-10.62-.07 0-.14.03-.28.07v4.23c.34.09.68.17 1.01.26 2.7.78 4.25 3.24 3.83 6.07-.38 2.55-2.78 4.46-5.49 4.37-2.62-.09-5-2.19-5.03-4.87-.1-8.16-.04-16.33-.04-24.48 9.35-2.5 22.41 1.71 27.9 14 5.29 11.85.44 25.82-11.05 31.89-11.53 6.09-25.76 2.2-32.61-8.97-6.75-11.02-3.59-24.61 5.24-31.78v1.22c0 5.9-.03 11.79.01 17.69.05 7.48 5.14 13.77 12.42 15.43 9.9 2.26 19.39-5.45 19.24-15.65-.11-7.97-6.16-14.67-14.04-15.55-.42-.05-.85 0-1.36 0v4.24c.79.15 1.59.26 2.37.46 5.52 1.41 9.25 6.71 8.6 12.22-.69 5.86-5.48 10.22-11.31 10.28-6.2.07-11.36-4.87-11.46-11.2-.11-7.14-.01-14.28-.04-21.42 0-1.12.84-1.12 1.7-1.53z"/></svg><svg viewBox="0 0 77 46" id="icon-b24" xmlns="http://www.w3.org/2000/svg"><path d="M.556 30.602v2.395c.263 1.078.43 2.156.813 3.21 1.889 5.34 7.22 9.293 13.796 9.293 16.019-.024 32.038-.024 48.033 0 6.002 0 10.831-3.569 12.529-8.36.358-.957.526-1.987.765-2.993v-2.252c-.048-.143-.12-.263-.144-.383-.74-4.767-3.443-8.144-8.105-9.988-1.363-.55-2.893-.742-4.375-1.126 1.363-3.76 1.195-7.592-.622-11.281-1.817-3.713-4.806-6.3-8.846-7.689C50.909.207 47.322.183 43.808 1.404c-4.567 1.581-7.723 4.623-9.516 8.958-3.49-1.365-6.934-1.413-10.281.216-3.347 1.629-5.356 4.287-6.216 7.736h-.43c-7.078-1.197-13.844 2.827-16.068 9.102-.358 1.03-.526 2.132-.789 3.21h.048v-.024z"/><path class="cfooter__icon-change" d="M25.221 32.996l5.242-4.37a33.24 33.24 0 001.31-1.138c.362-.35.656-.676.882-.98.24-.303.414-.591.52-.864.12-.288.18-.584.18-.888 0-.531-.15-.94-.451-1.229-.287-.288-.701-.433-1.243-.433-1.431 0-2.147.896-2.147 2.686h-4.067c0-1.942.512-3.444 1.537-4.507 1.039-1.062 2.598-1.593 4.677-1.593.964 0 1.807.13 2.53.387.723.243 1.326.592 1.808 1.047.482.44.836.971 1.062 1.594.241.622.361 1.305.361 2.048 0 .546-.097 1.07-.293 1.57a5.743 5.743 0 01-.791 1.457 8.93 8.93 0 01-1.198 1.366c-.467.44-.971.873-1.514 1.298l-2.733 2.094h6.755v3.369H25.221v-2.914zm20.773-.182H38.9v-2.8l7.366-10.038h3.796v9.47h1.718v3.368h-1.72v3.096h-4.067v-3.096zm0-3.369v-4.94l-3.457 4.94h3.457z"/></svg></svg>