<svg display="none" xmlns="http://www.w3.org/2000/svg">

    <symbol id="logo-first" viewBox="0 0 126 32">
         <path d="M16.0048 0C7.38077 0 0.381836 6.96843 0.381836 15.5541C0.381836 24.1432 7.38077 31.1109 16.0048 31.1109C19.6014 31.1109 22.913 29.8973 25.5541 27.8603V31.1072H27.9914V20.989C25.912 25.5168 21.3228 28.6725 16.0048 28.6725C8.7406 28.6725 2.8299 22.7878 2.8299 15.5541C2.8299 8.32156 8.7406 2.43727 16.0048 2.43727C23.2698 2.43727 29.1808 8.32156 29.1808 15.5541C29.1808 15.6438 29.1756 15.7327 29.1734 15.822H29.1808V31.1072H31.6177V16.113C31.6241 15.9284 31.6282 15.742 31.6282 15.5541C31.6282 6.96843 24.6292 0 16.0048 0Z" fill="var(--color-1)"/>
                            <path d="M16.0048 24.9948C10.7715 24.9948 6.5239 20.7635 6.5239 15.5537C6.5239 10.3451 10.7715 6.1153 16.0048 6.1153C21.2383 6.1153 25.4867 10.3451 25.4867 15.5537C25.4867 20.7635 21.2383 24.9948 16.0048 24.9948ZM16.0048 3.62073C9.39572 3.62073 4.01854 8.97373 4.01854 15.5537C4.01854 22.1349 9.39572 27.489 16.0048 27.489C22.6142 27.489 27.9914 22.1349 27.9914 15.5537C27.9914 8.97373 22.6142 3.62073 16.0048 3.62073Z" fill="var(--color-1)"/>
                            <path d="M73.4171 10.0466V3.18421H74.8688V10.0745C74.8688 12.8537 76.0977 14.1938 78.6109 14.1938V15.5194C75.2364 15.5235 73.4171 13.6558 73.4171 10.0466ZM70.5657 10.0745V3.18421H72.0182L72.0137 10.0745C72.0108 14.5301 74.4127 16.9027 78.6109 16.8636V18.1933C73.5845 18.1933 70.5657 15.3557 70.5657 10.0745ZM83.7968 14.0491C83.7968 17.6583 81.9779 19.5264 78.6027 19.5223V18.1963C81.1162 18.1963 82.3451 16.8565 82.3451 14.077V3.18123H83.7968V14.0491ZM86.6482 14.077C86.6482 19.3582 83.6298 22.1958 78.6027 22.1958V20.8657C82.8012 20.9048 85.2017 18.5322 85.1998 14.077L85.1961 3.18123H86.6482V14.077ZM40.9058 11.3279C40.9058 7.71871 42.6693 5.85253 46.3228 5.85513L50.2207 5.85811V7.1811H46.3228C43.5302 7.1811 42.3575 8.52084 42.3575 11.3V18.8604H40.9058V11.3279ZM38.0544 11.3C38.0544 6.0192 41.0174 3.18123 46.3228 3.18123H50.2207V4.53213L46.3228 4.51093C41.8452 4.48712 39.4998 6.8444 39.5024 11.3L39.5065 18.8604H38.0544V11.3ZM111.886 3.18421H113.338V18.8604H111.886V3.18421ZM109.038 3.18421H110.49V18.8604H109.038V3.18421ZM122.428 11.3279V18.8604H120.977V11.3C120.977 8.52084 119.803 7.18073 117.011 7.18073H114.677V5.85811L117.011 5.85513C120.666 5.85067 122.428 7.71871 122.428 11.3279ZM125.28 11.3V18.8604H123.828L123.832 11.3C123.834 6.8444 121.488 4.47112 117.011 4.51093L114.677 4.53213V3.18123H117.011C122.317 3.18123 125.28 6.0192 125.28 11.3ZM92.56 3.18421H94.0117V18.8604H92.56V3.18421ZM89.7112 3.18421H91.163V18.8604H89.7112V3.18421ZM103.103 11.3279V18.8604H101.65V11.3C101.65 8.52084 100.478 7.18073 97.6849 7.18073H95.3507V5.85811L97.6849 5.85513C101.339 5.85067 103.103 7.71871 103.103 11.3279ZM105.953 11.3V18.8604H104.501L104.506 11.3C104.508 6.8444 102.163 4.47112 97.6849 4.51093L95.3507 4.53213V3.18123H97.6849C102.991 3.18123 105.953 6.0192 105.953 11.3ZM55.6467 11.0221C55.6467 13.3515 57.2695 15.2999 59.609 15.2999C61.9491 15.2999 63.572 13.3515 63.572 11.0221C63.572 8.69273 61.9491 6.68852 59.609 6.68852C57.2695 6.68852 55.6467 8.69273 55.6467 11.0221ZM54.1309 11.0221C54.1309 7.9118 56.4808 5.34654 59.609 5.34654C62.7379 5.34654 65.0877 7.91106 65.0877 11.0221C65.0877 14.1339 62.7379 16.6422 59.609 16.6422C56.4841 16.6422 54.1309 14.1261 54.1309 11.0221ZM51.2264 11.0515C51.2264 6.39236 54.9275 2.67786 59.609 2.67786C64.2908 2.67786 67.9923 6.35925 67.9923 11.0221C67.9923 15.685 64.2908 19.3109 59.609 19.3109C58.1505 19.3109 56.787 18.9891 55.6009 18.312V22.1958H54.1488L54.1362 15.1998C55.3725 16.842 57.3313 17.9701 59.609 17.9701C63.5106 17.9701 66.4777 14.9055 66.4777 11.0221C66.4777 7.13869 63.5106 4.01908 59.609 4.01908C55.708 4.01908 52.7414 7.13869 52.7414 11.0221L52.7332 22.1958H51.2253L51.2264 11.0515Z" fill="var(--color-1)"/>
                            <g opacity="0.99">
                            <g opacity="0.99">
                            <path opacity="0.99" d="M41.8553 29.5392C41.5375 29.9831 40.9065 30.2773 40.222 30.2773C38.8953 30.2773 38.0544 29.4306 38.0544 28.1224C38.0544 26.9155 38.8767 25.9661 40.1803 25.9661C40.9371 25.9661 41.513 26.2849 41.7954 26.6637L41.4404 27.0056C41.1171 26.6808 40.7443 26.4892 40.1918 26.4892C39.213 26.4892 38.6244 27.1611 38.6244 28.1224C38.6244 29.1069 39.2796 29.7554 40.2584 29.7554C40.84 29.7554 41.2548 29.515 41.5431 29.191L41.8553 29.5392Z" fill="var(--color-1)"/>
                            </g>
                            </g>
                            <g opacity="0.99">
                            <g opacity="0.99">
                            <path opacity="0.99" d="M43.0648 26.0211H46.0914V26.5316H43.6113V27.8401H45.9232V28.3386H43.6113V29.7133H46.1461V30.2238H43.0648V26.0211Z" fill="var(--color-1)"/>
                            </g>
                            </g>
                            <g opacity="0.99">
                            <g opacity="0.99">
                            <path opacity="0.99" d="M47.1143 26.0211H50.5858V26.5316H49.12V30.2238H48.5742V26.5316H47.1143V26.0211Z" fill="var(--color-1)"/>
                            </g>
                            </g>
                            <g opacity="0.99">
                            <g opacity="0.99">
                            <path opacity="0.99" d="M52.2394 27.5819H53.3384C54.4735 27.5819 55.032 28.0503 55.032 28.8669C55.032 29.7613 54.3827 30.2238 53.2848 30.2238H51.6928V26.0211H52.2394V27.5819ZM52.2394 28.0923V29.7133H53.3023C54.0472 29.7133 54.4609 29.438 54.4609 28.8669C54.4609 28.3505 54.0531 28.0923 53.3209 28.0923H52.2394Z" fill="var(--color-1)"/>
                            </g>
                            </g>
                            <g opacity="0.99">
                            <g opacity="0.99">
                            <path opacity="0.99" d="M58.7331 26.0211H59.2376L60.8355 28.1344L62.3784 26.0211H62.8706V30.2238H62.3248V26.9639L60.8891 28.897H60.757L59.2796 26.9639V30.2238H58.7331V26.0211Z" fill="var(--color-1)"/>
                            </g>
                            </g>
                            <g opacity="0.99">
                            <g opacity="0.99">
                            <path opacity="0.99" d="M64.5061 26.0211H67.5327V26.5316H65.0526V27.8401H67.3645V28.3386H65.0526V29.7133H67.5874V30.2238H64.5061V26.0211Z" fill="var(--color-1)"/>
                            </g>
                            </g>
                            <g opacity="0.99">
                            <g opacity="0.99">
                            <path opacity="0.99" d="M68.6514 26.0211H72.123V26.5316H70.6571V30.2238H70.1113V26.5316H68.6514V26.0211Z" fill="var(--color-1)"/>
                            </g>
                            </g>
                            <g opacity="0.99">
                            <g opacity="0.99">
                            <path opacity="0.99" d="M74.1423 26.0085H74.5747L76.4189 30.2238H75.8478L75.3794 29.1613H73.3201L72.8577 30.2238H72.2992L74.1423 26.0085ZM73.5244 28.681H75.1759L74.3466 26.7712L73.5244 28.681Z" fill="var(--color-1)"/>
                            </g>
                            </g>
                            <g opacity="0.99">
                            <g opacity="0.99">
                            <path opacity="0.99" d="M80.3065 26.5317H78.4928V26.7899C78.4928 29.6959 77.8863 30.2358 77.2918 30.2358C77.2137 30.2358 77.1236 30.2298 77.0396 30.2239V29.6959C77.4905 29.7614 77.947 29.4731 77.947 26.7058V26.0212H80.853V30.2239H80.3065V26.5317Z" fill="var(--color-1)"/>
                            </g>
                            </g>
                            <g opacity="0.99">
                            <g opacity="0.99">
                            <path opacity="0.99" d="M85.2802 26.5316H83.4661V26.7898C83.4661 29.6958 82.8596 30.2357 82.2651 30.2357C82.1873 30.2357 82.0969 30.2297 82.0128 30.2238V29.6958C82.4638 29.7613 82.9203 29.473 82.9203 26.7057V26.0211H85.8267V30.2238H85.2802V26.5316Z" fill="var(--color-1)"/>
                            </g>
                            </g>
                            <g opacity="0.99">
                            <g opacity="0.99">
                            <path opacity="0.99" d="M89.3723 25.9666C90.5558 25.9666 91.5037 26.8673 91.5037 28.1229C91.5037 29.36 90.5558 30.2778 89.3723 30.2778C88.1832 30.2778 87.2349 29.3775 87.2349 28.1229C87.2349 26.9034 88.1713 25.9666 89.3723 25.9666ZM89.3723 29.7558C90.2555 29.7558 90.9338 29.0772 90.9338 28.1229C90.9338 27.1616 90.2135 26.4896 89.3723 26.4896C88.5136 26.4896 87.8049 27.1616 87.8049 28.1229C87.8049 29.0772 88.5195 29.7558 89.3723 29.7558Z" fill="var(--color-1)"/>
                            </g>
                            </g>
                            <g opacity="0.99">
                            <g opacity="0.99">
                            <path opacity="0.99" d="M92.9112 26.0211H93.4581V29.7133H95.8001V26.0211H96.3463V29.7133H96.8805V30.9924H96.3585V30.2238H92.9112V26.0211Z" fill="var(--color-1)"/>
                            </g>
                            </g>
                            <g opacity="0.99">
                            <g opacity="0.99">
                            <path opacity="0.99" d="M98.1333 26.0211H101.16V26.5316H98.6798V27.8401H100.991V28.3386H98.6798V29.7133H101.214V30.2238H98.1333V26.0211Z" fill="var(--color-1)"/>
                            </g>
                            </g>
                            <g opacity="0.99">
                            <g opacity="0.99">
                            <path opacity="0.99" d="M105.756 28.3446H103.251V30.2238H102.705V26.0211H103.251V27.8341H105.756V26.0211H106.302V30.2238H105.756V28.3446Z" fill="var(--color-1)"/>
                            </g>
                            </g>
                            <g opacity="0.99">
                            <g opacity="0.99">
                            <path opacity="0.99" d="M107.512 26.0211H110.983V26.5316H109.517V30.2238H108.972V26.5316H107.512V26.0211Z" fill="var(--color-1)"/>
                            </g>
                            </g>
                            <g opacity="0.99">
                            <g opacity="0.99">
                            <path opacity="0.99" d="M112.186 30.2238V26.0211H113.82C115.225 26.0211 115.543 26.6986 115.543 27.3423C115.543 28.0198 115.099 28.6749 113.814 28.6749H112.732V30.2238H112.186ZM112.732 26.5316V28.1704H113.801C114.625 28.1704 114.978 27.8341 114.978 27.3356C114.978 26.8668 114.678 26.5316 113.843 26.5316H112.732Z" fill="var(--color-1)"/>
                            </g>
                            </g>
                            <g opacity="0.99">
                            <g opacity="0.99">
                            <path opacity="0.99" d="M118.745 25.9666C119.929 25.9666 120.877 26.8673 120.877 28.1229C120.877 29.36 119.929 30.2778 118.745 30.2778C117.556 30.2778 116.608 29.3775 116.608 28.1229C116.608 26.9034 117.544 25.9666 118.745 25.9666ZM118.745 29.7558C119.628 29.7558 120.307 29.0772 120.307 28.1229C120.307 27.1616 119.586 26.4896 118.745 26.4896C117.887 26.4896 117.178 27.1616 117.178 28.1229C117.178 29.0772 117.893 29.7558 118.745 29.7558Z" fill="var(--color-1)"/>
                            </g>
                            </g>
                            <g opacity="0.99">
                            <g opacity="0.99">
                            <path opacity="0.99" d="M122.285 26.0211H123.985C125.126 26.0211 125.468 26.4594 125.468 27.0655C125.468 27.5283 125.246 27.8646 124.874 28.0268C125.331 28.1228 125.618 28.4707 125.618 29.0232C125.618 29.8759 124.958 30.2241 123.955 30.2241H122.285V26.0211ZM122.832 26.5316V27.8282H124.027C124.562 27.8282 124.91 27.5878 124.91 27.1801C124.91 26.7477 124.669 26.5316 123.937 26.5316H122.832ZM122.832 28.3271V29.7137H123.949C124.711 29.7137 125.054 29.4916 125.054 28.993C125.054 28.5492 124.736 28.3271 124.009 28.3271H122.832Z" fill="var(--color-1)"/>
                            </g>
                            </g>
    </symbol>

    <symbol id="logo-second" viewBox="0 0 126 32">
        <path d="M16.0048 0C7.38077 0 0.381836 6.96843 0.381836 15.5541C0.381836 24.1432 7.38077 31.1109 16.0048 31.1109C19.6014 31.1109 22.913 29.8973 25.5541 27.8603V31.1072H27.9914V20.989C25.912 25.5168 21.3228 28.6725 16.0048 28.6725C8.7406 28.6725 2.8299 22.7878 2.8299 15.5541C2.8299 8.32156 8.7406 2.43727 16.0048 2.43727C23.2698 2.43727 29.1808 8.32156 29.1808 15.5541C29.1808 15.6438 29.1756 15.7327 29.1734 15.822H29.1808V31.1072H31.6177V16.113C31.6241 15.9284 31.6282 15.742 31.6282 15.5541C31.6282 6.96843 24.6292 0 16.0048 0Z" fill="var(--color-2)"/>
        <path d="M16.0048 24.9948C10.7715 24.9948 6.5239 20.7635 6.5239 15.5537C6.5239 10.3451 10.7715 6.1153 16.0048 6.1153C21.2383 6.1153 25.4867 10.3451 25.4867 15.5537C25.4867 20.7635 21.2383 24.9948 16.0048 24.9948ZM16.0048 3.62073C9.39572 3.62073 4.01854 8.97373 4.01854 15.5537C4.01854 22.1349 9.39572 27.489 16.0048 27.489C22.6142 27.489 27.9914 22.1349 27.9914 15.5537C27.9914 8.97373 22.6142 3.62073 16.0048 3.62073Z" fill="var(--color-2)"/>
        <path d="M73.4171 10.0466V3.18421H74.8688V10.0745C74.8688 12.8537 76.0977 14.1938 78.6109 14.1938V15.5194C75.2364 15.5235 73.4171 13.6558 73.4171 10.0466ZM70.5657 10.0745V3.18421H72.0182L72.0137 10.0745C72.0108 14.5301 74.4127 16.9027 78.6109 16.8636V18.1933C73.5845 18.1933 70.5657 15.3557 70.5657 10.0745ZM83.7968 14.0491C83.7968 17.6583 81.9779 19.5264 78.6027 19.5223V18.1963C81.1162 18.1963 82.3451 16.8565 82.3451 14.077V3.18123H83.7968V14.0491ZM86.6482 14.077C86.6482 19.3582 83.6298 22.1958 78.6027 22.1958V20.8657C82.8012 20.9048 85.2017 18.5322 85.1998 14.077L85.1961 3.18123H86.6482V14.077ZM40.9058 11.3279C40.9058 7.71871 42.6693 5.85253 46.3228 5.85513L50.2207 5.85811V7.1811H46.3228C43.5302 7.1811 42.3575 8.52084 42.3575 11.3V18.8604H40.9058V11.3279ZM38.0544 11.3C38.0544 6.0192 41.0174 3.18123 46.3228 3.18123H50.2207V4.53213L46.3228 4.51093C41.8452 4.48712 39.4998 6.8444 39.5024 11.3L39.5065 18.8604H38.0544V11.3ZM111.886 3.18421H113.338V18.8604H111.886V3.18421ZM109.038 3.18421H110.49V18.8604H109.038V3.18421ZM122.428 11.3279V18.8604H120.977V11.3C120.977 8.52084 119.803 7.18073 117.011 7.18073H114.677V5.85811L117.011 5.85513C120.666 5.85067 122.428 7.71871 122.428 11.3279ZM125.28 11.3V18.8604H123.828L123.832 11.3C123.834 6.8444 121.488 4.47112 117.011 4.51093L114.677 4.53213V3.18123H117.011C122.317 3.18123 125.28 6.0192 125.28 11.3ZM92.56 3.18421H94.0117V18.8604H92.56V3.18421ZM89.7112 3.18421H91.163V18.8604H89.7112V3.18421ZM103.103 11.3279V18.8604H101.65V11.3C101.65 8.52084 100.478 7.18073 97.6849 7.18073H95.3507V5.85811L97.6849 5.85513C101.339 5.85067 103.103 7.71871 103.103 11.3279ZM105.953 11.3V18.8604H104.501L104.506 11.3C104.508 6.8444 102.163 4.47112 97.6849 4.51093L95.3507 4.53213V3.18123H97.6849C102.991 3.18123 105.953 6.0192 105.953 11.3ZM55.6467 11.0221C55.6467 13.3515 57.2695 15.2999 59.609 15.2999C61.9491 15.2999 63.572 13.3515 63.572 11.0221C63.572 8.69273 61.9491 6.68852 59.609 6.68852C57.2695 6.68852 55.6467 8.69273 55.6467 11.0221ZM54.1309 11.0221C54.1309 7.9118 56.4808 5.34654 59.609 5.34654C62.7379 5.34654 65.0877 7.91106 65.0877 11.0221C65.0877 14.1339 62.7379 16.6422 59.609 16.6422C56.4841 16.6422 54.1309 14.1261 54.1309 11.0221ZM51.2264 11.0515C51.2264 6.39236 54.9275 2.67786 59.609 2.67786C64.2908 2.67786 67.9923 6.35925 67.9923 11.0221C67.9923 15.685 64.2908 19.3109 59.609 19.3109C58.1505 19.3109 56.787 18.9891 55.6009 18.312V22.1958H54.1488L54.1362 15.1998C55.3725 16.842 57.3313 17.9701 59.609 17.9701C63.5106 17.9701 66.4777 14.9055 66.4777 11.0221C66.4777 7.13869 63.5106 4.01908 59.609 4.01908C55.708 4.01908 52.7414 7.13869 52.7414 11.0221L52.7332 22.1958H51.2253L51.2264 11.0515Z" fill="var(--color-2)"/>
        <path d="M37.9998 28.0882C37.9998 27.8333 38.0472 27.5843 38.1422 27.3412C38.2414 27.0941 38.3838 26.8706 38.5694 26.6706C38.7549 26.4667 38.9836 26.3059 39.2555 26.1882C39.5274 26.0667 39.8359 26.0059 40.1811 26.0059C40.5911 26.0059 40.9406 26.0922 41.2298 26.2647C41.5232 26.4333 41.739 26.651 41.8771 26.9176L41.521 27.1176C41.4218 26.9333 41.2966 26.7882 41.1456 26.6824C40.9946 26.5725 40.8328 26.4941 40.6601 26.4471C40.4918 26.4 40.3235 26.3765 40.1552 26.3765C39.8791 26.3765 39.6353 26.4275 39.4238 26.5294C39.2124 26.6275 39.0333 26.7608 38.8866 26.9294C38.7441 27.0941 38.6363 27.2804 38.5629 27.4882C38.4895 27.6922 38.4529 27.9 38.4529 28.1118C38.4529 28.3431 38.496 28.5647 38.5823 28.7765C38.6686 28.9882 38.7895 29.1765 38.9448 29.3412C39.1002 29.502 39.2814 29.6314 39.4885 29.7294C39.7 29.8235 39.9287 29.8706 40.1747 29.8706C40.3473 29.8706 40.5242 29.8431 40.7054 29.7882C40.8867 29.7333 41.055 29.649 41.2103 29.5353C41.37 29.4216 41.4973 29.2745 41.5922 29.0941L41.9677 29.2706C41.8727 29.4784 41.726 29.6549 41.5275 29.8C41.329 29.9451 41.1068 30.0549 40.8608 30.1294C40.6191 30.2039 40.3818 30.2412 40.1488 30.2412C39.8338 30.2412 39.5446 30.1804 39.2814 30.0588C39.0182 29.9333 38.7895 29.7686 38.5953 29.5647C38.4054 29.3569 38.2587 29.1255 38.1551 28.8706C38.0515 28.6118 37.9998 28.351 37.9998 28.0882Z" fill="var(--color-2)"/>
        <path d="M46.1207 26.3941H44.483V30.2059H44.0299V26.3941H42.3923V26.0294H46.1207V26.3941Z" fill="var(--color-2)"/>
        <path d="M47.9264 26.0294H48.3083L50.2179 30.2059H49.7389L49.1433 28.9H47.0785L46.4894 30.2059H46.004L47.9264 26.0294ZM49.0398 28.5765L48.1141 26.5118L47.1756 28.5765H49.0398Z" fill="var(--color-2)"/>
        <path d="M54.1132 30.2059V26.3941H52.236L52.2101 27.2765C52.1885 27.8529 52.1432 28.3314 52.0742 28.7118C52.0051 29.0922 51.908 29.3922 51.7829 29.6118C51.6577 29.8275 51.5046 29.9824 51.3233 30.0765C51.1421 30.1667 50.9263 30.2118 50.676 30.2118V29.8471C50.8443 29.8471 50.9932 29.8078 51.1227 29.7294C51.2521 29.651 51.3622 29.5137 51.4528 29.3176C51.5434 29.1216 51.6146 28.851 51.6664 28.5059C51.7225 28.1569 51.7592 27.7157 51.7764 27.1824L51.8153 26.0294H54.5598V30.2059H54.1132Z" fill="var(--color-2)"/>
        <path d="M55.8386 30.2059V26.0294H56.2917V27.6529H57.4568C57.7891 27.6529 58.0653 27.7059 58.2854 27.8118C58.5055 27.9176 58.6694 28.0667 58.7773 28.2588C58.8895 28.451 58.9456 28.6745 58.9456 28.9294C58.9456 29.1608 58.8917 29.3745 58.7838 29.5706C58.6759 29.7667 58.5141 29.9216 58.2983 30.0353C58.0826 30.149 57.8129 30.2059 57.4892 30.2059H55.8386ZM56.2917 29.8588H57.4309C57.6855 29.8588 57.8905 29.8157 58.0459 29.7294C58.2012 29.6392 58.3134 29.5235 58.3825 29.3824C58.4558 29.2373 58.4925 29.0863 58.4925 28.9294C58.4925 28.7647 58.4601 28.6118 58.3954 28.4706C58.3307 28.3294 58.2206 28.2157 58.0653 28.1294C57.9099 28.0431 57.6963 28 57.4245 28H56.2917V29.8588Z" fill="var(--color-2)"/>
        <path d="M63.5437 26.0294V30.2059H63.0971V28.2529H60.3719V30.2059H59.9188V26.0294H60.3719V27.8882H63.0971V26.0294H63.5437Z" fill="var(--color-2)"/>
        <path d="M64.8272 30.2059V26.0294H65.2803V27.6529H66.4454C66.7777 27.6529 67.0538 27.7059 67.2739 27.8118C67.494 27.9176 67.658 28.0667 67.7659 28.2588C67.8781 28.451 67.9342 28.6745 67.9342 28.9294C67.9342 29.1608 67.8802 29.3745 67.7723 29.5706C67.6645 29.7667 67.5026 29.9216 67.2869 30.0353C67.0711 30.149 66.8014 30.2059 66.4778 30.2059H64.8272ZM65.2803 29.8588H66.4195C66.6741 29.8588 66.8791 29.8157 67.0344 29.7294C67.1898 29.6392 67.302 29.5235 67.371 29.3824C67.4444 29.2373 67.4811 29.0863 67.4811 28.9294C67.4811 28.7647 67.4487 28.6118 67.384 28.4706C67.3192 28.3294 67.2092 28.2157 67.0538 28.1294C66.8985 28.0431 66.6849 28 66.413 28H65.2803V29.8588ZM68.7368 30.2059V26.0353H69.1834V30.2059H68.7368Z" fill="var(--color-2)"/>
        <path d="M73.55 29.8412V30.2059H70.4624V26.0294H73.4918V26.3941H70.9155V27.9H73.1616V28.2471H70.9155V29.8412H73.55Z" fill="var(--color-2)"/>
        <path d="M76.3156 30.2059V26.0294H76.7687V27.8882H77.4613L79.0407 26.0294H79.565L77.8368 28.0529L79.6751 30.2059H79.1184L77.4743 28.2647H76.7687V30.2059H76.3156Z" fill="var(--color-2)"/>
        <path d="M82.146 30.2353C81.8223 30.2353 81.5289 30.1765 81.2657 30.0588C81.0024 29.9412 80.7759 29.7824 80.586 29.5824C80.3961 29.3784 80.2494 29.151 80.1458 28.9C80.0423 28.6451 79.9905 28.3843 79.9905 28.1176C79.9905 27.8392 80.0444 27.5745 80.1523 27.3235C80.2602 27.0686 80.4112 26.8431 80.6054 26.6471C80.8039 26.4471 81.0348 26.2902 81.298 26.1765C81.5613 26.0588 81.8461 26 82.1525 26C82.4761 26 82.7696 26.0608 83.0328 26.1824C83.296 26.3039 83.5204 26.4667 83.706 26.6706C83.8958 26.8745 84.0426 27.102 84.1461 27.3529C84.2497 27.6039 84.3015 27.8608 84.3015 28.1235C84.3015 28.402 84.2475 28.6686 84.1397 28.9235C84.0318 29.1745 83.8807 29.4 83.6866 29.6C83.4924 29.7961 83.2637 29.951 83.0004 30.0647C82.7372 30.1784 82.4524 30.2353 82.146 30.2353ZM80.4436 28.1176C80.4436 28.3451 80.4846 28.5647 80.5666 28.7765C80.6486 28.9843 80.7651 29.1706 80.9161 29.3353C81.0672 29.4961 81.2463 29.6255 81.4534 29.7235C81.6648 29.8176 81.8957 29.8647 82.146 29.8647C82.4092 29.8647 82.6444 29.8157 82.8515 29.7176C83.063 29.6157 83.2421 29.4824 83.3888 29.3176C83.5398 29.149 83.6542 28.9608 83.7319 28.7529C83.8095 28.5451 83.8484 28.3333 83.8484 28.1176C83.8484 27.8902 83.8074 27.6725 83.7254 27.4647C83.6434 27.2569 83.5247 27.0706 83.3694 26.9059C83.2183 26.7412 83.0393 26.6118 82.8321 26.5176C82.625 26.4235 82.3963 26.3765 82.146 26.3765C81.8871 26.3765 81.6519 26.4255 81.4404 26.5235C81.2333 26.6216 81.0542 26.7549 80.9032 26.9235C80.7565 27.0882 80.6421 27.2745 80.5601 27.4824C80.4824 27.6902 80.4436 27.902 80.4436 28.1176Z" fill="var(--color-2)"/>
        <path d="M88.9101 26.0294V30.2059H88.4634V28.2529H85.7383V30.2059H85.2852V26.0294H85.7383V27.8882H88.4634V26.0294H88.9101Z" fill="var(--color-2)"/>
        <path d="M89.8893 28.0882C89.8893 27.8333 89.9368 27.5843 90.0317 27.3412C90.131 27.0941 90.2734 26.8706 90.4589 26.6706C90.6445 26.4667 90.8732 26.3059 91.1451 26.1882C91.4169 26.0667 91.7255 26.0059 92.0707 26.0059C92.4806 26.0059 92.8302 26.0922 93.1193 26.2647C93.4127 26.4333 93.6285 26.651 93.7666 26.9176L93.4106 27.1176C93.3113 26.9333 93.1862 26.7882 93.0352 26.6824C92.8841 26.5725 92.7223 26.4941 92.5497 26.4471C92.3814 26.4 92.2131 26.3765 92.0448 26.3765C91.7686 26.3765 91.5248 26.4275 91.3134 26.5294C91.1019 26.6275 90.9228 26.7608 90.7761 26.9294C90.6337 27.0941 90.5258 27.2804 90.4525 27.4882C90.3791 27.6922 90.3424 27.9 90.3424 28.1118C90.3424 28.3431 90.3856 28.5647 90.4719 28.7765C90.5582 28.9882 90.679 29.1765 90.8344 29.3412C90.9897 29.502 91.171 29.6314 91.3781 29.7294C91.5895 29.8235 91.8182 29.8706 92.0642 29.8706C92.2368 29.8706 92.4138 29.8431 92.595 29.7882C92.7762 29.7333 92.9445 29.649 93.0999 29.5353C93.2596 29.4216 93.3869 29.2745 93.4818 29.0941L93.8572 29.2706C93.7623 29.4784 93.6156 29.6549 93.4171 29.8C93.2186 29.9451 92.9963 30.0549 92.7504 30.1294C92.5087 30.2039 92.2714 30.2412 92.0383 30.2412C91.7233 30.2412 91.4342 30.1804 91.171 30.0588C90.9077 29.9333 90.679 29.7686 90.4848 29.5647C90.2949 29.3569 90.1482 29.1255 90.0447 28.8706C89.9411 28.6118 89.8893 28.351 89.8893 28.0882Z" fill="var(--color-2)"/>
        <path d="M98.0102 26.3941H96.3726V30.2059H95.9195V26.3941H94.2818V26.0294H98.0102V26.3941Z" fill="var(--color-2)"/>
        <path d="M98.8281 30.2059V26.0294H100.731C100.93 26.0294 101.111 26.0667 101.275 26.1412C101.443 26.2157 101.588 26.3176 101.709 26.4471C101.829 26.5725 101.924 26.7137 101.993 26.8706C102.062 27.0235 102.097 27.1804 102.097 27.3412C102.097 27.5686 102.041 27.7843 101.929 27.9882C101.821 28.1882 101.668 28.351 101.469 28.4765C101.271 28.602 101.038 28.6647 100.77 28.6647H99.2812V30.2059H98.8281ZM99.2812 28.3H100.751C100.932 28.3 101.089 28.2549 101.223 28.1647C101.357 28.0745 101.46 27.9569 101.534 27.8118C101.607 27.6667 101.644 27.5098 101.644 27.3412C101.644 27.1686 101.601 27.0098 101.514 26.8647C101.428 26.7196 101.314 26.6059 101.171 26.5235C101.033 26.4373 100.88 26.3941 100.712 26.3941H99.2812V28.3Z" fill="var(--color-2)"/>
        <path d="M103.489 30.2176V29.8706H103.78C103.88 29.8706 103.953 29.8451 104 29.7941C104.052 29.7431 104.108 29.6667 104.169 29.5647L104.369 29.1824L102.408 26.0294H102.907L104.577 28.7647L105.968 26.0294H106.441L104.518 29.7647C104.432 29.9255 104.343 30.0412 104.253 30.1118C104.162 30.1824 104.035 30.2176 103.871 30.2176H103.489Z" fill="var(--color-2)"/>
        <path d="M107.102 30.2059V26.0294H107.555V27.8882H108.248L109.827 26.0294H110.352L108.623 28.0529L110.462 30.2059H109.905L108.261 28.2647H107.555V30.2059H107.102Z" fill="var(--color-2)"/>
        <path d="M114.836 31V30.2059H111.334V26.0294H111.787V29.8412H114.234V26.0294H114.681V29.8412H115.237V31H114.836Z" fill="var(--color-2)"/>
        <path d="M116.237 30.2059V26.0294H116.684V29.6412L119.532 26.0294H119.952V30.2059H119.506V26.6588L116.69 30.2059H116.237Z" fill="var(--color-2)"/>
        <path d="M121.284 30.2059V26.0294H121.731V29.6412L124.579 26.0294H125V30.2059H124.553V26.6588L121.737 30.2059H121.284Z" fill="var(--color-2)"/>
    </symbol>

    <symbol id="logo-third" viewBox="0 0 127 32">
        <path d="M16.0048 0C7.38077 0 0.381836 6.96843 0.381836 15.5541C0.381836 24.1432 7.38077 31.1109 16.0048 31.1109C19.6014 31.1109 22.913 29.8973 25.5541 27.8603V31.1072H27.9914V20.989C25.912 25.5168 21.3228 28.6725 16.0048 28.6725C8.7406 28.6725 2.8299 22.7878 2.8299 15.5541C2.8299 8.32156 8.7406 2.43727 16.0048 2.43727C23.2698 2.43727 29.1808 8.32156 29.1808 15.5541C29.1808 15.6438 29.1756 15.7327 29.1734 15.822H29.1808V31.1072H31.6177V16.113C31.6241 15.9284 31.6282 15.742 31.6282 15.5541C31.6282 6.96843 24.6292 0 16.0048 0Z" fill="var(--color-3)"/>
        <path d="M16.0048 24.9948C10.7715 24.9948 6.5239 20.7635 6.5239 15.5537C6.5239 10.3451 10.7715 6.1153 16.0048 6.1153C21.2383 6.1153 25.4867 10.3451 25.4867 15.5537C25.4867 20.7635 21.2383 24.9948 16.0048 24.9948ZM16.0048 3.62073C9.39572 3.62073 4.01854 8.97373 4.01854 15.5537C4.01854 22.1349 9.39572 27.489 16.0048 27.489C22.6142 27.489 27.9914 22.1349 27.9914 15.5537C27.9914 8.97373 22.6142 3.62073 16.0048 3.62073Z" fill="var(--color-3)"/>
        <path d="M73.4171 10.0466V3.18421H74.8688V10.0745C74.8688 12.8537 76.0977 14.1938 78.6109 14.1938V15.5194C75.2364 15.5235 73.4171 13.6558 73.4171 10.0466ZM70.5657 10.0745V3.18421H72.0182L72.0137 10.0745C72.0108 14.5301 74.4127 16.9027 78.6109 16.8636V18.1933C73.5845 18.1933 70.5657 15.3557 70.5657 10.0745ZM83.7968 14.0491C83.7968 17.6583 81.9779 19.5264 78.6027 19.5223V18.1963C81.1162 18.1963 82.3451 16.8565 82.3451 14.077V3.18123H83.7968V14.0491ZM86.6482 14.077C86.6482 19.3582 83.6298 22.1958 78.6027 22.1958V20.8657C82.8012 20.9048 85.2017 18.5322 85.1998 14.077L85.1961 3.18123H86.6482V14.077ZM40.9058 11.3279C40.9058 7.71871 42.6693 5.85253 46.3228 5.85513L50.2207 5.85811V7.1811H46.3228C43.5302 7.1811 42.3575 8.52084 42.3575 11.3V18.8604H40.9058V11.3279ZM38.0544 11.3C38.0544 6.0192 41.0174 3.18123 46.3228 3.18123H50.2207V4.53213L46.3228 4.51093C41.8452 4.48712 39.4998 6.8444 39.5024 11.3L39.5065 18.8604H38.0544V11.3ZM111.886 3.18421H113.338V18.8604H111.886V3.18421ZM109.038 3.18421H110.49V18.8604H109.038V3.18421ZM122.428 11.3279V18.8604H120.977V11.3C120.977 8.52084 119.803 7.18073 117.011 7.18073H114.677V5.85811L117.011 5.85513C120.666 5.85067 122.428 7.71871 122.428 11.3279ZM125.28 11.3V18.8604H123.828L123.832 11.3C123.834 6.8444 121.488 4.47112 117.011 4.51093L114.677 4.53213V3.18123H117.011C122.317 3.18123 125.28 6.0192 125.28 11.3ZM92.56 3.18421H94.0117V18.8604H92.56V3.18421ZM89.7112 3.18421H91.163V18.8604H89.7112V3.18421ZM103.103 11.3279V18.8604H101.65V11.3C101.65 8.52084 100.478 7.18073 97.6849 7.18073H95.3507V5.85811L97.6849 5.85513C101.339 5.85067 103.103 7.71871 103.103 11.3279ZM105.953 11.3V18.8604H104.501L104.506 11.3C104.508 6.8444 102.163 4.47112 97.6849 4.51093L95.3507 4.53213V3.18123H97.6849C102.991 3.18123 105.953 6.0192 105.953 11.3ZM55.6467 11.0221C55.6467 13.3515 57.2695 15.2999 59.609 15.2999C61.9491 15.2999 63.572 13.3515 63.572 11.0221C63.572 8.69273 61.9491 6.68852 59.609 6.68852C57.2695 6.68852 55.6467 8.69273 55.6467 11.0221ZM54.1309 11.0221C54.1309 7.9118 56.4808 5.34654 59.609 5.34654C62.7379 5.34654 65.0877 7.91106 65.0877 11.0221C65.0877 14.1339 62.7379 16.6422 59.609 16.6422C56.4841 16.6422 54.1309 14.1261 54.1309 11.0221ZM51.2264 11.0515C51.2264 6.39236 54.9275 2.67786 59.609 2.67786C64.2908 2.67786 67.9923 6.35925 67.9923 11.0221C67.9923 15.685 64.2908 19.3109 59.609 19.3109C58.1505 19.3109 56.787 18.9891 55.6009 18.312V22.1958H54.1488L54.1362 15.1998C55.3725 16.842 57.3313 17.9701 59.609 17.9701C63.5106 17.9701 66.4777 14.9055 66.4777 11.0221C66.4777 7.13869 63.5106 4.01908 59.609 4.01908C55.708 4.01908 52.7414 7.13869 52.7414 11.0221L52.7332 22.1958H51.2253L51.2264 11.0515Z" fill="var(--color-3)"/>
        <path d="M37.9998 30.68V25H38.5518V29.912L42.0718 25H42.5918V30.68H42.0398V25.856L38.5598 30.68H37.9998Z" fill="var(--color-3)"/>
        <path d="M51.8859 25V30.68H51.3339V28.024H47.9659V30.68H47.4059V25H47.9659V27.528H51.3339V25H51.8859Z" fill="var(--color-3)"/>
        <path d="M56.1681 30.68L58.3761 27.752L56.3041 25H56.9601L58.8481 27.528H59.6241V25H60.1761V27.528H60.9441L62.8401 25H63.4961L61.4161 27.752L63.6241 30.68H62.9761L60.9601 28.04H60.1761V30.68H59.6241V28.04H58.8321L56.8161 30.68H56.1681Z" fill="var(--color-3)"/>
        <path d="M67.9469 30.68V25H68.4989V29.912L72.0189 25H72.5389V30.68H71.9869V25.856L68.5069 30.68H67.9469Z" fill="var(--color-3)"/>
        <path d="M81.8331 25V30.68H81.2811V28.024H77.9131V30.68H77.3531V25H77.9131V27.528H81.2811V25H81.8331Z" fill="var(--color-3)"/>
        <path d="M86.6513 30.68V25H87.2033V29.912L90.7233 25H91.2433V30.68H90.6913V25.856L87.2113 30.68H86.6513Z" fill="var(--color-3)"/>
        <path d="M96.0574 30.68V25H98.4094C98.6548 25 98.8788 25.0507 99.0814 25.152C99.2894 25.2533 99.4681 25.392 99.6174 25.568C99.7668 25.7387 99.8841 25.9307 99.9694 26.144C100.055 26.352 100.097 26.5653 100.097 26.784C100.097 27.0933 100.028 27.3867 99.8894 27.664C99.7561 27.936 99.5668 28.1573 99.3214 28.328C99.0761 28.4987 98.7881 28.584 98.4574 28.584H96.6174V30.68H96.0574ZM96.6174 28.088H98.4334C98.6574 28.088 98.8521 28.0267 99.0174 27.904C99.1828 27.7813 99.3108 27.6213 99.4014 27.424C99.4921 27.2267 99.5374 27.0133 99.5374 26.784C99.5374 26.5493 99.4841 26.3333 99.3774 26.136C99.2708 25.9387 99.1294 25.784 98.9534 25.672C98.7828 25.5547 98.5934 25.496 98.3854 25.496H96.6174V28.088Z" fill="var(--color-3)"/>
        <path d="M104.426 30.68V25H104.978V29.912L108.498 25H109.018V30.68H108.466V25.856L104.986 30.68H104.426Z" fill="var(--color-3)"/>
        <path d="M118.312 25V30.68H117.76V28.024H114.392V30.68H113.832V25H114.392V27.528H117.76V25H118.312Z" fill="var(--color-3)"/>
        <path d="M123.098 30.68V25H126.322V25.496H123.658V30.68H123.098Z" fill="var(--color-3)"/>
    </symbol>

    <symbol id="logo-fourth" viewBox="0 0 126 32">
        <path d="M16.0048 0C7.38077 0 0.381836 6.96843 0.381836 15.5541C0.381836 24.1432 7.38077 31.1109 16.0048 31.1109C19.6014 31.1109 22.913 29.8973 25.5541 27.8603V31.1072H27.9914V20.989C25.912 25.5168 21.3228 28.6725 16.0048 28.6725C8.7406 28.6725 2.8299 22.7878 2.8299 15.5541C2.8299 8.32156 8.7406 2.43727 16.0048 2.43727C23.2698 2.43727 29.1808 8.32156 29.1808 15.5541C29.1808 15.6438 29.1756 15.7327 29.1734 15.822H29.1808V31.1072H31.6177V16.113C31.6241 15.9284 31.6282 15.742 31.6282 15.5541C31.6282 6.96843 24.6292 0 16.0048 0Z" fill="var(--color-4)"/>
        <path d="M16.0048 24.9948C10.7715 24.9948 6.5239 20.7635 6.5239 15.5537C6.5239 10.3451 10.7715 6.1153 16.0048 6.1153C21.2383 6.1153 25.4867 10.3451 25.4867 15.5537C25.4867 20.7635 21.2383 24.9948 16.0048 24.9948ZM16.0048 3.62073C9.39572 3.62073 4.01854 8.97373 4.01854 15.5537C4.01854 22.1349 9.39572 27.489 16.0048 27.489C22.6142 27.489 27.9914 22.1349 27.9914 15.5537C27.9914 8.97373 22.6142 3.62073 16.0048 3.62073Z" fill="var(--color-4)"/>
        <path d="M73.4171 10.0466V3.18421H74.8688V10.0745C74.8688 12.8537 76.0977 14.1938 78.6109 14.1938V15.5194C75.2364 15.5235 73.4171 13.6558 73.4171 10.0466ZM70.5657 10.0745V3.18421H72.0182L72.0137 10.0745C72.0108 14.5301 74.4127 16.9027 78.6109 16.8636V18.1933C73.5845 18.1933 70.5657 15.3557 70.5657 10.0745ZM83.7968 14.0491C83.7968 17.6583 81.9779 19.5264 78.6027 19.5223V18.1963C81.1162 18.1963 82.3451 16.8565 82.3451 14.077V3.18123H83.7968V14.0491ZM86.6482 14.077C86.6482 19.3582 83.6298 22.1958 78.6027 22.1958V20.8657C82.8012 20.9048 85.2017 18.5322 85.1998 14.077L85.1961 3.18123H86.6482V14.077ZM40.9058 11.3279C40.9058 7.71871 42.6693 5.85253 46.3228 5.85513L50.2207 5.85811V7.1811H46.3228C43.5302 7.1811 42.3575 8.52084 42.3575 11.3V18.8604H40.9058V11.3279ZM38.0544 11.3C38.0544 6.0192 41.0174 3.18123 46.3228 3.18123H50.2207V4.53213L46.3228 4.51093C41.8452 4.48712 39.4998 6.8444 39.5024 11.3L39.5065 18.8604H38.0544V11.3ZM111.886 3.18421H113.338V18.8604H111.886V3.18421ZM109.038 3.18421H110.49V18.8604H109.038V3.18421ZM122.428 11.3279V18.8604H120.977V11.3C120.977 8.52084 119.803 7.18073 117.011 7.18073H114.677V5.85811L117.011 5.85513C120.666 5.85067 122.428 7.71871 122.428 11.3279ZM125.28 11.3V18.8604H123.828L123.832 11.3C123.834 6.8444 121.488 4.47112 117.011 4.51093L114.677 4.53213V3.18123H117.011C122.317 3.18123 125.28 6.0192 125.28 11.3ZM92.56 3.18421H94.0117V18.8604H92.56V3.18421ZM89.7112 3.18421H91.163V18.8604H89.7112V3.18421ZM103.103 11.3279V18.8604H101.65V11.3C101.65 8.52084 100.478 7.18073 97.6849 7.18073H95.3507V5.85811L97.6849 5.85513C101.339 5.85067 103.103 7.71871 103.103 11.3279ZM105.953 11.3V18.8604H104.501L104.506 11.3C104.508 6.8444 102.163 4.47112 97.6849 4.51093L95.3507 4.53213V3.18123H97.6849C102.991 3.18123 105.953 6.0192 105.953 11.3ZM55.6467 11.0221C55.6467 13.3515 57.2695 15.2999 59.609 15.2999C61.9491 15.2999 63.572 13.3515 63.572 11.0221C63.572 8.69273 61.9491 6.68852 59.609 6.68852C57.2695 6.68852 55.6467 8.69273 55.6467 11.0221ZM54.1309 11.0221C54.1309 7.9118 56.4808 5.34654 59.609 5.34654C62.7379 5.34654 65.0877 7.91106 65.0877 11.0221C65.0877 14.1339 62.7379 16.6422 59.609 16.6422C56.4841 16.6422 54.1309 14.1261 54.1309 11.0221ZM51.2264 11.0515C51.2264 6.39236 54.9275 2.67786 59.609 2.67786C64.2908 2.67786 67.9923 6.35925 67.9923 11.0221C67.9923 15.685 64.2908 19.3109 59.609 19.3109C58.1505 19.3109 56.787 18.9891 55.6009 18.312V22.1958H54.1488L54.1362 15.1998C55.3725 16.842 57.3313 17.9701 59.609 17.9701C63.5106 17.9701 66.4777 14.9055 66.4777 11.0221C66.4777 7.13869 63.5106 4.01908 59.609 4.01908C55.708 4.01908 52.7414 7.13869 52.7414 11.0221L52.7332 22.1958H51.2253L51.2264 11.0515Z" fill="var(--color-4)"/>
        <path d="M40.3758 25.032H40.8478L43.2078 30.712H42.6158L41.8798 28.936H39.3278L38.5998 30.712H37.9998L40.3758 25.032ZM41.7518 28.496L40.6078 25.688L39.4478 28.496H41.7518Z" fill="var(--color-4)"/>
        <path d="M58.662 30.712V25.528H56.342L56.31 26.728C56.2833 27.512 56.2273 28.1627 56.142 28.68C56.0567 29.1973 55.9367 29.6053 55.782 29.904C55.6273 30.1973 55.438 30.408 55.214 30.536C54.99 30.6587 54.7233 30.72 54.414 30.72V30.224C54.622 30.224 54.806 30.1707 54.966 30.064C55.126 29.9573 55.262 29.7707 55.374 29.504C55.486 29.2373 55.574 28.8693 55.638 28.4C55.7073 27.9253 55.7527 27.3253 55.774 26.6L55.822 25.032H59.214V30.712H58.662Z" fill="var(--color-4)"/>
        <path d="M71.4345 30.712V25.032H71.9945V27.24H73.4345C73.8452 27.24 74.1865 27.312 74.4585 27.456C74.7305 27.6 74.9332 27.8027 75.0665 28.064C75.2052 28.3253 75.2745 28.6293 75.2745 28.976C75.2745 29.2907 75.2078 29.5813 75.0745 29.848C74.9412 30.1147 74.7412 30.3253 74.4745 30.48C74.2078 30.6347 73.8745 30.712 73.4745 30.712H71.4345ZM71.9945 30.24H73.4025C73.7172 30.24 73.9705 30.1813 74.1625 30.064C74.3545 29.9413 74.4932 29.784 74.5785 29.592C74.6692 29.3947 74.7145 29.1893 74.7145 28.976C74.7145 28.752 74.6745 28.544 74.5945 28.352C74.5145 28.16 74.3785 28.0053 74.1865 27.888C73.9945 27.7707 73.7305 27.712 73.3945 27.712H71.9945V30.24Z" fill="var(--color-4)"/>
        <path d="M86.9253 30.712L88.4453 28.304C88.0347 28.208 87.7173 28.0133 87.4933 27.72C87.2747 27.4267 87.1653 27.0773 87.1653 26.672C87.1653 26.368 87.24 26.0933 87.3893 25.848C87.544 25.5973 87.76 25.4 88.0373 25.256C88.3147 25.1067 88.6453 25.032 89.0293 25.032H90.7893V30.712H90.2373V28.376H89.2213C89.1893 28.376 89.1547 28.376 89.1173 28.376C89.0853 28.376 89.0533 28.376 89.0213 28.376L87.5653 30.712H86.9253ZM89.0533 27.888H90.2373V25.52H89.0853C88.824 25.52 88.5893 25.568 88.3813 25.664C88.1733 25.76 88.0133 25.8933 87.9013 26.064C87.7893 26.2347 87.7333 26.4373 87.7333 26.672C87.7333 26.9067 87.784 27.1147 87.8853 27.296C87.9867 27.4773 88.1333 27.6213 88.3253 27.728C88.5227 27.8347 88.7653 27.888 89.0533 27.888Z" fill="var(--color-4)"/>
        <path d="M107.491 25.032V30.712H106.939V28.056H103.571V30.712H103.011V25.032H103.571V27.56H106.939V25.032H107.491Z" fill="var(--color-4)"/>
        <path d="M119.341 27.832C119.341 27.4853 119.4 27.1467 119.517 26.816C119.64 26.48 119.816 26.176 120.045 25.904C120.275 25.6267 120.557 25.408 120.893 25.248C121.229 25.0827 121.611 25 122.037 25C122.544 25 122.976 25.1173 123.333 25.352C123.696 25.5813 123.963 25.8773 124.133 26.24L123.693 26.512C123.571 26.2613 123.416 26.064 123.229 25.92C123.043 25.7707 122.843 25.664 122.629 25.6C122.421 25.536 122.213 25.504 122.005 25.504C121.664 25.504 121.363 25.5733 121.101 25.712C120.84 25.8453 120.619 26.0267 120.437 26.256C120.261 26.48 120.128 26.7333 120.037 27.016C119.947 27.2933 119.901 27.576 119.901 27.864C119.901 28.1787 119.955 28.48 120.061 28.768C120.168 29.056 120.317 29.312 120.509 29.536C120.701 29.7547 120.925 29.9307 121.181 30.064C121.443 30.192 121.725 30.256 122.029 30.256C122.243 30.256 122.461 30.2187 122.685 30.144C122.909 30.0693 123.117 29.9547 123.309 29.8C123.507 29.6453 123.664 29.4453 123.781 29.2L124.245 29.44C124.128 29.7227 123.947 29.9627 123.701 30.16C123.456 30.3573 123.181 30.5067 122.877 30.608C122.579 30.7093 122.285 30.76 121.997 30.76C121.608 30.76 121.251 30.6773 120.925 30.512C120.6 30.3413 120.317 30.1173 120.077 29.84C119.843 29.5573 119.661 29.2427 119.533 28.896C119.405 28.544 119.341 28.1893 119.341 27.832Z" fill="var(--color-4)"/>
    </symbol>



</svg>