<svg width="40" height="40" viewBox="0 0 40 40" fill="none" xmlns="http://www.w3.org/2000/svg">
	<g id="accepted-call">
		<path id="Fill-1" d="M24.8365 6.97988C23.8844 6.80401 23.01 7.41159 22.8288 8.34095C22.6475 9.27031 23.257 10.1777 24.1832 10.3596C26.9717 10.9032 29.1249 13.0617 29.6706 15.8598C29.826 16.6652 30.5351 17.2528 31.3517 17.2528C31.4613 17.2528 31.5708 17.2428 31.6824 17.2229C32.6085 17.037 33.218 16.1316 33.0368 15.2002C32.2221 11.0211 29.0054 7.79333 24.8365 6.97988Z" fill="#005893" />
		<path id="Fill-3"
			d="M24.7122 0.0158595C24.266 -0.0480965 23.8179 0.0838129 23.4613 0.367618C23.0948 0.65542 22.8658 1.07113 22.816 1.53682C22.7104 2.47817 23.3896 3.32958 24.3298 3.43551C30.8131 4.15901 35.8523 9.20955 36.5813 15.7131C36.6789 16.5845 37.4099 17.242 38.2823 17.242C38.3481 17.242 38.4118 17.238 38.4775 17.23C38.9337 17.1801 39.34 16.9542 39.6268 16.5945C39.9116 16.2347 40.0411 15.787 39.9893 15.3293C39.0811 7.21492 32.8009 0.917241 24.7122 0.0158595Z"
			fill="#005893" />
		<path id="Stroke-1" fill-rule="evenodd" clip-rule="evenodd" d="M18.0635 21.9448C26.0416 29.9207 27.8515 20.6934 32.9313 25.7696C37.8286 30.6655 40.6432 31.6464 34.4385 37.8494C33.6613 38.474 28.7232 45.9885 11.3692 28.6393C-5.98696 11.288 1.52317 6.34489 2.14794 5.5679C8.36773 -0.652308 9.33173 2.17877 14.229 7.07466C19.3087 12.153 10.0853 13.9688 18.0635 21.9448Z" fill="#005893" />
	</g>
</svg>
