<svg width="38" height="40" viewBox="0 0 38 40" fill="none" xmlns="http://www.w3.org/2000/svg">
<path id="bag-2" d="M19.0195 0C23.8573 0 27.7782 4 27.8368 8.94H28.2464C33.6304 8.94 38 13.44 38 18.96V30C38 35.52 33.6304 40 28.2464 40H9.75359C4.36961 40 0 35.52 0 30V18.96C0 13.44 4.36961 8.94 9.75359 8.94H10.1632C10.2023 6.54 11.1191 4.3 12.7772 2.62C14.4548 0.92 16.6006 0.06 19.0195 0ZM26.4127 11.32C25.6129 11.32 24.9497 12 24.9497 12.82V15.14C24.9497 15.96 25.6129 16.64 26.4127 16.64C27.232 16.64 27.8758 15.96 27.8758 15.14V12.82C27.8758 12 27.232 11.32 26.4127 11.32ZM11.4117 11.32C10.6119 11.32 9.94867 12 9.94867 12.82V15.14C9.94867 15.96 10.6119 16.64 11.4117 16.64C12.231 16.64 12.8747 15.96 12.8747 15.14V12.82C12.8747 12 12.231 11.32 11.4117 11.32ZM19.0195 3C17.5175 3 15.9569 3.62 14.8255 4.76C13.7331 5.88 13.1283 7.36 13.0893 8.94H24.9107C24.8522 5.66 22.2382 3 19.0195 3Z" fill="#005893"/>
</svg>
