<svg width="40" height="41" viewBox="0 0 40 41" fill="none" xmlns="http://www.w3.org/2000/svg">
<path id="banned-phone" fill-rule="evenodd" clip-rule="evenodd" d="M37.54 0C37.9959 0 38.432 0.205312 38.7492 0.530558C39.4034 1.22171 39.4034 2.29908 38.7492 2.99023V3.01056L19.9168 22.3017L18.994 23.246L20.1803 22.0365C26.7406 27.424 28.591 19.7183 33.2379 24.4405C38.032 29.3343 40.7886 30.3217 34.7097 36.5249C34.6349 36.59 34.5175 36.7257 34.3491 36.8987L34.2292 37.0192C32.6343 38.585 27.3733 42.2302 13.611 28.7666L2.88834 39.7634C2.55134 40.0886 2.13504 40.2716 1.69893 40.2716C1.26281 40.2716 0.846511 40.0886 0.489686 39.7634C-0.0653741 39.1739 -0.144669 38.2998 0.23198 37.6493L0.29145 37.568C0.331098 37.505 0.370745 37.446 0.430216 37.385L36.3506 0.530558C36.6479 0.205312 37.084 0 37.54 0ZM14.4186 5.54484C18.4806 9.68745 13.2148 11.6622 15.3727 16.5775L8.37002 23.6822C-3.64671 10.0667 1.1758 5.3682 2.32635 4.23139L2.41438 4.14368C2.45357 4.10394 2.48517 4.07029 2.50763 4.04233C8.64505 -2.18231 9.59708 0.650974 14.4186 5.54484Z" fill="#005893"/>
</svg>
