<svg width="41" height="39" viewBox="0 0 41 39" fill="none" xmlns="http://www.w3.org/2000/svg">
<path id="big-star" d="M32.1255 23.64C31.6071 24.142 31.369 24.868 31.4871 25.58L33.2663 35.42C33.4164 36.254 33.0642 37.098 32.3657 37.58C31.6812 38.08 30.7705 38.14 30.024 37.74L21.1597 33.12C20.8515 32.956 20.5092 32.868 20.159 32.858H19.6166C19.4284 32.886 19.2443 32.946 19.0762 33.038L10.2099 37.68C9.77155 37.9 9.2752 37.978 8.78885 37.9C7.604 37.676 6.81344 36.548 7.00758 35.358L8.78885 25.518C8.90694 24.8 8.66876 24.07 8.15039 23.56L0.923236 16.56C0.318805 15.974 0.108655 15.094 0.384852 14.3C0.653043 13.508 1.33753 12.93 2.16412 12.8L12.1112 11.358C12.8678 11.28 13.5322 10.82 13.8725 10.14L18.2556 1.16C18.3597 0.96 18.4938 0.776 18.6559 0.62L18.836 0.48C18.9301 0.376 19.0382 0.29 19.1583 0.22L19.3764 0.14L19.7167 0H20.5593C21.3118 0.078 21.9743 0.528 22.3205 1.2L26.7617 10.14C27.0819 10.794 27.7044 11.248 28.4229 11.358L38.37 12.8C39.2106 12.92 39.9131 13.5 40.1913 14.3C40.4535 15.102 40.2273 15.982 39.6109 16.56L32.1255 23.64Z" fill="white"/>
</svg>
