<svg width="32" height="41" viewBox="0 0 32 41" fill="none" xmlns="http://www.w3.org/2000/svg">
<path id="bookmark" d="M22.14 0C27.56 0 31.94 2.14 32 7.58V37.94C32 38.28 31.92 38.62 31.76 38.92C31.5 39.4 31.06 39.76 30.52 39.92C30 40.08 29.42 40 28.94 39.72L15.98 33.24L3 39.72C2.702 39.878 2.36 39.98 2.02 39.98C0.9 39.98 0 39.06 0 37.94V7.58C0 2.14 4.4 0 9.8 0H22.14ZM23.5 12.08H8.44C7.58 12.08 6.88 12.78 6.88 13.66C6.88 14.538 7.58 15.24 8.44 15.24H23.5C24.36 15.24 25.06 14.538 25.06 13.66C25.06 12.78 24.36 12.08 23.5 12.08Z" fill="#005893"/>
</svg>
