<svg width="22" height="36" viewBox="0 0 22 36" fill="none" xmlns="http://www.w3.org/2000/svg">
<path id="bottom-arrow" d="M21.8202 18.2829C21.5677 17.815 21.0876 17.5232 20.5655 17.5232H12.4346V1.46859C12.4346 0.657928 11.7919 0 11.0001 0C10.2082 0 9.56553 0.657928 9.56553 1.46859V17.5232H1.43463C0.910548 17.5232 0.43046 17.815 0.179896 18.2829C-0.0744932 18.7509 -0.0572789 19.3227 0.220063 19.775L9.78549 35.3147C10.0494 35.7415 10.5066 36 11.0001 36C11.4935 36 11.9507 35.7415 12.2146 35.3147L21.78 19.775C21.9254 19.5361 22 19.264 22 18.9918C22 18.749 21.9388 18.5042 21.8202 18.2829Z" fill="#005893"/>
</svg>
