<svg width="40" height="40" viewBox="0 0 40 40" fill="none" xmlns="http://www.w3.org/2000/svg">
<path id="brush" d="M14.5602 27.6483L24.2693 27.678C24.8748 27.6801 25.3648 28.1871 25.3648 28.8086V34.2707C25.3648 34.8943 25.0107 35.4585 24.4588 35.7194L15.6454 39.8579C15.4395 39.9533 15.2212 40 15.0029 40C14.7126 40 14.4222 39.9152 14.169 39.7476C13.7262 39.4549 13.4585 38.95 13.4585 38.4091V28.7789C13.4585 28.1531 13.9527 27.6462 14.5602 27.6483ZM35.7436 0C38.0952 0 40 1.96211 40 4.38451V7.44751C40 8.62265 39.5408 9.75113 38.7254 10.5742L25.7153 23.734C25.4909 23.9631 25.1861 24.0904 24.871 24.0883L13.9779 24.0543C13.6463 24.0543 13.3313 23.9122 13.1048 23.664L1.14903 10.5148C0.409781 9.70234 0 8.62902 0 7.51539V4.38663C0 1.96423 1.90476 0 4.25637 0H35.7436Z" fill="#005893"/>
</svg>
