<svg width="36" height="40" viewBox="0 0 36 40" fill="none" xmlns="http://www.w3.org/2000/svg">
<path id="calendar" d="M25.2993 4.51049e-06C26.1484 -0.00198996 26.8198 0.65768 26.8218 1.53724L26.8238 3.03649C32.333 3.46827 35.9723 7.22239 35.9783 12.9795L36 29.8311C36.0079 36.1079 32.0645 39.97 25.7436 39.98L10.3038 40C4.0224 40.008 0.0296464 36.054 0.0217478 29.7591L1.32548e-05 13.1054C-0.00787207 7.31035 3.50307 3.56622 9.01236 3.06048L9.01038 1.56123C9.00841 0.681668 9.66004 0.019999 10.5289 0.019999C11.3977 0.018 12.0494 0.67767 12.0514 1.55723L12.0533 2.95653L23.7828 2.94054L23.7808 1.54124C23.7788 0.661678 24.4305 0.00200804 25.2993 4.51049e-06ZM26.105 28.3838H26.0852C25.1769 28.4058 24.4482 29.1674 24.468 30.0869C24.47 31.0065 25.2026 31.7641 26.1109 31.7841C27.037 31.7821 27.7874 31.0205 27.7854 30.0809C27.7854 29.1414 27.0331 28.3838 26.105 28.3838ZM9.83381 28.3858C8.92547 28.4258 8.21459 29.1874 8.21657 30.1069C8.25804 31.0265 9.00841 31.7461 9.91675 31.7041C10.8073 31.6642 11.5162 30.9025 11.4748 29.983C11.455 29.0834 10.7224 28.3838 9.83381 28.3858ZM17.9694 28.3758C17.0611 28.4178 16.3522 29.1774 16.3522 30.0969C16.3936 31.0165 17.144 31.7341 18.0523 31.6941C18.9409 31.6522 19.6518 30.8925 19.6103 29.971C19.5906 29.0734 18.858 28.3738 17.9694 28.3758ZM9.82394 21.1894C8.9156 21.2294 8.2067 21.991 8.20867 22.9105C8.24816 23.8301 9.00051 24.5497 9.90885 24.5077C10.7974 24.4678 11.5063 23.7061 11.4649 22.7866C11.4451 21.887 10.7145 21.1874 9.82394 21.1894ZM17.9615 21.1194C17.0532 21.1594 16.3423 21.921 16.3442 22.8406C16.3837 23.7601 17.1361 24.4777 18.0444 24.4378C18.933 24.3958 19.6419 23.6362 19.6024 22.7166C19.5807 21.8171 18.8501 21.1174 17.9615 21.1194ZM26.0971 21.1294C25.1887 21.1494 24.4779 21.889 24.4798 22.8086V22.8306C24.4996 23.7501 25.25 24.4478 26.1603 24.4278C27.0489 24.4058 27.7578 23.6442 27.738 22.7246C27.6965 21.8451 26.9837 21.1274 26.0971 21.1294ZM23.7867 6.01899L12.0573 6.03499L12.0592 7.65218C12.0592 8.51375 11.4096 9.19341 10.5407 9.19341C9.67189 9.1954 9.01828 8.51774 9.01828 7.65617L9.0163 6.11695C5.16573 6.50275 3.03507 8.76562 3.04098 13.1014L3.04297 13.7231L32.9393 13.6832V12.9835C32.8543 8.68566 30.698 6.43079 26.8277 6.09496L26.8297 7.63419C26.8297 8.49376 26.1603 9.17541 25.3112 9.17541C24.4423 9.17741 23.7887 8.49775 23.7887 7.63818L23.7867 6.01899Z" fill="#005893"/>
</svg>
