<svg width="40" height="40" viewBox="0 0 40 40" fill="none" xmlns="http://www.w3.org/2000/svg">
<path id="controller" d="M12.7184 0C13.5427 0 14.1904 0.655106 14.1904 1.44509C14.1904 2.02312 14.6811 2.48555 15.2699 2.48555H17.213C20.1766 2.50482 22.5908 4.87476 22.6104 7.76493V8.13102C24.475 8.13102 26.3395 8.16956 28.2237 8.18882C35.0343 8.18882 40 13.0443 40 19.7495V28.3622C40 35.0674 35.0343 39.9229 28.2237 39.9229C25.4956 39.9807 22.7674 40 20.0196 40C17.2718 40 14.5044 39.9807 11.7763 39.9229C4.96565 39.9229 0 35.0674 0 28.3622V19.7495C0 13.0443 4.96565 8.18882 11.7959 8.18882C14.367 8.15029 16.9971 8.11175 19.6663 8.11175V7.7842C19.6663 6.45472 18.5476 5.37572 17.213 5.37572H15.2699C13.052 5.37572 11.2463 3.60308 11.2463 1.44509C11.2463 0.655106 11.9136 0 12.7184 0ZM14.1708 19.1329C13.3464 19.1329 12.6987 19.7881 12.6987 20.578V22.6012H10.6183C9.81354 22.6012 9.14622 23.2563 9.14622 24.0462C9.14622 24.8555 9.81354 25.4913 10.6183 25.4913H12.6987V27.5337C12.6987 28.3237 13.3464 28.9788 14.1708 28.9788C14.9755 28.9788 15.6428 28.3237 15.6428 27.5337V25.4913H17.7036C18.5083 25.4913 19.1757 24.8555 19.1757 24.0462C19.1757 23.2563 18.5083 22.6012 17.7036 22.6012H15.6428V20.578C15.6428 19.7881 14.9755 19.1329 14.1708 19.1329ZM29.5976 25.973H29.4014C28.5751 25.973 27.9293 26.6281 27.9293 27.4181C27.9293 28.2274 28.5751 28.8632 29.4014 28.8632H29.5976C30.4024 28.8632 31.0697 28.2274 31.0697 27.4181C31.0697 26.6281 30.4024 25.973 29.5976 25.973ZM26.2414 19.3449H26.0451C25.2208 19.3449 24.5731 20 24.5731 20.79C24.5731 21.5992 25.2208 22.2351 26.0451 22.2351H26.2414C27.0461 22.2351 27.7134 21.5992 27.7134 20.79C27.7134 20 27.0461 19.3449 26.2414 19.3449Z" fill="#005893"/>
</svg>
