<svg width="40" height="40" viewBox="0 0 40 40" fill="none" xmlns="http://www.w3.org/2000/svg">
<g id="declined-call">
<path id="Fill-4" d="M34.6745 7.83545L39.4815 3.01036C39.8167 2.67396 40.0004 2.22813 40.0004 1.75596C40.0004 1.28379 39.8167 0.837956 39.4815 0.501558C38.8133 -0.167186 37.6524 -0.167186 36.9841 0.501558L32.1771 5.32867L27.368 0.501558C26.6997 -0.167186 25.5389 -0.167186 24.8706 0.501558C24.5375 0.837956 24.3538 1.28379 24.3538 1.75596C24.3538 2.22813 24.5375 2.67396 24.8706 3.01036L29.6777 7.83545L24.8706 12.6605C24.5375 12.9969 24.3538 13.4428 24.3538 13.9149C24.3538 14.3871 24.5375 14.8329 24.8706 15.1693C25.5389 15.8381 26.6997 15.8381 27.368 15.1693L32.1771 10.3422L36.9841 15.1693C37.3193 15.5037 37.7614 15.6881 38.2339 15.6881C38.7063 15.6881 39.1484 15.5037 39.4815 15.1693C39.8167 14.8329 40.0004 14.3871 40.0004 13.9149C40.0004 13.4428 39.8167 12.9969 39.4815 12.6605L34.6745 7.83545Z" fill="#005893"/>
<path id="Stroke-1" fill-rule="evenodd" clip-rule="evenodd" d="M18.0635 21.9448C26.0416 29.9207 27.8516 20.6934 32.9313 25.7696C37.8286 30.6655 40.6432 31.6464 34.4385 37.8494C33.6613 38.474 28.7232 45.9885 11.3692 28.6393C-5.98696 11.288 1.52317 6.34489 2.14794 5.5679C8.36773 -0.652308 9.33173 2.17877 14.229 7.07466C19.3087 12.153 10.0853 13.9688 18.0635 21.9448Z" fill="#005893"/>
</g>
</svg>
