<svg width="40" height="40" viewBox="0 0 40 40" fill="none" xmlns="http://www.w3.org/2000/svg">
	<g id="Iconly/Bold/Discount">
		<g id="discount">
			<path id="Vector"
				d="M15.7307 1.77076C18.0716 -0.587244 21.893 -0.587243 24.2538 1.75276L25.7144 3.21076C26.2746 3.77076 27.0348 4.09276 27.8351 4.09276H29.8959C33.2171 4.09276 35.9181 6.79076 35.9181 10.1108V12.1728C35.9181 12.9708 36.2382 13.7308 36.7984 14.2908L38.2389 15.7308C39.3793 16.8508 39.9995 18.3708 39.9995 19.9708C40.0195 21.5708 39.3993 23.0928 38.2789 24.2308L36.7984 25.7108C36.2382 26.2708 35.9181 27.0308 35.9181 27.8328V29.8908C35.9181 33.2108 33.2171 35.9128 29.8959 35.9128H27.8351C27.0348 35.9128 26.2746 36.2308 25.7144 36.7908L24.2738 38.2308C23.0934 39.4128 21.5528 39.9908 20.0123 39.9908C18.4717 39.9908 16.9312 39.4128 15.7507 38.2528L14.2902 36.7908C13.73 36.2308 12.9697 35.9128 12.1694 35.9128H10.1087C6.78749 35.9128 4.08651 33.2108 4.08651 29.8908V27.8328C4.08651 27.0308 3.7664 26.2708 3.20619 25.6908L1.76567 24.2708C-0.575176 21.9328 -0.595184 18.1108 1.74566 15.7528L3.20619 14.2908C3.7664 13.7308 4.08651 12.9708 4.08651 12.1508V10.1108C4.08651 6.79076 6.78749 4.09276 10.1087 4.09276H12.1694C12.9697 4.09276 13.73 3.77076 14.2902 3.21076L15.7307 1.77076ZM25.1542 23.3908C24.1738 23.3908 23.3935 24.1728 23.3935 25.1308C23.3935 26.1108 24.1738 26.8908 25.1542 26.8908C26.1145 26.8908 26.8948 26.1108 26.8948 25.1308C26.8948 24.1728 26.1145 23.3908 25.1542 23.3908ZM26.3746 13.6108C25.6943 12.9328 24.5939 12.9328 23.9137 13.6108L13.63 23.8908C12.9497 24.5708 12.9497 25.6908 13.63 26.3708C13.9501 26.7108 14.3902 26.8908 14.8504 26.8908C15.3306 26.8908 15.7707 26.7108 16.0909 26.3708L26.3746 16.0928C27.0548 15.4128 27.0548 14.2908 26.3746 13.6108ZM14.8704 13.1108C13.9101 13.1108 13.1098 13.8908 13.1098 14.8508C13.1098 15.8328 13.9101 16.6108 14.8704 16.6108C15.8308 16.6108 16.6111 15.8328 16.6111 14.8508C16.6111 13.8908 15.8308 13.1108 14.8704 13.1108Z"
				fill="#0BBBEF" />
		</g>
	</g>
</svg>