<svg width="24" height="36" viewBox="0 0 24 36" fill="none" xmlns="http://www.w3.org/2000/svg">
<path id="divided-bottom-arrow" d="M11.9868 15.6701C14.9301 15.6701 17.6134 15.8424 19.3626 16.1021C19.367 16.1061 19.4106 16.1161 19.4842 16.1312L19.9855 16.2316C20.6254 16.3616 21.5867 16.5729 22.0173 16.7959C23.2422 17.4308 24 18.6722 24 20.0009V20.1166C23.9714 20.9827 23.2113 22.8023 23.1849 22.8023C21.9005 25.8634 17.9064 31.8982 15.2517 34.3244L15.1608 34.4141C14.9609 34.6097 14.4743 35.0754 14.1436 35.3062C13.5311 35.7687 12.7733 36 12.0154 36C11.1695 36 10.383 35.7404 9.73967 35.2495C9.62291 35.1338 9.12943 34.7018 8.71966 34.296C6.15311 31.9288 1.95631 25.7478 0.671929 22.5143C0.467046 22.0234 0.0308427 20.782 0 20.1166C0 19.4817 0.147604 18.8751 0.438406 18.2969C0.84597 17.5748 1.48926 16.9988 2.24711 16.6802C2.77143 16.4773 4.34661 16.1588 4.37525 16.1588C6.09583 15.8424 8.8937 15.6701 11.9868 15.6701ZM12.0009 0C13.6774 0 15.0367 1.34617 15.0367 3.00651L14.3824 10.405C14.3824 11.7075 13.3161 12.7635 12.0009 12.7635C10.6835 12.7635 9.61939 11.7075 9.61939 10.405L8.96508 3.00651C8.96508 1.34617 10.3244 0 12.0009 0Z" fill="#005893"/>
</svg>
