<svg width="24" height="36" viewBox="0 0 24 36" fill="none" xmlns="http://www.w3.org/2000/svg">
<path id="divided-up-arrow" d="M12.7214 20.3269L12.0132 20.3299C9.06995 20.3299 6.38663 20.1576 4.63741 19.8979L3.54966 19.6705C2.97356 19.5439 2.31761 19.3776 1.98274 19.2041C0.757848 18.5692 0 17.3278 0 15.9991V15.8834C0.0286396 15.0173 0.788691 13.1977 0.815128 13.1977C2.04366 10.2697 5.75144 4.62092 8.39478 2.01199L9.18837 1.25386C9.40346 1.05533 9.65801 0.832281 9.85643 0.69381C10.4689 0.23127 11.2267 0 11.9846 0C12.8305 0 13.617 0.259633 14.2603 0.750536L15.1009 1.52946L15.2803 1.70398C17.8469 4.07122 22.0437 10.2522 23.3281 13.4857L23.5152 13.9738C23.7257 14.5613 23.9769 15.3844 24 15.8834C24 16.5183 23.8524 17.1249 23.5616 17.7031C23.154 18.4252 22.5107 19.0012 21.7529 19.3198C21.2286 19.5227 19.6534 19.8412 19.6247 19.8412C18.0365 20.1332 15.5304 20.3026 12.7214 20.3269ZM11.9991 36C10.3226 36 8.96332 34.6538 8.96332 32.9935L9.61762 25.595C9.61762 24.2925 10.6839 23.2365 11.9991 23.2365C13.3165 23.2365 14.3806 24.2925 14.3806 25.595L15.0349 32.9935C15.0349 34.6538 13.6756 36 11.9991 36Z" fill="#005893"/>
</svg>
