<svg width="34" height="40" viewBox="0 0 34 40" fill="none" xmlns="http://www.w3.org/2000/svg">
<path id="download-doc" d="M19.5049 0C20 0 20.4158 0.42 20.4158 0.92V7.36C20.4158 11.02 23.3861 14.02 27.0297 14.04C28.5149 14.04 29.7228 14.06 30.6139 14.06L30.9512 14.0585C31.56 14.0539 32.3795 14.04 33.0891 14.04C33.604 14.04 34 14.44 34 14.94V31.02C34 35.98 30 40 25.0891 40H9.34653C4.17822 40 0 35.78 0 30.58V9.02C0 4.06 3.9802 0 8.93069 0H19.5049ZM16.2772 13.48C15.4653 13.48 14.7921 14.14 14.7921 14.98V24.62L11.6436 21.42C11.0693 20.84 10.1386 20.84 9.56436 21.42C8.9901 22 8.9901 22.94 9.56436 23.54L15.2277 29.28C15.3663 29.42 15.5248 29.52 15.703 29.6C15.8812 29.68 16.0792 29.72 16.2772 29.72C16.4752 29.72 16.6535 29.68 16.8317 29.6C17.0099 29.52 17.1683 29.42 17.3069 29.28L22.9901 23.54C23.5644 22.94 23.5644 22 22.9703 21.42C22.396 20.84 21.4653 20.84 20.8911 21.42L17.7426 24.62V14.98C17.7426 14.14 17.0891 13.48 16.2772 13.48ZM23.2901 1.8122C23.2901 0.9502 24.3257 0.5222 24.9158 1.1442C27.0584 3.3922 30.799 7.3222 32.8901 9.5182C33.4683 10.1242 33.0446 11.1302 32.2089 11.1322C30.5832 11.1382 28.6644 11.1322 27.2842 11.1182C25.0941 11.1182 23.2901 9.2962 23.2901 7.0842V1.8122Z" fill="#005893"/>
</svg>
