<svg width="40" height="38" viewBox="0 0 40 38" fill="none" xmlns="http://www.w3.org/2000/svg">
<path id="download" d="M18.4602 9.58104V1.56301C18.4602 0.710459 19.1402 0 20.0002 0C20.7702 0 21.4226 0.596983 21.5259 1.35316L21.5402 1.56301V9.58104L31.1 9.58165C35.86 9.58165 39.7707 13.4796 39.9903 18.3408L40 18.7722V28.8508C40 33.7461 36.2253 37.7644 31.5361 37.99L31.12 38H8.88C4.12 38 0.22818 34.1216 0.00967557 29.2425L0 28.8095V18.7515C0 13.8562 3.75582 9.81843 8.44399 9.59169L8.86 9.58165L18.4602 9.58104L18.46 22.3864L15.26 19.082C14.66 18.4624 13.68 18.4624 13.08 19.082C12.78 19.3918 12.64 19.8048 12.64 20.2179C12.64 20.5318 12.7296 20.8589 12.919 21.1359L13.08 21.3331L18.9 27.3638C19.18 27.6736 19.58 27.8388 20 27.8388C20.3333 27.8388 20.6667 27.724 20.9306 27.5065L21.08 27.3638L26.9 21.3331C27.5 20.7135 27.5 19.7016 26.9 19.082C26.3545 18.5187 25.495 18.4675 24.8925 18.9284L24.72 19.082L21.54 22.3864L21.5402 9.58104H18.4602Z" fill="#005893"/>
</svg>
