<svg width="40" height="40" viewBox="0 0 40 40" fill="none" xmlns="http://www.w3.org/2000/svg">
<path id="exclamation-mark" d="M20 0C31.06 0 40 8.962 40 20C40 31.042 31.06 40 20 40C8.96 40 0 31.042 0 20C0 8.962 8.96 0 20 0ZM20 25.862C19.04 25.862 18.26 26.642 18.26 27.602C18.26 28.562 19.04 29.362 20.02 29.362C20.98 29.362 21.76 28.562 21.76 27.602C21.76 26.642 20.98 25.862 20 25.862ZM20 10.66C19.04 10.66 18.24 11.462 18.24 12.42V21.26C18.24 22.222 19.04 23 20 23C20.96 23 21.74 22.222 21.74 21.26V12.42C21.74 11.462 20.96 10.66 20 10.66Z" fill="#005893"/>
</svg>
