<svg width="42" height="40" viewBox="0 0 42 40" fill="none" xmlns="http://www.w3.org/2000/svg">
<path id="exit" d="M18.9855 0C23.9506 0 28 3.98 28 8.88V18.46H15.7907C14.9157 18.46 14.2238 19.14 14.2238 20C14.2238 20.84 14.9157 21.54 15.7907 21.54H28V31.1C28 36 23.9506 40 18.9448 40H9.03488C4.04942 40 0 36.02 0 31.12V8.9C0 3.98 4.06977 0 9.05523 0H18.9855ZM33.0804 13.1004C33.6804 12.4804 34.6604 12.4804 35.2604 13.0804L41.1004 18.9004C41.4004 19.2004 41.5604 19.5804 41.5604 20.0004C41.5604 20.4004 41.4004 20.8004 41.1004 21.0804L35.2604 26.9004C34.9604 27.2004 34.5604 27.3604 34.1804 27.3604C33.7804 27.3604 33.3804 27.2004 33.0804 26.9004C32.4804 26.3004 32.4804 25.3204 33.0804 24.7204L36.2804 21.5404L28 21.54V18.46L36.2804 18.4604L33.0804 15.2804C32.4804 14.6804 32.4804 13.7004 33.0804 13.1004Z" fill="#005893"/>
</svg>
