<svg width="40" height="40" viewBox="0 0 40 40" fill="none" xmlns="http://www.w3.org/2000/svg">
<path id="folder" d="M14.1 0.000329891C15.962 -0.0193288 17.7 0.840671 18.84 2.30067L20.6 4.64067C21.16 5.34067 22 5.76067 22.9 5.76067H29.04C36.42 5.76067 40.02 9.70067 40.0001 17.7807V27.5207C40.0001 35.2407 35.24 40.0007 27.5 40.0007H12.48C4.78 40.0007 0 35.2407 0 27.5007V12.4807C0 4.20067 3.68 0.000329891 10.94 0.000329891H14.1ZM29.26 23.5807H10.74C9.9 23.5807 9.24 24.2407 9.24 25.0807C9.24 25.9007 9.9 26.5807 10.74 26.5807H29.26C30.08 26.5807 30.74 25.9007 30.74 25.0807C30.74 24.2407 30.08 23.5807 29.26 23.5807Z" fill="#005893"/>
</svg>
