<svg width="40" height="38" viewBox="0 0 40 38" fill="none" xmlns="http://www.w3.org/2000/svg">
<path id="heart" d="M12.56 0.000309329C13.82 0.0386287 15.04 0.258629 16.222 0.660629H16.34C16.42 0.698629 16.48 0.740629 16.52 0.778629C16.962 0.920629 17.38 1.08063 17.78 1.30063L18.54 1.64063C18.84 1.80063 19.2 2.09863 19.4 2.22063C19.6 2.33863 19.82 2.46063 20 2.59863C22.222 0.900629 24.92 -0.0193713 27.7 0.000309329C28.962 0.000309329 30.222 0.178629 31.42 0.580629C38.802 2.98063 41.462 11.0806 39.24 18.1606C37.98 21.7786 35.92 25.0806 33.222 27.7786C29.36 31.5186 25.122 34.8386 20.56 37.6986L20.06 38.0006L19.54 37.6786C14.962 34.8386 10.7 31.5186 6.80203 27.7586C4.12203 25.0606 2.06003 21.7786 0.780033 18.1606C-1.47997 11.0806 1.18003 2.98063 8.64203 0.538629C9.22203 0.338629 9.82003 0.198629 10.42 0.120629H10.66C11.222 0.0386287 11.78 0.000309329 12.34 0.000309329H12.56ZM30.38 6.32063C29.56 6.03863 28.66 6.48063 28.36 7.32063C28.08 8.16063 28.52 9.08063 29.36 9.37863C30.642 9.85863 31.5 11.1206 31.5 12.5186V12.5806C31.462 13.0386 31.6 13.4806 31.88 13.8206C32.16 14.1606 32.58 14.3586 33.02 14.4006C33.84 14.3786 34.54 13.7206 34.6 12.8786V12.6406C34.66 9.83863 32.962 7.30063 30.38 6.32063Z" fill="#005893"/>
</svg>
