<svg width="36" height="22" viewBox="0 0 36 22" fill="none" xmlns="http://www.w3.org/2000/svg">
<path id="left-arrow" d="M17.7171 21.8202C18.185 21.5677 18.4768 21.0876 18.4768 20.5655V12.4346H34.5314C35.3421 12.4346 36 11.7919 36 11.0001C36 10.2082 35.3421 9.56553 34.5314 9.56553H18.4768V1.43463C18.4768 0.910548 18.185 0.43046 17.7171 0.179896C17.2491 -0.0744932 16.6773 -0.0572789 16.225 0.220063L0.685341 9.78549C0.258472 10.0494 0 10.5066 0 11.0001C0 11.4935 0.258472 11.9507 0.685341 12.2146L16.225 21.78C16.4639 21.9254 16.736 22 17.0082 22C17.251 22 17.4958 21.9388 17.7171 21.8202Z" fill="#005893"/>
</svg>
