<svg width="34" height="40" viewBox="0 0 34 40" fill="none" xmlns="http://www.w3.org/2000/svg">
<path id="lock-opened" d="M16.9573 0C21.6925 0 25.877 2.92416 27.4215 7.25574C27.5841 7.69307 27.5435 8.17016 27.3402 8.58762C27.137 9.00507 26.7732 9.32313 26.3241 9.46427C25.4096 9.78034 24.3934 9.30524 24.0479 8.39082C23.0115 5.44677 20.1683 3.47878 16.998 3.47878C12.8501 3.47878 9.49886 6.74088 9.47651 10.7345V13.4181L9.45212 13.4221H25.4624C30.1773 13.4221 34 17.1613 34 21.7732V31.6489C34 36.2608 30.1773 40 25.4624 40H8.53556C3.82271 40 0 36.2608 0 31.6489V21.7732C0 17.9803 2.60131 14.8136 6.14154 13.7958L5.92002 13.8217V10.7743C5.96067 4.83252 10.9011 0 16.9573 0ZM16.9898 22.7651C16.0143 22.7651 15.2218 23.5404 15.2218 24.4946V28.9077C15.2218 29.8817 16.0143 30.657 16.9898 30.657C17.9857 30.657 18.7782 29.8817 18.7782 28.9077V24.4946C18.7782 23.5404 17.9857 22.7651 16.9898 22.7651Z" fill="#005893"/>
</svg>
