<svg width="36" height="36" viewBox="0 0 36 36" fill="none" xmlns="http://www.w3.org/2000/svg">
<path id="low-volume" d="M19.5381 1.90196e-05C21.6273 1.90196e-05 23.5757 1.50308 24.2791 3.91224C24.5374 4.91927 24.6424 5.92846 24.7431 6.90114L24.8376 7.78579C25.1988 10.7382 25.1988 25.2425 24.8376 28.2164L24.7431 29.1333C24.6529 30.0587 24.5605 31.0163 24.2938 32.0384C23.5904 34.4411 21.7154 36 19.5864 36C19.5192 36 19.452 36 19.3764 35.9979C18.2006 35.9979 16.9219 35.2764 16.1976 34.6473L9.13643 28.7661H5.51034C2.7115 28.7661 0.662241 26.7413 0.290603 23.6085C-0.137726 20.4757 -0.0537401 15.1013 0.290603 12.2541C0.695835 9.28883 2.84168 7.23396 5.51034 7.23396H9.13643L16.0632 1.43866C16.8988 0.712909 18.3728 -0.00425619 19.5381 1.90196e-05ZM30.2952 6.51679C31.133 5.93061 32.2794 6.14103 32.8526 6.98918C34.8809 9.97593 36 13.886 36 18C36 22.1141 34.8809 26.0241 32.8526 29.0109C32.5083 29.5155 31.9456 29.8182 31.343 29.8182C30.9671 29.8182 30.6039 29.7023 30.2952 29.4832C29.4638 28.8906 29.258 27.7182 29.8354 26.868C31.4417 24.5017 32.3256 21.3518 32.3256 18C32.3256 14.6461 31.4417 11.4983 29.8354 9.13208C29.258 8.28179 29.4638 7.10942 30.2952 6.51679Z" fill="#005893"/>
</svg>
