<svg width="34" height="40" viewBox="0 0 34 40" fill="none" xmlns="http://www.w3.org/2000/svg">
<path id="mic-2" d="M32.0626 15.6525C33.132 15.6525 34 16.5077 34 17.5657C34 26.1733 27.4011 33.2808 18.9384 34.2355V38.0868C18.9384 39.1429 18.0704 40 17.001 40C15.9296 40 15.0635 39.1429 15.0635 38.0868V34.2355C6.5989 33.2808 0 26.1733 0 17.5657C0 16.5077 0.86797 15.6525 1.93743 15.6525C3.0069 15.6525 3.87486 16.5077 3.87486 17.5657C3.87486 24.7116 9.76272 30.5258 17.001 30.5258C24.2373 30.5258 30.1251 24.7116 30.1251 17.5657C30.1251 16.5077 30.9931 15.6525 32.0626 15.6525ZM17.3495 0C22.1563 0 26.0544 3.84746 26.0544 8.59413V17.8407C26.0544 22.5854 22.1563 26.4348 17.3495 26.4348H16.6501C11.8433 26.4348 7.94715 22.5854 7.94715 17.8407V8.59413C7.94715 3.84746 11.8433 0 16.6501 0H17.3495Z" fill="#005893"/>
</svg>
