<svg width="34" height="40" viewBox="0 0 34 40" fill="none" xmlns="http://www.w3.org/2000/svg">
<path id="mic" d="M32.0626 15.6524C33.132 15.6524 34 16.5076 34 17.5656C34 26.1732 27.4011 33.2808 18.9384 34.2355V38.0868C18.9384 39.1429 18.0704 40 17.001 40C15.9296 40 15.0635 39.1429 15.0635 38.0868V34.2355C6.5989 33.2808 0 26.1732 0 17.5656C0 16.5076 0.86797 15.6524 1.93743 15.6524C3.0069 15.6524 3.87486 16.5076 3.87486 17.5656C3.87486 24.7115 9.76272 30.5258 17.001 30.5258C24.2373 30.5258 30.1251 24.7115 30.1251 17.5656C30.1251 16.5076 30.9931 15.6524 32.0626 15.6524ZM17.3495 0C21.3387 0 24.7001 2.64789 25.7289 6.26196C25.8703 6.75748 25.4964 7.24918 24.9772 7.24918H22.7123C22.0284 7.24918 21.4724 7.79636 21.4724 8.47172C21.4724 9.15091 22.0284 9.69809 22.7123 9.69809H24.8009C25.4925 9.69809 26.0544 10.251 26.0544 10.934C26.0544 11.6171 25.4925 12.17 24.8009 12.17H22.7123C22.0284 12.17 21.4724 12.7191 21.4724 13.3963C21.4724 14.0717 22.0284 14.6208 22.7123 14.6208H24.8009C25.4925 14.6208 26.0544 15.1737 26.0544 15.8587C26.0544 16.5398 25.4925 17.0927 24.8009 17.0927H22.7123C22.0284 17.0927 21.4724 17.6418 21.4724 18.319C21.4724 18.9944 22.0284 19.5416 22.7123 19.5416H24.8668C25.3976 19.5416 25.7773 20.0543 25.6107 20.5518C24.4618 23.9688 21.1992 26.433 17.3495 26.433H16.6501C11.8433 26.433 7.94715 22.5855 7.94715 17.8407V8.59417C7.94715 3.84748 11.8433 0 16.6501 0H17.3495Z" fill="#005893"/>
</svg>
