<svg width="34" height="40" viewBox="0 0 34 40" fill="none" xmlns="http://www.w3.org/2000/svg">
<path id="minus-paper" d="M19.5049 0C20 0 20.4158 0.42 20.4158 0.92V7.36C20.4158 11.02 23.4059 14.02 27.0297 14.04C28.5149 14.04 29.7228 14.06 30.6139 14.06C31.2277 14.06 32.2574 14.04 33.0891 14.04C33.604 14.04 34 14.44 34 14.94V31.02C34 35.98 30.0198 40 25.0891 40H9.34653C4.17822 40 0 35.78 0 30.58V9.02C0 4.06 4 0 8.93069 0H19.5049ZM14.1782 17.44C13.604 16.84 12.6733 16.84 12.099 17.44C11.5248 18.02 11.5248 18.96 12.099 19.54L14.5149 21.98L12.099 24.42C11.5248 25 11.5248 25.94 12.099 26.52C12.3762 26.82 12.7525 26.96 13.1287 26.96C13.505 26.96 13.901 26.82 14.1782 26.52L16.5941 24.08L19.0099 26.52C19.3069 26.82 19.6832 26.96 20.0594 26.96C20.4356 26.96 20.8119 26.82 21.1089 26.52C21.6832 25.94 21.6832 25 21.1089 24.42L18.6931 21.98L21.1089 19.54C21.6832 18.96 21.6832 18.02 21.1089 17.44C20.5347 16.84 19.5842 16.84 19.0099 17.44L16.5941 19.88L14.1782 17.44ZM23.2925 1.8124C23.2925 0.9504 24.3281 0.5224 24.9182 1.1444C27.0608 3.3924 30.8014 7.3224 32.8925 9.5184C33.4687 10.1244 33.0469 11.1304 32.2113 11.1324C30.5836 11.1384 28.6667 11.1324 27.2865 11.1184C25.0964 11.1184 23.2925 9.2964 23.2925 7.0844V1.8124Z" fill="#005893"/>
</svg>
