<svg width="38" height="38" viewBox="0 0 38 38" fill="none" xmlns="http://www.w3.org/2000/svg">
<path id="muted" d="M34.8403 0.541692C35.5601 -0.178091 36.7077 -0.182325 37.4551 0.539575C38.1813 1.26571 38.1813 2.43853 37.4572 3.16255L3.15974 37.458C2.81887 37.7989 2.32766 38 1.84916 38C1.38125 38 0.919686 37.8095 0.547049 37.4644C-0.181288 36.7086 -0.181287 35.5591 0.540697 34.8372L6.19377 29.1848H6.13661C3.31854 29.1848 1.26692 27.1948 0.88581 24.104C0.460241 21.0131 0.544932 15.7206 0.88581 12.905C1.28597 9.98354 3.44769 7.9745 6.13661 7.9745H9.79734L16.7843 2.25858C17.6333 1.5388 19.1366 0.859242 20.2989 0.840189C22.4162 0.840189 24.3641 2.31998 25.0628 4.69102C25.338 5.68813 25.446 6.68101 25.5307 7.63578L25.6979 8.98855C25.7255 9.19601 25.7509 9.39501 25.772 9.60671L34.8403 0.541692ZM24.9749 21.0563C25.7519 21.2532 25.9044 22.3689 25.8917 23.2453C25.8557 25.79 25.771 27.5598 25.6355 28.6543L25.5402 29.5561C25.4492 30.4685 25.356 31.4127 25.085 32.4204C24.38 34.7872 22.4892 36.3242 20.3402 36.3242C20.2704 36.3242 20.2005 36.3242 20.1285 36.3221C18.9407 36.3221 17.6534 35.6107 16.923 34.9905L14.3209 32.9772C13.3321 32.2426 13.6243 31.0698 14.179 30.3902C14.4312 30.0823 16.3745 28.2684 18.4465 26.3546L19.2785 25.5871C21.4956 23.5439 23.6221 21.6003 23.7617 21.4628C24.0475 21.1833 24.687 20.9822 24.9749 21.0563Z" fill="#005893"/>
</svg>
