<svg width="40" height="40" viewBox="0 0 40 40" fill="none" xmlns="http://www.w3.org/2000/svg">
<path id="plus" d="M29.32 0C36.12 0 40 3.84 40 10.66V29.34C40 36.12 36.14 40 29.34 40H10.66C3.84 40 0 36.12 0 29.34V10.66C0 3.84 3.84 0 10.66 0H29.32ZM19.98 11.02C19.06 11.02 18.32 11.76 18.32 12.68V18.32H12.66C12.22 18.32 11.8 18.5 11.48 18.8C11.18 19.12 11 19.538 11 19.98C11 20.9 11.74 21.64 12.66 21.66H18.32V27.32C18.32 28.24 19.06 28.98 19.98 28.98C20.9 28.98 21.64 28.24 21.64 27.32V21.66H27.32C28.24 21.64 28.98 20.9 28.98 19.98C28.98 19.06 28.24 18.32 27.32 18.32H21.64V12.68C21.64 11.76 20.9 11.02 19.98 11.02Z" fill="#005893"/>
</svg>
