<svg width="34" height="40" viewBox="0 0 34 40" fill="none" xmlns="http://www.w3.org/2000/svg">
<path id="plus-paper" d="M19.5049 0C20.0198 0 20.4158 0.42 20.4158 0.92V7.36C20.4158 11.02 23.4059 14.02 27.0297 14.04C28.5347 14.04 29.7228 14.06 30.6337 14.06C31.2475 14.06 32.2574 14.04 33.1089 14.04C33.604 14.04 34 14.44 34 14.94V31.02C34 35.98 30.0198 40 25.0891 40H9.34653C4.19802 40 0 35.78 0 30.58V9.02C0 4.06 4 0 8.93069 0H19.5049ZM16.6337 15.54C15.8218 15.54 15.1485 16.2 15.1485 17.02V20.48H11.7426C10.9307 20.48 10.2574 21.14 10.2574 21.98C10.2574 22.8 10.9307 23.46 11.7426 23.46H15.1485V26.92C15.1485 27.74 15.8218 28.4 16.6337 28.4C17.4455 28.4 18.099 27.74 18.099 26.92V23.46H21.5248C22.3366 23.46 23.0099 22.8 23.0099 21.98C23.0099 21.14 22.3366 20.48 21.5248 20.48H18.099V17.02C18.099 16.2 17.4455 15.54 16.6337 15.54ZM23.2992 1.8124C23.2992 0.9504 24.3349 0.5224 24.9269 1.1444C27.0675 3.3924 30.8081 7.3224 32.8992 9.5184C33.4774 10.1244 33.0537 11.1304 32.22 11.1324C30.5923 11.1384 28.6735 11.1324 27.2933 11.1184C25.1032 11.1184 23.2992 9.2964 23.2992 7.0844V1.8124Z" fill="#005893"/>
</svg>
