<svg width="41" height="41" viewBox="0 0 41 41" fill="none" xmlns="http://www.w3.org/2000/svg">
<g id="question-mark">
<path id="Vector" d="M20.5 0.5C31.56 0.5 40.5 9.462 40.5 20.5C40.5 31.542 31.56 40.5 20.5 40.5C9.46 40.5 0.5 31.542 0.5 20.5C0.5 9.462 9.46 0.5 20.5 0.5ZM20.5 26.362C19.54 26.362 18.76 27.142 18.76 28.102C18.76 29.062 19.54 29.862 20.52 29.862C21.48 29.862 22.26 29.062 22.26 28.102C22.26 27.142 21.48 26.362 20.5 26.362Z" fill="#005893"/>
<path id="?" d="M20.4857 24.241C20.035 24.241 19.7057 24.1804 19.4977 24.059C19.2897 23.9377 19.1597 23.773 19.1077 23.565C19.073 23.3397 19.0557 23.097 19.0557 22.837V21.147C19.0557 20.731 19.151 20.4017 19.3417 20.159C19.5324 19.9164 19.775 19.717 20.0697 19.561C20.3817 19.3877 20.7024 19.2317 21.0317 19.093C21.3784 18.937 21.699 18.7637 21.9937 18.573C22.3057 18.365 22.557 18.0964 22.7477 17.767C22.9384 17.4377 23.0337 17.0044 23.0337 16.467C23.0337 15.6697 22.8084 15.063 22.3577 14.647C21.9244 14.2137 21.257 13.997 20.3557 13.997C19.9397 13.997 19.567 14.0664 19.2377 14.205C18.9084 14.3264 18.631 14.4997 18.4057 14.725C18.1977 14.933 18.0417 15.1844 17.9377 15.479C17.8337 15.8084 17.7037 16.0597 17.5477 16.233C17.409 16.4064 17.227 16.5104 17.0017 16.545C16.7937 16.5797 16.499 16.5364 16.1177 16.415C15.7537 16.259 15.485 16.1117 15.3117 15.973C15.1384 15.8344 15.0344 15.661 14.9997 15.453C14.9824 15.245 15.0257 14.9764 15.1297 14.647C15.1817 14.4217 15.2857 14.1617 15.4417 13.867C15.5977 13.5724 15.8057 13.269 16.0657 12.957C16.343 12.6277 16.681 12.333 17.0797 12.073C17.4957 11.7957 17.9724 11.579 18.5097 11.423C19.047 11.2497 19.6624 11.163 20.3557 11.163C21.465 11.163 22.4357 11.3884 23.2677 11.839C24.0997 12.2724 24.741 12.8877 25.1917 13.685C25.6597 14.465 25.8937 15.375 25.8937 16.415C25.8937 17.039 25.807 17.6024 25.6337 18.105C25.4604 18.6077 25.2177 19.0497 24.9057 19.431C24.611 19.8124 24.2817 20.1417 23.9177 20.419C23.5537 20.6964 23.1897 20.9217 22.8257 21.095C22.4617 21.2684 22.1237 21.3984 21.8117 21.485L21.9677 21.199V22.941C21.9677 23.1837 21.9417 23.409 21.8897 23.617C21.8377 23.8077 21.7077 23.9637 21.4997 24.085C21.2917 24.189 20.9537 24.241 20.4857 24.241Z" fill="white"/>
</g>
</svg>
