<svg width="40" height="40" viewBox="0 0 40 40" fill="none" xmlns="http://www.w3.org/2000/svg">
<path id="radial-graph" d="M13.9121 5.919C14.8924 5.73552 15.8752 6.22496 16.3029 7.10958C16.4094 7.2701 16.4946 7.44327 16.5565 7.62491C16.8282 11.8186 17.118 15.9412 17.3896 20.0638C17.3835 20.4923 17.4508 20.9188 17.5889 21.3254C17.9139 22.1255 18.7227 22.6331 19.5993 22.5871L32.9116 21.7342L33.0022 21.7697L33.2452 21.7872C33.7264 21.8488 34.1751 22.0684 34.5157 22.4141C34.9131 22.8173 35.131 23.359 35.1216 23.9198C34.5967 31.564 28.9923 37.951 21.3655 39.5965C13.7388 41.2419 5.92035 37.7509 2.17556 31.0278C1.07443 29.0914 0.378605 26.9588 0.128908 24.755C0.0320627 24.102 -0.0103392 23.4423 0.00212397 22.7826C0.0273648 14.6541 5.81455 7.63813 13.9121 5.919ZM21.8271 0.0016498C30.9687 0.27531 38.6087 6.9116 39.9934 15.7813C40.0022 15.8342 40.0022 15.8882 39.9934 15.9412L39.9909 16.1916C39.9609 16.5226 39.825 16.8383 39.5993 17.0917C39.3171 17.4085 38.918 17.602 38.4901 17.6293L23.1311 18.6422L22.8781 18.6472C22.4589 18.6268 22.0569 18.4637 21.7437 18.1818C21.3679 17.8436 21.1549 17.3656 21.1569 16.8652L20.1245 1.77863V1.52986C20.1433 1.10555 20.3334 0.706006 20.6528 0.419325C20.9721 0.132645 21.3946 -0.0176264 21.8271 0.0016498Z" fill="#005893"/>
</svg>
