<svg width="36" height="22" viewBox="0 0 36 22" fill="none" xmlns="http://www.w3.org/2000/svg">
<path id="right-arrow" d="M18.2829 0.179794C17.815 0.432271 17.5232 0.912359 17.5232 1.43453V9.56542H1.46859C0.657928 9.56542 0 10.2081 0 10.9999C0 11.7918 0.657928 12.4345 1.46859 12.4345H17.5232V20.5654C17.5232 21.0895 17.815 21.5695 18.2829 21.8201C18.7509 22.0745 19.3227 22.0573 19.775 21.7799L35.3147 12.2145C35.7415 11.9506 36 11.4934 36 10.9999C36 10.5065 35.7415 10.0493 35.3147 9.78538L19.775 0.219961C19.5361 0.0745954 19.264 0 18.9918 0C18.749 0 18.5042 0.0612065 18.2829 0.179794Z" fill="#005893"/>
</svg>
