<svg width="40" height="32" viewBox="0 0 40 32" fill="none" xmlns="http://www.w3.org/2000/svg">
<path id="road" d="M20.8723 0C21.5222 0 22.0503 0.512977 22.0503 1.14621V5.95655C22.0503 6.72695 22.7079 7.36583 23.501 7.36583C24.3133 7.36583 24.9516 6.72695 24.9516 5.95655V1.14621C24.9516 0.512977 25.4797 0 26.1315 0H32.4371C36.6151 0 40 3.28831 40 7.34703V12.0822C40 12.458 39.8453 12.815 39.5745 13.0781C39.3037 13.3412 38.9362 13.4915 38.5493 13.4915C37.118 13.4915 35.9574 14.6189 35.9574 15.9906C35.9574 17.3717 37.1045 18.4935 38.5222 18.5085C39.3211 18.516 40 19.0572 40 19.8332V24.653C40 28.7098 36.6151 32 32.4371 32H26.1315C25.4797 32 24.9516 31.487 24.9516 30.8538V26.7951C24.9516 26.0059 24.3133 25.3858 23.501 25.3858C22.7079 25.3858 22.0503 26.0059 22.0503 26.7951V30.8538C22.0503 31.487 21.5222 32 20.8723 32H7.56286C3.40426 32 0 28.7117 0 24.653V19.8332C0 19.0572 0.678917 18.516 1.47776 18.5085C2.89749 18.4935 4.04255 17.3717 4.04255 15.9906C4.04255 14.6565 2.9207 13.6418 1.45068 13.6418C1.06383 13.6418 0.696325 13.4915 0.425532 13.2284C0.154739 12.9654 0 12.6083 0 12.2325V7.36583C0 3.31462 3.41199 0 7.5822 0H20.8723ZM23.501 11.4058C22.7079 11.4058 22.0503 12.0446 22.0503 12.815V20.3312C22.0503 21.1016 22.7079 21.7405 23.501 21.7405C24.3133 21.7405 24.9516 21.1016 24.9516 20.3312V12.815C24.9516 12.0446 24.3133 11.4058 23.501 11.4058Z" fill="#005893"/>
</svg>
