<svg width="40" height="40" viewBox="0 0 40 40" fill="none" xmlns="http://www.w3.org/2000/svg">
<path id="rounded-left-arrow" d="M20 0L20.5595 0.00768842C31.3412 0.304326 40 9.14712 40 20C40 31.02 31.04 40 20 40C8.98 40 0 31.02 0 20C0 8.96 8.98 0 20 0ZM23.96 12C23.36 11.4 22.42 11.4 21.84 12L14.86 18.94C14.58 19.22 14.42 19.6 14.42 20C14.42 20.4 14.58 20.78 14.86 21.06L21.84 28C22.12 28.3 22.5 28.44 22.88 28.44C23.28 28.44 23.66 28.3 23.96 28C24.54 27.4 24.54 26.46 23.94 25.88L18.04 20L23.94 14.12C24.54 13.54 24.54 12.58 23.96 12Z" fill="#005893"/>
</svg>
