<svg width="40" height="40" viewBox="0 0 40 40" fill="none" xmlns="http://www.w3.org/2000/svg">
<path id="rounded-up-arrow" d="M20 0C31.04 0 40 8.98 40 20L39.9923 20.5595C39.6957 31.3412 30.8529 40 20 40C8.98 40 0 31.04 0 20C0 8.98 8.98 0 20 0ZM20 14.42C19.6 14.42 19.22 14.58 18.94 14.86L12 21.84C11.7 22.12 11.56 22.5 11.56 22.88C11.56 23.28 11.7 23.66 12 23.96C12.6 24.54 13.54 24.54 14.12 23.94L20 18.04L25.88 23.94C26.46 24.54 27.42 24.54 28 23.96C28.6 23.36 28.6 22.42 28 21.84L21.06 14.86C20.78 14.58 20.4 14.42 20 14.42Z" fill="#005893"/>
</svg>
