<svg width="24" height="20" viewBox="0 0 24 20" fill="none" xmlns="http://www.w3.org/2000/svg">
<path id="rounded-triangle" d="M14.262 0.738432C14.378 0.851437 14.874 1.27813 15.282 1.6756C17.848 4.00585 22.048 10.0848 23.33 13.2664C23.536 13.7496 23.972 14.9713 24 15.624C24 16.2494 23.856 16.8456 23.564 17.4145C23.156 18.1237 22.514 18.6926 21.756 19.0044C21.23 19.2051 19.656 19.5168 19.628 19.5168C17.906 19.8285 15.108 20 12.016 20C9.07 20 6.386 19.8285 4.638 19.5733C4.61 19.5441 2.654 19.2323 1.984 18.8914C0.76 18.266 0 17.0443 0 15.737V15.624C0.03 14.7725 0.79 12.982 0.818 12.982C2.102 9.97175 6.096 4.03312 8.75 1.64637C8.75 1.64637 9.432 0.974184 9.858 0.681929C10.47 0.226011 11.228 0 11.986 0C12.832 0 13.62 0.255236 14.262 0.738432Z" fill="#005893"/>
</svg>
