<svg width="34" height="40" viewBox="0 0 34 40" fill="none" xmlns="http://www.w3.org/2000/svg">
<path id="safety" d="M18.1415 0.199128L31.4164 4.65303C32.9023 5.14922 33.907 6.51422 33.9151 8.04397L33.9997 21.3253C34.0258 25.3516 32.558 29.2564 29.87 32.3159C28.6337 33.7201 27.0491 34.9263 25.0256 36.0049L17.8898 39.8195C17.6663 39.9371 17.4207 39.9979 17.173 40C16.9254 40.0019 16.6777 39.943 16.4562 39.8273L9.25403 36.101C7.20834 35.04 5.60964 33.8515 4.36129 32.4669C1.629 29.4388 0.110838 25.5517 0.0846633 21.5194L4.83529e-05 8.24793C-0.00795661 6.71623 0.978647 5.34142 2.45654 4.82562L15.681 0.212857C16.4663 -0.0656348 17.3422 -0.0715185 18.1415 0.199128ZM24.4896 14.4373C23.8956 13.8666 22.9392 13.8705 22.3533 14.4491L15.6162 21.0897L12.8578 18.4382C12.2638 17.8675 11.3094 17.8734 10.7215 18.4519C10.1355 19.0305 10.1416 19.9601 10.7355 20.5308L14.5672 24.2179C14.8652 24.5042 15.2518 24.6454 15.6384 24.6416C16.025 24.6395 16.4095 24.4944 16.7035 24.2041L24.5017 16.5162C25.0876 15.9376 25.0816 15.008 24.4896 14.4373Z" fill="#005893"/>
</svg>
