<svg width="38" height="40" viewBox="0 0 38 40" fill="none" xmlns="http://www.w3.org/2000/svg">
<path id="settings" d="M20.4345 0C21.9469 0 23.3164 0.84 24.0726 2.08C24.4405 2.68 24.6858 3.42 24.6245 4.2C24.5836 4.8 24.7676 5.4 25.0946 5.96C26.137 7.66 28.4466 8.3 30.2452 7.34C32.2687 6.18 34.8236 6.88 35.9886 8.86L37.3581 11.22C38.5435 13.2 37.8895 15.74 35.8456 16.88C34.1082 17.9 33.4951 20.16 34.5375 21.88C34.8645 22.42 35.2324 22.88 35.8047 23.16C36.5201 23.54 37.0719 24.14 37.4603 24.74C38.2165 25.98 38.1552 27.5 37.4194 28.84L35.9886 31.24C35.2324 32.52 33.8221 33.32 32.3709 33.32C31.6555 33.32 30.8584 33.12 30.2044 32.72C29.6729 32.38 29.0598 32.26 28.4057 32.26C26.3822 32.26 24.6858 33.92 24.6245 35.9C24.6245 38.2 22.7441 40 20.3936 40H17.6138C15.2429 40 13.3625 38.2 13.3625 35.9C13.3216 33.92 11.6252 32.26 9.6017 32.26C8.92721 32.26 8.31404 32.38 7.80306 32.72C7.14901 33.12 6.33144 33.32 5.63651 33.32C4.16489 33.32 2.75459 32.52 1.99834 31.24L0.58804 28.84C-0.168209 27.54 -0.209087 25.98 0.547161 24.74C0.874188 24.14 1.48736 23.54 2.18229 23.16C2.75459 22.88 3.12249 22.42 3.46996 21.88C4.49192 20.16 3.87874 17.9 2.14141 16.88C0.117939 15.74 -0.536114 13.2 0.628918 11.22L1.99834 8.86C3.18381 6.88 5.71827 6.18 7.76218 7.34C9.54039 8.3 11.85 7.66 12.8924 5.96C13.2194 5.4 13.4034 4.8 13.3625 4.2C13.3216 3.42 13.5465 2.68 13.9348 2.08C14.6911 0.84 16.0605 0.04 17.5525 0H20.4345ZM19.0242 14.36C15.8152 14.36 13.2194 16.88 13.2194 20.02C13.2194 23.16 15.8152 25.66 19.0242 25.66C22.2331 25.66 24.7676 23.16 24.7676 20.02C24.7676 16.88 22.2331 14.36 19.0242 14.36Z" fill="#005893"/>
</svg>
