<svg width="40" height="40" viewBox="0 0 40 40" fill="none" xmlns="http://www.w3.org/2000/svg">
<path id="squared-left-arrow" d="M28.18 0C35.24 0 40 4.542 40 11.32V28.66C40 35.44 35.24 40 28.18 40H11.84C4.76 40 0 35.44 0 28.66V11.32C0 4.542 4.76 0 11.84 0H28.18ZM20.42 11.44C19.84 10.86 18.88 10.86 18.3 11.44L10.76 18.94C10.2 19.5 10.2 20.5 10.76 21.06L18.3 28.56C18.88 29.14 19.84 29.14 20.42 28.56C21 27.96 21 27.02 20.42 26.42L15.46 21.5H28.16C29 21.5 29.66 20.82 29.66 20C29.66 19.16 29 18.5 28.16 18.5H15.46L20.42 13.56C20.7 13.28 20.86 12.88 20.86 12.5C20.86 12.122 20.7 11.74 20.42 11.44Z" fill="#005893"/>
</svg>
