<svg width="22" height="36" viewBox="0 0 22 36" fill="none" xmlns="http://www.w3.org/2000/svg">
<path id="up-arrow" d="M0.179794 17.7171C0.432271 18.185 0.912359 18.4768 1.43453 18.4768H9.56542V34.5314C9.56542 35.3421 10.2081 36 10.9999 36C11.7918 36 12.4345 35.3421 12.4345 34.5314V18.4768H20.5654C21.0895 18.4768 21.5695 18.185 21.8201 17.7171C22.0745 17.2491 22.0573 16.6773 21.7799 16.225L12.2145 0.685341C11.9506 0.258472 11.4934 0 10.9999 0C10.5065 0 10.0493 0.258472 9.78538 0.685341L0.219961 16.225C0.0745954 16.4639 0 16.736 0 17.0082C0 17.251 0.0612065 17.4958 0.179794 17.7171Z" fill="#005893"/>
</svg>
