<svg width="40" height="36" viewBox="0 0 40 36" fill="none" xmlns="http://www.w3.org/2000/svg">
<path id="up-down-sign" d="M30.5999 19.6588C33.0249 19.6588 35.2204 19.7965 36.5709 20.0531C36.592 20.0531 37.8279 20.3073 38.2398 20.4712C38.8344 20.7277 39.3376 21.191 39.6583 21.7706C39.8876 22.2338 40 22.7232 40 23.2339C39.9789 23.766 39.6349 24.7661 39.4734 25.1605C38.4692 27.7593 35.1736 32.7265 33.163 34.6317C32.8423 34.9548 32.4537 35.304 32.3624 35.3966C31.8569 35.791 31.2413 36 30.5789 36C29.982 36 29.3875 35.8147 28.9076 35.4417C28.6584 35.2636 28.2945 34.909 28.1282 34.7429L28.0393 34.6531C25.9561 32.7051 22.8243 27.8519 21.8178 25.3909C21.7964 25.3909 21.295 24.1633 21.1936 23.4226L21.1765 23.2339V23.1413C21.1765 22.0723 21.771 21.0746 22.733 20.5638C23.2597 20.2859 24.7904 20.0293 24.8138 20.0056C26.1855 19.7965 28.2897 19.6588 30.5999 19.6588ZM9.41106 19.7811C10.3696 19.7811 11.1585 20.5123 11.2663 21.4555L11.2789 21.6767L11.7915 30.8341C11.7915 32.1692 10.7265 33.25 9.41106 33.25C8.17783 33.25 7.16266 32.3 7.04059 31.0813L7.02828 30.8341L7.54322 21.6767C7.54322 20.6291 8.37883 19.7811 9.41106 19.7811ZM9.42347 0C10.0157 0 10.6102 0.185287 11.0924 0.555861C11.3001 0.705813 11.5874 0.977322 11.7736 1.15987L11.9607 1.34689C14.0416 3.29716 17.1757 8.14788 18.1822 10.6089C18.2015 10.6089 18.7046 11.8384 18.8064 12.5795L18.8235 12.7682V12.8608C18.8235 13.9274 18.2267 14.9251 17.267 15.4358C16.7403 15.7161 15.2096 15.9703 15.1862 15.9941C13.8145 16.2031 11.7103 16.3409 9.40006 16.3409C6.97515 16.3409 4.77961 16.2031 3.42906 15.9466C3.40565 15.9466 2.17213 15.6924 1.76017 15.5285C1.16565 15.2743 0.662405 14.8087 0.341735 14.2291C0.112351 13.7659 0 13.2765 0 12.7682C0.0210659 12.2337 0.365142 11.236 0.524306 10.8417C1.53079 8.24052 4.82409 3.2734 6.83705 1.37065C7.15772 1.04521 7.54626 0.696014 7.63755 0.603371C8.14079 0.209042 8.75872 0 9.42347 0ZM30.5894 2.75C31.8226 2.75 32.8357 3.69998 32.9576 4.91877L32.9698 5.16591L32.4572 14.3236C32.4572 15.3712 31.6216 16.2192 30.5894 16.2192C29.6309 16.2192 28.8419 15.488 28.7341 14.5448L28.7216 14.3236L28.2066 5.16591C28.2066 3.83086 29.274 2.75 30.5894 2.75Z" fill="#005893"/>
</svg>
