<svg width="40" height="42" viewBox="0 0 40 42" fill="none" xmlns="http://www.w3.org/2000/svg">
<path id="upload" d="M0 22.5749C0 17.7517 3.75582 13.7925 8.46232 13.5702L8.88 13.5604H18.46V25.7697C18.46 26.6447 19.14 27.3366 20 27.3366C20.77 27.3366 21.4224 26.7552 21.5257 25.9843L21.54 25.7697V13.5604H31.1C35.86 13.5604 39.7707 17.3817 39.9903 22.189L40 22.6156V32.5255C40 37.3685 36.2442 41.3282 31.5377 41.5506L31.12 41.5604H8.9C4.12057 41.5604 0.228196 37.7199 0.00967603 32.9302L0 32.5052V22.5749ZM13.1004 8.48C12.5368 7.93455 12.4855 7.07504 12.9317 6.47249L13.0804 6.3L18.9004 0.46C19.2004 0.16 19.5804 0 20.0004 0C20.3204 0 20.6404 0.1024 20.899 0.29696L21.0804 0.46L26.9004 6.3C27.2004 6.6 27.3604 7 27.3604 7.38C27.3604 7.78 27.2004 8.18 26.9004 8.48C26.3549 9.02545 25.4954 9.07504 24.8929 8.62876L24.7204 8.48L21.5404 5.28L21.54 13.5604H18.46L18.4604 5.28L15.2804 8.48C14.6804 9.08 13.7004 9.08 13.1004 8.48Z" fill="#005893"/>
</svg>
