<svg width="40" height="30" viewBox="0 0 40 30" fill="none" xmlns="http://www.w3.org/2000/svg">
<path id="video-cam" d="M19.8102 0C24.6542 0 28.0363 3.33807 28.0363 8.12183V21.8782C28.0363 26.6619 24.6542 30 19.8102 30H8.22608C3.38203 30 0 26.6619 0 21.8782V8.12183C0 3.33807 3.38203 0 8.22608 0H19.8102ZM35.916 4.75797C36.794 4.31127 37.824 4.35797 38.662 4.88589C39.5 5.41178 40 6.32548 40 7.32447V22.6768C40 23.6778 39.5 24.5894 38.662 25.1153C38.204 25.4016 37.692 25.5478 37.176 25.5478C36.746 25.5478 36.316 25.4463 35.914 25.2412L32.9519 23.7468C31.8559 23.1905 31.1759 22.0737 31.1759 20.8331V9.16609C31.1759 7.92345 31.8559 6.8067 32.9519 6.25442L35.916 4.75797Z" fill="#005893"/>
</svg>
