<svg width="44" height="36" viewBox="0 0 44 36" fill="none" xmlns="http://www.w3.org/2000/svg">
<path id="volume" d="M19.5152 1.90196e-05C21.602 1.90196e-05 23.5482 1.50308 24.2507 3.91224C24.5087 4.91927 24.6135 5.92846 24.7142 6.90114L24.8086 7.78579C25.1693 10.7382 25.1693 25.2425 24.8086 28.2164L24.7142 29.1333C24.624 30.0587 24.5317 31.0163 24.2654 32.0384C23.5628 34.4411 21.69 36 19.5635 36C19.4964 36 19.4293 36 19.3538 35.9979C18.1793 35.9979 16.9021 35.2764 16.1786 34.6473L9.12574 28.7661H5.50389C2.70833 28.7661 0.661466 26.7413 0.290263 23.6085C-0.137565 20.4757 -0.0536772 15.1013 0.290263 12.2541C0.695021 9.28883 2.83835 7.23396 5.50389 7.23396H9.12574L16.0444 1.43866C16.8791 0.712909 18.3513 -0.00425619 19.5152 1.90196e-05ZM36.5801 0.442147C37.4148 -0.150481 38.562 0.0663867 39.1345 0.914531C42.2719 5.53316 44 11.6033 44 17.9998C44 24.4006 42.2719 30.4686 39.1345 35.0872C38.7927 35.5918 38.2285 35.8946 37.6266 35.8946C37.2533 35.8946 36.8926 35.7786 36.5822 35.5596C35.7517 34.9648 35.5462 33.7946 36.1208 32.9443C38.8346 28.9462 40.3299 23.6384 40.3299 17.9998C40.3299 12.3634 38.8346 7.05552 36.1208 3.05744C35.5462 2.20929 35.7517 1.03692 36.5801 0.442147ZM30.2567 6.51679C31.0934 5.92631 32.2364 6.13888 32.8131 6.98918C34.839 9.97378 35.9568 13.8838 35.9568 18C35.9568 22.1162 34.839 26.0263 32.8131 29.0109C32.4692 29.5155 31.9072 29.8182 31.3053 29.8182C30.932 29.8182 30.5691 29.7023 30.2588 29.4832C29.4283 28.8885 29.2227 27.7161 29.7995 26.868C31.4038 24.5039 32.2867 21.3539 32.2867 18C32.2867 14.6439 31.4038 11.4961 29.7995 9.13208C29.2227 8.28394 29.4283 7.11157 30.2567 6.51679Z" fill="#005893"/>
</svg>
