<svg width="20" height="20" viewBox="0 0 20 20" fill="none" xmlns="http://www.w3.org/2000/svg">
<path d="M19.4444 2.22223H10.5555V17.7778H19.4444C19.7517 17.7778 20 17.5295 20 17.2222V2.77778C20 2.47056 19.7517 2.22223 19.4444 2.22223Z" fill="#2196F3"/>
<path d="M10.5555 5.00055H18.3333V6.1111H10.5555V5.00055ZM10.5555 7.22222H18.3333V8.33333H10.5555V7.22222ZM10.5555 9.44499H18.3333V10.5561H10.5555V9.44499ZM10.5555 11.6672H18.3333V12.7778H10.5555V11.6672ZM10.5555 13.8889H18.3333V15.0005H10.5555V13.8889Z" fill="white"/>
<path d="M11.6667 20L0 17.7778V2.22222L11.6667 0V20Z" fill="#0D47A1"/>
<path d="M8.42612 13.8955H6.91668L5.91557 8.90221C5.86112 8.63721 5.82946 8.34888 5.8189 8.02666H5.80112C5.77723 8.38055 5.74001 8.67221 5.69168 8.90221L4.6639 13.8955H3.09334L1.50446 6.10999H2.99057L3.8439 11.2922C3.87834 11.5167 3.90557 11.8133 3.92334 12.185H3.94668C3.95723 11.9083 4.00112 11.6011 4.07057 11.2711L5.16501 6.10944H6.62168L7.61334 11.3339C7.64779 11.5272 7.67946 11.8039 7.70779 12.1733H7.72501C7.73612 11.8872 7.76557 11.5983 7.8139 11.305L8.6489 6.10944H10.02L8.42612 13.8955Z" fill="white"/>
</svg>
