<svg width="172" height="131" viewBox="0 0 172 131" fill="none" xmlns="http://www.w3.org/2000/svg">
<path d="M83.1062 0C66.166 0 52.4181 13.688 52.4181 30.5529C52.4181 47.4243 66.166 61.1109 83.1062 61.1109C90.1709 61.1109 96.6758 58.727 101.864 54.7258V61.1036H106.651V41.2285C102.567 50.1225 93.5523 56.3212 83.1062 56.3212C68.8371 56.3212 57.2268 44.762 57.2268 30.5529C57.2268 16.346 68.8371 4.78752 83.1062 4.78752C97.3767 4.78752 108.988 16.346 108.988 30.5529C108.988 30.729 108.978 30.9037 108.973 31.0791H108.988V61.1036H113.775V31.6506C113.787 31.2881 113.795 30.922 113.795 30.5529C113.795 13.688 100.047 0 83.1062 0Z" fill="#E30524"/>
<path d="M83.106 49.0971C72.8264 49.0971 64.4828 40.7856 64.4828 30.5521C64.4828 20.3208 72.8264 12.0123 83.106 12.0123C93.3862 12.0123 101.731 20.3208 101.731 30.5521C101.731 40.7856 93.3862 49.0971 83.106 49.0971ZM83.106 7.11218C70.1239 7.11218 59.5615 17.627 59.5615 30.5521C59.5615 43.4794 70.1239 53.9964 83.106 53.9964C96.0888 53.9964 106.651 43.4794 106.651 30.5521C106.651 17.627 96.0888 7.11218 83.106 7.11218Z" fill="#E30524"/>
<path d="M69.4626 89.7345V76.2547H72.3142V89.7893C72.3142 95.2484 74.7281 97.8808 79.6647 97.8808V100.485C73.0362 100.493 69.4626 96.824 69.4626 89.7345ZM63.8617 89.7893V76.2547H66.7147L66.706 89.7893C66.7001 98.5414 71.4182 103.202 79.6647 103.125V105.737C69.7914 105.737 63.8617 100.163 63.8617 89.7893ZM89.8514 97.5965C89.8514 104.686 86.2785 108.355 79.6486 108.347V105.743C84.5859 105.743 86.9998 103.111 86.9998 97.6513V76.2489H89.8514V97.5965ZM95.4523 97.6513C95.4523 108.025 89.5233 113.599 79.6486 113.599V110.986C87.8957 111.063 92.6109 106.403 92.6073 97.6513L92.6 76.2489H95.4523V97.6513ZM5.60091 92.2514C5.60091 85.1618 9.06494 81.4961 16.2415 81.5012L23.8981 81.507V84.1058H16.2415C10.756 84.1058 8.45253 86.7374 8.45253 92.1965V107.047H5.60091V92.2514ZM0 92.1965C0 81.8234 5.82015 76.2489 16.2415 76.2489H23.8981V78.9024L16.2415 78.8608C7.4462 78.814 2.83919 83.4444 2.8443 92.1965L2.85235 107.047H0V92.1965ZM145.027 76.2547H147.878V107.047H145.027V76.2547ZM139.432 76.2547H142.284V107.047H139.432V76.2547ZM165.735 92.2514V107.047H162.883V92.1965C162.883 86.7374 160.579 84.105 155.094 84.105H150.508V81.507L155.094 81.5012C162.272 81.4924 165.735 85.1618 165.735 92.2514ZM171.336 92.1965V107.047H168.483L168.491 92.1965C168.497 83.4444 163.889 78.7826 155.094 78.8608L150.508 78.9024V76.2489H155.094C165.516 76.2489 171.336 81.8234 171.336 92.1965ZM107.065 76.2547H109.916V107.047H107.065V76.2547ZM101.469 76.2547H104.321V107.047H101.469V76.2547ZM127.774 92.2514V107.047H124.921V92.1965C124.921 86.7374 122.617 84.105 117.132 84.105H112.547V81.507L117.132 81.5012C124.309 81.4924 127.774 85.1618 127.774 92.2514ZM133.373 92.1965V107.047H130.52L130.53 92.1965C130.534 83.4444 125.927 78.7826 117.132 78.8608L112.547 78.9024V76.2489H117.132C127.554 76.2489 133.373 81.8234 133.373 92.1965ZM34.5563 91.6506C34.5563 96.2262 37.744 100.053 42.3394 100.053C46.9361 100.053 50.1239 96.2262 50.1239 91.6506C50.1239 87.075 46.9361 83.1382 42.3394 83.1382C37.744 83.1382 34.5563 87.075 34.5563 91.6506ZM31.5789 91.6506C31.5789 85.5411 36.1947 80.5021 42.3394 80.5021C48.4855 80.5021 53.1013 85.5396 53.1013 91.6506C53.1013 97.7631 48.4855 102.69 42.3394 102.69C36.2013 102.69 31.5789 97.7478 31.5789 91.6506ZM25.8735 91.7084C25.8735 82.5565 33.1436 75.2601 42.3394 75.2601C51.5359 75.2601 58.8067 82.4914 58.8067 91.6506C58.8067 100.81 51.5359 107.932 42.3394 107.932C39.4746 107.932 36.7962 107.3 34.4664 105.97V113.599H31.614L31.5892 99.8569C34.0177 103.083 37.8654 105.298 42.3394 105.298C50.0033 105.298 55.8315 99.2788 55.8315 91.6506C55.8315 84.0225 50.0033 77.8946 42.3394 77.8946C34.6768 77.8946 28.8494 84.0225 28.8494 91.6506L28.8333 113.599H25.8713L25.8735 91.7084Z" fill="#E30524"/>
<g opacity="0.99">
<g opacity="0.99">
<path opacity="0.99" d="M7.46594 128.024C6.84183 128.895 5.60237 129.474 4.25768 129.474C1.65162 129.474 0 127.81 0 125.241C0 122.87 1.61508 121.005 4.17583 121.005C5.66229 121.005 6.79359 121.631 7.34827 122.375L6.65109 123.047C6.01602 122.409 5.28374 122.032 4.19849 122.032C2.27573 122.032 1.11961 123.352 1.11961 125.241C1.11961 127.174 2.40656 128.448 4.32932 128.448C5.47157 128.448 6.28642 127.976 6.8528 127.34L7.46594 128.024Z" fill="#E30524"/>
</g>
</g>
<g opacity="0.99">
<g opacity="0.99">
<path opacity="0.99" d="M9.84167 121.113H15.7868V122.116H10.9152V124.686H15.4565V125.665H10.9152V128.366H15.8942V129.368H9.84167V121.113Z" fill="#E30524"/>
</g>
</g>
<g opacity="0.99">
<g opacity="0.99">
<path opacity="0.99" d="M17.796 121.113H24.6152V122.116H21.7358V129.368H20.6637V122.116H17.796V121.113Z" fill="#E30524"/>
</g>
</g>
<g opacity="0.99">
<g opacity="0.99">
<path opacity="0.99" d="M27.8634 124.179H30.0222C32.2519 124.179 33.3488 125.099 33.3488 126.703C33.3488 128.46 32.0736 129.368 29.9169 129.368H26.7898V121.113H27.8634V124.179ZM27.8634 125.182V128.366H29.9513C31.4144 128.366 32.227 127.825 32.227 126.703C32.227 125.689 31.426 125.182 29.9878 125.182H27.8634V125.182Z" fill="#E30524"/>
</g>
</g>
<g opacity="0.99">
<g opacity="0.99">
<path opacity="0.99" d="M40.6188 121.113H41.6098L44.7486 125.264L47.7792 121.113H48.7461V129.368H47.674V122.965L44.8538 126.762H44.5944L41.6923 122.965V129.368H40.6188V121.113Z" fill="#E30524"/>
</g>
</g>
<g opacity="0.99">
<g opacity="0.99">
<path opacity="0.99" d="M51.9594 121.113H57.9045V122.116H53.0329V124.686H57.5742V125.665H53.0329V128.366H58.0119V129.368H51.9594V121.113Z" fill="#E30524"/>
</g>
</g>
<g opacity="0.99">
<g opacity="0.99">
<path opacity="0.99" d="M60.1014 121.113H66.9206V122.116H64.0412V129.368H62.9691V122.116H60.1014V121.113Z" fill="#E30524"/>
</g>
</g>
<g opacity="0.99">
<g opacity="0.99">
<path opacity="0.99" d="M70.8869 121.088H71.7361L75.3587 129.368H74.2369L73.3168 127.281H69.2718L68.3634 129.368H67.2665L70.8869 121.088ZM69.673 126.338H72.9171L71.2881 122.586L69.673 126.338Z" fill="#E30524"/>
</g>
</g>
<g opacity="0.99">
<g opacity="0.99">
<path opacity="0.99" d="M82.9955 122.116H79.4328V122.623C79.4328 128.331 78.2416 129.392 77.0737 129.392C76.9202 129.392 76.7434 129.38 76.5782 129.368V128.331C77.464 128.46 78.3607 127.894 78.3607 122.458V121.113H84.069V129.368H82.9955V122.116Z" fill="#E30524"/>
</g>
</g>
<g opacity="0.99">
<g opacity="0.99">
<path opacity="0.99" d="M92.7651 122.116H89.2017V122.623C89.2017 128.331 88.0105 129.392 86.8426 129.392C86.6899 129.392 86.5123 129.38 86.3472 129.368V128.331C87.2329 128.46 88.1296 127.894 88.1296 122.458V121.113H93.8387V129.368H92.7651V122.116V122.116Z" fill="#E30524"/>
</g>
</g>
<g opacity="0.99">
<g opacity="0.99">
<path opacity="0.99" d="M100.803 121.006C103.128 121.006 104.99 122.775 104.99 125.242C104.99 127.672 103.128 129.475 100.803 129.475C98.4676 129.475 96.6047 127.706 96.6047 125.242C96.6047 122.846 98.4442 121.006 100.803 121.006ZM100.803 128.449C102.538 128.449 103.87 127.116 103.87 125.242C103.87 123.353 102.456 122.033 100.803 122.033C99.1165 122.033 97.7243 123.353 97.7243 125.242C97.7243 127.116 99.1282 128.449 100.803 128.449Z" fill="#E30524"/>
</g>
</g>
<g opacity="0.99">
<g opacity="0.99">
<path opacity="0.99" d="M107.755 121.113H108.829V128.366H113.429V121.113H114.502V128.366H115.552V130.878H114.526V129.368H107.755V121.113Z" fill="#E30524"/>
</g>
</g>
<g opacity="0.99">
<g opacity="0.99">
<path opacity="0.99" d="M118.012 121.113H123.957V122.116H119.086V124.686H123.627V125.665H119.086V128.366H124.064V129.368H118.012V121.113Z" fill="#E30524"/>
</g>
</g>
<g opacity="0.99">
<g opacity="0.99">
<path opacity="0.99" d="M132.984 125.677H128.065V129.368H126.992V121.113H128.065V124.674H132.984V121.113H134.058V129.368H132.984V125.677Z" fill="#E30524"/>
</g>
</g>
<g opacity="0.99">
<g opacity="0.99">
<path opacity="0.99" d="M136.434 121.113H143.253V122.116H140.374V129.368H139.302V122.116H136.434V121.113Z" fill="#E30524"/>
</g>
</g>
<g opacity="0.99">
<g opacity="0.99">
<path opacity="0.99" d="M145.616 129.368V121.113H148.825C151.586 121.113 152.21 122.444 152.21 123.708C152.21 125.039 151.337 126.326 148.814 126.326H146.689V129.368H145.616ZM146.689 122.116V125.335H148.789C150.406 125.335 151.101 124.674 151.101 123.695C151.101 122.774 150.511 122.116 148.871 122.116H146.689V122.116Z" fill="#E30524"/>
</g>
</g>
<g opacity="0.99">
<g opacity="0.99">
<path opacity="0.99" d="M158.5 121.006C160.824 121.006 162.687 122.775 162.687 125.242C162.687 127.672 160.824 129.475 158.5 129.475C156.165 129.475 154.301 127.706 154.301 125.242C154.301 122.846 156.141 121.006 158.5 121.006ZM158.5 128.449C160.235 128.449 161.568 127.116 161.568 125.242C161.568 123.353 160.152 122.033 158.5 122.033C156.814 122.033 155.421 123.353 155.421 125.242C155.421 127.116 156.825 128.449 158.5 128.449Z" fill="#E30524"/>
</g>
</g>
<g opacity="0.99">
<g opacity="0.99">
<path opacity="0.99" d="M165.454 121.113H168.792C171.034 121.113 171.706 121.974 171.706 123.165C171.706 124.074 171.27 124.734 170.538 125.053C171.436 125.242 172 125.925 172 127.01C172 128.685 170.704 129.369 168.735 129.369H165.454V121.113ZM166.528 122.116V124.663H168.875C169.925 124.663 170.609 124.191 170.609 123.39C170.609 122.54 170.136 122.116 168.698 122.116H166.528ZM166.528 125.643V128.366H168.722C170.22 128.366 170.892 127.93 170.892 126.951C170.892 126.079 170.267 125.643 168.84 125.643H166.528V125.643Z" fill="#E30524"/>
</g>
</g>
</svg>
