<svg xmlns="http://www.w3.org/2000/svg" version="1.1" xmlns:xlink="http://www.w3.org/1999/xlink" xmlns:svgjs="http://svgjs.com/svgjs" width="512" height="512" x="0" y="0" viewBox="0 0 682.667 682.667" style="enable-background:new 0 0 512 512" xml:space="preserve" class="">
	<g>
		<defs>
			<clipPath id="a" clipPathUnits="userSpaceOnUse">
				<path d="M0 512h512V0H0Z" fill="#142647" data-original="#000000"></path>
			</clipPath>
		</defs>
		<g clip-path="url(#a)" transform="matrix(1.33333 0 0 -1.33333 0 682.667)">
			<path d="m0 0-151.994 151.994c-6.47 6.47-6.47 16.959 0 23.429l23.429 23.429c6.469 6.47 16.959 6.47 23.429 0L46.858 46.858V0Z" style="stroke-width:15;stroke-linecap:round;stroke-linejoin:round;stroke-miterlimit:10;stroke-dasharray:none;stroke-opacity:1" transform="translate(180.9 68.888)" fill="none" stroke="#142647" stroke-width="15" stroke-linecap="round" stroke-linejoin="round"
				stroke-miterlimit="10" stroke-dasharray="none" stroke-opacity="" data-original="#000000" class=""></path>
			<path d="m0 0 11.714-11.714" style="stroke-width:15;stroke-linecap:round;stroke-linejoin:round;stroke-miterlimit:10;stroke-dasharray:none;stroke-opacity:1" transform="translate(227.758 68.888)" fill="none" stroke="#142647" stroke-width="15" stroke-linecap="round" stroke-linejoin="round" stroke-miterlimit="10" stroke-dasharray="none" stroke-opacity="" data-original="#000000" class="">
			</path>
			<path d="m0 0-46.858-46.857" style="stroke-width:15;stroke-linecap:round;stroke-linejoin:round;stroke-miterlimit:10;stroke-dasharray:none;stroke-opacity:1" transform="translate(99.192 244.311)" fill="none" stroke="#142647" stroke-width="15" stroke-linecap="round" stroke-linejoin="round" stroke-miterlimit="10" stroke-dasharray="none" stroke-opacity="" data-original="#000000" class="">
			</path>
			<path d="m0 0-46.858-46.858" style="stroke-width:15;stroke-linecap:round;stroke-linejoin:round;stroke-miterlimit:10;stroke-dasharray:none;stroke-opacity:1" transform="translate(227.758 115.746)" fill="none" stroke="#142647" stroke-width="15" stroke-linecap="round" stroke-linejoin="round" stroke-miterlimit="10" stroke-dasharray="none" stroke-opacity="" data-original="#000000" class="">
			</path>
			<path d="m0 0 128.565-128.565" style="stroke-width:15;stroke-linecap:round;stroke-linejoin:round;stroke-miterlimit:10;stroke-dasharray:none;stroke-opacity:1" transform="translate(75.764 220.882)" fill="none" stroke="#142647" stroke-width="15" stroke-linecap="round" stroke-linejoin="round" stroke-miterlimit="10" stroke-dasharray="none" stroke-opacity="" data-original="#000000" class="">
			</path>
			<path d="M0 0v108.352c0 18.298-14.834 33.132-33.133 33.132h-16.566" style="stroke-width:15;stroke-linecap:round;stroke-linejoin:round;stroke-miterlimit:10;stroke-dasharray:none;stroke-opacity:1" transform="translate(487.947 329.882)" fill="none" stroke="#142647" stroke-width="15" stroke-linecap="round" stroke-linejoin="round" stroke-miterlimit="10" stroke-dasharray="none"
				stroke-opacity="" data-original="#000000" class=""></path>
			<path d="M0 0h29.634c18.299 0 33.133 14.834 33.133 33.133v259.248" style="stroke-width:15;stroke-linecap:round;stroke-linejoin:round;stroke-miterlimit:10;stroke-dasharray:none;stroke-opacity:1" transform="translate(425.18 7.5)" fill="none" stroke="#142647" stroke-width="15" stroke-linecap="round" stroke-linejoin="round" stroke-miterlimit="10" stroke-dasharray="none" stroke-opacity=""
				data-original="#000000" class=""></path>
			<path d="M0 0v-100.953c0-18.298 14.834-33.132 33.132-33.132h255.136" style="stroke-width:15;stroke-linecap:round;stroke-linejoin:round;stroke-miterlimit:10;stroke-dasharray:none;stroke-opacity:1" transform="translate(106.913 141.586)" fill="none" stroke="#142647" stroke-width="15" stroke-linecap="round" stroke-linejoin="round" stroke-miterlimit="10" stroke-dasharray="none"
				stroke-opacity="" data-original="#000000" class=""></path>
			<path d="M0 0h-16.568c-18.299 0-33.133-14.834-33.133-33.132v-200.354" style="stroke-width:15;stroke-linecap:round;stroke-linejoin:round;stroke-miterlimit:10;stroke-dasharray:none;stroke-opacity:1" transform="translate(156.613 471.367)" fill="none" stroke="#142647" stroke-width="15" stroke-linecap="round" stroke-linejoin="round" stroke-miterlimit="10" stroke-dasharray="none"
				stroke-opacity="" data-original="#000000" class=""></path>
			<path d="M0 0h-49.7" style="stroke-width:15;stroke-linecap:round;stroke-linejoin:round;stroke-miterlimit:10;stroke-dasharray:none;stroke-opacity:1" transform="translate(239.446 471.367)" fill="none" stroke="#142647" stroke-width="15" stroke-linecap="round" stroke-linejoin="round" stroke-miterlimit="10" stroke-dasharray="none" stroke-opacity="" data-original="#000000" class=""></path>
			<path d="M0 0h-49.701" style="stroke-width:15;stroke-linecap:round;stroke-linejoin:round;stroke-miterlimit:10;stroke-dasharray:none;stroke-opacity:1" transform="translate(322.28 471.367)" fill="none" stroke="#142647" stroke-width="15" stroke-linecap="round" stroke-linejoin="round" stroke-miterlimit="10" stroke-dasharray="none" stroke-opacity="" data-original="#000000" class=""></path>
			<path d="M0 0h-49.527" style="stroke-width:15;stroke-linecap:round;stroke-linejoin:round;stroke-miterlimit:10;stroke-dasharray:none;stroke-opacity:1" transform="translate(405.114 471.367)" fill="none" stroke="#142647" stroke-width="15" stroke-linecap="round" stroke-linejoin="round" stroke-miterlimit="10" stroke-dasharray="none" stroke-opacity="" data-original="#000000" class=""></path>
			<path d="M0 0h381.034" style="stroke-width:15;stroke-linecap:round;stroke-linejoin:round;stroke-miterlimit:10;stroke-dasharray:none;stroke-opacity:1" transform="translate(106.913 388.534)" fill="none" stroke="#142647" stroke-width="15" stroke-linecap="round" stroke-linejoin="round" stroke-miterlimit="10" stroke-dasharray="none" stroke-opacity="" data-original="#000000" class=""></path>
			<path d="M0 0h265.067" style="stroke-width:15;stroke-linecap:round;stroke-linejoin:round;stroke-miterlimit:10;stroke-dasharray:none;stroke-opacity:1" transform="translate(164.896 338.834)" fill="none" stroke="#142647" stroke-width="15" stroke-linecap="round" stroke-linejoin="round" stroke-miterlimit="10" stroke-dasharray="none" stroke-opacity="" data-original="#000000" class=""></path>
			<path d="M0 0h265.067" style="stroke-width:15;stroke-linecap:round;stroke-linejoin:round;stroke-miterlimit:10;stroke-dasharray:none;stroke-opacity:1" transform="translate(164.896 289.133)" fill="none" stroke="#142647" stroke-width="15" stroke-linecap="round" stroke-linejoin="round" stroke-miterlimit="10" stroke-dasharray="none" stroke-opacity="" data-original="#000000" class=""></path>
			<path d="M0 0h265.067" style="stroke-width:15;stroke-linecap:round;stroke-linejoin:round;stroke-miterlimit:10;stroke-dasharray:none;stroke-opacity:1" transform="translate(164.896 239.434)" fill="none" stroke="#142647" stroke-width="15" stroke-linecap="round" stroke-linejoin="round" stroke-miterlimit="10" stroke-dasharray="none" stroke-opacity="" data-original="#000000" class=""></path>
			<path d="M0 0h265.067" style="stroke-width:15;stroke-linecap:round;stroke-linejoin:round;stroke-miterlimit:10;stroke-dasharray:none;stroke-opacity:1" transform="translate(164.896 189.734)" fill="none" stroke="#142647" stroke-width="15" stroke-linecap="round" stroke-linejoin="round" stroke-miterlimit="10" stroke-dasharray="none" stroke-opacity="" data-original="#000000" class=""></path>
			<path d="M0 0h173.95" style="stroke-width:15;stroke-linecap:round;stroke-linejoin:round;stroke-miterlimit:10;stroke-dasharray:none;stroke-opacity:1" transform="translate(256.013 140.033)" fill="none" stroke="#142647" stroke-width="15" stroke-linecap="round" stroke-linejoin="round" stroke-miterlimit="10" stroke-dasharray="none" stroke-opacity="" data-original="#000000" class=""></path>
			<path d="M0 0c0-9.149 7.417-16.567 16.567-16.567S33.134-9.149 33.134 0v33.133c0 9.15-7.417 16.567-16.567 16.567S0 42.283 0 33.133Z" style="stroke-width:15;stroke-linecap:round;stroke-linejoin:round;stroke-miterlimit:10;stroke-dasharray:none;stroke-opacity:1" transform="translate(156.613 454.8)" fill="none" stroke="#142647" stroke-width="15" stroke-linecap="round"
				stroke-linejoin="round" stroke-miterlimit="10" stroke-dasharray="none" stroke-opacity="" data-original="#000000" class=""></path>
			<path d="M0 0c0-9.149 7.417-16.567 16.567-16.567 9.149 0 16.567 7.418 16.567 16.567v33.133c0 9.15-7.418 16.567-16.567 16.567C7.417 49.7 0 42.283 0 33.133Z" style="stroke-width:15;stroke-linecap:round;stroke-linejoin:round;stroke-miterlimit:10;stroke-dasharray:none;stroke-opacity:1" transform="translate(405.113 454.8)" fill="none" stroke="#142647" stroke-width="15"
				stroke-linecap="round" stroke-linejoin="round" stroke-miterlimit="10" stroke-dasharray="none" stroke-opacity="" data-original="#000000" class=""></path>
			<path d="M0 0c0-9.149 7.417-16.567 16.567-16.567 9.149 0 16.567 7.418 16.567 16.567v33.133c0 9.15-7.418 16.567-16.567 16.567C7.417 49.7 0 42.283 0 33.133Z" style="stroke-width:15;stroke-linecap:round;stroke-linejoin:round;stroke-miterlimit:10;stroke-dasharray:none;stroke-opacity:1" transform="translate(239.446 454.8)" fill="none" stroke="#142647" stroke-width="15"
				stroke-linecap="round" stroke-linejoin="round" stroke-miterlimit="10" stroke-dasharray="none" stroke-opacity="" data-original="#000000" class=""></path>
			<path d="M0 0c0-9.149 7.417-16.567 16.567-16.567S33.134-9.149 33.134 0v33.133c0 9.15-7.417 16.567-16.567 16.567S0 42.283 0 33.133Z" style="stroke-width:15;stroke-linecap:round;stroke-linejoin:round;stroke-miterlimit:10;stroke-dasharray:none;stroke-opacity:1" transform="translate(322.28 454.8)" fill="none" stroke="#142647" stroke-width="15" stroke-linecap="round" stroke-linejoin="round"
				stroke-miterlimit="10" stroke-dasharray="none" stroke-opacity="" data-original="#000000" class=""></path>
		</g>
	</g>
</svg>