<svg id="icon-b24" width="77" height="46" viewBox="0 0 77 46" fill="none" xmlns="http://www.w3.org/2000/svg">
	<path
		d="M0.556012 30.6018V32.997C0.819014 34.0749 0.986379 35.1527 1.36893 36.2066C3.25776 41.5479 8.58952 45.5 15.1646 45.5C31.1838 45.476 47.203 45.476 63.1983 45.5C69.1995 45.5 74.0292 41.9311 75.7267 37.1407C76.0854 36.1827 76.2527 35.1527 76.4918 34.1467V31.8952C76.444 31.7515 76.3723 31.6318 76.3484 31.512C75.6072 26.7455 72.9054 23.3683 68.2431 21.524C66.8803 20.9731 65.3501 20.7815 63.8677 20.3983C65.2305 16.6378 65.0632 12.8055 63.2461 9.11684C61.429 5.40427 58.4403 2.81745 54.3997 1.42823C50.9089 0.206676 47.3225 0.182723 43.8079 1.40428C39.2412 2.98511 36.0852 6.02702 34.292 10.3623C30.8012 8.99708 27.3583 8.94917 24.011 10.5779C20.6637 12.2067 18.6553 14.8653 17.7946 18.3144C17.6033 18.3144 17.4838 18.3144 17.3642 18.3144C10.2871 17.1168 3.52076 21.1408 1.2972 27.4162C0.938561 28.4461 0.771196 29.5479 0.508194 30.6258H0.556012V30.6018Z"
		fill="white" />
	<path class="footer__icon-change"
		d="M25.2211 32.9961L30.4632 28.6258C30.9753 28.2009 31.4122 27.8215 31.7737 27.4876C32.1352 27.1386 32.429 26.8124 32.6549 26.5089C32.8959 26.2054 33.0692 25.917 33.1746 25.6439C33.2951 25.3556 33.3554 25.0597 33.3554 24.7562C33.3554 24.225 33.2047 23.8153 32.9035 23.527C32.6173 23.2387 32.203 23.0945 31.6607 23.0945C30.2297 23.0945 29.5142 23.9898 29.5142 25.7805H25.447C25.447 23.8381 25.9592 22.3358 26.9835 21.2735C28.0229 20.2113 29.582 19.6802 31.6607 19.6802C32.6248 19.6802 33.4684 19.8092 34.1914 20.0671C34.9145 20.3099 35.517 20.659 35.999 21.1142C36.4811 21.5543 36.8351 22.0854 37.061 22.7076C37.302 23.3297 37.4225 24.0126 37.4225 24.7562C37.4225 25.3025 37.3246 25.826 37.1288 26.3268C36.948 26.8275 36.6844 27.3131 36.338 27.7835C36.0066 28.254 35.6074 28.7092 35.1404 29.1493C34.6734 29.5894 34.1688 30.0218 33.6265 30.4467L30.8925 32.5409H37.6485V35.9097H25.2211V32.9961Z"
		fill="#0BBBEF" />
	<path class="footer__icon-change" d="M45.9941 32.814H38.8992V30.0143L46.2652 19.9761H50.0612V29.4452H51.7785V32.814H50.0612V35.9097H45.9941V32.814ZM45.9941 29.4452V24.5058L42.537 29.4452H45.9941Z" fill="#0BBBEF" />
</svg>