<svg id="catalog-button-icon" width="24" height="22" viewBox="0 0 24 22" fill="none" xmlns="http://www.w3.org/2000/svg">
	<path
		d="M21.9844 7.02482H11.8125L7.07812 0.519972C6.89062 0.207989 6.625 0.036398 6.28125 0.00519972C5.9375 -0.0259986 5.60938 0.0831955 5.29688 0.332782C4.82812 0.831955 4.79688 1.33113 5.20312 1.8303L8.90625 7.02482H2.01562C1.45312 7.02482 0.976562 7.21981 0.585938 7.60979C0.195313 7.99976 0 8.45994 0 8.99031V10.0199C0 10.8934 0.40625 11.4862 1.21875 11.7982L3.98438 20.2685C4.10938 20.7053 4.35938 21.103 4.73438 21.4618C5.10938 21.8206 5.53125 22 6 22H18C18.4688 22 18.8906 21.8206 19.2656 21.4618C19.6406 21.103 19.8906 20.7053 20.0156 20.2685L22.7812 11.8918C23.5938 11.5798 24 10.987 24 10.1134V9.0839C24 8.49114 23.8047 7.99976 23.4141 7.60979C23.0234 7.21981 22.5469 7.02482 21.9844 7.02482ZM2.01562 8.99031H10.4062L11.1094 9.92626C11.1719 9.92626 11.2031 9.95746 11.2031 10.0199H2.01562V8.99031ZM18.0938 19.7069V19.8005C18.0938 19.8317 18.0781 19.8629 18.0469 19.8941C18.0156 19.9253 18 19.9565 18 19.9877H6.09375C6.03125 19.9877 6 19.9253 6 19.8005L3.42188 11.9853H20.5781L18.0938 19.7069ZM12.8906 10.0199C13.1094 9.64547 13.2188 9.30229 13.2188 8.99031H21.9844V10.0199H12.8906ZM6.98438 18.2094C7.01562 18.4278 7.14062 18.615 7.35938 18.771C7.57812 18.927 7.79688 19.005 8.01562 19.005H8.20312C8.45312 18.9426 8.65625 18.7866 8.8125 18.537C8.96875 18.2874 9 18.0378 8.90625 17.7882L7.92188 13.8104C7.85938 13.5609 7.70312 13.3581 7.45312 13.2021C7.20312 13.0461 6.95312 13.0149 6.70312 13.1085C6.45312 13.1709 6.25 13.3269 6.09375 13.5765C5.9375 13.826 5.90625 14.06 6 14.2784L6.98438 18.2094ZM15.7969 19.005H15.9844C16.2031 19.005 16.4219 18.927 16.6406 18.771C16.8594 18.615 16.9844 18.4278 17.0156 18.2094L18 14.1848C18.0625 13.9352 18.0234 13.6857 17.8828 13.4361C17.7422 13.1865 17.5469 13.0461 17.2969 13.0149C16.6406 12.8901 16.2344 13.1241 16.0781 13.7169L15.0938 17.6946C14.9062 18.3186 15.1406 18.7554 15.7969 19.005ZM12 19.005C12.6562 19.005 12.9844 18.6618 12.9844 17.9754V13.9976C12.9844 13.3425 12.6562 13.0149 12 13.0149C11.3438 13.0149 11.0156 13.3425 11.0156 13.9976V17.9754C11.0156 18.6618 11.3438 19.005 12 19.005Z"
		fill="#1C2A4D" />
</svg>